<svg width="275" height="183" viewBox="0 0 275 183" fill="none" xmlns="http://www.w3.org/2000/svg">
<g clip-path="url(#clip0_40_1370)">
<path d="M139.313 51.434C136.861 47.3698 133.955 43.0305 129.405 41.7034C124.135 40.1666 118.722 43.2196 114.13 46.2322C100.399 55.2421 87.1748 65.0063 74.5193 75.48L74.5331 75.6378C84.3859 74.9568 94.2387 74.2759 104.091 73.595C111.21 73.103 118.573 72.5432 124.864 69.1684C127.251 67.8878 129.578 66.1771 132.283 66.0579C135.644 65.9098 138.575 68.2621 140.878 70.7196C154.5 85.2568 158.442 107.488 173.725 120.26C164.088 96.4421 152.581 73.4281 139.313 51.434Z" fill="#F2F2F2"/>
<path d="M223.047 174.736C221.541 172.83 220.925 172.383 219.439 170.459C207.34 154.777 195.968 138.565 185.323 121.824C178.092 110.454 171.22 98.8651 164.707 87.0582C161.606 81.4451 158.59 75.7879 155.659 70.0866C153.384 65.666 151.161 61.219 148.988 56.7455C148.366 55.4678 147.763 54.1842 147.162 52.8977C145.746 49.8723 144.357 46.8322 142.865 43.848C141.165 40.4466 139.096 36.8808 135.974 34.5956C134.554 33.5129 132.855 32.8578 131.077 32.7069C128.535 32.5424 126.191 33.594 123.987 34.7424C107.86 43.1695 92.7631 53.7349 79.1078 65.7571C65.4175 77.8064 53.1806 91.4191 42.6466 106.318C42.3243 106.779 41.5622 106.338 41.8875 105.874C43.1683 104.059 44.4746 102.263 45.8062 100.487C62.364 78.4185 82.6664 59.4405 105.785 44.4207C109.675 41.8947 113.638 39.4871 117.673 37.198C119.707 36.0436 121.75 34.904 123.828 33.8348C125.865 32.7862 128.028 31.8433 130.356 31.8081C138.275 31.6847 142.376 40.6728 145.192 46.7206C146.077 48.624 146.973 50.5215 147.88 52.4131C151.306 59.5947 154.864 66.7107 158.554 73.7612C160.832 78.1142 163.159 82.4418 165.536 86.7439C172.934 100.141 180.796 113.267 189.124 126.121C200.157 143.148 211.101 158.19 223.669 174.113C224.015 174.554 223.396 175.182 223.047 174.736Z" fill="#E4E4E4"/>
<path d="M78.3252 61.3189C77.8651 60.8049 77.4079 60.2909 76.9447 59.7768C73.2928 55.7293 69.3742 51.7287 64.3592 49.4082C61.9681 48.2669 59.3577 47.6605 56.7094 47.6312C53.9719 47.64 51.296 48.3596 48.7666 49.3671C47.5707 49.8459 46.4012 50.3893 45.2494 50.9679C43.9334 51.6318 42.6408 52.3397 41.3542 53.0534C38.939 54.3928 36.5552 55.7909 34.2027 57.2478C29.5219 60.1469 24.9876 63.2673 20.6 66.6089C18.3255 68.3419 16.098 70.1317 13.9173 71.9783C11.8891 73.6936 9.90197 75.455 7.95582 77.2624C7.53964 77.6472 6.91824 77.0245 7.33442 76.6397C7.84734 76.1609 8.36612 75.6851 8.88491 75.2151C10.3504 73.8875 11.8393 72.5853 13.3518 71.3086C16.1097 68.9764 18.9391 66.7342 21.8398 64.5822C26.3506 61.2337 31.0167 58.1124 35.838 55.2182C38.2473 53.773 40.6898 52.3886 43.1654 51.0649C43.9129 50.6654 44.6691 50.2747 45.4341 49.9046C47.1698 49.0272 48.9733 48.2915 50.827 47.7046C53.4529 46.8533 56.2311 46.5798 58.9721 46.9028C61.6187 47.2885 64.1685 48.1725 66.4872 49.5081C71.4111 52.2662 75.2301 56.5311 78.9466 60.6933C79.3219 61.1162 78.7033 61.7419 78.3252 61.3189Z" fill="#E4E4E4"/>
<path d="M179.216 103.262L191.015 98.9376L196.873 96.7903C198.781 96.0909 200.685 95.2948 202.657 94.794C204.371 94.3034 206.191 94.3266 207.892 94.8609C209.409 95.4235 210.797 96.2862 211.975 97.3974C213.178 98.5077 214.297 99.7057 215.324 100.982C216.599 102.518 217.856 104.07 219.118 105.617C224.328 112.002 229.503 118.414 234.645 124.855C239.786 131.295 244.893 137.762 249.966 144.257C255.051 150.768 260.101 157.306 265.116 163.871C265.73 164.675 266.344 165.48 266.957 166.285C267.296 166.73 268.06 166.291 267.716 165.84C262.664 159.209 257.577 152.605 252.455 146.028C247.32 139.436 242.149 132.871 236.943 126.334C231.737 119.797 226.496 113.289 221.22 106.809C219.905 105.195 218.589 103.582 217.27 101.972C216.157 100.613 215.057 99.2394 213.837 97.9747C211.597 95.6533 208.799 93.6018 205.45 93.5462C203.48 93.5135 201.574 94.1397 199.745 94.8031C197.772 95.5183 195.804 96.2468 193.834 96.9689L181.953 101.324L178.982 102.413C178.455 102.606 178.683 103.458 179.216 103.262Z" fill="#E4E4E4"/>
<path d="M62.8066 54.5013C56.8105 51.413 49.1318 52.0179 43.6218 55.8762C54.1316 57.6933 64.5264 60.1247 74.753 63.1578C70.5063 60.6637 67.1844 56.7561 62.8066 54.5013Z" fill="#F2F2F2"/>
<path d="M43.5628 55.8656L42.4084 56.8059C42.7989 56.4768 43.2048 56.1682 43.6218 55.8762C43.6021 55.8728 43.5825 55.869 43.5628 55.8656Z" fill="#F2F2F2"/>
<path d="M211.531 103.306C210.369 101.889 209.114 100.405 207.376 99.8298L205.754 99.8939C218.101 121.758 234.777 140.863 254.757 156.036C240.348 138.459 225.94 120.882 211.531 103.306Z" fill="#F2F2F2"/>
<path d="M110.67 91.6174C111.421 94.3503 113.112 96.729 115.444 98.3327C116.346 98.948 117.412 99.5381 117.721 100.587C117.883 101.255 117.783 101.96 117.442 102.557C117.101 103.146 116.686 103.689 116.207 104.172L116.163 104.337C113.926 103.008 111.797 101.327 110.561 99.0334C109.325 96.74 109.153 93.7342 110.67 91.6174Z" fill="#F2F2F2"/>
<path d="M185.165 156.66C185.915 159.393 187.606 161.772 189.939 163.375C190.84 163.991 191.907 164.581 192.216 165.629C192.378 166.298 192.278 167.003 191.936 167.6C191.595 168.189 191.18 168.732 190.702 169.215L190.658 169.379C188.42 168.05 186.292 166.369 185.056 164.076C183.82 161.783 183.647 158.777 185.165 156.66Z" fill="#F2F2F2"/>
<path d="M36.4957 152.174C37.2463 154.907 38.9373 157.286 41.2695 158.89C42.1711 159.505 43.2379 160.095 43.5464 161.144C43.7086 161.812 43.6086 162.517 43.2671 163.114C42.9261 163.703 42.5112 164.246 42.0325 164.729L41.9888 164.893C39.7513 163.565 37.6226 161.884 36.3866 159.59C35.1507 157.297 34.9781 154.291 36.4957 152.174Z" fill="#F2F2F2"/>
<path d="M207.577 32.6815C216.582 32.6815 223.883 25.3655 223.883 16.3408C223.883 7.31601 216.582 0 207.577 0C198.572 0 191.271 7.31601 191.271 16.3408C191.271 25.3655 198.572 32.6815 207.577 32.6815Z" fill="#B99750"/>
<path d="M237.002 3.80335C229.1 2.73289 220.078 7.01341 218.03 14.7368C217.514 13.3636 216.575 12.1903 215.35 11.3866C214.125 10.5829 212.677 10.1902 211.215 10.2655C209.752 10.3407 208.352 10.8798 207.215 11.805C206.078 12.7301 205.265 13.9935 204.892 15.4124L205.796 16.0618C222.731 19.7318 240.261 19.6524 257.162 15.829C251.665 10.0396 244.905 4.87379 237.002 3.80335Z" fill="#F0F0F0"/>
<path d="M203.112 25.591C195.21 24.5206 186.188 28.8011 184.14 36.5245C183.624 35.1513 182.685 33.978 181.46 33.1743C180.235 32.3706 178.787 31.9779 177.324 32.0531C175.862 32.1283 174.461 32.6675 173.325 33.5927C172.188 34.5178 171.375 35.7812 171.001 37.2001L171.906 37.8495C188.841 41.5195 206.371 41.4401 223.272 37.6167C217.775 31.8273 211.015 26.6615 203.112 25.591Z" fill="#F0F0F0"/>
<path d="M272.084 29.7108C272.051 29.7109 272.019 29.7058 271.988 29.6958C187.452 2.90393 112.945 6.40744 65.3279 14.0644C58.8476 15.106 52.3501 16.3091 46.0156 17.6405C44.3985 17.98 42.7207 18.3439 41.0291 18.7228C39.0088 19.1737 37.0154 19.638 35.104 20.1024C34.2785 20.2982 33.4691 20.4957 32.6758 20.6947C31.4742 20.9919 30.255 21.3017 28.948 21.6421C27.4876 22.0195 26.0037 22.4153 24.5367 22.8186C24.5314 22.8205 24.5259 22.8221 24.5203 22.8233L24.5205 22.8236C22.8635 23.277 21.2153 23.7435 19.6214 24.2094C18.7587 24.4591 17.9257 24.7054 17.1278 24.9485C17.0386 24.9732 16.9597 24.997 16.8796 25.0214L16.7081 25.0737C16.6089 25.104 16.5108 25.1337 16.4128 25.1619L16.4065 25.1638L16.4067 25.1641L16.1472 25.2448C15.8378 25.3387 15.5359 25.4304 15.239 25.5218C7.3915 27.9461 3.07749 29.6708 3.03487 29.6877C2.9959 29.7033 2.95423 29.7111 2.91225 29.7107C2.87026 29.7102 2.82879 29.7014 2.79018 29.6849C2.75158 29.6683 2.7166 29.6443 2.68726 29.6142C2.65791 29.5841 2.63476 29.5485 2.61914 29.5095C2.60352 29.4704 2.59573 29.4287 2.59621 29.3866C2.59669 29.3445 2.60544 29.303 2.62195 29.2643C2.63846 29.2256 2.66241 29.1905 2.69244 29.1611C2.72247 29.1317 2.75798 29.1085 2.79695 29.0929C2.83989 29.076 7.17498 27.3425 15.051 24.9091C15.349 24.8174 15.6517 24.7257 15.9621 24.6316L16.2031 24.5565C16.2114 24.5533 16.2197 24.5508 16.2281 24.5483C16.3257 24.5205 16.4231 24.4908 16.5221 24.4607L16.6938 24.4085C16.7793 24.3825 16.8636 24.3568 16.95 24.3331C17.7424 24.0915 18.5782 23.8446 19.4431 23.594C21.0376 23.1278 22.6874 22.6613 24.3456 22.2072C24.3508 22.2054 24.3561 22.2041 24.3613 22.2025C25.8334 21.798 27.3227 21.4003 28.7878 21.0217C30.0968 20.6809 31.3184 20.3705 32.522 20.0726C33.3187 19.874 34.1296 19.6761 34.9549 19.4791C36.8685 19.0141 38.866 18.5491 40.8898 18.0973C42.5841 17.7181 44.2647 17.3532 45.8845 17.0134C52.2288 15.6799 58.7365 14.4749 65.2265 13.4317C112.912 5.76382 187.525 2.25466 272.18 29.085C272.253 29.108 272.315 29.1564 272.355 29.2214C272.396 29.2864 272.411 29.3636 272.4 29.4392C272.388 29.5148 272.35 29.5838 272.292 29.6336C272.234 29.6834 272.16 29.7108 272.084 29.7108Z" fill="#CCCCCC"/>
<path d="M84.0823 134.52C83.9716 134.195 83.7853 133.902 83.5388 133.664C83.4478 133.58 83.3494 133.504 83.2447 133.437C82.4102 132.879 81.1633 132.754 80.3704 133.437C80.2905 133.506 80.2167 133.582 80.1498 133.664C79.9132 133.956 79.6702 134.241 79.4208 134.52C79.0116 134.988 78.5928 135.439 78.1548 135.878C78.0301 136 77.9054 136.125 77.7775 136.247C77.7039 136.32 77.6304 136.391 77.5569 136.461C77.2755 136.731 76.9878 136.99 76.6968 137.246C76.5434 137.384 76.3899 137.519 76.2332 137.65C75.9998 137.846 75.7665 138.041 75.5299 138.23C75.5075 138.246 75.4851 138.262 75.4627 138.281C75.4563 138.285 75.4531 138.291 75.4467 138.294C75.4435 138.294 75.4403 138.294 75.4371 138.301C75.4285 138.304 75.4208 138.31 75.4148 138.317C75.3444 138.365 75.2965 138.397 75.2613 138.426C75.2741 138.419 75.2869 138.41 75.2997 138.403C75.2421 138.448 75.1814 138.493 75.1238 138.538C74.5643 138.951 73.992 139.348 73.4069 139.72C71.9594 140.648 70.4389 141.457 68.8605 142.139C68.755 142.181 68.6463 142.226 68.5376 142.267C64.4051 143.964 59.9223 144.626 55.4771 144.196C55.0231 144.161 54.5691 144.113 54.1151 144.052C53.5908 143.975 53.0696 143.882 52.5517 143.776C50.5799 143.382 48.6505 142.798 46.7904 142.033C44.4635 140.965 42.2504 139.664 40.185 138.15C39.8652 137.923 39.5423 137.695 39.2194 137.474C39.5871 136.57 39.9484 135.667 40.3001 134.757C40.4759 134.318 40.6454 133.879 40.8116 133.437C42.1193 130.031 43.347 126.593 44.5236 123.142C45.7129 119.646 46.8351 116.131 47.8902 112.594C47.9989 112.235 48.1044 111.877 48.2067 111.518C48.7598 109.65 49.2906 107.778 49.7989 105.901C49.8469 105.718 49.898 105.539 49.9428 105.356C50.0898 104.818 50.2337 104.28 50.3744 103.741C50.6941 102.527 49.9716 101.076 48.6991 100.784C48.0864 100.627 47.4367 100.714 46.8868 101.027C46.3369 101.34 45.9298 101.855 45.7513 102.463C45.6138 102.982 45.4763 103.498 45.3356 104.017C44.661 106.526 43.9513 109.026 43.2063 111.518C43.0976 111.877 42.9889 112.235 42.8802 112.594C41.2368 118.022 39.4326 123.395 37.4674 128.714C37.2308 129.358 36.991 130 36.748 130.64C36.6297 130.954 36.5114 131.268 36.3899 131.582C36.1565 132.2 35.9167 132.818 35.6769 133.437C35.5394 133.799 35.3988 134.161 35.2581 134.52C35.1654 134.747 35.0759 134.975 34.9864 135.199C34.0748 134.871 33.1303 134.643 32.1696 134.52L32.0162 134.501C31.2713 134.411 30.5181 134.417 29.7749 134.52C28.6627 134.65 27.5925 135.023 26.64 135.613C25.6876 136.204 24.8761 136.996 24.263 137.935C22.7379 140.342 22.7571 143.783 24.896 145.827C27.0989 147.932 30.4336 147.916 33.0265 146.599C34.4006 145.854 35.5592 144.766 36.3899 143.44C36.7082 142.959 37.0006 142.462 37.2659 141.95C37.3331 141.995 37.4002 142.04 37.4674 142.088C37.7231 142.267 37.9789 142.45 38.2315 142.629C39.7032 143.698 41.254 144.652 42.8706 145.484C46.3466 147.216 50.0882 148.35 53.9393 148.839C54.0256 148.848 54.1087 148.861 54.195 148.871C54.6203 148.925 55.0487 148.967 55.4771 149.002C61.6228 149.466 67.776 148.206 73.2471 145.362C73.7107 145.122 74.17 144.87 74.6251 144.606C75.3316 144.196 76.0222 143.76 76.6968 143.299C77.0645 143.049 77.4226 142.796 77.7775 142.53C79.3283 141.385 80.7739 140.104 82.0969 138.701C82.5988 138.172 83.0795 137.627 83.5388 137.064C83.9732 136.603 84.2235 135.999 84.2422 135.366C84.2397 135.076 84.1856 134.79 84.0823 134.52ZM31.1401 142.152C31.2073 142.104 31.2744 142.053 31.3384 142.001C31.3192 142.049 31.2264 142.104 31.1401 142.152ZM32.1664 141.117C32.0929 141.2 32.0258 141.284 31.9522 141.367C31.7285 141.618 31.4882 141.853 31.2328 142.072C31.1977 142.104 31.1593 142.136 31.121 142.165C31.1205 142.165 31.1201 142.165 31.1197 142.165C31.1193 142.165 31.119 142.165 31.1187 142.166C31.1184 142.166 31.1181 142.166 31.118 142.167C31.1178 142.167 31.1177 142.167 31.1178 142.168C31.0716 142.189 31.0267 142.212 30.9835 142.238C30.846 142.322 30.7053 142.399 30.5614 142.469C30.2797 142.573 29.9899 142.653 29.695 142.709C29.4684 142.726 29.2409 142.728 29.014 142.716H29.0076C28.851 142.681 28.6963 142.638 28.544 142.588C28.4673 142.549 28.3938 142.504 28.3202 142.459C28.2914 142.434 28.2658 142.408 28.2499 142.392C28.2186 142.364 28.1898 142.333 28.1636 142.299C28.1636 142.299 28.1635 142.298 28.1633 142.298C28.1632 142.298 28.163 142.297 28.1627 142.297C28.1624 142.297 28.162 142.296 28.1616 142.296C28.1612 142.296 28.1608 142.296 28.1604 142.296C28.1252 142.232 28.0868 142.168 28.0517 142.104C28.0498 142.102 28.0487 142.1 28.0485 142.097C28.0229 142.017 28.0005 141.934 27.9813 141.851C27.9744 141.704 27.9755 141.558 27.9845 141.412C28.0274 141.207 28.0851 141.006 28.1572 140.809C28.2219 140.67 28.2956 140.535 28.3778 140.406C28.3842 140.393 28.4162 140.342 28.4513 140.284C28.4545 140.281 28.4545 140.281 28.4545 140.278C28.5025 140.223 28.5504 140.165 28.6016 140.114C28.6879 140.018 28.7806 139.935 28.8734 139.848C29.0537 139.73 29.2405 139.622 29.4329 139.525C29.7381 139.416 30.0513 139.331 30.3696 139.271C30.8391 139.234 31.3109 139.238 31.7796 139.284C32.2235 139.361 32.6615 139.47 33.0904 139.608C32.8305 140.113 32.5345 140.6 32.2048 141.062C32.192 141.082 32.1792 141.101 32.1664 141.117ZM28.6112 140.063C28.583 140.108 28.5497 140.15 28.512 140.188C28.5374 140.141 28.571 140.098 28.6112 140.063Z" fill="#3F3D56"/>
<path d="M74.4716 101.797C74.4428 102.803 74.414 103.809 74.3852 104.815C74.3245 107.048 74.2616 109.282 74.1966 111.518C74.1295 114.033 74.0591 116.547 73.9856 119.06C73.9504 120.358 73.9142 121.655 73.8769 122.953C73.7778 126.449 73.6797 129.943 73.5827 133.437C73.5732 133.799 73.5604 134.158 73.5508 134.52C73.5028 136.253 73.4549 137.987 73.4069 139.72C73.3525 141.601 73.2993 143.482 73.247 145.362C73.2087 146.772 73.1692 148.183 73.1287 149.595C72.841 159.826 72.5533 170.056 72.2655 180.287C72.2534 180.92 71.9968 181.524 71.5497 181.973C71.1026 182.421 70.4998 182.678 69.8676 182.69C69.2332 182.685 68.6263 182.43 68.1777 181.98C67.7291 181.531 67.4748 180.923 67.4697 180.287C67.6296 174.532 67.7916 168.778 67.9557 163.023C68.0996 157.82 68.2456 152.616 68.3937 147.413C68.4417 145.699 68.4896 143.984 68.5376 142.267C68.6111 139.685 68.6836 137.102 68.755 134.52C68.7646 134.158 68.7774 133.799 68.787 133.437C68.7934 133.12 68.8029 132.806 68.8125 132.488C68.9532 127.474 69.0939 122.459 69.2346 117.442C69.2921 115.468 69.3475 113.494 69.4008 111.518C69.4648 109.265 69.5287 107.014 69.5927 104.764C69.6214 103.774 69.647 102.787 69.6758 101.797C69.6879 101.163 69.9445 100.559 70.3916 100.111C70.8386 99.6628 71.4415 99.4057 72.0737 99.3936C72.7081 99.3987 73.315 99.6535 73.7636 100.103C74.2122 100.553 74.4665 101.161 74.4716 101.797Z" fill="#3F3D56"/>
<path d="M206.013 102.463C203.498 112.005 200.493 121.41 197.009 130.64C196.048 133.187 195.064 135.728 194.013 138.238L194.254 137.664C193.785 138.86 193.186 140 192.467 141.064C192.419 141.133 192.369 141.201 192.318 141.268C192.567 140.95 192.614 140.887 192.46 141.079C192.378 141.176 192.298 141.272 192.214 141.366C191.991 141.617 191.75 141.853 191.495 142.072C191.431 142.127 191.366 142.181 191.3 142.234L191.599 142C191.565 142.082 191.32 142.191 191.244 142.238C190.998 142.387 190.741 142.517 190.476 142.628L191.048 142.386C190.613 142.562 190.159 142.687 189.696 142.758L190.333 142.672C189.877 142.735 189.416 142.74 188.959 142.687L189.596 142.773C189.223 142.721 188.857 142.623 188.508 142.479L189.081 142.721C188.894 142.64 188.715 142.544 188.544 142.434C188.457 142.377 188.19 142.175 188.539 142.442C188.901 142.719 188.586 142.466 188.511 142.392C188.449 142.331 188.393 142.264 188.332 142.201C188.05 141.912 188.651 142.7 188.459 142.361C188.356 142.191 188.263 142.016 188.178 141.837L188.42 142.411C188.31 142.138 188.232 141.853 188.187 141.561L188.273 142.2C188.227 141.838 188.227 141.471 188.272 141.109L188.186 141.748C188.245 141.344 188.352 140.948 188.504 140.569L188.262 141.143C188.369 140.888 188.495 140.642 188.639 140.406C188.706 140.285 188.783 140.17 188.872 140.063C188.888 140.068 188.466 140.548 188.69 140.306C188.748 140.242 188.803 140.176 188.862 140.113C188.957 140.012 189.058 139.92 189.158 139.825C189.492 139.507 188.691 140.135 189.076 139.882C189.356 139.698 189.65 139.538 189.955 139.402L189.382 139.644C189.894 139.434 190.431 139.289 190.979 139.215L190.342 139.301C191.029 139.222 191.723 139.23 192.408 139.325L191.77 139.24C192.637 139.371 193.485 139.61 194.293 139.951L193.72 139.709C195.444 140.45 196.97 141.551 198.493 142.63C199.965 143.698 201.515 144.652 203.131 145.484C206.607 147.216 210.349 148.35 214.2 148.84C219.724 149.518 225.329 148.795 230.501 146.737C235.673 144.68 240.246 141.354 243.802 137.064C244.236 136.603 244.486 135.998 244.504 135.365C244.5 134.728 244.248 134.119 243.802 133.666C242.922 132.856 241.26 132.628 240.411 133.666C239.606 134.651 238.74 135.585 237.819 136.462C237.389 136.871 236.947 137.267 236.494 137.65C236.236 137.87 235.974 138.084 235.708 138.295C235.582 138.394 235.19 138.66 235.792 138.232C235.654 138.33 235.522 138.437 235.386 138.538C233.372 140.025 231.19 141.269 228.885 142.243L229.458 142.001C226.984 143.041 224.387 143.754 221.73 144.123L222.367 144.037C219.634 144.397 216.865 144.393 214.133 144.025L214.771 144.11C212.039 143.734 209.368 143.005 206.824 141.941L207.396 142.183C204.941 141.095 202.611 139.742 200.447 138.149C199.321 137.313 198.133 136.564 196.894 135.908C195.45 135.169 193.887 134.693 192.278 134.502C189.26 134.146 186.185 135.324 184.526 137.937C182.999 140.342 183.019 143.782 185.157 145.827C187.359 147.933 190.694 147.915 193.289 146.598C195.788 145.329 197.29 142.694 198.345 140.208C200.721 134.616 202.825 128.894 204.784 123.142C206.723 117.453 208.482 111.705 210.059 105.9C210.255 105.181 210.447 104.462 210.637 103.741C210.957 102.527 210.234 101.075 208.962 100.785C208.349 100.627 207.699 100.714 207.149 101.027C206.599 101.34 206.191 101.855 206.013 102.463Z" fill="#3F3D56"/>
<path d="M229.938 101.796L229.075 132.489L228.216 163.022L227.731 180.287C227.736 180.923 227.991 181.531 228.439 181.98C228.888 182.43 229.495 182.685 230.129 182.69C230.761 182.678 231.364 182.421 231.811 181.973C232.258 181.525 232.515 180.92 232.527 180.287L233.39 149.594L234.248 119.061L234.734 101.796C234.729 101.161 234.474 100.553 234.026 100.103C233.577 99.6537 232.97 99.3988 232.336 99.3934C231.704 99.4056 231.101 99.6628 230.654 100.111C230.207 100.559 229.95 101.163 229.938 101.796Z" fill="#939393"/>
<path opacity="0.2" d="M146.94 171.718H147.685V137.741H165.055V136.997H147.685V122.66H161.099C160.902 122.41 160.7 122.162 160.492 121.918H147.685V112.449C147.438 112.344 147.19 112.242 146.94 112.147V121.918H132.344V109.786C132.094 109.797 131.848 109.814 131.6 109.835V121.918H119.955V112.866C119.705 112.977 119.459 113.094 119.215 113.216V121.918H109.426V122.66H119.215V136.997H109.426V137.741H119.215V171.718H119.955V137.741C121.485 137.741 122.999 138.042 124.412 138.629C125.825 139.215 127.109 140.075 128.19 141.158C129.271 142.242 130.129 143.528 130.714 144.944C131.299 146.36 131.6 147.878 131.6 149.41V171.718H132.344V137.741H146.94V171.718ZM119.955 136.997V122.66H131.6V136.997H119.955ZM132.344 136.997V122.66H132.636C134.515 122.66 136.375 123.031 138.11 123.752C139.846 124.472 141.423 125.528 142.751 126.86C144.079 128.191 145.133 129.771 145.852 131.511C146.57 133.25 146.94 135.114 146.94 136.997H132.344Z" fill="black"/>
<path d="M142.393 161.53C141.455 165.721 139.21 169.503 135.982 172.328C135.746 172.533 135.509 172.732 135.263 172.927C134.665 172.981 134.071 173.037 133.482 173.094C132.993 173.138 132.51 173.187 132.03 173.231L131.944 173.241L131.883 172.716L131.64 170.588C130.698 169.046 130.114 167.311 129.931 165.512C129.748 163.712 129.972 161.895 130.585 160.194C131.429 157.913 132.958 155.897 134.46 153.898C136.535 151.136 138.553 148.406 138.626 145.039C139.647 146.348 140.496 147.784 141.152 149.31C140.533 149.602 139.977 150.012 139.515 150.518C139.384 150.662 139.253 150.864 139.342 151.037C139.419 151.184 139.611 151.219 139.777 151.239C140.177 151.28 140.58 151.322 140.979 151.364C141.299 151.399 141.619 151.431 141.939 151.466C142.325 152.738 142.588 154.045 142.722 155.369C142.937 157.427 142.826 159.507 142.393 161.53Z" fill="#3F3D56"/>
<path d="M153.007 153.132C151.121 154.507 150.018 156.484 149.161 158.663C148.283 158.944 147.493 159.45 146.869 160.13C146.738 160.274 146.607 160.476 146.696 160.649C146.773 160.796 146.965 160.832 147.131 160.851C147.531 160.893 147.934 160.934 148.333 160.976C147.476 163.552 146.69 166.218 145.174 168.393C144.167 169.83 142.853 171.024 141.328 171.889C140.912 172.126 140.483 172.339 140.043 172.527C138.419 172.651 136.825 172.785 135.263 172.927C134.665 172.982 134.072 173.037 133.482 173.094C132.993 173.139 132.51 173.187 132.031 173.231C132.028 173.055 132.028 172.879 132.031 172.703C132.132 168.008 133.855 163.495 136.906 159.931C137.05 159.765 137.197 159.601 137.348 159.438C138.893 157.783 140.711 156.407 142.722 155.369C145.89 153.718 149.441 152.946 153.007 153.132Z" fill="#B99750"/>
<path d="M134.035 171.45L133.668 172.539L133.482 173.094C132.993 173.139 132.51 173.187 132.031 173.231L131.944 173.241C131.414 173.296 130.886 173.35 130.359 173.404C130.221 173.244 130.084 173.081 129.949 172.914C126.612 168.864 125.01 163.655 125.494 158.425C125.977 153.196 128.507 148.37 132.53 145.004C132.108 147.218 132.6 149.339 133.409 151.444C133.322 151.479 133.239 151.514 133.159 151.553C132.54 151.845 131.984 152.255 131.522 152.761C131.391 152.905 131.26 153.107 131.35 153.28C131.427 153.427 131.618 153.462 131.785 153.481C132.184 153.523 132.587 153.565 132.987 153.606C133.306 153.642 133.626 153.674 133.946 153.709C134.096 153.725 134.246 153.741 134.397 153.757C134.419 153.805 134.438 153.85 134.461 153.898C135.372 155.878 136.353 157.868 136.906 159.931C137.045 160.449 137.154 160.974 137.233 161.504C137.479 163.296 137.319 165.121 136.766 166.843C136.212 168.564 135.279 170.139 134.035 171.45Z" fill="#B99750"/>
<path d="M166.218 124.978C163.465 119.598 159.201 115.071 154.186 111.744C149.155 108.422 143.381 106.399 137.381 105.855C136.594 105.784 135.805 105.742 135.015 105.729C134.081 105.715 120.031 109.777 115.324 113.093C110.62 116.369 106.751 120.707 104.028 125.758C101.31 130.836 99.9726 136.542 100.151 142.301C100.384 148.096 101.996 153.751 104.852 158.795C107.669 163.822 111.669 168.084 116.504 171.209C121.407 174.345 126.333 182.659 132.123 182.953C137.957 183.248 144.61 175.405 149.93 173.024C155.251 170.623 159.85 166.866 163.271 162.129C166.594 157.486 168.744 152.104 169.537 146.445C170.36 140.651 169.976 134.676 168.002 129.138C167.495 127.715 166.899 126.326 166.218 124.978C165.649 123.855 163.981 123.442 162.937 124.116C162.399 124.448 162.009 124.975 161.849 125.587C161.689 126.2 161.77 126.85 162.077 127.404C162.411 128.064 162.721 128.734 163.009 129.415L162.767 128.841C163.854 131.461 164.593 134.212 164.965 137.024L164.88 136.385C165.276 139.436 165.269 142.526 164.859 145.575L164.944 144.936C164.53 147.985 163.718 150.966 162.529 153.803L162.771 153.229C162.159 154.677 161.446 156.079 160.638 157.426C160.228 158.107 159.793 158.771 159.333 159.42C159.131 159.704 158.923 159.984 158.713 160.263C158.439 160.626 159.086 159.787 158.803 160.144C158.755 160.205 158.707 160.266 158.659 160.327C158.514 160.509 158.366 160.689 158.217 160.867C157.22 162.059 156.132 163.172 154.963 164.194C154.672 164.449 154.376 164.698 154.075 164.941C153.925 165.063 153.777 165.189 153.621 165.302C153.627 165.297 154.126 164.917 153.831 165.138C153.738 165.207 153.646 165.278 153.553 165.347C152.932 165.807 152.296 166.244 151.643 166.658C150.139 167.607 148.561 168.434 146.925 169.129L147.498 168.887C144.675 170.078 141.709 170.891 138.675 171.307L139.312 171.221C136.279 171.631 133.206 171.637 130.172 171.237L130.809 171.323C128.051 170.952 125.354 170.221 122.786 169.149L123.358 169.391C121.871 168.762 120.436 168.013 119.069 167.151C118.392 166.724 117.733 166.27 117.092 165.79C117 165.722 116.91 165.653 116.819 165.584C116.526 165.362 117.029 165.747 117.033 165.75C116.863 165.627 116.699 165.496 116.542 165.357C116.232 165.104 115.927 164.846 115.627 164.581C114.427 163.521 113.305 162.375 112.272 161.15C112.014 160.844 111.761 160.533 111.513 160.217C111.406 160.081 111.211 159.804 111.643 160.387C111.586 160.31 111.527 160.235 111.469 160.158C111.332 159.975 111.196 159.791 111.062 159.605C110.592 158.954 110.146 158.287 109.723 157.604C108.767 156.057 107.932 154.439 107.227 152.763L107.469 153.337C106.315 150.586 105.526 147.695 105.122 144.738L105.208 145.377C104.843 142.651 104.838 139.89 105.192 137.163L105.107 137.802C105.47 135.161 106.179 132.58 107.215 130.125L106.973 130.699C107.625 129.162 108.394 127.678 109.274 126.26C109.714 125.55 110.18 124.857 110.673 124.182C110.785 124.028 110.898 123.876 111.013 123.724C111.117 123.587 111.401 123.246 110.915 123.849C110.963 123.79 111.009 123.729 111.056 123.669C111.326 123.326 111.603 122.988 111.887 122.655C112.96 121.396 114.123 120.216 115.367 119.124C115.681 118.848 116 118.578 116.324 118.314C116.471 118.194 116.619 118.075 116.769 117.957C116.828 117.91 116.889 117.864 116.948 117.817C116.31 118.326 116.771 117.955 116.916 117.846C117.584 117.345 118.27 116.868 118.973 116.417C120.538 115.414 122.183 114.545 123.893 113.819L123.32 114.061C125.801 113.017 136.793 110.553 138.792 110.822L138.155 110.736C141.093 111.147 143.965 111.943 146.698 113.102L146.125 112.859C147.509 113.448 148.855 114.126 150.153 114.887C150.802 115.268 151.438 115.67 152.061 116.093C152.356 116.293 152.648 116.497 152.937 116.706C153.081 116.811 153.224 116.916 153.367 117.023C153.446 117.082 153.525 117.143 153.604 117.202C153.936 117.452 153.146 116.841 153.495 117.117C154.66 118.034 155.768 119.025 156.81 120.081C157.321 120.604 157.815 121.142 158.292 121.698C158.536 121.983 158.776 122.272 159.01 122.565C159.127 122.711 159.523 123.239 159.037 122.592C159.156 122.75 159.276 122.907 159.394 123.066C160.404 124.437 161.301 125.888 162.077 127.404C162.65 128.525 164.31 128.943 165.357 128.266C165.895 127.934 166.285 127.407 166.445 126.795C166.606 126.183 166.524 125.532 166.218 124.978Z" fill="#3F3D56"/>
<path d="M138.277 164.195C138.03 164.206 137.784 164.141 137.575 164.008C137.366 163.875 137.202 163.681 137.107 163.452C137.011 163.223 136.988 162.97 137.041 162.727C137.093 162.485 137.219 162.264 137.401 162.095C137.432 161.974 137.454 161.887 137.484 161.766C137.473 161.739 137.462 161.713 137.451 161.686C136.339 159.028 129.239 166.439 128.932 168.938C128.797 170.042 128.854 171.162 129.101 172.247C126.801 167.22 125.607 161.756 125.599 156.225C125.599 154.838 125.676 153.451 125.83 152.072C125.957 150.941 126.134 149.819 126.359 148.704C127.592 142.657 130.238 136.989 134.081 132.166C136.279 132.289 138.205 131.953 138.391 127.685C138.424 126.926 138.986 126.268 139.11 125.52C138.9 125.548 138.687 125.565 138.477 125.579C138.411 125.582 138.343 125.586 138.277 125.589L138.253 125.59C138.022 125.601 137.793 125.544 137.594 125.427C137.395 125.31 137.234 125.138 137.13 124.932C137.026 124.725 136.984 124.493 137.009 124.263C137.033 124.033 137.124 123.815 137.269 123.636C137.36 123.524 137.451 123.412 137.541 123.301C137.679 123.128 137.82 122.959 137.957 122.787C137.973 122.771 137.988 122.753 138.002 122.735C138.16 122.539 138.319 122.346 138.477 122.149C138.188 121.7 137.8 121.324 137.342 121.05C135.756 120.119 133.569 120.764 132.423 122.201C131.274 123.638 131.058 125.655 131.457 127.451C131.849 128.979 132.498 130.429 133.376 131.739C133.29 131.849 133.201 131.956 133.115 132.066C131.543 134.092 130.173 136.267 129.024 138.56C129.349 136.016 125.376 126.831 123.839 124.885C121.993 122.548 118.209 123.568 117.883 126.53C117.88 126.559 117.877 126.588 117.874 126.616C118.102 126.745 118.326 126.882 118.544 127.027C118.819 127.211 119.032 127.474 119.155 127.781C119.278 128.088 119.306 128.425 119.234 128.749C119.163 129.072 118.996 129.366 118.755 129.592C118.514 129.818 118.21 129.966 117.884 130.017L117.85 130.022C114.795 134.394 124.589 145.772 127.04 143.217C125.887 146.494 125.163 149.907 124.887 153.371C124.731 155.415 124.741 157.468 124.915 159.51L124.905 159.438C124.36 154.99 115.015 148.377 112.286 148.928C110.714 149.245 109.166 149.173 109.405 150.762C109.409 150.787 109.413 150.813 109.416 150.838C109.84 151.011 110.252 151.21 110.651 151.434C110.879 151.563 111.103 151.7 111.321 151.845C111.596 152.029 111.809 152.292 111.932 152.599C112.055 152.906 112.083 153.243 112.011 153.566C111.94 153.89 111.773 154.184 111.532 154.41C111.291 154.636 110.987 154.784 110.661 154.835L110.627 154.84C110.603 154.843 110.582 154.847 110.558 154.85C109.168 159.645 119.481 167.384 125.751 164.922H125.754C126.375 167.628 127.276 170.262 128.44 172.781H138.037C138.071 172.674 138.102 172.564 138.133 172.457C137.245 172.513 136.353 172.46 135.478 172.298C136.19 171.423 136.902 170.541 137.614 169.665C137.629 169.649 137.644 169.631 137.658 169.613C138.019 169.165 138.384 168.721 138.745 168.272L138.745 168.272C138.765 166.898 138.607 165.528 138.277 164.195L138.277 164.195ZM127.288 142.531L127.293 142.524L127.288 142.538V142.531ZM125.163 161.734L125.08 161.548C125.083 161.413 125.083 161.279 125.08 161.141C125.08 161.103 125.073 161.065 125.073 161.027C125.104 161.265 125.132 161.503 125.166 161.741L125.163 161.734Z" fill="#3F3D56"/>
<path d="M30.4527 144.183C32.395 144.183 33.9696 142.605 33.9696 140.659C33.9696 138.712 32.395 137.134 30.4527 137.134C28.5104 137.134 26.9358 138.712 26.9358 140.659C26.9358 142.605 28.5104 144.183 30.4527 144.183Z" fill="#3F3D56"/>
<path d="M72.6556 182.632C74.5979 182.632 76.1725 181.054 76.1725 179.108C76.1725 177.161 74.5979 175.583 72.6556 175.583C70.7132 175.583 69.1387 177.161 69.1387 179.108C69.1387 181.054 70.7132 182.632 72.6556 182.632Z" fill="#3F3D56"/>
<path d="M232.835 182.632C234.777 182.632 236.352 181.054 236.352 179.108C236.352 177.161 234.777 175.583 232.835 175.583C230.892 175.583 229.318 177.161 229.318 179.108C229.318 181.054 230.892 182.632 232.835 182.632Z" fill="#3F3D56"/>
<path d="M241.467 137.775C243.409 137.775 244.984 136.197 244.984 134.251C244.984 132.304 243.409 130.726 241.467 130.726C239.525 130.726 237.95 132.304 237.95 134.251C237.95 136.197 239.525 137.775 241.467 137.775Z" fill="#3F3D56"/>
<path d="M231.236 105.094C233.178 105.094 234.753 103.516 234.753 101.569C234.753 99.6226 233.178 98.0446 231.236 98.0446C229.294 98.0446 227.719 99.6226 227.719 101.569C227.719 103.516 229.294 105.094 231.236 105.094Z" fill="#3F3D56"/>
<path d="M84.4853 134.251C84.4832 135.151 84.1358 136.016 83.515 136.667C82.8942 137.317 82.0475 137.704 81.1502 137.747C80.2529 137.789 79.3735 137.484 78.6942 136.895C78.0148 136.306 77.5875 135.478 77.5006 134.582C77.4136 133.686 77.6738 132.791 78.2272 132.081C78.7806 131.372 79.5848 130.903 80.4736 130.772C81.3623 130.64 82.2674 130.856 83.0017 131.375C83.7359 131.894 84.2431 132.676 84.4182 133.559C84.4633 133.786 84.4858 134.018 84.4853 134.251Z" fill="#3F3D56"/>
<path d="M154.824 115.347C156.766 115.347 158.34 113.769 158.34 111.822C158.34 109.876 156.766 108.298 154.824 108.298C152.881 108.298 151.307 109.876 151.307 111.822C151.307 113.769 152.881 115.347 154.824 115.347Z" fill="#3F3D56"/>
<path d="M119.974 111.822C119.972 112.722 119.624 113.587 119.004 114.238C118.383 114.889 117.536 115.276 116.639 115.318C115.741 115.361 114.862 115.056 114.183 114.467C113.503 113.878 113.076 113.049 112.989 112.153C112.902 111.257 113.162 110.362 113.716 109.653C114.269 108.944 115.073 108.475 115.962 108.343C116.851 108.212 117.756 108.428 118.49 108.947C119.224 109.465 119.732 110.247 119.907 111.13C119.952 111.358 119.974 111.59 119.974 111.822Z" fill="#3F3D56"/>
<path d="M74.574 101.569C74.5718 102.469 74.2244 103.334 73.6036 103.985C72.9828 104.636 72.1362 105.023 71.2388 105.065C70.3415 105.108 69.4621 104.803 68.7828 104.214C68.1035 103.625 67.6761 102.796 67.5892 101.9C67.5023 101.004 67.7624 100.109 68.3158 99.3998C68.8692 98.6907 69.6735 98.2218 70.5622 98.0904C71.4509 97.9589 72.356 98.1749 73.0903 98.6936C73.8245 99.2123 74.3317 99.994 74.5068 100.877C74.5519 101.105 74.5744 101.337 74.574 101.569Z" fill="#3F3D56"/>
<path d="M191.591 145.465C193.533 145.465 195.108 143.887 195.108 141.94C195.108 139.994 193.533 138.416 191.591 138.416C189.649 138.416 188.074 139.994 188.074 141.94C188.074 143.887 189.649 145.465 191.591 145.465Z" fill="#3F3D56"/>
<path d="M136.28 113.424C139.105 113.424 141.395 111.129 141.395 108.298C141.395 105.466 139.105 103.171 136.28 103.171C133.454 103.171 131.164 105.466 131.164 108.298C131.164 111.129 133.454 113.424 136.28 113.424Z" fill="#3F3D56"/>
<path d="M274.619 182.902L0.380681 183C0.330689 183 0.281185 182.99 0.234998 182.971C0.188812 182.952 0.146848 182.924 0.111499 182.888C0.0761489 182.853 0.0481046 182.811 0.0289735 182.764C0.00984243 182.718 0 182.669 0 182.618C0 182.568 0.00984243 182.519 0.0289735 182.472C0.0481046 182.426 0.0761489 182.384 0.111499 182.349C0.146848 182.313 0.188812 182.285 0.234998 182.266C0.281185 182.247 0.330689 182.237 0.380681 182.237L274.619 182.139C274.72 182.139 274.817 182.179 274.888 182.251C274.959 182.322 274.999 182.419 274.999 182.52C274.999 182.621 274.959 182.718 274.888 182.789C274.817 182.861 274.72 182.901 274.619 182.902Z" fill="#CACACA"/>
</g>
<defs>
<clipPath id="clip0_40_1370">
<rect width="275" height="183" fill="white"/>
</clipPath>
</defs>
</svg>
