<svg width="181" height="183" viewBox="0 0 181 183" fill="none" xmlns="http://www.w3.org/2000/svg">
<g clip-path="url(#clip0_45_2310)">
<path d="M76.3086 84.3436L141.661 84.2273C141.778 84.2273 141.89 84.181 141.973 84.0986C142.055 84.0163 142.102 83.9045 142.102 83.788C142.102 83.6715 142.055 83.5598 141.973 83.4774C141.89 83.395 141.778 83.3487 141.661 83.3487L76.3086 83.4651C76.1918 83.4651 76.0798 83.5113 75.9972 83.5937C75.9146 83.6761 75.8682 83.7878 75.8682 83.9043C75.8682 84.0209 75.9146 84.1326 75.9972 84.215C76.0798 84.2974 76.1918 84.3436 76.3086 84.3436Z" fill="#3F3D56"/>
<path d="M75.3324 90.4937C78.7381 90.4937 81.4989 87.7402 81.4989 84.3436C81.4989 80.9471 78.7381 78.1936 75.3324 78.1936C71.9268 78.1936 69.166 80.9471 69.166 84.3436C69.166 87.7402 71.9268 90.4937 75.3324 90.4937Z" fill="#3F3D56"/>
<path d="M138.731 84.3125C130.371 84.3125 122.199 81.84 115.248 77.2079C108.297 72.5757 102.88 65.9918 99.6804 58.2887C96.4812 50.5857 95.6442 42.1095 97.2751 33.932C98.906 25.7545 102.932 18.2429 108.843 12.3473C114.754 6.45162 122.286 2.43663 130.485 0.810021C138.684 -0.816587 147.183 0.0182485 154.907 3.20895C162.63 6.39966 169.232 11.8029 173.876 18.7355C178.521 25.668 181 33.8185 181 42.1562C180.987 53.3329 176.53 64.0481 168.606 71.9512C160.682 79.8543 149.938 84.2998 138.731 84.3125ZM138.731 2.90733C130.948 2.90733 123.339 5.20924 116.868 9.52196C110.396 13.8347 105.352 19.9645 102.374 27.1363C99.395 34.3081 98.6157 42.1998 100.134 49.8133C101.653 57.4269 105.401 64.4203 110.904 69.9094C116.408 75.3985 123.42 79.1366 131.054 80.651C138.688 82.1654 146.6 81.3882 153.791 78.4175C160.982 75.4468 167.128 70.4162 171.453 63.9618C175.777 57.5073 178.085 49.9189 178.085 42.1562C178.073 31.7504 173.923 21.7742 166.545 14.4161C159.168 7.05807 149.165 2.91914 138.731 2.90733Z" fill="#3F3D56"/>
<path d="M156.97 59.0475C155.422 59.0485 153.91 58.5919 152.623 57.7355C151.336 56.8791 150.333 55.6613 149.74 54.2362C149.147 52.811 148.991 51.2425 149.291 49.729C149.592 48.2154 150.336 46.8248 151.43 45.733C152.523 44.6412 153.916 43.8973 155.433 43.5952C156.95 43.2932 158.523 43.4466 159.953 44.0361C161.383 44.6256 162.605 45.6247 163.466 46.9071C164.326 48.1895 164.786 49.6975 164.787 51.2405C164.787 53.3094 163.964 55.2938 162.498 56.7576C161.033 58.2215 159.044 59.0451 156.97 59.0475ZM138.731 59.0475C136.659 59.0451 134.672 58.2229 133.206 56.7614C131.741 55.2998 130.917 53.3182 130.914 51.2512V33.0612C130.914 30.9935 131.738 29.0105 133.204 27.5484C134.67 26.0863 136.658 25.2649 138.731 25.2649C140.805 25.2649 142.793 26.0863 144.259 27.5484C145.725 29.0105 146.548 30.9935 146.548 33.0612V51.2512C146.546 53.3182 145.722 55.2999 144.256 56.7615C142.791 58.223 140.804 59.0451 138.731 59.0475ZM120.498 59.0475C118.424 59.0451 116.436 58.2223 114.969 56.7597C113.503 55.2971 112.678 53.314 112.676 51.2456V43.9781C112.676 41.909 113.5 39.9246 114.967 38.4615C116.434 36.9984 118.424 36.1764 120.498 36.1764C122.573 36.1764 124.563 36.9984 126.03 38.4615C127.497 39.9246 128.321 41.909 128.321 43.9781V51.2456C128.318 53.3141 127.493 55.2971 126.027 56.7598C124.56 58.2224 122.572 59.0451 120.498 59.0475Z" fill="#B99750"/>
<path d="M11.3896 145.404V146.111C11.3907 147.283 11.8578 148.406 12.6885 149.234C13.5192 150.063 14.6455 150.529 15.8203 150.53H53.3919C54.5669 150.529 55.6936 150.064 56.5244 149.235C57.3552 148.406 57.8221 147.283 57.8225 146.111V145.404C57.8247 144.37 57.4606 143.368 56.7945 142.576C56.5728 142.313 56.3219 142.076 56.0467 141.869H36.559C36.324 141.869 36.0987 141.776 35.9325 141.61C35.7664 141.444 35.673 141.219 35.6729 140.985H15.8203C14.6457 140.987 13.5197 141.453 12.6891 142.281C11.8586 143.109 11.3913 144.232 11.3896 145.404Z" fill="#3F3D56"/>
<path d="M32.1265 182.877H36.7344L36.7344 150.354H32.1265V182.877Z" fill="#3F3D56"/>
<path d="M19.0122 182.716C19.0122 183.212 25.9947 182.908 34.608 182.908C43.2213 182.908 50.2038 183.212 50.2038 182.716C50.2038 182.219 43.2213 178.281 34.608 178.281C25.9947 178.281 19.0122 182.219 19.0122 182.716Z" fill="#3F3D56"/>
<path d="M18.6205 144.658L34.3438 147.161L52.6122 150.07L58.9462 151.078C59.5543 151.173 60.1756 151.025 60.6739 150.664C61.1723 150.304 61.5069 149.761 61.6046 149.155L61.8917 147.366L62.1575 145.701L62.3772 144.329C62.4268 144.023 62.4135 143.709 62.338 143.408C62.2624 143.106 62.1263 142.823 61.9378 142.576C61.7149 142.272 61.4186 142.028 61.0764 141.869H36.5591C36.3241 141.869 36.0988 141.776 35.9326 141.61C35.7665 141.444 35.6731 141.219 35.673 140.985V140.289C35.6731 140.054 35.7665 139.83 35.9326 139.664C36.0988 139.498 36.3241 139.405 36.5591 139.405H46.1931L41.7518 138.698L28.0984 136.524L20.1269 135.255C19.5174 135.158 18.8944 135.307 18.3947 135.668C17.895 136.029 17.5594 136.574 17.4614 137.181L16.6887 142.003C16.5943 142.61 16.7444 143.23 17.1063 143.727C17.4682 144.225 18.0124 144.559 18.6205 144.658Z" fill="#B99750"/>
<path d="M52.6123 143.986V170.927C52.6132 171.541 52.8581 172.129 53.2933 172.564C53.7284 172.998 54.3184 173.242 54.9339 173.243H59.8359C60.4514 173.242 61.0415 172.998 61.4767 172.564C61.9119 172.129 62.1568 171.541 62.1577 170.927V143.986C62.1585 143.475 61.9875 142.979 61.6721 142.576C61.4385 142.266 61.1282 142.023 60.7717 141.869H53.9946C53.6398 142.024 53.3309 142.267 53.0979 142.576C52.7829 142.979 52.612 143.475 52.6123 143.986Z" fill="#B99750"/>
<path d="M37.8386 98.3872C37.8635 98.6275 37.9257 98.8625 38.0229 99.0837C38.1705 99.4215 38.3979 99.7187 38.6858 99.9498L38.6965 99.9568L52.6831 111.273L52.8885 111.435L55.7845 113.779L56.6599 114.486H71.8055L70.9336 113.779L58.9638 104.093L50.9427 97.6025L44.7009 92.5543C44.3356 92.2575 43.8876 92.0798 43.4177 92.0453C43.4158 92.0433 43.4133 92.042 43.4106 92.0418C43.2712 92.0318 43.1312 92.0341 42.9923 92.0488C42.7843 92.0698 42.5803 92.1198 42.3862 92.1973C42.2535 92.2452 42.1273 92.3093 42.0105 92.3882C41.7901 92.5222 41.5947 92.6933 41.4328 92.8937L38.3916 96.6303L38.3455 96.6904C38.1527 96.9258 38.0086 97.1969 37.9216 97.4882C37.8346 97.7794 37.8064 98.085 37.8386 98.3872Z" fill="#B99750"/>
<path d="M38.6965 99.9568C38.9601 100.614 39.3434 101.217 39.8272 101.735L49.1386 111.711C49.3636 111.917 49.6272 112.077 49.9143 112.181C50.2014 112.286 50.5063 112.332 50.8115 112.319C51.1168 112.305 51.4164 112.232 51.6931 112.103C51.9698 111.974 52.2183 111.791 52.4242 111.566L52.6831 111.273L52.7964 111.145L56.8195 106.645L58.5492 104.708C58.6642 104.589 58.7641 104.456 58.8468 104.312C58.8894 104.241 58.9283 104.167 58.9638 104.093C59.1089 103.763 59.1756 103.403 59.1587 103.043C59.147 102.736 59.0734 102.435 58.9425 102.158C58.8116 101.88 58.6259 101.632 58.3967 101.427L47.6002 93.1978C46.4089 92.2867 44.909 91.8734 43.4177 92.0453C43.4159 92.0433 43.4133 92.0421 43.4106 92.0418C43.0794 92.0832 42.7522 92.1518 42.4322 92.2468C42.2905 92.2857 42.1524 92.3352 42.0105 92.3882C41.0952 92.7317 40.2836 93.3038 39.6534 94.0497C38.9679 94.8531 38.5162 95.8285 38.3475 96.8699C38.1788 97.9114 38.2995 98.979 38.6965 99.9568Z" fill="#2F2E41"/>
<path d="M34.275 83.8295C44.0868 83.8295 52.0408 75.8966 52.0408 66.1109C52.0408 56.3252 44.0868 48.3923 34.275 48.3923C24.4633 48.3923 16.5093 56.3252 16.5093 66.1109C16.5093 75.8966 24.4633 83.8295 34.275 83.8295Z" fill="#B99750"/>
<path d="M29.5447 142.215L36.1339 143.262L36.2829 143.286L46.2995 144.881L52.6123 145.888L61.8919 147.366L62.1577 147.408L63.5364 147.627L69.8704 148.635C70.4785 148.731 71.0999 148.582 71.5982 148.221C72.0965 147.861 72.4312 147.318 72.5288 146.712L73.0818 143.262L73.3016 141.89C73.3016 141.883 73.305 141.876 73.305 141.869H36.5593C36.3243 141.869 36.0989 141.776 35.9328 141.61C35.7666 141.444 35.6732 141.219 35.6731 140.985V140.289C35.6732 140.054 35.7666 139.83 35.9328 139.664C36.0989 139.498 36.3243 139.405 36.5593 139.405H48.171V135.541L47.4621 135.428L43.9602 134.869L31.0477 132.815C30.439 132.719 29.8169 132.867 29.3178 133.228C28.8187 133.588 28.4835 134.132 28.3857 134.739L28.0985 136.524L27.6129 139.564C27.5178 140.171 27.6677 140.791 28.0297 141.288C28.3918 141.784 28.9366 142.118 29.5447 142.215Z" fill="#B99750"/>
<path d="M10.0957 126.562C10.0957 141.006 11.5668 149.646 34.2516 147.171C34.2834 147.168 34.3118 147.164 34.3436 147.161C38.3897 146.762 42.3912 145.999 46.2992 144.881C48.3302 144.289 50.3041 143.518 52.1973 142.576C52.6438 142.35 53.0727 142.113 53.4947 141.869H36.559C36.324 141.869 36.0986 141.776 35.9325 141.61C35.7663 141.444 35.6729 141.219 35.6728 140.985V140.289C35.6729 140.054 35.7663 139.83 35.9325 139.664C36.0986 139.498 36.324 139.405 36.559 139.405H48.1707V117.077C48.1716 116.39 48.4457 115.732 48.9327 115.246C49.4198 114.76 50.08 114.487 50.7688 114.486H60.215C60.1333 114.253 60.052 114.016 59.9634 113.779C59.0771 111.333 58.0268 108.95 56.8194 106.645C55.1652 103.444 53.1966 100.415 50.9425 97.6025C49.3729 95.6423 47.6108 93.8434 45.6826 92.2327C42.1273 89.3056 38.2568 87.4957 34.3295 87.4957C19.8467 87.4956 10.0957 112.118 10.0957 126.562Z" fill="#2F2E41"/>
<path d="M33.9018 72.678L33.8833 72.0159C35.1184 71.9816 36.2073 71.9043 37.0255 71.3082C37.2574 71.1295 37.4481 70.9032 37.5845 70.6445C37.7209 70.3858 37.7999 70.1008 37.816 69.809C37.8304 69.6306 37.8033 69.4514 37.7369 69.2852C37.6706 69.119 37.5667 68.9703 37.4333 68.8507C36.8901 68.3932 36.0162 68.5413 35.3792 68.8326L34.8299 69.0838L35.8833 61.4061L36.541 61.496L35.645 68.0269C36.5105 67.7731 37.3125 67.8824 37.8618 68.345C38.0728 68.5287 38.2383 68.7585 38.3454 69.0165C38.4525 69.2744 38.4984 69.5536 38.4794 69.8322C38.46 70.2244 38.3549 70.6075 38.1714 70.9549C37.9879 71.3022 37.7304 71.6053 37.4171 71.8429C36.3658 72.6091 34.9996 72.6473 33.9018 72.678Z" fill="#2F2E41"/>
<path d="M43.3695 62.0592H39.7939V62.7214H43.3695V62.0592Z" fill="#2F2E41"/>
<path d="M32.0834 62.0592H28.5078V62.7214H32.0834V62.0592Z" fill="#2F2E41"/>
<path d="M20.0967 61.2426C21.4783 59.1683 23.9095 58.289 26.307 58.0751C29.0054 57.8343 31.6129 58.3533 34.2475 58.8575C37.1471 59.4124 40.2158 59.9316 43.1374 59.23C44.4299 58.9318 45.6377 58.3449 46.6696 57.5135C47.7015 56.682 48.5308 55.6278 49.0947 54.4302C50.1644 52.0937 50.3949 49.4612 49.7474 46.9752C49.0628 44.3312 47.3634 42.0047 45.3033 40.2475C41.0985 36.661 35.4085 35.0492 29.9356 35.201C24.4834 35.3414 19.2138 37.1893 14.8734 40.4831C10.5258 43.8957 7.46639 48.6774 6.1946 54.0475C4.86471 59.3736 5.29793 64.9859 7.42957 70.0462C8.62719 72.817 10.3593 75.315 11.6958 78.0161C12.9402 80.531 13.8986 83.4549 13.1243 86.26C12.4449 88.7214 10.4502 90.9081 7.946 91.5764C6.80668 91.8746 5.60109 91.7957 4.51057 91.3517C3.42006 90.9077 2.50358 90.1225 1.89898 89.1143C0.647156 87.1456 0.617206 84.5671 2.49675 82.9775C2.97064 82.5701 3.52266 82.2631 4.11925 82.0751C4.71584 81.8871 5.34452 81.8222 5.96708 81.8841C6.58964 81.9461 7.19306 82.1337 7.74064 82.4355C8.28823 82.7373 8.76854 83.1471 9.15237 83.6399C9.91489 84.6276 10.2562 85.8754 10.1023 87.1125C10.0097 87.7377 10.9691 88.0076 11.0626 87.3765C11.2869 86.0682 11.0381 84.723 10.3607 83.5805C9.68332 82.438 8.62122 81.5725 7.36366 81.1381C6.10609 80.7037 4.73475 80.7288 3.49397 81.2087C2.25318 81.6887 1.22355 82.5924 0.588504 83.7588C-0.544968 85.8843 0.0666085 88.4479 1.50544 90.2647C2.24779 91.2325 3.25398 91.9664 4.40362 92.3787C5.55326 92.791 6.79766 92.8642 7.98794 92.5896C10.607 91.9864 12.7495 89.9103 13.7571 87.4706C14.8788 84.7546 14.3649 81.7237 13.2714 79.0881C12.0893 76.2392 10.334 73.6841 8.94587 70.9387C7.68896 68.4577 6.88913 65.7717 6.58448 63.0086C5.97476 57.4601 7.23741 51.8672 10.1727 47.1148C13.1645 42.4361 17.731 38.9748 23.0519 37.3526C28.2985 35.71 34.085 35.7603 39.2221 37.779C44.2822 39.7675 49.1684 44.1009 49.1098 49.9211C49.0847 52.4072 48.1593 54.9427 46.2499 56.6009C43.968 58.5827 40.7908 58.7521 37.9223 58.4428C35.0356 58.1315 32.2324 57.2907 29.3332 57.0762C26.8116 56.8897 24.0911 57.0836 21.8396 58.3331C20.791 58.9163 19.8984 59.7422 19.2368 60.7413C18.8811 61.2752 19.7433 61.7732 20.0967 61.2426Z" fill="#2F2E41"/>
<path d="M22.9237 104.609C22.9519 104.673 22.9838 104.736 23.0192 104.796C23.0548 104.86 23.0939 104.921 23.1362 104.98L30.9057 116.133L31.5083 116.999L37.8458 126.092L43.9601 134.869L46.4341 138.426C46.5007 138.523 46.5755 138.614 46.6576 138.698C47.0401 139.099 47.5546 139.35 48.1072 139.405H48.1709V124.236L47.462 123.218L39.5118 111.806L30.9732 99.5503C30.6215 99.0462 30.0837 98.7017 29.4777 98.5924C28.8718 98.483 28.2471 98.6177 27.7406 98.967L25.1211 100.78L23.7139 101.756C23.269 102.065 22.9464 102.519 22.8021 103.04C22.6578 103.561 22.7008 104.116 22.9237 104.609Z" fill="#B99750"/>
<path d="M21.7077 104.337L22.0585 105.04L22.0621 105.044L22.1578 105.231L27.8538 116.508C28.1748 117.033 28.6911 117.409 29.2896 117.555C29.8881 117.7 30.5202 117.604 31.0475 117.286L31.4161 117.056L31.5081 116.999L38.8524 112.404C39.1146 112.246 39.3427 112.037 39.5236 111.79C39.7045 111.544 39.8346 111.264 39.9064 110.967C39.9782 110.669 39.9904 110.361 39.9421 110.059C39.8938 109.757 39.786 109.468 39.625 109.208L31.5578 98.2989C30.7671 97.2298 29.6314 96.4649 28.3417 96.1327C27.0519 95.8005 25.6869 95.9213 24.4759 96.4748C24.2027 96.5977 23.9395 96.7419 23.689 96.906C22.5033 97.6874 21.6465 98.8758 21.2812 100.246C20.916 101.615 21.0677 103.071 21.7077 104.337Z" fill="#2F2E41"/>
<path d="M63.5361 141.869V168.484C63.537 169.098 63.7819 169.687 64.2172 170.121C64.6524 170.555 65.2424 170.799 65.8579 170.8H70.7599C71.3754 170.799 71.9654 170.555 72.4006 170.121C72.8358 169.687 73.0806 169.098 73.0815 168.484V141.869H63.5361Z" fill="#B99750"/>
<path d="M34.9639 140.289V140.985C34.9644 141.353 35.0924 141.71 35.3262 141.994C35.56 142.279 35.8853 142.475 36.247 142.548C36.2965 142.555 36.3462 142.565 36.3958 142.569C36.449 142.572 36.5021 142.576 36.5589 142.576H91.2009C92.0782 142.576 92.9196 142.228 93.5403 141.61C94.161 140.991 94.5103 140.153 94.5114 139.278V117.077C94.5103 116.202 94.161 115.363 93.5403 114.745C92.9196 114.127 92.0782 113.779 91.2009 113.779H50.7687C49.8919 113.78 49.0513 114.128 48.4313 114.746C47.8114 115.364 47.4626 116.203 47.4617 117.077V138.698H36.5589C36.1359 138.698 35.7302 138.865 35.4311 139.164C35.1319 139.462 34.9639 139.867 34.9639 140.289Z" fill="white"/>
<path d="M34.9639 140.289V140.985C34.9644 141.353 35.0924 141.71 35.3262 141.994C35.56 142.279 35.8853 142.475 36.247 142.548C36.2965 142.555 36.3462 142.565 36.3958 142.569C36.449 142.572 36.5021 142.576 36.5589 142.576H91.2009C92.0782 142.576 92.9196 142.228 93.5403 141.61C94.161 140.991 94.5103 140.153 94.5114 139.278V117.077C94.5103 116.202 94.161 115.363 93.5403 114.745C92.9196 114.127 92.0782 113.779 91.2009 113.779H50.7687C49.8919 113.78 49.0513 114.128 48.4313 114.746C47.8114 115.364 47.4626 116.203 47.4617 117.077V138.698H36.5589C36.1359 138.698 35.7302 138.865 35.4311 139.164C35.1319 139.462 34.9639 139.867 34.9639 140.289ZM35.6728 140.985V140.289C35.6729 140.054 35.7662 139.83 35.9324 139.664C36.0986 139.498 36.3239 139.405 36.5589 139.405H48.1706V117.077C48.1716 116.39 48.4456 115.732 48.9327 115.246C49.4197 114.76 50.08 114.487 50.7687 114.486H91.2009C91.8902 114.486 92.5512 114.759 93.039 115.245C93.5267 115.731 93.8013 116.39 93.8025 117.077V139.278C93.8013 139.965 93.5267 140.624 93.039 141.11C92.5512 141.596 91.8902 141.869 91.2009 141.869H36.5589C36.3239 141.869 36.0986 141.776 35.9324 141.61C35.7663 141.444 35.6729 141.219 35.6728 140.985Z" fill="#3F3D56"/>
<path d="M70.9865 130.896C72.4919 130.896 73.7123 129.679 73.7123 128.178C73.7123 126.676 72.4919 125.459 70.9865 125.459C69.4811 125.459 68.2607 126.676 68.2607 128.178C68.2607 129.679 69.4811 130.896 70.9865 130.896Z" fill="#B99750"/>
<path d="M48.1816 139.073H47.4727V142.254H48.1816V139.073Z" fill="#3F3D56"/>
</g>
<defs>
<clipPath id="clip0_45_2310">
<rect width="181" height="183" fill="white"/>
</clipPath>
</defs>
</svg>
