<svg width="234" height="131" viewBox="0 0 234 131" fill="none" xmlns="http://www.w3.org/2000/svg">
<g clip-path="url(#clip0_45_2336)">
<path d="M49.2454 130.501H13.496C13.496 130.501 12.7713 119.87 17.0587 119.75C21.3461 119.629 20.863 124.461 26.2376 117.817C31.6123 111.172 38.1339 111.535 38.9793 115.461C39.8247 119.387 37.349 122.528 41.8779 121.562C46.4068 120.595 52.929 123.132 49.2454 130.501Z" fill="#E6E6E6"/>
<path d="M30.7673 130.504L30.6465 130.499C30.928 123.5 32.3933 119.003 33.5733 116.463C34.8543 113.705 36.0887 112.588 36.1012 112.577L36.1816 112.668C36.1694 112.679 34.9494 113.784 33.6786 116.523C32.5052 119.052 31.0477 123.531 30.7673 130.504Z" fill="white"/>
<path d="M43.7058 130.518L43.5898 130.484C44.4889 127.518 46.1096 124.821 48.3067 122.635L48.3878 122.724C46.207 124.895 44.5983 127.573 43.7058 130.518Z" fill="white"/>
<path d="M19.1272 130.51L19.0074 130.493C19.3972 127.869 18.9848 125.188 17.8243 122.803C17.3486 121.802 16.7188 120.883 15.958 120.077L16.0417 119.99C16.8128 120.805 17.4512 121.736 17.9336 122.749C19.1046 125.156 19.5206 127.862 19.1272 130.51Z" fill="white"/>
<path d="M54.0973 130.663H9.64051L9.63034 130.512C9.60492 130.138 9.03765 121.298 11.9009 118.145C12.185 117.811 12.5357 117.541 12.9303 117.352C13.325 117.163 13.755 117.058 14.1926 117.045C16.0589 116.991 17.2318 117.691 18.1779 118.252C19.9611 119.31 21.1388 120.009 25.4219 114.714C30.0615 108.978 35.0677 107.744 37.9454 108.43C39.8048 108.874 41.0863 110.127 41.4614 111.869C41.8173 113.518 41.7034 115.068 41.6124 116.313C41.515 117.646 41.4382 118.698 41.9854 119.175C42.4431 119.573 43.3536 119.609 44.8538 119.289C47.9049 118.638 52.1633 119.195 54.3004 121.957C55.4502 123.443 56.3561 126.144 54.142 130.574L54.0973 130.663ZM9.94385 130.34H53.8972C55.5471 126.991 55.5987 124.163 54.0449 122.155C52.0843 119.621 47.971 118.954 44.9211 119.605C43.291 119.953 42.32 119.895 41.7731 119.419C41.1041 118.836 41.1863 117.712 41.29 116.291C41.3795 115.066 41.4906 113.542 41.1453 111.938C40.7975 110.323 39.6037 109.159 37.8702 108.746C35.0842 108.081 30.2168 109.299 25.6729 114.918C21.2146 120.43 19.8713 119.633 18.0129 118.53C17.0551 117.961 15.9679 117.317 14.2015 117.367C13.8075 117.38 13.4206 117.475 13.0655 117.646C12.7105 117.817 12.3952 118.061 12.1399 118.362C9.56729 121.196 9.88105 129.144 9.94411 130.34H9.94385Z" fill="#2F2E41"/>
<path d="M199.358 130.842H155.57L155.562 130.597L153.471 70.7845H201.457L199.358 130.842ZM156.061 130.334H198.867L200.931 71.2931H153.997L156.061 130.334Z" fill="#3F3D56"/>
<path d="M166.015 81.8667H162.685V123.092H166.015V81.8667Z" fill="#3F3D56"/>
<path d="M179.129 81.8667H175.798V123.092H179.129V81.8667Z" fill="#3F3D56"/>
<path d="M192.243 81.8667H188.913V123.092H192.243V81.8667Z" fill="#3F3D56"/>
<path d="M229.282 88.3484L229.067 88.2125L174.677 53.8319L179.395 46.3644L179.61 46.5003L234 80.8808L229.282 88.3484ZM175.378 53.6737L229.124 87.6465L233.298 81.0392L179.553 47.0661L175.378 53.6737Z" fill="#3F3D56"/>
<path d="M216.15 51.061C214.569 50.0602 212.734 49.534 210.863 49.545C208.992 49.556 207.164 50.1036 205.595 51.1229C204.026 52.1422 202.782 53.5904 202.011 55.2956C201.24 57.0008 200.974 58.8914 201.245 60.7432L203.839 62.3825C203.187 60.8688 203.037 59.1861 203.41 57.5808C203.784 55.9756 204.661 54.5321 205.914 53.4617C207.167 52.3913 208.73 51.7502 210.373 51.6324C212.017 51.5146 213.655 51.9262 215.048 52.8069C216.441 53.6876 217.515 54.9912 218.113 56.5268C218.712 58.0624 218.803 59.7493 218.374 61.3405C217.945 62.9318 217.017 64.3438 215.728 65.3697C214.438 66.3957 212.854 66.9817 211.207 67.0421L213.801 68.6814C215.589 68.1322 217.183 67.0813 218.392 65.6533C219.602 64.2253 220.376 62.4803 220.624 60.6253C220.871 58.7702 220.582 56.8831 219.789 55.1878C218.997 53.4925 217.734 52.0603 216.153 51.061H216.15Z" fill="#3F3D56"/>
<path d="M231.126 130.491H0V131H231.126V130.491Z" fill="#3F3D56"/>
<path d="M100.952 127.021H97.2489L95.4863 112.734H100.953L100.952 127.021Z" fill="#FEB8B8"/>
<path d="M90.1074 130.46H101.745V125.962H94.5415C93.3655 125.962 92.2377 126.429 91.4061 127.261C90.5746 128.093 90.1074 129.221 90.1074 130.397V130.46Z" fill="#2F2E41"/>
<path d="M99.6504 104.883L102.205 107.565L113.762 98.987L109.992 95.0289L99.6504 104.883Z" fill="#FEB8B8"/>
<path d="M104.836 108.793L99.8657 103.576L96.6104 106.68L104.641 115.108L104.686 115.065C105.107 114.663 105.446 114.182 105.681 113.649C105.917 113.116 106.046 112.543 106.06 111.96C106.074 111.378 105.973 110.798 105.763 110.255C105.553 109.712 105.238 109.215 104.836 108.793Z" fill="#2F2E41"/>
<path d="M73.8757 65.7424C73.6413 65.3653 73.4925 64.9414 73.4396 64.5005C73.3867 64.0596 73.4311 63.6125 73.5696 63.1906C73.7082 62.7687 73.9375 62.3823 74.2414 62.0586C74.5453 61.735 74.9165 61.4819 75.3288 61.3172L89.8673 24.255L95.5344 27.649L79.384 63.2038C79.6148 63.9151 79.5767 64.6864 79.2769 65.3715C78.9771 66.0565 78.4364 66.6078 77.7574 66.9208C77.0783 67.2337 76.3081 67.2866 75.5927 67.0694C74.8772 66.8523 74.2663 66.3801 73.8757 65.7424Z" fill="#FEB8B8"/>
<path d="M129.059 68.3989C128.616 68.3672 128.185 68.2387 127.797 68.0225C127.409 67.8064 127.074 67.5077 126.814 67.1476C126.553 66.7875 126.376 66.3747 126.292 65.9384C126.209 65.502 126.222 65.0527 126.331 64.6221L104.883 31.0844L110.958 28.4903L130.24 62.4487C130.952 62.6789 131.555 63.1627 131.934 63.8081C132.313 64.4535 132.442 65.2157 132.296 65.9499C132.151 66.6841 131.74 67.3392 131.144 67.7909C130.547 68.2425 129.805 68.4592 129.059 68.3999V68.3989Z" fill="#FEB8B8"/>
<path d="M90.0103 62.0313L93.8067 118.47L102.879 117.669L104.747 76.0302L109.817 93.9129L120.758 94.7135L116.427 59.3622L90.0103 62.0313Z" fill="#2F2E41"/>
<path d="M111.418 91.244L109.817 93.9131L98.6104 101.653L106.616 105.924C106.616 105.924 122.092 97.3829 120.758 94.7138L111.418 91.244Z" fill="#2F2E41"/>
<path d="M82.0659 39.1969L85.2241 30.2955C85.9268 28.3149 87.0151 26.4933 88.4262 24.9363C89.8373 23.3792 91.5432 22.1175 93.445 21.2242C97.7196 19.649 102.369 19.3944 106.79 20.4935L107.939 20.7788C111.004 21.5218 113.875 22.909 116.362 24.8481C118.308 26.3827 120.059 28.3257 120.215 30.4158C120.216 30.4202 120.217 30.4246 120.219 30.4287C120.758 32.7919 121.025 45.0695 121.025 45.0695H116.27L117.022 61.6178L116.961 61.498C116.961 61.498 89.5375 66.689 89.5375 64.0199V46.9373L88.9753 40.7521L82.0659 39.1969Z" fill="#CCCCCC"/>
<path d="M107.663 18.1796C111.86 18.1796 115.263 14.7763 115.263 10.5781C115.263 6.37986 111.86 2.97652 107.663 2.97652C103.466 2.97652 100.063 6.37986 100.063 10.5781C100.063 14.7763 103.466 18.1796 107.663 18.1796Z" fill="#FEB8B8"/>
<path d="M108.802 7.16909L114.703 7.40561C115.445 7.40332 116.256 7.37713 116.821 6.89696C117.673 6.17239 117.53 4.80513 117.074 3.78376C115.803 0.93988 112.967 -0.0789494 109.853 0.00472396C106.739 0.0883973 103.476 1.1441 101.799 3.76875C100.122 6.39339 99.6692 9.70778 100.301 12.7577C101.031 11.2068 102.155 9.8747 103.561 8.89424C104.967 7.91378 106.605 7.31929 108.312 7.17011L108.802 7.16909Z" fill="#2F2E41"/>
<path d="M143.843 81.5229L122.485 66.55C122.286 66.4103 122.151 66.1977 122.109 65.9586C122.067 65.7196 122.121 65.4736 122.26 65.2746L139.024 41.3494C139.164 41.1509 139.376 41.0159 139.615 40.9738C139.854 40.9318 140.1 40.9862 140.299 41.1251L161.658 56.098C161.856 56.2377 161.991 56.4503 162.033 56.6894C162.075 56.9284 162.021 57.1744 161.882 57.3734L145.119 81.298C144.979 81.4967 144.766 81.6319 144.527 81.6741C144.288 81.7163 144.042 81.6619 143.843 81.5229Z" fill="#B99750"/>
<path d="M148.647 65.2763L136.114 56.4904C135.969 56.3888 135.845 56.2596 135.75 56.1103C135.655 55.9609 135.591 55.7943 135.56 55.62C135.529 55.4456 135.533 55.2669 135.572 55.0941C135.61 54.9213 135.682 54.7577 135.784 54.6127C135.885 54.4678 136.014 54.3442 136.164 54.2492C136.313 54.1541 136.48 54.0894 136.654 54.0588C136.828 54.0281 137.007 54.0321 137.18 54.0705C137.352 54.1089 137.516 54.1809 137.661 54.2825L150.194 63.0684C150.486 63.2736 150.686 63.5867 150.748 63.9388C150.809 64.2909 150.729 64.6532 150.524 64.946C150.319 65.2388 150.006 65.4381 149.654 65.5C149.302 65.562 148.939 65.4815 148.647 65.2763Z" fill="white"/>
<path d="M145.77 69.3813L133.237 60.5955C133.092 60.4939 132.969 60.3648 132.873 60.2154C132.778 60.066 132.713 59.8994 132.683 59.7249C132.652 59.5505 132.656 59.3717 132.694 59.1988C132.732 59.0258 132.805 58.8622 132.906 58.7171C133.008 58.5721 133.137 58.4485 133.286 58.3534C133.436 58.2583 133.603 58.1936 133.777 58.163C133.951 58.1324 134.13 58.1365 134.303 58.175C134.476 58.2135 134.639 58.2858 134.784 58.3876L147.317 67.1734C147.61 67.3787 147.808 67.6918 147.87 68.0437C147.932 68.3957 147.851 68.7578 147.646 69.0504C147.441 69.343 147.129 69.5422 146.777 69.6043C146.425 69.6663 146.063 69.5861 145.77 69.3813Z" fill="white"/>
<path d="M142.863 73.5305L130.33 64.7446C130.185 64.643 130.062 64.5139 129.967 64.3645C129.872 64.2152 129.807 64.0486 129.776 63.8742C129.746 63.6999 129.75 63.5212 129.788 63.3483C129.826 63.1755 129.898 63.012 130 62.867C130.102 62.722 130.231 62.5985 130.38 62.5034C130.529 62.4084 130.696 62.3436 130.87 62.313C131.044 62.2823 131.223 62.2863 131.396 62.3247C131.569 62.3631 131.732 62.4351 131.877 62.5367L144.41 71.3226C144.703 71.5278 144.902 71.8409 144.964 72.193C145.026 72.5452 144.945 72.9075 144.74 73.2003C144.535 73.493 144.222 73.6923 143.87 73.7543C143.518 73.8162 143.156 73.7357 142.863 73.5305Z" fill="white"/>
<path d="M148.611 57.1556L143.757 53.7526C143.612 53.6511 143.488 53.5219 143.393 53.3726C143.298 53.2232 143.233 53.0565 143.202 52.8821C143.171 52.7076 143.175 52.5289 143.214 52.3559C143.252 52.183 143.324 52.0193 143.426 51.8743C143.527 51.7292 143.657 51.6056 143.806 51.5106C143.955 51.4155 144.122 51.3508 144.297 51.3202C144.471 51.2896 144.65 51.2937 144.823 51.3322C144.995 51.3707 145.159 51.4429 145.304 51.5447L150.158 54.9477C150.451 55.1529 150.65 55.466 150.712 55.8182C150.774 56.1703 150.694 56.5326 150.488 56.8254C150.283 57.1182 149.97 57.3175 149.618 57.3794C149.266 57.4413 148.904 57.3608 148.611 57.1556Z" fill="white"/>
</g>
<defs>
<clipPath id="clip0_45_2336">
<rect width="234" height="131" fill="white"/>
</clipPath>
</defs>
</svg>
