<svg width="266" height="196" viewBox="0 0 266 196" fill="none" xmlns="http://www.w3.org/2000/svg">
<g clip-path="url(#clip0_40_1599)">
<path opacity="0.1" d="M176.378 188.748C217.649 188.748 251.106 185.385 251.106 181.237C251.106 177.089 217.649 173.726 176.378 173.726C135.107 173.726 101.651 177.089 101.651 181.237C101.651 185.385 135.107 188.748 176.378 188.748Z" fill="#B99750"/>
<path opacity="0.1" d="M154.547 27.5626C137.495 27.0693 121.253 22.5016 105.745 17.5023C90.2376 12.503 74.8729 6.9701 58.2281 4.32104C47.5218 2.61823 35.2808 2.37633 26.6539 7.14086C18.3553 11.7228 15.6716 19.6368 14.2298 26.9768C13.1449 32.5003 12.5073 38.3154 15.4789 43.4855C17.544 47.076 21.208 50.0927 23.7418 53.5315C32.5614 65.4986 26.328 80.2522 16.7708 91.9347C12.2884 97.4154 7.08989 102.645 3.63055 108.479C0.171217 114.313 -1.42522 121.003 1.59873 126.949C4.59888 132.847 11.746 137.277 19.4902 140.393C35.2166 146.723 53.7505 148.535 71.8323 149.56C111.824 151.834 152.032 150.847 192.152 149.863C206.996 149.5 221.892 149.13 236.508 147.226C244.616 146.168 252.988 144.489 258.872 140.436C266.347 135.29 268.198 126.579 263.19 120.126C254.792 109.304 231.566 106.608 225.694 95.0035C222.463 88.6121 225.782 81.4854 230.479 75.5565C240.552 62.84 257.44 51.6817 258.329 37.1367C258.941 27.1523 250.823 17.1537 238.271 12.4295C225.114 7.47762 206.865 8.10135 197.161 16.2976C187.168 24.7499 169.605 27.9966 154.547 27.5626Z" fill="#B99750"/>
<path opacity="0.5" d="M40.9956 148.514C39.1113 147.676 40.7054 138.581 44.8023 124.561C47.4194 115.565 51.0786 104.542 55.5087 92.3758C55.8275 91.503 56.151 90.6279 56.4746 89.7433C56.8394 88.752 57.209 87.7527 57.5833 86.7456L57.6166 86.6626C57.669 86.5179 57.7237 86.3757 57.776 86.2334C59.194 82.4388 60.6763 78.5565 62.2227 74.5865C62.2513 74.5058 62.2822 74.4276 62.3131 74.3493L62.3916 74.1477C62.7628 73.1991 63.1387 72.2505 63.517 71.2852C63.5574 71.1856 63.5955 71.0813 63.636 70.9817C63.6907 70.8417 63.7454 70.7066 63.7977 70.569C63.8168 70.5263 63.831 70.4813 63.8501 70.4433C63.881 70.3603 63.9143 70.2797 63.9453 70.2061C64.3259 69.2575 64.7042 68.297 65.0825 67.3602C65.7011 65.8266 66.3149 64.308 66.924 62.8044C67.0303 62.5404 67.1373 62.2795 67.2452 62.0218C67.5513 61.2645 67.8582 60.5127 68.1659 59.7664C68.2849 59.4818 68.4038 59.1949 68.518 58.9126C68.6085 58.6968 68.6965 58.4786 68.7845 58.2652C69.7505 55.9363 70.7101 53.6525 71.6633 51.4137C71.6657 51.406 71.6657 51.3977 71.6633 51.39C75.2916 42.8688 78.8009 35.045 82.0604 28.2053C82.0794 28.1697 82.0937 28.1318 82.1127 28.0962L82.4577 27.3705C90.8229 9.88953 97.4037 -0.898833 99.6283 0.0972346C101.917 1.11227 99.0668 14.36 92.8214 33.8355C92.7405 34.094 92.6572 34.3477 92.5716 34.6062C92.5586 34.6569 92.5427 34.7068 92.524 34.7556C92.2068 35.7644 91.8729 36.792 91.5224 37.8387C91.5034 37.9004 91.4819 37.962 91.4605 38.0237C90.6675 40.4427 89.8236 42.9408 88.9291 45.5179C88.8077 45.8642 88.6912 46.2175 88.5627 46.5685C87.1828 50.5504 85.7077 54.696 84.1255 58.9696C84.0303 59.2328 83.9328 59.4937 83.8352 59.7593C82.2531 64.04 80.5853 68.4464 78.8389 72.943C78.7271 73.2276 78.6153 73.5145 78.5059 73.8015C78.4821 73.8631 78.4583 73.9224 78.4321 73.9841C77.9959 75.0987 77.5574 76.2181 77.1164 77.3423C76.9903 77.6553 76.8785 77.9684 76.7453 78.279C76.4312 79.0735 76.1172 79.868 75.7936 80.6506C75.7674 80.7218 75.7389 80.7929 75.7103 80.8617C75.6818 80.9305 75.6651 80.9732 75.6413 81.0277C75.589 81.1653 75.5343 81.3004 75.4795 81.4356C75.332 81.8032 75.1869 82.1708 75.0394 82.5337C74.7848 83.1693 74.5302 83.7977 74.2757 84.4309L74.1972 84.6207C74.1978 84.6294 74.1978 84.6381 74.1972 84.6468C73.163 87.1938 72.132 89.6975 71.1042 92.1576C70.7584 92.9876 70.4135 93.8122 70.0693 94.6311C69.8147 95.2359 69.5625 95.8383 69.3079 96.4336C67.4189 100.885 65.5631 105.147 63.7549 109.186C52.8202 133.573 43.6936 149.714 40.9956 148.514Z" fill="#B99750"/>
<path opacity="0.5" d="M45.4615 131.583C44.3004 131.085 45.7422 124.615 49.0112 114.564C51.1049 108.118 53.9528 100.197 57.3383 91.4366L58.0783 89.5393C58.3558 88.8263 58.6382 88.1069 58.9253 87.3812C58.9342 87.3611 58.9422 87.3405 58.9491 87.3195L59.0728 87.0112C60.1529 84.2713 61.2799 81.4728 62.4536 78.6158C62.475 78.5565 62.4988 78.502 62.5226 78.4451C62.5464 78.3881 62.5607 78.3478 62.5821 78.3004C62.8628 77.6126 63.1459 76.9272 63.4314 76.2347L63.5242 76.0142L63.6456 75.7177C63.6598 75.6869 63.6717 75.6537 63.6836 75.6252C63.6955 75.5968 63.7336 75.509 63.7574 75.4521C64.0461 74.7596 64.3324 74.0726 64.6163 73.3912C65.0826 72.2845 65.5449 71.188 66.0033 70.1018L66.2413 69.5374C66.4792 68.9895 66.7028 68.4488 66.9336 67.9081L67.1977 67.2915C67.2667 67.1349 67.3309 66.9784 67.3975 66.8172C68.1224 65.1365 68.8417 63.4859 69.5555 61.8653C69.5569 61.8598 69.5569 61.8541 69.5555 61.8487C72.2677 55.6825 74.8753 50.0239 77.2688 45.0649C77.2831 45.0389 77.2949 45.0104 77.3092 44.9843L77.5614 44.4578C83.714 31.7769 88.4153 23.8866 89.7857 24.4772C91.1965 25.0843 88.7555 34.5303 83.8615 48.5132L83.6664 49.0682C83.6545 49.1038 83.6426 49.1393 83.6283 49.1749C83.3746 49.899 83.1136 50.635 82.8456 51.3829L82.798 51.5157C82.1747 53.2548 81.5188 55.0501 80.8304 56.9015C80.7376 57.1529 80.6448 57.4067 80.5473 57.6581C79.4814 60.5206 78.3418 63.5064 77.1379 66.5847L76.9167 67.1515C75.708 70.2346 74.4391 73.4015 73.11 76.6521C73.0267 76.8585 72.9434 77.0648 72.8578 77.2711C72.8387 77.3162 72.8197 77.3589 72.803 77.4039L71.8062 79.8253L71.5254 80.5012C71.2875 81.0752 71.0496 81.6491 70.8117 82.2159C70.7926 82.2681 70.7712 82.3179 70.7498 82.3677C70.7284 82.4175 70.7165 82.4483 70.6975 82.4886L70.5761 82.7803C70.4643 83.0459 70.3549 83.3116 70.243 83.5748L69.6839 84.9551L69.6245 85.0926V85.1116C68.8441 86.9519 68.0701 88.7599 67.3024 90.5354C67.0438 91.1362 66.7845 91.7323 66.5244 92.3236C66.334 92.7631 66.1437 93.1979 65.9534 93.628C64.5401 96.8438 63.1578 99.9293 61.816 102.851C53.6911 120.529 47.1245 132.299 45.4615 131.583Z" fill="#B99750"/>
<path d="M122.005 83.5938C122.005 82.9321 121.355 83.2736 121.265 83.3021C121.004 83.0885 120.72 82.9048 120.418 82.7542C118.969 82.0024 116.78 81.5447 115.036 81.2767C115.03 81.2746 115.023 81.2746 115.017 81.2767C113.48 81.0396 112.295 80.9589 112.295 80.9589L111.389 80.9708H111.051C111.17 80.7951 111.344 80.664 111.546 80.5985C111.798 80.5676 110.48 80.4704 109.854 80.4277H109.828L109.538 80.4087C108.163 80.7313 105.586 78.9692 105.586 78.9692L105.286 77.4656C106.304 76.3676 106.157 73.6236 106.157 73.6236C106.157 73.6236 106.243 72.7034 107.109 71.437C107.975 70.1706 106.963 69.369 106.963 69.369L108.46 67.7777C108.396 67.5032 108.387 67.2187 108.433 66.9407C108.48 66.6627 108.581 66.3966 108.731 66.1579C108.823 66.023 108.936 65.9043 109.067 65.8069V65.795L109.09 65.7737C110.068 65.0266 110.894 62.4321 110.894 62.4321C110.894 62.4321 110.704 61.9696 111.774 60.7151V60.7008C111.917 60.5348 112.084 60.357 112.276 60.1577C112.276 60.1411 112.305 60.1269 112.319 60.1103C114.037 58.3933 113.361 57.4446 113.361 57.4446L111.275 54.9165C111.767 54.096 107.813 48.2073 107.813 48.2073C107.813 48.2073 107.308 46.9954 107.594 45.8357C107.674 45.5625 107.682 45.2734 107.618 44.9962C107.58 44.8396 107.503 44.6951 107.394 44.5764C107.327 44.5049 107.246 44.4476 107.156 44.408L107.013 44.3962L107.182 44.2728C107.251 44.2278 107.318 44.178 107.387 44.1305C107.535 44.1875 107.682 44.2373 107.832 44.2823C109.284 44.7499 110.831 44.846 112.33 44.5617C113.829 44.2774 115.233 43.6219 116.411 42.6554C116.471 42.6103 116.528 42.5605 116.583 42.5107C116.637 42.4609 116.732 42.3827 116.806 42.3139C116.839 42.2831 116.873 42.2546 116.901 42.2238C116.93 42.1929 117.013 42.1147 117.068 42.0578C117.085 42.1099 117.101 42.1597 117.12 42.2119C117.195 42.4221 117.285 42.6266 117.389 42.8238C117.398 42.842 117.408 42.8594 117.42 42.876C117.419 42.8831 117.419 42.8902 117.42 42.8973C117.437 42.9329 117.458 42.9661 117.477 42.9993C117.613 43.2253 117.777 43.4326 117.967 43.6159C118.014 43.6617 118.063 43.7044 118.115 43.744C118.189 43.8071 118.268 43.8634 118.353 43.9123C118.365 43.9232 118.379 43.9327 118.393 43.9408C118.407 43.9517 118.422 43.9612 118.438 43.9693C118.5 43.8602 118.56 43.7487 118.617 43.6372C119.122 42.6548 119.416 41.5781 119.48 40.4759C119.483 40.3418 119.494 40.2079 119.514 40.0751C119.527 39.9737 119.556 39.8751 119.602 39.7834C119.69 39.6031 119.832 39.4547 120.009 39.3589C120.294 39.2141 120.594 39.0997 120.903 39.0174L120.977 38.9913L121.067 38.9605L121.243 38.8917L121.272 38.8775C121.324 38.8561 121.372 38.83 121.422 38.8063C121.437 38.7955 121.453 38.7859 121.469 38.7779C121.526 38.7462 121.58 38.7097 121.631 38.6688L121.655 38.6498C121.701 38.6149 121.744 38.576 121.783 38.5336C121.802 38.5146 121.814 38.4909 121.833 38.4719C121.86 38.4432 121.884 38.4122 121.905 38.3794L121.962 38.2964C121.974 38.2701 121.989 38.2447 122.005 38.2205C122.187 37.8528 122.269 37.4439 122.243 37.0347C122.209 36.4466 122.036 35.8774 122.043 35.2869C122.064 33.8758 123.085 32.5287 122.994 31.1271C122.914 29.9129 122.017 28.969 121.091 28.2148C120.166 27.4606 119.138 26.7563 118.631 25.6772C118.253 24.8685 118.2 23.927 117.86 23.1017C117.146 21.3728 115.053 20.398 113.161 20.9127C112.029 21.2234 111.044 21.9704 109.942 22.3854C109.214 22.6582 108.45 22.7815 107.725 23.059C106.868 23.3891 106.1 23.9136 105.481 24.591C105.372 24.7096 105.27 24.8282 105.17 24.961L105.077 25.0867C105.008 25.1815 104.939 25.2764 104.877 25.376C104.848 25.4187 104.822 25.459 104.796 25.5041C104.709 25.6413 104.63 25.783 104.558 25.9286C104.489 26.0638 104.43 26.2013 104.37 26.3412C104.039 27.1381 103.835 27.9871 103.438 28.746C103.349 28.9189 103.249 29.0853 103.138 29.2441C102.983 29.4646 102.805 29.671 102.629 29.8797C102.581 29.9366 102.533 29.9935 102.486 30.0457C102.466 30.0734 102.445 30.0995 102.422 30.1239C102.388 30.169 102.35 30.2117 102.315 30.2567C102.279 30.3018 102.272 30.3113 102.253 30.3374C102.234 30.3635 102.181 30.4346 102.15 30.4844C102.119 30.5342 102.115 30.5295 102.098 30.5556C102.05 30.6291 102.008 30.705 101.965 30.7809V30.7975C101.832 31.0528 101.758 31.335 101.751 31.6228C101.748 31.7651 101.769 31.907 101.813 32.0425C101.824 32.0773 101.837 32.1114 101.853 32.1445C101.889 32.2208 101.936 32.2912 101.993 32.3532C101.965 32.4315 101.932 32.5121 101.905 32.5904C101.843 32.7706 101.786 32.9556 101.734 33.1382C101.701 33.2639 101.675 33.3754 101.646 33.5058C101.535 33.9861 101.464 34.4748 101.434 34.9667L101.282 35.045C101.014 35.1776 100.738 35.294 100.456 35.3936H100.428C100.19 35.4458 98.5483 35.7873 97.9726 35.6877L95.9193 35.3296C95.9193 35.3296 95.4435 35.1327 94.9224 34.8837C94.5292 34.7124 94.1624 34.4865 93.8328 34.2125C93.4402 33.7904 90.7256 32.0497 90.1546 32.052C89.9215 32.0157 89.709 31.898 89.555 31.72C89.3825 31.5097 89.2236 31.2887 89.0792 31.0583C89.0792 31.0583 89.0244 31.0299 88.9388 30.9777C88.8317 30.8283 88.7651 30.7168 88.7651 30.7168C88.7651 30.7168 87.9586 30.2757 87.1377 29.7682L86.788 30.4797C86.769 30.5152 86.7523 30.5532 86.7333 30.5911C83.4215 37.3976 79.8003 45.1693 76.027 53.6098C76.0283 53.6176 76.0283 53.6256 76.027 53.6335C75.0325 55.847 74.0292 58.1087 73.0173 60.4186L72.7389 61.0589L72.3678 61.9032L71.3994 64.1325L71.0616 64.908C70.4192 66.3926 69.7721 67.8947 69.1202 69.414C68.7205 70.3453 68.3192 71.2852 67.9163 72.2339C67.8854 72.3121 67.8497 72.3928 67.8164 72.471C67.7974 72.5113 67.7807 72.554 67.7617 72.5967C67.7069 72.7319 67.6475 72.8671 67.5904 73.0046C67.5475 73.1019 67.5047 73.2062 67.4619 73.3035C67.0622 74.2521 66.6649 75.2007 66.2723 76.1304L66.0915 76.2229L66.189 76.3296C66.1557 76.4079 66.1224 76.4838 66.0915 76.5668C64.4498 80.4751 62.8637 84.3053 61.3331 88.0571L61.1618 88.4793L61.1261 88.5623C60.7232 89.5536 60.3267 90.5378 59.9365 91.5149C59.5876 92.3876 59.241 93.2525 58.8968 94.1094C54.1123 106.091 50.0653 116.907 47.0556 125.701C46.9129 125.799 46.7606 125.91 46.606 126.036C46.7606 125.92 46.9105 125.799 47.0485 125.716C47.1676 125.635 47.2915 125.561 47.4196 125.495C47.6997 125.347 47.9569 125.159 48.1834 124.938C48.2857 124.843 48.3856 124.746 48.4831 124.644C49.0412 124.02 49.5473 123.352 49.9963 122.647C50.0687 122.561 50.1483 122.482 50.2342 122.41L50.3603 122.296L50.3793 122.279C50.4483 122.22 50.5221 122.153 50.6054 122.085L50.6196 122.073L50.7434 121.971L50.7576 121.959L50.8909 121.848C51.2977 121.515 51.795 121.124 52.2684 120.754L52.4397 120.624L53.0179 120.178L53.3034 119.962L53.9338 119.488C53.9396 119.478 53.946 119.468 53.9529 119.459C54.01 119.386 54.1408 119.222 54.324 118.997C54.3275 118.992 54.3324 118.987 54.3383 118.985C54.3598 118.955 54.3829 118.927 54.4073 118.9C54.6595 118.606 54.9878 118.238 55.359 117.873C55.4042 117.83 55.4494 117.783 55.4994 117.74L55.635 117.609L55.8562 117.413C56.0738 117.22 56.3026 117.04 56.5414 116.874C56.8471 116.654 57.1394 116.417 57.417 116.163L57.4765 116.111C57.5169 116.07 57.5621 116.028 57.6097 115.987C57.6439 115.958 57.6765 115.927 57.7072 115.895L57.8095 115.8L57.9785 115.641L58.0855 115.539L58.3377 115.302L58.6208 115.022L58.6637 114.979C58.8088 114.832 58.9563 114.683 59.1062 114.536L59.2799 114.36C59.3512 114.287 59.4226 114.211 59.494 114.14C59.6153 114.019 59.7319 113.903 59.8556 113.772L60.1197 113.497C60.2054 113.405 60.291 113.319 60.3719 113.234C60.5028 113.099 60.6265 112.971 60.7431 112.845L60.7692 112.816L61.0714 112.499C61.0714 112.499 61.0714 112.499 61.0857 112.482C61.1594 112.409 61.2237 112.34 61.2855 112.271L61.345 112.207C61.4045 112.15 61.4568 112.091 61.502 112.043C61.6805 111.856 61.7828 111.745 61.7828 111.745L63.924 109.314L66.1058 106.774L66.2033 106.665C66.2033 106.665 66.76 105.83 67.3287 105.14L67.4048 105.047C67.5989 104.804 67.8164 104.581 68.0543 104.381C68.2459 104.221 68.422 104.043 68.5801 103.85C68.592 103.85 68.6015 103.823 68.6158 103.809C69.2582 103.06 70.0885 101.895 70.355 101.514L70.443 101.39C70.6643 101.207 70.8682 101.004 71.0521 100.783C71.2755 100.525 71.4554 100.233 71.585 99.9174C71.7105 99.6342 71.8703 99.3674 72.0609 99.1229C72.0619 99.1191 72.0619 99.115 72.0609 99.1111L72.0989 99.0589L72.2345 98.8834C72.4026 98.9158 72.5727 98.9364 72.7437 98.9451C73.5255 98.9748 74.3069 98.8754 75.0562 98.651C75.0781 98.6453 75.0996 98.6382 75.1205 98.6297C75.3156 98.5846 75.4631 98.5419 75.5416 98.5182L75.6106 98.4969L77.0881 96.3387L77.1238 96.2889C77.1238 96.2889 77.9041 95.5513 78.6512 94.7616C78.7321 94.6762 78.8106 94.5908 78.8891 94.5078C79.4221 93.9339 79.8931 93.3695 79.9859 93.0707C80.2238 92.3236 81.5348 90.8058 81.5348 90.8058C81.5348 90.8058 83.7831 87.9409 84.661 86.8595C84.6967 86.8144 84.7324 86.7693 84.7633 86.7338L84.8823 86.5891C84.9092 86.6078 84.9346 86.6284 84.9584 86.6508C85.0246 86.716 85.0844 86.7875 85.1369 86.8642C85.1416 86.8741 85.1472 86.8836 85.1535 86.8927L85.2273 86.7883C85.2772 86.7219 85.3462 86.6199 85.439 86.4942C85.5106 86.5614 85.5738 86.6371 85.627 86.7195L85.6484 86.7504C85.6484 86.7504 90.6209 79.906 91.3965 77.9755C91.5754 77.5728 91.7997 77.1916 92.065 76.8395C93.081 75.4379 94.794 73.8205 95.5981 73.0876L95.836 72.8766C95.9598 72.7627 96.0335 72.7011 96.0335 72.7011L96.1192 72.8861C96.1192 72.9003 96.1192 72.9145 96.1358 72.9311C96.3404 73.3936 96.7544 74.4181 96.5332 74.7003C96.25 75.0703 95.4911 78.8055 95.4911 78.8055C95.4911 78.8055 94.4561 80.4467 95.1271 82.9677C95.798 85.4887 98.6007 86.3685 99.2264 86.3164C99.6285 86.2808 103.145 87.7393 105.636 88.8089L106.25 89.0722L106.868 89.3354L107.832 89.7552L107.887 89.7789C107.965 89.8168 108.046 89.8524 108.125 89.8832L108.174 89.8168L108.198 89.7813L108.436 89.8927L108.198 89.7575C108.296 89.62 108.465 89.371 108.674 89.0318C108.684 89.0085 108.697 88.9862 108.712 88.9654L108.779 88.854L108.891 88.6642C108.903 88.6382 108.917 88.6168 108.929 88.5955L109.043 88.3915C109.05 88.3818 109.056 88.3715 109.062 88.3607C109.219 88.0761 109.383 87.7583 109.538 87.412C109.562 87.367 109.585 87.3172 109.607 87.2697L110.221 87.2176L110.644 87.182L110.882 87.163L111.191 87.1322L111.336 87.1607L117.199 87.5828L117.627 87.616C118.185 87.6649 118.748 87.597 119.278 87.4167C119.809 87.2365 120.295 86.9478 120.708 86.5692C121.12 86.1906 121.448 85.7303 121.671 85.218C121.895 84.7056 122.008 84.1524 122.005 83.5938Z" fill="url(#paint0_linear_40_1599)"/>
<path d="M107.651 90.0255C107.651 90.0255 112.11 84.0017 109.062 80.6672L101.832 82.8562L102.212 85.5005C102.212 85.5005 105.346 89.1077 107.651 90.0255Z" fill="#65617D"/>
<path opacity="0.1" d="M101.832 82.8562L102.212 85.5005C102.212 85.5005 104.425 88.0381 106.495 89.3994C106.861 89.6453 107.251 89.855 107.658 90.0255C107.658 90.0255 107.684 89.9947 107.73 89.9283C107.735 89.9207 107.74 89.9128 107.744 89.9046C108.283 89.1256 108.754 88.302 109.152 87.4429C109.3 87.118 109.445 86.7693 109.578 86.416C110.054 85.0665 110.349 83.5392 109.935 82.1874C109.786 81.6867 109.537 81.2213 109.202 80.819C109.174 80.7858 109.145 80.7502 109.112 80.717C109.099 80.6993 109.085 80.6826 109.069 80.6672L108.91 80.7147L106.464 81.4546L101.832 82.8562Z" fill="black"/>
<path d="M71.6467 64.372L71.04 64.9104L71.3779 64.1349L71.6467 64.372Z" fill="#65617D"/>
<path opacity="0.1" d="M71.6467 64.372L71.04 64.9104L71.3779 64.1349L71.6467 64.372Z" fill="black"/>
<path d="M109.847 81.2341C109.847 81.2341 106.702 84.6515 108.61 86.8168C108.61 86.8168 109.528 87.0824 110.882 87.3314C114.001 87.9006 119.418 88.3749 121.155 85.2586C123.639 80.7953 111.786 81.1985 111.786 81.1985L110.889 81.2151L109.847 81.2341Z" fill="#FBBEBE"/>
<path opacity="0.1" d="M109.847 81.234C109.847 81.234 106.702 84.6515 108.61 86.8168C108.61 86.8168 109.528 87.0824 110.882 87.3314L111.282 87.2958C110.76 87.1111 110.286 86.8148 109.892 86.4278C109.388 85.9085 109.031 85.1282 109.445 84.0325C109.676 83.4062 109.945 82.7948 110.251 82.2017C110.428 81.8511 110.642 81.5203 110.889 81.2151L109.847 81.234Z" fill="black"/>
<path d="M104.534 87.8413L105.591 87.7512L109.145 87.4429L110.958 87.284C110.438 87.0995 109.964 86.8032 109.571 86.416C109.067 85.8942 108.707 85.1163 109.121 84.0207C109.353 83.394 109.622 82.7818 109.928 82.1874C110.437 81.2388 110.83 80.8783 111.046 80.8499C111.263 80.8214 109.992 80.7265 109.381 80.6862H109.357C109.183 80.672 109.069 80.6672 109.069 80.6672L108.903 80.7147L106.533 81.3977L106.457 81.4522C105.876 81.872 102.379 84.597 104.534 87.8413Z" fill="#E7EFFD"/>
<path d="M77.1475 89.1504L73.4883 97.4865C73.4883 97.4865 72.853 98.1506 72.282 98.8502C72.2731 98.8639 72.2627 98.8766 72.2511 98.8882L72.1131 99.066C72.0982 99.0814 72.0847 99.0981 72.0727 99.1158C72.0737 99.1197 72.0737 99.1238 72.0727 99.1277C71.8274 99.4209 71.6225 99.7455 71.4636 100.093C71.3618 100.342 71.2265 100.575 71.0615 100.788C70.8551 101.055 70.6215 101.299 70.3644 101.518C70.3535 101.53 70.3415 101.54 70.3287 101.549C70.3287 101.549 69.3771 102.908 68.6252 103.814C68.611 103.828 68.6014 103.845 68.5895 103.854C68.3979 104.093 68.1853 104.315 67.9543 104.516C67.7578 104.677 67.577 104.857 67.4142 105.052L67.3381 105.144C66.7409 105.856 66.1152 106.778 66.1152 106.778L63.9359 109.252L61.7161 111.754L61.5043 111.991L61.3473 112.155L61.2878 112.219L61.088 112.43C61.088 112.43 61.0761 112.43 61.0737 112.447L60.7715 112.764L60.7454 112.793C60.6264 112.914 60.5075 113.044 60.3742 113.182C60.2933 113.267 60.2077 113.352 60.122 113.445L59.8579 113.72C59.739 113.841 59.62 113.957 59.4963 114.088C59.4249 114.159 59.3536 114.235 59.2822 114.308L59.1085 114.484C58.9586 114.631 58.8111 114.78 58.666 114.927L58.6231 114.97L58.34 115.25L58.0878 115.487L57.9808 115.589L57.8118 115.748L57.7095 115.843C57.6788 115.875 57.6462 115.906 57.612 115.935C57.5668 115.98 57.5216 116.021 57.4788 116.058L57.4193 116.111C57.1349 116.38 56.8328 116.63 56.5152 116.86C56.207 117.078 55.9137 117.315 55.6373 117.572L55.5016 117.702C55.4517 117.745 55.4065 117.792 55.3613 117.835C54.9925 118.2 54.6642 118.568 54.4096 118.862C54.3852 118.889 54.3622 118.917 54.3406 118.947C54.3347 118.949 54.3298 118.954 54.3263 118.959C54.1431 119.179 54.0123 119.348 53.9552 119.421L53.9243 119.459L53.2938 119.934L53.0083 120.149L52.4301 120.595L52.2588 120.726C51.783 121.096 51.2881 121.487 50.8813 121.819L50.748 121.931L50.7338 121.942L50.61 122.044L50.5958 122.056C50.5125 122.125 50.4387 122.191 50.3697 122.251L50.3507 122.267L50.2246 122.381C50.1493 122.447 50.08 122.519 50.0176 122.597C49.5631 123.31 49.049 123.984 48.4807 124.61C48.3831 124.712 48.2832 124.81 48.1809 124.904C47.9677 125.109 47.7276 125.284 47.4671 125.424C47.3263 125.494 47.1904 125.573 47.0603 125.661C50.07 116.867 54.117 106.05 58.9015 94.0691C59.2441 93.2106 59.5907 92.3457 59.9412 91.4746C60.3362 90.4975 60.7327 89.5133 61.1308 88.5219L61.1665 88.4389L61.3378 88.0168C62.8605 84.2697 64.4466 80.4396 66.0962 76.5264C66.1271 76.4482 66.1604 76.3723 66.1937 76.2893L66.0962 76.1826L66.277 76.0901C66.6719 75.1414 67.0692 74.2118 67.4666 73.2631C67.5094 73.1659 67.5522 73.0616 67.595 72.9643C67.6521 72.8268 67.7116 72.6916 67.7663 72.5564C67.7854 72.5137 67.802 72.471 67.8211 72.4307C67.8544 72.3501 67.8901 72.2694 67.921 72.1935C68.3255 71.2449 68.7267 70.305 69.1249 69.3737L73.317 74.0458L73.493 74.2379L76.4194 77.4514L76.5979 77.6435L77.5091 78.6443L78.0016 79.185L78.2395 79.4435L81.1707 82.6617L81.2087 82.7044L81.3467 82.8538L77.1475 89.1504Z" fill="#3F3D56"/>
<path d="M98.1153 36.6909L97.53 44.8752C97.53 44.8752 104.558 48.1954 104.765 46.9764C104.848 46.5021 105.764 45.7195 106.859 44.9416C108.584 43.7108 110.751 42.4847 110.751 42.4847C110.751 42.4847 103.683 31.8623 102.843 34.0821C102.536 34.8932 101.824 35.46 101.044 35.8513C100.119 36.2857 99.1304 36.5692 98.1153 36.6909Z" fill="#FBBEBE"/>
<path opacity="0.1" d="M102.843 34.0821C102.536 34.8932 102.605 35.0806 101.827 35.4719C101.648 37.8767 101.653 40.7249 103.428 42.6341C104.376 43.659 105.551 44.4492 106.859 44.9416C108.584 43.7108 110.751 42.4847 110.751 42.4847C110.751 42.4847 103.683 31.8623 102.843 34.0821Z" fill="black"/>
<path d="M104.087 29.7302C103.214 30.5352 102.509 31.5035 102.012 32.5801C101.515 33.6566 101.235 34.8202 101.189 36.0044C101.143 37.1887 101.331 38.3704 101.744 39.4821C102.156 40.5937 102.783 41.6136 103.591 42.4835C104.398 43.3533 105.37 44.0561 106.45 44.5517C107.53 45.0473 108.697 45.3261 109.885 45.372C111.073 45.4179 112.259 45.2301 113.374 44.8193C114.489 44.4086 115.512 43.7829 116.385 42.9779L116.478 42.8878C118.227 41.2499 119.252 38.9864 119.327 36.5952C119.403 34.2039 118.522 31.8808 116.879 30.137C115.236 28.3931 112.965 27.3713 110.566 27.2964C108.167 27.2214 105.836 28.0995 104.087 29.7374V29.7302Z" fill="#FBBEBE"/>
<path opacity="0.1" d="M77.6184 86.9448C77.3187 87.3361 76.8214 87.2508 76.022 86.2096C75.6505 85.7558 75.2458 85.3301 74.811 84.9361C74.7301 84.8602 74.6445 84.7819 74.5612 84.6989C73.6738 83.8855 72.5365 82.9155 71.3112 81.8151L71.2327 81.7463C70.6879 81.2554 70.1193 80.736 69.553 80.1977L69.2152 79.8751C68.4396 79.1281 67.6616 78.336 66.9193 77.5035L66.8859 77.4703C66.6123 77.1668 66.3411 76.8585 66.0723 76.5596C66.1032 76.4814 66.1365 76.4055 66.1698 76.3225L66.0723 76.2158L66.2531 76.1233C66.648 75.1746 67.0453 74.245 67.4427 73.2963C67.4855 73.1991 67.5283 73.0947 67.5711 72.9975C67.6282 72.86 67.6877 72.7248 67.7425 72.5896C67.7615 72.5469 67.7781 72.5042 67.7972 72.4639L68.0755 72.8102C68.5276 73.3746 68.9891 73.9414 69.4555 74.5035L69.4959 74.5533C69.76 74.8687 70.0217 75.1841 70.2858 75.5019C70.2977 75.5019 70.3072 75.528 70.3191 75.5375C70.6117 75.8861 70.9115 76.2276 71.2137 76.5549L71.3897 76.7423C71.7133 77.0909 72.0369 77.4182 72.3604 77.736C73.1218 78.4806 73.8736 79.1589 74.566 79.7281C74.6326 79.785 74.6968 79.8396 74.7658 79.8941C75.3773 80.4016 75.9411 80.8427 76.4312 81.189L76.6525 81.355L76.9285 81.5518C77.5709 82.0119 77.9634 82.2633 77.9634 82.2633C77.9634 82.2633 77.9991 82.5882 78.0277 83.0673C78.0443 83.3448 78.061 83.6744 78.0681 84.0159C78.0776 85.1258 78.0086 86.4349 77.6184 86.9448Z" fill="black"/>
<path d="M77.6186 86.9448C77.3117 87.1274 76.8525 86.9235 76.1911 86.0579C75.8045 85.586 75.3821 85.1443 74.9277 84.7369L74.9039 84.7155L74.6779 84.5021C73.8214 83.7195 72.7436 82.7945 71.585 81.751C71.5579 81.7301 71.5324 81.7071 71.5088 81.6823C70.8688 81.1131 70.2074 80.4965 69.5412 79.8656C69.4294 79.7613 69.3176 79.6522 69.2034 79.5407C68.4896 78.8482 67.7759 78.1178 67.0907 77.3565L67.0598 77.3209L66.1747 76.3343L66.0771 76.2276L66.258 76.1351C66.6529 75.1865 67.0502 74.2568 67.4476 73.3082C67.4904 73.211 67.5332 73.1066 67.576 73.0094C67.6331 72.8718 67.6926 72.7366 67.7473 72.6015C67.7664 72.5588 67.783 72.5161 67.8021 72.4758C67.8354 72.3951 67.8711 72.3145 67.902 72.2386C68.3945 72.8529 68.9012 73.4813 69.4128 74.1027C69.4186 74.1071 69.4235 74.1128 69.427 74.1193L69.665 74.4134C69.9386 74.743 70.2122 75.0679 70.4858 75.3952C70.7237 75.6869 70.9806 75.9691 71.2305 76.2442C71.2733 76.294 71.3185 76.3415 71.3637 76.3889C71.4089 76.4363 71.4803 76.517 71.5374 76.5786C72.5335 77.6341 73.5926 78.6288 74.7088 79.5573C74.7731 79.6142 74.8397 79.6688 74.9063 79.7233C75.4963 80.2119 76.0412 80.6364 76.5075 80.985C76.5955 81.0467 76.6788 81.1107 76.7597 81.17L77.0357 81.3669C77.709 81.8412 78.1206 82.1092 78.1206 82.1092C78.1206 82.1092 78.1777 82.6546 78.2086 83.3827C78.2205 83.6839 78.2276 84.0136 78.2253 84.3503C78.2181 85.4792 78.0897 86.665 77.6186 86.9448Z" fill="#5F5D7E"/>
<path opacity="0.1" d="M105.707 53.3418L81.1707 82.657L79.0508 85.1922L78.7391 85.5646C78.5922 85.15 78.4206 84.7445 78.2252 84.3503C78.1729 84.246 78.1182 84.1345 78.0563 84.0207C77.6903 83.2889 77.1955 82.6286 76.5955 82.0712C76.5074 81.9953 76.417 81.9242 76.3266 81.8601L76.1767 81.7605C76.0324 81.6704 75.8794 81.5949 75.7199 81.5352C75.176 81.2868 74.6811 80.943 74.2591 80.5202L74.0688 80.3447C73.0308 79.2961 72.0762 78.1686 71.2138 76.9723C71.159 76.8988 71.1067 76.8276 71.0591 76.7589C70.7784 76.377 70.6118 76.1351 70.6118 76.1351C70.6118 76.1351 70.431 75.9169 70.136 75.592C69.8981 75.3169 69.5912 74.9659 69.2605 74.6102C68.7489 74.0235 68.1825 73.4867 67.5688 73.007C67.6259 72.8695 67.6854 72.7343 67.7401 72.5991C67.7592 72.5564 67.7758 72.5137 67.7949 72.4734C67.8282 72.3928 67.8639 72.3121 67.8948 72.2362C68.2993 71.2876 68.7006 70.3477 69.0987 69.4164C69.7506 67.8986 70.3977 66.3966 71.0401 64.9104L71.3779 64.1349L72.3463 61.9056L72.7174 61.0613L72.9958 60.421C74.0093 58.1158 75.0125 55.8541 76.0054 53.6359L91.5344 39.8806L93.4044 38.9937L95.2055 38.1446L96.495 38.5146L96.6877 38.5668L97.9391 38.9273H97.9558L98.258 39.015L98.8789 39.1929L99.1858 43.2934V43.3289V43.4428L99.7521 44.2539L100.104 44.7637L100.256 44.823L100.901 45.0721L101.096 45.1456L101.168 45.174L101.732 45.3922L103.333 46.0112L103.716 47.197L103.954 47.9606L104.085 48.3709L104.211 48.6698L105.707 53.3418Z" fill="black"/>
<path d="M106.04 53.0335L81.2087 82.6997L79.0675 85.2539L79.0461 85.1922C78.8185 84.5659 78.5367 83.9604 78.2038 83.3827C78.1443 83.2784 78.0777 83.1716 78.0111 83.0673C77.695 82.5468 77.2974 82.08 76.8334 81.6847C76.743 81.6135 76.6526 81.5471 76.5598 81.4878C76.4909 81.4411 76.4194 81.3984 76.3457 81.3597C76.2511 81.3099 76.1533 81.2664 76.053 81.2293C75.4889 80.9706 74.9769 80.6113 74.5423 80.1692L74.3495 79.9913C73.6391 79.2836 72.9732 78.5327 72.3558 77.7431C72.0251 77.3233 71.7324 76.9367 71.4969 76.6189L71.3423 76.4055C71.2994 76.3486 71.2614 76.294 71.2257 76.2419C71.0401 75.9857 70.933 75.8292 70.933 75.8292C70.933 75.8292 70.2193 74.9612 69.4175 74.1169C69.414 74.1104 69.4091 74.1048 69.4032 74.1003C68.9897 73.6436 68.5445 73.2164 68.0709 72.822C67.9659 72.7398 67.8546 72.666 67.7378 72.6015C67.7568 72.5588 67.7735 72.5161 67.7925 72.4758C67.8258 72.3951 67.8615 72.3145 67.8924 72.2386C68.2969 71.29 68.6982 70.35 69.0963 69.4188C69.7482 67.901 70.3953 66.399 71.0377 64.9128L71.3756 64.1373L72.3439 61.908L72.715 61.0637L72.9934 60.4234C74.0069 58.1182 75.0102 55.8565 76.0031 53.6382C76.0045 53.6304 76.0045 53.6224 76.0031 53.6145L91.8603 39.5652L93.4615 38.8063L95.5314 37.8269L96.771 38.1826L96.9637 38.2371L97.9749 38.5288L98.2128 38.5952L98.4935 38.6759L99.2073 38.8822L99.5261 43.1321L99.6879 43.3693L99.714 43.4072L99.7473 43.457L100.24 44.1685L100.44 44.4578L101.234 44.7661L102.224 45.1479L103.671 45.7076L104.165 47.2515L104.254 47.5266L104.382 47.9251L104.444 48.1195L104.484 48.2405L106.04 53.0335Z" fill="#E7EFFD"/>
<path opacity="0.1" d="M102.341 47.0974C102.341 47.0974 99.2143 47.2468 98.8764 47.6097C98.5386 47.9725 97.7273 48.8263 97.7273 48.8263L96.4996 52.0232C96.4996 52.0232 94.2489 55.2367 93.6636 55.7774C93.0784 56.3181 88.9053 61.9767 88.9053 61.9767L82.1769 70.3556L73.3073 81.2791L69.3174 82.1732L69.1699 79.0024L85.2223 59.7925L88.3557 55.9719C88.3557 55.9719 94.3369 49.469 95.0174 48.8571C95.6978 48.2452 97.7297 46.9243 97.7297 46.9243C97.7297 46.9243 99.0668 45.027 98.0627 43.1534C97.0587 41.2799 98.2483 43.189 98.2483 43.189L99.7472 43.4072L100.137 44.4412C100.137 44.4412 102.707 45.9329 102.341 47.0974Z" fill="black"/>
<path d="M102.662 47.1092C102.662 47.1092 99.5356 47.2587 99.1978 47.6215C98.8599 47.9844 98.0486 48.8381 98.0486 48.8381L96.8352 52.035C96.8352 52.035 94.5726 55.2485 93.9802 55.7845C93.3878 56.3205 89.2219 61.9862 89.2219 61.9862L82.4959 70.3627L73.6263 81.2886L69.6364 82.1803L69.4937 79.0261L85.5436 59.8162L88.6794 55.9932C88.6794 55.9932 94.6607 49.4903 95.3292 48.8785C95.9978 48.2666 98.0415 46.9456 98.0415 46.9456C98.0415 46.9456 99.3786 45.0483 98.3746 43.1772C97.3706 41.306 98.5625 43.2104 98.5625 43.2104L100.061 43.4285L100.452 44.4626C100.452 44.4626 103.021 45.9448 102.662 47.1092Z" fill="#B99750"/>
<path opacity="0.1" d="M106.497 45.3804C106.497 45.3804 106.535 45.7574 105.472 46.8436C104.408 47.9298 102.617 51.0247 102.617 51.0247C102.617 51.0247 101.939 46.2816 100.373 45.0389L106.497 45.3804Z" fill="black"/>
<path d="M106.828 45.0721C106.828 45.0721 106.868 45.4491 105.805 46.533C104.741 47.6168 102.95 50.7164 102.95 50.7164C102.95 50.7164 102.272 45.9733 100.704 44.7282L106.828 45.0721Z" fill="#E7EFFD"/>
<path opacity="0.1" d="M100.052 36.6577L100.271 44.9274C100.271 44.9274 94.4179 43.2009 93.3949 43.2151C92.3718 43.2293 97.9344 37.1675 97.9344 37.1675L100.052 36.6577Z" fill="black"/>
<path d="M100.233 36.181L100.451 44.4507C100.451 44.4507 94.5987 42.7242 93.5756 42.7384C92.5526 42.7526 98.1127 36.6909 98.1127 36.6909L100.233 36.181Z" fill="#E7EFFD"/>
<path opacity="0.1" d="M106.352 45.212C106.352 45.212 107.066 45.4823 106.783 46.6349C106.5 47.7875 106.99 48.9757 106.99 48.9757C106.99 48.9757 110.882 54.7837 110.392 55.5972L112.447 58.0897C112.447 58.0897 113.111 59.0265 111.432 60.7317C109.752 62.4368 110.004 63.0368 110.004 63.0368C110.004 63.0368 109.178 65.6076 108.208 66.3571C107.237 67.1065 107.568 68.3445 107.568 68.3445L95.2698 73.2371C95.2698 73.2371 91.4083 76.5573 90.6494 78.4569C89.8904 80.3566 84.9393 87.1441 84.9393 87.1441C84.9393 87.1441 84.5848 86.5393 84.2755 86.8761C83.9662 87.2128 80.8543 91.171 80.8543 91.171C80.8543 91.171 79.56 92.677 79.3149 93.4169C79.0699 94.1568 76.4742 96.6091 76.4742 96.6091L74.992 98.8028C74.992 98.8028 71.6373 99.9364 70.4715 98.013C69.3057 96.0897 72.9126 87.3267 72.9126 87.3267L78.0183 79.1542L83.4262 71.4773L87.6135 66.8361L97.1303 56.8209L102.924 49.6682C102.924 49.6682 105.505 45.2618 106.352 45.212Z" fill="black"/>
<path d="M106.828 45.0721C106.828 45.0721 107.542 45.34 107.258 46.4832C106.975 47.6263 107.463 48.8239 107.463 48.8239C107.463 48.8239 111.358 54.6319 110.868 55.4454L112.923 57.9379C112.923 57.9379 113.587 58.8747 111.907 60.5799C110.228 62.2851 110.48 62.8851 110.48 62.8851C110.48 62.8851 109.654 65.4559 108.684 66.2053C107.713 66.9547 108.044 68.1927 108.044 68.1927L95.7409 73.0758C95.7409 73.0758 91.8985 76.4174 91.1252 78.3146C90.352 80.2119 85.4152 86.9994 85.4152 86.9994C85.4152 86.9994 85.0607 86.3946 84.7514 86.7314C84.4421 87.0682 81.3301 91.0263 81.3301 91.0263C81.3301 91.0263 80.0359 92.5323 79.7908 93.2746C79.5458 94.0169 76.9501 96.4644 76.9501 96.4644L75.4655 98.6605C75.4655 98.6605 72.1132 99.7917 70.945 97.8684C69.7768 95.945 73.4027 87.182 73.4027 87.182L78.5156 79.0119L83.9235 71.335L88.1037 66.6938L97.6204 56.6786L103.414 49.5259C103.414 49.5259 105.995 45.1124 106.828 45.0721Z" fill="#65617D"/>
<path opacity="0.1" d="M101.832 82.8562L102.212 85.5005C102.212 85.5005 104.425 88.0381 106.495 89.3994L107.73 89.9283L107.967 90.035L107.73 89.9046C106.59 89.2287 105.919 88.4982 105.588 87.7512C104.239 84.7582 108.253 81.5186 109.193 80.819C109.286 80.7479 109.345 80.7028 109.371 80.6862H109.383H109.347C109.269 80.7025 109.189 80.7128 109.109 80.717C109.042 80.7206 108.975 80.7206 108.907 80.717L106.533 81.3977L106.457 81.4522L101.832 82.8562Z" fill="black"/>
<path d="M107.542 67.199L108.044 68.1832L106.557 69.7627C106.557 69.7627 107.546 70.55 106.692 71.8046C105.838 73.0592 105.74 73.9675 105.74 73.9675C105.74 73.9675 105.878 76.683 104.867 77.762L105.162 79.2633C105.162 79.2633 107.706 80.9969 109.062 80.6744C109.062 80.6744 100.935 86.3164 107.651 90.0326C107.651 90.0326 99.4761 86.4753 98.848 86.5322C98.2199 86.5891 95.46 85.7306 94.8033 83.238C94.1467 80.7455 95.1769 79.1233 95.1769 79.1233C95.1769 79.1233 95.9406 75.4236 96.2237 75.0584C96.5068 74.6932 95.7336 73.0829 95.7336 73.0829L99.3167 65.3349L107.542 67.199Z" fill="#65617D"/>
<path opacity="0.1" d="M100.23 36.1833V36.1976L99.8829 36.6932L98.5006 38.6735L98.2627 39.0103L97.92 39.5059L97.311 40.3882L94.7438 42.921L94.3156 43.3432L90.2258 47.3749L81.1991 56.2873L74.6231 60.0818C74.6231 60.0818 73.6833 60.5562 72.7197 61.0542L72.9981 60.4139C74.0116 58.1087 75.0148 55.847 76.0078 53.6287C76.0091 53.6209 76.0091 53.6129 76.0078 53.605C79.7883 45.1645 83.4094 37.3928 86.7141 30.5864C86.7696 30.611 86.823 30.6404 86.8735 30.6741C87.6182 31.1698 88.4985 31.6678 88.8339 31.8599L88.9743 31.9382C89.1186 32.1686 89.2776 32.3896 89.4501 32.5999C89.7238 32.9295 90.064 33.2521 90.3447 33.2521C90.911 33.2521 93.5899 34.9572 93.9777 35.3865C94.155 35.5495 94.3545 35.6868 94.5702 35.7944C95.1959 36.143 96.0334 36.4869 96.0334 36.4869L97.989 36.8166L98.0652 36.8308H98.089C98.6148 36.8996 99.7544 36.4039 100.104 36.2379L100.204 36.1928L100.23 36.1833Z" fill="black"/>
<path d="M100.235 36.1833L99.8021 36.7003L98.2318 38.5715L97.9772 38.8775L97.9582 38.8941L97.0065 40.0301L94.2086 42.7906L93.7708 43.2222L90.6303 46.3219L80.8947 55.9316L74.3186 59.7261L73.0125 60.3925C74.026 58.0873 75.0292 55.8256 76.0221 53.6074C76.0235 53.5996 76.0235 53.5915 76.0221 53.5837C79.8026 45.1432 83.4238 37.3715 86.7284 30.565C86.7475 30.5271 86.7641 30.4892 86.7832 30.4536C87.6801 31.0346 88.6865 31.5801 88.6865 31.5801C88.6865 31.5801 88.7508 31.6868 88.8554 31.8362C89.0381 32.1022 89.2461 32.35 89.4764 32.5762C89.6279 32.7475 89.8352 32.86 90.0617 32.8939C90.6279 32.8939 93.3069 34.5991 93.6947 35.0284C93.9798 35.2738 94.3007 35.4745 94.6464 35.6236C95.1936 35.8987 95.7503 36.1264 95.7503 36.1264L97.7798 36.4727C98.3175 36.5628 99.7997 36.2592 100.159 36.181C100.179 36.183 100.199 36.183 100.218 36.181H100.233L100.235 36.1833Z" fill="#65617D"/>
<path opacity="0.1" d="M61.3402 88.816L61.1023 88.5599L61.138 88.4769C61.1974 88.5945 61.2649 88.7078 61.3402 88.816Z" fill="black"/>
<path opacity="0.1" d="M60.8547 91.5955L58.8752 94.1189C59.2178 93.2604 59.5644 92.3955 59.9149 91.5244L60.8547 91.5955Z" fill="black"/>
<path d="M70.481 75.3928L70.2835 75.5067L70.136 75.592L67.0812 77.366L67.0502 77.3304L66.1652 76.3438L66.0676 76.2371L66.2484 76.1446L69.2605 74.6221L69.4532 74.5248L69.6626 74.4205C69.9362 74.7406 70.2074 75.0655 70.481 75.3928Z" fill="#3F3D56"/>
<path opacity="0.1" d="M109.538 61.3744C109.538 61.3744 107.844 60.6629 106.804 61.1087C105.764 61.5546 109.538 61.3744 109.538 61.3744Z" fill="black"/>
<path opacity="0.1" d="M104.686 72.8813C104.686 72.8813 104.163 76.6759 102.655 76.7185C101.146 76.7612 104.686 72.8813 104.686 72.8813Z" fill="black"/>
<path opacity="0.1" d="M73.7571 71.0528C73.769 70.7303 75.8983 61.64 74.566 61.2131L73.7571 71.0528Z" fill="black"/>
<path opacity="0.1" d="M104.087 29.7302C102.993 30.739 102.166 32.0018 101.679 33.4062L101.734 33.4489C102.21 33.7857 102.907 33.5509 103.511 33.5888C103.882 33.6126 104.236 33.7514 104.523 33.9857C104.811 34.22 105.018 34.5382 105.115 34.8956C105.195 35.2738 105.168 35.6668 105.036 36.0305C104.905 36.3942 104.674 36.714 104.37 36.9541C105.46 36.3399 106.347 35.3983 107.434 34.7794C108.522 34.1604 110.006 33.9446 110.815 34.7794C111.163 35.1398 111.417 35.6995 111.941 35.7114C112.255 35.7114 112.55 35.5098 112.864 35.441C114.417 35.1375 115.64 37.4545 115.835 38.6806C116.028 39.8664 116.04 41.5265 116.478 42.876C117.344 42.065 118.041 41.0918 118.53 40.0121C119.019 38.9324 119.29 37.7673 119.327 36.5833C119.365 35.3993 119.168 34.2195 118.747 33.1114C118.327 32.0033 117.692 30.9886 116.879 30.1251C116.065 29.2616 115.089 28.5664 114.006 28.079C112.922 27.5916 111.754 27.3216 110.566 27.2845C109.378 27.2474 108.194 27.4439 107.083 27.8627C105.971 28.2815 104.953 28.9145 104.087 29.7255V29.7302Z" fill="black"/>
<path d="M113.03 35.2916C112.716 35.358 112.424 35.5691 112.107 35.562C111.586 35.562 111.329 34.9904 110.982 34.6299C110.175 33.7904 108.691 34.0038 107.603 34.6299C106.516 35.256 105.629 36.1928 104.537 36.8071C104.841 36.5677 105.073 36.2479 105.204 35.884C105.336 35.5201 105.363 35.1267 105.281 34.7485C105.184 34.3911 104.977 34.073 104.69 33.8387C104.402 33.6043 104.048 33.4655 103.678 33.4418C103.073 33.4038 102.381 33.6386 101.903 33.2995C101.425 32.9603 101.453 32.1848 101.755 31.6251C102.057 31.0654 102.555 30.6243 102.921 30.1002C103.616 29.1089 103.804 27.8851 104.349 26.8084C105.009 25.5071 106.127 24.4939 107.489 23.9625C108.203 23.6874 108.969 23.5617 109.687 23.289C110.78 22.8764 111.755 22.1317 112.876 21.8234C114.75 21.3064 116.818 22.2645 117.517 23.972C117.853 24.7855 117.898 25.7175 118.269 26.5144C118.769 27.5816 119.785 28.2765 120.694 29.0164C121.602 29.7563 122.487 30.6765 122.561 31.8884C122.647 33.2734 121.633 34.6086 121.61 36.0031C121.61 36.5889 121.769 37.1509 121.798 37.732C121.826 38.313 121.681 38.9747 121.198 39.3494C120.575 39.8356 119.533 39.755 119.185 40.4569C119.099 40.6751 119.057 40.908 119.061 41.1423C118.987 42.3641 118.628 43.5518 118.015 44.612C116.166 43.5542 116.316 40.4214 116.011 38.5407C115.807 37.3051 114.586 34.9881 113.03 35.2916Z" fill="#7C5C5C"/>
<path opacity="0.1" d="M102.329 65.8851C102.329 65.8851 95.9667 71.7572 95.843 72.8789C95.7193 74.0007 102.329 65.8851 102.329 65.8851Z" fill="black"/>
<g opacity="0.1">
<path d="M119.644 39.8617C119.977 39.1763 120.986 39.2356 121.612 38.785C121.521 39.0024 121.376 39.1932 121.191 39.3399C120.734 39.6957 120.051 39.7502 119.583 40.0277C119.597 39.9704 119.618 39.9148 119.644 39.8617Z" fill="black"/>
<path d="M105.06 36.1786C106.124 35.5667 107.001 34.6465 108.07 34.0442C109.138 33.4418 110.642 33.2094 111.448 34.0442C111.796 34.4046 112.052 34.9643 112.574 34.9762C112.89 34.9762 113.183 34.7722 113.497 34.7058C115.053 34.4023 116.273 36.7193 116.471 37.9454C116.768 39.7834 116.632 42.8096 118.348 43.9361C118.243 44.1732 118.134 44.3843 118.008 44.6025C116.159 43.5448 116.309 40.4119 116.004 38.5312C115.807 37.3051 114.577 34.9881 113.03 35.2916C112.716 35.358 112.424 35.5691 112.107 35.562C111.586 35.562 111.329 34.9904 110.982 34.6299C110.175 33.7904 108.691 34.0038 107.603 34.6299C106.516 35.256 105.629 36.1928 104.537 36.8071C104.751 36.634 104.929 36.4204 105.06 36.1786Z" fill="black"/>
<path d="M102.222 31.0322C101.919 31.5919 101.881 32.3627 102.369 32.7066C102.857 33.0505 103.54 32.8109 104.144 32.8489C104.515 32.8729 104.869 33.0117 105.157 33.2459C105.445 33.4802 105.652 33.7982 105.75 34.1556C105.826 34.5157 105.804 34.8893 105.687 35.2382C105.57 35.5871 105.362 35.8986 105.084 36.1406C105.32 35.7144 105.39 35.2162 105.281 34.7414C105.184 34.384 104.977 34.0659 104.69 33.8315C104.402 33.5972 104.048 33.4584 103.678 33.4347C103.073 33.3967 102.381 33.6315 101.903 33.2924C101.425 32.9532 101.453 32.1777 101.755 31.618C101.942 31.2975 102.163 30.9978 102.414 30.7239C102.344 30.823 102.28 30.9259 102.222 31.0322Z" fill="black"/>
<path d="M104.808 26.2156C104.27 27.2923 104.094 28.516 103.38 29.5073C103.24 29.7089 103.081 29.8963 102.921 30.0836C103.611 29.0947 103.799 27.8733 104.334 26.8013C104.577 26.3187 104.886 25.8724 105.253 25.4756C105.085 25.7103 104.936 25.9577 104.808 26.2156Z" fill="black"/>
</g>
<path d="M122.007 85.0831C122.058 85.0831 122.1 85.0417 122.1 84.9906C122.1 84.9396 122.058 84.8982 122.007 84.8982C121.956 84.8982 121.914 84.9396 121.914 84.9906C121.914 85.0417 121.956 85.0831 122.007 85.0831Z" fill="#E6E8EC"/>
<path d="M194.924 180.234C194.981 183.08 171.335 179.693 172.22 177.388L172.096 177.423C169.117 178.097 153.379 172.616 154.642 170.119C141.733 158.612 135.901 148.277 147.462 125.066C147.514 124.913 147.544 124.753 147.552 124.591C147.552 124.535 147.574 124.478 147.583 124.423C147.624 124.219 147.662 124.015 147.702 123.811C147.702 123.778 147.714 123.747 147.721 123.716C147.728 123.686 147.743 123.617 147.752 123.567C148.085 121.855 148.456 120.135 148.863 118.409C150.878 109.665 153.726 101.134 157.369 92.9307C157.445 92.7671 157.516 92.6035 157.592 92.4422C157.635 92.345 157.68 92.2477 157.726 92.1529L158.018 91.5173C158.03 91.4888 158.044 91.4627 158.056 91.4343C158.104 91.3394 158.147 91.2445 158.192 91.152C161.194 84.7488 164.554 79.1281 168.087 74.5106C166.422 73.562 161.037 66.3191 162.377 60.6083C163.804 54.5466 171.611 52.2319 173.547 52.6801C175.484 53.1283 175.903 58.4099 174.485 64.4717C174.158 65.8875 173.737 67.2803 173.226 68.6409C179.412 62.5364 185.888 59.6146 191.807 60.9878C196.718 62.1285 200.656 66.0891 203.482 72.0892C203.539 71.8117 203.603 71.5319 203.668 71.2497C205.095 65.1879 207.8 60.6368 209.739 61.085C211.678 61.5333 218.204 68.2354 216.786 74.2972C215.847 78.3289 208.221 80.2593 206.742 81.9313C209.654 94.9371 210.453 114.114 212.502 133.279C215.219 158.752 210.515 172.362 194.924 180.234Z" fill="#B99750"/>
<path opacity="0.2" d="M191.698 95.8122C190.623 100.408 184.423 102.963 177.406 101.94C176.797 101.852 176.184 101.736 175.567 101.594C175.06 101.476 174.564 101.342 174.08 101.193C167.154 99.0755 162.572 93.9671 163.664 89.2998C164.483 85.7899 168.299 83.4681 173.181 83.0246C174.242 82.933 175.309 82.9259 176.371 83.0033C177.524 83.0892 178.668 83.2661 179.793 83.5321C187.534 85.3179 192.864 90.82 191.698 95.8122Z" fill="black"/>
<path d="M188.583 98.6506C189.315 95.5203 186.146 92.1085 181.504 91.0301C176.863 89.9518 172.507 91.6152 171.775 94.7456C171.043 97.8759 174.212 101.288 178.854 102.366C183.495 103.444 187.851 101.781 188.583 98.6506Z" fill="#3F3D56"/>
<path d="M175.551 85.9037C174.511 88.382 173.809 87.7512 172.933 87.3907C172.058 87.0302 171.356 87.0682 172.398 84.5898C172.624 84.0511 172.885 83.5275 173.179 83.0222C174.24 82.9307 175.307 82.9235 176.369 83.0009C176.226 84.0002 175.951 84.9763 175.551 85.9037Z" fill="white"/>
<path d="M177.406 101.94C176.797 101.852 176.184 101.736 175.567 101.594C175.06 101.476 174.564 101.342 174.08 101.193C174.639 98.6439 175.529 98.4399 176.431 98.6249C177.332 98.8099 177.922 99.3482 177.406 101.94Z" fill="white"/>
<path opacity="0.2" d="M182.284 78.1178C185.194 78.1178 187.553 75.7659 187.553 72.8647C187.553 69.9635 185.194 67.6116 182.284 67.6116C179.373 67.6116 177.014 69.9635 177.014 72.8647C177.014 75.7659 179.373 78.1178 182.284 78.1178Z" fill="black"/>
<path opacity="0.1" d="M171.073 63.8893C171.58 61.7195 171.038 59.739 169.862 59.4658C168.686 59.1926 167.321 60.7301 166.814 62.8999C166.307 65.0697 166.849 67.0501 168.025 67.3234C169.201 67.5966 170.565 66.0591 171.073 63.8893Z" fill="black"/>
<path opacity="0.12" d="M211.105 72.8956C212.454 71.1198 212.768 69.0909 211.806 68.364C210.843 67.6371 208.969 68.4874 207.619 70.2632C206.269 72.039 205.955 74.0678 206.918 74.7948C207.88 75.5217 209.755 74.6714 211.105 72.8956Z" fill="black"/>
<path d="M182.486 70.282C182.39 70.2597 182.293 70.2431 182.196 70.2322C182.324 70.5222 182.354 70.8462 182.281 71.1548C182.216 71.4356 182.069 71.691 181.859 71.8894C181.649 72.0878 181.386 72.2205 181.101 72.271C180.816 72.3215 180.523 72.2876 180.257 72.1735C179.992 72.0594 179.766 71.8701 179.607 71.6291C179.516 71.8094 179.447 71.9996 179.4 72.1959C179.285 72.689 179.32 73.2049 179.499 73.6786C179.678 74.1522 179.994 74.5623 180.407 74.8571C180.819 75.1519 181.311 75.3181 181.818 75.3349C182.326 75.3516 182.827 75.218 183.258 74.9511C183.69 74.6841 184.032 74.2957 184.242 73.8349C184.452 73.3741 184.521 72.8615 184.439 72.362C184.357 71.8624 184.128 71.3982 183.782 71.028C183.436 70.6578 182.987 70.3983 182.493 70.282H182.486Z" fill="#3F3D56"/>
<path opacity="0.2" d="M174.953 79.7376C174.735 80.6744 174.459 80.3589 174.049 80.2641C173.64 80.1692 173.255 80.3305 173.474 79.3937C173.692 78.4569 174.844 76.8703 174.844 76.8703C174.844 76.8703 175.172 78.8008 174.953 79.7376Z" fill="black"/>
<path opacity="0.2" d="M185.029 65.1736C184.81 66.1223 184.534 65.795 184.125 65.7001C183.716 65.6053 183.33 65.7665 183.549 64.8298C183.768 63.893 184.92 62.3064 184.92 62.3064C184.92 62.3064 185.248 64.2345 185.029 65.1736Z" fill="black"/>
<path opacity="0.2" d="M194.382 71.3184C194.163 72.2552 193.887 71.9398 193.478 71.8449C193.068 71.7501 192.683 71.9113 192.902 70.9745C193.121 70.0378 194.272 68.4512 194.272 68.4512C194.272 68.4512 194.598 70.3817 194.382 71.3184Z" fill="black"/>
<path opacity="0.2" d="M196.965 79.9439C196.747 80.8807 196.473 80.5653 196.064 80.4704C195.655 80.3755 195.269 80.5368 195.488 79.6C195.707 78.6632 196.856 77.0767 196.856 77.0767C196.856 77.0767 197.187 79.0048 196.965 79.9439Z" fill="black"/>
<path opacity="0.2" d="M172.22 176.89L172.096 177.414C169.117 178.087 153.379 172.607 154.642 170.109L172.22 176.89Z" fill="black"/>
<path opacity="0.2" d="M172.22 177.378L172.096 177.414L172.22 176.89C176.74 175.573 194.924 180.234 194.924 180.234C194.981 183.07 171.335 179.693 172.22 177.378Z" fill="black"/>
<g opacity="0.1">
<path d="M174.635 97.7119C173.431 103.107 168.427 110.189 161.002 116.277C156.932 119.597 152.42 122.339 147.595 124.425C147.64 124.188 147.688 123.951 147.733 123.714C148.076 121.954 148.456 120.185 148.875 118.406C150.89 109.663 153.738 101.132 157.381 92.9284C157.457 92.7647 157.528 92.6011 157.604 92.4398C157.647 92.3426 157.692 92.2453 157.738 92.1505C162.696 89.8263 167.231 88.8919 170.407 89.6176C171.485 89.8337 172.483 90.3416 173.29 91.0856C173.431 91.219 173.562 91.3608 173.685 91.5101C174.391 92.405 174.806 93.4929 174.875 94.6288C174.954 95.6627 174.873 96.7025 174.635 97.7119Z" fill="black"/>
</g>
<g opacity="0.1">
<path d="M174.24 97.0952C173.036 102.491 168.032 109.572 160.604 115.66C156.693 118.853 152.372 121.512 147.757 123.569C148.09 121.857 148.46 120.138 148.868 118.411C150.883 109.668 153.731 101.136 157.373 92.9331C157.45 92.7695 157.521 92.6058 157.597 92.4446C157.64 92.3473 157.685 92.2501 157.73 92.1552L158.023 91.5196L158.197 91.1544C162.822 89.1148 167.023 88.3227 170.014 89.0057C171.093 89.2221 172.091 89.7309 172.898 90.4761C173.038 90.6087 173.17 90.7497 173.293 90.8983C174.003 91.7923 174.423 92.8811 174.496 94.0193C174.569 95.0517 174.483 96.0891 174.24 97.0952Z" fill="black"/>
</g>
<path d="M174.18 97.3466C172.969 102.742 167.973 109.824 160.547 115.911C156.635 119.102 152.315 121.759 147.7 123.814C147.7 123.78 147.712 123.75 147.719 123.719C147.726 123.688 147.74 123.619 147.75 123.569C148.083 121.857 148.453 120.138 148.861 118.411C150.875 109.668 153.724 101.136 157.366 92.9331C157.442 92.7695 157.514 92.6058 157.59 92.4446C157.633 92.3473 157.678 92.2501 157.723 92.1552L158.016 91.5196C158.028 91.4912 158.042 91.4651 158.054 91.4366C162.71 89.371 166.94 88.567 169.95 89.2548C171.028 89.4727 172.025 89.9813 172.833 90.7251C172.974 90.858 173.106 90.9998 173.228 91.1497C173.934 92.0443 174.349 93.1323 174.418 94.2683C174.497 95.3005 174.417 96.3387 174.18 97.3466Z" fill="#B99750"/>
<path opacity="0.1" d="M194.392 150.765C197.639 136.876 189.382 123.087 175.95 119.966C162.517 116.845 148.995 125.574 145.747 139.463C142.5 153.352 150.756 167.141 164.189 170.262C177.622 173.383 191.144 164.654 194.392 150.765Z" fill="black"/>
<path d="M194.276 151.264C197.524 137.375 189.267 123.586 175.834 120.466C162.401 117.345 148.879 126.074 145.631 139.963C142.384 153.851 150.641 167.64 164.074 170.761C177.507 173.882 191.029 165.153 194.276 151.264Z" fill="#B99750"/>
<path d="M172.017 138.712C171.969 138.919 171.88 139.115 171.756 139.288C171.631 139.461 171.474 139.608 171.293 139.72C170.927 139.947 170.485 140.02 170.065 139.923C169.645 139.825 169.282 139.565 169.054 139.2C168.826 138.835 168.753 138.395 168.851 137.977C169.055 137.104 169.66 137.713 170.533 137.915C171.406 138.117 172.215 137.842 172.017 138.712Z" fill="#65617D"/>
<g opacity="0.1">
<path d="M189.385 61.2178C194.294 62.3586 198.234 66.3191 201.06 72.3169C201.117 72.0418 201.179 71.7619 201.246 71.4797C201.417 70.7445 201.61 70.033 201.814 69.3453C199.142 64.8511 195.697 61.8914 191.562 60.9309C189.638 60.4967 187.641 60.487 185.712 60.9024C186.945 60.8335 188.182 60.9397 189.385 61.2178Z" fill="black"/>
<path d="M212.252 133.224C210.203 114.059 209.397 94.8825 206.492 81.8767C207.972 80.2166 215.597 78.2672 216.537 74.2426C217.964 68.1808 211.424 61.4811 209.49 61.0305C209.014 60.919 208.471 61.1182 207.924 61.5759C210.337 62.942 215.652 68.9966 214.367 74.5201C213.415 78.5518 205.802 80.4823 204.322 82.1542C207.229 95.1671 208.026 114.344 210.084 133.509C212.806 158.979 208.103 172.588 192.512 180.466C192.512 180.812 192.169 181.066 191.56 181.242C193.463 181.156 194.71 180.834 194.696 180.182C210.27 172.305 214.974 158.695 212.252 133.224Z" fill="black"/>
<path d="M171.118 52.9102C173.055 53.3584 173.473 58.6375 172.058 64.7017C171.73 66.1175 171.309 67.5103 170.797 68.871C171.78 67.9033 172.768 67.0172 173.761 66.2124C173.93 65.6314 174.09 65.0266 174.237 64.4195C175.665 58.3553 175.234 53.0762 173.3 52.6256C172.791 52.507 171.872 52.5829 170.775 52.8627C170.891 52.8685 171.005 52.8843 171.118 52.9102Z" fill="black"/>
</g>
<g opacity="0.1">
<path d="M208.34 139.051C202.737 141.577 191.484 130.599 185.66 117.771C181.698 109.039 180.349 100.482 181.663 95.1126C181.892 94.1029 182.276 93.1343 182.8 92.2406C183.37 91.252 184.229 90.4603 185.262 89.971C185.439 89.8907 185.62 89.8218 185.805 89.7647C186.859 89.4536 187.98 89.4371 189.043 89.7172C194.463 90.9979 201.303 98.383 205.947 108.621C211.769 121.447 213.943 136.523 208.34 139.051Z" fill="black"/>
<g opacity="0.1">
<path d="M187.72 99.4953C187.092 100.069 184.865 98.6676 182.724 96.36C182.338 95.9426 181.984 95.5229 181.663 95.1126C181.892 94.1029 182.276 93.1343 182.8 92.2406C183.586 92.8593 184.32 93.5415 184.993 94.2802C187.12 96.5759 188.336 98.919 187.72 99.4953Z" fill="black"/>
<path d="M189.043 89.7172C189.593 90.1979 190.117 90.7077 190.613 91.2445C192.74 93.5497 193.944 95.8833 193.325 96.462C192.707 97.0407 190.47 95.6367 188.343 93.3291C187.154 92.0509 186.261 90.7631 185.805 89.7718L189.043 89.7172Z" fill="black"/>
</g>
</g>
<g opacity="0.1">
<path d="M209.076 138.169C203.473 140.697 192.219 129.716 186.395 116.891C182.431 108.156 181.082 99.5996 182.396 94.2304C182.626 93.2205 183.01 92.2519 183.535 91.3584C184.105 90.3692 184.964 89.5773 185.998 89.0888C186.174 89.0103 186.354 88.9422 186.538 88.8848C187.593 88.5713 188.714 88.5549 189.778 88.8374C195.196 90.1156 202.036 97.5032 206.682 107.739C212.504 120.564 214.676 135.641 209.076 138.169Z" fill="black"/>
</g>
<path d="M208.707 138.61C203.106 141.138 191.85 130.158 186.028 117.33C182.065 108.597 180.716 100.041 182.029 94.6715C182.259 93.6616 182.644 92.693 183.169 91.7995C183.737 90.8105 184.596 90.0186 185.629 89.5299C185.805 89.4507 185.987 89.3818 186.171 89.3235C187.226 89.0124 188.346 88.996 189.409 89.2761C194.829 90.5568 201.669 97.9443 206.316 108.18C212.135 121.003 214.31 136.082 208.707 138.61Z" fill="#B99750"/>
<path d="M247.752 145.599C247.752 145.599 249.093 147.347 247.133 149.989C245.173 152.631 243.564 154.86 244.207 156.508C244.207 156.508 247.166 151.601 249.576 151.528C251.987 151.454 250.402 148.549 247.752 145.599Z" fill="#B99750"/>
<path opacity="0.1" d="M247.752 145.599C247.87 145.767 247.962 145.952 248.025 146.147C250.376 148.9 251.63 151.469 249.369 151.533C247.264 151.592 244.74 155.344 244.135 156.292C244.157 156.364 244.18 156.437 244.207 156.508C244.207 156.508 247.166 151.601 249.576 151.528C251.987 151.454 250.402 148.549 247.752 145.599Z" fill="black"/>
<path d="M250.248 147.828C250.248 148.445 250.179 148.943 250.093 148.943C250.007 148.943 249.938 148.445 249.938 147.828C249.938 147.212 250.024 147.503 250.11 147.503C250.195 147.503 250.248 147.212 250.248 147.828Z" fill="#FFD037"/>
<path d="M251.104 148.563C250.561 148.858 250.088 149.038 250.047 148.962C250.007 148.886 250.411 148.587 250.954 148.293C251.496 147.999 251.285 148.212 251.325 148.293C251.366 148.374 251.646 148.277 251.104 148.563Z" fill="#FFD037"/>
<path d="M240.662 145.599C240.662 145.599 239.32 147.347 241.283 149.989C243.245 152.631 244.851 154.86 244.207 156.508C244.207 156.508 241.247 151.601 238.839 151.528C236.432 151.454 238.014 148.549 240.662 145.599Z" fill="#B99750"/>
<path opacity="0.1" d="M240.662 145.599C240.545 145.768 240.453 145.952 240.388 146.147C238.037 148.9 236.786 151.469 239.046 151.533C241.149 151.592 243.674 155.344 244.28 156.292C244.261 156.366 244.237 156.438 244.209 156.508C244.209 156.508 241.249 151.601 238.842 151.528C236.434 151.454 238.014 148.549 240.662 145.599Z" fill="black"/>
<path d="M238.159 147.828C238.159 148.445 238.228 148.943 238.313 148.943C238.399 148.943 238.468 148.445 238.468 147.828C238.468 147.212 238.382 147.503 238.297 147.503C238.211 147.503 238.159 147.212 238.159 147.828Z" fill="#FFD037"/>
<path d="M237.312 148.563C237.854 148.858 238.328 149.038 238.368 148.962C238.409 148.886 238.002 148.587 237.459 148.293C236.917 147.999 237.131 148.212 237.09 148.293C237.05 148.374 236.769 148.277 237.312 148.563Z" fill="#FFD037"/>
<path opacity="0.1" d="M244.209 169.891C251.959 169.891 258.241 168.93 258.241 167.745C258.241 166.56 251.959 165.599 244.209 165.599C236.459 165.599 230.177 166.56 230.177 167.745C230.177 168.93 236.459 169.891 244.209 169.891Z" fill="#B99750"/>
<path d="M251.43 154.149L251.363 154.696L251.268 155.467L251.23 155.79L251.135 156.56L251.094 156.883L251.002 157.654L249.926 166.429C249.831 167.214 248.546 167.823 246.997 167.823H241.418C239.867 167.823 238.585 167.214 238.49 166.429L237.414 157.654L237.319 156.883L237.281 156.56L237.186 155.79L237.145 155.467L237.052 154.696L236.983 154.149C236.931 153.705 237.626 153.333 238.501 153.333H249.921C250.79 153.333 251.482 153.705 251.43 154.149Z" fill="#65617D"/>
<path d="M251.363 154.696L251.271 155.467H237.148L237.052 154.696H251.363Z" fill="#9D9CB5"/>
<path d="M251.23 155.79L251.137 156.56H237.281L237.186 155.79H251.23Z" fill="#9D9CB5"/>
<path d="M251.094 156.883L251.002 157.654H237.414L237.321 156.883H251.094Z" fill="#9D9CB5"/>
<path d="M83.0358 161.972C83.0358 161.972 84.9154 164.422 82.1674 168.122C79.4195 171.822 77.1545 174.945 78.0705 177.253C78.0705 177.253 82.2174 170.375 85.5911 170.285C88.9648 170.195 86.7355 166.104 83.0358 161.972Z" fill="#B99750"/>
<path opacity="0.1" d="M83.036 161.972C83.1998 162.209 83.3295 162.468 83.4214 162.741C86.7118 166.597 88.4677 170.195 85.301 170.285C82.3532 170.37 78.8177 175.623 77.9707 176.951C77.9993 177.053 78.0326 177.153 78.0706 177.253C78.0706 177.253 82.2175 170.375 85.5912 170.285C88.9649 170.195 86.7356 166.104 83.036 161.972Z" fill="black"/>
<path d="M86.519 165.096C86.519 165.959 86.4214 166.656 86.3024 166.656C86.1835 166.656 86.0859 165.959 86.0859 165.096C86.0859 164.233 86.2073 164.64 86.3239 164.64C86.4404 164.64 86.519 164.233 86.519 165.096Z" fill="#FFD037"/>
<path d="M87.7181 166.125C86.9591 166.538 86.2906 166.787 86.2382 166.682C86.1859 166.578 86.7521 166.158 87.5111 165.734C88.27 165.309 87.9703 165.622 88.0274 165.734C88.0845 165.845 88.477 165.712 87.7181 166.125Z" fill="#FFD037"/>
<path d="M73.0958 161.972C73.0958 161.972 71.2138 164.422 73.9618 168.122C76.7097 171.822 78.9747 174.945 78.0587 177.253C78.0587 177.253 73.9142 170.375 70.5405 170.285C67.1668 170.195 69.3842 166.104 73.0958 161.972Z" fill="#B99750"/>
<path opacity="0.1" d="M73.0958 161.972C72.9305 162.209 72.8006 162.469 72.7103 162.743C69.4175 166.599 67.6641 170.197 70.8284 170.287C73.7762 170.373 77.3141 175.626 78.161 176.954C78.1327 177.056 78.0985 177.157 78.0587 177.255C78.0587 177.255 73.9142 170.377 70.5405 170.287C67.1668 170.197 69.3842 166.104 73.0958 161.972Z" fill="black"/>
<path d="M69.6006 165.096C69.6006 165.959 69.6958 166.656 69.8171 166.656C69.9384 166.656 70.0336 165.959 70.0336 165.096C70.0336 164.233 69.9123 164.64 69.7957 164.64C69.6791 164.64 69.6006 164.233 69.6006 165.096Z" fill="#FFD037"/>
<path d="M68.4016 166.125C69.1605 166.538 69.8291 166.787 69.8791 166.682C69.929 166.578 69.3675 166.158 68.6086 165.734C67.8496 165.309 68.1494 165.622 68.0899 165.734C68.0304 165.845 67.6402 165.712 68.4016 166.125Z" fill="#FFD037"/>
<path opacity="0.1" d="M78.0609 196C88.9158 196 97.7154 194.654 97.7154 192.993C97.7154 191.332 88.9158 189.986 78.0609 189.986C67.2061 189.986 58.4065 191.332 58.4065 192.993C58.4065 194.654 67.2061 196 78.0609 196Z" fill="#B99750"/>
<path d="M88.1774 173.949L88.0822 174.715L87.949 175.796L87.8943 176.247L87.7634 177.328L87.7063 177.779L87.5754 178.858L86.0694 191.15C85.9362 192.246 84.1375 193.102 81.9677 193.102H74.1521C71.9799 193.102 70.186 192.246 70.0504 191.15L68.5444 178.87L68.4135 177.791L68.3588 177.34L68.2232 176.259L68.1684 175.808L68.0376 174.727L67.9424 173.961C67.8687 173.339 68.8394 172.818 70.0694 172.818H86.0528C87.278 172.806 88.2535 173.328 88.1774 173.949Z" fill="#65617D"/>
<path d="M88.0822 174.715L87.9514 175.796H68.1708L68.0376 174.715H88.0822Z" fill="#9D9CB5"/>
<path d="M87.8967 176.247L87.7635 177.328H68.3588L68.2256 176.247H87.8967Z" fill="#9D9CB5"/>
<path d="M87.7064 177.779L87.5755 178.858H68.5444L68.4136 177.779H87.7064Z" fill="#9D9CB5"/>
</g>
<defs>
<linearGradient id="paint0_linear_40_1599" x1="63.9916" y1="135.045" x2="121.491" y2="24.0004" gradientUnits="userSpaceOnUse">
<stop stop-color="#808080" stop-opacity="0.25"/>
<stop offset="0.54" stop-color="#808080" stop-opacity="0.12"/>
<stop offset="1" stop-color="#808080" stop-opacity="0.1"/>
</linearGradient>
<clipPath id="clip0_40_1599">
<rect width="266" height="196" fill="white"/>
</clipPath>
</defs>
</svg>
