<svg width="245" height="181" viewBox="0 0 245 181" fill="none" xmlns="http://www.w3.org/2000/svg">
<g clip-path="url(#clip0_39_1205)">
<path opacity="0.1" d="M2.63696 86.7781C6.50567 101.753 14.6885 114.697 27.6198 120.972C54.5025 134.013 115.13 127.287 160.378 119.567C183.784 115.574 204.357 104.554 219.302 89.0467L2.63696 86.7781Z" fill="#B99750"/>
<path opacity="0.1" d="M239.917 16.2907H215.091C213.912 16.2907 212.946 15.4163 212.946 14.3478C212.946 13.2793 213.912 12.4026 215.091 12.4026H219.385C218.204 12.4026 217.24 11.5282 217.24 10.4574C217.24 9.38671 218.204 8.51451 219.385 8.51451H216.32C215.14 8.51451 214.173 7.64008 214.173 6.56936C214.173 5.49863 215.14 4.62643 216.32 4.62643H229.278C226.403 3.41517 223.042 2.55412 219.169 2.10129C183.834 -2.00986 171.219 0.709347 166.769 3.50439C161.222 7.03166 155.06 9.47914 148.608 10.7184C126.807 14.7939 86.038 19.6969 49.086 9.15695C30.7202 3.90815 17.0695 12.7662 8.88892 27.5735H244.229C243.922 23.2705 243.002 19.2954 241.314 15.8178C240.914 16.127 240.423 16.2934 239.917 16.2907Z" fill="#B99750"/>
<path opacity="0.1" d="M0.532342 55.5218C-0.421257 64.2307 -0.0971002 73.0326 1.49451 81.6475L219.469 88.8727C225.47 82.6399 230.568 75.5952 234.614 67.9444L0.532342 55.5218ZM86.744 74.1591H82.4522C83.6326 74.1591 84.5992 75.0358 84.5992 76.1043C84.5992 77.1728 83.6326 78.0472 82.4522 78.0472H57.6252C56.447 78.0472 55.4804 77.1728 55.4804 76.1043C55.4804 75.0358 56.447 74.1591 57.6252 74.1591H61.9193C60.7389 74.1591 59.7745 73.2847 59.7745 72.2162C59.7745 71.1477 60.7389 70.271 61.9193 70.271H58.8524C57.672 70.271 56.7054 69.3966 56.7054 68.3281C56.7054 67.2596 57.672 66.383 58.8524 66.383H83.6794C84.8598 66.383 85.8242 67.2574 85.8242 68.3281C85.8242 69.3989 84.8598 70.271 83.6794 70.271H86.744C87.9245 70.271 88.8889 71.1455 88.8889 72.2162C88.8889 73.2869 87.9245 74.1591 86.744 74.1591Z" fill="#B99750"/>
<path opacity="0.1" d="M244.238 27.7073L6.26296 32.9494C3.36756 39.6928 1.44769 47.3173 0.563477 55.2184H240.069C241.628 50.5958 242.784 45.8468 243.526 41.0245C244.24 36.3825 244.526 31.8921 244.238 27.7073ZM48.881 44.8948H44.5892C45.7696 44.8948 46.7362 45.7714 46.7362 46.8399C46.7362 47.9084 45.7696 48.7851 44.5892 48.7851H19.7622C18.584 48.7851 17.6174 47.9084 17.6174 46.8399C17.6174 45.7714 18.584 44.8948 19.7622 44.8948H24.0563C22.8759 44.8948 21.9115 44.0203 21.9115 42.9518C21.9115 41.8833 22.8759 41.0067 24.0563 41.0067H20.9894C19.809 41.0067 18.8424 40.1323 18.8424 39.0638C18.8424 37.9953 19.809 37.1186 20.9894 37.1186H45.8164C46.9968 37.1186 47.9612 37.993 47.9612 39.0638C47.9612 40.1345 46.9968 41.0067 45.8164 41.0067H48.881C50.0615 41.0067 51.0259 41.8833 51.0259 42.9518C51.0259 44.0203 50.0615 44.8948 48.881 44.8948Z" fill="#B99750"/>
<path opacity="0.1" d="M121.402 174.234C176.383 174.234 220.955 170.128 220.955 165.062C220.955 159.996 176.383 155.889 121.402 155.889C66.4204 155.889 21.8491 159.996 21.8491 165.062C21.8491 170.128 66.4204 174.234 121.402 174.234Z" fill="#46133D"/>
<path d="M222.866 89.2988C222.865 89.2832 222.865 89.2675 222.866 89.2519C222.866 89.2274 222.866 89.2051 222.866 89.1828C222.821 88.9273 222.725 88.6837 222.583 88.4667C222.073 87.6497 221.363 86.977 220.52 86.5127C219.05 85.7052 217.03 85.3594 216.442 83.818C216.262 83.3406 216.257 82.8209 216.168 82.3212C216.013 81.5427 215.655 80.8189 215.131 80.2226C214.608 79.6263 213.937 79.1784 213.186 78.9239C212.487 78.6897 211.732 78.625 211.052 78.335C209.533 77.6881 208.732 76.0931 208.052 74.6187C207.173 72.7151 206.294 70.8109 205.415 68.9059C204.747 69.2427 203.883 69.0843 203.257 68.6627C202.654 68.2131 202.174 67.6185 201.861 66.9339C200.954 65.1717 200.564 63.1752 199.5 61.4978C198.435 59.8203 196.308 58.4953 194.428 59.2247C194.061 59.4084 193.682 59.5656 193.292 59.6954C191.682 60.0724 189.9 58.2298 188.522 59.1243C188.293 59.2714 188.106 59.476 187.981 59.7177C187.979 59.7028 187.979 59.6879 187.981 59.6731C187.801 60.0359 187.701 60.4328 187.687 60.8375C187.687 60.92 187.687 61.0003 187.687 61.0784C187.687 61.0918 187.687 61.1052 187.687 61.1185C187.687 61.4398 187.707 61.7655 187.711 62.0911C187.716 62.3646 187.695 62.638 187.649 62.9076V62.8853C187.623 63.037 187.584 63.1862 187.533 63.3314C187.174 64.295 186.181 64.9263 185.715 65.832V65.7874C185.663 65.8859 185.618 65.988 185.58 66.093C185.497 66.3304 185.454 66.5799 185.453 66.8313C185.413 68.5333 187.214 70.135 187.424 71.9619C187.573 73.2557 187.869 73.6706 188.967 74.4023L189.208 74.5629C189.112 74.5629 189.014 74.5763 188.905 74.5785C188.862 74.5793 188.82 74.5838 188.778 74.5919C188.584 74.5385 188.381 74.5288 188.183 74.5635C187.985 74.5982 187.797 74.6765 187.633 74.7926C186.791 75.4618 184.8 74.9466 183.916 74.7926C183.032 74.6387 180.003 75.0536 179.579 76.7356C179.156 78.4175 178.43 81.8885 178.43 81.8885C178.43 81.8885 178.43 84.0901 178.161 84.5006C178.15 84.5294 178.15 84.561 178.161 84.5898C178.161 85.2077 178.183 88.9218 177.586 89.8788C177.439 90.1018 177.45 90.5948 177.559 91.2016C176.931 92.0113 176.341 92.9571 176.446 93.5772C176.637 94.8465 179.207 98.8372 182.891 96.7002C182.891 96.7002 184.987 92.8612 182.35 90.8201L182.464 90.374C183.261 91.3555 183.851 92.0604 183.851 92.0604C183.851 92.0604 183.882 92.1429 183.931 92.2834H183.851C184.195 93.2215 184.404 94.204 184.47 95.2012C184.46 95.5668 184.394 95.9287 184.274 96.2741H184.343C184.323 96.35 184.301 96.4258 184.274 96.4972C184.145 96.8739 183.903 97.2017 183.582 97.4363C181.74 98.7435 179.631 108.079 179.631 108.079C179.631 108.079 175.452 123.17 174.617 124.028C173.927 124.733 178.265 126.719 181.522 126.482C181.976 126.455 182.425 126.37 182.858 126.228C182.878 126.451 182.9 126.674 182.922 126.877C182.992 127.546 183.063 128.166 183.107 128.36C183.223 128.847 183.453 133.812 183.453 133.812C183.453 133.812 182.983 137.038 183.096 139.282C183.096 139.436 183.116 139.583 183.13 139.728L182.724 139.79C182.11 141.173 184.642 152.713 184.987 153.683C185.216 154.448 185.345 155.239 185.37 156.036C185.37 156.036 185.148 156.857 185.332 157.306C185.448 157.58 185.523 157.869 185.555 158.164C185.555 158.164 185.404 158.91 185.633 159.396C185.862 159.882 185.595 160.734 185.595 160.734C185.595 160.734 185.519 164.096 184.829 165.925C184.641 166.417 184.586 166.951 184.67 167.471C184.754 167.991 184.974 168.48 185.308 168.887C185.356 168.951 185.408 169.011 185.464 169.068C185.464 169.068 189.272 169.099 189.943 169.068H190.03C190.299 169.03 190.99 166.005 190.375 164.549C189.76 163.092 190.299 161.299 190.299 161.299V158.649C190.299 158.649 190.99 158.011 190.299 156.641C189.609 155.271 189.722 154.856 189.722 154.856C189.722 154.856 190.491 152.652 189.684 151.943C188.878 151.234 189.838 148.544 189.838 148.544L190.11 139.576C189.968 139.53 189.822 139.493 189.675 139.465C189.66 139.317 189.644 139.166 189.629 139.005C189.471 137.381 189.335 135.173 189.687 134.544C190.038 133.915 190.208 128.423 190.263 124.606L193.774 124.74C193.847 126.524 193.925 128.153 193.974 128.36C194.09 128.847 194.321 133.812 194.321 133.812C194.321 133.812 193.849 137.038 193.963 139.282C193.963 139.436 193.983 139.583 193.996 139.728L193.591 139.79C192.976 141.173 195.509 152.713 195.854 153.683C196.083 154.448 196.212 155.239 196.239 156.036C196.239 156.036 196.016 156.857 196.199 157.306C196.314 157.58 196.389 157.869 196.422 158.164C196.422 158.164 196.27 158.91 196.5 159.396C196.729 159.882 196.462 160.734 196.462 160.734C196.462 160.734 196.386 164.096 195.696 165.925C195.511 166.418 195.459 166.951 195.546 167.471C195.633 167.99 195.855 168.477 196.19 168.883C196.238 168.946 196.29 169.007 196.346 169.064C196.346 169.064 200.155 169.095 200.825 169.064H200.912C201.181 169.026 201.872 166.001 201.257 164.544C200.642 163.088 201.181 161.294 201.181 161.294V158.649C201.181 158.649 201.872 158.011 201.181 156.641C200.491 155.271 200.604 154.856 200.604 154.856C200.604 154.856 201.373 152.652 200.567 151.943C199.76 151.234 200.72 148.544 200.72 148.544L200.996 139.576C200.851 139.529 200.702 139.492 200.551 139.465C200.535 139.317 200.52 139.166 200.504 139.005C200.346 137.381 200.21 135.173 200.562 134.544C200.845 134.028 201.008 130.709 201.081 127.468C201.081 127.245 201.081 127.022 201.099 126.799C202.712 126.732 204.318 126.551 205.905 126.259C205.905 126.259 204.028 119.609 204.602 118.527C204.85 118.061 204.493 115.578 204.005 112.904C204.686 113.455 205.531 113.762 206.406 113.774C207.246 115.391 209.801 119.112 211.24 119.685C212.928 120.354 211.66 114.421 210.856 113.562C210.476 113.093 210.156 112.578 209.903 112.029C209.925 112.003 209.95 111.98 209.972 111.956C209.995 111.931 210.012 105.643 209.627 105.757C209.242 105.871 208.783 104.822 208.783 104.822L207.594 94.3669L207.095 89.9903C207.511 90.2981 208.006 90.4944 208.431 90.8C209.589 91.6499 209.968 93.1423 210.476 94.4628C210.894 95.5492 211.482 96.6266 212.447 97.3092C213.411 97.9918 214.825 98.1725 215.788 97.4809C216.678 96.8318 216.941 95.6607 217.137 94.5922C218.754 95.161 220.716 93.6397 220.507 91.9778C220.456 91.5674 220.304 91.119 220.518 90.7599C220.946 90.0505 222.3 90.4632 222.745 89.7628C222.82 89.6416 222.859 89.5015 222.857 89.359C222.863 89.3278 222.866 89.3144 222.866 89.2988ZM201.237 95.0495C201.213 95.4488 201.76 98.6565 202.206 101.195C201.841 99.6135 201.108 97.9249 199.665 96.7671C199.665 96.7671 199.665 96.6868 199.647 96.5441H199.665C199.665 96.5441 199.604 95.9061 199.596 94.9982C199.598 94.1934 199.658 93.3899 199.774 92.5935V92.5734H199.745C199.745 92.5065 199.763 92.4374 199.774 92.3704C199.862 91.6984 200.044 91.0422 200.315 90.4208C200.435 90.1773 200.572 89.9432 200.727 89.7204C200.965 91.8775 201.259 94.6457 201.237 95.0495ZM202.435 102.482C202.631 103.577 202.772 104.347 202.772 104.347L203.954 112.48V112.518C203.317 109.085 202.504 105.467 202.504 105.467C202.587 104.472 202.564 103.472 202.435 102.482Z" fill="url(#paint0_linear_39_1205)"/>
<path d="M187.941 72.408C187.718 70.3469 185.491 68.569 186.159 66.6082C186.522 65.5398 187.658 64.8862 188.041 63.8244C188.295 63.1239 188.181 62.3543 188.183 61.6093C188.186 60.8642 188.359 60.0322 188.978 59.6195C190.315 58.7272 192.034 60.5631 193.593 60.1883C193.97 60.0592 194.337 59.9027 194.691 59.7199C196.511 58.9949 198.569 60.3155 199.591 61.984C200.613 63.6526 200.997 65.6424 201.874 67.3957C202.174 68.0728 202.638 68.664 203.224 69.1155C203.83 69.5349 204.658 69.6933 205.313 69.3587L207.863 75.0469C208.531 76.5125 209.297 78.1007 210.759 78.7454C211.413 79.0332 212.144 79.0978 212.821 79.3321C213.557 79.592 214.212 80.041 214.72 80.6341C215.228 81.2272 215.572 81.9436 215.716 82.7116C215.803 83.2112 215.805 83.7288 215.981 84.2039C216.549 85.7386 218.503 86.0821 219.926 86.8807C220.749 87.3457 221.439 88.0147 221.93 88.8236C222.153 89.2095 222.345 89.7159 222.106 90.0951C221.676 90.7911 220.369 90.3807 219.955 91.0878C219.745 91.4447 219.892 91.8908 219.955 92.3013C220.157 93.9542 218.258 95.4688 216.694 94.9023C216.505 95.9663 216.249 97.1329 215.389 97.7776C214.465 98.4691 213.095 98.2862 212.162 97.6081C211.228 96.9299 210.663 95.857 210.257 94.7751C209.765 93.459 209.398 91.9734 208.277 91.1279C207.872 90.8246 207.386 90.6283 206.99 90.3227C206.099 89.6401 205.654 88.5136 205.335 87.4228C204.923 86.0621 204.596 84.6634 203.999 83.3785C203.402 82.0937 202.458 80.898 201.164 80.3113C199.95 79.7648 198.551 79.8005 197.297 79.3566C195.139 78.5937 193.542 76.7757 191.395 75.9191C190.709 75.6302 190.058 75.2618 189.457 74.8216C188.377 74.11 188.083 73.6974 187.941 72.408Z" fill="#3F3D56"/>
<g opacity="0.1">
<path d="M188.141 63.3871C188.187 63.2999 188.227 63.2097 188.261 63.1172C188.513 62.4168 188.402 61.6472 188.404 60.9021C188.404 60.6537 188.427 60.4057 188.473 60.1616C188.267 60.6023 188.168 61.0851 188.181 61.5714C188.179 62.1714 188.25 62.8005 188.141 63.3871Z" fill="black"/>
<path d="M215.598 97.0772C214.674 97.7664 213.304 97.5858 212.371 96.9054C211.438 96.225 210.87 95.1565 210.476 94.0702C209.983 92.7541 209.618 91.2685 208.496 90.423C208.093 90.1197 207.605 89.9211 207.211 89.6178C206.32 88.9352 205.874 87.8087 205.554 86.729C205.141 85.3683 204.816 83.9697 204.217 82.6848C203.618 81.3999 202.678 80.2043 201.382 79.6176C200.17 79.0711 198.772 79.1068 197.518 78.6629C195.357 77.9 193.76 76.082 191.615 75.2254C190.929 74.9356 190.278 74.5673 189.676 74.1279C188.62 73.3984 188.339 72.9858 188.183 71.6987C187.961 69.7669 186.001 68.0827 186.306 66.2625C186.256 66.361 186.212 66.4623 186.174 66.5659C185.506 68.5289 187.733 70.3067 187.956 72.3656C188.101 73.6527 188.402 74.0654 189.448 74.7949C190.051 75.2343 190.702 75.6025 191.388 75.8924C193.533 76.7489 195.13 78.5692 197.29 79.3298C198.544 79.776 199.943 79.7381 201.155 80.2846C202.451 80.8712 203.382 82.0691 203.99 83.3518C204.598 84.6344 204.923 86.0286 205.326 87.396C205.654 88.4756 206.084 89.6021 206.983 90.2847C207.387 90.5881 207.874 90.7866 208.269 91.09C209.382 91.9354 209.756 93.4211 210.249 94.7372C210.654 95.8191 211.222 96.8898 212.155 97.5679C213.088 98.246 214.458 98.429 215.382 97.7397C215.973 97.2935 216.273 96.6132 216.471 95.8837C216.295 96.3542 215.993 96.7671 215.598 97.0772Z" fill="black"/>
<path d="M220.175 90.3873C220.09 90.5473 220.053 90.7286 220.068 90.9093C220.572 90.4119 221.708 90.7041 222.104 90.0639C222.196 89.9057 222.232 89.721 222.207 89.5397C221.69 90.0304 220.554 89.7382 220.175 90.3873Z" fill="black"/>
<path d="M216.903 94.2018C216.861 94.4249 216.819 94.6636 216.765 94.8956C218.128 95.3216 219.703 94.2263 219.926 92.8433C219.385 93.9074 218.048 94.6189 216.903 94.2018Z" fill="black"/>
</g>
<path d="M190.818 73.481C190.818 73.481 191.56 74.98 189.37 75.0112C187.181 75.0425 190.78 84.7459 190.78 84.7459L194.42 89.3858L198.948 86.932L199.208 80.1641L199.542 76.0753C199.542 76.0753 195.31 74.6989 196.09 72.8787C196.869 71.0585 190.818 73.481 190.818 73.481Z" fill="#FBBEBE"/>
<path d="M203.961 113.044C203.961 113.044 206.634 115.679 209.752 112.183L207.357 109.638H204.328L203.961 113.044Z" fill="#575A89"/>
<path opacity="0.1" d="M204.251 109.638L203.883 113.044C203.883 113.044 206.556 115.679 209.674 112.183" fill="black"/>
<path d="M208.747 110.102C208.747 110.102 209.823 112.928 210.603 113.783C211.382 114.637 212.607 120.548 210.974 119.879C209.342 119.21 206.224 114.229 206.037 113.375C205.85 112.52 205.778 110.102 205.778 110.102H208.747Z" fill="#FBBEBE"/>
<path d="M185.399 124.602L199.8 125.159L198.13 119.061L190.876 118.913L185.399 124.602Z" fill="#575A89"/>
<path opacity="0.1" d="M187.402 124.602L201.805 125.159L200.135 119.061L192.878 118.913L187.402 124.602Z" fill="black"/>
<path d="M190.112 134.669C189.771 135.304 189.903 137.504 190.056 139.13C190.154 140.165 190.261 140.961 190.261 140.961C190.261 140.961 184.878 142.634 184.063 141.185C183.856 140.816 183.753 140.172 183.718 139.416C183.606 137.185 184.063 133.97 184.063 133.97C184.063 133.97 183.84 129.027 183.729 128.543C183.684 128.349 183.615 127.733 183.548 127.067C183.45 126.076 183.357 124.974 183.357 124.974L190.707 121.07C190.707 121.07 190.707 121.802 190.693 122.929C190.653 126.466 190.535 133.888 190.112 134.669Z" fill="#FBBEBE"/>
<path opacity="0.1" d="M190.261 140.961C190.261 140.961 184.878 142.634 184.063 141.185C183.856 140.816 183.753 140.172 183.718 139.416C184.831 139.246 188.221 138.778 190.056 139.13C190.154 140.165 190.261 140.961 190.261 140.961Z" fill="black"/>
<path d="M190.446 169.068H190.361C189.713 169.093 186.029 169.068 186.029 169.068C185.976 169.012 185.925 168.952 185.878 168.89C185.552 168.481 185.337 167.996 185.254 167.48C185.17 166.964 185.22 166.436 185.399 165.945C186.067 164.123 186.141 160.777 186.141 160.777C186.141 160.777 186.401 159.922 186.179 159.438C185.956 158.954 186.103 158.211 186.103 158.211C186.069 157.918 185.994 157.63 185.88 157.357C185.695 156.911 185.918 156.092 185.918 156.092C185.893 155.299 185.768 154.512 185.546 153.75C185.212 152.784 182.762 141.296 183.357 139.92C183.357 139.92 188.553 139.027 190.522 139.697L190.261 148.619C190.261 148.619 189.332 151.296 190.112 152.003C190.892 152.71 190.15 154.903 190.15 154.903C190.15 154.903 190.038 155.311 190.707 156.688C191.375 158.064 190.707 158.695 190.707 158.695V161.334C190.707 161.334 190.188 163.119 190.78 164.569C191.373 166.019 190.707 169.021 190.446 169.068Z" fill="#3F3D56"/>
<path d="M200.645 134.669C200.304 135.304 200.435 137.504 200.589 139.13C200.687 140.165 200.794 140.961 200.794 140.961C200.794 140.961 195.411 142.634 194.595 141.185C194.388 140.816 194.286 140.172 194.25 139.416C194.139 137.185 194.595 133.97 194.595 133.97C194.595 133.97 194.373 129.027 194.261 128.543C194.201 128.282 194.097 125.793 194.014 123.56C193.945 121.655 193.889 119.933 193.889 119.933L201.239 121.07C201.239 121.07 201.239 124.307 201.148 127.633C201.068 130.859 200.919 134.165 200.645 134.669Z" fill="#FBBEBE"/>
<path opacity="0.1" d="M200.794 140.961C200.794 140.961 195.411 142.634 194.595 141.185C194.388 140.816 194.286 140.172 194.25 139.416C195.364 139.246 198.754 138.778 200.589 139.13C200.687 140.165 200.794 140.961 200.794 140.961Z" fill="black"/>
<path d="M200.979 169.068H200.894C200.246 169.093 196.562 169.068 196.562 169.068C196.508 169.012 196.458 168.952 196.411 168.89C196.085 168.481 195.87 167.996 195.786 167.48C195.702 166.964 195.752 166.436 195.932 165.945C196.6 164.114 196.667 160.768 196.667 160.768C196.667 160.768 196.927 159.913 196.705 159.429C196.482 158.945 196.629 158.202 196.629 158.202C196.595 157.909 196.52 157.621 196.406 157.348C196.221 156.902 196.444 156.083 196.444 156.083C196.419 155.29 196.294 154.503 196.072 153.741C195.738 152.775 193.288 141.287 193.883 139.911C193.883 139.911 199.079 139.019 201.048 139.688L200.787 148.61C200.787 148.61 199.858 151.287 200.638 151.994C201.417 152.702 200.676 154.894 200.676 154.894C200.676 154.894 200.564 155.303 201.233 156.679C201.901 158.055 201.233 158.686 201.233 158.686V161.325C201.233 161.325 200.714 163.11 201.306 164.56C201.898 166.01 201.239 169.021 200.979 169.068Z" fill="#3F3D56"/>
<path opacity="0.1" d="M193.713 75.2343C196.604 75.2343 198.947 72.8873 198.947 69.9922C198.947 67.0971 196.604 64.7501 193.713 64.7501C190.823 64.7501 188.479 67.0971 188.479 69.9922C188.479 72.8873 190.823 75.2343 193.713 75.2343Z" fill="black"/>
<path d="M193.713 75.0113C196.604 75.0113 198.947 72.6643 198.947 69.7691C198.947 66.874 196.604 64.527 193.713 64.527C190.823 64.527 188.479 66.874 188.479 69.7691C188.479 72.6643 190.823 75.0113 193.713 75.0113Z" fill="#FBBEBE"/>
<path opacity="0.1" d="M183.357 124.974L190.707 121.07C190.707 121.07 190.707 121.802 190.693 122.929C189.62 123.571 188.001 124.537 186.444 125.449C185.598 125.947 184.771 126.429 184.063 126.832C183.898 126.922 183.726 126.996 183.548 127.055C183.45 126.076 183.357 124.974 183.357 124.974Z" fill="black"/>
<path opacity="0.1" d="M201.239 121.062C201.239 121.062 201.239 124.298 201.148 127.624H201.121C200.572 127.644 200.022 127.627 199.475 127.573C198.515 127.47 197.747 127.216 197.471 126.712C196.912 125.73 195.346 124.481 194.023 123.551C193.954 121.646 193.898 119.924 193.898 119.924L201.239 121.062Z" fill="black"/>
<path d="M199.872 92.7117C199.686 94.1638 199.65 95.6312 199.765 97.0906C203.141 99.8789 202.511 105.752 202.511 105.752C202.511 105.752 205.11 117.651 204.553 118.728C203.997 119.806 205.814 126.424 205.814 126.424C204.265 126.718 202.697 126.899 201.121 126.964C200.572 126.983 200.022 126.966 199.475 126.913C198.515 126.81 197.747 126.556 197.471 126.052C196.433 124.231 191.941 121.517 191.941 121.517C191.941 121.517 189.094 123.225 186.444 124.78C185.598 125.278 184.771 125.759 184.063 126.163C183.488 126.468 182.853 126.643 182.203 126.674C179.052 126.908 174.853 124.932 175.522 124.231C176.339 123.375 180.386 108.356 180.386 108.356C180.386 108.356 182.426 99.0603 184.208 97.7598C184.52 97.5235 184.753 97.1974 184.876 96.8251C185.486 95.1276 184.466 92.4061 184.466 92.4061C184.466 92.4061 178.713 85.3059 178.972 84.8954C179.23 84.485 179.232 82.2944 179.232 82.2944C179.232 82.2944 179.938 78.8369 180.346 77.1639C180.753 75.4908 183.687 75.0804 184.54 75.2299C185.393 75.3793 187.321 75.8991 188.137 75.2299C188.952 74.5607 190.328 75.4908 190.328 75.4908L193.709 76.4233L196.749 74.6387C196.749 74.6387 199.796 74.7949 200.057 75.2031C200.317 75.6113 204.326 76.3943 204.326 76.3943C206.366 77.7684 206.293 84.3132 206.293 84.3132C206.293 84.3132 201.393 88.5872 200.391 90.7822C200.131 91.3988 199.957 92.048 199.872 92.7117Z" fill="#575A89"/>
<path d="M205.184 83.4075L206.297 84.2998L207.449 94.6725L208.598 105.083C208.598 105.083 209.044 106.125 209.416 106.013C209.788 105.902 209.75 112.183 209.75 112.183C209.75 112.183 205.487 109.558 203.959 113.044L202.769 104.637C202.769 104.637 201.246 96.0488 201.284 95.3796C201.322 94.7104 200.504 87.4607 200.504 87.4607L205.184 83.4075Z" fill="#575A89"/>
<path d="M179.793 83.8916L178.976 84.8954C178.976 84.8954 179.052 89.2073 178.419 90.2491C177.787 91.2908 180.165 97.3872 181.056 97.0147C181.947 96.6422 183.952 87.1261 183.952 87.0146C183.952 86.903 179.793 83.8916 179.793 83.8916Z" fill="#575A89"/>
<path d="M179.72 90.026C179.72 90.026 177.121 92.6649 177.306 93.9297C177.49 95.1945 179.978 99.1673 183.542 97.0326C183.542 97.0326 186.847 90.8067 179.72 90.026Z" fill="#575A89"/>
<path opacity="0.1" d="M190.362 169.075C189.713 169.099 186.03 169.075 186.03 169.075C185.976 169.018 185.925 168.959 185.878 168.896C186.82 168.575 188.856 168.093 190.362 169.075Z" fill="black"/>
<path opacity="0.1" d="M200.898 169.075C200.25 169.099 196.566 169.075 196.566 169.075C196.513 169.018 196.462 168.959 196.415 168.896C197.353 168.575 199.388 168.093 200.898 169.075Z" fill="black"/>
<path opacity="0.1" d="M186.707 103.687C186.139 109.143 186.326 119.971 186.444 124.78C185.597 125.278 184.771 125.759 184.063 126.163C183.488 126.468 182.853 126.643 182.203 126.674C181.967 125.22 185.237 110.281 186.707 103.687Z" fill="black"/>
<path opacity="0.1" d="M187.401 100.591C187.386 100.669 187.116 101.855 186.707 103.687C186.867 102.123 187.09 101.001 187.401 100.591Z" fill="black"/>
<path opacity="0.1" d="M196.444 100.002C196.444 100.002 199.6 119.855 190.255 122.308C190.252 122.3 196.72 121.316 196.444 100.002Z" fill="black"/>
<path opacity="0.1" d="M201.121 126.964C200.572 126.983 200.022 126.966 199.475 126.913L196.954 99.7674C198.562 100.82 200.486 120.084 201.121 126.964Z" fill="black"/>
<path opacity="0.1" d="M189.816 66.6863C189.983 66.673 190.151 66.6904 190.313 66.7376C190.549 66.8556 190.762 67.0159 190.941 67.2106C191.231 67.4537 191.578 67.619 191.95 67.6912C192.321 67.7634 192.705 67.74 193.065 67.6232C193.319 67.5095 193.589 67.4343 193.865 67.4002C194.29 67.4002 194.658 67.7125 194.878 68.0694C195.099 68.4263 195.212 68.8501 195.402 69.2316C195.591 69.613 195.894 69.9744 196.31 70.0681C196.51 70.0758 196.707 70.1212 196.89 70.2019C197.002 70.2931 197.088 70.4124 197.139 70.5477C197.486 71.2994 197.763 72.1872 198.504 72.5553C198.777 72.6819 199.074 72.7467 199.375 72.7449C199.681 72.7674 199.987 72.7121 200.266 72.5843C200.54 72.4309 200.767 72.2048 200.921 71.9307C201.384 71.1633 201.438 70.2131 201.328 69.323C201.192 68.2002 200.793 67.1255 200.164 66.1867C199.5 65.2371 198.597 64.4809 197.546 63.9954C196.496 63.5098 195.335 63.3122 194.183 63.4228C193.781 63.4681 193.383 63.5427 192.992 63.6459C191.575 64.0251 190.186 64.7345 189.326 65.9235C189.118 66.2202 188.889 66.502 188.642 66.7666C189.032 66.7287 189.424 66.6953 189.816 66.6863Z" fill="black"/>
<path d="M189.816 66.4633C189.983 66.4499 190.151 66.4673 190.313 66.5146C190.549 66.6326 190.762 66.7928 190.941 66.9875C191.231 67.2306 191.578 67.396 191.95 67.4681C192.321 67.5403 192.705 67.5169 193.065 67.4001C193.319 67.2864 193.589 67.2113 193.865 67.1771C194.29 67.1771 194.658 67.4894 194.878 67.8463C195.099 68.2032 195.212 68.627 195.402 69.0085C195.591 69.3899 195.894 69.7513 196.31 69.845C196.51 69.8527 196.707 69.8982 196.89 69.9788C197.002 70.07 197.088 70.1893 197.139 70.3246C197.486 71.0763 197.763 71.9641 198.504 72.3322C198.777 72.4588 199.074 72.5236 199.375 72.5218C199.681 72.5443 199.987 72.489 200.266 72.3612C200.54 72.2078 200.767 71.9817 200.921 71.7076C201.384 70.9402 201.438 69.99 201.328 69.0999C201.192 67.9771 200.793 66.9025 200.164 65.9636C199.5 65.014 198.597 64.2578 197.546 63.7723C196.496 63.2867 195.335 63.0891 194.183 63.1998C193.781 63.2451 193.383 63.3196 192.992 63.4228C191.575 63.8021 190.186 64.5114 189.326 65.7004C189.118 65.9972 188.889 66.2789 188.642 66.5436C189.032 66.5056 189.424 66.4722 189.816 66.4633Z" fill="#3F3D56"/>
<path opacity="0.1" d="M184.136 78.9462C184.136 78.9462 184.397 81.0296 183.506 81.5494C182.615 82.0691 184.136 78.9462 184.136 78.9462Z" fill="black"/>
<path opacity="0.1" d="M203.03 95.0829C203.03 95.0829 205.146 91.96 205.444 92.8523C205.743 93.7445 203.03 95.0829 203.03 95.0829Z" fill="black"/>
<path opacity="0.1" d="M203.179 96.1224C203.179 96.1224 205.266 93.5571 205.467 94.561C205.667 95.5648 203.179 96.1224 203.179 96.1224Z" fill="black"/>
<path opacity="0.1" d="M197.05 93.0686C196.293 93.0793 195.554 92.8359 194.952 92.3771H194.769C194.144 92.9489 193.324 93.258 192.477 93.2404C192.037 93.2506 191.6 93.1713 191.191 93.0072C190.783 92.843 190.412 92.5976 190.101 92.2857H189.858C189.217 92.8087 188.411 93.0874 187.585 93.0723C186.758 93.0572 185.963 92.7493 185.341 92.2031L184.47 92.1875C184.47 92.1875 185.491 94.9089 184.88 96.6065L199.765 96.8719C199.65 95.4125 199.685 93.9451 199.872 92.4931V92.473L199.054 92.4574C198.466 92.8658 197.765 93.0796 197.05 93.0686Z" fill="black"/>
<path opacity="0.1" d="M197.05 93.5148C196.293 93.5255 195.554 93.2821 194.952 92.8233H194.769C194.144 93.3951 193.324 93.7042 192.477 93.6866C192.037 93.6968 191.6 93.6174 191.191 93.4533C190.783 93.2892 190.412 93.0438 190.101 92.7318H189.858C189.217 93.2549 188.411 93.5336 187.585 93.5185C186.758 93.5034 185.963 93.1954 185.341 92.6493L184.47 92.6337C184.47 92.6337 185.491 95.3551 184.88 97.0527L199.765 97.3181C199.65 95.8587 199.685 94.3913 199.872 92.9393V92.9192L199.054 92.9036C198.466 93.312 197.765 93.5258 197.05 93.5148Z" fill="black"/>
<path d="M197.05 93.2917C196.293 93.3024 195.554 93.059 194.952 92.6002H194.769C194.144 93.172 193.324 93.4811 192.477 93.4635C192.037 93.4737 191.6 93.3943 191.191 93.2302C190.783 93.0661 190.412 92.8207 190.101 92.5087H189.858C189.217 93.0318 188.411 93.3105 187.585 93.2954C186.758 93.2803 185.963 92.9723 185.341 92.4262L184.47 92.4106C184.47 92.4106 185.491 95.132 184.88 96.8296L199.765 97.095C199.65 95.6356 199.685 94.1682 199.872 92.7162V92.6961L199.054 92.6805C198.466 93.0889 197.765 93.3027 197.05 93.2917Z" fill="#3F3D56"/>
<path opacity="0.1" d="M196.388 78.4175C196.388 78.4175 199.522 78.6182 199.542 79.0644C199.562 79.5105 196.388 78.4175 196.388 78.4175Z" fill="black"/>
<path opacity="0.1" d="M188.776 76.5147C188.776 76.5147 185.642 76.7155 185.622 77.1616C185.602 77.6078 188.776 76.5147 188.776 76.5147Z" fill="black"/>
<path opacity="0.1" d="M200.752 85.636C200.72 85.6137 200.689 85.5959 200.658 85.5758C201.46 86.2985 201.326 87.8778 200.342 89.1806C199.357 90.4833 197.863 91.0253 196.954 90.4409C196.983 90.4654 197.008 90.4922 197.039 90.5167C197.93 91.1993 199.489 90.664 200.518 89.3166C201.547 87.9693 201.647 86.3208 200.752 85.636Z" fill="black"/>
<path opacity="0.1" d="M183.537 89.0132C182.744 87.5811 182.847 85.9996 183.744 85.3995C183.711 85.4152 183.675 85.4285 183.642 85.4464C182.658 85.9951 182.528 87.6391 183.343 89.1203C184.159 90.6015 185.629 91.351 186.613 90.8112C186.646 90.7924 186.677 90.7716 186.707 90.7487C185.724 91.1949 184.33 90.4453 183.537 89.0132Z" fill="black"/>
<path opacity="0.1" d="M184.597 76.9363L184.31 77.3824L183.577 76.9921L183.963 76.3987C184.218 76.5194 184.436 76.7047 184.597 76.9363Z" fill="black"/>
<path d="M179.942 93.4456C179.942 93.4456 180.595 90.3718 179.72 89.3947C178.844 88.4177 179.125 83.296 180.461 83.4076C181.798 83.5191 183.802 87.57 183.468 88.4266C183.134 89.2832 181.871 93.6687 181.871 93.6687L179.942 93.4456Z" fill="#FBBEBE"/>
<path opacity="0.1" d="M200.898 71.2682C200.744 71.5422 200.518 71.7684 200.244 71.9217C199.965 72.0496 199.658 72.1048 199.353 72.0824C199.052 72.0841 198.755 72.0194 198.482 71.8927C197.74 71.5225 197.464 70.6346 197.117 69.8851C197.073 69.7499 196.994 69.6285 196.889 69.5327C196.709 69.4505 196.515 69.4029 196.317 69.3921C195.901 69.2985 195.6 68.9349 195.408 68.5556C195.217 68.1764 195.103 67.7571 194.885 67.3935C194.667 67.0299 194.297 66.7109 193.872 66.7243C193.595 66.761 193.325 66.84 193.072 66.9585C192.712 67.0743 192.328 67.097 191.956 67.0245C191.585 66.9519 191.238 66.7865 190.947 66.5436C190.768 66.3489 190.555 66.1886 190.319 66.0707C190.158 66.0234 189.99 66.006 189.822 66.0194C189.566 66.0194 189.312 66.0439 189.056 66.064C188.929 66.2306 188.793 66.39 188.649 66.5413C189.038 66.5079 189.43 66.4744 189.822 66.4655C189.99 66.4522 190.158 66.4696 190.319 66.5168C190.555 66.6348 190.768 66.7951 190.947 66.9897C191.238 67.2326 191.585 67.3981 191.956 67.4706C192.328 67.5431 192.712 67.5204 193.072 67.4046C193.325 67.2861 193.595 67.2071 193.872 67.1704C194.297 67.1704 194.664 67.4827 194.885 67.8396C195.105 68.1965 195.219 68.6203 195.408 69.0018C195.598 69.3832 195.901 69.7446 196.317 69.8383C196.515 69.849 196.709 69.8967 196.889 69.9788C197.002 70.07 197.088 70.1893 197.139 70.3246C197.486 71.0763 197.763 71.9641 198.504 72.3322C198.777 72.4588 199.074 72.5236 199.375 72.5218C199.681 72.5443 199.987 72.489 200.266 72.3612C200.54 72.2078 200.767 71.9817 200.921 71.7076C201.267 71.0771 201.421 70.3593 201.366 69.642C201.349 70.2148 201.188 70.7741 200.898 71.2682Z" fill="black"/>
<path d="M180.929 95.8838C182.036 95.8838 182.934 95.2745 182.934 94.523C182.934 93.7715 182.036 93.1623 180.929 93.1623C179.822 93.1623 178.925 93.7715 178.925 94.523C178.925 95.2745 179.822 95.8838 180.929 95.8838Z" fill="#575A89"/>
<path d="M115.591 170.266C153.539 170.266 184.301 139.456 184.301 101.449C184.301 63.4429 153.539 32.6327 115.591 32.6327C77.6437 32.6327 46.8811 63.4429 46.8811 101.449C46.8811 139.456 77.6437 170.266 115.591 170.266Z" fill="#B8964F"/>
<path d="M151.643 136.032C151.643 146.895 134.592 136.96 116.31 136.96C98.0293 136.96 79.5388 146.485 79.5388 135.621C79.5388 129.427 85.4321 120.812 93.8867 114.555C100.257 109.839 108.079 106.462 115.936 106.462C124.017 106.462 131.932 110.118 138.246 115.137C146.215 121.465 151.643 129.969 151.643 136.032Z" fill="black"/>
<path d="M138.244 115.132C128.527 113.667 110.952 111.88 93.8867 114.55C100.257 109.834 108.079 106.457 115.936 106.457C124.014 106.457 131.93 110.113 138.244 115.132Z" fill="#F6F8FB"/>
<path opacity="0.05" d="M79.539 52.8717C79.539 52.8717 58.8413 66.1242 59.0106 86.854C59.1798 107.584 79.539 52.8717 79.539 52.8717Z" fill="black"/>
<path d="M184.274 15.443C184.274 15.443 165.521 14.3121 167.733 27.4731C167.733 27.4731 167.287 29.7975 169.399 30.8548C169.399 30.8548 169.432 29.88 171.321 30.2102C171.994 30.3229 172.678 30.3559 173.359 30.3083C174.279 30.2457 175.153 29.8838 175.849 29.2777C175.849 29.2777 181.121 27.0984 183.172 18.4678C183.172 18.4678 184.689 16.5851 184.629 16.1033L181.464 17.4551C181.464 17.4551 182.544 19.7416 181.686 21.6421C181.686 21.6421 181.584 17.5399 180.976 17.6269C180.853 17.6469 179.332 18.4188 179.332 18.4188C179.332 18.4188 181.192 22.4028 179.778 25.296C179.778 25.296 180.31 20.3885 178.74 18.7065L176.513 20.0092C176.513 20.0092 178.686 24.1226 177.212 27.4798C177.212 27.4798 177.591 22.3314 176.045 20.326L174.025 21.9031C174.025 21.9031 176.067 25.9585 174.822 28.7424C174.822 28.7424 174.659 22.7485 173.588 22.2957C173.588 22.2957 171.822 23.8572 171.553 24.4974C171.553 24.4974 172.951 27.4396 172.085 28.9922C172.085 28.9922 171.553 24.9993 171.116 24.977C171.116 24.977 169.356 27.6226 169.172 29.4383C169.172 29.4383 169.25 26.7392 170.688 24.7249C170.688 24.7249 168.987 25.0171 167.996 26.1235C167.996 26.1235 168.27 24.252 171.114 24.0892C171.114 24.0892 172.568 22.0815 172.958 21.9611C172.958 21.9611 170.118 21.7224 168.397 22.4875C168.397 22.4875 169.911 20.7231 173.477 21.5239L175.481 19.8955C175.481 19.8955 171.744 19.3824 170.158 19.949C170.158 19.949 171.982 18.3875 176.018 19.5252L178.19 18.2247C178.19 18.2247 175.002 17.5376 173.103 17.7786C173.103 17.7786 175.107 16.6967 178.824 17.87L180.383 17.1718C180.383 17.1718 178.047 16.7123 177.363 16.6409C176.68 16.5695 176.644 16.3777 176.644 16.3777C178.128 16.1361 179.649 16.313 181.038 16.8885C181.038 16.8885 184.33 15.6505 184.274 15.443Z" fill="#17B384"/>
<path d="M165.04 9.59195C165.04 9.59195 156.577 9.07889 157.565 15.0259C157.565 15.0259 157.367 16.0766 158.318 16.5539C158.318 16.5539 158.332 16.1078 159.187 16.2639C159.491 16.314 159.799 16.329 160.107 16.3085C160.523 16.2788 160.918 16.1153 161.234 15.8423C161.234 15.8423 163.615 14.8564 164.541 10.9571C164.541 10.9571 165.227 10.1072 165.209 9.88863L163.779 10.4998C163.779 10.4998 164.269 11.5326 163.884 12.3915C163.884 12.3915 163.837 10.5378 163.563 10.5824C163.508 10.5824 162.82 10.9393 162.82 10.9393C162.82 10.9393 163.661 12.7394 163.027 14.0466C163.027 14.0466 163.267 11.8293 162.559 11.0687L161.552 11.6576C161.552 11.6576 162.534 13.518 161.868 15.0348C161.868 15.0348 162.038 12.7082 161.341 11.8026L160.427 12.5141C160.427 12.5141 161.35 14.3455 160.788 15.6036C160.788 15.6036 160.715 12.8956 160.229 12.6904C160.229 12.6904 159.432 13.3953 159.309 13.6853C159.309 13.6853 159.942 15.0237 159.55 15.7174C159.55 15.7174 159.309 13.9128 159.104 13.9061C159.104 13.9061 158.309 15.0995 158.227 15.9137C158.265 15.156 158.501 14.4216 158.911 13.7834C158.452 13.8702 158.03 14.0897 157.695 14.4147C157.695 14.4147 157.817 13.5693 159.107 13.4956C159.107 13.4956 159.764 12.59 159.94 12.5342C159.94 12.5342 158.657 12.4272 157.88 12.7729C157.88 12.7729 158.563 11.9743 160.176 12.3268L161.067 11.5929C161.067 11.5929 159.378 11.3698 158.661 11.6152C158.661 11.6152 159.485 10.9103 161.309 11.4256L162.289 10.8367C162.289 10.8367 160.851 10.5266 159.991 10.6381C159.991 10.6381 160.897 10.1496 162.577 10.6805L163.278 10.3638C163.278 10.3638 162.223 10.1563 161.915 10.1251C161.608 10.0939 161.588 10.0069 161.588 10.0069C162.256 9.89546 162.943 9.9727 163.57 10.2299C163.57 10.2299 165.065 9.68564 165.04 9.59195Z" fill="#17B384"/>
<path opacity="0.1" d="M239.002 162.842C242.315 162.842 245 162.388 245 161.827C245 161.267 242.315 160.812 239.002 160.812C235.69 160.812 233.004 161.267 233.004 161.827C233.004 162.388 235.69 162.842 239.002 162.842Z" fill="#6C63FF"/>
<path opacity="0.1" d="M10.4169 179.726C13.7295 179.726 16.4148 179.272 16.4148 178.711C16.4148 178.151 13.7295 177.696 10.4169 177.696C7.10431 177.696 4.41895 178.151 4.41895 178.711C4.41895 179.272 7.10431 179.726 10.4169 179.726Z" fill="#6C63FF"/>
<path opacity="0.1" d="M45.235 181C48.5476 181 51.2329 180.546 51.2329 179.985C51.2329 179.424 48.5476 178.97 45.235 178.97C41.9224 178.97 39.2371 179.424 39.2371 179.985C39.2371 180.546 41.9224 181 45.235 181Z" fill="#6C63FF"/>
<path d="M225.875 174.221C230.821 174.221 234.83 173.542 234.83 172.704C234.83 171.866 230.821 171.187 225.875 171.187C220.929 171.187 216.919 171.866 216.919 172.704C216.919 173.542 220.929 174.221 225.875 174.221Z" fill="#3B0532"/>
<path d="M229.576 170.226C229.985 169.892 230.283 169.441 230.432 168.934C230.541 168.423 230.323 167.808 229.835 167.62C229.287 167.411 228.701 167.792 228.258 168.176C227.815 168.559 227.305 168.997 226.723 168.916C227.022 168.645 227.246 168.301 227.372 167.918C227.499 167.534 227.524 167.124 227.445 166.728C227.42 166.564 227.35 166.41 227.245 166.282C226.939 165.956 226.389 166.095 226.024 166.351C224.866 167.168 224.543 168.742 224.536 170.161C224.42 169.65 224.518 169.117 224.516 168.6C224.514 168.082 224.369 167.484 223.928 167.21C223.655 167.064 223.347 166.991 223.037 167C222.516 166.98 221.937 167.031 221.581 167.413C221.135 167.888 221.253 168.682 221.639 169.197C222.024 169.713 222.607 170.047 223.144 170.406C223.576 170.664 223.945 171.015 224.222 171.435C224.255 171.494 224.281 171.556 224.302 171.62H227.565C228.295 171.248 228.972 170.779 229.576 170.226Z" fill="#B99750"/>
<path d="M13.2163 151.522C13.2163 151.522 14.439 153.123 12.6506 155.537C10.8621 157.95 9.38767 159.998 9.97789 161.506C9.97789 161.506 12.6751 157.013 14.8778 156.949C17.0805 156.884 15.6306 154.223 13.2163 151.522Z" fill="#B99750"/>
<path opacity="0.1" d="M13.2165 151.522C13.3227 151.676 13.4066 151.845 13.4659 152.023C15.6085 154.544 16.7489 156.897 14.6909 156.955C12.7711 157.011 10.4592 160.446 9.91797 161.314C9.93689 161.381 9.95919 161.448 9.98479 161.513C9.98479 161.513 12.682 157.02 14.8847 156.955C17.0874 156.891 15.6308 154.223 13.2165 151.522Z" fill="black"/>
<path d="M15.4904 153.563C15.4904 154.127 15.4258 154.584 15.3478 154.584C15.2699 154.584 15.2075 154.138 15.2075 153.563C15.2075 152.987 15.2855 153.264 15.3657 153.264C15.4458 153.264 15.4904 152.998 15.4904 153.563Z" fill="#FFD037"/>
<path d="M16.261 154.236C15.7665 154.506 15.3367 154.669 15.2988 154.6C15.2609 154.531 15.6329 154.259 16.1273 153.989C16.6218 153.719 16.4258 153.915 16.4636 153.989C16.5015 154.062 16.7643 153.966 16.261 154.236Z" fill="#FFD037"/>
<path d="M6.753 151.522C6.753 151.522 5.53025 153.123 7.31649 155.537C9.10273 157.95 10.5794 159.998 9.98917 161.506C9.98917 161.506 7.28977 157.013 5.08926 156.949C2.88875 156.884 4.33646 154.223 6.753 151.522Z" fill="#B99750"/>
<path opacity="0.1" d="M6.75306 151.522C6.6459 151.676 6.56186 151.845 6.50361 152.023C4.36101 154.544 3.21844 156.897 5.27863 156.955C7.19628 157.011 9.51037 160.446 10.0494 161.314C10.0312 161.381 10.0096 161.448 9.98477 161.513C9.98477 161.513 7.28537 157.02 5.08486 156.955C2.88435 156.891 4.33651 154.223 6.75306 151.522Z" fill="black"/>
<path d="M4.479 153.563C4.479 154.127 4.54137 154.584 4.61932 154.584C4.69727 154.584 4.75964 154.138 4.75964 153.563C4.75964 152.987 4.68168 153.264 4.60373 153.264C4.52578 153.264 4.479 152.998 4.479 153.563Z" fill="#FFD037"/>
<path d="M3.69728 154.236C4.19173 154.506 4.62381 154.669 4.66168 154.6C4.69954 154.531 4.32759 154.259 3.83315 153.989C3.3387 153.719 3.53247 153.915 3.49684 153.989C3.4612 154.062 3.20284 153.966 3.69728 154.236Z" fill="#FFD037"/>
<path d="M4.86865 161.303C4.86865 161.303 8.28968 161.198 9.32312 160.462C10.3566 159.726 14.5861 158.849 14.8422 160.016C15.0983 161.183 19.9827 165.883 16.1206 165.914C12.2586 165.945 7.14711 165.309 6.11813 164.683C5.08915 164.056 4.86865 161.303 4.86865 161.303Z" fill="#3B0532"/>
<path opacity="0.2" d="M16.1852 165.515C12.3232 165.546 7.2117 164.91 6.18272 164.283C5.39873 163.806 5.08692 162.09 4.98224 161.299H4.86865C4.86865 161.299 5.09138 164.062 6.11368 164.689C7.13598 165.316 12.2542 165.952 16.1162 165.921C17.2298 165.921 17.6151 165.512 17.5951 164.926C17.4392 165.285 17.016 165.508 16.1852 165.515Z" fill="black"/>
<path d="M91.1628 92.4262C92.4702 92.3526 98.624 91.8886 102.533 89.6557C103.161 89.2858 103.87 89.0766 104.597 89.0467C105.84 89.011 107.27 89.5308 106.355 92.4396C104.871 97.1976 96.2587 102.551 90.9133 102.255C85.7729 101.969 79.6747 99.8945 75.6479 92.6002C75.2621 91.8984 75.072 91.1055 75.0978 90.3048C75.1445 88.8326 75.6791 86.9878 78.4386 89.0445C82.167 91.8217 89.2407 92.3481 90.6594 92.4262C90.8271 92.4352 90.9951 92.4352 91.1628 92.4262Z" fill="#444053"/>
<path d="M140.607 92.4262C141.915 92.3526 148.069 91.8886 151.977 89.6557C152.605 89.2858 153.314 89.0766 154.042 89.0467C155.285 89.011 156.715 89.5308 155.799 92.4396C154.316 97.1976 145.703 102.551 140.358 102.255C135.217 101.969 129.119 99.8945 125.092 92.6002C124.707 91.8984 124.517 91.1055 124.542 90.3048C124.589 88.8326 125.124 86.9878 127.883 89.0445C131.612 91.8217 138.685 92.3481 140.104 92.4262C140.272 92.4352 140.44 92.4352 140.607 92.4262Z" fill="#444053"/>
</g>
<defs>
<linearGradient id="paint0_linear_39_1205" x1="198.7" y1="169.084" x2="198.7" y2="58.8789" gradientUnits="userSpaceOnUse">
<stop stop-color="#808080" stop-opacity="0.25"/>
<stop offset="0.54" stop-color="#808080" stop-opacity="0.12"/>
<stop offset="1" stop-color="#808080" stop-opacity="0.1"/>
</linearGradient>
<clipPath id="clip0_39_1205">
<rect width="245" height="181" fill="white"/>
</clipPath>
</defs>
</svg>
