<svg width="167" height="187" viewBox="0 0 167 187" fill="none" xmlns="http://www.w3.org/2000/svg">
<g clip-path="url(#clip0_41_2222)">
<path d="M94.6733 144.087C134.618 144.087 167 111.832 167 72.0433C167 32.2549 134.618 0 94.6733 0C54.7284 0 22.3467 32.2549 22.3467 72.0433C22.3467 111.832 54.7284 144.087 94.6733 144.087Z" fill="#F2F2F2"/>
<path d="M141.938 32.2176H9.44545C9.16134 32.2116 8.93594 31.9773 8.94201 31.6943C8.94791 31.4198 9.16989 31.1987 9.44545 31.1928H141.938C142.222 31.1989 142.447 31.4332 142.441 31.7162C142.435 31.9907 142.213 32.2118 141.938 32.2176Z" fill="#CACACA"/>
<path d="M96.7845 49.4865H60.1584C57.4074 49.4865 55.1772 51.708 55.1772 54.4482V54.4482C55.1772 57.1885 57.4074 59.4099 60.1584 59.4099H96.7845C99.5355 59.4099 101.766 57.1885 101.766 54.4482C101.766 51.708 99.5355 49.4865 96.7845 49.4865Z" fill="white"/>
<path d="M36.4978 69.3333H120.445C123.196 69.3333 125.426 71.5547 125.426 74.295C125.426 77.0352 123.196 79.2567 120.445 79.2567H36.4978C33.7468 79.2567 31.5166 77.0352 31.5166 74.295C31.5166 71.5547 33.7468 69.3333 36.4978 69.3333Z" fill="white"/>
<path d="M36.4978 89.18H120.445C123.196 89.18 125.426 91.4014 125.426 94.1417C125.426 96.882 123.196 99.1034 120.445 99.1034H36.4978C33.7468 99.1034 31.5166 96.882 31.5166 94.1417C31.5166 91.4014 33.7468 89.18 36.4978 89.18Z" fill="white"/>
<path d="M26.0949 186.564L25.8974 186.544C19.1942 185.855 13.1345 182.265 9.32819 176.725C8.28561 175.182 7.44229 173.514 6.81812 171.761L6.75812 171.593L6.93573 171.579C9.05627 171.409 11.2347 171.051 12.2024 170.88L5.96221 168.774L5.92362 168.59C5.55366 166.858 6.27846 165.077 7.75414 164.091C9.23382 163.057 11.196 163.024 12.71 164.007C13.3894 164.439 14.1 164.868 14.7872 165.282C17.1487 166.705 19.5906 168.176 21.4214 170.189C24.1975 173.303 25.4144 177.498 24.733 181.607L26.0949 186.564Z" fill="#F2F2F2"/>
<path d="M48.7777 183.472L51.853 183.472L53.3163 171.655L48.7769 171.656L48.7777 183.472Z" fill="#A0616A"/>
<path d="M48.6691 186.668L58.1269 186.668V186.549C58.1268 184.524 56.4787 182.882 54.4457 182.882L52.7178 181.577L49.4946 182.882L48.6689 182.882L48.6691 186.668Z" fill="#2F2E41"/>
<path d="M24.1299 174.987L26.5898 176.826L34.8798 168.248L31.2486 165.535L24.1299 174.987Z" fill="#A0616A"/>
<path d="M22.1177 177.479L29.6832 183.132L29.755 183.037C30.9749 181.417 30.6457 179.119 29.0195 177.903L28.424 175.826L25.059 174.944L24.3986 174.45L22.1177 177.479Z" fill="#2F2E41"/>
<path d="M34.3536 128.02C34.3536 128.02 34.5233 132.633 34.7375 136.332C34.7726 136.939 33.3456 137.598 33.3825 138.258C33.407 138.696 33.6753 139.122 33.7002 139.578C33.7265 140.06 33.3561 140.487 33.3825 140.985C33.4083 141.472 33.8308 142.03 33.8563 142.529C34.1305 147.892 35.1247 154.313 34.1292 156.108C33.6386 156.992 27.3848 169.247 27.3848 169.247C27.3848 169.247 30.8692 174.453 31.8647 172.718C33.1796 170.425 43.3134 159.702 43.3134 157.654C43.3134 155.609 45.6579 140.281 45.6579 140.281L47.2927 149.352L48.0422 151.149L47.8067 152.204L48.2911 153.628L48.3173 155.038L48.7889 157.654C48.7889 157.654 47.3703 178.043 48.1692 178.61C48.9706 179.181 52.8507 180.204 53.3086 179.181C53.7641 178.157 56.7287 157.902 56.7287 157.902C56.7287 157.902 57.2066 148.621 57.7243 139.993C57.7541 139.493 58.1076 138.888 58.1349 138.394C58.1673 137.822 57.9433 137.078 57.9731 136.523C58.0055 135.885 58.2892 135.437 58.3166 134.827C58.5282 130.114 57.3406 124.375 56.9623 123.81C55.8199 122.104 54.792 120.741 54.792 120.741C54.792 120.741 39.4053 115.705 35.2938 120.822L34.3536 128.02Z" fill="#2F2E41"/>
<path d="M49.6999 80.5818L43.6003 79.3667L40.7538 83.2146C35.4425 88.4167 35.3624 93.0078 36.3106 100.367V110.696L35.6244 117.62C35.6244 117.62 33.195 122.681 35.7006 123.86C38.2063 125.038 54.6646 124.938 56.236 124.467C57.8074 123.997 56.4453 123.419 56.0327 121.227C55.2576 117.109 55.776 119.095 55.8294 117.784C56.5942 98.9753 54.8128 91.2535 54.6319 89.2239L51.5298 83.6197L49.6999 80.5818Z" fill="#3F3D56"/>
<path d="M81.8483 95.747C81.2126 96.9468 79.7208 97.4061 78.5163 96.7729C78.3879 96.7054 78.2657 96.6267 78.1512 96.5378L64.9785 104.869L65.0165 100.333L77.8127 92.9362C78.7242 91.9183 80.2915 91.8291 81.3134 92.737C82.1686 93.4967 82.3897 94.7411 81.8483 95.747Z" fill="#A0616A"/>
<path d="M44.884 85.8349L43.3843 85.6766C41.9986 85.5334 40.639 86.1246 39.8023 87.234C39.4818 87.6548 39.2516 88.1367 39.126 88.6498L39.1251 88.6539C38.749 90.1984 39.339 91.817 40.6224 92.7613L45.8021 96.5651C49.437 101.458 56.2685 104.703 64.2819 107.34L76.7376 99.635L72.332 94.3201L63.7886 98.8809L51.0892 89.0887L51.0818 89.0828L46.2484 85.981L44.884 85.8349Z" fill="#3F3D56"/>
<path d="M47.6389 77.5983C51.5673 77.5983 54.7519 74.4262 54.7519 70.5132C54.7519 66.6002 51.5673 63.428 47.6389 63.428C43.7105 63.428 40.5259 66.6002 40.5259 70.5132C40.5259 74.4262 43.7105 77.5983 47.6389 77.5983Z" fill="#A0616A"/>
<path d="M47.8032 77.5999C47.7459 77.6017 47.6884 77.603 47.631 77.6046C47.6064 77.6681 47.5799 77.731 47.5493 77.7928L47.8032 77.5999Z" fill="#2F2E41"/>
<path d="M49.7554 70.7097C49.7665 70.7795 49.7836 70.8483 49.8064 70.9152C49.797 70.8451 49.7799 70.7762 49.7554 70.7097Z" fill="#2F2E41"/>
<path d="M54.8425 63.7312C54.5497 64.6367 54.2884 63.488 53.3253 63.6947C52.1667 63.9432 50.8184 63.8578 49.8696 63.1504C48.4559 62.1172 46.6238 61.8391 44.9652 62.4059C43.3417 62.978 40.6218 63.3814 40.1988 65.0442C40.0517 65.6222 39.9933 66.2494 39.6369 66.7284C39.3253 67.1473 38.8334 67.3861 38.4221 67.7084C37.0333 68.7968 38.0948 71.8891 38.7521 73.5231C39.4094 75.157 40.9172 76.3473 42.5749 76.957C44.1789 77.5469 45.9197 77.6509 47.6308 77.6046C47.9284 76.8357 47.7998 75.9477 47.5543 75.1507C47.2884 74.2879 46.8948 73.4552 46.7837 72.5594C46.6727 71.6637 46.9166 70.6462 47.6706 70.1457C48.3636 69.6857 49.4915 69.966 49.7551 70.7097C49.6013 69.7799 50.5469 68.88 51.522 68.7218C52.5689 68.5519 53.6158 68.9284 54.6597 69.1158C55.7035 69.3031 55.333 64.9256 54.8425 63.7312Z" fill="#2F2E41"/>
<path d="M94.624 82.2334C95.2871 74.2529 89.3297 67.248 81.3178 66.5875C73.3059 65.927 66.2734 71.8611 65.6103 79.8416C64.9472 87.8221 70.9046 94.8271 78.9165 95.4875C86.9284 96.148 93.9609 90.214 94.624 82.2334Z" fill="#B99750"/>
<path d="M83.9405 74.9961L80.1168 78.8048L76.2931 74.9961C75.6741 74.3796 74.6706 74.3796 74.0516 74.9961C73.4327 75.6127 73.4327 76.6123 74.0516 77.2288L77.8753 81.0375L74.0516 84.8463C73.4332 85.4634 73.4342 86.463 74.0537 87.079C74.6724 87.6941 75.6744 87.6941 76.2931 87.079L80.1168 83.2702L83.9405 87.079C84.5601 87.6949 85.5636 87.694 86.182 87.0769C86.7996 86.4606 86.7996 85.4626 86.182 84.8463L82.3583 81.0375L86.182 77.2288C86.801 76.6123 86.801 75.6127 86.182 74.9961C85.5631 74.3796 84.5595 74.3796 83.9405 74.9961Z" fill="white"/>
<path d="M74.3807 68.8507C74.8098 70.1382 74.1098 71.5285 72.8172 71.9559C72.6794 72.0014 72.5378 72.0348 72.3941 72.0556L69.3101 87.2916L66.0503 84.124L69.5506 69.8055C69.4442 68.4456 70.4647 67.2573 71.8299 67.1513C72.9722 67.0626 74.0268 67.7652 74.3807 68.8507Z" fill="#A0616A"/>
<path d="M41.6091 88.5579L40.4562 89.5263C39.3932 90.4231 38.8802 91.8096 39.1047 93.1792C39.1876 93.7008 39.3774 94.1999 39.6622 94.6454L39.6645 94.6489C40.523 95.9885 42.104 96.685 43.6766 96.4163L50.0182 95.3266C56.079 96.1009 63.1599 93.4377 70.6179 89.5034L73.6589 75.216L66.7586 74.7031L64.1479 84.0015L48.2622 86.3504L48.2529 86.3516L42.6596 87.6783L41.6091 88.5579Z" fill="#3F3D56"/>
<path d="M77.7189 186.913L0.337952 187C0.150703 186.999 -0.000604701 186.848 1.81707e-06 186.661C0.00060264 186.476 0.151555 186.325 0.337952 186.325L77.7189 186.237C77.9061 186.238 78.0574 186.39 78.0568 186.576C78.0562 186.762 77.9053 186.912 77.7189 186.913Z" fill="#CACACA"/>
<path d="M16.1673 25.7267C17.4972 25.7267 18.5753 24.6288 18.5753 23.2746C18.5753 21.9204 17.4972 20.8226 16.1673 20.8226C14.8374 20.8226 13.7593 21.9204 13.7593 23.2746C13.7593 24.6288 14.8374 25.7267 16.1673 25.7267Z" fill="#3F3D56"/>
<path d="M24.4861 25.7267C25.8161 25.7267 26.8942 24.6288 26.8942 23.2746C26.8942 21.9204 25.8161 20.8226 24.4861 20.8226C23.1562 20.8226 22.0781 21.9204 22.0781 23.2746C22.0781 24.6288 23.1562 25.7267 24.4861 25.7267Z" fill="#3F3D56"/>
<path d="M32.8045 25.7267C34.1344 25.7267 35.2125 24.6288 35.2125 23.2746C35.2125 21.9204 34.1344 20.8226 32.8045 20.8226C31.4746 20.8226 30.3965 21.9204 30.3965 23.2746C30.3965 24.6288 31.4746 25.7267 32.8045 25.7267Z" fill="#3F3D56"/>
<path d="M42.29 25.2126C42.216 25.2126 42.1422 25.1841 42.0864 25.1273L40.4616 23.4729C40.3533 23.3626 40.3533 23.1865 40.4616 23.0762L42.0864 21.4219C42.1967 21.31 42.3771 21.3082 42.4891 21.4175C42.6015 21.5271 42.6035 21.7067 42.4935 21.8186L41.0635 23.2746L42.4935 24.7307C42.6035 24.8426 42.6015 25.0222 42.4891 25.1318C42.4337 25.1858 42.3618 25.2126 42.29 25.2126Z" fill="#3F3D56"/>
<path d="M45.0201 25.2126C44.9482 25.2126 44.8764 25.1858 44.821 25.1318C44.7085 25.0222 44.7066 24.8427 44.8166 24.7307L46.2464 23.2746L44.8166 21.8186C44.7066 21.7067 44.7085 21.527 44.821 21.4175C44.9332 21.3078 45.1137 21.3099 45.2237 21.4219L46.8483 23.0762C46.9566 23.1865 46.9566 23.3626 46.8483 23.4729L45.2237 25.1273C45.1679 25.1841 45.0941 25.2126 45.0201 25.2126Z" fill="#3F3D56"/>
<path d="M130.021 21.1064H127C126.656 21.1064 126.376 21.3844 126.376 21.7276V24.7398C126.376 25.083 126.656 25.361 127 25.361H130.021C130.366 25.361 130.648 25.083 130.648 24.7398V21.7276C130.648 21.3844 130.366 21.1064 130.021 21.1064Z" fill="#3F3D56"/>
<path d="M122.617 21.1064H119.596C119.252 21.1064 118.973 21.3844 118.973 21.7276V24.7398C118.973 25.083 119.252 25.361 119.596 25.361H122.617C122.962 25.361 123.244 25.083 123.244 24.7398V21.7276C123.244 21.3844 122.962 21.1064 122.617 21.1064Z" fill="#3F3D56"/>
<path d="M136.997 21.2483H133.976C133.632 21.2483 133.353 21.5262 133.353 21.8695V24.8817C133.353 25.2249 133.632 25.5028 133.976 25.5028H136.997C137.342 25.5028 137.624 25.2249 137.624 24.8817V21.8695C137.624 21.5262 137.342 21.2483 136.997 21.2483Z" fill="#3F3D56"/>
<path d="M91.4598 22.3942H67.3101C66.8887 22.3942 66.5498 22.7345 66.5498 23.1515C66.5498 23.5684 66.8887 23.9088 67.3101 23.9088H91.4598C91.8784 23.9088 92.2201 23.5684 92.2201 23.1515C92.2201 22.7345 91.8784 22.3942 91.4598 22.3942Z" fill="#3F3D56"/>
</g>
<defs>
<clipPath id="clip0_41_2222">
<rect width="167" height="187" fill="white"/>
</clipPath>
</defs>
</svg>
