<svg width="251" height="152" viewBox="0 0 251 152" fill="none" xmlns="http://www.w3.org/2000/svg">
<g clip-path="url(#clip0_41_1822)">
<path d="M20.7793 32.9771C27.9231 32.9771 33.7143 27.1887 33.7143 20.0482C33.7143 12.9077 27.9231 7.11924 20.7793 7.11924C13.6355 7.11924 7.84424 12.9077 7.84424 20.0482C7.84424 27.1887 13.6355 32.9771 20.7793 32.9771Z" fill="#FF6584"/>
<path d="M124.852 152C193.806 152 249.704 149.735 249.704 146.941C249.704 144.147 193.806 141.882 124.852 141.882C55.8982 141.882 0 144.147 0 146.941C0 149.735 55.8982 152 124.852 152Z" fill="#E6E6E6"/>
<path d="M31.7752 83.5377C49.3242 83.5377 63.5504 69.3181 63.5504 51.7775C63.5504 34.2368 49.3242 20.0172 31.7752 20.0172C14.2262 20.0172 0 34.2368 0 51.7775C0 69.3181 14.2262 83.5377 31.7752 83.5377Z" fill="#B99750"/>
<path d="M34.8381 147.441H28.3298L31.2967 46.9942L34.8381 147.441Z" fill="#3F3D56"/>
<path d="M31.8708 66.0312L38.8577 56.3694L31.7752 68.4228L31.0095 67.0835L31.8708 66.0312Z" fill="#3F3D56"/>
<path d="M31.105 75.7889L24.1184 66.1271L31.2009 78.1805L31.9666 76.8412L31.105 75.7889Z" fill="#3F3D56"/>
<path d="M232.692 147.547H226.184L229.15 47.0999L232.692 147.547Z" fill="#3F3D56"/>
<path d="M229.725 66.1369L236.711 56.475L229.629 68.5285L228.863 67.1892L229.725 66.1369Z" fill="#3F3D56"/>
<path d="M228.959 75.8946L221.972 66.2327L229.055 78.2862L229.82 76.9469L228.959 75.8946Z" fill="#3F3D56"/>
<path d="M129.085 147.53C161.776 147.53 188.278 121.041 188.278 88.3646C188.278 55.6887 161.776 29.1997 129.085 29.1997C96.3936 29.1997 69.8921 55.6887 69.8921 88.3646C69.8921 121.041 96.3936 147.53 129.085 147.53Z" fill="#3F3D56"/>
<path d="M129.085 142.632C159.07 142.632 183.378 118.336 183.378 88.3646C183.378 58.3937 159.07 34.0974 129.085 34.0974C99.0997 34.0974 74.792 58.3937 74.792 88.3646C74.792 118.336 99.0997 142.632 129.085 142.632Z" fill="white"/>
<path d="M128.889 95.8092C132.894 95.8092 136.141 92.5639 136.141 88.5606C136.141 84.5572 132.894 81.3119 128.889 81.3119C124.884 81.3119 121.637 84.5572 121.637 88.5606C121.637 92.5639 124.884 95.8092 128.889 95.8092Z" fill="#3F3D56"/>
<path d="M130.457 36.8402H127.321V42.7175H130.457V36.8402Z" fill="#3F3D56"/>
<path d="M130.457 134.404H127.321V140.281H130.457V134.404Z" fill="#3F3D56"/>
<path d="M83.0242 90.1278V86.9933H77.1441V90.1278H83.0242Z" fill="#3F3D56"/>
<path d="M180.634 90.1278V86.9933H174.754V90.1278H180.634Z" fill="#3F3D56"/>
<path d="M126.798 91.7073L129.478 85.582L163.06 104.172L126.798 91.7073Z" fill="#3F3D56"/>
<path d="M136.729 14.8982H121.441V32.5301H136.729V14.8982Z" fill="#3F3D56"/>
<path d="M129.085 19.7959C138.828 19.7959 146.725 17.6031 146.725 14.8982C146.725 12.1932 138.828 10.0004 129.085 10.0004C119.343 10.0004 111.445 12.1932 111.445 14.8982C111.445 17.6031 119.343 19.7959 129.085 19.7959Z" fill="#3F3D56"/>
<path d="M162.111 98.8459L161.131 100.217C161.131 100.217 156.623 105.507 156.427 102.96C156.231 100.413 159.759 98.65 159.759 98.65L161.719 97.4745L162.111 98.8459Z" fill="#FFB8B8"/>
<path d="M190.011 103.473L190.832 104.945C190.832 104.945 193.686 111.281 191.299 110.368C188.912 109.455 188.828 105.514 188.828 105.514L188.604 103.24L190.011 103.473Z" fill="#FFB8B8"/>
<path d="M185.599 77.3676C188.895 77.3676 191.567 74.6968 191.567 71.4022C191.567 68.1076 188.895 65.4368 185.599 65.4368C182.303 65.4368 179.631 68.1076 179.631 71.4022C179.631 74.6968 182.303 77.3676 185.599 77.3676Z" fill="#2F2E41"/>
<path d="M185.044 120.396L185.828 125.49V127.057H190.336V125.098C190.336 125.098 190.532 121.572 189.748 120.592C188.964 119.612 185.044 120.396 185.044 120.396Z" fill="#FFB8B8"/>
<path d="M177.008 120.396L177.792 125.49V127.057H182.3V125.098C182.3 125.098 182.496 121.572 181.712 120.592C180.928 119.612 177.008 120.396 177.008 120.396Z" fill="#FFB8B8"/>
<path d="M180.041 79.4806C180.041 79.4806 178.307 80.3941 179.491 82.4719C180.676 84.5498 187.624 106.047 187.624 106.047L191.633 104.909L188.098 91.314L186.074 82.7692L180.041 79.4806Z" fill="#B99750"/>
<path d="M184.946 77.5896C187.435 77.5896 189.454 75.5722 189.454 73.0836C189.454 70.5951 187.435 68.5777 184.946 68.5777C182.456 68.5777 180.438 70.5951 180.438 73.0836C180.438 75.5722 182.456 77.5896 184.946 77.5896Z" fill="#FFB8B8"/>
<path d="M187.004 73.7693L186.416 82.9771L182.3 80.0384C182.3 80.0384 183.672 74.5529 183.28 74.1611L187.004 73.7693Z" fill="#FFB8B8"/>
<path d="M187.004 82.1935L182.57 78.9115C182.57 78.9115 180.536 78.0793 179.948 79.0589C179.36 80.0384 176.42 94.5358 177.988 97.2786C177.988 97.2786 186.416 99.0418 188.18 98.0622L188.964 92.9686C188.964 92.9686 189.944 89.834 188.376 87.8749L187.004 82.1935Z" fill="#B99750"/>
<path d="M181.123 79.2548C181.123 79.2548 179.555 78.0793 178.183 80.0384C176.811 81.9975 160.347 97.4745 160.347 97.4745L163.091 100.609L173.871 91.5972L180.731 86.1117L181.123 79.2548Z" fill="#B99750"/>
<path d="M188.278 97.9643C188.278 97.9643 178.575 96.1031 177.595 97.4745L177.399 99.6295C177.399 99.6295 175.243 103.744 176.419 110.405C177.595 117.066 176.811 121.18 176.811 121.18C176.811 121.18 182.103 120.592 186.024 121.18C189.944 121.767 190.532 121.18 190.532 121.18L188.278 97.9643Z" fill="#2F2E41"/>
<path d="M190.728 126.273L185.044 126.469L187.004 141.163C187.004 141.163 185.436 147.432 187.2 147.823C188.426 148.071 189.673 148.202 190.924 148.215C190.924 148.215 192.688 149.979 194.648 149.783C195.95 149.616 197.211 149.218 198.372 148.607C198.372 148.607 198.764 147.432 197.392 147.04C196.02 146.648 192.296 145.473 191.512 141.358L190.728 126.273Z" fill="#2F2E41"/>
<path d="M182.692 126.273L177.008 126.469L178.968 141.163C178.968 141.163 177.4 147.432 179.164 147.823C180.39 148.071 181.637 148.202 182.888 148.215C182.888 148.215 184.652 149.979 186.612 149.783C187.914 149.616 189.175 149.218 190.336 148.607C190.336 148.607 190.728 147.432 189.356 147.04C187.984 146.648 184.26 145.473 183.476 141.358L182.692 126.273Z" fill="#2F2E41"/>
<path d="M187.687 67.5921C189.051 67.5921 190.156 66.487 190.156 65.1237C190.156 63.7604 189.051 62.6553 187.687 62.6553C186.323 62.6553 185.217 63.7604 185.217 65.1237C185.217 66.487 186.323 67.5921 187.687 67.5921Z" fill="#2F2E41"/>
<path d="M190.98 63.7866C190.98 63.1765 190.754 62.588 190.345 62.1346C189.937 61.6812 189.375 61.3952 188.768 61.3315C188.853 61.3227 188.939 61.3182 189.025 61.3182C189.68 61.3182 190.308 61.5783 190.771 62.0412C191.234 62.5041 191.494 63.132 191.494 63.7866C191.494 64.4413 191.234 65.0691 190.771 65.5321C190.308 65.995 189.68 66.255 189.025 66.255C188.939 66.255 188.853 66.2506 188.768 66.2417C189.375 66.1781 189.937 65.892 190.345 65.4387C190.754 64.9853 190.98 64.3968 190.98 63.7866Z" fill="#2F2E41"/>
<path d="M184.905 72.6058C187.178 72.6058 189.021 71.5007 189.021 70.1374C189.021 68.7741 187.178 67.669 184.905 67.669C182.632 67.669 180.789 68.7741 180.789 70.1374C180.789 71.5007 182.632 72.6058 184.905 72.6058Z" fill="#2F2E41"/>
<path d="M249.736 11.8472C249.568 8.87603 248.35 6.06111 246.298 3.90432C244.247 1.74752 241.496 0.389044 238.536 0.071089C235.575 -0.246866 232.598 0.496371 230.135 2.16828C227.672 3.8402 225.883 6.33211 225.087 9.19973C224.935 9.19428 224.783 9.18816 224.63 9.18816C221.915 9.18866 219.274 10.0675 217.102 11.6933C214.929 13.3191 213.341 15.6043 212.576 18.2072C210.777 17.4173 208.767 17.246 206.861 17.7199C204.955 18.1939 203.259 19.2865 202.041 20.8265H241.229C242.372 20.8297 243.504 20.6023 244.557 20.158C245.611 19.7136 246.563 19.0613 247.359 18.2402C248.154 17.4192 248.775 16.4462 249.185 15.3795C249.595 14.3128 249.786 13.1744 249.745 12.0324C249.743 11.9708 249.74 11.909 249.736 11.8472Z" fill="#E6E6E6"/>
<path d="M216.975 38.2747C218.839 38.2747 220.35 36.7647 220.35 34.902C220.35 33.0392 218.839 31.5292 216.975 31.5292C215.112 31.5292 213.601 33.0392 213.601 34.902C213.601 36.7647 215.112 38.2747 216.975 38.2747Z" fill="#E6E6E6"/>
<path d="M227.164 29.7583C228.715 29.7583 229.973 28.501 229.973 26.95C229.973 25.399 228.715 24.1417 227.164 24.1417C225.612 24.1417 224.354 25.399 224.354 26.95C224.354 28.501 225.612 29.7583 227.164 29.7583Z" fill="#E6E6E6"/>
<path d="M240.877 45.5824C242.74 45.5824 244.251 44.0724 244.251 42.2096C244.251 40.3469 242.74 38.8369 240.877 38.8369C239.013 38.8369 237.502 40.3469 237.502 42.2096C237.502 44.0724 239.013 45.5824 240.877 45.5824Z" fill="#E6E6E6"/>
<path d="M215.288 61.0409C217.152 61.0409 218.662 59.5309 218.662 57.6682C218.662 55.8054 217.152 54.2954 215.288 54.2954C213.424 54.2954 211.914 55.8054 211.914 57.6682C211.914 59.5309 213.424 61.0409 215.288 61.0409Z" fill="#E6E6E6"/>
<path d="M240.877 80.4343C242.74 80.4343 244.251 78.9243 244.251 77.0616C244.251 75.1989 242.74 73.6888 240.877 73.6888C239.013 73.6888 237.502 75.1989 237.502 77.0616C237.502 78.9243 239.013 80.4343 240.877 80.4343Z" fill="#E6E6E6"/>
<path d="M235.529 142.096C235.53 142.06 235.534 142.024 235.534 141.987C235.535 141.422 235.394 140.866 235.123 140.37C234.852 139.874 234.461 139.454 233.985 139.148C233.509 138.843 232.964 138.662 232.4 138.623C231.836 138.583 231.271 138.686 230.758 138.922C230.276 138.366 229.624 137.983 228.904 137.833C228.183 137.682 227.433 137.772 226.768 138.088C226.103 138.404 225.561 138.929 225.223 139.584C224.886 140.238 224.772 140.984 224.9 141.709C224.883 141.709 224.866 141.706 224.849 141.706C224.312 141.705 223.782 141.833 223.304 142.078C222.826 142.323 222.413 142.678 222.101 143.115C221.788 143.551 221.584 144.056 221.505 144.587C221.427 145.118 221.477 145.661 221.65 146.169C221.824 146.677 222.116 147.136 222.503 147.509C222.89 147.881 223.36 148.156 223.875 148.31C224.39 148.464 224.934 148.493 225.462 148.395C225.99 148.296 226.487 148.073 226.911 147.744C227.179 148.266 227.578 148.709 228.07 149.029C228.561 149.349 229.127 149.536 229.713 149.57C230.298 149.605 230.883 149.486 231.408 149.226C231.934 148.966 232.383 148.573 232.71 148.087C233.112 148.379 233.573 148.578 234.06 148.671C234.548 148.765 235.05 148.749 235.531 148.626C236.012 148.502 236.46 148.274 236.843 147.958C237.225 147.642 237.533 147.245 237.744 146.796C237.956 146.347 238.065 145.856 238.065 145.36C238.065 144.864 237.955 144.374 237.743 143.925C237.532 143.476 237.224 143.079 236.841 142.763C236.458 142.447 236.01 142.219 235.529 142.096Z" fill="#E6E6E6"/>
<path d="M243.97 64.9758C244.746 64.9758 245.376 64.3466 245.376 63.5705C245.376 62.7944 244.746 62.1652 243.97 62.1652C243.193 62.1652 242.564 62.7944 242.564 63.5705C242.564 64.3466 243.193 64.9758 243.97 64.9758Z" fill="#E6E6E6"/>
<path d="M234.972 31.2481C235.748 31.2481 236.378 30.619 236.378 29.8428C236.378 29.0667 235.748 28.4375 234.972 28.4375C234.195 28.4375 233.566 29.0667 233.566 29.8428C233.566 30.619 234.195 31.2481 234.972 31.2481Z" fill="#E6E6E6"/>
<path d="M230.192 66.1001C230.968 66.1001 231.598 65.4709 231.598 64.6948C231.598 63.9186 230.968 63.2894 230.192 63.2894C229.415 63.2894 228.786 63.9186 228.786 64.6948C228.786 65.4709 229.415 66.1001 230.192 66.1001Z" fill="#E6E6E6"/>
<path d="M231.316 64.6948C232.093 64.6948 232.722 64.0656 232.722 63.2894C232.722 62.5133 232.093 61.8841 231.316 61.8841C230.54 61.8841 229.91 62.5133 229.91 63.2894C229.91 64.0656 230.54 64.6948 231.316 64.6948Z" fill="#E6E6E6"/>
<path d="M232.16 63.2894C232.936 63.2894 233.566 62.6603 233.566 61.8841C233.566 61.108 232.936 60.4788 232.16 60.4788C231.383 60.4788 230.754 61.108 230.754 61.8841C230.754 62.6603 231.383 63.2894 232.16 63.2894Z" fill="#E6E6E6"/>
<path d="M228.785 75.0941C229.562 75.0941 230.191 74.465 230.191 73.6888C230.191 72.9127 229.562 72.2835 228.785 72.2835C228.009 72.2835 227.379 72.9127 227.379 73.6888C227.379 74.465 228.009 75.0941 228.785 75.0941Z" fill="#E6E6E6"/>
<path d="M249.594 90.8337C250.37 90.8337 251 90.2045 251 89.4284C251 88.6523 250.37 88.0231 249.594 88.0231C248.817 88.0231 248.188 88.6523 248.188 89.4284C248.188 90.2045 248.817 90.8337 249.594 90.8337Z" fill="#E6E6E6"/>
<path d="M219.506 91.6769C220.283 91.6769 220.912 91.0477 220.912 90.2716C220.912 89.4955 220.283 88.8663 219.506 88.8663C218.73 88.8663 218.1 89.4955 218.1 90.2716C218.1 91.0477 218.73 91.6769 219.506 91.6769Z" fill="#E6E6E6"/>
<path d="M221.193 48.393C221.97 48.393 222.599 47.7639 222.599 46.9877C222.599 46.2116 221.97 45.5824 221.193 45.5824C220.417 45.5824 219.787 46.2116 219.787 46.9877C219.787 47.7639 220.417 48.393 221.193 48.393Z" fill="#E6E6E6"/>
<path d="M227.661 73.6888C228.437 73.6888 229.067 73.0596 229.067 72.2835C229.067 71.5074 228.437 70.8782 227.661 70.8782C226.884 70.8782 226.255 71.5074 226.255 72.2835C226.255 73.0596 226.884 73.6888 227.661 73.6888Z" fill="#E6E6E6"/>
<path d="M226.255 71.4403C227.031 71.4403 227.661 70.8111 227.661 70.035C227.661 69.2588 227.031 68.6297 226.255 68.6297C225.478 68.6297 224.849 69.2588 224.849 70.035C224.849 70.8111 225.478 71.4403 226.255 71.4403Z" fill="#E6E6E6"/>
</g>
<defs>
<clipPath id="clip0_41_1822">
<rect width="251" height="152" fill="white"/>
</clipPath>
</defs>
</svg>
