<svg width="206" height="175" viewBox="0 0 206 175" fill="none" xmlns="http://www.w3.org/2000/svg">
<g clip-path="url(#clip0_43_2256)">
<path d="M68.7598 175C105.672 175 135.594 169.172 135.594 161.983C135.594 154.795 105.672 148.967 68.7598 148.967C31.8481 148.967 1.92529 154.795 1.92529 161.983C1.92529 169.172 31.8481 175 68.7598 175Z" fill="#3F3D56"/>
<path d="M15.2611 158.85C15.2611 158.85 2.86896 155.521 0.530962 155.767C-1.80704 156.013 4.07295 144.351 7.98893 145.773C11.9049 147.195 17.1262 150.936 20.1108 145.653C23.0955 140.369 24.7699 137.524 28.406 137.809C32.0421 138.093 37.0776 135.536 40.7113 137.809C44.345 140.082 46.8977 142.885 51.9164 142.765C56.935 142.644 61.693 131.269 65.6018 135.82C69.5105 140.371 74.1986 144.534 77.8732 143.02C81.5479 141.507 85.7414 143.782 89.0976 146.342C92.4538 148.902 98.329 147.764 100.566 145.773C102.802 143.782 104.484 142.36 109.237 142.639C113.99 142.919 129.097 146.337 134.692 150.594C140.288 154.851 127.42 160.265 121.265 160.265C115.11 160.265 113.993 161.971 108.677 164.531C103.362 167.091 94.6832 163.109 88.5378 167.376C82.3924 171.642 74.5436 165.1 63.9273 167.376C53.311 169.651 55.5355 172.778 49.3805 170.509C43.2254 168.241 45.4645 167.376 36.513 166.812C27.5616 166.248 17.7728 168.234 16.9332 164.536C16.0935 160.839 10.5055 159.985 7.14686 158.847C3.78824 157.71 15.2611 158.85 15.2611 158.85Z" fill="#3F3D56"/>
<path d="M169.613 128.169L170.095 127.861L170.238 127.769C169.181 127.59 168.217 127.057 167.504 126.257C166.792 125.458 166.373 124.44 166.317 123.37C166.26 122.301 166.57 121.245 167.195 120.375C167.82 119.505 168.723 118.874 169.755 118.585L169.731 120.528L170.8 118.414C171.419 118.385 172.038 118.479 172.621 118.689C173.204 118.899 173.74 119.222 174.198 119.639C174.656 120.056 175.028 120.559 175.291 121.119C175.555 121.68 175.705 122.286 175.734 122.905C175.734 122.997 175.734 123.083 175.734 123.173C176.111 122.763 176.425 122.3 176.665 121.799C177.119 120.789 177.126 119.648 177.092 118.26C177.02 115.512 176.902 112.742 176.747 109.98C175.631 109.857 174.596 109.34 173.828 108.522C173.06 107.704 172.609 106.639 172.556 105.518C172.549 105.376 172.549 105.234 172.556 105.092C172.556 105.055 172.556 105.019 172.556 104.986C172.556 104.848 172.578 104.713 172.6 104.578C172.599 104.556 172.599 104.535 172.6 104.513C172.617 104.4 172.641 104.289 172.667 104.178C172.667 104.137 172.689 104.096 172.699 104.055C172.732 103.935 172.769 103.814 172.812 103.698C172.827 103.66 172.841 103.624 172.858 103.585C172.892 103.498 172.928 103.414 172.967 103.33C172.986 103.286 173.005 103.24 173.027 103.197L173.044 103.163C173.543 102.179 174.372 101.401 175.385 100.964C176.399 100.528 177.534 100.46 178.593 100.772L178.562 103.301L179.619 101.213C180.303 101.607 180.878 102.167 181.289 102.841C181.701 103.515 181.936 104.281 181.974 105.07C181.993 105.478 181.958 105.888 181.87 106.287C181.87 106.321 181.85 106.352 181.843 106.386C181.836 106.42 181.812 106.511 181.795 106.572C181.778 106.632 181.749 106.728 181.723 106.813C181.696 106.897 181.684 106.928 181.662 106.986C181.641 107.044 181.592 107.15 181.556 107.227C181.534 107.273 181.515 107.321 181.493 107.37C181.433 107.49 181.368 107.611 181.298 107.726C181.274 107.767 181.245 107.806 181.221 107.844C181.17 107.922 181.119 108.001 181.064 108.085C181.008 108.17 180.994 108.177 180.958 108.22C180.922 108.264 180.854 108.351 180.798 108.413C180.743 108.476 180.719 108.5 180.678 108.543C180.637 108.587 180.562 108.664 180.499 108.722L180.376 108.837L180.162 109.016L180.051 109.103C179.937 109.185 179.824 109.262 179.703 109.344L179.636 109.382C179.536 109.443 179.434 109.498 179.329 109.549L179.194 109.609C179.11 109.647 179.023 109.686 178.933 109.717L178.779 109.773C178.692 109.804 178.605 109.831 178.516 109.855L178.357 109.896C178.26 109.92 178.161 109.939 178.062 109.956H178.043C178.107 111.123 178.165 112.288 178.217 113.454C178.498 112.876 178.894 112.362 179.381 111.944C179.868 111.525 180.436 111.21 181.049 111.018C181.662 110.827 182.308 110.762 182.947 110.829C183.586 110.896 184.205 111.093 184.765 111.407L183.933 113.692L185.648 112.046C186.568 112.886 187.116 114.056 187.173 115.3C187.194 115.737 187.154 116.174 187.052 116.599C186.839 117.522 186.352 118.358 185.656 119C184.959 119.642 184.085 120.06 183.148 120.199C182.21 120.337 181.253 120.191 180.4 119.778C179.547 119.365 178.838 118.705 178.366 117.884C178.366 118.002 178.366 118.125 178.366 118.238C178.398 119.463 178.436 120.986 177.826 122.336C177.389 123.213 176.801 124.006 176.089 124.679C175.659 125.115 175.215 125.537 174.762 125.947C174.313 126.547 173.728 127.032 173.056 127.362C172.308 127.937 171.534 128.476 170.735 128.979L170.317 129.283C169.869 129.563 169.408 129.847 168.956 130.144L169.198 130.124C170.198 130.078 171.186 130.35 172.021 130.901C172.856 131.453 173.494 132.255 173.842 133.193L170.894 135.603L174.139 134.851C174.136 135.647 173.932 136.429 173.546 137.124C173.16 137.82 172.604 138.407 171.93 138.83C171.256 139.254 170.486 139.501 169.691 139.548C168.896 139.594 168.102 139.44 167.383 139.098C167.458 139.188 167.531 139.279 167.603 139.371L168.032 139.906C169.963 142.336 170.486 144.64 169.536 146.397L168.38 145.773C169.304 144.062 167.914 141.873 167.002 140.711C166.865 140.535 166.722 140.359 166.58 140.183C165.354 138.662 163.964 136.936 163.998 134.82C164.022 131.628 167.123 129.71 169.613 128.169Z" fill="#F1F1F1"/>
<path d="M146.293 124.956L145.552 124.493C145.48 124.45 145.41 124.404 145.34 124.358C146.92 124.088 148.362 123.288 149.427 122.091C150.493 120.894 151.119 119.37 151.203 117.77C151.287 116.171 150.824 114.59 149.89 113.287C148.956 111.985 147.607 111.039 146.064 110.604L146.1 113.514L144.5 110.349H144.481C143.554 110.306 142.627 110.446 141.754 110.76C140.881 111.075 140.079 111.558 139.392 112.183C138.706 112.807 138.15 113.561 137.756 114.4C137.361 115.239 137.136 116.148 137.093 117.074C137.093 117.209 137.093 117.342 137.093 117.474C136.528 116.86 136.057 116.165 135.696 115.413C135.018 113.904 135.006 112.195 135.059 110.11C135.165 105.993 135.343 101.845 135.575 97.7107C137.245 97.5251 138.794 96.7505 139.944 95.5263C141.094 94.302 141.769 92.7083 141.848 91.0313C141.848 90.8144 141.848 90.6023 141.848 90.3902V90.2311C141.834 90.0262 141.815 89.8237 141.783 89.6236C141.783 89.5899 141.783 89.5585 141.766 89.5248C141.737 89.3561 141.701 89.1897 141.66 89.0234C141.646 88.9608 141.631 88.9005 141.614 88.8378C141.564 88.657 141.511 88.4811 141.445 88.3051C141.426 88.2473 141.402 88.1918 141.378 88.134C141.327 88.0038 141.274 87.8784 141.216 87.7531C141.185 87.6856 141.156 87.6205 141.125 87.5555C141.116 87.5391 141.107 87.5222 141.1 87.5048C140.535 86.3918 139.685 85.4484 138.636 84.7708C137.587 84.0933 136.377 83.7059 135.129 83.6481C134.343 83.6128 133.557 83.7073 132.803 83.9277L132.849 87.7145L131.268 84.5809C129.966 85.323 128.936 86.4616 128.329 87.8303C127.721 89.1991 127.567 90.7262 127.89 92.1884C127.89 92.2366 127.917 92.2848 127.929 92.3354C127.951 92.4294 127.975 92.521 127.999 92.6126C128.023 92.7042 128.071 92.8537 128.11 92.9621C128.149 93.0706 128.168 93.1357 128.202 93.2201C128.247 93.3454 128.303 93.4611 128.358 93.5889C128.39 93.6612 128.419 93.7335 128.453 93.8034C128.542 93.9842 128.638 94.1625 128.744 94.3361C128.781 94.3988 128.822 94.4566 128.86 94.5145C128.938 94.6326 129.012 94.7555 129.102 94.8616C129.152 94.9315 129.208 94.9966 129.261 95.0641C129.314 95.1316 129.418 95.2593 129.502 95.3533L129.681 95.5486C129.768 95.6402 129.857 95.7293 129.948 95.8161L130.134 95.9873C130.238 96.0789 130.347 96.1681 130.458 96.2524C130.513 96.2958 130.566 96.3416 130.624 96.385C130.791 96.5079 130.962 96.626 131.14 96.7321C131.174 96.7538 131.21 96.7707 131.244 96.79C131.394 96.8767 131.546 96.9611 131.7 97.031L131.905 97.1226C132.033 97.1805 132.161 97.2359 132.294 97.2841C132.371 97.3154 132.448 97.342 132.535 97.3685C132.665 97.4119 132.798 97.4528 132.931 97.489L133.172 97.5517C133.319 97.5854 133.466 97.6143 133.614 97.6408H133.642C133.543 99.386 133.456 101.131 133.382 102.876C132.96 102.012 132.367 101.243 131.637 100.616C130.907 99.9897 130.057 99.5185 129.139 99.2319C128.22 98.9452 127.253 98.8491 126.296 98.9494C125.339 99.0496 124.413 99.3443 123.574 99.8151L124.824 103.233L122.254 100.77C121.572 101.392 121.019 102.143 120.627 102.98C120.235 103.816 120.013 104.721 119.972 105.644C119.939 106.297 119.999 106.952 120.15 107.589C120.472 108.967 121.2 110.217 122.242 111.176C123.283 112.134 124.589 112.758 125.99 112.966C127.391 113.174 128.822 112.957 130.098 112.342C131.373 111.726 132.434 110.742 133.143 109.517C133.143 109.696 133.143 109.874 133.126 110.05C133.08 111.884 133.02 114.165 133.934 116.201C134.555 117.583 135.553 118.701 136.538 119.706C137.181 120.362 137.844 120.995 138.526 121.606C139.196 122.505 140.07 123.232 141.076 123.727C142.202 124.587 143.362 125.39 144.556 126.137L145.304 126.6C145.974 127.017 146.664 127.446 147.34 127.89C147.222 127.89 147.099 127.866 146.983 127.861C145.485 127.79 144.004 128.197 142.754 129.023C141.503 129.849 140.548 131.051 140.027 132.455L144.44 136.044L139.583 134.921C139.585 136.115 139.89 137.289 140.469 138.333C141.048 139.377 141.883 140.258 142.894 140.892C143.906 141.527 145.063 141.896 146.256 141.964C147.448 142.031 148.639 141.796 149.717 141.28C149.606 141.415 149.497 141.55 149.388 141.687C149.171 141.957 148.954 142.225 148.744 142.49C145.871 146.127 145.072 149.577 146.493 152.209L148.225 151.276C146.84 148.714 148.923 145.436 150.288 143.71C150.493 143.447 150.706 143.184 150.921 142.919C152.757 140.641 154.836 138.057 154.781 134.89C154.663 130.139 150.023 127.273 146.293 124.956Z" fill="#F1F1F1"/>
<path d="M110.499 161.395C110.499 161.395 102.148 159.187 100.575 159.349C99.002 159.51 102.961 151.794 105.599 152.734C108.236 153.675 111.756 156.153 113.766 152.655C115.776 149.157 116.903 147.275 119.356 147.463C121.81 147.651 125.198 145.956 127.647 147.463C130.096 148.969 131.814 150.823 135.196 150.743C138.579 150.664 141.781 143.134 144.418 146.144C147.055 149.155 150.209 151.915 152.684 150.912C155.16 149.909 157.993 151.416 160.249 153.111C162.504 154.805 166.466 154.053 167.969 152.734C169.473 151.416 170.609 150.476 173.813 150.664C177.017 150.852 187.192 153.111 190.961 155.936C194.73 158.761 186.061 162.335 181.915 162.335C177.77 162.335 177.015 163.466 173.434 165.16C169.854 166.855 164.012 164.218 159.867 167.043C155.722 169.868 150.445 165.536 143.284 167.043C136.123 168.55 137.631 170.62 133.483 169.114C129.336 167.607 130.846 167.043 124.817 166.667C118.787 166.291 112.19 167.607 111.623 165.16C111.056 162.714 107.28 162.147 105.029 161.395C102.778 160.643 110.499 161.395 110.499 161.395Z" fill="#3F3D56"/>
<path d="M179.659 135.367L176.426 145.267L176.286 145.698L170.874 162.273L161.609 168.528L116.618 149.627L120.881 132.402L121.108 131.496L123.39 122.276L123.395 122.254L137.245 120.523L179.659 135.367Z" fill="#F8CE6D"/>
<path opacity="0.1" d="M179.66 135.367L170.875 162.273L161.609 168.528L170.114 139.166L123.391 122.276L123.395 122.254L137.245 120.523L179.66 135.367Z" fill="black"/>
<path opacity="0.1" d="M133.486 124.122L132.74 123.669L140.215 122.886L172.238 134.196L171.335 134.668L139.745 123.539L133.486 124.122Z" fill="black"/>
<path opacity="0.1" d="M176.426 145.267L167.074 149.661L121.108 131.496L120.881 132.402L166.889 150.307L176.286 145.698" fill="black"/>
<path d="M126.66 128.779C126.923 127.931 126.394 127.013 125.478 126.729C124.562 126.445 123.605 126.902 123.341 127.75C123.078 128.598 123.607 129.516 124.523 129.8C125.44 130.084 126.396 129.627 126.66 128.779Z" fill="#3F3D56"/>
<path d="M167.173 144.451C167.437 143.603 166.908 142.685 165.991 142.4C165.075 142.116 164.119 142.573 163.855 143.421C163.592 144.269 164.121 145.187 165.037 145.471C165.953 145.756 166.91 145.299 167.173 144.451Z" fill="#3F3D56"/>
<path d="M160.77 163.914C161.034 163.066 160.505 162.148 159.589 161.864C158.672 161.579 157.716 162.036 157.452 162.884C157.189 163.733 157.718 164.65 158.634 164.935C159.55 165.219 160.507 164.762 160.77 163.914Z" fill="#3F3D56"/>
<path d="M121.703 147.584C121.967 146.736 121.438 145.818 120.521 145.534C119.605 145.249 118.649 145.706 118.385 146.554C118.121 147.402 118.651 148.32 119.567 148.604C120.483 148.889 121.44 148.432 121.703 147.584Z" fill="#3F3D56"/>
<path d="M128.87 123.267C128.773 123.58 127.999 123.267 127.014 122.958C126.03 122.649 125.263 122.312 125.359 121.994C125.456 121.676 126.382 121.512 127.367 121.818C128.351 122.124 128.969 122.953 128.87 123.267Z" fill="#3F3D56"/>
<path d="M133.826 122.137C133.923 121.824 133.278 121.346 132.385 121.069C131.491 120.792 130.688 120.821 130.591 121.134C130.494 121.446 131.139 121.925 132.033 122.202C132.926 122.479 133.729 122.45 133.826 122.137Z" fill="#3F3D56"/>
<path d="M149.707 130.888C149.61 131.202 148.643 130.913 147.704 130.621C146.766 130.329 146.035 130.004 146.131 129.69C146.228 129.377 147.118 129.208 148.061 129.49C149.005 129.772 149.808 130.57 149.707 130.888Z" fill="#3F3D56"/>
<path d="M169.723 138.069C169.615 138.421 168.587 138.115 167.591 137.806C166.594 137.498 165.82 137.144 165.928 136.792C166.037 136.44 166.99 136.225 167.986 136.534C168.983 136.842 169.834 137.717 169.723 138.069Z" fill="#3F3D56"/>
<path d="M175.577 137.226C175.466 137.577 174.44 137.271 173.444 136.963C172.448 136.654 171.671 136.3 171.782 135.948C171.893 135.596 172.843 135.382 173.84 135.69C174.836 135.999 175.685 136.874 175.577 137.226Z" fill="#3F3D56"/>
<path d="M178.463 135.507C178.352 135.859 177.498 135.608 176.682 135.353C175.867 135.097 175.235 134.789 175.333 134.437C175.432 134.085 176.255 133.824 177.078 134.08C177.901 134.335 178.571 135.155 178.463 135.507Z" fill="#3F3D56"/>
<path d="M159.134 128.464C159.047 128.743 158.169 128.485 157.334 128.222C156.499 127.96 155.831 127.666 155.92 127.386C156.009 127.106 156.806 126.945 157.65 127.205C158.495 127.466 159.218 128.181 159.134 128.464Z" fill="#3F3D56"/>
<path d="M140.349 121.856C140.446 121.543 139.899 121.095 139.128 120.856C138.357 120.617 137.653 120.676 137.556 120.989C137.459 121.302 138.005 121.749 138.776 121.989C139.547 122.228 140.251 122.168 140.349 121.856Z" fill="#3F3D56"/>
<path opacity="0.1" d="M149.084 140.35C149.187 140.018 149.174 139.662 149.047 139.34C148.919 139.017 148.686 138.747 148.385 138.575C148.528 138.412 148.636 138.221 148.701 138.014C148.779 137.762 148.791 137.495 148.734 137.237C148.678 136.98 148.556 136.741 148.38 136.545C148.204 136.349 147.98 136.201 147.73 136.118C147.48 136.034 147.213 136.016 146.954 136.066C147.056 135.716 147.028 135.342 146.877 135.01C146.726 134.678 146.461 134.412 146.13 134.259C145.799 134.106 145.424 134.076 145.073 134.176C144.723 134.275 144.419 134.497 144.218 134.801C144.022 134.659 143.794 134.566 143.555 134.529C143.316 134.493 143.071 134.513 142.842 134.59C142.612 134.667 142.404 134.797 142.234 134.969C142.065 135.142 141.939 135.353 141.868 135.584C141.868 135.618 141.851 135.649 141.844 135.68L141.79 135.707C141.621 135.555 141.42 135.442 141.201 135.378C140.982 135.313 140.752 135.299 140.527 135.335C140.302 135.371 140.088 135.458 139.901 135.587C139.713 135.717 139.558 135.887 139.445 136.085C139.332 136.283 139.265 136.504 139.249 136.731C139.233 136.958 139.268 137.186 139.351 137.398C139.435 137.61 139.565 137.8 139.732 137.955C139.899 138.11 140.099 138.226 140.316 138.293C140.395 138.318 140.476 138.336 140.558 138.346L140.577 138.906L147.878 141.887L147.83 141.405C148.118 141.367 148.388 141.247 148.611 141.06C148.833 140.873 148.997 140.626 149.084 140.35Z" fill="black"/>
<path opacity="0.1" d="M147.379 145.137C147.222 145.446 146.965 145.694 146.649 145.838C146.334 145.982 145.978 146.015 145.641 145.93C145.633 146.146 145.578 146.359 145.48 146.552C145.39 146.731 145.265 146.89 145.114 147.021C144.962 147.152 144.786 147.252 144.596 147.314C144.406 147.377 144.205 147.402 144.005 147.388C143.805 147.373 143.61 147.319 143.431 147.229C143.208 147.116 143.015 146.951 142.869 146.747C142.698 147.068 142.419 147.317 142.08 147.45C141.742 147.583 141.367 147.59 141.023 147.471C140.68 147.352 140.39 147.115 140.206 146.801C140.023 146.487 139.957 146.119 140.022 145.761C139.854 145.738 139.691 145.687 139.539 145.612C139.178 145.43 138.904 145.113 138.777 144.73C138.65 144.346 138.68 143.928 138.861 143.567L138.91 143.478L138.89 143.423C138.67 143.416 138.453 143.361 138.256 143.261C137.893 143.078 137.619 142.758 137.492 142.372C137.366 141.986 137.398 141.566 137.581 141.204C137.765 140.842 138.085 140.567 138.471 140.441C138.858 140.315 139.278 140.347 139.641 140.53C139.712 140.566 139.781 140.607 139.846 140.653L140.246 140.265L147.591 143.199L147.222 143.512C147.399 143.74 147.509 144.014 147.536 144.302C147.564 144.589 147.509 144.879 147.379 145.137Z" fill="black"/>
<path opacity="0.1" d="M142.896 137.069L141.122 142.811C140.991 143.232 141.027 143.687 141.221 144.082C141.415 144.478 141.754 144.785 142.167 144.939C142.387 145.021 142.621 145.057 142.855 145.045C143.089 145.033 143.319 144.974 143.529 144.87C143.74 144.767 143.927 144.622 144.079 144.444C144.232 144.266 144.346 144.059 144.416 143.835L146.189 138.091C146.257 137.868 146.279 137.634 146.253 137.402C146.228 137.171 146.156 136.947 146.041 136.744C145.927 136.541 145.772 136.364 145.587 136.222C145.401 136.081 145.189 135.979 144.963 135.921C144.537 135.813 144.086 135.871 143.701 136.085C143.317 136.298 143.029 136.65 142.896 137.069Z" fill="black"/>
<path d="M142.973 137.418L141.364 142.567C141.246 142.945 141.277 143.353 141.452 143.708C141.627 144.062 141.931 144.337 142.302 144.474C142.499 144.547 142.709 144.579 142.919 144.568C143.129 144.557 143.334 144.504 143.523 144.411C143.711 144.319 143.879 144.189 144.016 144.029C144.152 143.869 144.255 143.684 144.317 143.483L145.917 138.332C145.979 138.131 145.999 137.92 145.977 137.711C145.955 137.502 145.89 137.3 145.787 137.117C145.684 136.934 145.545 136.774 145.378 136.646C145.211 136.519 145.02 136.426 144.816 136.375C144.434 136.282 144.03 136.339 143.688 136.532C143.346 136.726 143.09 137.043 142.973 137.418Z" fill="#3F3D56"/>
<path d="M121.994 164.03C121.994 164.03 113.643 161.822 112.07 161.986C110.497 162.15 114.456 154.429 117.093 155.372C119.73 156.314 123.251 158.787 125.261 155.29C127.27 151.792 128.397 149.912 130.851 150.1C133.305 150.288 136.692 148.593 139.141 150.1C141.59 151.606 143.308 153.458 146.691 153.378C150.074 153.299 153.276 145.768 155.915 148.781C158.555 151.794 161.706 154.55 164.181 153.549C166.657 152.549 169.49 154.053 171.743 155.748C173.997 157.442 177.963 156.688 179.464 155.372C180.965 154.055 182.101 153.11 185.305 153.299C188.51 153.487 198.684 155.748 202.453 158.57C206.222 161.393 197.555 164.972 193.408 164.972C189.26 164.972 188.51 166.101 184.929 167.795C181.349 169.49 175.505 166.855 171.36 169.678C167.214 172.5 161.938 168.174 154.776 169.678C147.615 171.182 149.123 173.255 144.978 171.751C140.833 170.247 142.338 169.678 136.309 169.302C130.279 168.926 123.683 170.244 123.118 167.795C122.553 165.346 118.787 164.784 116.524 164.03C114.261 163.275 121.994 164.03 121.994 164.03Z" fill="#3F3D56"/>
<path d="M192.874 157.686C193.598 156.357 192.778 154.728 191.842 153.544C190.906 152.361 189.762 151.134 189.786 149.618C189.822 147.448 192.126 146.168 193.967 145.016C195.334 144.164 196.595 143.151 197.722 142.001C198.195 141.559 198.585 141.037 198.875 140.458C199.256 139.609 199.247 138.645 199.222 137.717C199.144 134.622 198.99 131.53 198.762 128.439" stroke="#3F3D56" stroke-width="4" stroke-miterlimit="10"/>
<path d="M202.262 128.271C202.237 127.704 202.069 127.153 201.773 126.669C201.478 126.184 201.065 125.782 200.573 125.499L199.816 126.998L199.84 125.183C199.478 125.077 199.1 125.031 198.723 125.048C198.056 125.081 197.415 125.31 196.879 125.707C196.343 126.104 195.936 126.651 195.711 127.278C195.485 127.906 195.451 128.586 195.612 129.233C195.773 129.88 196.122 130.464 196.616 130.913C197.109 131.362 197.724 131.655 198.384 131.755C199.044 131.855 199.718 131.757 200.323 131.475C200.927 131.192 201.434 130.737 201.779 130.167C202.125 129.596 202.294 128.937 202.265 128.271H202.262Z" fill="#57B793"/>
<path d="M196.223 151.168C195.868 151.855 195.287 152.4 194.577 152.711C193.868 153.022 193.073 153.079 192.326 152.874C191.579 152.669 190.925 152.214 190.474 151.585C190.024 150.955 189.803 150.19 189.849 149.418C189.896 148.645 190.207 147.912 190.73 147.341C191.253 146.771 191.957 146.397 192.723 146.283C193.489 146.168 194.271 146.321 194.939 146.714C195.606 147.108 196.117 147.719 196.387 148.444L194.271 150.172L196.6 149.635C196.597 150.168 196.468 150.694 196.223 151.168Z" fill="#57B793"/>
<path d="M194.551 144.599C193.71 144.658 192.877 144.4 192.217 143.876C191.556 143.353 191.116 142.602 190.982 141.77C190.847 140.938 191.029 140.087 191.491 139.382C191.954 138.678 192.663 138.172 193.48 137.963L193.463 139.356L194.228 137.84C194.673 137.818 195.118 137.883 195.537 138.033C195.957 138.183 196.342 138.414 196.672 138.713C197.002 139.012 197.269 139.374 197.458 139.777C197.647 140.18 197.755 140.616 197.775 141.061C197.794 141.451 197.745 141.842 197.63 142.215C197.426 142.882 197.02 143.468 196.469 143.895C195.918 144.322 195.248 144.568 194.551 144.599Z" fill="#57B793"/>
<path d="M202.772 139.135C202.252 139.154 201.735 139.053 201.26 138.839C200.786 138.626 200.367 138.306 200.037 137.904C199.707 137.503 199.474 137.031 199.357 136.524C199.239 136.018 199.24 135.492 199.36 134.986C199.48 134.48 199.715 134.009 200.047 133.609C200.379 133.209 200.798 132.891 201.274 132.679C201.749 132.468 202.266 132.369 202.786 132.39C203.306 132.412 203.814 132.553 204.27 132.802L203.671 134.441L204.902 133.26C205.561 133.864 205.955 134.704 205.995 135.596C206.011 135.909 205.983 136.224 205.911 136.529C205.743 137.246 205.346 137.889 204.779 138.359C204.213 138.829 203.508 139.102 202.772 139.135Z" fill="#57B793"/>
<path opacity="0.1" d="M201.807 129.172C201.025 129.257 200.265 129.5 199.481 129.548C198.697 129.596 197.835 129.411 197.341 128.801C197.073 128.473 196.938 128.059 196.713 127.699C196.499 127.366 196.206 127.09 195.859 126.897C195.655 127.323 195.542 127.788 195.53 128.261C195.517 128.734 195.603 129.204 195.784 129.641C195.965 130.078 196.236 130.473 196.579 130.799C196.922 131.125 197.33 131.375 197.776 131.533C198.222 131.691 198.696 131.754 199.168 131.718C199.64 131.681 200.099 131.545 200.516 131.32C200.932 131.095 201.296 130.785 201.585 130.41C201.873 130.034 202.079 129.603 202.19 129.143C202.063 129.148 201.935 129.158 201.807 129.172Z" fill="black"/>
<path opacity="0.1" d="M202.772 139.135C202.189 139.161 201.609 139.036 201.089 138.773C200.568 138.509 200.124 138.116 199.8 137.632C199.476 137.147 199.283 136.587 199.24 136.005C199.196 135.424 199.303 134.841 199.551 134.314C199.82 134.492 200.053 134.72 200.236 134.986C200.477 135.35 200.624 135.772 200.909 136.105C201.435 136.724 202.335 136.927 203.153 136.891C203.971 136.854 204.76 136.621 205.566 136.546C205.679 136.546 205.807 136.529 205.908 136.527C205.742 137.244 205.345 137.886 204.779 138.357C204.212 138.828 203.508 139.101 202.772 139.135Z" fill="black"/>
<path opacity="0.1" d="M194.551 144.599C193.973 144.628 193.397 144.507 192.879 144.249C192.361 143.991 191.918 143.605 191.592 143.127C191.267 142.648 191.07 142.095 191.02 141.518C190.97 140.942 191.069 140.363 191.308 139.836C191.59 140.019 191.835 140.252 192.032 140.523C192.295 140.894 192.459 141.323 192.756 141.666C193.328 142.3 194.288 142.524 195.154 142.504C196.021 142.485 196.8 142.28 197.632 142.215C197.428 142.882 197.022 143.469 196.471 143.896C195.919 144.323 195.248 144.568 194.551 144.599Z" fill="black"/>
<path opacity="0.1" d="M196.223 151.168C195.857 151.985 195.181 152.624 194.343 152.944C193.505 153.263 192.574 153.237 191.756 152.871C190.938 152.505 190.298 151.829 189.979 150.992C189.659 150.155 189.685 149.225 190.051 148.408C190.33 148.591 190.579 148.814 190.792 149.071C191.115 149.461 191.328 149.907 191.699 150.276C192.392 150.956 193.509 151.24 194.505 151.262C195.079 151.264 195.653 151.233 196.223 151.168Z" fill="black"/>
<path d="M187.767 156.155C187.767 156.155 190.44 156.073 191.246 155.499C192.052 154.926 195.348 154.243 195.558 155.162C195.767 156.08 199.572 159.742 196.556 159.756C193.54 159.771 189.545 159.289 188.741 158.792C187.938 158.295 187.767 156.155 187.767 156.155Z" fill="#656380"/>
<path opacity="0.2" d="M196.617 159.438C193.598 159.462 189.605 158.956 188.802 158.474C188.189 158.1 187.945 156.765 187.863 156.148H187.774C187.774 156.148 187.943 158.303 188.739 158.799C189.535 159.296 193.536 159.78 196.554 159.763C197.425 159.763 197.724 159.448 197.71 158.99C197.582 159.26 197.259 159.431 196.617 159.438Z" fill="black"/>
<path d="M49.5107 43.1908C49.4934 43.0153 49.5191 42.8383 49.5855 42.6749C49.781 42.3278 50.2925 42.4218 50.6785 42.5207C52.2324 42.9112 53.8682 42.5568 55.4655 42.6484C57.0628 42.74 58.8652 43.5379 59.1861 45.1047C60.3467 44.2833 61.3468 43.2563 62.1369 42.0747C62.5809 41.4118 62.9669 40.6525 62.9066 39.8571C62.8197 38.7097 61.857 37.8516 60.9643 37.1236L58.3102 34.9542C57.9612 34.633 57.5575 34.3767 57.1183 34.1973C56.5054 33.9876 55.8347 34.0864 55.188 34.0864C53.2578 34.0864 51.19 33.209 49.4673 34.0864C48.7435 34.4552 48.2078 35.0868 47.6867 35.7039L45.3125 38.5121C45.1331 38.6907 45.0027 38.9123 44.9336 39.1556C44.8661 39.4979 45.0422 39.8354 45.1025 40.1801C45.2159 40.8068 44.9433 41.4745 45.1532 42.0771C45.4982 43.0775 46.7119 43.2197 47.455 43.791C47.7325 44.0055 48.1668 44.7286 48.4949 44.7214C49.0837 44.7142 49.4938 43.6512 49.5107 43.1908Z" fill="#3F3D56"/>
<path d="M49.9013 49.8967C49.8747 50.6777 49.4187 51.3719 48.9796 52.0203C48.3933 52.8833 47.7732 53.78 46.8467 54.262C51.5032 56.7183 56.9273 57.2897 61.9942 55.8578C62.8073 55.6167 63.7676 55.1154 63.7194 54.2693C62.7543 54.0065 61.7554 53.7342 60.935 53.1532C59.9554 52.459 59.3088 51.3791 58.8914 50.2607C58.474 49.1422 58.2616 47.9466 57.9697 46.7824C57.9506 46.663 57.8988 46.5512 57.8201 46.4594C57.6873 46.3644 57.5241 46.3215 57.3617 46.3388L54.1478 46.281C52.828 46.281 51.3948 46.2497 50.1691 46.8089C48.6442 47.5079 49.9447 48.5999 49.9013 49.8967Z" fill="#FFC0C6"/>
<path opacity="0.1" d="M49.9013 49.8967C49.8747 50.6777 49.4187 51.3719 48.9796 52.0203C48.3933 52.8833 47.7732 53.78 46.8467 54.262C51.5032 56.7183 56.9273 57.2897 61.9942 55.8578C62.8073 55.6167 63.7676 55.1154 63.7194 54.2693C62.7543 54.0065 61.7554 53.7342 60.935 53.1532C59.9554 52.459 59.3088 51.3791 58.8914 50.2607C58.474 49.1422 58.2616 47.9466 57.9697 46.7824C57.9506 46.663 57.8988 46.5512 57.8201 46.4594C57.6873 46.3644 57.5241 46.3215 57.3617 46.3388L54.1478 46.281C52.828 46.281 51.3948 46.2497 50.1691 46.8089C48.6442 47.5079 49.9447 48.5999 49.9013 49.8967Z" fill="black"/>
<path d="M47.1053 159.872C46.3139 161.077 45.2788 162.097 44.4102 163.247C43.5416 164.396 42.8153 165.737 42.8057 167.176C42.7941 167.267 42.8031 167.36 42.8319 167.447C42.8607 167.535 42.9086 167.615 42.9721 167.682C43.0709 167.746 43.1852 167.781 43.3027 167.785L46.6565 168.215C47.1663 168.303 47.686 168.321 48.2007 168.268C48.7549 168.158 49.2888 167.964 49.7835 167.691C50.1615 167.543 50.4907 167.293 50.7341 166.968C50.8958 166.703 50.9392 166.378 51.0936 166.108C51.5593 165.291 52.7319 165.327 53.6633 165.469C53.9311 162.984 53.2434 160.506 52.5606 158.1C52.5312 157.953 52.4675 157.814 52.3748 157.695C52.2529 157.578 52.1023 157.495 51.9381 157.454C51.1346 157.191 49.1923 156.162 48.5168 156.644C48.0221 157.001 47.5058 159.233 47.1053 159.872Z" fill="#575A88"/>
<path d="M63.2756 164.772C63.9198 164.471 64.6074 164.083 65.3023 164.242C66.2819 164.461 66.7186 165.618 67.551 166.17C68.0625 166.515 68.6947 166.616 69.3051 166.696C71.1851 166.939 73.0797 167.051 74.9752 167.031C75.5808 167.031 76.3433 166.886 76.4905 166.308C76.6376 165.729 76.0803 165.269 75.5857 164.968C74.512 164.31 73.3929 163.729 72.2367 163.23C71.6684 163.02 71.1311 162.735 70.6394 162.381C69.8118 161.714 69.4089 160.667 69.0397 159.672C68.743 158.872 68.4703 157.143 67.8623 156.538C67.1964 155.885 66.3012 156.319 65.4664 156.502C64.1683 156.786 62.6482 156.984 61.8134 158.148C60.5925 159.853 59.6539 166.448 63.2756 164.772Z" fill="#575A88"/>
<path d="M44.0915 87.8519C42.9831 90.5769 42.3735 93.4785 42.2916 96.4187C42.2337 98.6147 42.4701 100.803 42.709 102.987C43.0902 106.523 43.473 110.058 43.8575 113.593C43.9802 115.063 44.2117 116.523 44.5499 117.959C44.9674 119.562 45.6453 121.092 46.1303 122.669C47.6311 127.581 47.204 132.879 46.2124 137.92C46.0804 138.473 46.0108 139.039 46.0049 139.607C46.0338 140.458 46.362 141.268 46.5743 142.092C47.8724 147.118 44.8853 152.698 46.8349 157.519C46.8844 157.691 46.9928 157.841 47.1413 157.941C47.2392 157.978 47.3435 157.994 47.448 157.99C47.5525 157.985 47.655 157.96 47.7493 157.915C48.3047 157.721 48.8378 157.469 49.3393 157.163C50.3896 158.432 51.7465 159.414 53.2819 160.014C54.4255 159.732 54.6403 158.344 55.0142 157.228C55.2994 156.435 55.5315 155.624 55.7091 154.8C55.8745 153.79 55.9592 152.768 55.9625 151.744L56.9517 116.949L56.8793 127.567C56.8448 128.427 56.899 129.288 57.041 130.136C57.1858 130.843 57.4512 131.52 57.6032 132.226C57.8179 133.236 57.7914 134.282 57.7817 135.316C57.7216 141.449 58.2834 147.573 59.4586 153.593C59.8447 155.564 60.3079 157.555 61.2948 159.303C61.3272 159.383 61.3759 159.456 61.4378 159.516C61.4997 159.577 61.5733 159.624 61.6543 159.655C61.8642 159.701 62.0572 159.534 62.2165 159.387C63.1697 158.546 64.3608 158.02 65.6256 157.882C66.8904 157.745 68.1668 158.003 69.2787 158.621C69.0664 157.599 70.0412 156.41 69.3439 155.634C69.1436 155.41 68.8444 155.302 68.62 155.106C68.1761 154.728 68.0699 154.092 68.0072 153.511C67.7333 150.925 67.7333 148.318 68.0072 145.732C68.3474 142.5 69.1122 139.241 68.5476 136.042C68.1375 133.721 67.0324 131.462 67.252 129.126C67.3967 127.56 68.1254 126.116 68.6273 124.624C70.8181 118.101 68.6273 110.831 70.2125 104.135C70.5768 102.597 71.1269 100.934 70.4658 99.4993L71.4719 99.1932L69.3825 94.4277C68.9385 93.4129 68.4753 92.3691 67.6935 91.5881C66.3809 90.2841 64.4193 89.9346 62.588 89.6598L47.6914 87.3385C46.3716 87.124 44.591 86.6274 44.0915 87.8519Z" fill="#3C354C"/>
<path d="M53.4698 49.863C56.9917 49.863 59.8468 47.0106 59.8468 43.4921C59.8468 39.9735 56.9917 37.1212 53.4698 37.1212C49.9479 37.1212 47.0928 39.9735 47.0928 43.4921C47.0928 47.0106 49.9479 49.863 53.4698 49.863Z" fill="#FFC0C6"/>
<path d="M49.9931 51.0778C49.6838 50.895 49.3185 50.8308 48.9653 50.897C48.7916 50.9588 48.6288 51.0475 48.4827 51.1598L45.4667 53.2714C45.0343 53.5396 44.6488 53.8767 44.3255 54.2693C43.8091 54.9707 43.7271 55.9036 43.7947 56.7714C43.9442 58.7287 44.7356 60.5751 45.1651 62.489C45.5946 64.4029 45.5946 66.5868 44.3592 68.1198C44.1468 68.3397 43.9694 68.591 43.8333 68.8647C43.7596 69.0984 43.7262 69.3429 43.7343 69.5878C43.6896 70.504 43.709 71.4222 43.7922 72.3358C43.9274 73.5145 44.2748 74.6594 44.463 75.8285C44.7936 77.8196 44.7043 79.8612 44.96 81.8547C44.9487 81.988 44.9652 82.1223 45.0085 82.2489C45.0519 82.3755 45.1212 82.4917 45.212 82.5901C45.3028 82.6885 45.4131 82.7669 45.5358 82.8204C45.6586 82.8739 45.7912 82.9013 45.9252 82.9008C47.4165 83.1189 48.9228 83.218 50.4299 83.1973C52.1743 83.1973 53.9163 83.1009 55.6584 83.0093L63.5868 82.5923C63.6998 82.6068 63.8145 82.5965 63.923 82.562C64.0315 82.5276 64.1312 82.47 64.2151 82.3931C64.2989 82.3161 64.365 82.2219 64.4086 82.1168C64.4522 82.0117 64.4723 81.8984 64.4675 81.7848C65.1624 78.4535 65.8621 75.062 65.534 71.6777C65.3217 69.4914 64.6847 67.3726 64.0863 65.261C63.6037 63.5496 63.1405 61.7538 63.5024 60.011C63.7437 58.8612 64.33 57.7982 64.482 56.6364C64.5699 56.0317 64.5172 55.415 64.3281 54.834C64.1389 54.2529 63.8184 53.7232 63.3914 53.2858C62.5035 52.4349 61.2078 52.1119 60.3223 51.2586C60.0792 50.9827 59.8145 50.7264 59.5309 50.4921C59.3862 50.3768 59.2121 50.3044 59.0282 50.2831C58.8444 50.2618 58.6583 50.2925 58.491 50.3716C58.3278 50.4872 58.1926 50.6379 58.0953 50.8127C57.3232 51.9842 56.1651 53.915 54.5364 53.6112C52.7751 53.2955 51.5446 51.8251 49.9931 51.0778Z" fill="#57B793"/>
<path d="M65.9275 94.1481C65.3629 94.5699 64.943 95.3196 65.2036 95.9728C65.9706 96.1095 66.7613 95.9998 67.462 95.6594C67.9132 95.4401 68.4754 95.1315 68.8663 95.4497C68.9929 95.5714 69.0909 95.7196 69.1534 95.8836C69.5762 96.7791 70.0887 97.6295 70.6831 98.4218C71.1126 98.2194 71.5638 97.9976 71.8219 97.5999C71.9777 97.3289 72.0786 97.0299 72.1187 96.72C72.2701 95.9444 72.382 95.1616 72.4541 94.3747C72.5048 93.8034 72.5144 93.1694 72.1235 92.7452C70.4466 90.9373 67.3196 93.1092 65.9275 94.1481Z" fill="#FFC0C6"/>
<path d="M49.1128 40.7996C49.0956 40.6249 49.1212 40.4487 49.1876 40.2862C49.383 39.9391 49.8945 40.0451 50.2806 40.1295C51.8344 40.5224 53.4703 40.1681 55.0676 40.2597C56.6648 40.3513 58.4672 41.1491 58.7881 42.7159C59.949 41.8941 60.9499 40.8672 61.7414 39.686C62.1853 39.0231 62.5714 38.2638 62.511 37.4683C62.4242 36.3209 61.4615 35.4628 60.5687 34.7349L57.9147 32.5654C57.5656 32.245 57.1619 31.9895 56.7227 31.811C56.1099 31.6013 55.4391 31.7001 54.7925 31.7001C52.8623 31.7001 50.7945 30.8227 49.0717 31.7001C48.3479 32.0713 47.8123 32.7028 47.2887 33.3199L44.9169 36.1281C44.7377 36.3063 44.6066 36.5269 44.5357 36.7693C44.4681 37.1116 44.6443 37.4515 44.707 37.7937C44.818 38.4205 44.5478 39.0906 44.7553 39.6932C45.1003 40.6935 46.3163 40.8333 47.0595 41.407C47.3369 41.6216 47.7688 42.3447 48.0994 42.3351C48.6857 42.3254 49.0959 41.2624 49.1128 40.7996Z" fill="#3F3D56"/>
<path d="M64.8608 53.7221C65.5285 53.5646 66.2216 53.5476 66.8961 53.6721C67.5707 53.7966 68.212 54.0599 68.7792 54.4453C70.6033 55.6939 71.3537 57.9742 71.9883 60.0906L73.4094 64.8368C74.0319 66.917 74.6592 69.0165 74.804 71.1836C74.9367 73.1529 74.6665 75.1247 74.3962 77.0796C74.0222 79.7865 74.9029 82.7538 74.915 85.4849C74.915 88.6185 74.8957 91.9425 73.2984 94.6446C73.2321 94.4083 73.1098 94.1913 72.9418 94.0121C72.7738 93.833 72.5651 93.6969 72.3333 93.6154C71.871 93.4577 71.3861 93.3763 70.8977 93.3743L66.6511 93.1019C67.013 92.4911 67.3245 91.8518 67.5825 91.1904C69.2111 87.0107 68.5862 82.3392 67.9372 77.9039C67.886 77.481 67.8054 77.0622 67.6959 76.6505C67.2678 75.0683 67.1701 73.415 67.4088 71.7934C67.5059 71.06 67.531 70.3189 67.4836 69.5806C67.4762 69.2689 67.4099 68.9614 67.2881 68.6743C67.1632 68.4381 67.0056 68.2206 66.82 68.0283L65.9611 67.0641C65.8911 64.1474 65.4327 61.209 64.9791 58.3261C64.7589 56.8014 64.7192 55.2561 64.8608 53.7221Z" fill="#57B793"/>
<path d="M56.5173 66.6013C52.3926 63.4038 49.6448 58.7542 48.8349 53.6016C48.695 52.688 48.3306 51.4949 47.4065 51.5262C47.1266 51.5558 46.8574 51.6499 46.62 51.801L43.271 53.5944C43.0315 53.6915 42.8277 53.8598 42.6871 54.0765C42.4675 54.5055 42.7788 54.9997 43.0466 55.3998C44.849 58.1236 44.9769 61.5827 45.0492 64.8464C45.0709 65.8106 45.0782 66.8254 44.6125 67.6691C44.2337 68.3513 43.575 68.8526 43.2276 69.5541C42.9018 70.2121 42.8874 70.9738 42.8777 71.709C42.8102 76.9542 42.7426 82.2066 43.0177 87.447C43.0587 88.2376 43.1214 89.0668 43.5436 89.7369C43.9369 90.3564 44.586 90.7566 45.2133 91.135L50.2922 94.2011C51.2574 94.7869 52.2611 95.3822 53.3782 95.5703C54.4953 95.7583 55.7717 95.4401 56.4135 94.5072C56.7248 94.0541 56.8623 93.5021 57.1615 93.0417C57.4607 92.5813 58.0325 92.2077 58.5416 92.4126C58.9035 92.5572 59.1014 92.9356 59.2654 93.2851C59.5888 93.9528 59.9266 94.6374 60.455 95.1605C60.9834 95.6836 61.7482 96.0355 62.4745 95.8836C63.1018 95.7462 63.5916 95.2714 64.0428 94.8182C65.4374 93.4225 66.8465 92.0076 67.8719 90.3179C68.0195 90.1216 68.096 89.8811 68.0891 89.6357C68.0232 89.3969 67.894 89.1804 67.7151 89.009C67.0733 88.2232 66.8199 87.1939 66.6293 86.1959C64.7208 76.1684 67.4159 65.7455 65.932 55.6457C65.7631 54.4887 65.3915 53.4256 64.5229 52.6422C63.6543 51.8588 62.5734 51.3599 61.5094 50.8729C61.1595 50.7139 60.759 50.5499 60.4019 50.6946C59.8107 50.9356 59.8083 51.7479 59.8518 52.3819C59.902 53.6811 59.8374 54.9822 59.6587 56.27L59.14 61.0403C59.0904 61.7689 58.9543 62.4891 58.7346 63.1856C58.2784 64.4844 57.5182 65.6554 56.5173 66.6013Z" fill="#575A88"/>
<path d="M26.9339 28.7014C26.9339 28.7014 25.093 30.1959 22.919 26.2765C20.7451 22.3571 10.247 12.937 10.247 12.937C10.247 12.937 8.8886 11.6956 14.0496 9.62741C19.2106 7.55923 26.2584 0 26.2584 0C26.2584 0 38.0183 10.4446 39.1692 15.6174C40.3201 20.7903 37.8012 21.6677 33.4774 24.4156C29.1537 27.1636 26.9339 28.7014 26.9339 28.7014Z" fill="#3F3D56"/>
<path d="M60.6384 78.7235L30.9609 25.2906L33.4799 24.4156L62.6555 77.6171C62.7289 77.7519 62.7747 77.9 62.7901 78.0527C62.8056 78.2054 62.7904 78.3597 62.7455 78.5065C62.7005 78.6533 62.6268 78.7896 62.5284 78.9076C62.4301 79.0256 62.3093 79.1228 62.1729 79.1935C61.9062 79.3302 61.5967 79.3576 61.3101 79.2698C61.0235 79.182 60.7825 78.986 60.6384 78.7235Z" fill="#656380"/>
<path d="M48.4513 65.0826C49.2282 63.4218 48.432 61.5055 47.9012 59.7507C47.4783 58.3561 47.2263 56.9153 47.1508 55.46C47.1002 55.0022 47.1513 54.5388 47.3004 54.103C47.3792 53.8868 47.5184 53.6977 47.7014 53.558C47.8844 53.4184 48.1036 53.3339 48.333 53.3147C49.0259 54.3502 49.3025 55.6086 49.1076 56.8388C49.5571 56.7231 50.0131 56.6337 50.4732 56.5713C51.0697 56.4912 51.6753 56.624 52.1834 56.9464C52.6914 57.2687 53.0693 57.7599 53.2503 58.3333C54.0152 60.7824 54.2758 63.3953 53.2093 65.6853C52.8693 66.3629 52.4747 67.0119 52.0295 67.6257L49.7035 71.0196C49.5443 71.2607 49.3488 71.5017 49.069 71.5427C48.7891 71.5837 48.4971 71.3306 48.292 71.0968C47.5851 70.2989 46.3304 69.137 46.468 68.0379C46.6055 66.9387 47.988 66.0589 48.4513 65.0826Z" fill="#FFC0C6"/>
<path d="M43.0756 54.8454C40.7134 54.5778 38.0087 55.2166 36.7733 57.2559C36.1532 58.2851 35.9988 59.5193 35.8902 60.7149C35.7382 62.3902 35.649 64.0703 35.5645 65.748L35.1085 74.5799C35.053 75.6357 34.9999 76.6939 34.9806 77.7497C34.9256 78.5751 35.0146 79.4037 35.2436 80.1987C35.5356 81.0544 36.1146 81.7776 36.6913 82.4814C37.2679 83.1853 37.9894 83.9108 38.8363 83.7059C39.1829 83.5916 39.4977 83.3976 39.7555 83.1395L41.6858 81.4714C42.9983 80.3457 44.3254 79.2032 45.3243 77.7906C45.8068 77.1109 46.2025 76.3757 46.6899 75.7008C48.1231 73.7145 50.3284 72.208 51.0836 69.8795C50.3598 69.8409 49.3078 69.6023 48.9748 68.9611C48.7987 68.6212 48.7746 68.2163 48.5792 67.8909C48.2824 67.3943 47.614 67.1243 47.5151 66.5555C45.6186 68.0813 44.031 69.853 42.5158 71.7548L43.131 69.3661C43.1741 69.1417 43.2673 68.93 43.4037 68.7466C43.6195 68.5577 43.8638 68.404 44.1275 68.291C44.8779 67.8378 45.1626 66.9002 45.3146 66.0372C45.9929 62.1582 45.1942 58.1659 43.0756 54.8454Z" fill="#57B793"/>
</g>
<defs>
<clipPath id="clip0_43_2256">
<rect width="206" height="175" fill="white"/>
</clipPath>
</defs>
</svg>
