<svg width="15" height="20" viewBox="0 0 15 20" fill="none" xmlns="http://www.w3.org/2000/svg">
<g clip-path="url(#clip0_157_133)">
<path d="M2.5311 3.60127V3.32283C2.5311 2.19775 3.66475 1.38703 4.77426 1.72522C4.88847 1.75998 4.99906 1.80645 5.10483 1.86464V1.67289C5.10483 1.01526 5.49088 0.468926 6.02855 0.19283C6.93298 -0.271496 8.03324 0.138157 8.4181 1.03674C8.54598 1.33627 8.54879 1.56277 8.54879 1.87362C8.80174 1.73694 9.08887 1.66508 9.37802 1.66508C10.3267 1.66508 11.1028 2.41878 11.1028 3.34002L11.135 11.1047C11.3079 10.9446 11.4688 10.7895 11.5794 10.6829L11.6859 10.581C12.0257 10.251 12.38 10.0429 12.7247 9.93509C13.1127 9.81403 13.4887 9.82028 13.8185 9.92181C13.9592 9.96438 14.0916 10.0253 14.2126 10.1003C14.3353 10.1764 14.4462 10.2678 14.5428 10.3717C14.6393 10.476 14.7241 10.5935 14.7925 10.7212C14.8588 10.8446 14.9107 10.9778 14.9441 11.118C15.0591 11.5878 14.9879 12.0009 14.807 12.375C14.6284 12.7437 14.3441 13.0717 14.0288 13.3779L14.024 13.3822C13.8366 13.5657 13.5853 13.827 13.2913 14.1332C12.6161 14.8357 11.7149 15.7737 10.8261 16.5614C10.8499 16.3669 10.8627 16.1689 10.8627 15.9678C10.8627 15.7554 10.8487 15.5457 10.8221 15.3399C11.5564 14.6424 12.2727 13.8934 12.7842 13.358C13.2796 12.8398 14.2363 12.0966 14.0465 11.3246C13.9231 10.8356 13.4517 10.6197 12.9543 10.7966C12.7564 10.8669 12.5445 10.9996 12.3302 11.2078C12.2244 11.3105 11.9381 11.5882 11.6505 11.8502C11.5078 11.9806 11.3614 12.1087 11.2279 12.2153C11.1378 12.2872 10.7747 12.5812 10.6251 12.493L10.3387 12.3563C10.3248 12.3496 10.313 12.3395 10.3044 12.3269C10.2958 12.3144 10.2907 12.2999 10.2897 12.2848L10.202 10.8571C10.2016 9.44655 10.1968 8.59795 10.1924 7.31901C10.1871 5.95727 10.1823 4.59397 10.1823 3.34002C10.1821 3.13298 10.0973 2.93448 9.94646 2.78812C9.79567 2.64175 9.59122 2.55948 9.37802 2.55937C9.05389 2.55937 8.75871 2.75072 8.63485 3.04166C8.59584 3.13304 8.57413 3.2338 8.57413 3.34002V8.51946C8.57413 8.56671 8.53472 8.60459 8.48606 8.60459H7.71635C7.6681 8.60459 7.62869 8.56671 7.62869 8.51946V1.67563C7.62869 1.46826 7.54343 1.27027 7.39263 1.12343C6.87989 0.628258 6.02051 0.99183 6.02051 1.67563V8.51946C6.02051 8.56671 5.9811 8.60498 5.93284 8.60498H5.14544C5.12208 8.60498 5.09968 8.59597 5.08317 8.57993C5.06665 8.56389 5.05737 8.54214 5.05737 8.51946V3.32283C5.05737 3.21778 5.03566 3.11664 4.99625 3.02487C4.73003 2.39731 3.78941 2.37036 3.51072 3.02487C3.47131 3.11664 3.4496 3.21778 3.4496 3.32283V8.51946C3.4496 8.56671 3.41019 8.60498 3.36193 8.60498H2.61676C2.5934 8.60498 2.571 8.59597 2.55448 8.57993C2.53796 8.56389 2.52869 8.54214 2.52869 8.51946V5.08173C2.52869 4.97629 2.50737 4.87553 2.46796 4.78376C2.1937 4.14331 1.2559 4.14292 0.982037 4.78376C0.94152 4.87817 0.920741 4.97945 0.920911 5.08173V10.7845C0.881903 11.7772 0.918499 12.837 0.918499 13.8375C0.918499 14.0117 0.930965 14.1831 0.955094 14.3507C0.745017 14.9418 0.652226 15.5662 0.681635 16.1908C0.552547 15.9862 0.439946 15.771 0.345442 15.5468C0.122654 15.0189 0 14.4413 0 13.8375V5.08173C0 3.84144 1.37735 3.00339 2.5311 3.60127Z" fill="white"/>
<path d="M5.76893 11.9358C6.0448 11.9358 6.31544 11.9623 6.57845 12.0131C6.84628 12.0647 7.10646 12.142 7.35539 12.242C7.60794 12.3431 7.84882 12.4688 8.07443 12.6153C8.30325 12.7637 8.51437 12.932 8.70499 13.1167L8.71585 13.128C8.90325 13.3116 9.07295 13.5131 9.22175 13.7294C9.37215 13.9474 9.50124 14.1809 9.60579 14.4265C9.70874 14.6679 9.78877 14.9205 9.84185 15.1818C9.89413 15.4372 9.92148 15.7 9.92148 15.9679C9.92148 16.2358 9.89413 16.4986 9.84185 16.754C9.78877 17.0153 9.70874 17.2679 9.60579 17.5093L9.60097 17.5194C9.49721 17.7615 9.36974 17.9916 9.22175 18.2067C9.06974 18.4274 8.89601 18.6328 8.70419 18.8191C8.51236 19.005 8.30124 19.1733 8.07402 19.3209C7.84963 19.4669 7.60874 19.5923 7.35539 19.6938C7.10476 19.7946 6.84452 19.8713 6.57845 19.9227C6.31544 19.9734 6.0448 20 5.76893 20C5.49306 20 5.22201 19.9734 4.95941 19.9227C4.69158 19.8715 4.4314 19.7942 4.18207 19.6938C3.92952 19.5927 3.68904 19.4669 3.46303 19.3205C3.23622 19.1733 3.0251 19.0046 2.83327 18.8183C2.6411 18.6311 2.46817 18.4261 2.31692 18.2063C2.0138 17.7661 1.80308 17.2722 1.69681 16.7528C1.64382 16.4942 1.61715 16.2312 1.61719 15.9675C1.61719 15.6996 1.64453 15.4368 1.69681 15.1818C1.7499 14.9213 1.82952 14.6686 1.93287 14.4265C2.03703 14.1813 2.16652 13.9473 2.31732 13.7279C2.46893 13.5076 2.64225 13.303 2.83408 13.1167C3.0259 12.9308 3.23703 12.7621 3.46464 12.6149C3.68864 12.4692 3.92912 12.3439 4.18247 12.2423C4.43295 12.141 4.69322 12.0642 4.95941 12.0131C5.22201 11.9623 5.49306 11.9358 5.76893 11.9358ZM5.28877 13.3284L7.51102 18.0439L7.59225 17.9775C7.63408 17.942 7.67671 17.9025 7.71933 17.8615C7.84802 17.7362 7.96384 17.5991 8.06477 17.4526C8.1641 17.3085 8.24976 17.1543 8.31853 16.9922C8.38569 16.8341 8.43837 16.6661 8.47376 16.4912C8.50794 16.3229 8.52604 16.1471 8.52604 15.9667C8.52604 15.7859 8.50794 15.6106 8.47376 15.4423C8.43837 15.2673 8.38569 15.0994 8.31853 14.9412C8.24936 14.7797 8.16411 14.6251 8.06397 14.4796C7.96343 14.3336 7.84762 14.1969 7.71933 14.0723C7.59065 13.9474 7.4499 13.8345 7.29949 13.7373C7.1507 13.6404 6.99145 13.5572 6.82456 13.4904C6.35646 13.303 5.83086 13.2448 5.33059 13.3213L5.28877 13.3284ZM6.24909 18.6058L4.02684 13.8896L3.94279 13.9587C3.48676 14.3613 3.18475 14.8502 3.0641 15.4426C3.02992 15.611 3.01223 15.7867 3.01223 15.9675C3.01223 16.1483 3.03032 16.324 3.06451 16.4924C3.09949 16.6669 3.15217 16.8341 3.21933 16.9922C3.28931 17.1558 3.37496 17.3105 3.47429 17.4546C3.57443 17.6003 3.69024 17.7369 3.81813 17.8619C3.94762 17.9869 4.08837 18.0997 4.23957 18.1978C4.38873 18.2948 4.54741 18.3772 4.7133 18.4438C4.87697 18.509 5.0499 18.5602 5.23006 18.5945C5.40338 18.6277 5.58394 18.6453 5.76933 18.6453C5.84695 18.6453 5.92094 18.6425 5.99091 18.6371C6.06933 18.6312 6.14172 18.6226 6.20807 18.6125L6.24909 18.6058Z" fill="white"/>
</g>
<defs>
<clipPath id="clip0_157_133">
<rect width="15" height="20" fill="white"/>
</clipPath>
</defs>
</svg>
