<svg width="15" height="14" viewBox="0 0 15 14" fill="none" xmlns="http://www.w3.org/2000/svg">
<g clip-path="url(#clip0_157_44)">
<path fill-rule="evenodd" clip-rule="evenodd" d="M15.0004 4.32168L10.7358 8.64336V6.49042C8.03919 5.9299 5.90894 6.54774 4.29102 8.60552C4.5719 4.37336 7.45349 2.33101 10.7357 2.1958L10.7358 0L15.0004 4.32168Z" fill="#000"/>
<path d="M0.843262 2.90808H5.19214C4.6322 3.39304 4.12891 3.95675 3.69507 4.59994H1.6864V12.3083H11.5256V10.5113L13.2119 8.84839V13.1541C13.2119 13.6212 12.8344 14 12.3688 14H0.843262C0.377564 14 0 13.6212 0 13.1541V3.75395C0 3.28674 0.377564 2.90808 0.843262 2.90808Z" fill="#000"/>
</g>
<defs>
<clipPath id="clip0_157_44">
<rect width="15" height="14" fill="white"/>
</clipPath>
</defs>
</svg>
