<svg width="16" height="15" viewBox="0 0 16 15" fill="none" xmlns="http://www.w3.org/2000/svg">
<g clip-path="url(#clip0_157_61)">
<path d="M1.56531 9.38124C1.5825 6.43149 1.59938 3.48266 1.61656 0.544529C1.61719 0.348593 1.75938 0.185669 1.94781 0.14746V0.146848C3.99906 -0.271924 6.69 0.170385 8.02188 1.90172C9.425 0.217459 12.0128 -0.154851 14.0928 0.142263C14.3003 0.171914 14.45 0.346453 14.4497 0.546058H14.45V9.41731C14.45 9.6432 14.2631 9.82599 14.0322 9.82599C13.9991 9.82599 13.9666 9.82202 13.9356 9.81499C13.8219 9.79757 13.7091 9.7835 13.5966 9.7725C13.5344 9.47783 13.4181 9.18163 13.2378 8.9374C13.3625 8.94107 13.6128 9.07006 13.7397 9.07984V0.785706C11.8972 0.61514 9.48687 1.09535 8.42437 2.7518V4.58492C8.16687 4.514 7.85594 4.49994 7.58875 4.5409V2.73957C6.59312 1.02413 4.11188 0.522521 2.275 0.766448V9.10583C2.71625 9.09024 3.27875 8.9753 3.70937 9.01015L3.69406 9.04163C3.58188 9.28373 3.53219 9.54508 3.52906 9.80979C3.02844 9.77495 2.52125 9.78198 2.01562 9.82446C1.75813 9.84525 1.57906 9.64381 1.56531 9.38124ZM7.26406 10.9946C7.26406 11.126 7.15469 11.2327 7.02031 11.2327C6.88562 11.2327 6.77656 11.126 6.77656 10.9946V10.5538C6.76344 10.5471 6.75094 10.5391 6.73906 10.5297C6.59562 10.4178 6.43 10.2863 6.285 10.1702L5.6575 9.66888C5.29969 9.38154 4.87187 9.34884 4.91156 9.94245C4.92031 10.0736 4.96719 10.2176 5.02906 10.3554C5.12219 10.5614 5.22625 10.728 5.31719 10.8466L7.18437 13.6087C7.20594 13.6408 7.21875 13.6763 7.22312 13.7117C7.26 14.01 7.32469 14.2335 7.42031 14.3735C7.48938 14.475 7.57937 14.5266 7.69125 14.5239C8.61156 14.5059 9.68594 14.4875 10.5988 14.5236C10.7784 14.5211 10.9431 14.4692 11.0922 14.3689C11.3997 14.1617 11.6397 13.7025 11.8216 13.3785C12.0838 12.9105 12.2991 12.4361 12.3275 11.8957C12.3194 11.5506 12.3041 11.2046 12.3088 10.8595C12.3134 10.4731 12.3191 10.0586 12.1341 9.8049C11.9669 9.57565 11.7537 9.61508 11.5019 9.61508C11.5013 9.61508 11.48 10.0271 11.4772 10.0687C11.4688 10.202 11.4603 10.2925 11.4603 10.4138C11.4603 10.5452 11.3512 10.6522 11.2166 10.6522C11.0822 10.6522 10.9728 10.5452 10.9728 10.4138C10.9728 10.2909 10.9822 10.1482 10.9916 10.0008C11.0147 9.64259 11.0403 9.28465 10.9056 9.05906C10.7725 8.83622 10.5538 8.88238 10.3284 8.88238C10.3103 8.88238 10.2931 8.88024 10.2759 8.87688C10.2787 9.05967 10.2669 9.21067 10.255 9.39316C10.2466 9.52643 10.2378 9.65512 10.2378 9.77678C10.2378 9.90822 10.1287 10.0152 9.99406 10.0152C9.85969 10.0152 9.75062 9.90822 9.75062 9.77678C9.75062 9.6539 9.75969 9.51084 9.76937 9.3632C9.795 8.96644 9.82344 8.56112 9.63375 8.35509C9.49844 8.20806 9.28906 8.24505 9.10625 8.24505C9.08406 8.24505 9.06281 8.2423 9.04219 8.2368V9.12172C9.04219 9.25316 8.93312 9.36015 8.79844 9.36015C8.66406 9.36015 8.55469 9.25316 8.55469 9.12172V6.82978C8.55469 5.71163 7.26406 5.68565 7.26406 6.83956V10.9946ZM6.77656 9.94673V6.80136C6.77656 5.0147 9.04219 5.04465 9.04219 6.79157V7.73855C9.06281 7.73305 9.08406 7.7303 9.10625 7.7303C9.42562 7.7303 9.69531 7.7037 9.96219 7.93174C10.1 8.04911 10.1806 8.20806 10.2256 8.38933C10.2569 8.37527 10.2916 8.36732 10.3284 8.36732C10.6928 8.36732 11.0306 8.34562 11.2863 8.67513C11.3791 8.79465 11.4341 8.94137 11.4647 9.10277C11.4769 9.10063 11.4891 9.10002 11.5019 9.10002C11.8778 9.10002 12.1903 9.08076 12.4794 9.39255C12.8081 9.74713 12.8006 10.3499 12.7944 10.865C12.7928 11.2153 12.81 11.5637 12.8131 11.9134C12.7816 12.5428 12.5497 13.0661 12.2669 13.5739C12.0344 13.9911 11.7709 14.4884 11.3681 14.7599C11.1369 14.9158 10.8809 14.9958 10.6006 14.9986L7.69719 14.9998C7.4075 15.0044 7.18219 14.8806 7.01656 14.6379C6.88344 14.4429 6.79469 14.1693 6.74719 13.8245L4.92 11.1205C4.8125 10.9781 4.67 10.7629 4.56406 10.5281C4.35125 10.0556 4.26844 9.26967 4.86656 9.03216C5.23156 8.88666 5.66281 9.05233 5.94719 9.28281L6.77656 9.94673ZM13.6666 11.0203C14.1831 11.0945 14.8116 11.1948 15.2894 11.3152C15.2894 8.2206 15.2891 5.00277 15.2891 1.90875C15.6131 1.90875 16 1.84547 16 2.31743V11.7276C16 12.0097 15.7156 12.2038 15.4475 12.1146C14.8766 11.9547 14.2844 11.8217 13.6831 11.7273C13.6778 11.451 13.6662 11.2969 13.6666 11.0203ZM4.17375 11.5677C2.94344 11.5793 1.705 11.7918 0.5525 12.1146C0.284375 12.2038 0 12.0097 0 11.7276V2.31743C0 1.84547 0.386562 1.90875 0.710625 1.90875V11.3152C1.61469 11.0875 2.725 10.9322 3.71781 10.8882C3.83125 11.167 3.99656 11.3235 4.17375 11.5677Z" fill="white"/>
</g>
<defs>
<clipPath id="clip0_157_61">
<rect width="16" height="15" fill="white"/>
</clipPath>
</defs>
</svg>
