<svg width="15" height="13" viewBox="0 0 15 13" fill="none" xmlns="http://www.w3.org/2000/svg">
<g clip-path="url(#clip0_166_702)">
<path d="M4.35705 11.654C4.30579 11.184 4.12805 10.7341 3.84069 10.3471C3.56359 9.98206 3.20348 9.73335 2.82507 9.73335C2.44665 9.73335 2.08532 9.98206 1.80822 10.3471C1.52086 10.7341 1.34312 11.184 1.29186 11.654H4.35705ZM13.9261 3.17578C13.8572 3.07629 13.7515 3.00448 13.6296 2.97424C13.5078 2.944 13.3783 2.95748 13.2664 3.01207C13.1544 3.06666 13.0679 3.15848 13.0236 3.26976C12.9793 3.38104 12.9803 3.50387 13.0265 3.61448C13.0391 3.6425 13.0542 3.66947 13.0716 3.69508C13.2417 3.94127 13.3888 4.20094 13.5111 4.47117C13.5609 4.57737 13.6498 4.66296 13.7613 4.7121C13.8728 4.76123 13.9995 4.77057 14.1177 4.73839C14.236 4.70621 14.3379 4.6347 14.4046 4.53708C14.4713 4.43947 14.4982 4.32238 14.4803 4.20748C14.4731 4.16785 14.4608 4.12918 14.4437 4.09234C14.2994 3.77445 14.1263 3.46895 13.9261 3.17923V3.17578ZM13.079 1.89996C13.1011 2.02757 13.0733 2.15843 13.0008 2.26816C12.9283 2.37789 12.8159 2.45901 12.6847 2.49641L11.1747 2.93167C11.1034 2.95295 11.0283 2.96068 10.9538 2.9544C10.8793 2.94813 10.8069 2.92797 10.7408 2.8951C10.6746 2.86223 10.616 2.8173 10.5684 2.76292C10.5207 2.70853 10.485 2.64577 10.4633 2.57827C10.4416 2.51078 10.4343 2.43988 10.4418 2.3697C10.4493 2.29952 10.4716 2.23145 10.5072 2.16943C10.5428 2.10741 10.5911 2.05267 10.6493 2.00839C10.7075 1.96411 10.7745 1.93117 10.8463 1.91147L10.9867 1.87002C10.233 1.48472 9.39732 1.26364 8.54113 1.22303C7.68494 1.18241 6.82999 1.3233 6.03911 1.63534C5.24823 1.94738 4.54154 2.42263 3.97098 3.02616C3.40041 3.62969 2.98049 4.34616 2.74206 5.1229H1.68981C1.93625 4.16742 2.41382 3.27873 3.08512 2.5264C3.75642 1.77407 4.60323 1.17853 5.55924 0.786407C6.51525 0.394289 7.55451 0.216237 8.59565 0.266192C9.63678 0.316148 10.6515 0.592757 11.5604 1.07436L11.4188 0.728919C11.3649 0.596382 11.369 0.449073 11.4303 0.319401C11.4915 0.189728 11.6048 0.0883136 11.7454 0.0374668C11.8859 -0.0133801 12.042 -0.00949397 12.1795 0.0482702C12.317 0.106034 12.4245 0.212945 12.4784 0.345483L13.0424 1.7376C13.0633 1.79004 13.0756 1.84517 13.079 1.90111V1.89996ZM8.25231 12.0386C8.6384 12.0373 9.02362 12.0038 9.40343 11.9384C9.53094 11.934 9.65553 11.975 9.75254 12.0531C9.84955 12.1313 9.9119 12.241 9.92726 12.3605C9.94261 12.4799 9.90984 12.6005 9.83543 12.6983C9.76103 12.796 9.65042 12.8639 9.52551 12.8884C9.22781 12.9416 8.92696 12.9777 8.62463 12.9966C8.46471 13.0035 8.25842 12.9966 8.09484 12.9966C7.64662 12.9875 7.20048 12.9362 6.76305 12.8434V11.8601C7.24681 11.9821 7.74546 12.0437 8.24621 12.0432L8.25231 12.0386ZM11.0904 11.3477C11.0293 11.3771 10.9751 11.4179 10.9311 11.4675C10.8871 11.5172 10.8542 11.5748 10.8343 11.6367C10.8145 11.6987 10.8082 11.7638 10.8157 11.8282C10.8232 11.8925 10.8445 11.9547 10.8782 12.0111C10.9119 12.0675 10.9573 12.1169 11.0117 12.1563C11.0662 12.1958 11.1285 12.2244 11.1949 12.2405C11.2614 12.2566 11.3306 12.2599 11.3985 12.2501C11.4663 12.2404 11.5314 12.2177 11.5897 12.1837C11.9096 12.0132 12.2141 11.8183 12.5004 11.601C12.5922 11.5305 12.6552 11.4319 12.6783 11.3223C12.7014 11.2127 12.6833 11.099 12.627 11.0006C12.5708 10.9023 12.4799 10.8255 12.3701 10.7836C12.2603 10.7416 12.1385 10.7371 12.0255 10.7708C11.9658 10.7889 11.9103 10.8174 11.8619 10.8549C11.6192 11.0384 11.3612 11.2033 11.0904 11.3477ZM13.0948 9.54681C13.0595 9.60019 13.0356 9.65961 13.0246 9.72169C13.0136 9.78376 13.0157 9.84727 13.0307 9.90859C13.0457 9.96991 13.0734 10.0278 13.1122 10.0791C13.1509 10.1303 13.2 10.1738 13.2566 10.2072C13.3709 10.2745 13.5088 10.2963 13.6401 10.2677C13.7714 10.239 13.8853 10.1624 13.9567 10.0546C14.1517 9.76101 14.3211 9.45294 14.4633 9.13344C14.5098 9.02606 14.5135 8.90642 14.4738 8.79664C14.4341 8.68685 14.3536 8.59435 14.2471 8.53622C14.1407 8.47809 14.0156 8.45827 13.8949 8.48043C13.7741 8.50258 13.666 8.56521 13.5904 8.65673C13.5636 8.68955 13.5414 8.72555 13.5245 8.76382C13.4046 9.03523 13.2608 9.29675 13.0948 9.54566V9.54681ZM13.9652 7.05735C13.9568 7.1753 13.9948 7.29203 14.072 7.38518C14.1492 7.47833 14.2601 7.54135 14.3834 7.56217C14.5068 7.58299 14.634 7.56015 14.7406 7.49802C14.8472 7.43589 14.9258 7.33885 14.9613 7.22546C14.971 7.19432 14.9772 7.16228 14.9796 7.12989C15.009 6.78501 15.009 6.43846 14.9796 6.09358C14.9741 6.03083 14.9555 5.96971 14.9249 5.91373C14.8944 5.85775 14.8524 5.808 14.8015 5.76732C14.6985 5.68515 14.5653 5.64491 14.4309 5.65545C14.2965 5.66598 14.1721 5.72643 14.085 5.8235C13.9979 5.92056 13.9553 6.04629 13.9664 6.17303C13.9914 6.46656 13.9914 6.76152 13.9664 7.05505L13.9652 7.05735ZM7.21716 4.03016C7.22365 3.90342 7.28159 3.78391 7.37898 3.69638C7.47636 3.60885 7.60571 3.56002 7.74023 3.56002C7.87474 3.56002 8.0041 3.60885 8.10148 3.69638C8.19886 3.78391 8.25681 3.90342 8.2633 4.03016V7.03432L10.441 7.93822C10.5067 7.96236 10.5665 7.99878 10.6168 8.04529C10.6672 8.0918 10.7071 8.14743 10.734 8.20885C10.761 8.27027 10.7745 8.33619 10.7737 8.40266C10.773 8.46913 10.758 8.53477 10.7296 8.59563C10.7013 8.65649 10.6602 8.71131 10.6088 8.7568C10.5574 8.80228 10.4968 8.83749 10.4306 8.8603C10.3644 8.88311 10.294 8.89306 10.2236 8.88953C10.1533 8.88601 10.0844 8.8691 10.0211 8.83981L7.55773 7.81847C7.4581 7.78339 7.37215 7.72054 7.31131 7.63827C7.25047 7.55599 7.21763 7.45819 7.21716 7.35788V4.03016ZM1.53722 8.119H4.11291C4.2436 7.86585 4.32623 7.59304 4.35705 7.31298H1.28942C1.31968 7.59314 1.40234 7.86604 1.53356 8.119H1.53722ZM0.301873 12.186C0.264879 12.1929 0.226717 12.192 0.190134 12.1833C0.153551 12.1747 0.119458 12.1585 0.090308 12.1359C0.0611581 12.1133 0.0376768 12.0849 0.0215546 12.0528C0.0054324 12.0206 -0.00292969 11.9855 -0.00292969 11.9499C-0.00292969 11.9143 0.0054324 11.8792 0.0215546 11.847C0.0376768 11.8149 0.0611581 11.7865 0.090308 11.7639C0.119458 11.7413 0.153551 11.7251 0.190134 11.7165C0.226717 11.7078 0.264879 11.7069 0.301873 11.7139H0.677849C0.722787 11.1163 0.93926 10.5415 1.30407 10.0512C1.49919 9.7852 1.75326 9.56243 2.0487 9.39827C1.75367 9.25335 1.49642 9.04845 1.29552 8.79836C0.919258 8.33339 0.703244 7.77073 0.676628 7.18632H0.318962C0.281969 7.19324 0.243807 7.19235 0.207224 7.18369C0.170641 7.17504 0.136548 7.15884 0.107398 7.13626C0.0782479 7.11369 0.0547667 7.0853 0.0386445 7.05314C0.0225222 7.02098 0.0141602 6.98584 0.0141602 6.95027C0.0141602 6.91469 0.0225222 6.87956 0.0386445 6.84739C0.0547667 6.81523 0.0782479 6.78684 0.107398 6.76427C0.136548 6.74169 0.170641 6.72549 0.207224 6.71684C0.243807 6.70818 0.281969 6.70729 0.318962 6.71422H5.36291C5.3999 6.70729 5.43806 6.70818 5.47465 6.71684C5.51123 6.72549 5.54532 6.74169 5.57447 6.76427C5.60362 6.78684 5.6271 6.81523 5.64323 6.84739C5.65935 6.87956 5.66771 6.91469 5.66771 6.95027C5.66771 6.98584 5.65935 7.02098 5.64323 7.05314C5.6271 7.0853 5.60362 7.11369 5.57447 7.13626C5.54532 7.15884 5.51123 7.17504 5.47465 7.18369C5.43806 7.19235 5.3999 7.19324 5.36291 7.18632H4.97228C4.94567 7.77073 4.72965 8.33339 4.35339 8.79836C4.15249 9.04845 3.89524 9.25335 3.60021 9.39827C3.89565 9.56243 4.14972 9.7852 4.34484 10.0512C4.70965 10.5415 4.92612 11.1163 4.97106 11.7139H5.34704C5.38403 11.7069 5.42219 11.7078 5.45878 11.7165C5.49536 11.7251 5.52945 11.7413 5.5586 11.7639C5.58775 11.7865 5.61123 11.8149 5.62736 11.847C5.64348 11.8792 5.65184 11.9143 5.65184 11.9499C5.65184 11.9855 5.64348 12.0206 5.62736 12.0528C5.61123 12.0849 5.58775 12.1133 5.5586 12.1359C5.52945 12.1585 5.49536 12.1747 5.45878 12.1833C5.42219 12.192 5.38403 12.1929 5.34704 12.186H0.301873Z" fill="white"/>
</g>
<defs>
<clipPath id="clip0_166_702">
<rect width="15" height="13" fill="white"/>
</clipPath>
</defs>
</svg>
