<svg width="15" height="15" viewBox="0 0 15 15" fill="none" xmlns="http://www.w3.org/2000/svg">
<g clip-path="url(#clip0_113_58)">
<path fill-rule="evenodd" clip-rule="evenodd" d="M12.8134 2.15364C11.4029 0.740219 9.5269 -0.0371094 7.52878 -0.0371094C3.41269 -0.0371328 0.0625547 3.31328 0.0625547 7.43242C0.0625547 8.74818 0.407203 10.0352 1.06022 11.1659L0 15.0373L3.95998 13.9981C5.05205 14.593 6.28059 14.9083 7.52768 14.9083H7.53073C11.6471 14.9083 15 11.5579 15 7.43905C15 5.4426 14.2227 3.56767 12.8122 2.15477L12.8133 2.15366L12.8134 2.15364ZM7.53098 13.648C6.41538 13.648 5.32275 13.3473 4.36938 12.7818L4.14211 12.6461L1.79215 13.2615L2.41971 10.9711L2.27271 10.7358C1.64791 9.74915 1.32185 8.60725 1.32185 7.4327C1.32185 4.00891 4.10698 1.2227 7.53434 1.2227C9.19167 1.2227 10.753 1.87075 11.9242 3.04197C13.096 4.21682 13.7405 5.7745 13.7405 7.43463C13.7377 10.8609 10.9526 13.6471 7.53047 13.6471L7.53103 13.648L7.53098 13.648ZM10.9345 8.99645C10.7491 8.90205 9.83027 8.45193 9.65977 8.38966C9.48923 8.32736 9.36492 8.29525 9.23843 8.48404C9.11496 8.66952 8.75592 9.09084 8.64659 9.21681C8.53723 9.34056 8.42899 9.35826 8.24353 9.26388C8.05805 9.16947 7.4543 8.97264 6.74203 8.3365C6.18811 7.84209 5.81245 7.22976 5.70309 7.0443C5.59376 6.85881 5.69091 6.75583 5.78588 6.66477C5.87168 6.58171 5.97162 6.44718 6.06574 6.33782C6.16015 6.22848 6.18949 6.15208 6.25148 6.02587C6.31378 5.90212 6.28334 5.79276 6.23656 5.69891C6.18949 5.60481 5.81522 4.68602 5.66269 4.31177C5.51292 3.94607 5.35652 3.997 5.24163 3.99065C5.1323 3.98509 5.00855 3.98509 4.88538 3.98509C4.76217 3.98509 4.55843 4.03188 4.38792 4.2179C4.21739 4.40338 3.73406 4.8568 3.73406 5.77532C3.73406 6.69409 4.40231 7.58022 4.49616 7.70673C4.59054 7.83018 5.81245 9.7173 7.68434 10.5248C8.12918 10.7161 8.47659 10.831 8.74734 10.9198C9.19495 11.061 9.60106 11.0405 9.92217 10.9932C10.2812 10.9403 11.0264 10.5425 11.1828 10.1065C11.339 9.67023 11.339 9.29709 11.2922 9.21986C11.2479 9.1368 11.1244 9.09086 10.9359 8.99533L10.9345 8.99645Z" fill="white"/>
</g>
<defs>
<clipPath id="clip0_113_58">
<rect width="15" height="15" fill="white"/>
</clipPath>
</defs>
</svg>
