<svg width="15" height="15" viewBox="0 0 15 15" fill="none" xmlns="http://www.w3.org/2000/svg">
<g clip-path="url(#clip0_180_18)">
<path d="M6.71803 13.2944C6.52531 13.4934 6.43081 13.751 6.43454 14.0085C6.43827 14.2661 6.53898 14.5212 6.73792 14.7153L6.75284 14.73C6.9493 14.9131 7.20046 15.0022 7.45037 14.9985C7.70029 14.9949 7.94896 14.8984 8.14044 14.7092C10.3362 12.5535 12.5084 10.3623 14.6905 8.19066C14.6992 8.18456 14.7067 8.17845 14.7141 8.17113C14.9069 7.97215 15.0014 7.71214 14.9976 7.45458C14.9939 7.19701 14.8919 6.94066 14.693 6.74657L14.6594 6.71483C12.4873 4.57372 10.3176 2.42528 8.1392 0.287828C7.94896 0.0998399 7.70029 0.0034043 7.45037 -0.000257812C7.20046 -0.00391992 6.9493 0.0851914 6.75284 0.269518L6.73419 0.287828C6.53898 0.480699 6.43827 0.734605 6.43454 0.990953C6.43081 1.2473 6.52531 1.50609 6.71803 1.70506L12.5892 7.47533L6.71803 13.2944ZM0.281109 13.0503C0.0896301 13.248 -0.00362252 13.5056 0.00010759 13.7619C0.0038377 14.0195 0.104551 14.2746 0.30349 14.4687L0.31841 14.4834C0.513619 14.6665 0.766023 14.7556 1.01594 14.7532C1.26586 14.7495 1.51577 14.6531 1.70601 14.4639C3.85579 12.3533 6.07645 10.2781 8.25483 8.1931C8.26354 8.187 8.27224 8.17967 8.28094 8.17235C8.47367 7.97337 8.56816 7.71337 8.56443 7.4558C8.5607 7.19823 8.45875 6.94188 8.25981 6.74779C6.08515 4.6787 3.89931 2.61693 1.71969 0.550279L1.70477 0.53441C1.51453 0.346422 1.26586 0.251207 1.01594 0.247545C0.766023 0.243883 0.514862 0.332994 0.31841 0.5161L0.299759 0.53441C0.104551 0.727281 0.0038377 0.982408 0.00010759 1.23754C-0.00362252 1.49388 0.0908735 1.75267 0.283596 1.95165L6.14981 7.47411L0.281109 13.0503Z" fill="white"/>
</g>
<defs>
<clipPath id="clip0_180_18">
<rect width="15" height="15" fill="white"/>
</clipPath>
</defs>
</svg>
