<svg width="20" height="20" viewBox="0 0 20 20" fill="none" xmlns="http://www.w3.org/2000/svg">
<g clip-path="url(#clip0_1143_391)">
<path fill-rule="evenodd" clip-rule="evenodd" d="M11.2186 11.5933V19.9997H8.78172V11.5933C7.98125 11.1518 7.43745 10.2886 7.43745 9.29567C7.43745 7.85383 8.58494 6.68464 10.0002 6.68464C11.4152 6.68464 12.5629 7.85383 12.5629 9.29567C12.5629 10.2886 12.0191 11.1518 11.2186 11.5933ZM6.39999 1.85147C6.87461 1.61299 7.06912 1.0274 6.83506 0.5443C6.601 0.0610337 6.02677 -0.13748 5.55248 0.100836C3.61558 1.07433 2.1092 2.68484 1.15735 4.58125C0.454208 5.98179 0.0533194 7.54022 0.00497842 9.11291C-0.0436881 10.6989 0.263285 12.3009 0.97717 13.7754C1.85626 15.5919 3.34669 17.2075 5.54092 18.3514C6.01115 18.5963 6.58733 18.4061 6.82757 17.927C7.06798 17.4478 6.88145 16.8609 6.41122 16.6161C4.61479 15.68 3.40236 14.3731 2.69482 12.9122C2.12417 11.7329 1.87872 10.4483 1.91779 9.17427C1.95734 7.88783 2.28498 6.61333 2.86019 5.46801C3.63039 3.9338 4.84396 2.63326 6.39999 1.85147ZM14.4479 0.10067C13.9736 -0.137812 13.3992 0.0608678 13.1651 0.544134C12.9311 1.0274 13.1257 1.61299 13.6004 1.85131C15.1566 2.63326 16.3701 3.93363 17.14 5.46801C17.715 6.61316 18.0429 7.88766 18.0822 9.17427C18.1213 10.4483 17.8759 11.7329 17.3054 12.9122C16.5978 14.3731 15.3854 15.68 13.589 16.6161C13.1187 16.8611 12.9324 17.448 13.1726 17.927C13.4129 18.4061 13.989 18.5961 14.4593 18.3514C16.6533 17.2077 18.1439 15.5919 19.023 13.7754C19.7369 12.3009 20.0439 10.6989 19.9952 9.11291C19.9469 7.54022 19.546 5.98179 18.843 4.58125C17.891 2.68484 16.3848 1.07433 14.4479 0.10067ZM13.4755 4.39551C13.1183 4.13331 12.62 4.21606 12.3627 4.58009C12.1055 4.94412 12.1866 5.45176 12.5439 5.71396C12.6879 5.8196 12.8292 5.93818 12.9677 6.06787C13.7768 6.82793 14.2566 7.84139 14.3574 8.91373C14.4593 9.99569 14.1765 11.1422 13.4592 12.1563C13.3375 12.3286 13.1972 12.5032 13.0385 12.6787C12.7398 13.0091 12.7605 13.5242 13.0852 13.8283C13.4098 14.1325 13.9151 14.1111 14.2137 13.7807C14.4057 13.5686 14.5857 13.3427 14.7532 13.1054C15.7073 11.7556 16.0824 10.2197 15.945 8.76083C15.807 7.29262 15.1522 5.907 14.0491 4.87065C13.8756 4.70762 13.6843 4.54908 13.4755 4.39551ZM7.45633 5.71446C7.8136 5.45226 7.89482 4.94461 7.63749 4.58059C7.38016 4.21656 6.88194 4.13381 6.52467 4.39584C6.31568 4.54941 6.12459 4.70795 5.95109 4.87081C4.84787 5.90733 4.19307 7.29278 4.05504 8.76099C3.91767 10.2197 4.29268 11.7561 5.24697 13.1059C5.41478 13.3431 5.59463 13.5688 5.78653 13.7809C6.08504 14.1113 6.59043 14.1326 6.91481 13.8285C7.23969 13.5243 7.26036 13.0094 6.96169 12.6789C6.803 12.5032 6.66269 12.3288 6.54094 12.1565C5.8238 11.1423 5.54092 9.99603 5.64281 8.91407C5.74356 7.84189 6.22339 6.82826 7.03249 6.0682C7.17117 5.93868 7.31245 5.8201 7.45633 5.71446Z" fill="#00BF7E"/>
</g>
<defs>
<clipPath id="clip0_1143_391">
<rect width="20" height="20" fill="white"/>
</clipPath>
</defs>
</svg>
