<svg width="13" height="19" viewBox="0 0 13 19" fill="none" xmlns="http://www.w3.org/2000/svg">
<path d="M9.48897 3.20042V8.03619C9.48897 12.1851 3.51105 12.1851 3.51105 8.03619V3.20042C3.51105 -1.06681 9.48897 -1.06681 9.48897 3.20042ZM7.2423 14.8788V18.1626C7.23348 18.3478 7.15142 18.5225 7.01318 18.6505C6.87494 18.7786 6.69115 18.85 6.50001 18.85C6.30887 18.85 6.12508 18.7786 5.98684 18.6505C5.8486 18.5225 5.76654 18.3478 5.75772 18.1626V14.8711C5.07476 14.7944 4.40883 14.6124 3.78515 14.3318C3.08827 14.0174 2.45341 13.5873 1.90922 13.061L1.9013 13.0471C1.30073 12.4645 0.822862 11.774 0.494354 11.0142C0.167073 10.2506 -0.000940431 9.43168 2.19948e-05 8.60475C-0.00111399 8.46183 0.0417772 8.32184 0.123199 8.20272C0.204621 8.0836 0.320864 7.99077 0.457031 7.93612C0.593199 7.88148 0.743088 7.86752 0.88749 7.89603C1.03189 7.92453 1.16423 7.99421 1.26754 8.09612L1.28338 8.11149C1.41282 8.24503 1.48479 8.42147 1.4846 8.60475C1.48364 9.24079 1.61289 9.87069 1.86486 10.4579C2.37955 11.6545 3.3607 12.6055 4.59477 13.104C5.20057 13.3484 5.85022 13.4743 6.50635 13.4743C7.16248 13.4743 7.81213 13.3484 8.41792 13.104C9.02761 12.8573 9.58151 12.4971 10.0483 12.0437L10.0609 12.033C10.5223 11.5821 10.8893 11.0488 11.1415 10.4625C11.3919 9.87344 11.519 9.24193 11.5154 8.60475C11.5242 8.41957 11.6063 8.24481 11.7445 8.11679C11.8828 7.98877 12.0666 7.91734 12.2577 7.91734C12.4488 7.91734 12.6326 7.98877 12.7709 8.11679C12.9091 8.24481 12.9912 8.41957 13 8.60475C13.0007 9.43016 12.8327 10.2475 12.5057 11.0096C12.1765 11.7763 11.6958 12.4732 11.0908 13.061L11.0765 13.0733C10.5361 13.5941 9.90608 14.0194 9.21487 14.3302C8.59055 14.6106 7.92414 14.7927 7.24072 14.8696L7.2423 14.8788Z" fill="#00BF7E"/>
</svg>
