<svg width="20" height="29" viewBox="0 0 20 29" fill="none" xmlns="http://www.w3.org/2000/svg">
<path d="M14.5984 4.92372V12.3634C14.5984 18.7463 5.40161 18.7463 5.40161 12.3634V4.92372C5.40161 -1.64124 14.5984 -1.64124 14.5984 4.92372ZM11.142 22.8905V27.9424C11.1284 28.2273 11.0022 28.4962 10.7895 28.6932C10.5768 28.8901 10.2941 29 10 29C9.70595 29 9.4232 28.8901 9.21053 28.6932C8.99785 28.4962 8.8716 28.2273 8.85803 27.9424V22.8787C7.80732 22.7607 6.78281 22.4806 5.8233 22.0489C4.75119 21.5652 3.77448 20.9036 2.93726 20.0938L2.92507 20.0725C2.00112 19.1761 1.26594 18.1138 0.760544 16.9449C0.257035 15.7702 -0.00144682 14.5103 3.38382e-05 13.2381C-0.00171383 13.0182 0.0642726 12.8028 0.189537 12.6196C0.314801 12.4363 0.493636 12.2935 0.703125 12.2094C0.912614 12.1254 1.14321 12.1039 1.36537 12.1477C1.58753 12.1916 1.79112 12.2988 1.95006 12.4556L1.97444 12.4792C2.17356 12.6847 2.28429 12.9561 2.284 13.2381C2.28252 14.2166 2.48137 15.1857 2.86901 16.0891C3.66085 17.93 5.1703 19.3931 7.06888 20.16C8.00087 20.536 9.00034 20.7296 10.0098 20.7296C11.0192 20.7296 12.0187 20.536 12.9506 20.16C13.8886 19.7805 14.7408 19.2263 15.4589 18.5288L15.4784 18.5123C16.1882 17.8186 16.7528 16.9981 17.1408 16.0962C17.526 15.1899 17.7216 14.2184 17.716 13.2381C17.7296 12.9532 17.8558 12.6843 18.0685 12.4874C18.2812 12.2904 18.564 12.1805 18.858 12.1805C19.1521 12.1805 19.4348 12.2904 19.6475 12.4874C19.8602 12.6843 19.9864 12.9532 20 13.2381C20.001 14.5079 19.7425 15.7654 19.2395 16.9378C18.733 18.1174 17.9936 19.1895 17.0628 20.0938L17.0408 20.1127C16.2094 20.914 15.2401 21.5684 14.1767 22.0465C13.2162 22.4779 12.191 22.758 11.1396 22.8763L11.142 22.8905Z" fill="#B99750"/>
</svg>
