<svg width="27" height="27" viewBox="0 0 27 27" fill="none" xmlns="http://www.w3.org/2000/svg">
<g clip-path="url(#clip0_1143_398)">
<path d="M15.5193 20.9114C15.1355 21.2805 14.7283 21.6467 14.2976 22.01L14.4163 21.9902L14.7876 21.9243C15.1242 21.8562 15.4571 21.7711 15.7852 21.6694L15.8599 21.6475L16.095 22.1506L16.3586 22.7175L16.1235 22.7922C15.7565 22.9062 15.384 23.0016 15.0073 23.0779C14.6294 23.1555 14.2449 23.2134 13.8538 23.2515C13.4626 23.2888 13.0649 23.3086 12.6628 23.3086C12.2607 23.3086 11.8674 23.2888 11.4763 23.2515C11.0852 23.2141 10.7029 23.1548 10.3228 23.0779C9.95179 23.0056 9.58504 22.9132 9.22412 22.801C8.8626 22.6893 8.50693 22.5595 8.15845 22.4121H8.12988L8.11011 22.3989C7.76733 22.2524 7.43408 22.0906 7.11035 21.9133C6.77417 21.7332 6.45117 21.5354 6.13477 21.3267C5.82989 21.1233 5.53647 20.9032 5.25586 20.6675C4.96362 20.428 4.68677 20.1753 4.4209 19.9116C4.1571 19.6523 3.9077 19.3787 3.67383 19.092C3.43905 18.8046 3.21904 18.5054 3.01465 18.1956C2.79921 17.8828 2.59974 17.5594 2.41699 17.2266C2.35327 17.1101 2.29175 16.9915 2.23242 16.8728H13.9219C13.941 17.0968 13.9852 17.3179 14.0537 17.532C14.0735 17.5913 14.0933 17.6528 14.1174 17.7122L14.2537 18.0461H13.2561V21.3662C13.8889 20.8389 14.4734 20.3093 15.0139 19.7776C15.1831 20.1555 15.3567 20.5334 15.5303 20.9114H15.5193ZM1.31836 14.313L0 9.00879H1.90723L2.51367 12.2432H2.55542L3.23218 9.00879H5.08447L5.7898 12.2146H5.82935L6.41162 9.00879H8.31665L6.99829 14.3152H4.93286L4.18579 11.4587H4.13086L3.38599 14.3152L1.31836 14.313ZM9.82837 14.313L8.51221 9.00879H10.4172L11.0259 12.2432H11.0676L11.7444 9.00879H13.5967L14.302 12.2146H14.3416L14.9216 9.00879H16.8289L15.5105 14.3152H13.4429L12.698 11.4587H12.6431L11.896 14.3152L9.82837 14.313ZM18.3406 14.313L17.0244 9.00879H18.9294L19.5381 12.2432H19.5776L20.2566 9.00879H22.1089L22.8142 12.2146H22.8516L23.4338 9.00879H25.3411L24.0227 14.3152H21.9551L21.2102 11.4587H21.1553L20.4082 14.3152L18.3406 14.313ZM25.6179 25.407C25.5604 25.4629 25.4934 25.5083 25.4202 25.541C25.347 25.5733 25.2691 25.5933 25.1895 25.6003C25.0982 25.6078 25.0064 25.5973 24.9192 25.5696C24.8322 25.5427 24.7515 25.4986 24.6819 25.4399L22.7241 23.7788L22.0649 25.429C22.0103 25.5616 21.9434 25.6889 21.865 25.8091C21.7923 25.9179 21.7067 26.0175 21.6101 26.1057C21.5246 26.1939 21.4201 26.2614 21.3046 26.303C21.1891 26.3447 21.0655 26.3594 20.9434 26.346C20.8214 26.3327 20.7039 26.2916 20.6001 26.226C20.4963 26.1603 20.4089 26.0719 20.3445 25.9673C20.2833 25.8813 20.231 25.7893 20.1885 25.6926C19.0085 22.7439 17.4287 19.804 16.2598 16.8486C16.2243 16.7613 16.2129 16.6661 16.2269 16.5729C16.2409 16.4797 16.2797 16.392 16.3392 16.319C16.3988 16.246 16.4769 16.1903 16.5654 16.1578C16.6538 16.1254 16.7494 16.1173 16.842 16.1345C19.6743 16.6597 23.3416 17.855 26.2222 18.6196C27.1165 18.8547 27.2615 19.6436 26.6001 20.2544C26.4955 20.3523 26.3806 20.4384 26.2573 20.5115C25.7498 20.7993 25.2356 21.1311 24.7346 21.4365L26.6836 23.1064C26.7532 23.1679 26.81 23.2426 26.8506 23.3262V23.3394C26.8886 23.417 26.911 23.5014 26.9165 23.5876C26.9214 23.6751 26.9117 23.7627 26.8879 23.8469C26.8615 23.9324 26.8206 24.0126 26.7671 24.0842C26.4131 24.5444 26.0339 24.9845 25.6311 25.4026L25.6179 25.407ZM25.1147 24.7588L26.0574 23.6602C25.6421 23.302 23.8711 21.9221 23.6777 21.5881C23.6253 21.4964 23.6109 21.3877 23.6376 21.2855C23.6643 21.1832 23.73 21.0954 23.8206 21.041C24.4358 20.6982 25.2312 20.2192 25.8157 19.8281C25.8891 19.7849 25.9582 19.7349 26.0222 19.6787C26.0708 19.6353 26.1136 19.5858 26.1497 19.5315L26.176 19.481L26.1233 19.4502C26.0822 19.4319 26.0395 19.4172 25.9959 19.4063L17.231 17.075L20.9136 25.3718C20.9319 25.4122 20.9532 25.4511 20.9773 25.4883L21.0147 25.5366L21.0608 25.5037C21.1096 25.4602 21.1518 25.4099 21.186 25.3542C21.2313 25.2849 21.2695 25.2113 21.3003 25.1345C21.5772 24.4578 21.8892 23.5349 22.2122 22.9109L22.2517 22.856C22.2859 22.8157 22.3277 22.7826 22.3747 22.7585C22.4217 22.7343 22.473 22.7197 22.5256 22.7154C22.5782 22.7112 22.6312 22.7173 22.6815 22.7335C22.7318 22.7497 22.7784 22.7756 22.8186 22.8098L25.1235 24.7632L25.1147 24.7588ZM11.05 22.0166C10.345 21.4203 9.67375 20.785 9.03955 20.1138C8.42278 19.4652 7.85574 18.7711 7.34326 18.0374H4.3374C4.46045 18.2021 4.59009 18.3604 4.72412 18.5142C4.89111 18.7075 5.06689 18.8965 5.24927 19.0789C5.48804 19.3191 5.7356 19.5432 5.99194 19.7512C6.24903 19.9632 6.5167 20.1619 6.79395 20.3467C7.07316 20.5374 7.36213 20.7134 7.65967 20.874C7.95264 21.0366 8.26465 21.1831 8.5957 21.3135H8.61328H8.62646C8.93628 21.4431 9.25269 21.5596 9.57349 21.6584C9.89966 21.7602 10.2312 21.8439 10.5667 21.9089C10.6897 21.9331 10.8149 21.9551 10.938 21.9749L11.05 21.9924V22.0166ZM4.32422 5.27344H7.51685C8.02594 4.54835 8.58233 3.85764 9.18237 3.20581C9.80121 2.52872 10.4539 1.88336 11.1379 1.27222L10.9688 1.29639C10.8303 1.31836 10.6941 1.34253 10.5601 1.37109C10.222 1.43895 9.88754 1.52402 9.55811 1.62598C9.22935 1.72705 8.90657 1.84663 8.59131 1.98413C8.26758 2.12183 7.95703 2.26831 7.65967 2.42358C7.36231 2.57886 7.06934 2.75317 6.78076 2.94653C6.50352 3.13132 6.23584 3.33006 5.97876 3.54199C5.72168 3.75073 5.47559 3.98145 5.23608 4.21436C5.05371 4.39673 4.87793 4.58569 4.71094 4.77905C4.57471 4.93506 4.44287 5.09546 4.31763 5.26245L4.32422 5.27344ZM14.2119 1.28101C14.9282 1.92407 15.5779 2.56567 16.1609 3.20581C16.761 3.85703 17.3167 4.54779 17.8242 5.27344H21.0103C20.8872 5.11084 20.7576 4.95044 20.6235 4.79663C20.4587 4.60547 20.2808 4.4165 20.0962 4.23193C19.8574 3.99316 19.6106 3.76904 19.3557 3.55957C19.0988 3.34746 18.8311 3.14871 18.5537 2.96411C18.2769 2.77808 17.9883 2.60376 17.688 2.44116C17.3877 2.27856 17.0757 2.13062 16.752 1.99731L16.7322 1.97754C16.4202 1.8479 16.1038 1.73145 15.783 1.63257C15.4538 1.53148 15.1193 1.44859 14.781 1.38428C14.6404 1.35571 14.502 1.33154 14.3679 1.31836L14.2141 1.29419L14.2119 1.28101ZM10.3271 0.230713C10.7051 0.153076 11.0896 0.0952149 11.4807 0.0571289C11.8652 0.0197754 12.2695 0 12.6694 0C13.0693 0 13.4648 0.0197754 13.8582 0.0571289C14.2515 0.0944824 14.6316 0.153809 15.0117 0.230713C15.3827 0.303999 15.7494 0.39715 16.1104 0.509766C16.4741 0.621215 16.832 0.75102 17.1826 0.898682H17.2068L17.2266 0.909668C17.5693 1.06494 17.9063 1.23047 18.2373 1.40625C18.5713 1.58862 18.8965 1.78418 19.2085 1.99072C19.513 2.19463 19.8064 2.41467 20.0874 2.6499C20.3804 2.88867 20.658 3.14063 20.9202 3.40576C21.1834 3.66562 21.4328 3.9392 21.6672 4.22534C21.902 4.51281 22.122 4.81202 22.3264 5.12183C22.5461 5.43384 22.7307 5.75464 22.9109 6.08643C22.9746 6.20288 23.0361 6.32153 23.0955 6.44019H2.22144C2.28296 6.32153 2.34448 6.20068 2.4082 6.08423C2.58838 5.75244 2.78394 5.42505 2.98828 5.12183C3.19263 4.8186 3.41235 4.51978 3.64746 4.24292C3.88257 3.96606 4.13965 3.67163 4.40332 3.40796C4.66375 3.14528 4.93729 2.89594 5.2229 2.66089C5.51126 2.42629 5.8112 2.20628 6.12158 2.00171C6.4314 1.78198 6.7544 1.59741 7.08399 1.41943C7.41358 1.24146 7.77612 1.06567 8.12988 0.91626C8.48857 0.763127 8.85532 0.629629 9.22852 0.516357C9.58975 0.402925 9.95641 0.307592 10.3271 0.230713ZM13.2561 2.00171V5.27344H16.3828C15.9444 4.70781 15.4773 4.1651 14.9832 3.64746C14.4602 3.10107 13.8845 2.55029 13.2561 1.99512V2.00171ZM12.085 21.3662V18.0374H8.78906C9.24328 18.6204 9.73272 19.1752 10.2546 19.6985C10.8364 20.2847 11.4473 20.8414 12.085 21.3662ZM12.085 5.27344V2.00171C11.4565 2.55542 10.8809 3.1062 10.3579 3.65405C9.86397 4.16956 9.3968 4.71006 8.95825 5.27344H12.085Z" fill="#B99750"/>
</g>
<defs>
<clipPath id="clip0_1143_398">
<rect width="27" height="26.354" fill="white"/>
</clipPath>
</defs>
</svg>
