<svg width="22" height="22" viewBox="0 0 22 22" fill="none" xmlns="http://www.w3.org/2000/svg">
<g clip-path="url(#clip0_1143_400)">
<path d="M12.6453 17.0389C12.3326 17.3397 12.0008 17.6381 11.6499 17.9341L11.7466 17.918L12.0492 17.8643C12.3234 17.8088 12.5947 17.7394 12.862 17.6566L12.9229 17.6387L13.1144 18.0487L13.3293 18.5106L13.1377 18.5715C12.8386 18.6643 12.5351 18.742 12.2282 18.8042C11.9202 18.8675 11.6069 18.9146 11.2882 18.9456C10.9696 18.9761 10.6455 18.9922 10.3179 18.9922C9.99023 18.9922 9.66976 18.9761 9.35107 18.9456C9.03239 18.9152 8.72087 18.8669 8.41113 18.8042C8.10887 18.7453 7.81003 18.67 7.51595 18.5786C7.22138 18.4876 6.93157 18.3818 6.64762 18.2617H6.62435L6.60823 18.251C6.32894 18.1316 6.0574 17.9997 5.79362 17.8553C5.51969 17.7085 5.25651 17.5474 4.9987 17.3773C4.75028 17.2116 4.5112 17.0323 4.28255 16.8402C4.04443 16.645 3.81885 16.4391 3.60221 16.2243C3.38726 16.013 3.18405 15.79 2.99349 15.5565C2.80219 15.3222 2.62292 15.0784 2.45638 14.826C2.28084 14.5712 2.11831 14.3077 1.9694 14.0365C1.91748 13.9416 1.86735 13.8449 1.81901 13.7482H11.3437C11.3593 13.9307 11.3953 14.1109 11.4512 14.2853C11.4673 14.3337 11.4834 14.3838 11.5031 14.4321L11.6141 14.7043H10.8013V17.4095C11.3169 16.9798 11.7931 16.5483 12.2336 16.1151C12.3714 16.423 12.5129 16.731 12.6543 17.0389H12.6453ZM1.07422 11.6624L0 7.3405H1.55404L2.04818 9.97591H2.08219L2.63363 7.3405H4.1429L4.71761 9.95264H4.74984L5.22428 7.3405H6.77653L5.70231 11.6642H4.01937L3.41064 9.33675H3.36589L2.75895 11.6642L1.07422 11.6624ZM8.0083 11.6624L6.93587 7.3405H8.48812L8.98405 9.97591H9.01807L9.5695 7.3405H11.0788L11.6535 9.95264H11.6857L12.1584 7.3405H13.7124L12.6382 11.6642H10.9534L10.3465 9.33675H10.3018L9.69303 11.6642L8.0083 11.6624ZM14.9442 11.6624L13.8717 7.3405H15.424L15.9199 9.97591H15.9521L16.5054 7.3405H18.0146L18.5894 9.95264H18.6198L19.0942 7.3405H20.6483L19.5741 11.6642H17.8893L17.2824 9.33675H17.2376L16.6289 11.6642L14.9442 11.6624ZM20.8739 20.702C20.827 20.7475 20.7724 20.7845 20.7127 20.8112C20.6531 20.8375 20.5896 20.8538 20.5247 20.8595C20.4504 20.8656 20.3756 20.8571 20.3045 20.8345C20.2336 20.8126 20.1679 20.7767 20.1112 20.7288L18.5159 19.3753L17.9788 20.7199C17.9343 20.828 17.8798 20.9317 17.8159 21.0296C17.7567 21.1183 17.6869 21.1994 17.6082 21.2713C17.5386 21.3432 17.4534 21.3982 17.3593 21.4321C17.2652 21.466 17.1645 21.478 17.065 21.4671C16.9655 21.4563 16.8699 21.4228 16.7853 21.3693C16.7007 21.3158 16.6295 21.2437 16.577 21.1585C16.5271 21.0885 16.4845 21.0135 16.4499 20.9347C15.4884 18.5321 14.2012 16.1366 13.2487 13.7285C13.2198 13.6574 13.2105 13.5798 13.2219 13.5039C13.2333 13.4279 13.2649 13.3565 13.3135 13.297C13.362 13.2375 13.4256 13.1921 13.4977 13.1657C13.5698 13.1392 13.6477 13.1326 13.7231 13.1466C16.0309 13.5745 19.019 14.5485 21.3662 15.1716C22.0949 15.3631 22.2131 16.0059 21.6742 16.5036C21.5889 16.5833 21.4953 16.6536 21.3949 16.7131C20.9813 16.9476 20.5623 17.2179 20.1541 17.4668L21.7422 18.8275C21.7989 18.8776 21.8452 18.9384 21.8783 19.0065V19.0173C21.9093 19.0805 21.9275 19.1493 21.932 19.2196C21.9359 19.2908 21.9281 19.3622 21.9087 19.4308C21.8872 19.5004 21.8539 19.5658 21.8102 19.6242C21.5218 19.9991 21.2128 20.3578 20.8846 20.6984L20.8739 20.702ZM20.4639 20.1738L21.2319 19.2786C20.8936 18.9868 19.4505 17.8625 19.293 17.5903C19.2502 17.5156 19.2385 17.427 19.2603 17.3437C19.282 17.2604 19.3355 17.1889 19.4093 17.1445C19.9106 16.8652 20.5588 16.4749 21.035 16.1563C21.0948 16.121 21.1511 16.0803 21.2033 16.0345C21.2429 15.9991 21.2778 15.9588 21.3071 15.9146L21.3286 15.8734L21.2856 15.8483C21.2521 15.8334 21.2174 15.8214 21.1818 15.8125L14.04 13.9129L17.0407 20.6733C17.0556 20.7062 17.073 20.7379 17.0926 20.7682L17.123 20.8076L17.1606 20.7808C17.2004 20.7454 17.2348 20.7043 17.2627 20.659C17.2995 20.6026 17.3307 20.5426 17.3558 20.48C17.5814 19.9286 17.8356 19.1766 18.0988 18.6681L18.131 18.6234C18.1589 18.5906 18.1929 18.5636 18.2312 18.5439C18.2695 18.5243 18.3113 18.5124 18.3542 18.5089C18.3971 18.5054 18.4402 18.5104 18.4812 18.5236C18.5222 18.5368 18.5601 18.5579 18.5929 18.5858L20.471 20.1774L20.4639 20.1738ZM9.00374 17.9395C8.42923 17.4536 7.88232 16.9359 7.36556 16.389C6.863 15.8605 6.40098 15.295 5.9834 14.6971H3.53418C3.63444 14.8314 3.74007 14.9603 3.84928 15.0856C3.98535 15.2432 4.12858 15.3971 4.27718 15.5457C4.47173 15.7415 4.67345 15.9241 4.88232 16.0936C5.0918 16.2663 5.30991 16.4282 5.53581 16.5788C5.76332 16.7342 5.99877 16.8776 6.24121 17.0085C6.47993 17.141 6.73416 17.2603 7.00391 17.3665H7.01823H7.02897C7.28141 17.4722 7.53922 17.5671 7.80062 17.6476C8.06639 17.7306 8.33655 17.7987 8.60986 17.8517C8.71012 17.8714 8.81217 17.8893 8.91243 17.9054L9.00374 17.9198V17.9395ZM3.52344 4.29688H6.12484C6.53966 3.70606 6.99301 3.14326 7.48193 2.61214C7.98617 2.06044 8.51799 1.53459 9.07536 1.03662L8.9375 1.05632C8.82471 1.07422 8.7137 1.09391 8.60449 1.11719C8.329 1.17248 8.05651 1.24179 7.78808 1.32487C7.52021 1.40723 7.2572 1.50466 7.00032 1.6167C6.73654 1.7289 6.48351 1.84825 6.24121 1.97477C5.99891 2.10129 5.7602 2.24333 5.52506 2.40088C5.29916 2.55144 5.08106 2.71338 4.87158 2.88607C4.66211 3.05615 4.46159 3.24414 4.26644 3.43392C4.11784 3.58252 3.97461 3.73649 3.83854 3.89404C3.72754 4.02116 3.62012 4.15186 3.51807 4.28792L3.52344 4.29688ZM11.5801 1.04378C12.1637 1.56776 12.6931 2.09055 13.1681 2.61214C13.6571 3.14277 14.1099 3.70561 14.5234 4.29688H17.1195C17.0192 4.16439 16.9136 4.03369 16.8044 3.90837C16.6701 3.7526 16.5251 3.59863 16.3747 3.44824C16.1801 3.25369 15.979 3.07107 15.7713 2.90039C15.562 2.72756 15.3438 2.56562 15.1178 2.4152C14.8923 2.26362 14.6571 2.12158 14.4124 1.9891C14.1678 1.85661 13.9135 1.73606 13.6497 1.62744L13.6336 1.61133C13.3794 1.5057 13.1216 1.41081 12.8602 1.33024C12.592 1.24787 12.3194 1.18033 12.0438 1.12793C11.9292 1.10466 11.8164 1.08496 11.7072 1.07422L11.5819 1.05452L11.5801 1.04378ZM8.41471 0.187988C8.72266 0.124729 9.03597 0.0775825 9.35465 0.0465495C9.66797 0.0161133 9.99739 0 10.3232 0C10.6491 0 10.9714 0.0161133 11.2918 0.0465495C11.6123 0.0769857 11.922 0.125326 12.2318 0.187988C12.534 0.247703 12.8328 0.323604 13.127 0.415365C13.4233 0.506175 13.715 0.611942 14.0006 0.732259H14.0203L14.0365 0.741211C14.3158 0.86773 14.5903 1.0026 14.86 1.14583C15.1322 1.29443 15.3971 1.45378 15.6514 1.62207C15.8995 1.78822 16.1385 1.96751 16.3675 2.15918C16.6062 2.35373 16.8324 2.55903 17.0461 2.77507C17.2606 2.9868 17.4638 3.20972 17.6548 3.44287C17.8461 3.6771 18.0254 3.92091 18.1919 4.17334C18.3709 4.42757 18.5213 4.68897 18.6681 4.95931C18.72 5.0542 18.7702 5.15088 18.8185 5.24756H1.81006C1.86019 5.15088 1.91032 5.05241 1.96224 4.95752C2.10905 4.68718 2.26839 4.42041 2.4349 4.17334C2.6014 3.92627 2.78044 3.68278 2.972 3.45719C3.16357 3.23161 3.37305 2.9917 3.58789 2.77686C3.80009 2.56282 4.02297 2.35965 4.2557 2.16813C4.49066 1.97697 4.73505 1.79771 4.98796 1.63102C5.2404 1.45199 5.50358 1.3016 5.77214 1.15658C6.04069 1.01156 6.3361 0.868327 6.62435 0.746582C6.91661 0.621807 7.21545 0.513031 7.51953 0.420736C7.81387 0.328309 8.11263 0.25063 8.41471 0.187988ZM10.8013 1.63102V4.29688H13.349C12.9918 3.836 12.6111 3.39379 12.2085 2.97201C11.7824 2.5268 11.3133 2.07802 10.8013 1.62565V1.63102ZM9.847 17.4095V14.6971H7.16146C7.53156 15.1722 7.93036 15.6242 8.35563 16.0506C8.82965 16.5283 9.3274 16.9818 9.847 17.4095ZM9.847 4.29688V1.63102C9.33496 2.08219 8.86588 2.53098 8.43978 2.97738C8.03731 3.39742 7.65665 3.83783 7.29932 4.29688H9.847Z" fill="#00BF7E"/>
</g>
<defs>
<clipPath id="clip0_1143_400">
<rect width="22" height="21.4736" fill="white"/>
</clipPath>
</defs>
</svg>
