<svg
    xmlns="http://www.w3.org/2000/svg"
    viewBox="-7 -6 30 30"
    fill="none"
>
    <g clipPath="url(#clip0_276_258)">
        <path
            d="M8.98314 12.1921L8.47435 10.3267L8.72374 10.0385C8.83629 9.86517 8.8607 9.71352 8.79833 9.58314C8.66332 9.30085 8.38378 9.35346 8.12267 9.35346C7.84899 9.35346 7.5111 9.29879 7.42565 9.66051C7.39708 9.78148 7.43297 9.90812 7.51305 10.0386L7.76256 10.3268L7.25389 12.1922L8.11852 12.914L8.98314 12.1921ZM3.53832 9.95583H2.68517C2.62938 9.95583 2.58385 10.0039 2.58385 10.0629V11.155H1.55004C1.49425 11.155 1.44872 11.2031 1.44872 11.2621V12.1634C1.44872 12.2223 1.49425 12.2704 1.55004 12.2704H2.58385V13.3624C2.58385 13.4215 2.62938 13.4696 2.68517 13.4696H3.53832C3.5941 13.4696 3.63963 13.4215 3.63963 13.3624V12.2704H4.67345C4.72923 12.2704 4.77477 12.2223 4.77477 12.1634V11.2621C4.77477 11.2031 4.72923 11.155 4.67345 11.155H3.63963V10.0629C3.63976 10.0039 3.5941 9.95583 3.53832 9.95583ZM3.1118 8.42535C2.25243 8.42535 1.4746 8.7934 0.911485 9.38815C0.348374 9.98317 -1.33514e-05 10.8049 -1.33514e-05 11.7126C-1.33514e-05 12.6204 0.348374 13.4422 0.911485 14.0371C1.4746 14.632 2.25243 15.0001 3.1118 15.0001C3.90734 15.0001 4.63304 14.6846 5.18321 14.1657C8.27635 14.1577 11.7019 14.0959 14.323 14.1427C14.9797 14.1545 15.0477 14.2044 14.9785 13.2164C14.7482 12.0643 14.3082 11.1521 13.3376 10.5093C12.6643 10.0633 11.7963 9.68927 10.9073 9.32445C10.7942 9.21599 10.6476 9.0851 10.4925 8.94647C10.131 8.62317 9.7202 8.25602 9.65196 8.12809C9.77342 7.99914 9.88548 7.86373 9.99474 7.72974L10.4637 7.15458L10.7943 7.16374L11.4526 7.18205C12.0178 6.49522 11.9822 5.0198 11.9281 4.16789C11.6644 2.45609 11.038 1.22337 10.0178 0.510484C9.3264 0.0274035 8.91381 0.000580041 8.10619 6.42049e-05C7.40123 -0.000451631 6.96886 -0.0161847 6.36778 0.401901C4.40795 1.76526 3.80101 4.98162 4.75877 7.14878H5.4276C5.44444 7.1698 5.46068 7.18979 5.47594 7.20888L5.53661 7.2838L5.83397 7.66139C6.00878 7.88359 6.18578 8.10604 6.39525 8.30129C6.28136 8.45681 5.93236 8.77973 5.62315 9.06589C5.52928 9.15267 5.43883 9.23624 5.35802 9.31284L5.27318 9.34779C4.71324 8.77676 3.9514 8.42535 3.1118 8.42535ZM6.22081 11.8502C6.22264 11.8046 6.2235 11.7588 6.2235 11.7128C6.2235 10.9096 5.95091 10.1738 5.49803 9.60287C5.5891 9.51556 5.70128 9.41188 5.8192 9.30265C6.12316 9.02139 6.46276 8.70725 6.62462 8.49227L6.63939 8.50298C6.97557 8.74581 7.38988 8.90752 7.95653 8.90636C8.48558 8.90533 8.8839 8.74942 9.21044 8.51897C9.28978 8.463 9.36437 8.40316 9.43529 8.33997C9.59508 8.55714 9.96678 8.88947 10.2999 9.18711C10.5686 9.42723 10.8105 9.64349 10.8634 9.721C10.8694 9.72977 10.8761 9.73776 10.8833 9.74473C11.2328 10.2108 11.542 10.7083 11.8036 11.2628L10.6871 11.2341L8.11852 13.5936L6.22081 11.8502ZM1.27916 9.77658C1.74815 9.28112 2.3961 8.97471 3.11192 8.97471C3.82774 8.97471 4.47557 9.28112 4.94457 9.77658C5.41368 10.2722 5.70372 10.9566 5.70372 11.7128C5.70372 12.469 5.41368 13.1535 4.94457 13.649C4.47557 14.1444 3.82774 14.451 3.11192 14.451C2.3961 14.451 1.74815 14.1444 1.27916 13.649C0.810044 13.1535 0.520005 12.4691 0.520005 11.7128C0.520005 10.9566 0.810044 10.272 1.27916 9.77658ZM10.324 6.88725C10.8655 4.91482 10.6072 3.10127 9.13707 1.54964C8.87657 2.43907 8.29271 3.17336 7.29955 3.71589C6.82433 4.08871 6.36547 4.53878 5.92052 5.05552C5.84154 4.71313 6.14232 4.29621 6.50707 3.86651C6.16954 4.0428 5.85961 4.28873 5.63976 4.7633C5.38512 5.31318 5.38817 5.77691 5.47228 6.37374C5.49742 6.55222 5.53295 6.72296 5.57945 6.88557C5.60118 6.89589 5.61998 6.91021 5.63378 6.92839C5.67418 6.981 5.7152 7.03169 5.75157 7.07669C5.76366 7.09152 5.77672 7.1079 5.81346 7.15458L6.11083 7.53218C6.338 7.82079 6.56859 8.11004 6.86058 8.32076C7.14037 8.52271 7.48522 8.65734 7.95665 8.65644C8.39159 8.65567 8.72093 8.52606 8.99217 8.33482C9.27513 8.13532 9.50316 7.8636 9.72057 7.59678L10.2637 6.93071C10.279 6.91175 10.3 6.89718 10.324 6.88725Z"
            fill="#191919" />
    </g>
    <defs>
        <clipPath id="clip0_276_258">
            <rect width="60" height="40" fill="white" />
        </clipPath>
    </defs>
</svg>