<svg
    xmlns="http://www.w3.org/2000/svg"
    viewBox="-7 -6 30 30"
    fill="none"
>
    <g clipPath="url(#clip0_276_258)">
        <path
            d="M11.2244 10.0152L11.4673 8.83997L11.3 8.60771C11.2244 8.46835 11.2085 8.34602 11.25 8.24073C11.3403 8.01311 11.5283 8.05492 11.7041 8.05492C11.8884 8.05492 12.1155 8.01001 12.1729 8.30267C12.1924 8.40022 12.168 8.50241 12.1143 8.60771L11.947 8.83997L12.0923 9.54605L13.0554 8.48383L13.5547 8.49932C13.3826 8.06111 13.1641 7.68949 12.9102 7.33955C13.3887 7.57491 13.8782 7.80717 14.2407 8.09518C14.4714 8.27789 14.5898 8.41725 14.6838 8.63867C14.8816 9.11094 14.9036 9.53366 14.9329 10.0446L15.0024 10.4875H12.2876L12.29 10.4983H11.2512C11.228 10.8003 11.0913 10.9752 10.824 11H7.5293H4.17969C3.91113 10.9737 3.77441 10.7987 3.75244 10.4937L3.84522 8.62938C3.87085 8.19892 3.96606 7.85827 4.12109 7.59813C4.22363 7.42626 4.35059 7.29929 4.49097 7.20019C4.93652 6.88586 5.97656 6.79295 6.38062 6.33152L6.99951 8.64022L7.31079 7.26987L7.1582 7.05773C7.08984 6.93076 7.07398 6.81928 7.11304 6.72327C7.19605 6.51579 7.36694 6.5545 7.52686 6.5545C7.69409 6.5545 7.90039 6.51424 7.95288 6.78057C7.96997 6.86883 7.948 6.96173 7.89917 7.05773L7.74658 7.26987L8.05786 8.64022L8.61816 6.33152C9.02222 6.79295 10.0635 6.88586 10.5078 7.20019C10.6482 7.29929 10.7764 7.42626 10.8777 7.59813C11.0327 7.85827 11.1279 8.19737 11.1536 8.62938L11.2244 10.0152ZM1.86646 7.47116L2.28149 9.01804L2.49023 8.09982L2.3877 7.95737C2.34131 7.87221 2.33154 7.79788 2.35718 7.73285C2.41211 7.59349 2.52686 7.61981 2.63428 7.61981C2.74658 7.61981 2.88452 7.59349 2.91992 7.77156C2.93213 7.8304 2.91626 7.89388 2.88452 7.95737L2.78198 8.09982L2.99072 9.01804L3.3667 7.47116C3.42163 7.5331 3.49731 7.58575 3.58643 7.63065C3.55591 7.71272 3.52783 7.79943 3.50342 7.88924C3.43994 8.12305 3.39844 8.38318 3.38135 8.67274H3.38257C3.38257 8.67893 3.38135 8.68668 3.38135 8.69287L3.29102 10.4859H2.63794H0.286865C0.106201 10.4689 0.0146484 10.3512 0 10.1468L0.0622559 9.0103C0.0793457 8.72229 0.144043 8.49467 0.247803 8.3197C0.316162 8.20512 0.401611 8.11995 0.495605 8.05337C0.793457 7.84278 1.59546 7.78085 1.86646 7.47116ZM1.6626 5.2786C1.62231 5.28324 1.5918 5.29408 1.56982 5.31266C1.55762 5.3235 1.54785 5.33744 1.54175 5.35292C1.53442 5.3715 1.53198 5.39628 1.53198 5.4226C1.53442 5.50776 1.56982 5.62235 1.6394 5.75396L1.64062 5.75706L1.87256 6.22468C1.96533 6.41049 2.06177 6.60095 2.1814 6.74031C2.29492 6.87192 2.43286 6.96173 2.61597 6.96173C2.81372 6.96173 2.95776 6.86883 3.07617 6.72947C3.19946 6.58237 3.29712 6.38107 3.39355 6.17978L3.65356 5.63628C3.70605 5.48454 3.72192 5.39318 3.70483 5.34982C3.69385 5.3235 3.65112 5.31576 3.58032 5.3235C3.53516 5.33589 3.48755 5.32505 3.4375 5.29253L3.56812 4.79704C3.09082 4.78929 2.76489 4.684 2.37793 4.37122C2.25098 4.26902 2.21314 4.15134 2.08618 4.16218C1.98975 4.18541 1.90918 4.2396 1.8457 4.32786C1.78467 4.41148 1.73828 4.52606 1.70776 4.67316L1.78467 5.26621C1.74561 5.29718 1.7041 5.30027 1.6626 5.2786ZM3.72925 5.1315C3.7854 5.15317 3.8269 5.19343 3.85132 5.25692C3.89038 5.35757 3.87573 5.50776 3.80127 5.72145C3.80005 5.72609 3.79883 5.72919 3.79639 5.73383L3.53272 6.28507C3.43018 6.49875 3.32642 6.71244 3.18726 6.87812C3.04199 7.05154 2.86255 7.16612 2.61719 7.16458C2.3877 7.16458 2.21558 7.05309 2.07397 6.88896C1.93848 6.73102 1.83472 6.52972 1.73706 6.33152L1.50513 5.8639C1.41846 5.69977 1.37451 5.55112 1.37085 5.42724C1.36963 5.36686 1.37695 5.31266 1.39526 5.26621C1.41357 5.21511 1.44165 5.1733 1.48071 5.14079C1.49902 5.1253 1.521 5.11137 1.54419 5.10053C1.52954 4.84968 1.52466 4.54 1.53442 4.27986C1.53931 4.21638 1.54907 4.15289 1.5625 4.08941C1.62231 3.82153 1.77002 3.60475 1.95435 3.4561C2.01904 3.40346 2.08984 3.3601 2.16553 3.32603C2.61108 3.12164 3.20068 3.23313 3.51685 3.66669C3.64502 3.84321 3.72681 4.07702 3.7439 4.3867L3.72925 5.1315ZM6.06079 3.06125C6.00952 3.069 5.96924 3.08603 5.93994 3.1108C5.92163 3.12629 5.90698 3.14797 5.89844 3.17119C5.88867 3.19906 5.88379 3.23468 5.88379 3.27494C5.88623 3.40346 5.93994 3.57223 6.04492 3.76733L6.04736 3.77043L6.39282 4.46877C6.53076 4.74749 6.67481 5.03085 6.85303 5.23679C7.02271 5.43344 7.229 5.5666 7.5 5.56815C7.79541 5.5697 8.01025 5.43034 8.18604 5.22285C8.37036 5.00452 8.51685 4.70258 8.66089 4.40219L9.04907 3.59081C9.1272 3.36474 9.15161 3.22848 9.12598 3.16345C9.11011 3.12164 9.04175 3.11235 8.927 3.12629C8.91846 3.12784 8.90991 3.12784 8.90137 3.12629C8.85376 3.12629 8.80249 3.1108 8.74634 3.07829L8.9209 2.33814C8.20801 2.3273 7.72095 2.16936 7.14478 1.70174C6.95557 1.54844 6.89819 1.37347 6.70898 1.3905C6.56616 1.42612 6.44531 1.50664 6.3501 1.6367C6.25855 1.76213 6.18897 1.93245 6.1438 2.15078L6.26709 3.04577C6.19385 3.09377 6.12549 3.09687 6.06079 3.06125ZM9.16138 2.83983C9.24561 2.8708 9.30664 2.93273 9.34448 3.02719C9.40308 3.17893 9.3811 3.40191 9.27002 3.72088C9.26758 3.72708 9.26514 3.73327 9.2627 3.73791L8.86841 4.56168C8.71582 4.88065 8.56079 5.20117 8.35205 5.44737C8.13477 5.70596 7.86743 5.87784 7.50122 5.87629C7.15942 5.87474 6.90186 5.70906 6.69067 5.46441C6.48804 5.22905 6.33423 4.92865 6.18774 4.6329L5.84229 3.93456C5.71411 3.69146 5.64697 3.46694 5.64209 3.28268C5.63965 3.19287 5.65186 3.11235 5.67871 3.04112C5.70679 2.96525 5.74829 2.90177 5.80566 2.85376C5.83374 2.82899 5.86548 2.80886 5.90088 2.79338C5.88013 2.42021 5.8728 1.95878 5.88623 1.57012C5.89356 1.47567 5.9082 1.38121 5.92896 1.28676C6.01685 0.885719 6.23901 0.563646 6.51367 0.342222C6.61011 0.264801 6.71631 0.199767 6.82861 0.148669C7.49268 -0.15637 8.37402 0.0108594 8.84521 0.6581C9.03687 0.921332 9.15772 1.27128 9.18335 1.73271L9.16138 2.83983ZM10.3613 6.65205L10.6665 6.64121L10.9192 6.63347C10.6238 5.47989 10.7227 4.41922 11.4343 3.51804C11.5552 4.01353 11.825 4.42077 12.2852 4.72271C12.5049 4.9302 12.7185 5.18105 12.9236 5.4675C12.9602 5.27705 12.821 5.04478 12.6514 4.80633C12.8076 4.90388 12.9517 5.04169 13.053 5.30492C13.1714 5.61151 13.1689 5.86855 13.1311 6.20146C13.1128 6.3563 13.0835 6.5003 13.0408 6.63192H13.4619C13.9063 5.4257 13.6243 3.63727 12.7161 2.87854C12.4377 2.64628 12.2375 2.65402 11.9104 2.65557C11.5356 2.65557 11.3452 2.67105 11.0242 2.93893C10.5518 3.33532 10.2612 4.02128 10.1392 4.97356C10.116 5.44892 10.1001 6.26959 10.3613 6.65205Z"
            fill="#191919" />
    </g>
    <defs>
        <clipPath id="clip0_276_258">
            <rect width="60" height="40" fill="white" />
        </clipPath>
    </defs>
</svg>