<svg
    xmlns="http://www.w3.org/2000/svg"
    viewBox="-7 -6 30 30"
    fill="none"
>
    <g clipPath="url(#clip0_276_258)">
        <path
            d="M11.3373 2.65004C9.50107 0.248919 7.38481 -1.05702 5.79577 1.07901C3.96954 1.18028 3.18666 4.11395 4.44282 5.56064C4.35267 5.55947 4.26806 5.57902 4.19454 5.62164C4.09848 5.67716 4.0257 5.76709 3.98912 5.89456C3.95255 6.02007 3.95255 6.18272 4.00427 6.38487L4.01055 6.40481C4.03346 6.47636 4.05341 6.56707 4.07373 6.66052C4.15796 7.04683 4.2507 7.47146 4.66671 7.448C4.68887 7.44643 4.71067 7.44409 4.73284 7.44018C4.74799 8.2386 5.11671 8.60614 5.59885 9.08589C5.46954 9.28569 5.33986 9.48706 5.18432 9.67317L5.18395 9.67239C4.36819 10.4497 2.2656 10.6053 1.36745 11.1359C1.08333 11.3032 0.826559 11.5167 0.620032 11.8053C0.590106 11.8467 0.562028 11.8886 0.535057 11.9304C0.555008 11.9288 0.57385 11.9281 0.590845 11.9281H14.3465C14.3203 11.887 14.2926 11.846 14.2634 11.8053C14.0569 11.5167 13.8001 11.3032 13.516 11.1359C12.6459 10.6221 10.6667 10.4599 9.78149 9.74473C9.72644 9.64502 9.66917 9.51912 9.61375 9.38579C9.54208 9.21218 9.47483 9.02802 9.41942 8.86811C9.7704 8.52403 10.0401 8.15219 10.1011 7.44291L10.1428 7.4437C10.2404 7.44213 10.3338 7.41867 10.4214 7.36589C10.6154 7.24937 10.721 7.02689 10.772 6.77313C10.8374 6.45056 10.8156 6.06816 10.7842 5.82652C10.782 5.80971 10.7779 5.79407 10.772 5.77921C10.7044 5.57863 10.619 5.47032 10.5123 5.42418C10.5607 4.46585 10.4077 2.9476 11.3373 2.65004ZM14.4093 12.4145H0.590845C0.239491 12.4145 -0.0472097 12.7632 0.00673199 13.1886L0.770402 19.2261C0.822865 19.648 1.09959 20.0002 1.50193 20.0002H13.4982C13.9006 20.0002 14.1766 19.648 14.2298 19.2261L14.9938 13.1886C15.0466 12.7628 14.761 12.4145 14.4093 12.4145ZM7.56695 15.2097C7.08259 15.2097 6.68949 15.6254 6.68949 16.138C6.68949 16.6509 7.08259 17.0666 7.56695 17.0666C8.05131 17.0666 8.44405 16.6509 8.44405 16.138C8.44405 15.6254 8.05131 15.2097 7.56695 15.2097ZM5.82902 9.31658C6.30636 9.78695 6.82619 10.0157 7.35415 10.0157C7.90722 10.0161 8.46067 9.76584 8.97533 9.281L9.15636 9.11365L9.16855 9.10271C9.21621 9.23721 9.27052 9.3811 9.32705 9.51795C9.40464 9.70445 9.4874 9.88001 9.56757 10.0071C8.70082 11.8667 6.139 11.9316 5.30846 10.0176C5.5172 9.79399 5.67496 9.55509 5.82902 9.31658ZM6.04072 2.87643C6.45969 3.32335 6.90304 3.45198 7.33752 3.49226C7.46572 3.51611 7.5906 3.53253 7.71511 3.54895C8.13185 3.6033 8.54786 3.65765 9.09836 4.06116C9.35846 4.25119 9.53173 4.48149 9.62151 4.74932C9.7135 5.02537 9.71979 5.34755 9.64368 5.71391C9.63669 5.7477 9.63841 5.78285 9.64866 5.81569C9.6589 5.84853 9.6773 5.87785 9.70192 5.90059C9.72654 5.92333 9.75648 5.93865 9.78861 5.94495C9.82074 5.95124 9.85388 5.94829 9.88456 5.93639L10.0955 5.85467C10.267 5.79133 10.3745 5.77022 10.4258 5.89964C10.4521 6.11156 10.4687 6.43101 10.4158 6.69298C10.3844 6.8482 10.3305 6.97762 10.2418 7.03119C10.2104 7.04996 10.1757 7.05856 10.1388 7.05895C10.0922 7.05973 10.0401 7.04879 9.98469 7.0308C9.9688 7.02572 9.95254 7.02298 9.93555 7.02259C9.83506 7.02024 9.75156 7.10431 9.74934 7.21027C9.72939 8.08337 9.36363 8.41689 8.91843 8.82236L8.73296 8.99283C8.28592 9.41394 7.81523 9.63134 7.35415 9.63134C6.90562 9.63095 6.45747 9.42372 6.03924 8.99674L5.85082 8.8075C5.38383 8.34338 5.03986 8.00126 5.10599 7.16804C5.10858 7.1266 5.09934 7.08398 5.07607 7.04683C5.04961 7.00421 5.00824 6.97447 4.96105 6.96413C4.91387 6.95379 4.86474 6.96371 4.82447 6.9917C4.79417 7.01281 4.76388 7.03002 4.73395 7.04214L4.72619 7.04488C4.69885 7.05543 4.67225 7.06169 4.64786 7.06325C4.53666 7.06951 4.48013 6.81028 4.42878 6.5745C4.40587 6.47011 4.3837 6.36845 4.35488 6.28008C4.32348 6.15418 4.32016 6.06542 4.33678 6.00756C4.3438 5.98331 4.35488 5.96728 4.36855 5.95946C4.39035 5.94695 4.42286 5.94304 4.46166 5.94695C4.55439 5.95594 4.66597 6.00795 4.7709 6.09201C4.7907 6.10791 4.81338 6.11934 4.83753 6.1256C4.86168 6.13185 4.88678 6.1328 4.91129 6.12837C4.95892 6.11975 5.00138 6.09148 5.02936 6.04978C5.05734 6.00808 5.06856 5.95633 5.06055 5.9059C4.88875 4.84629 4.96745 4.15578 5.18062 3.68463C5.36757 3.27213 5.66572 3.02189 5.989 2.83499L6.04072 2.87643Z"
            fill="#191919" />
    </g>
    <defs>
        <clipPath id="clip0_276_258">
            <rect width="60" height="40" fill="white" />
        </clipPath>
    </defs>
</svg>