<svg
    xmlns="http://www.w3.org/2000/svg"
    viewBox="-7 -6 30 30"
    fill="none"
>
    <g clipPath="url(#clip0_276_258)">
        <path
            d="M2.0789 4.06462V12.3931C2.07747 12.4087 2.07747 12.4245 2.0789 12.4401C2.0789 12.53 2.0789 12.6172 2.0873 12.7002V13.3006C2.1045 13.6996 2.27397 14.0773 2.56156 14.3576C2.6961 14.4946 2.857 14.6036 3.03479 14.6782C3.21259 14.7528 3.40367 14.7915 3.59681 14.792H3.66816C4.05417 14.8215 4.44191 14.8215 4.82792 14.792H11.7823V15.5031C11.7834 15.5924 11.7666 15.6811 11.7328 15.764C11.699 15.8469 11.6489 15.9223 11.5853 15.9859C11.5218 16.0494 11.4462 16.0999 11.3628 16.1344C11.2794 16.1688 11.19 16.1865 11.0996 16.1865H1.50811C1.32728 16.1858 1.15405 16.1144 1.02618 15.988C0.898307 15.8615 0.826142 15.6902 0.825406 15.5114V4.73975C0.826869 4.56114 0.899266 4.39026 1.02698 4.26396C1.1547 4.13766 1.3275 4.06606 1.50811 4.06462H2.0789ZM8.31561 10.6886L6.22412 10.7232C6.22474 11.0771 6.31461 11.4253 6.48561 11.7362C6.6566 12.0471 6.90332 12.3109 7.20341 12.5037L8.31561 10.6886ZM8.42473 10.0744L8.45551 7.7474V7.58692L8.29463 7.59937C8.09941 7.61215 7.9059 7.64365 7.71684 7.69344C7.53414 7.74238 7.35695 7.80959 7.18802 7.89404C6.76265 8.10497 6.40105 8.4231 6.13971 8.81635C5.87837 9.2096 5.72652 9.66406 5.6995 10.1339L5.68691 10.2874H5.84639L8.27085 10.2169H8.41074L8.43453 10.0785L8.42473 10.0744ZM8.15893 7.88574L8.13514 9.93742L6.00728 9.99691C6.05498 9.60324 6.20005 9.22725 6.42967 8.90222C6.65928 8.57719 6.96635 8.31312 7.32373 8.13338C7.47436 8.06191 7.63063 8.00269 7.79099 7.9563C7.93089 7.93278 8.03721 7.90926 8.15893 7.88574ZM9.01651 10.4797L7.82317 12.4609C8.18826 12.6614 8.59886 12.7671 9.01651 12.768C9.32264 12.7782 9.62778 12.7282 9.91422 12.6209C10.2007 12.5136 10.4627 12.3511 10.6852 12.1428C10.9076 11.9346 11.086 11.6848 11.2101 11.4078C11.3341 11.1309 11.4014 10.8323 11.4079 10.5295C11.4143 10.2266 11.3599 9.92552 11.2479 9.64363C11.1358 9.36173 10.9682 9.10465 10.7548 8.88729C10.5415 8.66994 10.2866 8.49663 10.005 8.37743C9.72346 8.25822 9.42073 8.19549 9.11444 8.19287L9.01651 10.4797ZM8.91858 3.06022H8.23727C8.22921 3.0596 8.22111 3.06071 8.21352 3.06348C8.20594 3.06625 8.19905 3.07061 8.19333 3.07626C8.18761 3.08192 8.1832 3.08873 8.1804 3.09623C8.1776 3.10373 8.17648 3.11174 8.17711 3.11971V4.90991C8.17648 4.91788 8.1776 4.9259 8.1804 4.9334C8.1832 4.9409 8.18761 4.94771 8.19333 4.95336C8.19905 4.95902 8.20594 4.96338 8.21352 4.96615C8.22111 4.96892 8.22921 4.97003 8.23727 4.9694H8.91858C8.92664 4.97003 8.93474 4.96892 8.94233 4.96615C8.94991 4.96338 8.9568 4.95902 8.96252 4.95336C8.96823 4.94771 8.97264 4.9409 8.97544 4.9334C8.97824 4.9259 8.97937 4.91788 8.97874 4.90991V3.11971C8.97775 3.10425 8.97109 3.08969 8.96002 3.07873C8.94894 3.06778 8.93421 3.0612 8.91858 3.06022ZM5.32317 3.06022H4.64745C4.63939 3.0596 4.63129 3.06071 4.62371 3.06348C4.61612 3.06625 4.60923 3.07061 4.60352 3.07626C4.5978 3.08192 4.59339 3.08873 4.59059 3.09623C4.58779 3.10373 4.58667 3.11174 4.5873 3.11971V4.90991C4.58667 4.91788 4.58779 4.9259 4.59059 4.9334C4.59339 4.9409 4.5978 4.94771 4.60352 4.95336C4.60923 4.95902 4.61612 4.96338 4.62371 4.96615C4.63129 4.96892 4.63939 4.97003 4.64745 4.9694H5.32317C5.33123 4.97003 5.33933 4.96892 5.34691 4.96615C5.3545 4.96338 5.36139 4.95902 5.36711 4.95336C5.37282 4.94771 5.37723 4.9409 5.38003 4.9334C5.38283 4.9259 5.38396 4.91788 5.38332 4.90991V3.11971C5.38233 3.10425 5.37568 3.08969 5.3646 3.07873C5.35353 3.06778 5.3388 3.0612 5.32317 3.06022ZM7.12087 1.78605H6.43956C6.4315 1.78543 6.4234 1.78654 6.41582 1.78931C6.40823 1.79208 6.40134 1.79644 6.39563 1.80209C6.38991 1.80775 6.3855 1.81456 6.3827 1.82206C6.3799 1.82956 6.37878 1.83757 6.37941 1.84554V4.90991C6.37878 4.91788 6.3799 4.9259 6.3827 4.9334C6.3855 4.9409 6.38991 4.94771 6.39563 4.95336C6.40134 4.95902 6.40823 4.96338 6.41582 4.96615C6.4234 4.96892 6.4315 4.97003 6.43956 4.9694H7.12087C7.12893 4.97003 7.13704 4.96892 7.14462 4.96615C7.1522 4.96338 7.15909 4.95902 7.16481 4.95336C7.17053 4.94771 7.17494 4.9409 7.17774 4.9334C7.18054 4.9259 7.18166 4.91788 7.18103 4.90991V1.84554C7.18166 1.83757 7.18054 1.82956 7.17774 1.82206C7.17494 1.81456 7.17053 1.80775 7.16481 1.80209C7.15909 1.79644 7.1522 1.79208 7.14462 1.78931C7.13704 1.78654 7.12893 1.78543 7.12087 1.78605ZM12.5126 2.24259H11.8313C11.8232 2.24218 11.815 2.24348 11.8074 2.24641C11.7999 2.24934 11.793 2.25384 11.7873 2.2596C11.7816 2.26535 11.7772 2.27225 11.7744 2.27981C11.7716 2.28737 11.7705 2.29544 11.7711 2.30347V4.90991C11.7705 4.91788 11.7716 4.9259 11.7744 4.9334C11.7772 4.9409 11.7816 4.94771 11.7873 4.95336C11.7931 4.95902 11.7999 4.96338 11.8075 4.96615C11.8151 4.96892 11.8232 4.97003 11.8313 4.9694H12.5126C12.5207 4.97003 12.5288 4.96892 12.5363 4.96615C12.5439 4.96338 12.5508 4.95902 12.5565 4.95336C12.5622 4.94771 12.5667 4.9409 12.5695 4.9334C12.5723 4.9259 12.5734 4.91788 12.5727 4.90991V2.30347C12.5853 2.26611 12.549 2.24259 12.5126 2.24259ZM10.7163 1.78605H10.035C10.0269 1.78543 10.0188 1.78654 10.0112 1.78931C10.0036 1.79208 9.99676 1.79644 9.99104 1.80209C9.98532 1.80775 9.98091 1.81456 9.97811 1.82206C9.97531 1.82956 9.97419 1.83757 9.97482 1.84554V4.90991C9.97419 4.91788 9.97531 4.9259 9.97811 4.9334C9.98091 4.9409 9.98532 4.94771 9.99104 4.95336C9.99676 4.95902 10.0036 4.96338 10.0112 4.96615C10.0188 4.96892 10.0269 4.97003 10.035 4.9694H10.7163C10.7243 4.97003 10.7324 4.96892 10.74 4.96615C10.7476 4.96338 10.7545 4.95902 10.7602 4.95336C10.7659 4.94771 10.7703 4.9409 10.7731 4.9334C10.7759 4.9259 10.7771 4.91788 10.7764 4.90991V1.84554C10.7771 1.83757 10.7759 1.82956 10.7731 1.82206C10.7703 1.81456 10.7659 1.80775 10.7602 1.80209C10.7545 1.79644 10.7476 1.79208 10.74 1.78931C10.7324 1.78654 10.7243 1.78543 10.7163 1.78605ZM13.4905 6.12958e-07H3.59961C3.40143 -0.000177559 3.20518 0.0384884 3.0222 0.113764C2.83923 0.189039 2.67315 0.299431 2.53358 0.438559L2.50979 0.464844C2.24067 0.740873 2.09023 1.10932 2.0901 1.49276V3.24699H1.50811C1.10824 3.24809 0.725074 3.40575 0.442448 3.6855C0.159822 3.96525 0.000738144 4.34431 0 4.73975V15.5072C0.000738144 15.9027 0.159822 16.2817 0.442448 16.5615C0.725074 16.8412 1.10824 16.9989 1.50811 17H11.0996C11.4996 16.9989 11.8829 16.8413 12.1658 16.5616C12.4486 16.2819 12.608 15.9028 12.6091 15.5072V14.792H13.4905C13.6886 14.7919 13.8848 14.7531 14.0677 14.6778C14.2506 14.6025 14.4168 14.4923 14.5565 14.3534C14.6969 14.2155 14.8084 14.0515 14.8845 13.8708C14.9606 13.6901 14.9998 13.4963 15 13.3006V1.49276C14.9989 1.09719 14.8395 0.718138 14.5567 0.438429C14.2738 0.15872 13.8905 0.00109587 13.4905 6.12958e-07ZM3.59961 0.817628H13.4905C13.6716 0.817628 13.8452 0.888757 13.9732 1.01537C14.1013 1.14198 14.1732 1.3137 14.1732 1.49276V5.66113H2.9169V1.49276C2.91666 1.32176 2.98217 1.15707 3.10017 1.03206L3.11696 1.01546C3.24512 0.889096 3.41862 0.81798 3.59961 0.817628ZM14.1732 6.47876V13.3006C14.1731 13.3891 14.1554 13.4766 14.1211 13.5583C14.0868 13.6399 14.0365 13.7141 13.9731 13.7765C13.9097 13.839 13.8344 13.8886 13.7516 13.9223C13.6688 13.956 13.58 13.9732 13.4905 13.973H3.65137C3.48203 13.9619 3.31985 13.9012 3.18551 13.7987C3.00923 13.641 2.94488 13.3075 2.9169 12.7569V6.47876H14.1732Z"
            fill="#191919" />
    </g>
    <defs>
        <clipPath id="clip0_276_258">
            <rect width="60" height="40" fill="white" />
        </clipPath>
    </defs>
</svg>