<svg
    xmlns="http://www.w3.org/2000/svg"
    viewBox="-7 -6 30 30"
    fill="none"
>
    <g clipPath="url(#clip0_276_258)">
        <path
            d="M6.16591 2.84301C6.07754 2.84578 6.01055 2.86376 5.96494 2.8942C5.93928 2.9108 5.91933 2.93293 5.90792 2.95922C5.89367 2.98827 5.88797 3.02286 5.8894 3.06298C5.89225 3.18057 5.95639 3.33414 6.07896 3.51122L6.08039 3.51399L6.47805 4.12825C6.63769 4.3745 6.80445 4.62629 7.01254 4.81029C7.21209 4.98738 7.45582 5.10774 7.77651 5.10912C8.12429 5.11051 8.37799 4.98461 8.58466 4.79784C8.79846 4.60277 8.96807 4.33577 9.13483 4.06876L9.58381 3.35212C9.6679 3.16674 9.69783 3.04361 9.6793 2.97029C9.6679 2.9274 9.61944 2.90527 9.53535 2.90111C9.51682 2.89973 9.49971 2.89973 9.48118 2.90111C9.46123 2.90111 9.43985 2.9025 9.41847 2.90527C9.40707 2.90665 9.39424 2.90527 9.38426 2.9025C9.34435 2.90527 9.30302 2.9025 9.26169 2.89558L9.41562 2.23567C8.2768 2.40999 7.42446 1.58821 6.22007 2.07104L6.30701 2.84854C6.2557 2.84993 6.20867 2.84854 6.16591 2.84301ZM7.57554 12.5549C8.17132 12.5549 8.6545 13.0239 8.6545 13.6022C8.6545 14.1805 8.17132 14.6495 7.57554 14.6495C6.97976 14.6495 6.49658 14.1805 6.49658 13.6022C6.49658 13.0239 6.97976 12.5549 7.57554 12.5549ZM1.67474 8.75317C1.65621 8.75593 1.63626 8.75732 1.61773 8.75732C1.59778 8.75732 1.57925 8.75593 1.56072 8.75317H0.77252C0.762543 8.75317 0.753991 8.75593 0.746864 8.76008L0.741163 8.767C0.732611 8.7753 0.72691 8.78637 0.72691 8.79744V10.5102C0.72691 10.5198 0.729761 10.5281 0.734036 10.5351L0.739738 10.5406C0.74829 10.5489 0.759692 10.5544 0.771095 10.5544H1.74886C1.76454 10.5517 1.78164 10.5517 1.79875 10.5517C1.81585 10.5517 1.83153 10.5531 1.84863 10.5544H13.3281C13.3438 10.5517 13.3609 10.5517 13.378 10.5517C13.3951 10.5517 13.4108 10.5531 13.4279 10.5544H14.2261C14.2389 10.5544 14.2503 10.5503 14.2588 10.542C14.2674 10.5337 14.2717 10.5226 14.2717 10.5102V8.79744C14.2717 8.78637 14.266 8.7753 14.2574 8.767C14.2489 8.7587 14.2375 8.75317 14.2261 8.75317H1.67474ZM3.52623 8.0476C3.51482 8.01163 3.5077 7.97428 3.50342 7.93277C3.51767 6.85229 3.34664 6.6503 4.51967 6.01529C4.94869 5.78287 6.05616 5.70401 6.53934 5.39688C6.61345 5.26269 6.6947 5.02058 6.74458 4.8767L6.74886 4.86287C6.57212 4.67748 6.42674 4.45889 6.28706 4.24446L5.8894 3.6302C5.74401 3.41991 5.66847 3.22623 5.6642 3.06851C5.66135 2.99381 5.6756 2.92602 5.70268 2.86791C5.73261 2.80566 5.77822 2.75447 5.83951 2.71435C5.86802 2.69498 5.9008 2.67976 5.93643 2.66593C5.91078 2.33251 5.9008 1.91332 5.9179 1.56192C5.92645 1.47891 5.94356 1.39452 5.96636 1.31152C6.11174 0.806551 6.55929 0.4427 7.07098 0.271151C7.31898 0.188143 7.22349 -0.00969224 7.47434 0.00275894C8.0687 0.0345786 8.98518 0.405347 9.33723 0.799634C9.83039 1.35164 9.70353 2.0323 9.68643 2.70605C9.79618 2.73925 9.86744 2.80704 9.89595 2.91633C9.92731 3.03808 9.8931 3.20963 9.7862 3.44343C9.78478 3.44758 9.78193 3.45173 9.77908 3.45588L9.32583 4.18082C9.15051 4.46028 8.97377 4.74112 8.73717 4.95556L8.72577 4.96663C8.74857 4.99845 8.7728 5.03303 8.79846 5.07039C8.87685 5.18245 8.96665 5.30972 9.04932 5.40933C9.54247 5.70678 10.6271 5.78702 11.0505 6.01667C12.1294 6.6005 11.8629 6.91316 11.9399 7.93415C11.9356 7.97566 11.9284 8.0144 11.917 8.04898H14.2246C14.437 8.04898 14.6308 8.13337 14.7705 8.26895C14.9102 8.40453 14.9971 8.59268 14.9971 8.79882V10.5115C14.9971 10.7177 14.9102 10.9045 14.7705 11.04L14.7691 11.0414C14.6294 11.177 14.437 11.2614 14.2246 11.2614H13.74V16.4314C13.74 16.5877 13.6745 16.7302 13.5676 16.834C13.4621 16.9364 13.3153 17.0014 13.1528 17.0014H2.02109C1.85861 17.0014 1.7118 16.9377 1.6049 16.834C1.59493 16.8243 1.58495 16.8146 1.5764 16.8035C1.4866 16.7039 1.43244 16.5725 1.43244 16.43V11.26H0.77252C0.560148 11.26 0.366306 11.1756 0.226625 11.04C0.218073 11.0317 0.209521 11.0234 0.202395 11.0137C0.0769669 10.8809 0 10.7038 0 10.5102V8.79744C0 8.5913 0.0869441 8.40315 0.226625 8.26757C0.235177 8.25927 0.245154 8.25097 0.255131 8.24267C0.393387 8.12092 0.574401 8.0476 0.77252 8.0476C1.69042 8.0476 2.60832 8.0476 3.52623 8.0476ZM2.16363 11.26V16.293H13.0145V11.26H2.16363ZM6.96693 6.0817C6.76596 5.86034 6.74886 5.62792 6.96693 5.38166C7.21921 5.44392 7.44869 5.54906 7.66106 5.69156C7.70667 5.67219 7.75941 5.66389 7.81214 5.66804C8.03307 5.51586 8.31528 5.45499 8.56043 5.34016C8.85405 5.61824 8.82269 5.87418 8.53335 6.11213C8.37229 6.07616 8.21836 6.02082 8.07155 5.94888C8.06728 5.98485 8.0573 6.02497 8.04019 6.06925L8.36089 7.54817C8.60604 7.05012 8.85975 6.2574 8.92389 5.61409C8.81699 5.49788 8.70296 5.33601 8.60604 5.19628C8.58466 5.16446 8.56328 5.13541 8.54333 5.10636C8.33523 5.24193 8.08723 5.32633 7.77651 5.32494C7.43016 5.32356 7.1622 5.20873 6.93843 5.03303C6.87571 5.21565 6.78307 5.46467 6.6947 5.58503C6.68757 5.59333 6.68044 5.60164 6.67189 5.60855C6.78877 6.30859 7.04105 7.06811 7.27052 7.54955L7.59122 6.07063C7.54418 5.99454 7.52566 5.92813 7.52851 5.87279C7.35462 5.97379 7.16505 6.03881 6.96693 6.0817Z"
            fill="#191919" />
    </g>
    <defs>
        <clipPath id="clip0_276_258">
            <rect width="60" height="40" fill="white" />
        </clipPath>
    </defs>
</svg>