<svg
    xmlns="http://www.w3.org/2000/svg"
    viewBox="-7 -6 30 30"
    fill="none"
>
    <g clipPath="url(#clip0_276_258)">
        <path
            d="M2.72008 14.5153C2.47048 14.6398 2.17123 14.5319 2.0518 14.2746C1.93103 14.0173 2.0357 13.7087 2.28529 13.5856C2.88916 13.2854 3.49034 13.0378 4.08749 12.8427C4.68867 12.6462 5.29388 12.5024 5.90311 12.4111C6.2131 12.364 6.52308 12.3322 6.83307 12.3128V11.8009L5.35829 10.6693C5.30462 10.5959 5.2657 10.5129 5.24289 10.4258H2.90929V10.423C2.40741 10.423 1.95384 10.2141 1.62641 9.87655C1.29898 9.53898 1.09635 9.07137 1.09635 8.55396H1.09367V6.29061H0.623994V6.28784C0.452228 6.28784 0.295223 6.2159 0.183843 6.09969C0.0724638 5.98486 0.00402576 5.82577 0.00268384 5.65007L0 5.64868H0.00134192V5.1202C0.00134192 4.94173 0.0711219 4.78125 0.183843 4.66642C0.295223 4.5516 0.449544 4.48104 0.619968 4.47966L0.62131 4.47827H2.86098V4.47966C3.03408 4.47966 3.18975 4.5516 3.30113 4.66642V4.66781C3.41251 4.78263 3.48094 4.94173 3.48229 5.11743L3.48363 5.1202H3.48229V5.64868C3.48229 5.82715 3.41251 5.98901 3.30113 6.10246C3.18975 6.21729 3.03543 6.28784 2.865 6.28784L2.86232 6.29061H2.26382V8.55257H2.26114C2.26114 8.73242 2.33494 8.89844 2.45303 9.02157C2.57112 9.14331 2.73215 9.2194 2.90794 9.2194V9.21663H3.29173V8.12508C3.29173 7.66162 3.6876 7.28255 4.16935 7.28255H10.6146C11.0977 7.28255 11.4922 7.66162 11.4922 8.12508V9.21663H11.876V9.2194C12.0505 9.2194 12.2128 9.14331 12.3309 9.02157C12.449 8.89982 12.5228 8.73242 12.5228 8.55257H12.5201V6.29061H12.1363V6.28784C11.9646 6.28784 11.8089 6.2159 11.6962 6.09969C11.5848 5.98486 11.5164 5.82577 11.515 5.65007L11.5137 5.6473H11.515V5.11882C11.515 4.94035 11.5862 4.77987 11.6975 4.66504C11.8089 4.55021 11.9632 4.47965 12.1337 4.47827L12.1363 4.47689H14.376V4.47827C14.5491 4.47827 14.7048 4.55021 14.8162 4.66504V4.66642C14.9275 4.78125 14.996 4.94035 14.9973 5.11605L14.9987 5.11882H14.9973V5.6473C14.9973 5.82438 14.9275 5.98625 14.8148 6.10107C14.7034 6.2159 14.5491 6.28646 14.3787 6.28646L14.3773 6.28923H13.693V8.55119H13.6903C13.6903 9.0686 13.4877 9.53621 13.1602 9.87378C12.8328 10.2113 12.3792 10.4202 11.8773 10.4202V10.423H9.60279C9.57998 10.5295 9.53435 10.6305 9.4686 10.7177L8.00322 11.7484V12.3087C8.40848 12.3308 8.8124 12.3778 9.21766 12.4498C10.3207 12.6449 11.4198 13.0212 12.5174 13.5842C12.7657 13.7115 12.8663 14.0214 12.7429 14.2773C12.6194 14.5333 12.3188 14.637 12.0706 14.5098C11.0615 13.991 10.0537 13.6451 9.04992 13.468C8.70102 13.4071 8.35212 13.3656 8.00456 13.3435V14.3355C8.00456 14.6689 7.74289 14.9386 7.41949 14.9386C7.09608 14.9386 6.83441 14.6689 6.83441 14.3355V13.3463C6.57139 13.3629 6.30837 13.3919 6.04536 13.4307C5.49785 13.5123 4.94498 13.6451 4.39077 13.8263C3.82984 14.0117 3.27295 14.24 2.72008 14.5153ZM3.73591 0H11.0494C11.2923 0 11.511 0.206136 11.4895 0.453776L10.8857 6.31551C10.8602 6.56315 10.6871 6.76929 10.4455 6.76929H4.3693C4.12775 6.76929 3.95062 6.56454 3.92915 6.31551L3.29576 0.453776C3.27429 0.206136 3.49436 0 3.73591 0ZM12.3403 15.2319C12.814 15.2319 13.1978 15.6276 13.1978 16.116C13.1978 16.6043 12.814 17 12.3403 17C11.8666 17 11.4828 16.6043 11.4828 16.116C11.4828 15.6276 11.8666 15.2319 12.3403 15.2319ZM7.44498 15.2319C7.91868 15.2319 8.30247 15.6276 8.30247 16.116C8.30247 16.6043 7.91868 17 7.44498 17C6.97128 17 6.58749 16.6043 6.58749 16.116C6.58749 15.6276 6.97128 15.2319 7.44498 15.2319ZM2.54965 15.2319C3.02335 15.2319 3.40714 15.6276 3.40714 16.116C3.40714 16.6043 3.02335 17 2.54965 17C2.07595 17 1.69216 16.6043 1.69216 16.116C1.69216 15.6276 2.07595 15.2319 2.54965 15.2319Z"
            fill="#191919" />
    </g>
    <defs>
        <clipPath id="clip0_276_258">
            <rect width="60" height="40" fill="white" />
        </clipPath>
    </defs>
</svg>