<svg
    xmlns="http://www.w3.org/2000/svg"
    viewBox="-7 -6 30 30"
    fill="none"
>
    <g clipPath="url(#clip0_276_258)">
        <path
            d="M1.11403 0H13.8846C14.1803 0.000344562 14.4638 0.111025 14.6729 0.307766C14.882 0.504507 14.9996 0.771246 15 1.04948V11.1641C14.9989 11.442 14.881 11.7082 14.672 11.9046C14.463 12.1009 14.1799 12.2116 13.8846 12.2122H8.65901V12.1914C8.65901 12.0156 8.65901 11.8438 8.65071 11.556H14.0285C14.069 11.556 14.109 11.5485 14.1464 11.5339C14.1838 11.5193 14.2177 11.4978 14.2462 11.4709C14.2748 11.4439 14.2974 11.4119 14.3127 11.3766C14.3281 11.3414 14.3359 11.3037 14.3357 11.2656V2.53385H0.708552V11.2656C0.70828 11.2902 0.711538 11.3148 0.71824 11.3385C0.701477 11.4064 0.69266 11.4759 0.691946 11.5456C0.688157 11.7326 0.728818 11.9181 0.81096 12.0885C0.825072 12.1201 0.841727 12.1505 0.860781 12.1797C0.617302 12.1253 0.400221 11.9957 0.244195 11.8116C0.0881696 11.6275 0.00219575 11.3995 0 11.1641L0 1.04948C0.000365234 0.771471 0.117809 0.504928 0.326612 0.308225C0.535415 0.111521 0.818558 0.00068878 1.11403 0ZM3.7199 8.99349C3.78335 8.98939 3.84703 8.99759 3.90698 9.01757C3.96694 9.03755 4.02189 9.06889 4.06846 9.10965C4.11503 9.15041 4.15221 9.19973 4.17771 9.25456C4.20321 9.30938 4.21649 9.36854 4.21672 9.42839V12.2174H4.51702V10.849C4.51702 10.2956 5.44423 10.3125 5.44423 10.8802V12.2474H5.45807H5.78328V11.1562C5.78328 10.6029 6.71049 10.6198 6.71049 11.1862V12.1966H7.03709V11.4271C7.03709 10.8737 7.9643 10.8906 7.9643 11.457C7.9643 12.0951 8.00305 12.8477 7.97814 13.4844C7.95184 14.1836 7.79823 14.9714 7.25989 15.4115C6.9794 15.6432 6.6476 15.8134 6.28856 15.9095C5.92952 16.0057 5.55223 16.0255 5.18406 15.9674C3.90811 15.7773 3.58566 15.0417 2.97813 14.1354L1.4351 11.8359C1.33961 11.6263 1.35206 11.4844 1.44755 11.3932C1.86272 11.1432 2.52422 11.6745 3.26322 12.4258H3.28951V9.39844C3.28988 9.29114 3.33534 9.18834 3.41597 9.11248C3.49661 9.03661 3.60587 8.99383 3.7199 8.99349ZM2.39136 5.2474C2.32736 5.14624 2.30704 5.02584 2.3346 4.91101C2.36216 4.79618 2.4355 4.69568 2.5395 4.63022C2.64349 4.56477 2.77022 4.53935 2.89354 4.55921C3.01687 4.57908 3.12739 4.64271 3.20232 4.73698L3.46665 5.01042L4.24301 4.09896C4.32523 4.00503 4.44373 3.94567 4.57246 3.93395C4.70119 3.92223 4.82959 3.9591 4.92942 4.03646C5.02925 4.11381 5.09234 4.22531 5.1048 4.34643C5.11725 4.46755 5.07806 4.58836 4.99585 4.68229L3.82231 6.00911C3.7895 6.04927 3.75029 6.08441 3.70606 6.11328C3.65249 6.14673 3.59242 6.1699 3.52931 6.18146C3.46619 6.19302 3.40127 6.19274 3.33828 6.18065C3.27528 6.16855 3.21543 6.14487 3.16218 6.11097C3.10893 6.07706 3.06332 6.0336 3.02795 5.98307L2.39136 5.24349V5.2474ZM12.1962 8.92838C12.3273 8.92197 12.4507 8.86848 12.541 8.77896C12.6313 8.68943 12.6817 8.5707 12.6817 8.44727C12.6817 8.32383 12.6313 8.2051 12.541 8.11557C12.4507 8.02605 12.3273 7.97256 12.1962 7.96615H6.85165C6.78226 7.96275 6.71286 7.97267 6.64768 7.99532C6.5825 8.01796 6.5229 8.05285 6.4725 8.09786C6.42211 8.14287 6.38198 8.19706 6.35456 8.25713C6.32714 8.3172 6.313 8.38189 6.313 8.44727C6.313 8.51264 6.32714 8.57733 6.35456 8.6374C6.38198 8.69747 6.42211 8.75166 6.4725 8.79667C6.5229 8.84168 6.5825 8.87657 6.64768 8.89921C6.71286 8.92186 6.78226 8.93178 6.85165 8.92838H12.1962ZM12.1962 5.54297C12.3273 5.53655 12.4507 5.48307 12.541 5.39354C12.6313 5.30402 12.6817 5.18529 12.6817 5.06185C12.6817 4.93841 12.6313 4.81968 12.541 4.73016C12.4507 4.64063 12.3273 4.58714 12.1962 4.58073H6.85165C6.78226 4.57733 6.71286 4.58726 6.64768 4.6099C6.5825 4.63255 6.5229 4.66744 6.4725 4.71245C6.42211 4.75746 6.38198 4.81164 6.35456 4.87171C6.32714 4.93178 6.313 4.99647 6.313 5.06185C6.313 5.12722 6.32714 5.19192 6.35456 5.25198C6.38198 5.31205 6.42211 5.36624 6.4725 5.41125C6.5229 5.45626 6.5825 5.49115 6.64768 5.5138C6.71286 5.53644 6.78226 5.54637 6.85165 5.54297H12.1962ZM2.44118 7.11328H4.98201C5.07413 7.11328 5.16249 7.14771 5.22763 7.20901C5.29277 7.2703 5.32937 7.35343 5.32937 7.4401V9.45443C5.329 9.541 5.29229 9.62393 5.22723 9.68515C5.16216 9.74636 5.07402 9.78091 4.98201 9.78125H4.90866V9.42839C4.91133 9.17115 4.81274 8.92209 4.63189 8.72917V7.76693H2.78854V8.82161C2.66767 8.9925 2.60316 9.19317 2.6031 9.39844V9.78125H2.44118C2.34917 9.78091 2.26103 9.74636 2.19597 9.68515C2.13091 9.62393 2.09419 9.541 2.09383 9.45443V7.4401C2.09383 7.35343 2.13042 7.2703 2.19557 7.20901C2.26071 7.14771 2.34906 7.11328 2.44118 7.11328ZM12.8231 0.911458C12.9326 0.911458 13.0396 0.942005 13.1307 0.999234C13.2217 1.05646 13.2927 1.13781 13.3346 1.23298C13.3765 1.32815 13.3874 1.43287 13.3661 1.5339C13.3447 1.63493 13.292 1.72774 13.2146 1.80058C13.1371 1.87342 13.0385 1.92302 12.9311 1.94312C12.8238 1.96321 12.7125 1.9529 12.6113 1.91348C12.5102 1.87406 12.4237 1.8073 12.3629 1.72165C12.302 1.636 12.2696 1.5353 12.2696 1.43229C12.2696 1.29416 12.3279 1.16168 12.4317 1.06401C12.5355 0.966332 12.6763 0.911458 12.8231 0.911458ZM9.09355 0.911458C9.20303 0.911458 9.31006 0.942005 9.40109 0.999234C9.49212 1.05646 9.56307 1.13781 9.60497 1.23298C9.64687 1.32815 9.65783 1.43287 9.63647 1.5339C9.61511 1.63493 9.56239 1.72774 9.48497 1.80058C9.40756 1.87342 9.30892 1.92302 9.20155 1.94312C9.09417 1.96321 8.98286 1.9529 8.88171 1.91348C8.78057 1.87406 8.69411 1.8073 8.63329 1.72165C8.57246 1.636 8.53999 1.5353 8.53999 1.43229C8.53999 1.29416 8.59832 1.16168 8.70213 1.06401C8.80594 0.966332 8.94674 0.911458 9.09355 0.911458ZM10.959 0.911458C11.0685 0.911458 11.1755 0.942005 11.2666 0.999234C11.3576 1.05646 11.4286 1.13781 11.4705 1.23298C11.5124 1.32815 11.5233 1.43287 11.502 1.5339C11.4806 1.63493 11.4279 1.72774 11.3505 1.80058C11.273 1.87342 11.1744 1.92302 11.067 1.94312C10.9597 1.96321 10.8483 1.9529 10.7472 1.91348C10.6461 1.87406 10.5596 1.8073 10.4988 1.72165C10.4379 1.636 10.4055 1.5353 10.4055 1.43229C10.4055 1.29416 10.4638 1.16168 10.5676 1.06401C10.6714 0.966332 10.8122 0.911458 10.959 0.911458Z"
            fill="#191919" />
    </g>
    <defs>
        <clipPath id="clip0_276_258">
            <rect width="60" height="40" fill="white" />
        </clipPath>
    </defs>
</svg>