<svg
    xmlns="http://www.w3.org/2000/svg"
    viewBox="-7 -6 30 30"
    fill="none"
>
    <g clipPath="url(#clip0_276_258)">
        <path
            d="M4.47487 0H4.47631V0.000642743C5.71158 0.00101003 6.83012 0.514929 7.63955 1.34535C8.44763 2.17458 8.94823 3.32087 8.94903 4.58689H8.94966V4.58992V4.59359H8.94903C8.94858 5.10384 8.86694 5.5949 8.71682 6.0528C8.69166 6.12966 8.66535 6.20348 8.63831 6.274V6.27464C8.50887 6.61071 8.34156 6.9284 8.14175 7.22104L10.7451 9.62113L10.7468 9.6226L10.7608 9.63601L10.7618 9.63702C10.9088 9.78053 10.9888 9.97271 10.9989 10.1677C11.0088 10.3606 10.9503 10.5578 10.8218 10.716L10.8208 10.7175L10.8051 10.7361L10.802 10.7393L10.7889 10.754L10.7875 10.7559C10.6474 10.9067 10.4604 10.9886 10.2701 10.9989C10.0823 11.0091 9.88988 10.9493 9.73554 10.8173L9.7342 10.8163L9.71594 10.8002L9.71334 10.798L7.0506 8.34327C6.97183 8.4002 6.89144 8.45428 6.81006 8.50533C6.69969 8.57465 6.58537 8.63994 6.46873 8.69953C5.86904 9.00639 5.19138 9.17902 4.47496 9.17902V9.17966H4.47353V9.17902C3.23826 9.17865 2.11954 8.66473 1.31011 7.83431C0.501754 7.00507 0.0014323 5.8586 0.000626633 4.59295H0V4.58992V4.58845H0.000626633C0.000984709 3.32142 0.502022 2.17394 1.31163 1.3437C2.12008 0.514929 3.23763 0.00146913 4.47192 0.000642743V0H4.47487ZM4.47631 1.02931V1.02995H4.47487H4.47192V1.02931C3.51532 1.02995 2.64824 1.42873 2.02053 2.0723C1.39291 2.71587 1.00378 3.60616 1.00351 4.58854H1.00413V4.59001V4.59304H1.00351C1.00413 5.57424 1.39265 6.46315 2.02035 7.10718C2.64779 7.75102 3.51577 8.15017 4.47344 8.15035V8.14971H4.47487H4.47783V8.15035C5.43443 8.14971 6.30115 7.75112 6.92904 7.10736C7.55665 6.46379 7.94579 5.57378 7.94597 4.59148H7.94543V4.59001V4.58698H7.94597C7.94543 3.60579 7.55656 2.71642 6.92921 2.07257C6.30178 1.42873 5.43407 1.02958 4.47631 1.02931Z"
            fill="#191919" />
    </g>
    <defs>
        <clipPath id="clip0_276_258">
            <rect width="60" height="40" fill="white" />
        </clipPath>
    </defs>
</svg>