<svg
    xmlns="http://www.w3.org/2000/svg"
    width="23"
    height="23"
    viewBox="0 0 23 23"
    fill="none"
>
    <g clipPath="url(#clip0_48_5)">
        <path
            fillRule="evenodd"
            clipRule="evenodd"
            d="M8.20573 14.7289L10.0288 20.0992L10.946 16.9115L10.4967 16.4184C10.2946 16.1221 10.2497 15.8633 10.362 15.6402C10.6053 15.1583 11.1088 15.2483 11.5786 15.2483C12.0709 15.2483 12.6811 15.1546 12.8346 15.7733C12.887 15.9796 12.8215 16.1971 12.6773 16.4184L12.2281 16.9115L13.1453 20.0992L14.7961 14.7289C15.9866 15.8015 19.5111 16.0171 20.8232 16.7503C21.2387 16.9828 21.613 17.2772 21.9144 17.6747C22.3711 18.2804 22.6519 19.0698 22.7286 20.073L23.0019 21.8224C22.9345 22.5312 22.5339 22.94 21.7422 23.0019H11.5861H1.25968C0.467936 22.9419 0.0673828 22.5331 0 21.8224L0.273275 20.073C0.350016 19.0698 0.630778 18.2804 1.08748 17.6747C1.38883 17.2753 1.76318 16.9809 2.17871 16.7503C3.4908 16.0171 7.0153 15.8015 8.20573 14.7289ZM7.38029 7.04287C7.15381 7.05224 6.98348 7.09912 6.86743 7.17788C6.80005 7.22288 6.75138 7.28101 6.71956 7.34851C6.684 7.42351 6.66903 7.51539 6.6709 7.62227C6.68026 7.93354 6.8431 8.33856 7.15568 8.80546L7.15942 8.81296L8.17765 10.4368C8.58569 11.0875 9.01432 11.7512 9.5459 12.2388C10.0569 12.7076 10.6783 13.0244 11.5 13.0263C12.3891 13.0282 13.0404 12.6982 13.5664 12.2031C14.1148 11.6875 14.5491 10.9825 14.9758 10.2774L16.1232 8.38357C16.3366 7.89416 16.4152 7.5679 16.3665 7.37476C16.3366 7.26038 16.2112 7.20413 15.9978 7.19475C15.9529 7.19288 15.9061 7.19288 15.8574 7.19288C15.8069 7.19475 15.7526 7.1985 15.6965 7.20225C15.6665 7.20413 15.6366 7.20225 15.6085 7.19663C15.5055 7.20225 15.4007 7.19475 15.294 7.17975L15.6871 5.43778C13.5889 5.41153 12.1532 5.04588 10.4556 3.95833C9.89779 3.60206 9.72933 3.19328 9.17155 3.23266C8.75041 3.31329 8.39665 3.50268 8.11401 3.80644C7.84448 4.09708 7.64046 4.4946 7.50757 5.00276L7.73031 7.05599C7.60677 7.06349 7.48885 7.05974 7.38029 7.04287ZM16.3909 6.67722C16.6735 6.76348 16.8551 6.94349 16.9281 7.23413C17.0104 7.55665 16.9206 8.00854 16.6492 8.62733C16.6436 8.63858 16.6379 8.64983 16.6323 8.66108L15.4718 10.5774C15.0245 11.3162 14.5697 12.055 13.9632 12.625C13.3362 13.2138 12.5613 13.6057 11.5037 13.6039C10.5155 13.602 9.77238 13.2232 9.16219 12.6644C8.57259 12.1244 8.1215 11.4269 7.69287 10.7443L6.67464 9.12236C6.30217 8.56545 6.10938 8.0573 6.09627 7.63915C6.09066 7.44227 6.12435 7.26413 6.19548 7.1085C6.27222 6.94349 6.38827 6.80661 6.54549 6.7016C6.61849 6.65285 6.70085 6.60972 6.79256 6.57597C6.72705 5.69654 6.70085 4.58648 6.7439 3.65831C6.76636 3.43892 6.80754 3.21766 6.8693 2.9964C7.12948 2.06447 7.78272 1.31443 8.59131 0.798778C8.87581 0.616894 9.1884 0.466885 9.51782 0.346879C11.4738 -0.36566 14.068 0.0224862 15.4569 1.52632C16.0221 2.13948 16.3778 2.95327 16.4545 4.0277L16.3909 6.67722Z"
            fill="#B99750"
        />
    </g>
    <defs>
        <clipPath id="clip0_48_5">
            <rect width="23" height="23" fill="white" />
        </clipPath>
    </defs>
</svg>