<svg
    xmlns="http://www.w3.org/2000/svg"
    width="25"
    height="25"
    viewBox="0 0 25 25"
    fill="none"
>
    <g clipPath="url(#clip0_38_1086)">
        <path
            d="M23.3726 18.2915C23.3726 17.8414 23.7367 17.4769 24.1864 17.4769C24.636 17.4769 25.0002 17.8414 25.0002 18.2915V24.1464C25.0002 24.5965 24.636 24.961 24.1864 24.961H18.2415C17.7919 24.961 17.4277 24.5965 17.4277 24.1464C17.4277 23.6963 17.7919 23.3318 18.2415 23.3318H22.1437L15.1532 16.7173C14.8276 16.4098 14.8114 15.8966 15.1186 15.5687C15.4258 15.2428 15.9385 15.2266 16.266 15.5341L23.3726 22.2586V18.2915ZM18.2721 1.62685C17.8224 1.62685 17.4583 1.26231 17.4583 0.812248C17.4583 0.362183 17.8224 -0.00234985 18.2721 -0.00234985H24.1213C24.5709 -0.00234985 24.9351 0.362183 24.9351 0.812248V6.76085C24.9351 7.21091 24.5709 7.57544 24.1213 7.57544C23.6716 7.57544 23.3075 7.21091 23.3075 6.76085V2.85689L16.6994 9.85428C16.3922 10.1801 15.8795 10.1964 15.5519 9.8889C15.2264 9.58139 15.2101 9.06819 15.5173 8.74032L22.2353 1.62685H18.2721ZM1.6237 6.67124C1.6237 7.1213 1.25952 7.48584 0.809896 7.48584C0.36027 7.48584 -0.00390625 7.1213 -0.00390625 6.67124V0.816321C-0.00390625 0.366256 0.36027 0.00172313 0.809896 0.00172313H6.75269C7.20231 0.00172313 7.56649 0.366256 7.56649 0.816321C7.56649 1.26639 7.20231 1.63092 6.75269 1.63092H2.85254L9.8431 8.24545C10.1686 8.55296 10.1849 9.06616 9.87769 9.39403C9.57048 9.71987 9.05778 9.73616 8.73022 9.42865L1.6237 2.70415V6.67124ZM6.69979 23.3725C7.14941 23.3725 7.51359 23.7371 7.51359 24.1871C7.51359 24.6372 7.14941 25.0017 6.69979 25.0017H0.850586C0.40096 25.0017 0.0367839 24.6372 0.0367839 24.1871V18.2365C0.0367839 17.7864 0.40096 17.4219 0.850586 17.4219C1.30021 17.4219 1.66439 17.7864 1.66439 18.2365V22.1425L8.27246 15.1451C8.57967 14.8193 9.09237 14.803 9.41992 15.1105C9.74544 15.418 9.76172 15.9312 9.45451 16.2591L2.73657 23.3725H6.69979Z"
            fill="#B99750"
        />
    </g>
    <defs>
        <clipPath id="clip0_38_1086">
            <rect width="25" height="25" fill="white" />
        </clipPath>
    </defs>
</svg>