<svg width="34" height="88" viewBox="0 0 34 88" fill="none" xmlns="http://www.w3.org/2000/svg">
<rect width="34" height="88" rx="17" fill="white" fill-opacity="0.51"/>
<g clip-path="url(#clip0_308_2)">
<path fill-rule="evenodd" clip-rule="evenodd" d="M12.6007 71.3818H15.0535C15.1054 71.3818 15.1466 71.4224 15.1466 71.4717V76.5966C15.1466 76.6459 15.1045 76.6866 15.0535 76.6866H12.5998C12.2703 76.6866 12 76.4263 12 76.1073V71.9619C12 71.6429 12.2703 71.3818 12.6007 71.3818ZM21.4854 71.8227C21.4657 71.7951 21.4451 71.7683 21.4245 71.7415L21.4281 71.7389L21.4182 71.7242L21.3394 71.6118L21.4522 71.5314L21.9204 71.3144L22.043 71.2262L22.129 71.349C22.4477 71.8002 22.6894 72.306 22.8353 72.8446C22.9767 73.3642 23.0295 73.9157 22.9803 74.482C22.9418 74.9186 22.8442 75.337 22.6965 75.7304C22.5435 76.1358 22.3358 76.5154 22.0833 76.8612L21.9741 77.0108L21.8515 76.8716L21.4325 76.5854L21.36 76.5033L21.4227 76.4142C21.6259 76.1237 21.7924 75.8056 21.9159 75.4667C22.035 75.1399 22.1138 74.7915 22.146 74.4275C22.189 73.9391 22.1433 73.4636 22.0234 73.0158C21.9088 72.5896 21.7253 72.1875 21.4854 71.8227ZM15.7499 71.2876C17.1795 70.5302 18.6091 69.7729 20.0378 69.0156C20.1748 68.943 20.3225 69.1392 20.3225 69.2905V78.694C20.3225 78.8531 20.1667 79.0614 20.0226 78.9836L15.7499 76.6563C15.7231 76.6416 15.6926 76.6312 15.6926 76.601V71.3429C15.6935 71.3126 15.7231 71.3023 15.7499 71.2876Z" fill="white"/>
</g>
<rect x="15" y="9" width="4" height="55" rx="2" fill="white"/>
<rect x="15" y="37" width="4" height="27" rx="2" fill="#EDA817"/>
<circle cx="17" cy="35" r="3.5" fill="white" stroke="#EDA817"/>
<defs>
<clipPath id="clip0_308_2">
<rect width="11" height="10" fill="white" transform="translate(12 69)"/>
</clipPath>
</defs>
</svg>
