<svg
    xmlns="http://www.w3.org/2000/svg"
    width="27"
    height="22"
    viewBox="0 0 27 22"
    fill="none"
>
    <g clipPath="url(#clip0_47_2)">
        <path
            d="M3.35742 10.0311H9.94922V0.961323C9.94922 0.430863 10.3865 0 10.9248 0C11.4631 0 11.9004 0.430863 11.9004 0.961323V21.0365C11.9004 21.567 11.4631 21.9978 10.9248 21.9978C10.3865 21.9978 9.94922 21.567 9.94922 21.0365V11.9537H3.31128L6.64014 15.2621C7.01807 15.6367 7.01807 16.2451 6.63574 16.6175C6.25562 16.9899 5.63818 16.9899 5.26025 16.6131L0.283447 11.6679L0.28125 11.6658C0.270264 11.655 0.261475 11.6463 0.252686 11.6355L0.250488 11.6333L0.237305 11.6181L0.23291 11.6138L0.221924 11.6008L0.217529 11.5943L0.213135 11.59L0.202148 11.5748L0.191162 11.5619L0.186768 11.5575L0.18457 11.5532L0.173584 11.538L0.171387 11.5337L0.1604 11.5186L0.151611 11.5034L0.14502 11.4969L0.142822 11.4926L0.134033 11.4774L0.131836 11.4731L0.127441 11.4666L0.118652 11.4536L0.109863 11.4363L0.107666 11.4319L0.098877 11.4146L0.0900879 11.3973L0.0878906 11.393L0.0812988 11.38L0.0791016 11.3735L0.0769043 11.367L0.0703125 11.3497L0.0681152 11.3453L0.0615234 11.328L0.0593262 11.3237L0.0527344 11.3064V11.3042C0.0483398 11.2912 0.0439453 11.2761 0.0395508 11.2631V11.2609L0.0351562 11.2436L0.032959 11.2392L0.0307617 11.2349L0.0263672 11.2176L0.0219727 11.1959V11.1938L0.0175781 11.1721V11.17L0.0153809 11.1548L0.0131836 11.1505V11.1461L0.0109863 11.1288V11.1245L0.00878906 11.1072L0.00439453 11.0855V11.0834V11.079L0.00219727 11.0617V11.0595C0.00219727 11.0422 0 11.0271 0 11.0141V11.0119V10.9924V10.9881V10.9708V10.9664V10.9621V10.9448V10.9405L0.00219727 10.9231L0.00439453 10.9037V10.9015C0.0065918 10.8798 0.00878906 10.856 0.0131836 10.8344L0.0175781 10.8149V10.8106C0.0219727 10.7889 0.0263672 10.7672 0.032959 10.7456L0.0373535 10.7283L0.0395508 10.7218L0.041748 10.7174L0.0461426 10.7001L0.0483398 10.6958L0.0549316 10.6785L0.0571289 10.6741L0.0637207 10.6568V10.6547C0.0725098 10.633 0.0812988 10.6135 0.0900879 10.594L0.0922852 10.5919C0.098877 10.5789 0.105469 10.5659 0.112061 10.5551L0.114258 10.5507L0.116455 10.5464L0.125244 10.5312L0.127441 10.5269L0.13623 10.5118C0.142822 10.5009 0.149414 10.4879 0.158203 10.4771L0.162598 10.4706L0.164795 10.4663L0.175781 10.4511V10.449C0.18457 10.436 0.193359 10.4252 0.202148 10.4143L0.204346 10.4122L0.219727 10.3862L0.235107 10.3689L0.237305 10.3667L0.246094 10.3559L0.25708 10.345L0.270264 10.3321L0.274658 10.3277L0.287842 10.3147L0.290039 10.3126L5.26685 5.49946C5.64917 5.12922 6.2666 5.13355 6.64233 5.51028C7.01807 5.88702 7.01367 6.49542 6.63135 6.86566L3.35742 10.0311ZM14.9106 0.961323C14.9106 0.430863 15.3479 0 15.8862 0C16.4246 0 16.8618 0.430863 16.8618 0.961323V10.0311H23.6426L20.3687 6.86783C19.9863 6.49759 19.9797 5.88918 20.3577 5.51245C20.7334 5.13572 21.3508 5.12922 21.7332 5.50162L26.71 10.3104L26.7122 10.3126L26.7253 10.3256L26.7297 10.3299L26.7429 10.3429L26.7539 10.3537L26.7627 10.3645L26.7649 10.3667L26.7803 10.384L26.7957 10.4013L26.7979 10.4035C26.8066 10.4143 26.8154 10.4273 26.8242 10.4381V10.4403L26.8352 10.4555L26.8374 10.4598L26.8418 10.4663C26.8484 10.4771 26.8572 10.4901 26.8638 10.5009L26.8726 10.5161L26.8748 10.5204L26.8835 10.5356L26.8857 10.5399L26.8879 10.5442C26.8945 10.5572 26.9011 10.5702 26.9077 10.581L26.9099 10.5832C26.9187 10.6027 26.9275 10.6243 26.9363 10.6438V10.646L26.9429 10.6633L26.9451 10.6677L26.9517 10.685L26.9539 10.6893L26.9583 10.7066L26.9604 10.711L26.9626 10.7174L26.967 10.7348C26.9736 10.7564 26.978 10.7781 26.9824 10.7997V10.8041L26.9868 10.8235C26.9912 10.8452 26.9934 10.869 26.9956 10.8907V10.8928L26.9978 10.9123L27 10.9296V10.934V10.9513V10.9556V10.9599V10.9773V10.9816V11.0011V11.0032C27 11.0184 27 11.0314 26.9978 11.0466V11.0487L26.9956 11.066V11.0704V11.0725L26.9934 11.092L26.9912 11.1093V11.1137L26.989 11.131V11.1353L26.9868 11.1418L26.9846 11.157V11.1591L26.9802 11.1808V11.183L26.9758 11.2046L26.9714 11.2219L26.9692 11.2263L26.967 11.2306L26.9626 11.2479V11.2501C26.9583 11.2631 26.9539 11.2782 26.9495 11.2912V11.2934L26.9429 11.3107L26.9407 11.315L26.9341 11.3323L26.9319 11.3367L26.9253 11.354L26.9231 11.3583L26.9209 11.3648L26.9143 11.3778L26.9121 11.3821L26.9033 11.3995L26.8945 11.4168L26.8923 11.4211L26.8835 11.4363L26.8748 11.4493L26.8704 11.4558L26.8682 11.4601L26.8594 11.4752L26.8572 11.4796L26.855 11.4839L26.8462 11.4991L26.8352 11.5142L26.833 11.5186L26.822 11.5337L26.8198 11.538L26.8154 11.5424L26.8044 11.5554L26.7935 11.5705L26.7891 11.5748L26.7847 11.5813L26.7737 11.5943L26.7693 11.5987L26.7561 11.6138L26.7539 11.616C26.7451 11.6268 26.7341 11.6376 26.7253 11.6463L26.7231 11.6485L21.7397 16.6131C21.3618 16.9877 20.7444 16.9899 20.3643 16.6175C19.9841 16.2451 19.9819 15.6367 20.3599 15.2621L23.6887 11.9537H16.8618V21.0387C16.8618 21.5691 16.4246 22 15.8862 22C15.3479 22 14.9106 21.5691 14.9106 21.0387V0.961323ZM26.8418 10.4685C26.8484 10.4793 26.8572 10.4923 26.8638 10.5031L26.8418 10.4685Z"
            fill="#B99750"
        />
    </g>
    <defs>
        <clipPath id="clip0_47_2">
            <rect width="27" height="22" fill="white" />
        </clipPath>
    </defs>
</svg>