<svg width="200" height="216" viewBox="0 0 200 216" fill="none" xmlns="http://www.w3.org/2000/svg">
<g clip-path="url(#clip0_277_3797)">
<path d="M86.5401 69.3018C86.3902 67.8028 85.9026 66.3573 85.1139 65.0741C84.3252 63.7909 83.256 62.7034 81.9867 61.8934C80.7174 61.0834 79.281 60.572 77.7857 60.3977C76.2904 60.2234 74.7751 60.3908 73.3537 60.8871L74.0755 60.9609C70.8387 61.6088 67.9623 63.4477 66.0142 66.1145C65.0626 67.4477 64.4086 68.9699 64.0964 70.5781C63.7841 72.1863 63.821 73.8429 64.2046 75.4356C65.0226 78.5986 67.4372 81.3428 70.5279 82.3956C72.2465 82.9811 74.0914 83.0526 75.906 83.1144C77.0838 83.1545 78.2833 83.1903 79.4188 82.8745C80.8795 82.4216 82.1635 81.5259 83.0933 80.311C84.0144 79.1007 84.7472 77.7579 85.2669 76.3281C86.147 74.0921 86.7791 71.6931 86.5401 69.3018Z" fill="#2F2E41"/>
<path d="M112.203 215.033C109.637 205.374 115.336 195.96 121.994 189.443C125.543 185.97 129.495 182.951 133.349 179.832C137.047 176.873 140.569 173.699 143.896 170.327C150.321 163.746 155.926 156.225 159.637 147.771C163.166 139.732 164.835 130.975 164.008 122.203C163.225 113.884 160.245 105.701 154.763 99.3179C154.08 98.5226 153.362 97.7603 152.608 97.0309C152.204 96.638 151.584 97.2567 151.989 97.6503C158.11 103.598 161.673 111.658 162.878 120.044C164.122 128.691 162.841 137.508 159.609 145.592C156.167 154.205 150.693 161.89 144.345 168.597C141.149 171.953 137.748 175.108 134.162 178.044C130.333 181.201 126.355 184.183 122.709 187.556C115.989 193.773 109.95 202.324 110.78 211.95C110.876 213.07 111.07 214.179 111.359 215.265C111.393 215.374 111.468 215.465 111.567 215.519C111.667 215.574 111.784 215.587 111.893 215.557C112.003 215.527 112.096 215.455 112.154 215.357C112.212 215.26 112.229 215.143 112.203 215.033Z" fill="#F0F0F0"/>
<path d="M139.079 160.048C135.035 153.111 131.943 145.66 129.884 137.897C127.82 130.136 126.787 122.136 126.813 114.104C126.842 106.073 127.817 97.8408 130.305 90.1821C132.666 82.9134 136.896 75.9816 143.613 72.0151C147.038 70.0044 150.949 68.971 154.92 69.0271C159.114 69.0668 163.25 70.1716 167.029 71.9604C170.73 73.7124 174.114 76.0734 177.24 78.7054C180.221 81.2106 183.002 83.944 185.559 86.8808C190.626 92.7114 194.765 99.4624 197.077 106.865C199.487 114.579 199.909 123.017 197.673 130.825C195.525 138.324 190.82 144.716 185.044 149.85C178.801 155.399 171.407 159.431 163.95 163.091C162.084 164.007 160.208 164.902 158.331 165.797C157.823 166.039 158.267 166.795 158.773 166.553C166.636 162.803 174.576 159.02 181.585 153.785C187.769 149.165 193.281 143.366 196.561 136.302C200.029 128.832 200.739 120.338 199.302 112.279C197.897 104.402 194.373 97.0297 189.656 90.6091C187.313 87.4327 184.708 84.4578 181.869 81.7154C178.957 78.8373 175.777 76.2437 172.373 73.9697C165.394 69.4051 156.668 66.6486 148.398 68.9999C141.045 71.0902 135.387 76.9853 132.02 83.6663C130.135 87.4056 128.865 91.4271 127.962 95.5078C127.08 99.5293 126.487 103.609 126.188 107.715C124.986 124.1 128.195 140.507 135.481 155.23C136.368 157.015 137.316 158.769 138.323 160.491C138.384 160.587 138.479 160.655 138.59 160.682C138.7 160.709 138.817 160.692 138.915 160.635C139.013 160.578 139.085 160.484 139.115 160.375C139.146 160.266 139.133 160.148 139.079 160.048Z" fill="#F0F0F0"/>
<path d="M133.532 151.581C129.488 144.644 126.396 137.193 124.337 129.43C122.273 121.668 121.24 113.669 121.266 105.637C121.295 97.6059 122.27 89.3737 124.758 81.715C127.119 74.4464 131.35 67.5146 138.066 63.5481C141.492 61.5373 145.402 60.5039 149.373 60.56C153.567 60.5998 157.703 61.7045 161.482 63.4934C165.183 65.2453 168.567 67.6064 171.693 70.2383C174.674 72.7435 177.455 75.4769 180.013 78.4138C185.079 84.2443 189.218 90.9954 191.53 98.3977C193.94 106.112 194.362 114.55 192.126 122.358C189.978 129.857 185.273 136.249 179.497 141.383C173.255 146.932 165.86 150.964 158.404 154.624C156.537 155.54 154.661 156.435 152.785 157.33C152.276 157.572 152.72 158.328 153.226 158.086C161.089 154.336 169.029 150.553 176.038 145.318C182.222 140.698 187.734 134.899 191.014 127.835C194.482 120.365 195.192 111.871 193.755 103.812C192.35 95.9348 188.826 88.5626 184.11 82.1421C181.766 78.9657 179.161 75.9908 176.322 73.2483C173.41 70.3703 170.23 67.7766 166.826 65.5026C159.848 60.9381 151.121 58.1816 142.851 60.5328C135.499 62.6231 129.84 68.5183 126.473 75.1992C124.589 78.9386 123.318 82.9601 122.415 87.0408C121.533 91.0622 120.94 95.1416 120.641 99.2477C119.439 115.633 122.648 132.04 129.934 146.763C130.822 148.548 131.769 150.302 132.776 152.023C132.837 152.12 132.933 152.188 133.043 152.215C133.153 152.242 133.27 152.225 133.368 152.168C133.466 152.111 133.538 152.017 133.568 151.908C133.599 151.799 133.586 151.681 133.532 151.581Z" fill="#F0F0F0"/>
<path d="M53.8563 135.167C53.5476 134.731 53.3381 134.233 53.2425 133.707C53.147 133.182 53.1678 132.642 53.3034 132.125C53.439 131.609 53.6862 131.128 54.0275 130.717C54.3688 130.307 54.7959 129.976 55.2787 129.748L65.3956 98.0481L72.4414 101.711L60.2814 131.719C60.6097 132.557 60.6198 133.485 60.3097 134.329C59.9996 135.173 59.3909 135.874 58.599 136.299C57.807 136.724 56.8868 136.843 56.0126 136.635C55.1385 136.426 54.3713 135.904 53.8563 135.167Z" fill="#FFB6B6"/>
<path d="M62.1216 102.432C62.0247 102.217 61.9753 101.984 61.9766 101.749C61.9779 101.513 62.03 101.281 62.1292 101.068L65.5944 93.6123C65.9362 92.4575 66.7217 91.4856 67.7785 90.9094C68.8353 90.3332 70.0773 90.1999 71.2322 90.5387C72.3871 90.8774 73.3607 91.6606 73.9395 92.7165C74.5183 93.7724 74.6552 95.0149 74.3201 96.1717L73.1619 104.339C73.1288 104.572 73.046 104.795 72.9189 104.993C72.7919 105.191 72.6237 105.36 72.4257 105.487C72.2278 105.614 72.0048 105.697 71.7719 105.73C71.539 105.764 71.3016 105.746 71.0761 105.679L63.1487 103.329C62.9231 103.262 62.7145 103.147 62.5373 102.993C62.36 102.838 62.2182 102.646 62.1216 102.432Z" fill="#2F2E41"/>
<path d="M91.3496 103.69C88.9419 109.999 89.5571 116.617 92.5225 123.474H71.5164C72.3607 118.595 72.0182 114.061 68.8906 110.336L91.3496 103.69Z" fill="#FFB6B6"/>
<path d="M66.7644 92.0954L72.9812 87.5708L83.1542 84.7429L91.6317 86.4397L92.13 91.1276C92.7362 96.8299 92.4729 102.591 91.3491 108.214L69.3076 113.305L67.047 109.346C67.047 109.346 61.9605 104.255 65.9167 98.5996L66.7644 92.0954Z" fill="#2F2E41"/>
<path d="M120.759 60.4473C120.898 60.9631 120.922 61.5031 120.829 62.0291C120.737 62.5552 120.531 63.0547 120.224 63.4923C119.918 63.9299 119.52 64.295 119.058 64.5619C118.596 64.8288 118.08 64.991 117.549 65.0371L97.0836 91.2665L91.7422 85.3877L113.538 61.4537C113.52 60.5546 113.832 59.68 114.415 58.9957C114.998 58.3114 115.812 57.865 116.702 57.7409C117.592 57.6169 118.496 57.8239 119.244 58.3227C119.992 58.8215 120.531 59.5775 120.759 60.4473Z" fill="#FFB6B6"/>
<path d="M101.671 88.2896C101.688 88.5244 101.654 88.76 101.571 88.9804C101.488 89.2008 101.359 89.4007 101.192 89.5665L95.3604 95.3587C94.64 96.3236 93.5666 96.9633 92.3757 97.1374C91.1848 97.3116 89.9734 97.0061 89.0072 96.2878C88.041 95.5696 87.3989 94.4972 87.2215 93.3059C87.0442 92.1146 87.3461 90.9015 88.0611 89.9326L91.9751 82.6728C92.0868 82.4656 92.2418 82.285 92.4296 82.1431C92.6173 82.0013 92.8334 81.9017 93.0632 81.851C93.2929 81.8002 93.5308 81.7997 93.7608 81.8493C93.9908 81.8989 94.2073 81.9976 94.3958 82.1385L101.018 87.0919C101.207 87.2328 101.363 87.4127 101.476 87.6194C101.588 87.8261 101.655 88.0547 101.671 88.2896Z" fill="#2F2E41"/>
<path d="M66.7896 209.291H70.0085L71.5399 196.866H66.7891L66.7896 209.291Z" fill="#FFB6B6"/>
<path d="M65.7002 207.702L70.7888 207.398V209.58L75.6266 212.924C75.8655 213.089 76.0455 213.326 76.1402 213.601C76.2349 213.876 76.2394 214.173 76.153 214.451C76.0665 214.728 75.8938 214.971 75.6598 215.143C75.4259 215.315 75.1431 215.408 74.8528 215.408H68.7947L67.7505 213.25L67.3427 215.408H65.0586L65.7002 207.702Z" fill="#2F2E41"/>
<path d="M89.5475 209.291H92.7664L94.2978 196.866H89.5469L89.5475 209.291Z" fill="#FFB6B6"/>
<path d="M88.458 207.702L93.5466 207.398V209.58L98.3844 212.924C98.6234 213.089 98.8033 213.326 98.898 213.601C98.9927 213.876 98.9972 214.173 98.9108 214.451C98.8244 214.728 98.6516 214.971 98.4177 215.143C98.1838 215.315 97.901 215.408 97.6106 215.408H91.5525L90.5083 213.25L90.1006 215.408H87.8164L88.458 207.702Z" fill="#2F2E41"/>
<path d="M98.0997 139.675V146.011L97.4811 153.751C97.4811 153.751 97.2857 160.51 97.0493 165.841C96.9064 169.082 96.7459 171.794 96.6059 172.145C96.4338 172.574 96.4745 173.745 96.5738 174.974C96.6905 176.396 96.8831 177.896 96.9151 178.399C96.9764 179.336 96.4803 183.362 96.4803 183.362C96.4803 183.362 95.926 193.458 95.1209 194.264C94.3156 195.07 95.1209 197.362 95.1209 197.362C91.3456 200.147 86.5783 196.743 86.5783 196.743C87.6316 195.064 85.9598 183.604 85.9598 183.604C85.9598 183.604 85.7147 179.692 85.2189 178.641C84.7228 177.59 84.5973 171.024 84.5973 171.024V161.298C84.5973 161.298 83.2961 159.307 83.1124 158.379C82.9286 157.45 83.1124 154.168 83.1124 154.168L81.7527 149.585L80.8221 153.176C80.8221 153.176 78.4123 163.211 77.9775 164.449C77.5429 165.686 78.2227 166.927 78.2227 166.927C78.2227 166.927 78.8441 168.837 78.2227 169.713C77.8365 170.261 77.541 170.869 77.3474 171.511C77.3474 171.511 77.0293 175.167 76.4722 176.475C75.9149 177.783 75.4218 179.394 75.4218 179.394C75.4218 179.394 75.553 181.864 74.9959 182.422C74.4386 182.98 74.2548 185.768 74.2548 185.768C74.2548 185.768 74.3773 188.924 73.6333 190.039C72.8894 191.155 72.8894 197.473 72.8894 197.473C71.5992 198.301 70.1123 198.772 68.5807 198.837C67.0491 198.902 65.5277 198.559 64.1719 197.843C64.1719 197.843 64.9071 197.154 64.3498 193.943C63.7927 190.731 64.7495 181.987 64.7495 181.987C64.7495 181.987 64.627 179.768 65.2454 178.775C65.864 177.783 64.9333 175.864 65.1813 174.997C65.4293 174.13 66.1732 169.421 66.1732 169.421C66.1732 169.421 65.864 157.838 65.864 157.219C65.7908 156.118 65.4929 155.043 64.9887 154.06C64.4316 153.071 64.9887 145.885 64.9887 145.885C64.9887 145.885 66.3016 142.172 65.864 141.366C65.4263 140.56 66.1557 139.135 66.1557 139.135C66.1557 139.135 65.4759 137.462 66.1557 137.153C66.8355 136.843 66.961 135.605 66.961 135.605L67.4336 129.597C67.4336 129.597 67.6116 126.87 68.1776 126.747C68.7436 126.624 68.4956 125.573 69.0529 124.829C69.3244 124.326 69.5116 123.781 69.6072 123.217C69.6859 122.873 69.7589 122.514 69.8201 122.169C69.9952 121.235 70.1032 120.429 70.1032 120.429C73.7559 123.465 92.9618 121.337 92.9823 121.337C94.2018 121.603 95.6518 125.839 96.6992 129.532C97.6303 132.833 98.1016 136.246 98.0997 139.675Z" fill="#2F2E41"/>
<path d="M84.1294 76.7706C85.5293 72.1621 82.931 67.2905 78.3259 65.8895C73.7208 64.4886 68.8527 67.0888 67.4528 71.6973C66.0528 76.3058 68.6512 81.1774 73.2563 82.5784C77.8614 83.9794 82.7295 81.3791 84.1294 76.7706Z" fill="#FFB6B6"/>
<path d="M65.9396 75.754L69.3143 75.0513L69.9357 70.5695L71.1008 74.6793L72.7137 74.3434L73.0762 71.729L73.7559 74.1264L85.741 71.6307C85.4942 70.4437 85.0162 69.317 84.3343 68.3149C83.6523 67.3127 82.7798 66.4548 81.7666 65.7902C80.7533 65.1255 79.6192 64.667 78.4289 64.441C77.2386 64.2149 76.0155 64.2257 74.8294 64.4727L73.0924 64.8343C70.6969 65.3332 68.5975 66.7639 67.2561 68.8117C65.9147 70.8595 65.4411 73.3567 65.9396 75.754Z" fill="#2F2E41"/>
<path d="M100.466 10.1747L100.444 10.2173C96.0428 8.18806 91.0301 7.93099 86.4445 9.49928C81.859 11.0676 78.052 14.341 75.8123 18.6415C73.5726 22.942 73.0719 27.9398 74.4138 32.5997C75.7557 37.2596 78.8374 41.2242 83.0206 43.6724L82.9984 43.715L116.514 61.1957L133.982 27.6553C135.132 25.4528 135.837 23.0451 136.056 20.5698C136.275 18.0945 136.005 15.6002 135.261 13.2295C134.516 10.8588 133.312 8.65819 131.718 6.75341C130.123 4.84863 128.169 3.27706 125.967 2.12855C123.765 0.980034 121.358 0.277095 118.884 0.0599129C116.411 -0.157269 113.918 0.115565 111.55 0.862819C109.182 1.61007 106.984 2.8171 105.082 4.41488C103.18 6.01267 101.612 7.9699 100.466 10.1747Z" fill="#B99750"/>
<path d="M130.326 202.639L130.32 202.65C129.208 202.137 127.941 202.072 126.782 202.469C125.623 202.865 124.661 203.692 124.095 204.779C123.529 205.866 123.402 207.13 123.741 208.307C124.08 209.485 124.859 210.487 125.917 211.106L125.911 211.117L134.382 215.535L138.797 207.058C139.088 206.501 139.266 205.892 139.321 205.267C139.377 204.641 139.309 204.011 139.121 203.411C138.932 202.812 138.628 202.256 138.225 201.774C137.822 201.293 137.328 200.896 136.771 200.605C136.215 200.315 135.606 200.137 134.981 200.082C134.356 200.028 133.726 200.097 133.127 200.285C132.529 200.474 131.973 200.78 131.493 201.183C131.012 201.587 130.615 202.082 130.326 202.639Z" fill="#FF6584"/>
<path d="M17.9524 95.1511V95.1991C13.1122 95.4353 8.54831 97.5258 5.20622 101.037C1.86414 104.549 -2.25017e-06 109.213 0 114.062C2.25018e-06 118.912 1.86415 123.575 5.20624 127.087C8.54833 130.599 13.1122 132.689 17.9524 132.925V132.973L55.747 132.973L55.747 95.151C55.7494 92.6661 55.2624 90.205 54.3138 87.9085C53.3651 85.612 51.9736 83.5251 50.2185 81.7671C48.4635 80.0091 46.3795 78.6145 44.0856 77.6629C41.7917 76.7114 39.3329 76.2217 36.8497 76.2217C34.3665 76.2217 31.9077 76.7114 29.6138 77.6629C27.3199 78.6145 25.2359 80.0091 23.4808 81.7671C21.7258 83.5251 20.3342 85.612 19.3856 87.9085C18.437 90.205 17.95 92.6661 17.9524 95.1511Z" fill="#B99750"/>
<path d="M194.091 216H5.24191C5.14978 216 5.06143 215.963 4.99628 215.898C4.93113 215.833 4.89453 215.745 4.89453 215.652C4.89453 215.56 4.93113 215.472 4.99628 215.407C5.06143 215.341 5.14978 215.305 5.24191 215.305H194.091C194.183 215.305 194.271 215.341 194.336 215.407C194.402 215.472 194.438 215.56 194.438 215.652C194.438 215.745 194.402 215.833 194.336 215.898C194.271 215.963 194.183 216 194.091 216Z" fill="#CACACA"/>
<path d="M164.02 130.882C167.881 130.858 171.613 129.495 174.581 127.025C177.603 124.482 179.591 120.921 180.173 117.013C180.514 114.804 180.404 112.549 179.85 110.383C179.816 110.275 179.741 110.184 179.641 110.129C179.541 110.075 179.425 110.061 179.315 110.092C179.206 110.122 179.112 110.193 179.054 110.291C178.997 110.389 178.979 110.505 179.006 110.616C179.941 114.293 179.519 118.184 177.817 121.574C176.509 124.109 174.531 126.236 172.098 127.723C169.665 129.21 166.871 130 164.02 130.007C163.907 130.01 163.799 130.058 163.721 130.14C163.642 130.222 163.598 130.331 163.598 130.445C163.598 130.558 163.642 130.667 163.721 130.749C163.799 130.831 163.907 130.879 164.02 130.882Z" fill="#F0F0F0"/>
<path d="M96.4373 17.1157C93.947 14.75 90.0148 14.7562 87.1389 16.403C83.9114 18.2511 82.4482 22.07 82.5222 25.6557C82.6054 29.6912 84.5771 33.3452 87.123 36.3717C89.8363 39.5162 92.9939 42.2476 96.4957 44.4793C99.9879 46.7553 103.767 48.5573 107.733 49.8381C108.221 49.9956 108.711 50.1449 109.205 50.2859C109.315 50.3123 109.431 50.2947 109.529 50.2369C109.627 50.1791 109.698 50.0856 109.729 49.9761C109.759 49.8665 109.745 49.7496 109.691 49.6498C109.637 49.5501 109.546 49.4753 109.437 49.4413C101.821 47.2633 94.8964 43.1518 89.336 37.5059C86.6889 34.7928 84.3365 31.532 83.613 27.7368C82.9741 24.3852 83.6802 20.4936 86.2761 18.1062C88.7995 15.7854 93.216 15.2628 95.8184 17.735C96.2268 18.1231 96.8468 17.5047 96.4373 17.1157Z" fill="white"/>
<path d="M17.3048 104.365C13.941 103.946 10.782 106.314 9.47181 109.304C8.00258 112.658 8.99315 116.524 11.1243 119.358C13.4714 122.48 17.0265 124.3 20.7427 125.265C24.7318 126.302 28.9665 126.582 33.0728 126.391C37.9271 126.166 42.7174 125.191 47.2742 123.502C47.7977 123.307 47.5712 122.46 47.0416 122.657C39.4558 125.476 31.0111 126.365 23.0341 124.877C19.4685 124.212 15.837 122.943 13.1799 120.376C10.7723 118.049 9.06912 114.526 9.79369 111.124C10.5137 107.744 13.7255 104.795 17.3048 105.241C17.8624 105.31 17.8574 104.434 17.3048 104.365Z" fill="white"/>
<path d="M73.2705 61.4604C74.0841 58.2057 72.5082 54.7146 70.0683 52.4137C67.6283 50.1129 64.4443 48.7905 61.293 47.6456C58.78 46.7325 55.8364 45.9383 53.5619 47.3446C51.7343 48.4746 50.9415 50.6695 49.8968 52.548C47.9058 56.1277 44.6938 58.8705 40.8481 60.2749C37.0023 61.6792 32.78 61.6513 28.9531 60.1962C30.302 64.1147 34.9481 66.0315 39.0811 65.7653C43.2141 65.4991 47.0314 63.5944 50.8815 62.067C54.7315 60.5396 59.0142 59.3595 62.9713 60.5827C64.6414 61.099 66.1604 62.0204 67.814 62.5874C69.4676 63.1544 71.4028 63.3232 72.8765 62.3825" fill="#2F2E41"/>
<path d="M131.157 180.666L128.34 175.704C128.279 175.607 128.183 175.539 128.073 175.512C127.963 175.485 127.846 175.502 127.748 175.559C127.65 175.617 127.578 175.71 127.548 175.819C127.517 175.929 127.53 176.046 127.584 176.146L130.401 181.108C130.462 181.204 130.557 181.273 130.668 181.3C130.778 181.327 130.894 181.31 130.992 181.253C131.09 181.195 131.162 181.102 131.193 180.993C131.224 180.883 131.211 180.766 131.157 180.666Z" fill="#F0F0F0"/>
</g>
<defs>
<clipPath id="clip0_277_3797">
<rect width="200" height="216" fill="white"/>
</clipPath>
</defs>
</svg>
