<svg width="12" height="16" viewBox="0 0 12 16" fill="none" xmlns="http://www.w3.org/2000/svg">
<g clip-path="url(#clip0_717_4)">
<path d="M1.96527 0H8.10977C8.21364 0 8.3076 0.0449613 8.3724 0.116899L11.8909 3.50202C11.9628 3.57116 11.9991 3.66388 11.9991 3.75628L12 13.8921C12 14.9687 11.1116 15.8571 10.035 15.8571H1.96527C0.887442 15.8571 0 14.9699 0 13.8921V1.96527C0 0.885892 0.886202 0 1.96527 0ZM8.54512 1.26171V2.20341C8.61953 3.18481 9.28372 3.55535 10.2047 3.57116L10.9439 3.56992L8.54512 1.26171ZM11.2927 4.23752C11.244 4.26264 11.1888 4.2769 11.1302 4.2769L10.1988 4.27535C8.90326 4.25458 7.9445 3.61209 7.84124 2.25457L7.83752 2.20341V0.707287H1.96527C1.27194 0.707287 0.707287 1.27194 0.707287 1.96527V7.75039L11.2927 7.74667V4.23752ZM0.707287 8.45055V13.8921C0.707287 14.5842 1.27349 15.1498 1.96527 15.1498H10.035C10.7222 15.1498 11.2927 14.5792 11.2927 13.8921V8.45427L0.707287 8.45055ZM1.97891 4.43256H2.91783C2.95287 4.43256 2.97612 4.45582 2.97612 4.49085V7.20744C2.97612 7.24217 2.95287 7.26574 2.91783 7.26574H1.97891C1.94357 7.26574 1.92 7.24217 1.92 7.20744V4.49085C1.90884 4.45582 1.94357 4.43256 1.97891 4.43256ZM3.75566 3.31752H4.69426C4.72961 3.31752 4.75256 3.34047 4.75256 3.37582V7.20744C4.75256 7.24217 4.72961 7.26574 4.69426 7.26574H3.75566C3.72093 7.26574 3.69736 7.24217 3.69736 7.20744V3.37582C3.69736 3.34047 3.72093 3.31752 3.75566 3.31752ZM9.08496 5.77085H10.0239C10.0592 5.77085 10.0825 5.79442 10.0825 5.82946V7.19566C10.0825 7.23039 10.0592 7.25334 10.0239 7.25334H9.08496C9.05054 7.25334 9.0276 7.23039 9.0276 7.19566V5.82946C9.0276 5.80589 9.05054 5.77085 9.08496 5.77085ZM5.53209 5.10729H6.47101C6.50636 5.10729 6.5293 5.13054 6.5293 5.16558V7.19566C6.5293 7.23039 6.50636 7.25334 6.47101 7.25334H5.53209C5.49767 7.25334 5.47473 7.23039 5.47473 7.19566V5.16558C5.47473 5.14233 5.49767 5.10729 5.53209 5.10729ZM7.30822 4.63442H8.24713C8.28217 4.63442 8.30574 4.65892 8.30574 4.69303V7.20744C8.30574 7.24217 8.28217 7.26574 8.24713 7.26574H7.30822C7.27318 7.26574 7.24992 7.24217 7.24992 7.20744V4.69303C7.24992 4.65892 7.27318 4.63442 7.30822 4.63442ZM6.26636 12.1907L8.13643 12.2239C8.13643 12.8949 7.80651 13.511 7.25643 13.885L6.26636 12.1907ZM6.1414 9.29675C6.58109 9.33055 6.87783 9.3845 7.27473 9.58264C8.03411 9.97892 8.56248 10.7709 8.6062 11.6735L8.61705 11.8164H8.47411L6.30667 11.7501H6.18512L6.1414 9.29675ZM6.4276 11.4862L8.33116 11.5414C8.21767 10.4434 7.45178 9.78109 6.40558 9.57148L6.4276 11.4862ZM5.63876 11.996L6.70605 13.8447C6.37612 14.0316 6.01333 14.1312 5.63876 14.1312C4.4614 14.1312 3.50419 13.1736 3.50419 11.996C3.50419 10.8518 4.40651 9.90543 5.5507 9.86109L5.63876 11.996Z" fill="black"/>
</g>
<defs>
<clipPath id="clip0_717_4">
<rect width="12" height="15.8571" fill="white"/>
</clipPath>
</defs>
</svg>
