<svg width="22" height="23" viewBox="0 0 22 23" fill="none" xmlns="http://www.w3.org/2000/svg">
<g clip-path="url(#clip0_250_12)">
<path fill-rule="evenodd" clip-rule="evenodd" d="M14.625 5.05371C15.2465 5.40754 15.8063 5.85414 16.2838 6.37704C16.7547 6.89031 17.1325 7.47694 17.4013 8.11215C17.5521 8.47191 17.6717 8.84316 17.759 9.22209C17.9566 10.0836 17.9724 10.9749 17.8054 11.8425C17.7134 12.3103 17.5735 12.768 17.3878 13.2089L17.3665 13.2557C16.9799 14.1916 16.2877 15.0975 15.6265 15.9922C15.2901 16.4452 14.9556 16.8925 14.6753 17.3267C14.587 17.4618 14.4625 17.5712 14.3151 17.643C14.1676 17.7149 14.0028 17.7466 13.8381 17.7348L8.51743 18.5003C8.29801 18.5312 8.07448 18.4834 7.88895 18.3659C7.70341 18.2483 7.56869 18.0691 7.51014 17.8621C7.37785 17.4879 7.21426 17.1248 7.02099 16.7765C6.86049 16.4769 6.66595 16.1957 6.44097 15.9379C6.16643 15.6347 5.88609 15.324 5.60769 14.974C5.29711 14.569 5.02898 14.1351 4.80726 13.6787C4.57411 13.1989 4.3927 12.6971 4.26592 12.1813C4.14008 11.6649 4.07842 11.1359 4.08224 10.6053C4.08784 10.0537 4.16382 9.50486 4.30845 8.97128C4.46291 8.39858 4.68409 7.84474 4.96773 7.3204L5.0064 7.25301C5.372 6.64493 5.83613 6.09765 6.38104 5.63208C6.92223 5.17416 7.53838 4.80665 8.20422 4.5446L8.26029 4.52401C8.75783 4.33258 9.27701 4.19876 9.807 4.12533C10.3675 4.04915 10.9352 4.03659 11.4987 4.08789C12.0487 4.13633 12.5914 4.24368 13.117 4.40796C13.6432 4.56743 14.1491 4.78406 14.625 5.05371ZM13.8748 21.4034C13.5833 21.89 13.1663 22.2951 12.6645 22.5789C12.2403 22.8181 11.7644 22.9584 11.2744 22.9888C10.7822 23.0192 10.2901 22.9263 9.84567 22.7192C9.52737 22.5675 9.24039 22.3607 8.99884 22.1091L13.8748 21.4034ZM14.3389 18.7624V19.0712V19.1779C14.3534 19.3804 14.3534 19.5837 14.3389 19.7862L14.2422 20.2317L8.33376 21.0815L8.23129 20.8531L8.00122 19.9397V19.6739L14.3234 18.7624H14.3389ZM10.8588 0.698164C10.8643 0.508841 10.9469 0.329299 11.0884 0.198565C11.23 0.0678314 11.4191 -0.00352649 11.6147 2.88575e-06H11.665C11.8468 0.0156804 12.0165 0.0948472 12.1425 0.222741C12.2756 0.358531 12.3491 0.539041 12.3475 0.72624C12.3485 0.738699 12.3485 0.751216 12.3475 0.763675L12.3069 2.29663C12.3078 2.31284 12.3078 2.32909 12.3069 2.3453C12.2926 2.5265 12.2074 2.69559 12.0687 2.81805C11.93 2.9405 11.7483 3.00706 11.5606 3.00415H11.5084C11.3272 2.9911 11.1576 2.91299 11.0328 2.78516C10.8988 2.64912 10.8253 2.46771 10.8278 2.27979C10.8268 2.26733 10.8268 2.25481 10.8278 2.24235L10.8665 0.703779L10.8588 0.698164ZM2.70761 3.38786C2.56475 3.25737 2.48013 3.07807 2.47173 2.88811C2.46733 2.79349 2.48234 2.69896 2.51589 2.60999C2.54944 2.52102 2.60086 2.43937 2.6672 2.36975C2.73354 2.30014 2.81346 2.24394 2.90237 2.2044C2.99127 2.16486 3.08738 2.14277 3.18515 2.13941C3.38095 2.13142 3.57207 2.1987 3.71683 2.32658L4.90393 3.39909C5.0476 3.52879 5.13249 3.7082 5.1401 3.89824C5.1477 4.08827 5.07741 4.27351 4.94453 4.41358C4.80915 4.55216 4.62324 4.63409 4.42639 4.64193C4.23118 4.64983 4.0407 4.58253 3.89664 4.45476L2.70761 3.38786ZM0.77422 11.2904C0.6762 11.2939 0.578429 11.2786 0.486496 11.2455C0.394564 11.2124 0.310275 11.1621 0.238449 11.0974C0.166623 11.0328 0.108669 10.955 0.0679029 10.8686C0.0271362 10.7823 0.00435617 10.689 0.000865442 10.5941C-0.00386047 10.5001 0.0108036 10.4062 0.0440002 10.3179C0.0771968 10.2295 0.12826 10.1484 0.194204 10.0793C0.260931 10.0106 0.341087 9.95533 0.430029 9.91678C0.518971 9.87822 0.614932 9.85714 0.712352 9.85474L2.33253 9.80233C2.43058 9.79807 2.52852 9.81272 2.62067 9.84543C2.71282 9.87815 2.79733 9.92827 2.86929 9.99288C2.94125 10.0575 2.99922 10.1353 3.03984 10.2218C3.08046 10.3083 3.10291 10.4018 3.10588 10.4967V10.508V10.5342C3.10387 10.7108 3.03509 10.8806 2.91255 11.0115C2.84442 11.0801 2.7628 11.1348 2.67248 11.1725C2.58216 11.2101 2.48498 11.2298 2.38666 11.2305H2.35766L0.756819 11.2829L0.77422 11.2904ZM21.1908 9.06486H21.2159C21.4012 9.05401 21.584 9.11077 21.7283 9.22396C21.8803 9.34524 21.9774 9.51918 21.9989 9.70874C21.9989 9.70874 21.9989 9.72746 21.9989 9.7312C22.0078 9.91463 21.9439 10.0944 21.8202 10.2336C21.6965 10.3729 21.5225 10.461 21.3338 10.4799L19.7214 10.6689C19.5258 10.6883 19.3303 10.6318 19.1777 10.5118C19.0251 10.3918 18.9279 10.2181 18.9074 10.0288C18.8875 9.83918 18.9461 9.64963 19.0705 9.50185C19.1948 9.35407 19.3747 9.26017 19.5706 9.24081C20.1081 9.18465 20.6494 9.12476 21.1888 9.07422L21.1908 9.06486ZM17.9968 2.81698C18.0506 2.73847 18.1199 2.67106 18.2008 2.61863C18.2816 2.56621 18.3724 2.52981 18.4678 2.51153C18.5633 2.49326 18.6615 2.49348 18.7569 2.51217C18.8523 2.53086 18.9429 2.56766 19.0235 2.62045C19.1041 2.67275 19.1731 2.74008 19.2265 2.81849C19.28 2.8969 19.3168 2.98483 19.3347 3.07715C19.3723 3.26388 19.3328 3.45744 19.2245 3.61621L18.3216 4.92644C18.2109 5.0843 18.0399 5.1931 17.8463 5.2289C17.6526 5.2647 17.4523 5.22458 17.2892 5.11735C17.1261 5.01013 17.0138 4.84458 16.9768 4.65714C16.9398 4.46969 16.9812 4.2757 17.092 4.11784L17.9968 2.80762V2.81698ZM11.8448 10.2778H12.9836C13.0227 10.2778 13.0614 10.2852 13.0975 10.2997C13.1336 10.3142 13.1664 10.3354 13.1941 10.3622C13.2217 10.3889 13.2437 10.4207 13.2586 10.4557C13.2736 10.4907 13.2813 10.5281 13.2813 10.566C13.2812 10.6233 13.2637 10.6792 13.231 10.727L10.5243 15.2061C10.5042 15.2385 10.4777 15.2668 10.4463 15.2893C10.4149 15.3117 10.3792 15.328 10.3413 15.337C10.3033 15.3461 10.2639 15.3478 10.2253 15.342C10.1867 15.3362 10.1497 15.3231 10.1163 15.3034C10.0635 15.2726 10.0218 15.2267 9.99693 15.1721C9.97201 15.1175 9.9651 15.0568 9.97714 14.9983L10.3773 12.2506L9.02398 12.273C8.98497 12.2738 8.9462 12.267 8.90989 12.2532C8.87358 12.2394 8.84045 12.2188 8.81242 12.1925C8.78439 12.1662 8.762 12.1348 8.74654 12.1002C8.73109 12.0655 8.72287 12.0282 8.72237 11.9904C8.72067 11.9371 8.73476 11.8845 8.76297 11.8388L11.4291 7.36158C11.4697 7.29618 11.5353 7.2489 11.6117 7.22998C11.688 7.21106 11.769 7.22203 11.8371 7.2605C11.8894 7.28807 11.9319 7.33041 11.9588 7.38189C11.9858 7.43337 11.9959 7.49157 11.9879 7.54875L11.8525 10.2778H11.8448Z" fill="#B99750"/>
</g>
<defs>
<clipPath id="clip0_250_12">
<rect width="22" height="23" fill="white"/>
</clipPath>
</defs>
</svg>
