<svg width="12" height="12" viewBox="0 0 12 12" fill="none" xmlns="http://www.w3.org/2000/svg">
<g clip-path="url(#clip0_299_123)">
<path d="M12 7.58167V11.5976C12 11.8203 11.8193 12 11.5977 12H7.55176V11.0605H11.0625C11.0625 9.85529 11.0625 8.78782 11.0625 7.58167H12ZM7.55762 0.93074V0H11.5977C11.8203 0 12 0.180679 12 0.402376V4.42419H11.0596V0.93074H7.55762ZM0.94043 4.41833H0V0.402376C0 0.180679 0.180664 0 0.402344 0H4.40625V0.941483H0.94043V4.41833ZM4.40137 11.0624V12H0.402344C0.179687 12 0 11.8193 0 11.5966V7.57581H0.94043V11.0634H4.40137V11.0624Z" fill="white"/>
</g>
<defs>
<clipPath id="clip0_299_123">
<rect width="12" height="12" fill="white"/>
</clipPath>
</defs>
</svg>
