<svg width="15" height="15" viewBox="0 0 15 15" fill="none" xmlns="http://www.w3.org/2000/svg">
<g clip-path="url(#clip0_157_66)">
<path fill-rule="evenodd" clip-rule="evenodd" d="M7.5 0C8.52783 0 9.50806 0.20752 10.3992 0.582275L8.7439 2.23755C8.34473 2.14355 7.92847 2.09351 7.5 2.09351C4.51416 2.09351 2.09351 4.51416 2.09351 7.5C2.09351 7.92847 2.14355 8.34473 2.23755 8.7439L0.581055 10.4004C0.20752 9.50806 0 8.52783 0 7.5C0 3.35815 3.35815 0 7.5 0ZM14.4641 4.71069C14.8096 5.57251 15 6.51367 15 7.5C15 11.6418 11.6418 15 7.5 15C6.51367 15 5.57251 14.8096 4.71069 14.4641L6.38306 12.7917C6.74316 12.8674 7.1167 12.9077 7.49878 12.9077C10.4846 12.9077 12.9053 10.4871 12.9053 7.50122C12.9053 7.11914 12.865 6.74561 12.7893 6.3855L14.4641 4.71069Z" fill="white"/>
<path d="M1.5918 11.51L3.10425 9.99759L3.53027 10.4236L2.63184 11.3221L2.97729 11.6675L3.74512 10.8997L4.14551 11.3001L3.37646 12.0679L4.18335 12.8748L3.56934 13.4888L1.5918 11.51ZM6.01074 10.398L5.31738 11.0913L5.54443 11.5174L4.92065 12.1411L3.6853 9.41654L4.35425 8.74637L7.0752 9.98416L6.43433 10.625L6.01074 10.398ZM5.45288 10.0989L4.52515 9.6033L5.01953 10.531L5.45288 10.0989ZM5.28198 7.81986L5.896 7.20584L7.87476 9.1846L7.26074 9.79862L5.28198 7.81986ZM6.30127 6.80179L6.91162 6.19022L8.40454 7.68314L9.36157 6.72611L9.84863 7.21317L8.28003 8.78055L6.30127 6.80179ZM8.11157 4.99027L9.74854 3.3533L10.1721 3.77567L9.14917 4.79862L9.46411 5.11356L10.4126 4.16507L10.8167 4.56912L9.86816 5.51761L10.2576 5.90701L11.311 4.85355L11.759 5.30155L10.0903 6.96903L8.11157 4.99027ZM10.0842 3.01883L10.9937 2.10941C11.1719 1.93118 11.3416 1.81033 11.5002 1.74808C11.6589 1.68704 11.8201 1.66507 11.9824 1.68338C12.146 1.70291 12.3035 1.7554 12.4561 1.84451C12.6099 1.9324 12.7539 2.04349 12.8882 2.17899C13.0994 2.39017 13.2397 2.57816 13.3081 2.74295C13.3765 2.90775 13.4082 3.07132 13.4009 3.23612C13.3936 3.40091 13.3545 3.54495 13.2825 3.66946C13.1848 3.83914 13.0811 3.97952 12.9724 4.08817L12.063 4.99759L10.0842 3.01883ZM11.1426 2.85526L12.2229 3.93558L12.373 3.78543C12.5012 3.65726 12.5781 3.55228 12.6038 3.46927C12.6294 3.38626 12.6221 3.29471 12.583 3.19339C12.5427 3.09085 12.4438 2.96146 12.2852 2.80399C12.0752 2.59403 11.8982 2.48538 11.7517 2.47684C11.6052 2.46829 11.4526 2.54276 11.2939 2.70145L11.1426 2.85526Z" fill="white"/>
</g>
<defs>
<clipPath id="clip0_157_66">
<rect width="15" height="15" fill="white"/>
</clipPath>
</defs>
</svg>
