<svg width="27" height="27" viewBox="0 0 27 27" fill="none" xmlns="http://www.w3.org/2000/svg">
<g clip-path="url(#clip0_51_20)">
<path fill-rule="evenodd" clip-rule="evenodd" d="M15.1452 15.6509V26.9996H11.8553V15.6509C10.7747 15.0549 10.0406 13.8896 10.0406 12.5492C10.0406 10.6027 11.5897 9.02428 13.5002 9.02428C15.4106 9.02428 16.9599 10.6027 16.9599 12.5492C16.9599 13.8896 16.2258 15.0549 15.1452 15.6509ZM8.63999 2.49952C9.28073 2.17756 9.54331 1.38702 9.22733 0.73483C8.91136 0.0824198 8.13614 -0.185574 7.49584 0.136153C4.88103 1.45038 2.84741 3.62455 1.56242 6.18471C0.613181 8.07545 0.0719812 10.1793 0.00672087 12.3025C-0.058979 14.4435 0.355435 16.6063 1.31918 18.5968C2.50595 21.0491 4.51804 23.2302 7.48024 24.7744C8.11505 25.105 8.8929 24.8482 9.21722 24.2014C9.54177 23.5546 9.28996 22.7623 8.65515 22.4318C6.22997 21.168 4.59319 19.4037 3.63801 17.4315C2.86763 15.8394 2.53627 14.1052 2.58901 12.3853C2.64241 10.6486 3.08473 8.92801 3.86126 7.38184C4.90103 5.31065 6.53935 3.55492 8.63999 2.49952ZM19.5046 0.135929C18.8643 -0.186022 18.0889 0.082196 17.7729 0.734606C17.457 1.38702 17.7197 2.17756 18.3605 2.49929C20.4613 3.55492 22.0997 5.31043 23.139 7.38184C23.9153 8.92779 24.3579 10.6484 24.411 12.3853C24.4638 14.1052 24.1324 15.8394 23.3622 17.4315C22.4071 19.4037 20.7703 21.168 18.3451 22.4318C17.7103 22.7625 17.4587 23.5548 17.783 24.2014C18.1074 24.8482 18.8852 25.1048 19.52 24.7744C22.482 23.2304 24.4943 21.0491 25.6811 18.5968C26.6448 16.6063 27.0592 14.4435 26.9935 12.3025C26.9283 10.1793 26.3871 8.07545 25.4381 6.18471C24.1528 3.62455 22.1194 1.45038 19.5046 0.135929ZM18.192 5.93396C17.7096 5.57999 17.037 5.69171 16.6896 6.18314C16.3425 6.67458 16.4519 7.3599 16.9342 7.71387C17.1287 7.85648 17.3194 8.01656 17.5064 8.19164C18.5987 9.21772 19.2464 10.5859 19.3825 12.0336C19.52 13.4942 19.1383 15.0419 18.17 16.411C18.0056 16.6436 17.8162 16.8794 17.602 17.1163C17.1988 17.5623 17.2267 18.2577 17.665 18.6683C18.1032 19.0789 18.7854 19.05 19.1884 18.604C19.4477 18.3177 19.6907 18.0127 19.9168 17.6923C21.2049 15.8701 21.7112 13.7967 21.5257 11.8271C21.3394 9.84506 20.4554 7.97447 18.9663 6.5754C18.7321 6.35531 18.4739 6.14128 18.192 5.93396ZM10.066 7.71454C10.5484 7.36057 10.658 6.67525 10.3106 6.18382C9.96321 5.69238 9.29061 5.58066 8.8083 5.9344C8.52617 6.14173 8.2682 6.35576 8.03397 6.57562C6.54462 7.97492 5.66064 9.84528 5.47431 11.8274C5.28886 13.7967 5.79512 15.8708 7.08341 17.693C7.30995 18.0132 7.55275 18.3179 7.81182 18.6042C8.21481 19.0502 8.89707 19.0791 9.335 18.6685C9.77359 18.2579 9.80149 17.5627 9.39828 17.1165C9.18404 16.8794 8.99464 16.6439 8.83028 16.4112C7.86214 15.0422 7.48024 13.4947 7.61779 12.034C7.75381 10.5866 8.40158 9.21817 9.49387 8.19209C9.68108 8.01723 9.87181 7.85716 10.066 7.71454Z" fill="#B99750"/>
</g>
<defs>
<clipPath id="clip0_51_20">
<rect width="27" height="27" fill="white"/>
</clipPath>
</defs>
</svg>
