<svg width="15" height="17" viewBox="0 0 15 17" fill="none" xmlns="http://www.w3.org/2000/svg">
<g clip-path="url(#clip0_113_87)">
<path fill-rule="evenodd" clip-rule="evenodd" d="M13.9158 0.844059C14.7501 1.55378 14.8394 2.4807 14.9313 2.7062L14.9766 3.05207C15.0966 3.79775 14.7567 4.81598 14.233 5.45653L11.8887 8.27879C10.9878 9.36343 9.48442 9.72313 8.22631 9.16006L8.22231 9.16559C8.68211 9.94448 8.64213 10.4993 8.68344 10.6279C8.80339 11.3764 8.46354 12.3904 7.93977 13.0324L5.59415 15.8546C4.45732 17.2229 2.45155 17.3903 1.12547 16.2157C0.453766 15.5185 0.0805988 14.9277 0.00996353 13.9344C-0.0526753 13.0711 0.213873 12.223 0.754966 11.5576L3.14324 8.68138C3.81094 7.97028 4.14279 7.87067 4.91978 7.64793L5.25297 7.60089L6.67367 7.81672C6.70299 7.82778 6.73231 7.84162 6.7603 7.85407L6.7643 7.84854C6.05128 6.64354 6.15523 5.06639 7.0495 3.97899L9.39379 1.15811C9.94155 0.498193 10.7252 0.0914547 11.5462 0.0250485C12.2619 -0.0980798 13.2481 0.251937 13.8625 0.797021L13.9158 0.844059ZM9.89357 7.15404L9.40579 7.74062L9.49108 7.74201H9.49375L9.57371 7.73924H9.57505L9.5937 7.73786H9.59637C9.87758 7.71572 10.1548 7.61611 10.3907 7.4418C10.436 7.40859 10.4813 7.37124 10.5266 7.32835C10.5666 7.291 10.6093 7.24673 10.6506 7.19692L10.6666 7.17894L12.9922 4.37881C13.1881 4.14362 13.3067 3.86001 13.3494 3.5681C13.3587 3.50723 13.364 3.44774 13.3667 3.39378C13.3694 3.33706 13.368 3.27619 13.3654 3.2167V3.20978L13.364 3.19456C13.3427 2.90265 13.2467 2.61489 13.0788 2.37002C13.0468 2.32298 13.0109 2.27733 12.9749 2.23582L12.9709 2.23029C12.9322 2.18602 12.8896 2.14175 12.8456 2.10024L12.8376 2.09333L12.8309 2.08641L12.8163 2.07534C12.591 1.87751 12.3232 1.75714 12.0459 1.71426H12.0419C11.9846 1.70596 11.9287 1.69904 11.8767 1.69766C11.822 1.69489 11.7647 1.69627 11.7074 1.69904H11.6981L11.6848 1.70042C11.4036 1.72256 11.1264 1.82217 10.8905 1.99648C10.8451 2.02969 10.7998 2.06704 10.7599 2.10439L10.7559 2.10854C10.7119 2.14866 10.6706 2.19294 10.6306 2.23997L10.6146 2.25796L8.29028 5.05671C8.09437 5.29189 7.97576 5.5755 7.93311 5.86742C7.92511 5.9269 7.91845 5.98639 7.91712 6.04173C7.91445 6.09845 7.91578 6.15933 7.91845 6.21881L7.91978 6.23957V6.24095V6.24372C7.92378 6.30736 7.93178 6.36961 7.94377 6.43325L8.42089 5.85911L8.43422 5.84251L8.45155 5.82314L8.45421 5.82038C8.62613 5.62808 8.8567 5.51878 9.09259 5.50218C9.32982 5.4842 9.57505 5.55614 9.77229 5.72354L9.77496 5.72492L9.78695 5.73599L9.78962 5.73875L9.79228 5.74152L9.79362 5.7429L9.79628 5.74429L9.80561 5.75259C10.0802 6.00576 10.1814 6.38898 10.1001 6.739C10.0842 6.80817 10.0602 6.87734 10.0282 6.94375C9.99886 7.00739 9.96021 7.06826 9.91756 7.12498L9.9149 7.12775L9.9109 7.13328L9.90956 7.13605L9.89624 7.15265L9.89357 7.15404ZM5.3396 11.0997C5.65012 11.3778 6.12325 11.3418 6.39113 11.0194L7.1348 10.1243C7.22143 10.3249 7.2734 10.5394 7.2894 10.7566C7.32271 11.2325 7.18411 11.7208 6.86425 12.1055L4.53729 14.9056C4.21743 15.2916 3.77362 15.506 3.31649 15.5406C2.86603 15.5752 2.4049 15.4368 2.0384 15.1186L2.01707 15.0993C1.64657 14.7672 1.43866 14.3065 1.40534 13.832C1.37203 13.3616 1.50663 12.8788 1.81849 12.497L1.83049 12.4831L4.12947 9.71621L4.15745 9.68301C4.47731 9.29841 4.92111 9.08259 5.37824 9.048C5.58882 9.0314 5.80206 9.05353 6.00597 9.11302L5.2623 10.0081C4.99442 10.3305 5.02907 10.8216 5.3396 11.0997Z" fill="white"/>
</g>
<defs>
<clipPath id="clip0_113_87">
<rect width="15" height="17" fill="white"/>
</clipPath>
</defs>
</svg>
