<svg width="15" height="15" viewBox="0 0 15 15" fill="none" xmlns="http://www.w3.org/2000/svg">
<g clip-path="url(#clip0_157_105)">
<path d="M7.5 0C9.5707 0 11.4463 0.839665 12.8033 2.19672C14.1604 3.55378 15 5.4294 15 7.50015C15 9.57089 14.1604 11.4462 12.8033 12.8033C11.4463 14.1603 9.5707 15 7.5 15C5.4293 15 3.55371 14.1603 2.19668 12.8033C0.839649 11.4462 0 9.57089 0 7.50015C0 5.4294 0.839649 3.55378 2.19668 2.19672C3.55371 0.839665 5.4293 0 7.5 0ZM6.93867 3.99764C6.93867 3.68796 7.19033 3.4363 7.5 3.4363C7.80967 3.4363 8.06133 3.68796 8.06133 3.99764V5.83019C8.06133 6.13987 7.80967 6.39153 7.5 6.39153C7.19033 6.39153 6.93867 6.13987 6.93867 5.83019V3.99764ZM9.07559 5.53429C8.83623 5.33946 8.79961 4.98672 8.99414 4.74707C9.18896 4.50771 9.54199 4.47108 9.78135 4.66591C10.1991 5.00459 10.5396 5.43351 10.7716 5.92101C10.9963 6.393 11.1223 6.92123 11.1223 7.47729C11.1223 8.47751 10.7165 9.38339 10.0614 10.0385L10.0271 10.0701C9.37354 10.707 8.48115 11.0993 7.5 11.0993C6.50215 11.0993 5.596 10.6933 4.94004 10.037C4.2835 9.38339 3.87773 8.47751 3.87773 7.47729C3.87773 6.92387 4.00342 6.39739 4.22754 5.92541C4.45986 5.43643 4.79971 5.00664 5.21514 4.66855C5.45449 4.47372 5.80752 4.51034 6.00205 4.7497C6.19688 4.98936 6.16025 5.3421 5.9209 5.53692C5.63496 5.76984 5.40059 6.06604 5.24063 6.40325C5.08682 6.72669 5.00039 7.09145 5.00039 7.47729C5.00039 8.16754 5.28076 8.79246 5.73252 9.24452C6.18311 9.69775 6.8083 9.97666 7.5 9.97666C8.17852 9.97666 8.79287 9.70771 9.24141 9.27206L9.26748 9.24452C9.71924 8.79246 9.99961 8.16754 9.99961 7.47729C9.99961 7.09203 9.91289 6.72757 9.7585 6.40325C9.59832 6.06641 9.36501 5.76955 9.07559 5.53429ZM12.0923 2.90777C10.9172 1.73294 9.29326 1.00578 7.5 1.00578C5.70674 1.00578 4.08281 1.73294 2.90771 2.90777C1.73291 4.08289 1.00576 5.70685 1.00576 7.50015C1.00576 9.29344 1.73291 10.9171 2.90771 12.0922C4.08281 13.2671 5.70674 13.9942 7.5 13.9942C9.29326 13.9942 10.9172 13.2671 12.0923 12.0922C13.2671 10.9171 13.9942 9.29344 13.9942 7.50015C13.9942 5.70685 13.2671 4.08289 12.0923 2.90777Z" fill="white"/>
</g>
<defs>
<clipPath id="clip0_157_105">
<rect width="15" height="15" fill="white"/>
</clipPath>
</defs>
</svg>
