<svg width="15" height="15" viewBox="0 0 15 15" fill="none" xmlns="http://www.w3.org/2000/svg">
<g clip-path="url(#clip0_166_704)">
<path d="M8.35906 13.8097C8.78755 13.754 9.12609 14.1649 8.98088 14.5644C8.90498 14.7669 8.72868 14.909 8.50996 14.9375C8.00659 15.001 7.4981 15.0161 6.99173 14.9826C5.12361 14.8592 3.44283 14.0653 2.19771 12.8441C0.83994 11.5123 0 9.67243 0 7.64056C0 5.6084 0.83994 3.76879 2.19771 2.43707C3.55548 1.10536 5.43108 0.281531 7.50299 0.281531C8.22131 0.281531 8.92141 0.382933 9.58864 0.571965C10.136 0.72688 10.6635 0.942921 11.1607 1.21584L11.0127 0.836022C10.8893 0.517747 11.0522 0.161664 11.3764 0.0403325C11.7009 -0.0807061 12.0639 0.079018 12.1876 0.397294L12.8127 2.00157C12.8363 2.06261 12.85 2.12688 12.8534 2.19207C12.9024 2.491 12.7198 2.78729 12.4162 2.87756L10.742 3.37989C10.4107 3.47836 10.0608 3.29489 9.96036 2.97017C9.85996 2.64545 10.047 2.30197 10.3781 2.2035L10.5158 2.16217C10.119 1.95151 9.70029 1.7833 9.26683 1.66043C8.71195 1.50335 8.12032 1.41894 7.50299 1.41894C5.75139 1.41894 4.16534 2.11528 3.01763 3.24126C1.86962 4.36695 1.15966 5.92228 1.15966 7.64056C1.15966 9.35855 1.86962 10.9139 3.01763 12.0399C4.05777 13.06 5.45767 13.7277 7.01474 13.8437C7.45996 13.8768 7.91803 13.866 8.35906 13.8097ZM6.35438 4.64742C6.35438 4.33354 6.61404 4.07886 6.93436 4.07886C7.25438 4.07886 7.51404 4.33354 7.51404 4.64742V8.10919L9.92988 9.15076C10.2227 9.27708 10.3554 9.61235 10.2266 9.89956C10.0978 10.1865 9.75598 10.3169 9.46315 10.1906L6.73028 9.01243C6.51066 8.93125 6.35438 8.72346 6.35438 8.47992V4.64742ZM10.3793 13.2019C9.91255 13.4361 9.9747 14.1075 10.4776 14.2549C10.6231 14.2953 10.768 14.283 10.9037 14.2165C11.2778 14.0322 11.637 13.815 11.9737 13.5712C12.138 13.451 12.2235 13.2617 12.2059 13.0615C12.1611 12.6193 11.6477 12.3951 11.2829 12.6577C10.998 12.864 10.6957 13.046 10.3793 13.2019ZM12.7446 11.1636C12.4805 11.5498 12.7772 12.0692 13.2517 12.0487C13.4373 12.039 13.6034 11.9499 13.7074 11.7975C13.9422 11.4558 14.1451 11.0979 14.319 10.7228C14.4867 10.3524 14.2255 9.93737 13.8123 9.92008C13.5753 9.91246 13.3608 10.0423 13.2622 10.2542C13.1148 10.5722 12.9436 10.874 12.7446 11.1636ZM13.8102 8.24693C13.7892 8.47025 13.8998 8.6795 14.0967 8.79292C14.466 8.99866 14.9214 8.7683 14.9647 8.35419C15.0045 7.94331 15.0108 7.53652 14.9821 7.12476C14.9677 6.92693 14.8512 6.75256 14.6719 6.66024C14.2697 6.45567 13.7931 6.76164 13.8251 7.20447C13.8496 7.55381 13.8439 7.89817 13.8102 8.24693ZM13.3297 5.18785C13.4597 5.4818 13.8084 5.61397 14.1051 5.47974C14.391 5.35079 14.5192 5.02226 14.3952 4.73857C14.2309 4.3608 14.0331 3.99768 13.8069 3.65186C13.5227 3.22339 12.854 3.34823 12.7506 3.84968C12.7222 3.99709 12.7491 4.14099 12.8319 4.26789C13.0237 4.56155 13.1904 4.86693 13.3297 5.18785Z" fill="white"/>
</g>
<defs>
<clipPath id="clip0_166_704">
<rect width="15" height="15" fill="white"/>
</clipPath>
</defs>
</svg>
