<svg width="15" height="17" viewBox="0 0 15 17" fill="none" xmlns="http://www.w3.org/2000/svg">
<g clip-path="url(#clip0_717_9)">
<path fill-rule="evenodd" clip-rule="evenodd" d="M10.8375 9.38208C11.6681 9.38208 12.4206 9.7199 12.9664 10.2631C13.5122 10.8089 13.8474 11.5587 13.8474 12.392C13.8474 12.9987 13.6659 13.5657 13.3572 14.0387L14.6595 15.4575L13.7613 16.2789L12.5054 14.8971C12.0285 15.2151 11.4548 15.4005 10.8388 15.4005C10.0082 15.4005 9.25569 15.0627 8.71121 14.5196C8.1654 13.9738 7.83023 13.2239 7.83023 12.392C7.83023 11.5613 8.16805 10.8089 8.71121 10.2631C9.25437 9.71725 10.0055 9.38208 10.8375 9.38208ZM0.765185 5.41304V11.6514C0.765185 11.6872 0.778433 11.7203 0.800954 11.7428C0.823476 11.7654 0.85527 11.7799 0.892364 11.7799H6.52665C6.91481 11.8197 6.92673 12.4913 6.52665 12.5496H2.9206V13.9804C2.9206 14.0175 2.93385 14.0493 2.95769 14.0718C2.98022 14.0943 3.01201 14.1076 3.0491 14.1076H6.52797C6.80883 14.1394 6.90023 14.7779 6.52797 14.8773H3.05308C2.80667 14.8773 2.57881 14.7766 2.41983 14.6123C2.25556 14.448 2.15488 14.2255 2.15488 13.9791V12.5483H0.896338C0.64993 12.5483 0.422068 12.4476 0.263094 12.2833C0.0988216 12.1191 -0.00186157 11.8965 -0.00186157 11.6501V0.8982C-0.000536794 0.651791 0.100146 0.423929 0.264419 0.264956C0.428691 0.100683 0.651254 0 0.897663 0H10.346C10.5924 0 10.8203 0.100683 10.9792 0.263631C11.1435 0.427903 11.2429 0.651791 11.2429 0.896875V2.32764H12.5014C12.7478 2.32764 12.9757 2.42832 13.1346 2.59127C13.2989 2.75554 13.3996 2.97943 13.3996 3.22451V8.13016C13.3731 8.41102 12.6829 8.41499 12.6246 8.13016V3.22716C12.6246 3.19007 12.6114 3.15827 12.5888 3.13575C12.5663 3.11323 12.5345 3.09866 12.4974 3.09866H11.2389V8.13149C11.1713 8.38585 10.5977 8.42427 10.4692 8.13149V5.41304H0.765185ZM0.765185 4.70429H10.4692V0.8982C10.4692 0.861106 10.4559 0.829311 10.4321 0.80679C10.4096 0.784269 10.3778 0.769696 10.3407 0.769696H0.892364C0.85527 0.769696 0.823476 0.782944 0.800954 0.80679C0.778433 0.829311 0.765185 0.861106 0.765185 0.8982V4.70429ZM5.1608 2.85357H5.7861C5.81922 2.85357 5.84174 2.87609 5.84174 2.90921V4.29493C5.84174 4.32805 5.81922 4.35057 5.7861 4.35057H5.1608C5.12768 4.35057 5.10516 4.32805 5.10516 4.29493V2.90921C5.10516 2.88802 5.12768 2.85357 5.1608 2.85357ZM8.24224 2.85357H8.86753C8.90065 2.85357 8.92317 2.87609 8.92317 2.90921V4.29493C8.92317 4.32805 8.90065 4.35057 8.86753 4.35057H8.24224C8.20912 4.35057 8.18659 4.32805 8.18659 4.29493V2.90921C8.18659 2.88802 8.20912 2.85357 8.24224 2.85357ZM6.70152 1.68114H7.32681C7.36126 1.68114 7.38245 1.70366 7.38245 1.73678V4.30553C7.38245 4.33865 7.35993 4.36117 7.32681 4.36117H6.70152C6.6684 4.36117 6.64588 4.33865 6.64588 4.30553V1.73678C6.64588 1.70366 6.6684 1.68114 6.70152 1.68114ZM2.08069 2.10507H2.70599C2.73911 2.10507 2.76163 2.12759 2.76163 2.16071V4.30553C2.76163 4.33865 2.73911 4.36117 2.70599 4.36117H2.08069C2.04757 4.36117 2.02505 4.33865 2.02505 4.30553V2.16204C2.01445 2.12759 2.04757 2.10507 2.08069 2.10507ZM3.62008 1.68114H4.24538C4.2785 1.68114 4.30102 1.70366 4.30102 1.73678V4.30553C4.30102 4.33865 4.2785 4.36117 4.24538 4.36117H3.62008C3.58696 4.36117 3.56444 4.33865 3.56444 4.30553V1.73678C3.56444 1.70366 3.58696 1.68114 3.62008 1.68114ZM5.65494 8.89986L7.39703 8.93033C7.39703 9.55563 7.08968 10.1293 6.57699 10.4777L5.65494 8.89986ZM5.55956 8.3673L5.53969 6.33774V6.20394L5.67349 6.21454C5.83776 6.22513 6.00204 6.2556 6.15571 6.29667C6.30938 6.33774 6.45246 6.39868 6.59686 6.47022C7.30429 6.83983 7.79579 7.57773 7.83685 8.41764L7.84745 8.55144H7.71365L5.69469 8.4905H5.58208L5.55956 8.3673ZM5.78477 6.45962L5.80464 8.2441L7.57852 8.29576C7.50698 7.59893 7.07643 6.99351 6.4816 6.67688C6.3584 6.61462 6.22592 6.56295 6.09212 6.52188C5.97951 6.50069 5.88678 6.48082 5.78477 6.45962ZM5.07072 8.71837L6.06562 10.4406C5.75828 10.6154 5.42046 10.7069 5.07072 10.7069C3.9738 10.7069 3.08222 9.81528 3.08222 8.71704C3.08222 7.6506 3.92346 6.76962 4.98858 6.72855L5.07072 8.71837ZM12.4378 10.7903C12.0285 10.381 11.4628 10.1266 10.8375 10.1266C10.2135 10.1266 9.6465 10.381 9.23715 10.7903C8.82779 11.1997 8.57343 11.7654 8.57343 12.3907C8.57343 13.0146 8.82779 13.5816 9.23715 13.991C9.6465 14.4003 10.2122 14.6547 10.8375 14.6547C11.4614 14.6547 12.0285 14.4003 12.4378 13.991C12.8472 13.5816 13.1015 13.0146 13.1015 12.3907C13.1015 11.7667 12.8472 11.1997 12.4378 10.7903Z" fill="black"/>
</g>
<defs>
<clipPath id="clip0_717_9">
<rect width="14.66" height="16.2789" fill="white"/>
</clipPath>
</defs>
</svg>
