<svg width="15" height="12" viewBox="0 0 15 12" fill="none" xmlns="http://www.w3.org/2000/svg">
<g clip-path="url(#clip0_299_121)">
<path d="M1.34277 2.83581H4.4519L7.10083 0.124167C7.1794 0.0453855 7.2853 0.0012207 7.39563 0.0012207C7.50596 0.0012207 7.61186 0.0453855 7.69043 0.124167C7.72964 0.163809 7.76065 0.211041 7.78161 0.263074C7.80258 0.315107 7.81308 0.370886 7.8125 0.427116V11.5717C7.81219 11.6568 7.78698 11.74 7.74009 11.8106C7.69321 11.8812 7.62675 11.936 7.54916 11.968C7.47158 12.0001 7.38637 12.008 7.30437 11.9907C7.22236 11.9734 7.14727 11.9317 7.08862 11.8709L4.47388 9.62111H1.34277C0.986648 9.62111 0.645108 9.47722 0.393289 9.22109C0.14147 8.96497 0 8.61758 0 8.25536L0 4.20032C0 3.8381 0.14147 3.49071 0.393289 3.23458C0.645108 2.97846 0.986648 2.83457 1.34277 2.83457V2.83581ZM9.29199 4.6982C9.27103 4.64729 9.26066 4.59253 9.26153 4.53735C9.2624 4.48217 9.27449 4.42777 9.29704 4.37757C9.3196 4.32738 9.35212 4.28248 9.39257 4.2457C9.43303 4.20891 9.48053 4.18105 9.53208 4.16386C9.58364 4.14666 9.63814 4.14051 9.69215 4.14579C9.74616 4.15107 9.79851 4.16767 9.84591 4.19454C9.8933 4.22141 9.93471 4.25796 9.96754 4.30191C10.0004 4.34585 10.0239 4.39623 10.0366 4.44988C10.1835 4.98575 10.2478 5.54156 10.2271 6.09747C10.2161 6.68847 10.1318 7.26954 9.96704 7.61346C9.94584 7.66315 9.91496 7.70796 9.87627 7.74518C9.83758 7.7824 9.79188 7.81126 9.74192 7.83002C9.69196 7.84879 9.63878 7.85706 9.58559 7.85435C9.5324 7.85163 9.4803 7.83799 9.43244 7.81424C9.38458 7.79048 9.34194 7.75711 9.30711 7.71614C9.27227 7.67517 9.24595 7.62744 9.22975 7.57585C9.21354 7.52425 9.20778 7.46984 9.21282 7.41592C9.21785 7.36199 9.23357 7.30966 9.25903 7.26209C9.37256 7.0237 9.43359 6.56804 9.44214 6.08506C9.46094 5.61977 9.41031 5.15427 9.29199 4.7044V4.6982ZM11.3232 3.20828C11.2831 3.1095 11.2832 2.99854 11.3235 2.89981C11.3638 2.80108 11.441 2.72268 11.5381 2.68185C11.6352 2.64102 11.7443 2.6411 11.8414 2.68208C11.9384 2.72306 12.0155 2.80158 12.0557 2.90037C12.4219 3.79183 12.6184 4.91548 12.6355 6.03167C12.6526 7.14786 12.4927 8.23177 12.1472 9.10709C12.128 9.15601 12.0995 9.20059 12.0633 9.23829C12.0271 9.276 11.984 9.30609 11.9364 9.32684C11.8888 9.34759 11.8376 9.3586 11.7858 9.35924C11.734 9.35989 11.6826 9.35015 11.6345 9.33058C11.5864 9.31102 11.5426 9.28201 11.5055 9.24521C11.4685 9.20842 11.4389 9.16456 11.4185 9.11613C11.3981 9.06771 11.3872 9.01567 11.3866 8.96299C11.386 8.91032 11.3956 8.85803 11.4148 8.80911C11.7188 8.02567 11.8591 7.03488 11.8408 6.03415C11.8225 5.03343 11.6479 4.0029 11.3184 3.20208L11.3232 3.20828ZM13.2874 1.93813C13.2649 1.89085 13.2518 1.83953 13.2489 1.78711C13.246 1.73469 13.2532 1.6822 13.2702 1.63262C13.2872 1.58305 13.3136 1.53736 13.348 1.49818C13.3824 1.45899 13.424 1.42708 13.4705 1.40425C13.5169 1.38142 13.5674 1.36813 13.6189 1.36514C13.6705 1.36214 13.7221 1.3695 13.7708 1.3868C13.8693 1.42172 13.95 1.49499 13.9954 1.59049C14.6501 3.00628 14.9934 4.55028 15.0012 6.11485C15.0122 7.63208 14.7119 9.1431 14.0576 10.4319C14.0091 10.5262 13.9256 10.5971 13.8257 10.6289C13.7258 10.6606 13.6175 10.6507 13.5248 10.6014C13.432 10.552 13.3624 10.4671 13.3311 10.3655C13.2999 10.2638 13.3096 10.1537 13.3582 10.0594C13.9539 8.88857 14.2261 7.50668 14.2126 6.11485C14.2065 4.66847 13.8899 3.2409 13.2849 1.93193L13.2874 1.93813ZM4.62524 3.69251H1.34277C1.21035 3.69283 1.08342 3.7464 0.98966 3.84153C0.895905 3.93665 0.842929 4.06563 0.842285 4.20032V8.25784C0.842929 8.39254 0.895905 8.52151 0.98966 8.61664C1.08342 8.71176 1.21035 8.76533 1.34277 8.76566H4.62646C4.62646 8.76566 4.87061 8.85133 4.89624 8.86871L6.97754 10.6529V1.46509L4.94629 3.54227C4.90662 3.58941 4.85738 3.62725 4.80196 3.65318C4.74654 3.67912 4.68625 3.69253 4.62524 3.69251Z" fill="white"/>
</g>
<defs>
<clipPath id="clip0_299_121">
<rect width="15" height="12" fill="white"/>
</clipPath>
</defs>
</svg>
