<svg width="15" height="17" viewBox="0 0 15 17" fill="none" xmlns="http://www.w3.org/2000/svg">
<g clip-path="url(#clip0_717_12)">
<path fill-rule="evenodd" clip-rule="evenodd" d="M8.53675 9.49359H13.5891C13.914 9.49359 14.2256 9.62265 14.4553 9.85238C14.685 10.0821 14.8141 10.3937 14.8141 10.7186V15.5028C14.8141 15.8277 14.685 16.1393 14.4553 16.369C14.2256 16.5987 13.914 16.7278 13.5891 16.7278H8.53675C8.21187 16.7278 7.90029 16.5987 7.67056 16.369C7.44083 16.1393 7.31177 15.8277 7.31177 15.5028V10.7145C7.31177 10.3896 7.44083 10.078 7.67056 9.8483C7.90029 9.61857 8.21187 9.48951 8.53675 9.48951V9.49359ZM11.4958 3.83691C11.5848 3.86219 11.6633 3.91562 11.7195 3.98922C11.7757 4.06283 11.8066 4.15264 11.8074 4.24524V4.96525H12.8759C12.9991 4.96426 13.1213 4.98782 13.2354 5.03456C13.3494 5.08129 13.453 5.15027 13.5401 5.23747C13.7151 5.41418 13.813 5.65299 13.8123 5.90168V8.19511H12.9957V5.90985C12.9959 5.87433 12.9822 5.84014 12.9576 5.81457C12.9317 5.78959 12.8969 5.77589 12.8609 5.77646H11.8074V8.19375H10.9486V4.76381H7.37846C7.32135 4.76453 7.26466 4.7539 7.21168 4.73254C7.1587 4.71118 7.11049 4.67952 7.06985 4.63938C7.0292 4.59924 6.99693 4.55143 6.97491 4.49873C6.95289 4.44602 6.94155 4.38947 6.94155 4.33235V0.856126H0.860213V13.8518H5.95613V14.7106H2.22811V15.7886C2.22789 15.8241 2.24157 15.8583 2.26622 15.8839C2.29179 15.9085 2.32598 15.9222 2.36149 15.922H5.95341V16.7291H2.36694C2.11825 16.7263 1.88052 16.6264 1.70453 16.4506C1.52854 16.2749 1.42825 16.0373 1.42506 15.7886V14.7161H0.770381C0.566321 14.7163 0.370518 14.6355 0.225946 14.4915C0.154027 14.4203 0.0970077 14.3355 0.0582156 14.242C0.0194236 14.1485 -0.000364767 14.0483 5.09043e-06 13.9471V0.769016C4.93208e-06 0.667913 0.0199411 0.567802 0.0586728 0.474412C0.0974045 0.381022 0.154171 0.296186 0.225725 0.224759C0.297279 0.153331 0.382215 0.0967144 0.475674 0.0581479C0.569132 0.0195814 0.669278 -0.000177739 0.770381 1.20461e-06H7.37846C7.4417 -0.000139259 7.50416 0.0139838 7.56119 0.0413195C7.61822 0.0686551 7.66835 0.108499 7.70785 0.157887L11.4958 3.83283V3.83691ZM2.72218 7.02594C2.68506 7.02681 2.64849 7.03508 2.61461 7.05026C2.58072 7.06545 2.55021 7.08724 2.52486 7.11437C2.49951 7.14149 2.47982 7.17341 2.46696 7.20824C2.4541 7.24307 2.44832 7.28012 2.44996 7.31721C2.44754 7.35442 2.45279 7.39173 2.46538 7.42683C2.47797 7.46192 2.49763 7.49406 2.52316 7.52124C2.54868 7.54842 2.57952 7.57007 2.61375 7.58485C2.64799 7.59962 2.68489 7.6072 2.72218 7.60712H7.75821C7.79521 7.60625 7.83166 7.59802 7.86545 7.58292C7.89924 7.56782 7.92969 7.54615 7.95503 7.51917C7.98036 7.49219 8.00007 7.46044 8.01302 7.42577C8.02596 7.39109 8.03188 7.35419 8.03043 7.31721C8.03304 7.27989 8.02794 7.24244 8.01544 7.20718C8.00294 7.17192 7.9833 7.13962 7.95776 7.11228C7.93221 7.08495 7.90131 7.06318 7.86698 7.04832C7.83264 7.03347 7.79562 7.02585 7.75821 7.02594H2.72218ZM2.72218 9.10432C2.68583 9.10536 2.65005 9.11366 2.61697 9.12875C2.58388 9.14385 2.55415 9.16541 2.52954 9.19218C2.50493 9.21895 2.48593 9.25038 2.47366 9.28462C2.4614 9.31886 2.45612 9.3552 2.45813 9.39151C2.45535 9.42826 2.46007 9.46519 2.47199 9.50006C2.4839 9.53494 2.50278 9.56703 2.52747 9.59439C2.55216 9.62175 2.58215 9.64382 2.61562 9.65924C2.64909 9.67467 2.68534 9.68314 2.72218 9.68414H5.94796V9.10432H2.72218ZM2.72218 11.1813C2.68582 11.1827 2.6501 11.1914 2.61714 11.2068C2.58418 11.2222 2.55465 11.2441 2.53029 11.2711C2.50592 11.2981 2.48723 11.3298 2.4753 11.3641C2.46337 11.3985 2.45846 11.4349 2.46085 11.4713C2.45846 11.5076 2.46337 11.544 2.4753 11.5784C2.48723 11.6127 2.50592 11.6444 2.53029 11.6714C2.55465 11.6984 2.58418 11.7203 2.61714 11.7357C2.6501 11.7511 2.68582 11.7598 2.72218 11.7612H5.94796V11.1813H2.72218ZM2.72218 4.94892C2.68489 4.94884 2.64799 4.95642 2.61375 4.97119C2.57952 4.98597 2.54868 5.00762 2.52316 5.0348C2.49763 5.06198 2.47797 5.09412 2.46538 5.12922C2.45279 5.16431 2.44754 5.20162 2.44996 5.23883C2.44754 5.27604 2.45279 5.31335 2.46538 5.34844C2.47797 5.38354 2.49763 5.41568 2.52316 5.44286C2.54868 5.47004 2.57952 5.49169 2.61375 5.50647C2.64799 5.52124 2.68489 5.52882 2.72218 5.52874H5.7016C5.73785 5.52719 5.77342 5.51841 5.80622 5.50291C5.83902 5.48741 5.86839 5.46552 5.89261 5.43851C5.91683 5.4115 5.93541 5.37992 5.94725 5.34563C5.95909 5.31134 5.96396 5.27503 5.96157 5.23883C5.96396 5.20263 5.95909 5.16632 5.94725 5.13203C5.93541 5.09774 5.91683 5.06616 5.89261 5.03915C5.86839 5.01214 5.83902 4.99025 5.80622 4.97475C5.77342 4.95925 5.73785 4.95047 5.7016 4.94892H2.72218ZM2.72218 2.8719C2.68582 2.87327 2.6501 2.88193 2.61714 2.89734C2.58418 2.91276 2.55465 2.93463 2.53029 2.96166C2.50592 2.98869 2.48723 3.02032 2.4753 3.0547C2.46337 3.08908 2.45846 3.1255 2.46085 3.16181C2.45846 3.19812 2.46337 3.23454 2.4753 3.26892C2.48723 3.30329 2.50592 3.33493 2.53029 3.36196C2.55465 3.38899 2.58418 3.41086 2.61714 3.42627C2.6501 3.44169 2.68582 3.45034 2.72218 3.45172H4.35549C4.39173 3.45017 4.4273 3.44139 4.4601 3.42589C4.4929 3.41039 4.52228 3.3885 4.5465 3.36149C4.57072 3.33448 4.58929 3.3029 4.60114 3.26861C4.61298 3.23432 4.61785 3.19801 4.61546 3.16181C4.61785 3.12561 4.61298 3.0893 4.60114 3.05501C4.58929 3.02072 4.57072 2.98914 4.5465 2.96213C4.52228 2.93512 4.4929 2.91322 4.4601 2.89773C4.4273 2.88223 4.39173 2.87345 4.35549 2.8719H2.72218ZM7.80857 1.51081L10.3769 3.90496H7.80585V1.50536L7.80857 1.51081ZM10.1769 13.1726C10.0979 13.0501 9.95364 12.8827 9.95364 12.7371C9.95424 12.6898 9.96931 12.6439 9.9968 12.6054C10.0243 12.567 10.0629 12.5379 10.1074 12.522C10.1006 12.3995 10.0952 12.2743 10.0952 12.1504C10.0952 12.0783 10.0952 12.0048 10.0952 11.9327C10.0979 11.8865 10.1062 11.8408 10.1197 11.7966C10.1765 11.6111 10.3002 11.4535 10.4668 11.3542C10.5268 11.3182 10.5902 11.2882 10.656 11.2644C10.7771 11.2208 10.7172 11.0194 10.8479 11.0167C11.1541 11.0085 11.6645 11.2889 11.8537 11.5026C11.9794 11.6407 12.0509 11.8195 12.0552 12.0062L12.0429 12.5424C12.0718 12.5486 12.0986 12.5619 12.121 12.5812C12.1434 12.6004 12.1605 12.625 12.1709 12.6527C12.213 12.8215 12.0347 13.0324 11.9558 13.1672C11.8769 13.3019 11.5924 13.6939 11.5924 13.6966C11.5937 13.7194 11.6029 13.741 11.6183 13.7579C12.0647 14.3731 13.3781 13.9852 13.3781 15.2074H8.74227C8.74227 13.9825 10.0557 14.3731 10.5022 13.7592C10.5239 13.7266 10.5348 13.7089 10.5335 13.6953C10.5321 13.6817 10.2082 13.2162 10.1741 13.1685L10.1769 13.1726Z" fill="black"/>
</g>
<defs>
<clipPath id="clip0_717_12">
<rect width="14.81" height="16.7251" fill="white"/>
</clipPath>
</defs>
</svg>
