<svg width="15" height="18" viewBox="0 0 15 18" fill="none" xmlns="http://www.w3.org/2000/svg">
<g clip-path="url(#clip0_297_818)">
<path fill-rule="evenodd" clip-rule="evenodd" d="M0.997995 1.87757H3.39092V3.41566H2.35896C1.898 3.41566 1.51627 3.7956 1.51627 4.25365V15.7425C1.51627 16.2012 1.89587 16.5805 2.35896 16.5805H12.641C13.1041 16.5805 13.4837 16.2023 13.4837 15.7425V4.25365C13.4837 3.79349 13.102 3.41566 12.641 3.41566H11.6091V1.87757H14.002C14.5511 1.87757 15 2.32683 15 2.87001V17.0076C15 17.5515 14.5489 18 14.002 18H0.997995C0.451061 18 0 17.5536 0 17.0076V2.87001C0 2.32401 0.448939 1.87757 0.997995 1.87757ZM7.5 13.3492H3.93573C3.87771 13.3492 3.83031 13.3024 3.83031 13.2443C3.83031 13.2144 3.83455 13.1852 3.84198 13.1557C4.01073 11.8252 4.70236 11.8016 5.4467 11.6084C5.66922 11.5504 6.075 11.4276 6.31132 11.2218C6.4408 11.1082 6.52005 10.9696 6.48856 10.8025C6.30849 10.6368 6.17052 10.4577 6.13903 10.1157L6.11781 10.1161C6.06757 10.1154 6.01946 10.1041 5.97453 10.0788C5.87547 10.0229 5.82099 9.91522 5.79481 9.79244C5.76156 9.63729 5.77252 9.4533 5.7888 9.3365L5.79481 9.31398C5.82948 9.21794 5.87229 9.16588 5.92677 9.14336L5.92818 9.14266C5.90342 8.68074 5.98196 7.94899 5.50472 7.80545C6.44646 6.64802 7.53255 6.01865 8.34764 7.04802C9.25613 7.09551 9.6612 8.42709 9.09729 9.14336H9.07323C9.12771 9.16588 9.17052 9.21794 9.20519 9.31398L9.2112 9.3365C9.22748 9.4533 9.23844 9.63729 9.20519 9.79244C9.17901 9.91522 9.12453 10.0229 9.02547 10.0788C8.98054 10.1041 8.93243 10.1154 8.88219 10.1161L8.86097 10.1157C8.82948 10.4577 8.69151 10.6368 8.51144 10.8025C8.47995 10.9696 8.5592 11.1082 8.68868 11.2218C8.925 11.4276 9.33078 11.5504 9.5533 11.6084C10.2976 11.8016 10.9893 11.8252 11.158 13.1557C11.1654 13.1852 11.1697 13.2144 11.1697 13.2443C11.1697 13.3024 11.1223 13.3492 11.0643 13.3492H7.5ZM4.77347 1.3861H5.90448C6 0.604398 6.63432 0 7.40377 0C8.16792 0 8.79906 0.596306 8.9013 1.36957L10.2251 1.3861C10.3178 1.3861 10.3917 1.45963 10.3917 1.55145V3.79736C10.3917 3.88883 10.3178 3.96271 10.2251 3.96271H4.77488C4.68432 3.96271 4.60861 3.88883 4.60861 3.79736V1.55145C4.60684 1.45963 4.68113 1.3861 4.77347 1.3861ZM6.78432 2.06614C6.88656 2.20545 7.03302 2.34266 7.18797 2.41337C7.31462 2.45101 7.45295 2.45453 7.58172 2.4197C7.78266 2.32788 7.96733 2.10695 8.05259 1.9219C8.06285 1.86948 8.06958 1.8153 8.06958 1.7562C8.06958 1.36464 7.76781 1.04697 7.39528 1.04697C7.02311 1.04697 6.7217 1.36464 6.7217 1.7562C6.72347 1.87441 6.74469 1.97924 6.78432 2.06614Z" fill="white"/>
</g>
<defs>
<clipPath id="clip0_297_818">
<rect width="15" height="18" fill="white"/>
</clipPath>
</defs>
</svg>
