<svg width="25" height="25" viewBox="0 0 25 25" fill="none" xmlns="http://www.w3.org/2000/svg">
<g clipPath="url(#clip0_101_9)">
<path d="M12.4998 1.96717e-06C14.139 -0.000918576 15.7622 0.321247 17.2768 0.948081C20.3433 2.22342 22.779 4.66272 24.0497 7.73112L24.07 7.77995C25.3168 10.8278 25.3095 14.2447 24.0497 17.2872C22.7814 20.3471 20.3501 22.7782 17.2901 24.0463C14.2301 25.3144 10.7919 25.3157 7.73093 24.0499C6.20892 23.4233 4.82601 22.5015 3.66192 21.3379C2.4997 20.1769 1.57748 18.7984 0.947889 17.2811L0.929578 17.2323C-0.314216 14.1861 -0.307638 10.7725 0.947889 7.73112C1.57546 6.20912 2.49783 4.82625 3.66192 3.66211C4.82291 2.49989 6.2014 1.57767 7.71872 0.948081L7.76755 0.929771C9.26953 0.315152 10.8769 -0.000665344 12.4998 1.96717e-06ZM9.92413 16.2537C9.82631 16.1497 9.73525 16.0396 9.6515 15.9241C9.12253 15.1998 8.64849 14.3819 8.17242 13.619C7.82655 13.1104 7.64548 12.6567 7.64548 12.2925C7.64548 11.9283 7.84893 11.4522 8.25583 11.3485C8.1974 10.5544 8.18517 9.75753 8.21921 8.962C8.24204 8.75938 8.28289 8.55921 8.34128 8.36385C8.59342 7.541 9.14328 6.84171 9.88344 6.40259C10.145 6.23425 10.4257 6.09765 10.7196 5.99569C11.2466 5.79224 10.9922 4.99675 11.5721 4.97844C12.9271 4.94995 15.1609 6.10352 16.0317 7.05567C16.5887 7.66989 16.9052 8.46463 16.9228 9.29362L16.8679 11.4441C16.9864 11.4737 17.0946 11.5349 17.181 11.6213C17.2674 11.7077 17.3286 11.8159 17.3582 11.9344C17.4315 12.2253 17.3582 12.6241 17.1039 13.1877C17.1039 13.206 17.0856 13.206 17.0856 13.2243C16.5261 14.1459 15.9422 15.214 15.2993 16.0726C14.9758 16.5039 14.7093 16.4286 14.986 16.8416C16.2982 18.6462 18.8882 18.396 20.4791 19.5984C21.8019 18.1042 22.681 16.2703 23.0175 14.3033C23.3539 12.3363 23.1343 10.3145 22.3834 8.46558L22.3651 8.42489C21.8286 7.12604 21.0419 5.94534 20.0499 4.94995C18.5603 3.4641 16.6661 2.44998 14.6037 2.03424C12.5412 1.6185 10.402 1.81956 8.45318 2.61231L8.41045 2.63062C7.11664 3.16946 5.94145 3.95753 4.95179 4.94995C3.46594 6.43948 2.45182 8.33373 2.03608 10.3962C1.62034 12.4586 1.8214 14.5978 2.61415 16.5466L2.63246 16.5894C3.08871 17.6879 3.72472 18.7027 4.51438 19.5923C6.11146 18.3899 8.70139 18.6401 10.0075 16.8355C10.2354 16.4937 10.1764 16.5263 9.91802 16.2537H9.92413Z" fill="#939393"/>
</g>
<defs>
<clipPath id="clip0_101_9">
<rect width="25" height="25" fill="white"/>
</clipPath>
</defs>
</svg>
