<svg width="13" height="13" viewBox="0 0 13 13" fill="none" xmlns="http://www.w3.org/2000/svg">
<g clipPath="url(#clip0_281_649)">
<path fill-rule="evenodd" clip-rule="evenodd" d="M13 12.1175C12.7545 8.75594 11.6454 9.61299 9.12234 7.94269C8.34311 9.66296 5.17613 9.78789 4.52664 7.94269C4.23643 8.13881 3.95561 8.29169 3.68647 8.4185C3.81012 8.5128 3.92666 8.61731 4.03406 8.73096C4.54314 9.26964 4.85799 10.0136 4.85799 10.8352C4.85799 11.2943 4.75973 11.7293 4.58428 12.1175H13ZM0.675391 9.36179C0.713731 9.32095 0.758925 9.30107 0.810977 9.30107C0.862774 9.30107 0.908731 9.32095 0.946308 9.36179L1.15273 9.57941C1.26445 9.50284 1.38887 9.44561 1.51506 9.40182V9.06679C1.51506 9.01037 1.53309 8.96282 1.57016 8.92332C1.60723 8.88383 1.65217 8.86475 1.70574 8.86475H2.10311C2.15363 8.86475 2.19807 8.88383 2.23666 8.92332C2.27424 8.96282 2.29328 9.01037 2.29328 9.06679V9.37334C2.42255 9.4054 2.54716 9.45573 2.66373 9.52299L2.8925 9.28441C2.9283 9.24465 2.97172 9.22396 3.02453 9.22396C3.07684 9.22396 3.12178 9.24438 3.16012 9.28441L3.43814 9.57941C3.47648 9.61998 3.49553 9.66753 3.49553 9.72261C3.49553 9.77795 3.47648 9.82604 3.43814 9.86634L3.23248 10.0848C3.30484 10.2035 3.35816 10.3338 3.40031 10.4679H3.71693C3.77025 10.4679 3.8152 10.487 3.85227 10.5262C3.88934 10.5657 3.90787 10.6132 3.90787 10.6699V11.0901C3.90787 11.1439 3.88934 11.1906 3.85227 11.2314C3.8152 11.2715 3.77025 11.2914 3.71693 11.2914H3.42723C3.396 11.4305 3.34801 11.5608 3.2858 11.6876L3.51127 11.9251C3.54885 11.963 3.5684 12.0095 3.5684 12.0651C3.5684 12.1202 3.54885 12.168 3.51127 12.2086L3.23248 12.5071C3.19414 12.545 3.14895 12.5635 3.09689 12.5635C3.04484 12.5635 2.99914 12.545 2.96156 12.5071L2.75488 12.2852C2.64393 12.3612 2.51824 12.4192 2.39281 12.4627V12.798C2.39281 12.8545 2.37479 12.902 2.33772 12.9412C2.30064 12.9805 2.25545 12.9998 2.20213 12.9998H1.80477C1.75373 12.9998 1.7098 12.9805 1.67121 12.9412C1.63338 12.902 1.61459 12.8545 1.61459 12.798V12.4912C1.48357 12.4584 1.35941 12.4074 1.24008 12.3416L1.01562 12.5802C0.97957 12.6199 0.93539 12.6409 0.881817 12.6409C0.827989 12.6409 0.783555 12.6199 0.747754 12.5802L0.465664 12.2852C0.429863 12.2443 0.41209 12.1968 0.41209 12.1417C0.41209 12.0866 0.429863 12.0385 0.465664 11.9985L0.675391 11.7801C0.603281 11.6621 0.549199 11.5299 0.507559 11.3967H0.190683C0.137363 11.3967 0.0924215 11.3773 0.0553513 11.3381C0.018281 11.2989 0 11.2513 0 11.1949V10.7744C0 10.7207 0.018281 10.674 0.0553513 10.6331C0.0924215 10.5931 0.137363 10.5732 0.190683 10.5732H0.480644C0.512129 10.4375 0.559101 10.3037 0.62207 10.181L0.396602 9.93915C0.359023 9.90127 0.339218 9.85506 0.339218 9.79918C0.339218 9.7441 0.358769 9.69682 0.396602 9.65598L0.675391 9.36179ZM1.95406 10.1181C1.84844 10.1181 1.74891 10.1396 1.6542 10.1818C1.56 10.2247 1.47824 10.2822 1.40867 10.3553C1.33986 10.4289 1.28527 10.5157 1.2449 10.6149C1.20504 10.7151 1.18473 10.8204 1.18473 10.9321C1.18473 11.0439 1.20504 11.1495 1.2449 11.2497C1.28527 11.3491 1.33986 11.4356 1.40867 11.5092C1.4785 11.5821 1.56 11.6401 1.6542 11.6828C1.74891 11.7253 1.84844 11.7462 1.95406 11.7462C2.05969 11.7462 2.15947 11.7253 2.25418 11.6828C2.34787 11.6401 2.42988 11.5821 2.4992 11.5092C2.56826 11.4356 2.62285 11.3491 2.66348 11.2497C2.70334 11.1495 2.7234 11.0439 2.7234 10.9321C2.7234 10.8204 2.70334 10.7151 2.66348 10.6149C2.62285 10.5154 2.56826 10.4289 2.4992 10.3553C2.42988 10.2822 2.34787 10.2247 2.25418 10.1818C2.15947 10.1396 2.05969 10.1181 1.95406 10.1181ZM8.5277 7.80674C8.56121 7.7608 8.43984 7.44377 8.4109 7.39273C8.74047 7.08242 9.00098 6.76915 9.05658 6.12489L9.09188 6.12542C9.17363 6.12435 9.25234 6.10447 9.32598 6.06014C9.44404 5.98894 9.52682 5.86696 9.58293 5.72968C9.70176 5.44113 10.0928 4.48333 9.49711 4.55909C9.82998 3.90086 9.07639 2.77649 10.3764 2.36059C9.30973 0.931012 7.0591 -1.27313 5.40973 0.937997C3.60445 1.12311 3.04129 3.39335 4.25699 4.63674C4.1859 4.63942 4.11861 4.65689 4.0592 4.69047C3.83322 4.81836 3.82586 5.09643 3.88527 5.32963C3.94393 5.52441 4.01883 5.65633 4.08891 5.84628C4.17473 6.10259 4.29965 6.15041 4.54137 6.12274C4.55381 6.75652 4.83057 7.06791 5.2033 7.44028L5.10148 7.80567C5.60092 8.92735 7.6766 8.97249 8.5277 7.80674Z" fill="#939393"/>
</g>
<defs>
<clipPath id="clip0_281_649">
<rect width="13" height="13" fill="white" transform="matrix(-1 0 0 1 13 0)"/>
</clipPath>
</defs>
</svg>
