<svg width="16" height="15" viewBox="0 0 16 15" fill="none" xmlns="http://www.w3.org/2000/svg">
<g clip-path="url(#clip0_99_2)">
<path fill-rule="evenodd" clip-rule="evenodd" d="M5.10982 9.1559L6.24448 12.494L6.81568 10.5128L6.53525 10.2066C6.4086 10.0231 6.38146 9.86151 6.45125 9.72323C6.60245 9.42341 6.91648 9.47898 7.20984 9.47898C7.51741 9.47898 7.89606 9.42083 7.99169 9.80465C8.024 9.93259 7.98394 10.0683 7.89348 10.2066L7.61304 10.5128L8.18425 12.494L9.21164 9.1559C9.43134 9.35363 9.78026 9.50483 10.1835 9.63148C10.2442 9.55911 10.3088 9.48803 10.376 9.42083C10.9589 8.83799 11.7653 8.47614 12.6557 8.47614C13.5461 8.47614 14.3512 8.8367 14.9353 9.42083C15.5182 10.0037 15.88 10.8101 15.88 11.7005C15.88 12.5909 15.5194 13.396 14.9353 13.9801C14.3525 14.563 13.5461 14.9248 12.6557 14.9248C11.9811 14.9248 11.3543 14.7167 10.8361 14.3627H7.21501H0.784437C0.292064 14.3252 0.0413542 14.0706 0 13.6299C0.125355 12.7809 0.160247 11.6708 0.677175 10.9871C0.864561 10.739 1.09847 10.5555 1.35693 10.412C2.17368 9.95585 4.36803 9.82274 5.10982 9.1559ZM12.1736 9.82016H13.1377C13.201 9.82016 13.2527 9.87185 13.2527 9.93517V11.1034H14.421C14.4843 11.1034 14.536 11.1551 14.536 11.2184V12.1825C14.536 12.2458 14.4843 12.2975 14.421 12.2975H13.2527V13.4658C13.2527 13.5291 13.201 13.5808 13.1377 13.5808H12.1736C12.1103 13.5808 12.0586 13.5291 12.0586 13.4658V12.2975H10.8904C10.827 12.2975 10.7753 12.2458 10.7753 12.1825V11.2184C10.7753 11.1551 10.827 11.1034 10.8904 11.1034H12.0586V9.93517C12.0599 9.87185 12.1116 9.82016 12.1736 9.82016ZM14.598 9.75942C14.1018 9.26317 13.4156 8.9556 12.657 8.9556C11.8984 8.9556 11.2121 9.26317 10.7159 9.75942C10.2196 10.2557 9.91208 10.9419 9.91208 11.7005C9.91208 12.4591 10.2196 13.1453 10.7159 13.6415C11.2121 14.1378 11.8984 14.4454 12.657 14.4454C13.4156 14.4454 14.1018 14.1378 14.598 13.6415C15.0943 13.1453 15.4018 12.4591 15.4018 11.7005C15.4018 10.9419 15.0943 10.2557 14.598 9.75942ZM4.56447 4.38208C4.65234 4.40664 4.74281 4.40922 4.83715 4.38984L4.67561 3.10915C4.75831 2.79253 4.88496 2.5457 5.05296 2.36477C5.22872 2.1761 5.44841 2.05849 5.71075 2.00809C6.05839 1.98354 6.16306 2.23683 6.5107 2.45911C7.56781 3.135 8.4621 3.36244 9.76863 3.37924L9.60709 4.19599C9.58512 4.22959 9.57349 4.27094 9.57737 4.31359C9.57737 4.32005 9.57866 4.32651 9.57995 4.33427L9.55669 4.45057C9.59287 4.45316 9.62777 4.45445 9.66266 4.45316C9.69497 4.47254 9.73374 4.48288 9.77509 4.47901C10.0025 4.45833 10.1408 4.47901 10.1783 4.55525C10.23 4.65864 10.186 4.86929 10.0374 5.20787L9.32278 6.38517C9.05656 6.82327 8.78776 7.26137 8.4453 7.58057C8.11705 7.88814 7.71255 8.09233 7.16073 8.09103C6.65027 8.08974 6.26516 7.89331 5.94595 7.60254C5.61512 7.30014 5.34761 6.88789 5.09432 6.48339L4.45979 5.47409L4.4572 5.47021C4.26206 5.17944 4.16126 4.92873 4.15609 4.73618C4.1548 4.67156 4.16385 4.6147 4.18582 4.56818C4.2052 4.52682 4.23493 4.49193 4.27628 4.4635C4.34477 4.41827 4.4404 4.39113 4.56447 4.38208ZM10.2067 4.14817L10.2468 2.50434C10.199 1.83622 9.97799 1.33092 9.62518 0.949686C8.76062 0.0140479 7.14523 -0.226323 5.92657 0.214357C5.72109 0.288019 5.52724 0.382358 5.3502 0.49479C4.84619 0.815285 4.4404 1.28052 4.27757 1.86077C4.2388 1.99776 4.21296 2.13474 4.19874 2.27173C4.1716 2.8481 4.18711 3.53561 4.22846 4.08226C4.1716 4.10423 4.11991 4.13008 4.07339 4.1611C3.97517 4.227 3.90151 4.31359 3.85369 4.41568C3.80846 4.5139 3.78778 4.62504 3.79166 4.74781C3.79941 5.00756 3.9196 5.32547 4.15222 5.67181L4.78675 6.67982C5.05426 7.1037 5.33469 7.53792 5.70171 7.87392C6.08165 8.22156 6.54559 8.45676 7.16202 8.45934C7.8224 8.46064 8.30443 8.21639 8.69601 7.85066C9.07336 7.49657 9.35767 7.0365 9.63552 6.57773L10.3579 5.38751C10.3618 5.38104 10.3657 5.37329 10.3683 5.36683C10.566 4.91839 10.6086 4.60565 10.5053 4.39888C10.4471 4.27094 10.3463 4.19082 10.2067 4.14817Z" fill="white"/>
</g>
<defs>
<clipPath id="clip0_99_2">
<rect width="15.88" height="14.9237" fill="white"/>
</clipPath>
</defs>
</svg>
