<svg width="15" height="14" viewBox="0 0 15 14" fill="none" xmlns="http://www.w3.org/2000/svg">
<g clip-path="url(#clip0_63_2325)">
<path fill-rule="evenodd" clip-rule="evenodd" d="M9.64966 9.93719C9.1034 10.5219 8.47363 11.0277 7.77954 11.4391C7.73651 11.4703 7.68463 11.4879 7.63093 11.4896C7.57723 11.4913 7.52428 11.477 7.47925 11.4485C6.49105 10.8424 5.6136 10.0811 4.88281 9.19573C3.92822 8.0421 3.3313 6.76291 3.12744 5.5311C2.91992 4.28152 3.11401 3.07932 3.75488 2.10216C4.01617 1.70707 4.3433 1.35684 4.7229 1.06579C5.62744 0.362232 6.65894 -0.00731117 7.69043 -0.000204575C8.73715 0.0169351 9.73911 0.414688 10.498 1.11435C10.7902 1.37415 11.043 1.67284 11.2488 2.00149C11.9373 3.10301 12.0862 4.50775 11.7834 5.93144C11.448 7.42595 10.7101 8.80739 9.64478 9.93482L9.64966 9.93719ZM3.09082 8.90555C3.15023 8.9025 3.20966 8.91123 3.26549 8.93119C3.32132 8.95115 3.37237 8.98194 3.41553 9.02167C3.4587 9.0614 3.49308 9.10924 3.51657 9.16228C3.54006 9.21531 3.55217 9.27244 3.55217 9.33017C3.55217 9.3879 3.54006 9.44502 3.51657 9.49806C3.49308 9.5511 3.4587 9.59894 3.41553 9.63867C3.37237 9.6784 3.32132 9.70918 3.26549 9.72914C3.20966 9.74911 3.15023 9.75783 3.09082 9.75479H2.26807L1.1853 13.147H13.7842L12.6086 9.75123H11.9287C11.8693 9.75428 11.8099 9.74555 11.754 9.72559C11.6982 9.70563 11.6472 9.67484 11.604 9.63511C11.5608 9.59538 11.5265 9.54754 11.503 9.49451C11.4795 9.44147 11.4674 9.38434 11.4674 9.32661C11.4674 9.26889 11.4795 9.21176 11.503 9.15872C11.5265 9.10569 11.5608 9.05784 11.604 9.01811C11.6472 8.97839 11.6982 8.9476 11.754 8.92764C11.8099 8.90767 11.8693 8.89895 11.9287 8.902H13.2349L15 13.9951H0L1.62598 8.902L3.09082 8.90555ZM7.49268 2.00623L4.8938 4.39878L5.50415 4.71147L7.47559 2.79032L9.47632 4.71147L10.0867 4.39878L7.49268 2.00623ZM5.72388 5.05259L7.49512 3.33397L9.26147 5.05259V6.73922H7.97119V5.55479H7.00317V6.73922H5.72388V5.05259Z" fill="#3B0532"/>
</g>
<defs>
<clipPath id="clip0_63_2325">
<rect width="15" height="14" fill="white"/>
</clipPath>
</defs>
</svg>
