<svg width="18" height="20" viewBox="0 0 18 20" fill="none" xmlns="http://www.w3.org/2000/svg">
<g clipPath="url(#clip0_476_240)">
<path fill-rule="evenodd" clip-rule="evenodd" d="M2.99321 0H17.4225V15.4433C17.3965 15.8748 16.8153 15.8846 16.1878 15.858H2.78063C1.91199 15.858 1.20176 16.5387 1.20176 17.3717C1.20176 18.2051 1.91199 18.8858 2.78063 18.8858H16.7648V17.2749H18V19.3224C18 19.6954 17.6824 20 17.2934 20H2.84172C0.917918 19.9859 0 19.3291 0 17.8302V2.87042C0 1.29149 1.34674 0 2.99321 0ZM7.3576 9.88128V9.46224C7.3576 8.97055 7.39833 8.57729 7.47774 8.28556C7.55796 7.99344 7.67932 7.75834 7.83937 7.57986C7.99697 7.40334 8.19204 7.24166 8.42213 7.09873C8.62127 6.97258 8.79882 6.85308 8.95643 6.73514C9.11443 6.61993 9.23701 6.49574 9.32905 6.3657C9.42109 6.2333 9.4671 6.08412 9.4671 5.91814C9.4671 5.76896 9.42964 5.63657 9.35511 5.52331C9.281 5.40967 9.18 5.32141 9.05294 5.25853C8.92385 5.19761 8.78376 5.16598 8.62819 5.16598C8.45919 5.16598 8.30403 5.20191 8.16353 5.27728C8.0214 5.3507 7.90738 5.4538 7.82186 5.58619C7.73634 5.71663 7.6948 5.86972 7.6948 6.04194H5.30471C5.30919 5.38663 5.46475 4.85316 5.7714 4.44349C6.07602 4.03148 6.48122 3.73116 6.98498 3.53784C7.48873 3.34453 8.04299 3.25002 8.6457 3.25002C9.31154 3.25002 9.90529 3.34258 10.4286 3.52964C10.9523 3.71632 11.364 3.99594 11.6666 4.36968C11.9667 4.74615 12.1178 5.21245 12.1178 5.77326C12.1178 6.1345 12.0543 6.45161 11.9248 6.72499C11.7957 6.99797 11.6161 7.23737 11.3885 7.44552C11.1604 7.65328 10.8933 7.84269 10.5886 8.01258C10.363 8.13637 10.1749 8.26681 10.0234 8.3992C9.87027 8.53159 9.75502 8.68234 9.67724 8.85105C9.59986 9.01859 9.56118 9.22284 9.56118 9.46224V9.88128H7.3576ZM8.49665 13.0946C8.13502 13.0946 7.82552 12.9735 7.56977 12.7314C7.31321 12.4885 7.1886 12.1913 7.1886 11.8425C7.1886 11.5024 7.31362 11.2103 7.56977 10.9685C7.82634 10.7272 8.13502 10.6073 8.49665 10.6073C8.83833 10.6073 9.14091 10.7272 9.40357 10.9685C9.66624 11.2103 9.8043 11.5024 9.8043 11.8425C9.8043 12.0737 9.7367 12.2858 9.61371 12.4752C9.49113 12.6642 9.33109 12.815 9.13643 12.9267C8.93891 13.0395 8.72674 13.0946 8.49665 13.0946ZM2.77615 17.6837H15.6193C15.7492 17.6837 15.8555 17.7861 15.8555 17.9103V18.0481C15.8555 18.1723 15.7492 18.2746 15.6193 18.2746H2.77615C2.64665 18.2746 2.54036 18.1727 2.54036 18.0481V17.9103C2.54036 17.7857 2.64624 17.6837 2.77615 17.6837ZM2.77615 16.5137H15.6193C15.7492 16.5137 15.8555 16.616 15.8555 16.7402V16.8781C15.8555 17.0023 15.7492 17.1046 15.6193 17.1046H2.77615C2.64665 17.1046 2.54036 17.0027 2.54036 16.8781V16.7402C2.54036 16.6156 2.64624 16.5137 2.77615 16.5137Z" fill="#191919"/>
</g>
<defs>
<clipPath id="clip0_476_240">
<rect width="18" height="20" fill="white"/>
</clipPath>
</defs>
</svg>
