<svg width="10" height="11" viewBox="0 0 10 11" fill="none" xmlns="http://www.w3.org/2000/svg">
<g clip-path="url(#clip0_64_225)">
<path fill-rule="evenodd" clip-rule="evenodd" d="M0.169985 1.31502H2.2298L2.22707 1.28011V0.36971C2.22707 0.166504 2.4416 0 2.70521 0C2.96791 0 3.18335 0.167399 3.18335 0.36971V1.28011L3.18062 1.31502H6.68848L6.68576 1.28011V0.36971C6.68576 0.166504 6.90028 0 7.16299 0C7.42569 0 7.64112 0.167399 7.64112 0.36971V1.28011L7.6384 1.31502H9.83002C9.92364 1.31502 10 1.39022 10 1.48242V3.22445C10 3.31665 9.92364 3.39185 9.83002 3.39185H0.169985C0.0763567 3.39095 0 3.31576 0 3.22355V1.48153C0 1.38932 0.0763567 1.31502 0.169985 1.31502ZM2.84974 7.47746C2.6434 7.30111 2.62067 6.99316 2.79975 6.78906C2.97882 6.58496 3.29152 6.56258 3.49877 6.73893L4.63049 7.70573L6.47668 5.91178C6.6703 5.72201 6.98482 5.7229 7.17753 5.91357C7.37024 6.10425 7.36933 6.41398 7.17571 6.60376L5.00136 8.71639C4.81956 8.89453 4.52504 8.90796 4.32779 8.73967L2.84974 7.47746ZM0.0427234 3.77677H9.95819C9.98182 3.77677 10 3.79557 10 3.81885V10.9588C10 10.9812 9.98091 11 9.95819 11H0.0427234C0.0199982 11 0.000909008 10.9812 0.000909008 10.9588V3.81885C0 3.79557 0.0190892 3.77677 0.0427234 3.77677ZM0.803563 4.52783H9.3337C9.38097 4.52783 9.41914 4.56812 9.41914 4.61198V10.2382C9.41914 10.2821 9.37824 10.3223 9.3337 10.3223H0.762658C0.718117 10.3223 0.677211 10.2847 0.677211 10.2382V4.65226C0.677211 4.56006 0.753568 4.48576 0.846287 4.48576L0.803563 4.52783ZM7.12117 2.67391C7.38387 2.67391 7.59931 2.50651 7.59931 2.3042V1.35262L7.59658 1.31592H6.64667L6.64394 1.35262V2.26213C6.64394 2.46533 6.85847 2.63184 7.12117 2.63184V2.67391ZM2.66249 2.67391C2.92519 2.67391 3.14062 2.50651 3.14062 2.3042V1.35262L3.1379 1.31592H2.18707L2.18435 1.35262V2.26213C2.18435 2.46533 2.39887 2.63184 2.66158 2.63184V2.67391H2.66249Z" fill="#B99750"/>
</g>
<defs>
<clipPath id="clip0_64_225">
<rect width="10" height="11" fill="white"/>
</clipPath>
</defs>
</svg>
