<svg width="17" height="13" viewBox="0 0 17 13" fill="none" xmlns="http://www.w3.org/2000/svg">
<g clip-path="url(#clip0_251_102)">
<path fill-rule="evenodd" clip-rule="evenodd" d="M6.48291 0.00671678H12.519L13.8941 2.54142H16.7275C16.8783 2.54142 17.0014 2.67316 17.0014 2.82496V12.7174C17.0014 12.8692 16.8755 13.001 16.7275 13.001H0.273926C0.127279 12.9996 0 12.8721 0 12.7174V2.82496C0 2.66887 0.123128 2.54142 0.273926 2.54142H1.5481V1.63207H3.12248V2.54142H4.83244C5.18799 1.81394 5.54354 1.0879 5.89909 0.360429C6.11491 -0.0820693 5.99593 0.00671678 6.48291 0.00671678ZM15.2278 3.79445C15.6788 3.79445 16.044 4.1725 16.044 4.63935C16.044 5.10619 15.6788 5.48425 15.2278 5.48425C14.7768 5.48425 14.4115 5.10619 14.4115 4.63935C14.4129 4.1725 14.7782 3.79445 15.2278 3.79445ZM9.2194 4.77825C10.5849 4.77825 11.693 5.92531 11.693 7.33873C11.693 8.75215 10.5849 9.89921 9.2194 9.89921C7.85392 9.89921 6.74577 8.75215 6.74577 7.33873C6.74577 5.92531 7.85392 4.77825 9.2194 4.77825ZM9.2194 3.11137C11.4758 3.11137 13.3048 5.00451 13.3048 7.34016C13.3048 9.67438 11.4758 11.569 9.2194 11.569C6.96436 11.569 5.13403 9.67438 5.13403 7.34016C5.13542 5.00451 6.96436 3.11137 9.2194 3.11137Z" fill="#B99750"/>
</g>
<defs>
<clipPath id="clip0_251_102">
<rect width="17" height="13" fill="white"/>
</clipPath>
</defs>
</svg>
