<svg width="56" height="67" viewBox="0 0 56 67" fill="none" xmlns="http://www.w3.org/2000/svg">
<g clipPath="url(#clip0_94_86)">
<path d="M14.0545 18.5665C17.4842 18.5665 20.2646 15.7701 20.2646 12.3206C20.2646 8.87105 17.4842 6.07465 14.0545 6.07465C10.6247 6.07465 7.84436 8.87105 7.84436 12.3206C7.84436 15.7701 10.6247 18.5665 14.0545 18.5665Z" fill="#3B0532"/>
<path d="M49.6809 20.6485C53.1107 20.6485 55.8911 17.8521 55.8911 14.4026C55.8911 10.953 53.1107 8.15662 49.6809 8.15662C46.2512 8.15662 43.4708 10.953 43.4708 14.4026C43.4708 17.8521 46.2512 20.6485 49.6809 20.6485Z" fill="#3B0532"/>
<path d="M49.7899 7.93747C48.597 7.93749 47.4294 8.28304 46.4267 8.93283C45.424 9.58261 44.6285 10.5091 44.1355 11.6016C45.1986 10.6491 46.5548 10.0931 47.977 10.0265C49.3991 9.96001 50.8008 10.387 51.9472 11.2361C53.0936 12.0851 53.9151 13.3046 54.2741 14.6902C54.6331 16.0759 54.5077 17.5435 53.9189 18.8473C54.8593 18.0055 55.5231 16.8961 55.8222 15.6662C56.1213 14.4363 56.0416 13.144 55.5938 11.9607C55.1459 10.7774 54.351 9.75897 53.3145 9.04045C52.2779 8.32192 51.0487 7.93726 49.7899 7.93747Z" fill="#B99750"/>
<path d="M13.9455 5.8555C15.1383 5.85552 16.3059 6.20107 17.3086 6.85086C18.3114 7.50064 19.1068 8.42714 19.5998 9.51959C18.5367 8.56717 17.1805 8.01112 15.7584 7.94458C14.3362 7.87804 12.9345 8.30506 11.7881 9.1541C10.6417 10.0031 9.82021 11.2226 9.46125 12.6083C9.10229 13.9939 9.22767 15.4615 9.81639 16.7653C8.87602 15.9235 8.21228 14.8141 7.91317 13.5842C7.61405 12.3543 7.6937 11.0621 8.14156 9.87875C8.58941 8.69544 9.38431 7.677 10.4208 6.95848C11.4574 6.23995 12.6866 5.85529 13.9455 5.8555Z" fill="#B99750"/>
<path d="M32.0311 43.4407C32.0337 46.6303 31.0955 49.749 29.3352 52.4021C27.575 55.0552 25.0718 57.1236 22.1424 58.3454C19.213 59.5672 15.9891 59.8875 12.8786 59.2659C9.76812 58.6443 6.91088 57.1086 4.66845 54.8533C2.42601 52.5979 0.899163 49.7242 0.281111 46.5958C-0.336941 43.4673 -0.0184188 40.2248 1.19638 37.2785C2.41117 34.3322 4.46763 31.8146 7.10554 30.0442C9.74344 28.2738 12.8442 27.3302 16.0155 27.3328C18.1207 27.3256 20.2065 27.7374 22.1528 28.5443C24.0991 29.3513 25.8675 30.5375 27.3561 32.0347C28.8447 33.5319 30.0241 35.3105 30.8265 37.268C31.6288 39.2256 32.0382 41.3234 32.0311 43.4407Z" fill="#3B0532"/>
<path d="M32.0311 43.4407C32.0342 45.7466 31.5433 48.026 30.5919 50.1239C27.8496 50.087 25.1479 49.4525 22.6729 48.2641C20.1979 47.0757 18.0086 45.3617 16.2557 43.2403C14.5029 41.1188 13.2283 38.6403 12.5196 35.9756C11.811 33.3109 11.6853 30.5233 12.1511 27.805C14.5115 27.2174 16.9738 27.1776 19.3517 27.6886C21.7296 28.1997 23.9608 29.2481 25.8762 30.7546C27.7917 32.2611 29.3413 34.1862 30.4076 36.3841C31.474 38.582 32.0292 40.9951 32.0311 43.4407Z" fill="#B99750"/>
<path d="M30.8327 47.7143C41.3025 47.7143 49.7899 39.1779 49.7899 28.6477C49.7899 18.1175 41.3025 9.58115 30.8327 9.58115C20.3629 9.58115 11.8755 18.1175 11.8755 28.6477C11.8755 39.1779 20.3629 47.7143 30.8327 47.7143Z" fill="#3B0532"/>
<path d="M35.4396 29.2999C36.4214 27.9741 37.8858 27.0938 39.5119 26.852C41.1379 26.6103 42.7929 27.0268 44.1142 28.0102C44.8484 27.0188 45.2736 25.8306 45.336 24.5959C45.3984 23.3613 45.0951 22.1358 44.4646 21.0747C43.8341 20.0135 42.9046 19.1644 41.794 18.6349C40.6833 18.1053 39.4414 17.9191 38.2255 18.0999C37.0096 18.2807 35.8744 18.8203 34.9636 19.6504C34.0528 20.4805 33.4073 21.5637 33.109 22.763C32.8107 23.9622 32.8729 25.2235 33.2878 26.3872C33.7027 27.5509 34.4515 28.5646 35.4396 29.2999Z" fill="white"/>
<path d="M20.9492 30.5053C21.931 29.1794 23.3955 28.2991 25.0215 28.0574C26.6475 27.8156 28.3026 28.2321 29.6238 29.2156C30.358 28.2242 30.7833 27.0359 30.8457 25.8013C30.9081 24.5667 30.6048 23.3412 29.9742 22.28C29.3437 21.2189 28.4143 20.3698 27.3036 19.8402C26.193 19.3107 24.9511 19.1245 23.7352 19.3052C22.5193 19.486 21.384 20.0256 20.4732 20.8557C19.5624 21.6858 18.917 22.7691 18.6187 23.9683C18.3204 25.1676 18.3826 26.4289 18.7974 27.5926C19.2123 28.7562 19.9612 29.7699 20.9492 30.5053Z" fill="white"/>
<path d="M25.0583 26.5657C26.3219 26.5657 27.3463 25.5355 27.3463 24.2646C27.3463 22.9937 26.3219 21.9635 25.0583 21.9635C23.7947 21.9635 22.7704 22.9937 22.7704 24.2646C22.7704 25.5355 23.7947 26.5657 25.0583 26.5657Z" fill="#3F3D56"/>
<path d="M39.8755 24.8125C41.1391 24.8125 42.1634 23.7822 42.1634 22.5113C42.1634 21.2405 41.1391 20.2102 39.8755 20.2102C38.6119 20.2102 37.5875 21.2405 37.5875 22.5113C37.5875 23.7822 38.6119 24.8125 39.8755 24.8125Z" fill="#3F3D56"/>
<path d="M32.249 30.5105C32.9109 30.5105 33.4474 29.9709 33.4474 29.3052C33.4474 28.6395 32.9109 28.0998 32.249 28.0998C31.5871 28.0998 31.0505 28.6395 31.0505 29.3052C31.0505 29.9709 31.5871 30.5105 32.249 30.5105Z" fill="#FF6584"/>
<path d="M14.2724 63.4246V58.1242H12.5292V63.4246C12.0194 63.6059 11.5781 63.9418 11.2659 64.3858C10.9537 64.8299 10.7861 65.3604 10.786 65.9042L16.0156 65.9042C16.0155 65.3604 15.8479 64.8299 15.5357 64.3858C15.2235 63.9418 14.7822 63.6059 14.2724 63.4246Z" fill="#3B0532"/>
<path d="M20.7004 63.4246V58.1242H18.9572V63.4246C18.4474 63.6059 18.0061 63.9418 17.6939 64.3858C17.3817 64.8299 17.214 65.3604 17.214 65.9042L22.4436 65.9042C22.4435 65.3604 22.2758 64.8299 21.9637 64.3858C21.6515 63.9418 21.2101 63.6059 20.7004 63.4246Z" fill="#3B0532"/>
<path d="M23.0823 11.4096C22.2925 10.1306 21.7619 8.62819 21.9263 7.13165C22.0907 5.63511 23.0654 4.17481 24.5004 3.74594C25.9354 3.31706 27.713 4.20557 27.9834 5.68645C29.4207 3.18709 31.6942 1.2827 34.3982 0.313113C35.6524 -0.131374 37.3191 -0.232169 38.0443 0.888867C38.4032 1.44369 38.4416 2.19804 38.9224 2.65005C39.6761 3.35864 40.8847 2.85956 41.9146 2.92013C43.363 3.00529 44.529 4.36484 44.7115 5.81249C44.8939 7.26013 44.2564 8.71494 43.3155 9.82565C42.3745 10.9364 41.1504 11.7604 39.9431 12.5696" fill="#3B0532"/>
<path d="M34.333 33.7186C34.411 33.6356 34.4916 33.5553 34.5758 33.4786C34.613 33.4447 34.6508 33.4115 34.6892 33.3789C34.7132 33.3586 34.7374 33.3386 34.7618 33.3188C34.804 33.2846 34.8174 33.2763 34.7662 33.3145C34.9514 33.1751 35.1465 33.0495 35.3499 32.9386C35.4436 32.8881 35.5389 32.8407 35.6358 32.7966C35.6586 32.7863 35.6816 32.7763 35.7045 32.7661C35.6017 32.8121 35.6823 32.7755 35.7087 32.7649C35.7668 32.7414 35.8254 32.719 35.8844 32.6978C36.1034 32.6192 36.3275 32.5559 36.5552 32.5084C36.6601 32.4864 36.7656 32.4694 36.8714 32.4524C36.9426 32.441 36.7817 32.4624 36.8535 32.455C36.8848 32.4517 36.9161 32.4475 36.9474 32.4442C37.0101 32.4376 37.0729 32.4322 37.1359 32.4279C37.3624 32.4123 37.5898 32.4115 37.8164 32.4255C37.9297 32.4324 38.0424 32.444 38.1551 32.4574C38.0414 32.4439 38.1716 32.4605 38.2115 32.4671C38.2736 32.4773 38.3354 32.4887 38.3971 32.5012C38.6185 32.5461 38.8366 32.6062 39.0499 32.681C39.1031 32.6997 39.156 32.7194 39.2084 32.7399C39.2376 32.7514 39.2665 32.7632 39.2955 32.775C39.2809 32.7691 39.2 32.7323 39.2819 32.7697C39.3844 32.8165 39.486 32.8647 39.5855 32.9179C39.7892 33.0286 39.9847 33.1539 40.1705 33.2929C40.227 33.3347 40.1069 33.24 40.1604 33.2856C40.1844 33.306 40.2094 33.3253 40.2335 33.3456C40.2721 33.3781 40.3102 33.4114 40.3477 33.4453C40.4435 33.5322 40.5354 33.6234 40.6239 33.7179C40.7047 33.8041 40.7824 33.8932 40.857 33.985C40.856 33.9837 40.9411 34.0898 40.8958 34.0326C40.8578 33.9846 40.9115 34.0536 40.92 34.065C40.9651 34.1258 41.0089 34.1875 41.0514 34.2501C41.1899 34.4549 41.315 34.6684 41.426 34.8895C41.4787 34.9941 41.5285 35.1001 41.5754 35.2076C41.5857 35.2311 41.6214 35.3182 41.5827 35.2235C41.5932 35.2491 41.6036 35.2748 41.6139 35.3005C41.6396 35.3651 41.6643 35.43 41.6881 35.4952C41.8598 35.9745 41.9914 36.4673 42.0817 36.9685C42.1054 37.0958 42.1271 37.2235 42.1468 37.3515C42.1557 37.4086 42.1641 37.4658 42.1722 37.523C42.172 37.5215 42.1909 37.6625 42.1811 37.5865C42.1723 37.5188 42.1874 37.6376 42.189 37.6503C42.222 37.9172 42.2481 38.1849 42.2693 38.453C42.3107 38.9788 42.3329 39.506 42.3488 40.0332C42.3892 41.3706 42.4236 42.7082 42.4609 44.0458L42.6894 52.2382L42.9179 60.4307L42.9462 61.4477C42.9462 61.5785 42.9979 61.7039 43.0898 61.7964C43.1818 61.8889 43.3065 61.9408 43.4365 61.9408C43.5665 61.9408 43.6912 61.8889 43.7832 61.7964C43.8751 61.7039 43.9268 61.5785 43.9268 61.4477L43.692 53.0292L43.4588 44.6672L43.3414 40.458C43.31 39.331 43.2648 38.2051 43.0924 37.0893C42.7748 35.0344 41.852 32.8982 39.8792 31.9651C38.0367 31.0936 35.7565 31.2957 34.1422 32.563C33.9635 32.7028 33.7955 32.856 33.6397 33.0212C33.5477 33.1137 33.4961 33.2391 33.4961 33.3699C33.4961 33.5007 33.5477 33.6261 33.6397 33.7186C33.7316 33.811 33.8563 33.863 33.9864 33.863C34.1164 33.863 34.2411 33.811 34.333 33.7186Z" fill="#B99750"/>
<path d="M38.0234 49.2484C37.879 49.2485 37.7405 49.3063 37.6384 49.409C37.5363 49.5117 37.4788 49.651 37.4786 49.7963L38.5679 66.4449C38.5673 66.5174 38.5809 66.5893 38.608 66.6565C38.6351 66.7236 38.6751 66.7848 38.7258 66.8363C38.7764 66.8879 38.8367 66.9289 38.9031 66.957C38.9695 66.9851 39.0408 66.9997 39.1129 67H48.0467C48.1912 66.9998 48.3296 66.942 48.4317 66.8393C48.5339 66.7366 48.5913 66.5974 48.5915 66.4521L49.6812 49.7891C49.6794 49.645 49.6212 49.5073 49.5192 49.4061C49.4172 49.3048 49.2796 49.2482 49.1362 49.2484H38.0234Z" fill="#E6E6E6"/>
<path d="M38.8857 50.0702C38.8112 50.0702 38.7374 50.0856 38.6689 50.1155C38.6005 50.1454 38.5389 50.1891 38.4879 50.2439C38.437 50.2987 38.3978 50.3634 38.3727 50.4341C38.3477 50.5047 38.3373 50.5798 38.3423 50.6547L39.344 65.6669C39.3536 65.8054 39.415 65.9351 39.5158 66.03C39.6166 66.1248 39.7494 66.1778 39.8875 66.1782H47.272C47.41 66.1778 47.5428 66.1248 47.6437 66.03C47.7445 65.9351 47.8059 65.8054 47.8155 65.6669L48.8172 50.6547C48.8221 50.5798 48.8118 50.5047 48.7867 50.4341C48.7617 50.3634 48.7225 50.2987 48.6715 50.2439C48.6205 50.1891 48.5589 50.1454 48.4905 50.1155C48.4221 50.0856 48.3483 50.0702 48.2737 50.0702H38.8857Z" fill="#B99750"/>
<path d="M42.1635 52.6453C42.1057 52.6454 42.0503 52.6685 42.0095 52.7096C41.9686 52.7507 41.9456 52.8063 41.9456 52.8645V54.0698C41.9456 54.1279 41.9686 54.1836 42.0095 54.2247C42.0503 54.2658 42.1057 54.2889 42.1635 54.289H44.0156C44.0734 54.2889 44.1287 54.2658 44.1696 54.2247C44.2104 54.1836 44.2334 54.1279 44.2335 54.0698V52.8645C44.2334 52.8063 44.2104 52.7507 44.1696 52.7096C44.1287 52.6685 44.0734 52.6454 44.0156 52.6453H42.1635Z" fill="#E6E6E6"/>
<path d="M44.2335 55.823C44.1758 55.8231 44.1204 55.8462 44.0795 55.8873C44.0387 55.9284 44.0157 55.9841 44.0156 56.0422V57.2476C44.0157 57.3057 44.0387 57.3614 44.0795 57.4024C44.1204 57.4435 44.1758 57.4666 44.2335 57.4667H46.0857C46.1434 57.4666 46.1988 57.4435 46.2397 57.4024C46.2805 57.3614 46.3035 57.3057 46.3036 57.2476V56.0422C46.3035 55.9841 46.2805 55.9284 46.2397 55.8873C46.1988 55.8462 46.1434 55.8231 46.0857 55.823H44.2335Z" fill="#E6E6E6"/>
<path d="M42.2723 58.4529C42.2146 58.453 42.1592 58.4761 42.1183 58.5172C42.0775 58.5583 42.0545 58.614 42.0544 58.6721V59.8774C42.0545 59.9355 42.0775 59.9912 42.1183 60.0323C42.1592 60.0734 42.2146 60.0965 42.2723 60.0966H44.1245C44.1822 60.0965 44.2376 60.0734 44.2785 60.0323C44.3193 59.9912 44.3423 59.9355 44.3424 59.8774V58.6721C44.3423 58.614 44.3193 58.5583 44.2785 58.5172C44.2376 58.4761 44.1822 58.453 44.1245 58.4529H42.2723Z" fill="#E6E6E6"/>
<path d="M7.08483 52.1148C7.65176 52.304 8.05102 52.7891 8.38322 53.2646C8.72565 53.7548 9.03952 54.2871 9.50752 54.6699C9.70406 54.8418 9.93467 54.9697 10.1841 55.0451C10.4335 55.1205 10.696 55.1417 10.9541 55.1073C11.4673 55.0295 11.9023 54.6688 11.9803 54.1366C12.0831 53.4359 11.5954 52.7873 11.1677 52.2887L11.0521 52.5693C11.7337 52.6432 12.3263 53.034 12.9504 53.2856C13.5484 53.5266 14.2557 53.6581 14.8531 53.3439C15.3114 53.1028 15.5972 52.6205 15.6941 52.1206C15.7931 51.5751 15.7103 51.0119 15.4583 50.5187C15.1403 49.8648 14.6189 49.3363 14.113 48.8273L13.954 49.102C14.7061 49.2156 15.5445 49.3215 16.197 48.8355C16.458 48.6505 16.6441 48.3773 16.7214 48.0657C16.7879 47.7213 16.7313 47.3644 16.5615 47.058C16.2184 46.3859 15.5708 45.9122 14.9902 45.4614C13.6358 44.4082 12.1683 43.511 10.6151 42.7866C10.4255 42.698 10.2593 42.9812 10.4501 43.0704C11.7807 43.6919 13.0492 44.4397 14.2383 45.3038C14.8105 45.7198 15.415 46.1488 15.8918 46.6766C16.2965 47.1246 16.6651 47.8099 16.2231 48.3638C15.7032 49.0153 14.7624 48.894 14.0409 48.7851C14.0064 48.7766 13.9701 48.7797 13.9374 48.7937C13.9048 48.8077 13.8775 48.8319 13.8596 48.8628C13.8417 48.8937 13.8342 48.9295 13.8383 48.965C13.8423 49.0005 13.8576 49.0337 13.8819 49.0598C14.6358 49.8184 15.5312 50.7291 15.4001 51.8966C15.3503 52.3392 15.1416 52.7913 14.7499 53.0254C14.2176 53.3435 13.5518 53.1798 13.0157 52.9598C12.3647 52.6927 11.765 52.3179 11.0521 52.2406C10.8985 52.2239 10.854 52.425 10.9366 52.5212C11.2824 52.9243 11.6973 53.4487 11.6666 54.0139C11.6409 54.4868 11.2309 54.7697 10.7913 54.7965C9.67294 54.8645 9.10832 53.6934 8.54132 52.9255C8.18248 52.4395 7.75663 51.993 7.17172 51.7978C6.97161 51.7311 6.88581 52.0485 7.08483 52.1148Z" fill="#B99750"/>
</g>
<defs>
<clipPath id="clip0_94_86">
<rect width="56" height="67" fill="white"/>
</clipPath>
</defs>
</svg>
