<svg width="15" height="15" viewBox="0 0 15 15" fill="none" xmlns="http://www.w3.org/2000/svg">
<g clipPath="url(#clip0_276_10)">
<path d="M0.84351 1.47379e-05H6.07788C6.20288 -4.05285e-05 6.32631 0.0281405 6.4391 0.0824906C6.5519 0.136841 6.65121 0.215981 6.72974 0.314106C6.79209 0.38866 6.84011 0.474292 6.87134 0.56661C6.90471 0.657683 6.92166 0.754044 6.92139 0.85114V6.10939C6.92093 6.22435 6.89769 6.33806 6.85304 6.44383C6.80838 6.54959 6.74322 6.64528 6.66138 6.72526C6.50412 6.87696 6.29544 6.96242 6.07788 6.96421H0.84351C0.736857 6.96256 0.631545 6.93997 0.533451 6.8977C0.430311 6.85737 0.336229 6.79659 0.256766 6.71894C0.177302 6.6413 0.11407 6.54838 0.0708045 6.44565C0.0237904 6.33992 -0.000346211 6.22528 3.75186e-06 6.10939V0.85114C0.00129801 0.64559 0.0753271 0.44727 0.208744 0.291935L0.244144 0.257446C0.316645 0.182824 0.401813 0.121917 0.495609 0.0776137C0.604884 0.0273679 0.723427 0.000926857 0.84351 1.47379e-05ZM8.92212 8.03828H14.1602C14.2868 8.03753 14.412 8.06574 14.5264 8.12081C14.6388 8.17564 14.738 8.25469 14.8169 8.35237C14.8777 8.42569 14.9256 8.50902 14.9585 8.59872C14.9919 8.69021 15.0088 8.78698 15.0085 8.88448V14.1427C15.0083 14.2567 14.985 14.3694 14.9402 14.4741C14.8955 14.5796 14.8303 14.6751 14.7485 14.7549C14.6704 14.8308 14.5784 14.8907 14.4775 14.931C14.3784 14.9724 14.2723 14.9937 14.165 14.9939H8.92212C8.81546 14.9931 8.70988 14.9722 8.61084 14.9323C8.51111 14.8923 8.41993 14.8333 8.34229 14.7586C8.25986 14.6788 8.1939 14.5834 8.1482 14.4778C8.10226 14.3722 8.07856 14.2581 8.07862 14.1427V8.89064C8.07829 8.78829 8.09692 8.68677 8.13355 8.59133C8.16873 8.49588 8.22039 8.40747 8.28614 8.3302L8.32032 8.29571C8.39311 8.2212 8.47873 8.16068 8.573 8.11711C8.68235 8.06565 8.80147 8.03876 8.92212 8.03828ZM14.1602 8.88694H8.92212V14.1489C9.37134 14.1489 14.1577 14.1489 14.1626 14.1489C14.1626 13.7055 14.1626 8.88941 14.1626 8.88694H14.1602ZM0.84351 8.03828H6.07788C6.20288 8.03823 6.32631 8.06641 6.4391 8.12076C6.5519 8.17511 6.65121 8.25425 6.72974 8.35237C6.79144 8.42508 6.83943 8.50857 6.87134 8.59872C6.90472 8.69021 6.92167 8.78698 6.92139 8.88448V14.1427C6.92112 14.2567 6.89786 14.3694 6.85303 14.4741C6.80925 14.5801 6.74397 14.6758 6.66138 14.7549C6.50412 14.9066 6.29544 14.9921 6.07788 14.9939H0.84351C0.737238 14.9932 0.632044 14.9723 0.533451 14.9323C0.433199 14.8926 0.341567 14.8336 0.263676 14.7586C0.181233 14.6791 0.115621 14.5836 0.0708045 14.4778C0.0247629 14.3743 0.00064749 14.2623 3.75186e-06 14.1489V8.89064C0.000287061 8.78834 0.0188969 8.68694 0.0549354 8.59133C0.0906016 8.49584 0.142668 8.40745 0.208744 8.3302L0.244144 8.29571C0.316376 8.22109 0.401622 8.16055 0.495609 8.11711C0.604573 8.06579 0.723261 8.0389 0.84351 8.03828ZM6.07788 8.88694H0.84351V14.1489C1.29151 14.1489 6.07911 14.1489 6.08277 14.1489C6.08277 13.7055 6.08277 8.88941 6.08277 8.88694H6.07788ZM8.92212 1.47379e-05H14.1602C14.2868 -0.000739637 14.412 0.0274752 14.5264 0.0825406C14.6388 0.137378 14.738 0.216421 14.8169 0.314106C14.8784 0.389278 14.9263 0.47474 14.9585 0.56661C14.9919 0.657683 15.0088 0.754044 15.0085 0.85114V6.10939C15.0084 6.22378 14.9851 6.33695 14.9402 6.44196C14.8952 6.54737 14.8301 6.6428 14.7485 6.72279C14.6675 6.79881 14.5725 6.85821 14.469 6.8977C14.3697 6.93848 14.2637 6.9598 14.1565 6.96052H8.92212C8.81532 6.96004 8.70961 6.93871 8.61084 6.8977C8.51141 6.8577 8.42031 6.7992 8.34229 6.72526C8.25986 6.64548 8.1939 6.55004 8.1482 6.44442C8.10216 6.33841 8.07847 6.2239 8.07862 6.10816V0.85114C8.07841 0.749199 8.09704 0.648114 8.13355 0.553061C8.16852 0.457507 8.2202 0.369062 8.28614 0.291935L8.32032 0.257446C8.39333 0.182885 8.47889 0.121996 8.573 0.0776137C8.68265 0.0271986 8.80163 0.000753652 8.92212 1.47379e-05ZM14.1602 0.848676H8.92212V6.11309C9.37134 6.11309 14.1577 6.11309 14.1626 6.11309C14.1626 5.66966 14.1626 0.852371 14.1626 0.85114L14.1602 0.848676ZM6.08155 0.848676H0.84351V6.11062C1.29151 6.11062 6.07911 6.11062 6.08277 6.11062C6.08277 5.6672 6.08277 0.849908 6.08277 0.848676H6.08155Z" fill="black"/>
</g>
<defs>
<clipPath id="clip0_276_10">
<rect width="15" height="15" fill="white"/>
</clipPath>
</defs>
</svg>
