<svg width="15" height="15" viewBox="0 0 15 15" fill="none" xmlns="http://www.w3.org/2000/svg">
<g clip-path="url(#clip0_9_65)">
<path fill-rule="evenodd" clip-rule="evenodd" d="M5.26139 6.87195H5.76653V5.76738C5.76653 5.17149 6.00212 4.62983 6.38103 4.2372V4.23669C6.76006 3.84419 7.28338 3.60035 7.85907 3.60035C8.43451 3.60035 8.95759 3.84419 9.33662 4.23669L9.33711 4.2372C9.71602 4.6297 9.95162 5.17162 9.95162 5.76726V6.87182L10.3541 6.87195C10.4437 6.87195 10.5171 6.94792 10.5171 7.04071V10.6058C10.5171 10.6986 10.4436 10.7746 10.354 10.7746H5.26139C5.17179 10.7746 5.09831 10.6985 5.09831 10.6058V7.04071C5.09831 6.94792 5.17167 6.87195 5.26139 6.87195ZM2.03639 2.80675C1.81898 3.08573 1.61818 3.38204 1.41859 3.74938C0.687748 5.09501 0.378175 6.6228 0.504275 8.11595C0.627567 9.57433 1.16737 11.0015 2.13698 12.1953C2.48525 12.6241 2.85891 13.0021 3.25173 13.3289C4.60819 14.4584 6.21514 15.0154 7.81781 14.9996C9.4211 14.9838 11.0172 14.3948 12.3521 13.2322C12.7414 12.8932 13.1064 12.5083 13.4404 12.0781C14.2212 11.0723 14.7236 9.8925 14.9139 8.64762C15.101 7.42499 14.9866 6.14105 14.5393 4.89895C14.1136 3.71639 13.4634 2.6634 12.6136 1.83908C11.8037 1.05332 10.8147 0.474619 9.66756 0.187417C9.3083 0.0974135 8.94258 0.0386331 8.57001 0.0137304C8.19623 -0.0111723 7.81403 -0.00282923 7.42242 0.0420461C7.17694 0.070109 7.00018 0.298657 7.02716 0.552867C7.05426 0.80695 7.27496 0.990117 7.52032 0.962054C7.86005 0.92312 8.19111 0.915788 8.51411 0.937404C8.83808 0.95902 9.15254 1.0092 9.45784 1.08581C10.4473 1.33345 11.3016 1.83339 12.0016 2.51272C12.7508 3.2397 13.3257 4.17184 13.7034 5.22129C14.0955 6.31006 14.1959 7.43409 14.0325 8.50276C13.8664 9.58849 13.4274 10.6187 12.7442 11.4985C12.4428 11.8867 12.1191 12.2292 11.7784 12.5259C10.6076 13.5456 9.21113 14.0621 7.81085 14.076C6.41033 14.0898 5.00309 13.6005 3.81131 12.6084C3.45791 12.3141 3.12515 11.9785 2.81899 11.6014C1.97462 10.5618 1.50416 9.31443 1.39625 8.03643C1.28541 6.72494 1.55702 5.38335 2.1985 4.20231C2.39211 3.84583 2.59047 3.56129 2.81045 3.28698L2.87551 5.14469C2.88418 5.39979 3.09097 5.59926 3.33718 5.59016C3.5834 5.58106 3.77615 5.36705 3.76736 5.11208L3.6636 2.15169C3.65494 1.89647 3.44815 1.69713 3.20193 1.7061C3.18655 1.70673 3.17141 1.70812 3.15652 1.71015V1.70977L0.385378 2.11289C0.141113 2.1479 -0.0295428 2.38151 0.004271 2.63445C0.0379627 2.88752 0.26355 3.06424 0.507937 3.02923L2.03639 2.80675ZM6.57952 6.87195H9.1385V5.75525C9.1385 5.39081 8.99446 5.05949 8.76289 4.81944L8.76264 4.81957C8.53083 4.57951 8.21076 4.43022 7.85907 4.43022C7.50714 4.43022 7.18719 4.57939 6.95526 4.81931C6.72356 5.05936 6.57964 5.39081 6.57964 5.75525V6.87195H6.57952ZM7.86932 8.8227L8.12763 10.057L7.41974 10.06L7.62738 8.80918C7.43402 8.74483 7.29376 8.55724 7.29376 8.33552C7.29376 8.06108 7.50861 7.8386 7.77374 7.8386C8.03864 7.8386 8.25361 8.06108 8.25361 8.33552C8.25348 8.5762 8.08856 8.77694 7.86932 8.8227Z" fill="#D9D9D9"/>
</g>
<defs>
<clipPath id="clip0_9_65">
<rect width="15" height="15" fill="white"/>
</clipPath>
</defs>
</svg>
