<svg width="23" height="23" viewBox="0 0 23 23" fill="none" xmlns="http://www.w3.org/2000/svg">
<g clipPath="url(#clip0_204_88)">
<path d="M10.7607 5.62717V4.5345C10.6316 4.48469 10.5065 4.42478 10.3863 4.35528C9.91583 4.06774 9.56147 3.61558 9.38794 3.08135C9.2144 2.54712 9.23326 1.96645 9.44108 1.44535C9.55656 1.16117 9.72436 0.902685 9.93522 0.684144C10.1454 0.46767 10.3947 0.29551 10.6689 0.177315C10.9453 0.0589714 11.2419 -0.0013072 11.5412 2.14965e-05C11.9909 -4.37662e-05 12.4304 0.137257 12.8043 0.394542C13.1781 0.651828 13.4694 1.01753 13.6413 1.44535C13.8708 2.01738 13.8708 2.65974 13.6413 3.23178C13.5269 3.516 13.359 3.77407 13.1471 3.99106L13.1359 4.00262C13.0026 4.1376 12.8543 4.25596 12.6942 4.35528C12.5754 4.42749 12.45 4.48752 12.3198 4.5345V5.62717H17.6506C18.4156 5.62971 19.1486 5.94387 19.6894 6.50102C20.2302 7.05817 20.5348 7.81302 20.5368 8.60069V9.042H21.5251C21.9171 9.04352 22.2926 9.20467 22.5697 9.49027C22.8467 9.77586 23.0028 10.1627 23.0037 10.5663V14.1064C23.0028 14.5101 22.8467 14.8969 22.5697 15.1825C22.2926 15.4681 21.9171 15.6292 21.5251 15.6308H20.5424V16.0297C20.5399 16.8182 20.2343 17.5736 19.6924 18.1308C19.1505 18.688 18.4164 19.0017 17.6506 19.0032H10.3376L5.95402 22.8786C5.9057 22.9213 5.84964 22.9538 5.78907 22.9741C5.72851 22.9945 5.66463 23.0023 5.60113 22.9971C5.53763 22.9919 5.47575 22.9738 5.41906 22.9439C5.36237 22.914 5.312 22.8728 5.27083 22.8227C5.18851 22.7239 5.14628 22.5962 5.15291 22.4662L5.38688 18.9974H5.34758C4.58353 18.9954 3.85131 18.6821 3.31087 18.1261C2.77043 17.57 2.46569 16.8163 2.46322 16.0297V15.6308H1.48055C1.08819 15.6298 0.712178 15.4688 0.434735 15.1832C0.157292 14.8975 0.000988323 14.5104 0 14.1064L0 10.5663C0.000985952 10.1627 0.157032 9.77586 0.434071 9.49027C0.71111 9.20467 1.08664 9.04352 1.47868 9.042H2.46322V8.59876C2.4647 7.81145 2.769 7.05679 3.30955 6.49989C3.8501 5.943 4.58288 5.62921 5.34758 5.62717H10.7607ZM15.4868 9.11908C15.8333 9.11908 16.172 9.22487 16.4601 9.42307C16.7483 9.62127 16.9728 9.90298 17.1054 10.2326C17.238 10.5622 17.2727 10.9249 17.2051 11.2748C17.1375 11.6246 16.9706 11.946 16.7256 12.1983C16.4806 12.4506 16.1685 12.6224 15.8286 12.692C15.4888 12.7616 15.1365 12.7258 14.8164 12.5893C14.4962 12.4528 14.2226 12.2216 14.0301 11.925C13.8376 11.6283 13.7349 11.2796 13.7349 10.9229C13.7349 10.4445 13.9194 9.98567 14.248 9.64739C14.5766 9.30912 15.0222 9.11908 15.4868 9.11908ZM7.51693 9.11908C7.86343 9.11908 8.20215 9.22487 8.49026 9.42307C8.77837 9.62127 9.00292 9.90298 9.13552 10.2326C9.26812 10.5622 9.30282 10.9249 9.23522 11.2748C9.16762 11.6246 9.00076 11.946 8.75574 12.1983C8.51073 12.4506 8.19856 12.6224 7.85872 12.692C7.51887 12.7616 7.16661 12.7258 6.84648 12.5893C6.52636 12.4528 6.25274 12.2216 6.06023 11.925C5.86772 11.6283 5.76497 11.2796 5.76497 10.9229C5.76497 10.4445 5.94955 9.98567 6.27811 9.64739C6.60666 9.30912 7.05228 9.11908 7.51693 9.11908ZM8.7111 15.1625C8.68467 15.141 8.6608 15.1165 8.63997 15.0893C8.57932 15.016 8.54495 14.9234 8.54264 14.8272C8.54095 14.7304 8.57131 14.6359 8.62874 14.5593C8.65019 14.5314 8.67469 14.5062 8.70174 14.4841C8.8047 14.4006 8.9313 14.3539 9.06235 14.3511C9.1934 14.3484 9.32176 14.3896 9.42798 14.4687C9.74785 14.7286 10.1029 14.9389 10.4818 15.0931C10.8082 15.2231 11.1556 15.2885 11.5056 15.2858C11.86 15.2781 12.2104 15.2063 12.5407 15.0738C12.9241 14.916 13.2859 14.7074 13.6169 14.4533C13.7256 14.3771 13.8553 14.3392 13.9866 14.3455C14.1179 14.3517 14.2437 14.4017 14.3451 14.488C14.3704 14.5121 14.3936 14.5385 14.4143 14.567C14.4693 14.6452 14.497 14.7403 14.4929 14.8368C14.4849 14.9333 14.4469 15.0246 14.3844 15.097C14.3606 15.1248 14.3336 15.1494 14.3039 15.1702C13.8829 15.4905 13.4213 15.7499 12.9319 15.941C12.4811 16.116 12.0042 16.2093 11.5225 16.2166C11.0401 16.2235 10.5606 16.1399 10.1074 15.9699C9.6079 15.7775 9.14011 15.5071 8.72046 15.1683L8.7111 15.1625ZM17.6487 6.62926H5.34758C4.84052 6.6313 4.35482 6.83971 3.99645 7.20904C3.63809 7.57837 3.43613 8.07864 3.43465 8.60069V16.0297C3.43613 16.5517 3.63809 17.052 3.99645 17.4213C4.35482 17.7907 4.84052 17.9991 5.34758 18.0011H5.94092C6.06924 18.011 6.18859 18.0726 6.27305 18.1725C6.35751 18.2725 6.40026 18.4027 6.39201 18.5349L6.20483 21.3446L9.8173 18.1437C9.86223 18.0974 9.91566 18.0608 9.97446 18.036C10.0333 18.0112 10.0963 17.9987 10.1598 17.9992H17.6468C18.1539 17.9972 18.6396 17.7887 18.9979 17.4194C19.3563 17.0501 19.5583 16.5498 19.5597 16.0278V8.59876C19.5587 8.07707 19.3571 7.577 18.999 7.20792C18.6409 6.83884 18.1554 6.63079 17.6487 6.62926Z" fill="#3B0532"/>
</g>
<defs>
<clipPath id="clip0_204_88">
<rect width="23" height="23" fill="white"/>
</clipPath>
</defs>
</svg>
