<svg width="9" height="7" viewBox="0 0 9 7" fill="none" xmlns="http://www.w3.org/2000/svg">
<g clip-path="url(#clip0_476_532)">
<path d="M0.324464 4.40793C0.114328 4.21709 0.00570678 3.96321 0.000213481 3.7076C-0.00520657 3.45206 0.0925741 3.19416 0.294288 2.99542C0.495855 2.79682 0.764295 2.69402 1.03449 2.6889C1.30484 2.68363 1.57738 2.77583 1.78766 2.96681L3.60316 4.619L7.21767 0.276527L7.34717 0.369974L7.21753 0.276111C7.22786 0.263435 7.23957 0.252628 7.25261 0.243831C7.46766 0.067674 7.73756 -0.0118494 8.00138 0.00172778V0.00145069L8.01428 0.00255903C8.27964 0.0191841 8.53885 0.130711 8.73024 0.332706C8.92492 0.538095 9.01318 0.798971 8.99846 1.05396H8.99875L8.99758 1.06615C8.98029 1.31262 8.8664 1.55347 8.65999 1.73337L4.32219 6.72714L4.32249 6.72741C4.31436 6.73718 4.3052 6.74556 4.29524 6.7529C4.09213 6.92158 3.83563 7.00429 3.5806 7.00013C3.32344 6.99591 3.06679 6.90343 2.86713 6.72194L0.324464 4.40793Z" fill="#00BF7E"/>
</g>
<defs>
<clipPath id="clip0_476_532">
<rect width="9" height="7" fill="white"/>
</clipPath>
</defs>
</svg>
