<svg width="46" height="41" viewBox="0 0 46 41" fill="none" xmlns="http://www.w3.org/2000/svg">
<g clip-path="url(#clip0_147_2096)">
<path d="M1.65837 25.8168C0.584341 24.699 0.029168 23.212 0.00109112 21.7149C-0.0266114 20.2181 0.473157 18.7076 1.50414 17.5436C2.53437 16.3803 3.90639 15.7782 5.2874 15.7482C6.66916 15.7174 8.06214 16.2574 9.13693 17.376L18.4161 27.0531L36.8903 1.61859L37.5522 2.16593L36.8896 1.61616C36.9424 1.54191 37.0023 1.47862 37.0689 1.42709C38.168 0.395313 39.5475 -0.0704673 40.896 0.00905608V0.00743315L40.9619 0.0139249C42.3182 0.1113 43.643 0.764529 44.6212 1.94764C45.6163 3.15064 46.0674 4.67862 45.9921 6.17212H45.9936L45.9876 6.24353C45.8993 7.68712 45.3171 9.09785 44.2622 10.1515L22.0912 39.4007L22.0927 39.4024C22.0512 39.4596 22.0044 39.5087 21.9535 39.5517C20.9154 40.5396 19.6044 41.0241 18.3008 40.9997C16.9865 40.975 15.6747 40.4333 14.6542 39.3703L1.65837 25.8168Z" fill="#B99750"/>
</g>
<defs>
<clipPath id="clip0_147_2096">
<rect width="46" height="41" fill="white"/>
</clipPath>
</defs>
</svg>
