<svg width="18" height="22" viewBox="0 0 18 22" fill="none" xmlns="http://www.w3.org/2000/svg">
<g clipPath="url(#clip0_476_238)">
<path fill-rule="evenodd" clip-rule="evenodd" d="M1.19759 2.29481H4.0691V4.17469H2.83075C2.27759 4.17469 1.81953 4.63907 1.81953 5.19891V19.2408C1.81953 19.8015 2.27505 20.265 2.83075 20.265H15.1692C15.725 20.265 16.1805 19.8028 16.1805 19.2408V5.19891C16.1805 4.63649 15.7224 4.17469 15.1692 4.17469H13.9309V2.29481H16.8024C17.4613 2.29481 18 2.8439 18 3.50779V20.787C18 21.4518 17.4587 22 16.8024 22H1.19759C0.541274 22 0 21.4544 0 20.787V3.50779C0 2.84046 0.538726 2.29481 1.19759 2.29481ZM8.01722 14.3476C8.01722 13.9679 8.04396 13.6261 8.09915 13.3251C8.15179 13.0211 8.24476 12.7489 8.37679 12.5099C8.50712 12.2712 8.68755 12.0588 8.91467 11.8757C9.11292 11.717 9.28316 11.5652 9.42156 11.4134C9.56292 11.2638 9.67075 11.1146 9.74802 10.9671C9.82528 10.8175 9.86476 10.67 9.86476 10.5204C9.86476 10.2211 9.80321 10.0044 9.67755 9.8728C9.55189 9.74295 9.36425 9.6763 9.11505 9.6763C8.92146 9.6763 8.74486 9.75241 8.58184 9.89946C8.42094 10.0469 8.33689 10.2972 8.3284 10.6455H5.98925C5.99774 9.96009 6.14123 9.40842 6.41929 8.99091C6.69693 8.57082 7.06967 8.26725 7.5392 8.07548C8.00873 7.88328 8.53557 7.78696 9.11505 7.78696C10.0766 7.78696 10.8306 8.00582 11.3795 8.44398C11.9284 8.88127 12.2039 9.5357 12.2039 10.4043C12.2039 10.7792 12.1313 11.0987 11.9904 11.3644C11.8469 11.6297 11.6597 11.8778 11.4258 12.1078C11.1897 12.3357 10.9274 12.586 10.6408 12.856C10.3895 13.0749 10.2222 13.2912 10.136 13.5036C10.0503 13.7177 10.0019 13.9989 9.9883 14.3476H8.01722ZM7.73958 16.3036C7.73958 15.9553 7.85887 15.6651 8.09448 15.435C8.33264 15.2024 8.63915 15.0863 9.01868 15.0863C9.40203 15.0863 9.71066 15.2024 9.9467 15.435C10.1802 15.6651 10.2969 15.9553 10.2969 16.3036C10.2969 16.6476 10.1802 16.9374 9.9467 17.17C9.71066 17.4044 9.40203 17.5205 9.01868 17.5205C8.63915 17.5205 8.33264 17.4044 8.09448 17.17C7.85887 16.9374 7.73958 16.6476 7.73958 16.3036ZM5.72816 1.69413H7.08538C7.2 0.738708 7.96118 0 8.88453 0C9.80151 0 10.5589 0.728819 10.6816 1.67392L12.2701 1.69413C12.3814 1.69413 12.4701 1.78399 12.4701 1.89622V4.64122C12.4701 4.75301 12.3814 4.84331 12.2701 4.84331H5.72986C5.62118 4.84331 5.53033 4.75301 5.53033 4.64122V1.89622C5.52821 1.78399 5.61736 1.69413 5.72816 1.69413ZM8.14118 2.52528C8.26387 2.69555 8.43962 2.86325 8.62557 2.94967C8.77755 2.99568 8.94354 2.99998 9.09807 2.95741C9.3392 2.84519 9.5608 2.57516 9.66311 2.34899C9.67542 2.28492 9.68349 2.2187 9.68349 2.14647C9.68349 1.6679 9.32137 1.27962 8.87434 1.27962C8.42774 1.27962 8.06604 1.6679 8.06604 2.14647C8.06816 2.29094 8.09363 2.41908 8.14118 2.52528Z" fill="white"/>
</g>
<defs>
<clipPath id="clip0_476_238">
<rect width="18" height="22" fill="white"/>
</clipPath>
</defs>
</svg>
