<svg width="10" height="10" viewBox="0 0 10 10" fill="none" xmlns="http://www.w3.org/2000/svg">
<g clipPath="url(#clip0_476_1140)">
<path fill-rule="evenodd" clip-rule="evenodd" d="M0.488614 0.488461C0.801826 0.175978 1.22619 0.000488281 1.66863 0.000488281C2.11106 0.000488281 2.53543 0.175978 2.84864 0.488461L5.00522 2.64422L7.15609 0.488461C7.46941 0.176177 7.89374 0.000823754 8.33611 0.000823754C8.77847 0.000823754 9.2028 0.176177 9.51612 0.488461C9.8286 0.801673 10.0041 1.22604 10.0041 1.66847C10.0041 2.11091 9.8286 2.53528 9.51612 2.84849L7.35792 5.00018L9.51368 7.15594C9.82596 7.46926 10.0013 7.89359 10.0013 8.33595C10.0013 8.77832 9.82596 9.20265 9.51368 9.51597C9.20036 9.82825 8.77603 10.0036 8.33367 10.0036C7.8913 10.0036 7.46697 9.82825 7.15365 9.51597L5.00033 7.35776L2.84864 9.51353C2.53532 9.82581 2.11099 10.0012 1.66863 10.0012C1.22626 10.0012 0.801931 9.82581 0.488614 9.51353C0.17633 9.20021 0.000976563 8.77588 0.000976562 8.33351C0.000976563 7.89115 0.17633 7.46682 0.488614 7.1535L2.64275 5.00018L0.488614 2.8436C0.177619 2.5306 0.0030718 2.10727 0.0030718 1.66603C0.0030718 1.22479 0.177619 0.80147 0.488614 0.488461Z" fill="white"/>
</g>
<defs>
<clipPath id="clip0_476_1140">
<rect width="10" height="10" fill="white"/>
</clipPath>
</defs>
</svg>
