<svg width="10" height="10" viewBox="0 0 10 10" fill="none" xmlns="http://www.w3.org/2000/svg">
<g clipPath="url(#clip0_476_511)">
<path d="M9.88397 0.676961C10.0387 0.522258 10.0387 0.271362 9.88397 0.116577C9.72926 -0.038208 9.47836 -0.038208 9.32358 0.116577L5.00002 4.44006L0.676463 0.116577C0.521757 -0.038208 0.270858 -0.038208 0.115989 0.116577C-0.0387182 0.271281 -0.0387182 0.522258 0.115989 0.676961L4.43971 5.00037L0.11607 9.32393C-0.0386362 9.47864 -0.0386362 9.72953 0.11607 9.88432C0.270858 10.0391 0.521757 10.0391 0.676544 9.88432L5.0001 5.56083L9.32358 9.88432C9.47828 10.0391 9.72918 10.0391 9.88397 9.88432C10.0387 9.72961 10.0387 9.47872 9.88397 9.32393L5.56041 5.00037L9.88397 0.676961Z" fill="#3B0532"/>
</g>
<defs>
<clipPath id="clip0_476_511">
<rect width="10" height="10" fill="white" transform="matrix(-1 0 0 1 10 0)"/>
</clipPath>
</defs>
</svg>
