<svg width="91" height="67" viewBox="0 0 91 67" fill="none" xmlns="http://www.w3.org/2000/svg">
<rect x="0.5" y="0.5" width="90" height="66" rx="5.5" fill="#EFFDEC" stroke="#B99750"/>
<line x1="1" y1="15.5" x2="91" y2="15.5" stroke="#B99750"/>
<circle cx="10" cy="8" r="3" fill="#B99750"/>
<circle cx="19" cy="8" r="3" fill="#B99750"/>
<circle cx="28" cy="8" r="3" fill="#B99750"/>
<g clip-path="url(#clip0_557_4)">
<path d="M47.4748 31.201L57.2376 37.4021L47.4748 43.6033L57.2376 49.8045L67 43.5698L57.2376 37.3687L67 31.201L57.2376 24.9998L47.4748 31.201ZM57.2879 51.7986L47.5254 45.5975L37.763 51.7986L47.5254 57.9998L57.2879 51.7986ZM47.4748 43.5695L37.7124 37.3684L47.4748 31.2007L37.7627 24.9995L28 31.2007L37.7627 37.4019L28 43.603L37.7627 49.8042L47.4748 43.5695Z" fill="#000088"/>
</g>
<defs>
<clipPath id="clip0_557_4">
<rect width="39" height="33" fill="white" transform="matrix(-1 0 0 1 67 25)"/>
</clipPath>
</defs>
</svg>
