<svg width="17" height="19" viewBox="0 0 17 19" fill="none" xmlns="http://www.w3.org/2000/svg">
<g clip-path="url(#clip0_298_30)">
<path d="M6.9464 1.94783C8.70914 1.94783 11.4728 1.96329 13.2355 1.96329C13.4297 1.96329 13.6239 1.97875 13.8181 2.02513C13.9974 2.05605 14.1766 2.11788 14.3559 2.19518C14.5202 2.27248 14.6845 2.36524 14.8489 2.47346C14.9982 2.58168 15.1476 2.70535 15.2821 2.84449C15.4165 2.98363 15.536 3.13823 15.6406 3.29282C15.7452 3.44742 15.8348 3.61748 15.9095 3.80299C15.9842 3.97305 16.029 4.15857 16.0738 4.35954C16.1037 4.56052 16.1336 4.74604 16.1336 4.96247V11.0072C16.1336 11.2082 16.1186 11.4092 16.0738 11.6102C16.0439 11.8111 15.9842 11.9812 15.9095 12.1667C15.8348 12.3368 15.7452 12.5068 15.6406 12.6769C15.536 12.8315 15.4165 12.9861 15.2821 13.1252C15.1327 13.2643 14.9833 13.4035 14.8339 13.4962C14.6845 13.6045 14.5202 13.6972 14.3559 13.7745C14.1916 13.8518 14.0123 13.8982 13.833 13.9446C13.6538 13.9755 13.4596 14.0064 13.2504 14.0064H11.0246C10.9499 14.0064 10.8902 14.0219 10.8304 14.0528C10.7706 14.0837 10.7258 14.1301 10.681 14.1765C10.5018 14.4084 10.3225 14.6403 10.1283 14.8722C9.9341 15.0886 9.73989 15.305 9.51582 15.506C9.30668 15.707 9.0826 15.8925 8.85852 16.078C8.63445 16.2635 8.39543 16.4336 8.15641 16.6036C7.93234 16.7582 7.67838 16.9128 7.42443 17.052C7.17047 17.1911 6.91652 17.3148 6.66257 17.4385C6.63269 17.4539 6.60281 17.4539 6.57294 17.4385C6.52812 17.4076 6.51318 17.3457 6.52812 17.2993C6.57294 17.2066 6.61775 17.1293 6.66257 17.0365C6.70738 16.9592 6.7522 16.8665 6.78207 16.7737C6.85677 16.6036 6.93146 16.4336 6.99121 16.2481C7.06591 16.0626 7.12566 15.877 7.18541 15.6915C7.24517 15.5215 7.30492 15.3359 7.34974 15.1504C7.40949 14.9649 7.45431 14.7794 7.49912 14.5939C7.51406 14.532 7.529 14.4857 7.529 14.4238C7.529 14.3001 7.48418 14.1919 7.39455 14.0992C7.31986 14.0219 7.20035 13.96 7.08084 13.96H4.5413C4.3471 13.96 4.1529 13.9446 3.9587 13.8982C3.77944 13.8673 3.60018 13.8054 3.43585 13.7436C3.27153 13.6818 3.10721 13.589 2.95782 13.4808C2.7935 13.3726 2.64411 13.2334 2.49473 13.0943C2.36028 12.9551 2.24077 12.8006 2.1362 12.646C2.03163 12.4914 1.942 12.3213 1.86731 12.1358C1.79262 11.9657 1.7478 11.7802 1.70299 11.5792C1.67311 11.3783 1.64323 11.1927 1.64323 10.9763V7.15775C1.64323 6.53937 0.866432 6.53937 0.746924 6.97224V10.9763C0.746924 11.2391 0.776801 11.5019 0.821617 11.7493C0.866432 11.9966 0.941125 12.244 1.03076 12.4759C1.12039 12.7078 1.23989 12.9242 1.37434 13.1407C1.50879 13.3571 1.67311 13.5581 1.85237 13.7436C2.03163 13.9291 2.22583 14.0992 2.43497 14.2383C2.62917 14.3774 2.85325 14.5011 3.07733 14.5939C3.30141 14.6866 3.54042 14.7639 3.77944 14.8103C4.01845 14.8567 4.27241 14.8876 4.52636 14.8876H6.3638C6.37873 14.8876 6.39367 14.8876 6.39367 14.8876C6.45343 14.9031 6.4833 14.9649 6.45343 15.0268C6.42355 15.1504 6.37873 15.2586 6.34886 15.3823C6.2891 15.5524 6.22935 15.7224 6.1696 15.8925C6.10984 16.0471 6.03515 16.2172 5.9754 16.3717C5.9754 16.3872 5.9754 16.3872 5.9754 16.4027C5.91564 16.5573 5.84095 16.7119 5.75132 16.8665C5.66169 17.0211 5.57206 17.1602 5.45255 17.3148C5.34798 17.4539 5.21353 17.6085 5.07909 17.7631C4.94464 17.9177 4.79525 18.0569 4.63093 18.2115C4.5413 18.3042 4.49649 18.4124 4.48155 18.5361C4.48155 18.6598 4.51142 18.768 4.60105 18.8608C4.66081 18.9226 4.7355 18.969 4.81019 18.9999C4.88489 19.0308 4.97452 19.0308 5.04921 18.9999C5.37786 18.9071 5.7065 18.7989 6.03515 18.6907C6.34886 18.5825 6.66257 18.4588 6.96134 18.3197C7.26011 18.1805 7.55888 18.0414 7.84271 17.8868C8.12654 17.7322 8.39543 17.5621 8.66432 17.3766C8.93322 17.2066 9.18717 17.0056 9.42619 16.8046C9.68014 16.6036 9.90422 16.3872 10.1432 16.1708C10.3374 15.9853 10.5167 15.7843 10.696 15.5833C10.8752 15.3823 11.0545 15.1659 11.2188 14.9495C11.2337 14.9185 11.2636 14.9031 11.3084 14.9031H13.2504C13.5044 14.9031 13.7583 14.8722 13.9974 14.8258C14.2364 14.7794 14.4754 14.7021 14.6995 14.6093C14.9236 14.5166 15.1327 14.3929 15.3418 14.2538C15.551 14.1146 15.7452 13.9446 15.9244 13.7591C16.1037 13.5735 16.268 13.3726 16.4025 13.1561C16.5369 12.9397 16.6564 12.7233 16.746 12.4914C16.8357 12.2595 16.9104 12.0121 16.9552 11.7648C17 11.5174 17.0299 11.2546 17.0299 10.9918V4.93155C17.0299 4.66874 17 4.40592 16.9552 4.15857C16.9104 3.91121 16.8357 3.66386 16.746 3.43196C16.6564 3.20006 16.5369 2.98363 16.4025 2.76719C16.268 2.55076 16.1037 2.34978 15.9244 2.16426C15.7452 1.97875 15.551 1.80869 15.3418 1.66955C15.1476 1.53041 14.9236 1.40674 14.6995 1.31398C14.4754 1.22122 14.2364 1.14392 13.9974 1.09754C13.7583 1.05116 13.5044 1.02024 13.2504 1.02024C11.413 1.02024 8.58963 1.00478 6.7522 1.00478C6.30404 1.14392 6.27417 1.94783 6.9464 1.94783ZM3.63005 6.06011C3.91388 6.15287 4.19772 6.24563 4.48155 6.33839C4.76538 6.43115 5.04921 6.53937 5.33304 6.63212C6.00527 6.84856 6.37873 6.9877 6.45343 7.00316C6.52812 7.01862 6.4833 6.70942 6.31898 6.02919L5.7812 3.91121L5.73638 3.86483L3.63005 6.06011ZM4.95958 3.04547L2.22583 0.0772006C2.1362 -9.80403e-05 2.04657 -0.0310175 1.942 0.0308214L0.059754 1.91691C-0.0149385 2.00967 -0.029877 2.11788 0.0746924 2.2261L2.85325 5.24075L4.95958 3.04547ZM6.2891 11.27C6.05009 11.27 5.87083 11.0845 5.85589 10.8372C5.85589 10.5898 6.03515 10.4043 6.27417 10.3888L10.0088 10.327L10.8603 10.2652C11.0993 10.2497 11.2935 10.4352 11.3084 10.6671C11.3234 10.9145 11.1441 11.1154 10.92 11.1309L10.0685 11.1927C10.0685 11.1927 6.66257 11.2546 6.2891 11.27ZM7.61863 8.51821C7.37961 8.51821 7.20035 8.31723 7.20035 8.08534C7.20035 7.83798 7.39455 7.65247 7.61863 7.65247H12.9367C13.1757 7.65247 13.355 7.85344 13.355 8.08534C13.355 8.33269 13.1608 8.51821 12.9367 8.51821H7.61863ZM9.50088 5.90552C9.26186 5.90552 9.0826 5.70454 9.0826 5.47264C9.0826 5.24075 9.2768 5.03977 9.50088 5.03977H12.9367C13.1757 5.03977 13.355 5.24075 13.355 5.47264C13.355 5.72 13.1608 5.90552 12.9367 5.90552H9.50088Z" fill="#D9D9D9"/>
</g>
<defs>
<clipPath id="clip0_298_30">
<rect width="17" height="19" fill="white"/>
</clipPath>
</defs>
</svg>
