<svg width="15" height="15" viewBox="0 0 15 15" fill="none" xmlns="http://www.w3.org/2000/svg">
<g clip-path="url(#clip0_86_69)">
<path d="M4.06787 6.28982L5.86494 6.2658L5.99883 6.30066C6.6293 6.66426 7.19355 7.11809 7.68223 7.65748C8.32705 6.62002 9.01377 5.66752 9.73945 4.79149C10.5343 3.83138 11.3777 2.96062 12.2637 2.16575L12.4392 2.09837H14.4L14.0048 2.53755C12.7896 3.88792 11.6871 5.28342 10.691 6.72256C9.69434 8.16317 8.80342 9.65008 8.01123 11.1806L7.76484 11.6564L7.53809 11.1718C6.71103 9.39664 5.54502 7.88484 3.92139 6.77003L4.06787 6.28982ZM7.49941 0C8.62588 0 9.73125 0.250796 10.7467 0.738325C10.812 0.769674 10.8401 0.849073 10.8088 0.914702C10.7997 0.933453 10.7868 0.949274 10.7713 0.96158L9.67148 1.86163C9.65277 1.8773 9.63013 1.88754 9.60602 1.89126C9.5819 1.89498 9.55723 1.89203 9.53467 1.88273C8.88252 1.64658 8.19434 1.52792 7.50088 1.52792C5.91094 1.52792 4.40186 2.15169 3.27803 3.27675C2.15332 4.40211 1.529 5.90865 1.529 7.49985C1.529 9.09018 2.15273 10.5982 3.27773 11.7227C4.40332 12.8477 5.90947 13.4721 7.50088 13.4721C9.08936 13.4721 10.6002 12.8477 11.7231 11.723C12.8484 10.5982 13.4722 9.09077 13.4722 7.49985C13.4722 7.11311 13.4367 6.73252 13.3623 6.35252C13.3544 6.31121 13.3667 6.2699 13.3925 6.24031L14.3625 5.01094C14.4082 4.9541 14.492 4.9456 14.5488 4.99131C14.5702 5.00859 14.5846 5.03115 14.5922 5.05577C14.8632 5.84185 15 6.66865 15 7.49985C15 9.49304 14.2128 11.3933 12.8033 12.8029C11.3941 14.2119 9.49336 15 7.50088 15C5.50781 15 3.60762 14.2122 2.19814 12.8029L2.19287 12.797C0.785449 11.3875 0 9.49187 0 7.49985C0 5.50696 0.787207 3.60666 2.19668 2.1971L2.20254 2.19183C3.61201 0.785495 5.5084 0 7.49941 0Z" fill="white"/>
</g>
<defs>
<clipPath id="clip0_86_69">
<rect width="15" height="15" fill="white"/>
</clipPath>
</defs>
</svg>
