<svg width="18" height="19" viewBox="0 0 18 19" fill="none" xmlns="http://www.w3.org/2000/svg">
<g clip-path="url(#clip0_560_73)">
<path fill-rule="evenodd" clip-rule="evenodd" d="M13.9342 2.15853V3.35376H15.8295H15.831V3.35685C16.4296 3.3584 16.9723 3.59961 17.3641 3.9908C17.7528 4.37891 17.9953 4.91545 17.9969 5.5092H18V5.51229V16.8415V16.843H17.9969C17.9953 17.4368 17.7528 17.9764 17.3594 18.3676C16.9692 18.7542 16.4296 18.9954 15.8326 18.9969V19H15.8295H6.23633H6.23478V18.9969C5.63773 18.9954 5.09355 18.7542 4.70174 18.363C4.31303 17.9749 4.07048 17.4383 4.06893 16.8446H4.06582V16.8415V14.3041H2.17051H2.16896V14.301C1.57191 14.2995 1.02773 14.0583 0.635916 13.6671C0.247214 13.279 0.00466442 12.7424 0.00310961 12.1487H0V12.1456V2.15853V2.15698H0.00310961C0.00466442 1.56169 0.248769 1.02205 0.64058 0.632406C1.03084 0.24585 1.57035 0.00463867 2.1674 0.00309245V0H2.17051H11.7637H11.7652V0.00309245C12.3638 0.00463867 12.9065 0.24585 13.2983 0.637044C13.687 1.02515 13.9295 1.56169 13.9311 2.15544H13.9342V2.15853ZM12.2892 3.35376V2.15853V2.15544H12.2923C12.2923 2.01473 12.2317 1.88485 12.1353 1.78898C12.0404 1.69466 11.9083 1.63436 11.7668 1.63436V1.63745H11.7652H2.17207H2.16896V1.63436C2.02747 1.63436 1.89686 1.69466 1.80047 1.79053C1.70562 1.88485 1.64499 2.01628 1.64499 2.15698H1.6481V2.15853V12.1456V12.1487H1.64499C1.64499 12.2894 1.70562 12.4193 1.80202 12.5151C1.89686 12.6095 2.02902 12.6698 2.17051 12.6698V12.6667H2.17207H4.06738V5.51229V5.51074H4.07048C4.07204 4.91545 4.31614 4.37581 4.70796 3.98617C5.09821 3.59961 5.63773 3.3584 6.23478 3.35685V3.35376H6.23789H12.2892ZM16.3535 16.8415V5.51229V5.5092H16.3566C16.3566 5.36849 16.2959 5.23861 16.1995 5.14274C16.1047 5.04842 15.9725 4.98812 15.831 4.98812V4.99121H15.8295H6.23633H6.23322V4.98812C6.09173 4.98812 5.96113 5.04842 5.86473 5.14429C5.76989 5.23861 5.70925 5.37004 5.70925 5.51074H5.71236V5.51229V16.8415V16.8446H5.70925C5.70925 16.9853 5.76989 17.1152 5.86629 17.211C5.96113 17.3053 6.09329 17.3656 6.23478 17.3656V17.3626H6.23633H15.8295H15.8326V17.3656C15.9741 17.3656 16.1047 17.3053 16.2011 17.2095C16.2959 17.1152 16.3566 16.9837 16.3566 16.843H16.3535V16.8415Z" fill="#B99750"/>
</g>
<defs>
<clipPath id="clip0_560_73">
<rect width="18" height="19" fill="white"/>
</clipPath>
</defs>
</svg>
