<svg width="12" height="13" viewBox="0 0 12 13" fill="none" xmlns="http://www.w3.org/2000/svg">
<g clip-path="url(#clip0_560_178)">
<path fill-rule="evenodd" clip-rule="evenodd" d="M9.28945 1.47689V2.29468H10.553H10.554V2.29679C10.9531 2.29785 11.3148 2.46289 11.5761 2.73055C11.8352 2.99609 11.9969 3.3632 11.9979 3.76945H12V3.77157V11.5231V11.5242H11.9979C11.9969 11.9304 11.8352 12.2996 11.5729 12.5673C11.3128 12.8318 10.9531 12.9968 10.5551 12.9979V13H10.553H4.15755H4.15652V12.9979C3.75849 12.9968 3.3957 12.8318 3.13449 12.5641C2.87536 12.2986 2.71366 11.9315 2.71262 11.5252H2.71055V11.5231V9.78703H1.44701H1.44597V9.78491C1.04794 9.78385 0.685152 9.61882 0.423944 9.35116C0.16481 9.08561 0.00310961 8.71851 0.00207308 8.31226H0V8.31014V1.47689V1.47583H0.00207308C0.00310961 1.06852 0.165846 0.6993 0.427054 0.432699C0.687225 0.168213 1.0469 0.00317383 1.44493 0.00211589V0H1.44701H7.84245H7.84348V0.00211589C8.24255 0.00317383 8.6043 0.168213 8.86551 0.435872C9.12464 0.701416 9.28634 1.06852 9.28738 1.47477H9.28945V1.47689ZM8.1928 2.29468V1.47689V1.47477H8.19487C8.19487 1.3785 8.15444 1.28963 8.09018 1.22404C8.02695 1.15951 7.93884 1.11825 7.84452 1.11825V1.12036H7.84348H1.44804H1.44597V1.11825C1.35165 1.11825 1.26458 1.15951 1.20031 1.2251C1.13708 1.28963 1.09666 1.37956 1.09666 1.47583H1.09873V1.47689V8.31014V8.31226H1.09666C1.09666 8.40853 1.13708 8.4974 1.20135 8.56299C1.26458 8.62752 1.35268 8.66878 1.44701 8.66878V8.66667H1.44804H2.71158V3.77157V3.77051H2.71366C2.71469 3.3632 2.87743 2.99398 3.13864 2.72738C3.39881 2.46289 3.75849 2.29785 4.15652 2.29679V2.29468H4.15859H8.1928ZM10.9023 11.5231V3.77157V3.76945H10.9044C10.9044 3.67318 10.864 3.58431 10.7997 3.51872C10.7365 3.45418 10.6484 3.41292 10.554 3.41292V3.41504H10.553H4.15755H4.15548V3.41292C4.06116 3.41292 3.97409 3.45418 3.90982 3.51978C3.84659 3.58431 3.80617 3.67424 3.80617 3.77051H3.80824V3.77157V11.5231V11.5252H3.80617C3.80617 11.6215 3.84659 11.7104 3.91086 11.776C3.97409 11.8405 4.06219 11.8818 4.15652 11.8818V11.8796H4.15755H10.553H10.5551V11.8818C10.6494 11.8818 10.7365 11.8405 10.8007 11.7749C10.864 11.7104 10.9044 11.6204 10.9044 11.5242H10.9023V11.5231Z" fill="#5F5F5F"/>
</g>
<defs>
<clipPath id="clip0_560_178">
<rect width="12" height="13" fill="white"/>
</clipPath>
</defs>
</svg>
