<svg width="14" height="15" viewBox="0 0 14 15" fill="none" xmlns="http://www.w3.org/2000/svg">
<g clipPath="url(#clip0_276_32)">
<path fill-rule="evenodd" clip-rule="evenodd" d="M3.08239 6.95801H10.9616V4.5581H8.45141C8.18788 4.5581 7.82112 4.41528 7.64745 4.24072C7.47379 4.06616 7.36813 3.75122 7.36813 3.48755V0.932617H0.989923C0.968063 0.932617 0.951061 0.943603 0.940131 0.95459C0.921915 0.966797 0.917057 0.982666 0.917057 1.00586V14.0002C0.917057 14.0173 0.927987 14.0393 0.938917 14.0503C0.949847 14.0674 0.972921 14.0723 0.988709 14.0723C3.75519 14.0723 8.04336 14.0723 10.8876 14.0723C10.9094 14.0723 10.9082 14.0613 10.9204 14.0503C10.9374 14.0393 10.9604 14.0161 10.9604 14.0002V12.6379H3.08239C2.57962 12.6379 2.16428 12.2229 2.16428 11.7151V7.87964C2.16428 7.37305 2.57719 6.95801 3.08239 6.95801ZM5.57198 10.0525L6.33586 10.2844C6.28486 10.4993 6.20349 10.6799 6.09298 10.824C5.98246 10.968 5.84645 11.0779 5.6825 11.1511C5.51855 11.2244 5.31088 11.261 5.05828 11.261C4.75103 11.261 4.50085 11.2158 4.30654 11.1267C4.11223 11.0364 3.94464 10.8789 3.80377 10.6543C3.66289 10.4297 3.59124 10.1404 3.59124 9.78882C3.59124 9.32007 3.71511 8.95996 3.96286 8.7085C4.21182 8.45703 4.56279 8.3313 5.01699 8.3313C5.3716 8.3313 5.65214 8.40332 5.85495 8.54736C6.05776 8.69141 6.20956 8.91357 6.30793 9.21265L5.54041 9.38354C5.51369 9.2981 5.48576 9.23462 5.4554 9.19556C5.40561 9.12842 5.3461 9.07715 5.27566 9.04175C5.20522 9.00513 5.12629 8.98804 5.03885 8.98804C4.8409 8.98804 4.68909 9.06738 4.58344 9.22729C4.5045 9.3457 4.46442 9.53125 4.46442 9.78394C4.46442 10.0977 4.51178 10.3125 4.60651 10.4297C4.70124 10.5457 4.83482 10.6042 5.00727 10.6042C5.17365 10.6042 5.29995 10.5579 5.38496 10.4626C5.4724 10.3674 5.53312 10.2319 5.57198 10.0525ZM6.61518 10.2747L7.44221 10.2222C7.46043 10.3564 7.49686 10.4602 7.55151 10.5298C7.64138 10.6445 7.7689 10.7019 7.93649 10.7019C8.06036 10.7019 8.1563 10.6726 8.22309 10.614C8.2911 10.5554 8.32389 10.4871 8.32389 10.4102C8.32389 10.3369 8.29232 10.271 8.22917 10.2124C8.16602 10.1538 8.01664 10.1001 7.78468 10.0476C7.40214 9.96216 7.13132 9.84741 6.96858 9.70337C6.80464 9.56055 6.72205 9.37866 6.72205 9.15649C6.72205 9.01123 6.76456 8.87451 6.84836 8.74512C6.93215 8.61572 7.05845 8.51318 7.22726 8.43994C7.39606 8.36548 7.62681 8.32886 7.9207 8.32886C8.28139 8.32886 8.55585 8.396 8.74409 8.53149C8.93354 8.66577 9.04527 8.88062 9.0817 9.1748L8.26196 9.22363C8.2401 9.09546 8.19395 9.00146 8.12473 8.94287C8.05429 8.88428 7.95835 8.85498 7.83569 8.85498C7.73489 8.85498 7.65838 8.87695 7.60616 8.91968C7.55516 8.9624 7.52965 9.01489 7.52965 9.07715C7.52965 9.12231 7.5503 9.1626 7.59159 9.198C7.63167 9.23584 7.72882 9.27002 7.88184 9.30176C8.26317 9.38476 8.5352 9.46777 8.69915 9.552C8.86432 9.63623 8.98454 9.74121 9.05863 9.86572C9.13392 9.99023 9.17035 10.1306 9.17035 10.2856C9.17035 10.4675 9.12056 10.6348 9.02098 10.7886C8.92018 10.9412 8.78173 11.0583 8.602 11.1377C8.42226 11.217 8.19638 11.2561 7.92434 11.2561C7.44464 11.2561 7.1131 11.1633 6.92851 10.9778C6.74391 10.7959 6.63947 10.5603 6.61518 10.2747ZM9.34037 8.37768H10.2512L10.8863 10.4175L11.513 8.37768H12.3971L11.3503 11.2122H10.4066L9.34037 8.37768ZM11.8761 6.95801H13.082C13.5873 6.95801 14.0002 7.37427 14.0002 7.88086V11.7163C14.0002 12.2229 13.586 12.6392 13.082 12.6392H11.8761V14.2932C11.8761 14.4897 11.7972 14.6643 11.6697 14.7937C11.5409 14.9231 11.3673 15.0012 11.1717 15.0012C7.59645 15.0012 4.29926 15.0012 0.705745 15.0012C0.510221 15.0012 0.336557 14.9231 0.207827 14.7937C0.0790971 14.6643 0.00137329 14.4897 0.00137329 14.2932V0.714111C0.00137329 0.517578 0.0803115 0.343018 0.207827 0.213623C0.336557 0.0842285 0.515079 0.00610352 0.705745 0.00610352H7.8369C7.85269 0 7.86969 0 7.8867 0C7.96442 0 8.04336 0.0341797 8.09922 0.0842285H8.11015C8.12108 0.090332 8.12715 0.0952148 8.13808 0.106201L11.7802 3.81226C11.8421 3.87451 11.887 3.95874 11.887 4.05395C11.887 4.08203 11.881 4.104 11.8761 4.1333V6.95801ZM8.20002 3.41431V1.09131L10.8026 3.74023H8.52427C8.43441 3.74023 8.35668 3.70117 8.29475 3.64502C8.23888 3.58887 8.20002 3.50464 8.20002 3.41431Z" fill="#191919"/>
</g>
<defs>
<clipPath id="clip0_276_32">
<rect width="14" height="15" fill="white"/>
</clipPath>
</defs>
</svg>
