<svg width="12" height="17" viewBox="0 0 12 17" fill="none" xmlns="http://www.w3.org/2000/svg">
<g clip-path="url(#clip0_87_506)">
<path fill-rule="evenodd" clip-rule="evenodd" d="M6.04568 13.1959C7.0919 13.1982 7.93576 13.5461 7.93576 13.9659C7.93576 14.3912 7.07324 14.7352 6.01061 14.7352C4.94798 14.7352 4.08578 14.3899 4.08578 13.9659C4.08578 13.5468 4.92064 13.2041 5.95978 13.1962C5.98584 13.1959 6.02251 13.1959 6.04568 13.1959ZM2.33243 2.41485C2.24718 2.27613 2.08632 2.08724 2.08632 1.92458C2.08632 1.83276 2.15742 1.71273 2.2594 1.6865C2.25136 1.54876 2.24589 1.40939 2.24589 1.271C2.24589 1.18934 2.2475 1.1067 2.25072 1.0257C2.2549 0.974543 2.26423 0.923712 2.27742 0.874193C2.34004 0.666268 2.47657 0.489671 2.66026 0.379005C2.72525 0.337357 2.7957 0.304563 2.86777 0.277672C2.99903 0.228809 2.93565 0.00318645 3.07978 0.000562935C3.41629 -0.00861937 3.96997 0.305546 4.18552 0.543958C4.32322 0.698812 4.40157 0.899062 4.40621 1.10801L4.3927 1.70945C4.45254 1.72421 4.51914 1.77176 4.53426 1.83309C4.58026 2.02264 4.38691 2.25875 4.29747 2.40961C4.21447 2.54898 3.89822 2.99957 3.8979 3.00252C3.89661 3.01859 3.90466 3.0399 3.92621 3.0727C4.37629 3.703 5.50423 3.39244 5.71109 4.38708H0.908839C1.1157 3.39146 2.24428 3.703 2.69404 3.0727C2.71817 3.03662 2.72911 3.01695 2.72879 3.00088C2.72879 2.99235 2.36493 2.46765 2.33243 2.41485ZM10.107 6.15074L8.48589 8.08689L8.04836 7.70451L9.66916 5.76836L10.107 6.15074ZM8.11946 8.52534L7.54648 9.21008L7.10863 8.8277L7.6816 8.14297L8.11946 8.52534ZM3.86637 12.78V10.3762L0.312056 6.07761C0.171788 5.89986 0.07463 5.7149 0.0302332 5.54438C-0.0115898 5.38401 -0.0109464 5.22726 0.0379544 5.08821C0.0920027 4.93408 0.200421 4.81045 0.364174 4.7324C0.476775 4.67862 0.6164 4.64845 0.782727 4.64746L11.0789 4.64615C11.2649 4.63926 11.4293 4.66878 11.565 4.72846C11.7294 4.7993 11.8526 4.91604 11.927 5.0669C11.9984 5.2125 12.019 5.38336 11.9817 5.56996C11.9469 5.74278 11.8604 5.93102 11.7162 6.12319L8.15517 10.3782V12.7807C7.9779 12.6977 7.78391 12.6246 7.57704 12.5633V10.271L7.64718 10.0798L11.2604 5.76278C11.3488 5.64407 11.3997 5.5388 11.4174 5.45157C11.4283 5.3991 11.4257 5.3568 11.4119 5.32925C11.401 5.30629 11.3749 5.28465 11.3373 5.26825C11.2781 5.24103 11.1951 5.22923 11.0924 5.23415L0.783692 5.23579C0.705515 5.23447 0.646963 5.2453 0.608035 5.26399C0.591949 5.27153 0.582298 5.27973 0.580046 5.28596C0.572646 5.3076 0.575863 5.34532 0.588089 5.39254C0.612539 5.48699 0.6727 5.59718 0.76085 5.70966L4.37565 10.0824L4.4445 10.271V12.5639C4.23763 12.6249 4.04364 12.6974 3.86637 12.78ZM7.71217 2.41485C7.62659 2.27613 7.46605 2.08724 7.46605 1.92458C7.46605 1.83276 7.53715 1.71273 7.63914 1.6865C7.63077 1.54876 7.62562 1.40939 7.62562 1.271C7.62562 1.18934 7.62691 1.1067 7.63013 1.0257C7.63431 0.974543 7.64364 0.923712 7.65715 0.874193C7.71953 0.666236 7.85598 0.489594 8.03967 0.379005C8.10466 0.337357 8.17704 0.303579 8.24718 0.277672C8.3778 0.230776 8.31506 0.00318645 8.45919 0.000562935C8.7957 -0.00861937 9.3497 0.305546 9.56557 0.543958C9.7028 0.69909 9.78098 0.899192 9.78595 1.10801L9.77243 1.70945C9.83195 1.72421 9.89983 1.77373 9.91367 1.83309C9.95806 2.02132 9.76664 2.25875 9.67721 2.40961C9.59452 2.54898 9.27731 3.00088 9.27731 3.00252C9.27731 3.01826 9.28439 3.0399 9.30595 3.0727C9.75603 3.703 10.884 3.39244 11.0908 4.38708H6.28825C6.49511 3.39146 7.62369 3.703 8.07345 3.0727C8.09758 3.03662 8.1082 3.01695 8.1082 3.00088C8.1082 2.99268 7.74466 2.46765 7.71217 2.41485ZM6.85383 13.8078V14.0842L6.69265 14.0783C6.68621 14.1813 6.67527 14.2558 6.6608 14.3328L6.34841 14.2767V13.9875C6.34841 13.9426 6.34101 13.9124 6.32621 13.8976C6.31141 13.8832 6.25061 13.875 6.20911 13.8737L6.19495 13.995C6.17758 14.1433 6.13769 14.2449 6.07624 14.301C6.01447 14.3568 5.93469 14.3846 5.83656 14.3846C5.73844 14.3846 5.62777 14.3755 5.56922 14.3561C5.51066 14.3371 5.4653 14.3099 5.43538 14.2731C5.38262 14.2079 5.3527 14.1367 5.34498 14.0301L5.14133 14.0246V13.7445L5.34498 13.752C5.35399 13.63 5.37007 13.5422 5.39324 13.4569L5.71334 13.513C5.68375 13.6199 5.66927 13.7317 5.66927 13.8488C5.66927 13.8976 5.67152 13.9432 5.67699 13.9855H5.7941L5.80857 13.8662C5.82434 13.7114 5.87131 13.6087 5.94916 13.5572C6.01769 13.5123 6.10712 13.49 6.21747 13.49C6.36225 13.49 6.50026 13.5185 6.56589 13.5756C6.63152 13.633 6.67206 13.6983 6.68653 13.8022L6.85383 13.8078ZM6.03828 12.9401C7.31839 12.9427 8.35302 13.5067 8.35302 14.1925C8.35302 14.8831 7.30359 15.4442 6.01061 15.4442C4.71731 15.4442 3.6682 14.8831 3.6682 14.1925C3.6682 13.5061 4.70316 12.9453 5.98391 12.9401H6.03828ZM8.35302 15.5872C8.35302 17.4751 2.74165 17.0078 3.76728 15.2281C4.43002 16.4103 7.59216 16.4087 8.25393 15.2281C8.31603 15.338 8.35302 15.4599 8.35302 15.5872Z" fill="#666666"/>
</g>
<defs>
<clipPath id="clip0_87_506">
<rect width="12" height="16.8" fill="white"/>
</clipPath>
</defs>
</svg>
