<svg width="12" height="13" viewBox="0 0 12 13" fill="none" xmlns="http://www.w3.org/2000/svg">
<g clipPath="url(#clip0_281_656)">
<path fill-rule="evenodd" clip-rule="evenodd" d="M1.27441 3.93132H10.8005C10.877 3.92848 10.9536 3.93417 11.0287 3.94824C11.1528 3.97356 11.2667 4.03076 11.3573 4.11328C11.4627 4.20696 11.5289 4.33209 11.5445 4.46663C11.5474 4.5175 11.5451 4.56851 11.5376 4.61898L10.7263 12.4107V12.4245V12.4541C10.7209 12.4863 10.7133 12.5181 10.7035 12.5493V12.5557C10.6604 12.6786 10.5772 12.7861 10.4654 12.8632C10.3536 12.9403 10.2186 12.9833 10.0793 12.9862H1.9762C1.92804 12.9841 1.88024 12.9774 1.83356 12.9661C1.78769 12.9534 1.74334 12.9364 1.70119 12.9154C1.60172 12.8623 1.51772 12.7876 1.45647 12.6976C1.39522 12.6076 1.35858 12.5052 1.34973 12.3991L0.550942 4.62427C0.541827 4.56613 0.539532 4.50725 0.544096 4.44865C0.56006 4.31597 0.625912 4.19274 0.730098 4.10059C0.824502 4.01551 0.943361 3.95748 1.07243 3.93343C1.13985 3.92251 1.20828 3.9179 1.27669 3.91968L1.27441 3.93132ZM0.644514 0.93099H4.23561V0.634766C4.23504 0.625251 4.23504 0.615715 4.23561 0.606201C4.2428 0.446751 4.31451 0.295661 4.43645 0.183024C4.56444 0.0658858 4.73701 0.000141896 4.91686 0L7.12721 0H7.16144C7.33703 0.00814953 7.50251 0.0786073 7.62359 0.196777C7.74468 0.314947 7.8121 0.471773 7.81188 0.634766V0.93099H11.4635H11.508C11.6372 0.940789 11.7582 0.993666 11.8487 1.07983C11.9391 1.166 11.9928 1.27962 11.9998 1.39966C11.9998 1.4187 11.9998 1.43351 11.9998 1.45256V2.49569C11.9998 2.56836 11.9686 2.63805 11.9132 2.68944C11.8578 2.74083 11.7826 2.76969 11.7042 2.76969H0.295332C0.217537 2.7697 0.142877 2.74127 0.0875478 2.69056C0.0322189 2.63986 0.000683346 2.57098 -0.000217756 2.49886V1.4314C-0.00139226 1.42049 -0.00139226 1.40951 -0.000217756 1.3986C0.00760017 1.2872 0.0554592 1.18144 0.135716 1.09821C0.215972 1.01498 0.323997 0.959086 0.442536 0.939453C0.50948 0.93131 0.577051 0.928479 0.644514 0.93099ZM5.44862 6.50635C5.4624 6.3821 5.52539 6.267 5.6254 6.18331C5.72542 6.09963 5.85536 6.05331 5.99008 6.05331C6.12481 6.05331 6.25475 6.09963 6.35476 6.18331C6.45478 6.267 6.51777 6.3821 6.53154 6.50635V10.4207C6.51777 10.545 6.45478 10.6601 6.35476 10.7438C6.25475 10.8275 6.12481 10.8738 5.99008 10.8738C5.85536 10.8738 5.72542 10.8275 5.6254 10.7438C5.52539 10.6601 5.4624 10.545 5.44862 10.4207V6.50635ZM8.1565 6.48519C8.17146 6.35838 8.23976 6.24215 8.34658 6.16174C8.4534 6.08132 8.59011 6.04321 8.72706 6.05567C8.79433 6.05511 8.86105 6.06689 8.92339 6.09034C8.98573 6.11379 9.04245 6.14844 9.09029 6.1923C9.13812 6.23615 9.17612 6.28835 9.20211 6.34588C9.2281 6.40341 9.24155 6.46514 9.2417 6.52751L9.01348 10.4419C8.9988 10.5688 8.93057 10.6852 8.82368 10.7657C8.71679 10.8461 8.57992 10.8842 8.44292 10.8714C8.37564 10.872 8.30892 10.8602 8.24658 10.8367C8.18424 10.8133 8.12752 10.7786 8.07969 10.7348C8.03185 10.6909 7.99385 10.6387 7.96786 10.5812C7.94187 10.5237 7.92842 10.4619 7.92827 10.3996L8.1565 6.48519ZM2.85258 6.52751C2.85258 6.46519 2.86589 6.40348 2.89175 6.34596C2.91761 6.28843 2.95551 6.23623 3.00325 6.19236C3.051 6.14849 3.10764 6.11382 3.16992 6.09036C3.23219 6.0669 3.29886 6.05511 3.36608 6.05567C3.50302 6.04321 3.63974 6.08132 3.74655 6.16174C3.85337 6.24215 3.92168 6.35838 3.93664 6.48519L4.16486 10.3996C4.16472 10.4619 4.15126 10.5237 4.12528 10.5812C4.09929 10.6387 4.06129 10.6909 4.01345 10.7348C3.96562 10.7786 3.9089 10.8133 3.84656 10.8367C3.78422 10.8602 3.71749 10.872 3.65022 10.8714C3.51322 10.8842 3.37634 10.8461 3.26945 10.7657C3.16256 10.6852 3.09434 10.5688 3.07966 10.4419L2.85144 6.52751H2.85258Z" fill="#FF0000"/>
</g>
<defs>
<clipPath id="clip0_281_656">
<rect width="12" height="13" fill="white"/>
</clipPath>
</defs>
</svg>
