<svg width="20" height="22" viewBox="0 0 20 22" fill="none" xmlns="http://www.w3.org/2000/svg">
<g clip-path="url(#clip0_1052_315)">
<path fill-rule="evenodd" clip-rule="evenodd" d="M11.4072 11.7081H18.1587C18.5909 11.7095 19.005 11.8818 19.3107 12.1874C19.6163 12.493 19.7886 12.9072 19.79 13.3394V19.7378C19.7891 20.1704 19.617 20.5849 19.3113 20.891C19.0056 21.197 18.5912 21.3695 18.1587 21.3709H11.4072C10.9747 21.3695 10.5603 21.197 10.2546 20.891C9.9489 20.5849 9.77678 20.1704 9.77587 19.7378V13.3394C9.77724 12.9072 9.94956 12.493 10.2552 12.1874C10.5608 11.8818 10.975 11.7095 11.4072 11.7081ZM10.435 2.01048L13.8664 5.22968H10.435V2.01048ZM3.63312 12.1742C3.53593 12.1805 3.44507 12.2246 3.38004 12.2971C3.31501 12.3696 3.28099 12.4647 3.28529 12.562C3.28248 12.6103 3.28927 12.6586 3.30528 12.7042C3.32129 12.7498 3.34619 12.7918 3.37855 12.8277C3.4109 12.8636 3.45007 12.8928 3.49377 12.9134C3.53747 12.9341 3.58483 12.9459 3.63312 12.9481H7.94278V12.1742H3.63312ZM3.63312 14.9568C3.53593 14.9631 3.44507 15.0072 3.38004 15.0798C3.31501 15.1523 3.28099 15.2474 3.28529 15.3447C3.28224 15.3931 3.28885 15.4416 3.30475 15.4874C3.32065 15.5332 3.34552 15.5754 3.3779 15.6115C3.41028 15.6476 3.44952 15.6769 3.49334 15.6977C3.53716 15.7185 3.58468 15.7303 3.63312 15.7325H7.94278V14.9412L3.63312 14.9568ZM3.63312 6.62797C3.53593 6.63425 3.44507 6.67837 3.38004 6.75088C3.31501 6.82339 3.28099 6.9185 3.28529 7.0158C3.28247 7.06415 3.28926 7.11258 3.30524 7.15829C3.32123 7.204 3.34611 7.2461 3.37844 7.28215C3.41078 7.31821 3.44993 7.3475 3.49364 7.36835C3.53735 7.3892 3.58476 7.4012 3.63312 7.40364H7.6193C7.71649 7.39736 7.80736 7.35323 7.87239 7.28073C7.93742 7.20822 7.97143 7.11311 7.96713 7.0158C7.96995 6.96746 7.96317 6.91903 7.94718 6.87332C7.93119 6.8276 7.90631 6.78551 7.87398 6.74945C7.84164 6.7134 7.80249 6.68411 7.75878 6.66326C7.71507 6.6424 7.66767 6.63041 7.6193 6.62797H3.63312ZM3.63312 3.8453C3.53593 3.85158 3.44507 3.8957 3.38004 3.96821C3.31501 4.04072 3.28099 4.13583 3.28529 4.23313C3.28224 4.28153 3.28885 4.33006 3.30475 4.37587C3.32065 4.42168 3.34552 4.46387 3.3779 4.49998C3.41028 4.53608 3.44952 4.56537 3.49334 4.58614C3.53716 4.60692 3.58468 4.61876 3.63312 4.62097H5.82448C5.92167 4.61469 6.01253 4.57057 6.07756 4.49806C6.14259 4.42555 6.17661 4.33044 6.17231 4.23313C6.17513 4.18479 6.16834 4.13636 6.15236 4.09065C6.13637 4.04494 6.11149 4.00284 6.07915 3.96679C6.04682 3.93073 6.00767 3.90144 5.96396 3.88059C5.92025 3.85974 5.87284 3.84774 5.82448 3.8453H3.63312ZM3.63312 9.39846C3.53593 9.40474 3.44507 9.44887 3.38004 9.52138C3.31501 9.59388 3.28099 9.689 3.28529 9.7863C3.28007 9.88383 3.31377 9.97945 3.37898 10.0522C3.4442 10.1249 3.5356 10.1687 3.63312 10.1741H10.3741C10.4713 10.1679 10.5622 10.1237 10.6272 10.0512C10.6923 9.97871 10.7263 9.8836 10.722 9.7863C10.725 9.7379 10.7184 9.68938 10.7025 9.64356C10.6866 9.59775 10.6617 9.55556 10.6294 9.51946C10.597 9.48336 10.5577 9.45406 10.5139 9.43329C10.4701 9.41252 10.4226 9.40068 10.3741 9.39846H3.63312ZM15.7777 5.69056C15.7782 5.56586 15.7379 5.44444 15.6628 5.34487C15.5877 5.2453 15.4821 5.17308 15.3621 5.13924L10.3011 0.210439C10.2478 0.144696 10.1804 0.091688 10.104 0.0552814C10.0276 0.0188747 9.944 -1.17157e-05 9.85935 5.45238e-09H1.02785C0.755246 5.45238e-09 0.493809 0.108291 0.30105 0.30105C0.108291 0.493809 0 0.755246 0 1.02785L0 18.63C0.00137919 18.9017 0.110279 19.1618 0.302888 19.3534C0.495498 19.545 0.756148 19.6526 1.02785 19.6526H7.95844V18.5047H1.14959V1.14263H9.28194V5.80186C9.2824 5.9547 9.34344 6.10112 9.45168 6.20903C9.55991 6.31694 9.70651 6.37753 9.85935 6.37753H14.6299V10.1376H15.7777V5.69056ZM16.8995 16.2334C16.969 16.2302 17.0381 16.2445 17.1007 16.2749C17.1633 16.3052 17.2173 16.3508 17.2578 16.4073C17.4456 16.6891 17.1882 16.9673 17.0108 17.1638C16.5047 17.7186 15.3603 18.7291 15.1116 19.0178C15.0731 19.0667 15.0239 19.1061 14.9679 19.1333C14.9119 19.1604 14.8504 19.1745 14.7882 19.1745C14.7259 19.1745 14.6644 19.1604 14.6084 19.1333C14.5524 19.1061 14.5032 19.0667 14.4647 19.0178C14.2055 18.7169 12.9985 17.6508 12.5185 17.1047C12.3446 16.9169 12.1446 16.6595 12.3185 16.409C12.3594 16.3525 12.4137 16.307 12.4766 16.2766C12.5394 16.2463 12.6088 16.232 12.6785 16.2351H13.5777V14.6212C13.5777 14.5543 13.5909 14.4882 13.6165 14.4264C13.6421 14.3647 13.6797 14.3087 13.727 14.2615C13.7744 14.2143 13.8306 14.1769 13.8924 14.1515C13.9542 14.1261 14.0204 14.1131 14.0873 14.1133H15.496C15.6301 14.1143 15.7584 14.1682 15.8528 14.2633C15.9473 14.3585 16.0004 14.4871 16.0004 14.6212V16.2334H16.8995Z" fill="white"/>
</g>
<defs>
<clipPath id="clip0_1052_315">
<rect width="19.79" height="21.3709" fill="white"/>
</clipPath>
</defs>
</svg>
