<svg width="15" height="15" viewBox="0 0 15 15" fill="none" xmlns="http://www.w3.org/2000/svg">
    <g clipPath="url(#clip0_1561_2)">
        <path
            d="M14.0249 10.9751C14.0249 10.705 14.2434 10.4863 14.5132 10.4863C14.783 10.4863 15.0015 10.705 15.0015 10.9751V14.488C15.0015 14.7581 14.783 14.9768 14.5132 14.9768H10.9463C10.6765 14.9768 10.458 14.7581 10.458 14.488C10.458 14.218 10.6765 13.9993 10.9463 13.9993H13.2876L9.09326 10.0305C8.89795 9.84604 8.88818 9.53812 9.07251 9.3414C9.25684 9.14589 9.56445 9.13612 9.76099 9.32063L14.0249 13.3553V10.9751ZM10.9646 0.976296C10.6948 0.976296 10.4763 0.757577 10.4763 0.487538C10.4763 0.217499 10.6948 -0.0012207 10.9646 -0.0012207H14.4741C14.7439 -0.0012207 14.9624 0.217499 14.9624 0.487538V4.0567C14.9624 4.32674 14.7439 4.54546 14.4741 4.54546C14.2043 4.54546 13.9858 4.32674 13.9858 4.0567V1.71432L10.021 5.91276C9.83667 6.10826 9.52905 6.11804 9.33252 5.93353C9.13721 5.74902 9.12744 5.4411 9.31177 5.24438L13.3425 0.976296H10.9646ZM0.975586 4.00293C0.975586 4.27297 0.75708 4.49169 0.487305 4.49169C0.217529 4.49169 -0.000976562 4.27297 -0.000976562 4.00293V0.489982C-0.000976562 0.219943 0.217529 0.00122309 0.487305 0.00122309H4.05298C4.32275 0.00122309 4.54126 0.219943 4.54126 0.489982C4.54126 0.760021 4.32275 0.97874 4.05298 0.97874H1.71289L5.90723 4.94746C6.10254 5.13197 6.1123 5.43988 5.92798 5.63661C5.74365 5.83211 5.43603 5.84189 5.2395 5.65738L0.975586 1.62268V4.00293ZM4.02124 14.0237C4.29102 14.0237 4.50952 14.2424 4.50952 14.5125C4.50952 14.7825 4.29102 15.0012 4.02124 15.0012H0.511719C0.241943 15.0012 0.0234375 14.7825 0.0234375 14.5125V10.9421C0.0234375 10.672 0.241943 10.4533 0.511719 10.4533C0.781494 10.4533 1 10.672 1 10.9421V13.2857L4.96484 9.08724C5.14917 8.89174 5.45679 8.88197 5.65332 9.06647C5.84863 9.25098 5.8584 9.5589 5.67407 9.75562L1.64331 14.0237H4.02124Z"
            fill="#B99750" />
    </g>
    <defs>
        <clipPath id="clip0_1561_2">
            <rect width="15" height="15" fill="white" />
        </clipPath>
    </defs>
</svg>