<svg width="10" height="11" viewBox="0 0 10 11" fill="none" xmlns="http://www.w3.org/2000/svg">
<g clip-path="url(#clip0_134_242)">
<path fill-rule="evenodd" clip-rule="evenodd" d="M8.03627 0.179076C7.91227 0.0573314 7.76958 -0.0080169 7.60991 0.000934927C7.45024 0.000934927 7.30755 0.0662832 7.19204 0.197875L6.25013 1.22823L8.889 3.91646L9.8394 2.86731C9.95491 2.74556 9.99907 2.58622 9.99907 2.41793C9.99907 2.24963 9.93707 2.09029 9.82156 1.9775L8.03627 0.179076ZM3.51954 9.80945C3.17302 9.93119 2.818 10.044 2.47062 10.1657C2.12409 10.2875 1.77757 10.4092 1.4217 10.531C0.595302 10.8121 0.14176 10.9714 0.0440876 10.9991C-0.0535853 11.0269 0.00841575 10.625 0.213104 9.7817L0.870485 7.13106L0.924842 7.07198L3.52039 9.80766L3.51954 9.80945ZM1.88543 6.02014L5.5367 2.00793L8.17556 4.68632L4.48013 8.75492L1.88543 6.02014Z" fill="#C8C8C8"/>
</g>
<defs>
<clipPath id="clip0_134_242">
<rect width="10" height="11" fill="white"/>
</clipPath>
</defs>
</svg>
