<svg width="14" height="15" viewBox="0 0 14 15" fill="none" xmlns="http://www.w3.org/2000/svg">
<g clip-path="url(#clip0_113_38)">
<path d="M1.47178 5.61824L5.53695 9.35014C5.54147 9.35442 5.55014 9.35918 5.55453 9.36797L6.92547 10.6286L12.4624 5.65877V4.19418L9.16823 0.666254H1.47178V5.61824ZM7.37433 6.98151H6.61878V5.53792H5.20675V4.74654H6.61878V3.29538H7.37433V4.74654H8.79325V5.53792H7.37433V6.98151ZM13.1151 5.07345C13.2028 4.99679 13.3034 4.9609 13.4042 4.9609C13.4919 4.9609 13.5706 4.98787 13.6495 5.03292C13.7064 5.06881 13.7547 5.11385 13.7986 5.16353C13.9123 5.29842 14 5.50996 14 5.68574V14.3112C14 14.5005 13.9254 14.6714 13.8028 14.7975C13.6801 14.9233 13.5136 14.9999 13.33 14.9999H0.670145C0.486396 14.9999 0.319869 14.9233 0.19729 14.7975C0.0745926 14.6714 0 14.5005 0 14.3112V5.68574C0 5.51009 0.0876581 5.2939 0.205842 5.15902C0.249671 5.10933 0.297658 5.06466 0.354671 5.03304C0.429145 4.988 0.508013 4.96102 0.595671 4.96102C0.674421 4.96102 0.753171 4.98348 0.827763 5.02852V0.333005C0.827882 0.148436 0.972554 0 1.15215 0H9.37419C9.47515 0 9.56697 0.0447994 9.62398 0.121459L13.0274 3.7363C13.0889 3.79953 13.1196 3.8851 13.1196 3.97055V4.06491C13.1196 4.07846 13.1238 4.09189 13.1238 4.10544C13.1238 4.11899 13.1238 4.13241 13.1196 4.14596V5.07808L13.1151 5.07345ZM6.70644 11.3222L5.3266 10.0524L0.643776 14.2706V14.3066C0.643776 14.3112 0.643776 14.32 0.64829 14.32C0.652804 14.3247 0.656961 14.3247 0.661474 14.3247H13.3209C13.3253 14.3247 13.334 14.3247 13.334 14.32C13.3384 14.3157 13.3384 14.3112 13.3384 14.3066V14.2842L8.59014 10.0072L7.12715 11.3174C7.00445 11.4254 6.82035 11.43 6.69777 11.3129L6.70644 11.3222ZM4.83616 9.60698L0.639619 5.75313V13.3837L4.83616 9.60698ZM13.343 13.4019V5.75313L9.08948 9.57072L13.343 13.4019Z" fill="white"/>
</g>
<defs>
<clipPath id="clip0_113_38">
<rect width="14" height="15" fill="white"/>
</clipPath>
</defs>
</svg>
