<svg width="13" height="14" viewBox="0 0 13 14" fill="none" xmlns="http://www.w3.org/2000/svg">
<g clip-path="url(#clip0_1502_34)">
<mask id="mask0_1502_34" style="mask-type:luminance" maskUnits="userSpaceOnUse" x="0" y="0" width="13" height="14">
<path d="M13 0H0V14H13V0Z" fill="white"/>
</mask>
<g mask="url(#mask0_1502_34)">
<path d="M0 6.68521V6.10188L4.3337 10.069L0.0565927 13.5781C0.0193151 13.4894 4.36346e-05 13.3936 0 13.2967V6.68863V6.68521ZM8.92424 6.00161C8.91757 6.24067 8.88099 6.47777 8.81539 6.70685C8.75767 6.90645 8.66628 7.09359 8.5455 7.25943C8.43515 7.41227 8.29247 7.53627 8.12867 7.62174C7.96373 7.70497 7.78286 7.74782 7.59975 7.74706C7.52165 7.74762 7.44379 7.73805 7.36794 7.71857C7.29528 7.70007 7.22535 7.67131 7.16007 7.63313C7.09651 7.59639 7.03855 7.54992 6.98811 7.49527C6.96077 7.46625 6.93566 7.435 6.91302 7.40185C6.82269 7.51017 6.71053 7.5962 6.58464 7.65373C6.45875 7.71125 6.32224 7.73884 6.18493 7.73452C6.09183 7.73516 5.99924 7.72015 5.91068 7.69009C5.82458 7.65907 5.74403 7.61326 5.67233 7.55451C5.59965 7.49411 5.5368 7.42178 5.48623 7.34032C5.4306 7.25134 5.38702 7.15471 5.35672 7.05321C5.29091 6.82177 5.27055 6.57876 5.29686 6.33885C5.32117 6.10657 5.37459 5.87864 5.45575 5.66096C5.52921 5.4654 5.63331 5.28404 5.76375 5.12434C5.88348 4.97611 6.03184 4.85613 6.19908 4.77229C6.3626 4.69422 6.54069 4.6553 6.72038 4.65836C6.85508 4.65728 6.98935 4.67451 7.1198 4.70962C7.24197 4.74329 7.35837 4.79672 7.4648 4.86799L7.6422 4.99218C7.65248 4.99957 7.66073 5.00969 7.66608 5.02149C7.67143 5.03329 7.6737 5.04637 7.67267 5.05939L7.52139 6.76269C7.50334 6.84826 7.51451 6.93776 7.55295 7.01561C7.57324 7.04079 7.59916 7.06031 7.6284 7.07244C7.65765 7.08456 7.68931 7.08892 7.72055 7.08511C7.78411 7.0848 7.84575 7.06235 7.89578 7.02131C7.96245 6.96213 8.01625 6.88871 8.05358 6.80598C8.10748 6.69808 8.14738 6.58314 8.17221 6.46418C8.20215 6.32071 8.21928 6.17462 8.22336 6.02782C8.24149 5.74465 8.21763 5.46025 8.15262 5.18472C8.09788 4.95898 7.99521 4.74907 7.85224 4.57063C7.71521 4.4026 7.54061 4.27266 7.34399 4.19237C7.11872 4.10359 6.87943 4.06029 6.63876 4.06476C6.47507 4.0637 6.31204 4.08671 6.15446 4.13313C6.00376 4.1787 5.86036 4.24743 5.72893 4.33706C5.59367 4.42942 5.47195 4.54187 5.3676 4.67088C5.25778 4.80733 5.1649 4.95778 5.09116 5.11864C5.01181 5.29213 4.95016 5.47392 4.90724 5.66096C4.86235 5.86377 4.83539 6.07048 4.82671 6.27847C4.80805 6.57296 4.8319 6.8687 4.89745 7.15574C4.95121 7.38828 5.05424 7.60516 5.19891 7.79036C5.3379 7.96229 5.51607 8.09475 5.71695 8.17544C5.95254 8.26708 6.20247 8.31152 6.45375 8.30647C6.53228 8.3064 6.61076 8.30183 6.68882 8.2928C6.76936 8.28368 6.85316 8.26887 6.93697 8.25064C7.02076 8.23241 7.09803 8.21304 7.16769 8.1914C7.23063 8.17213 7.29241 8.14892 7.3527 8.12189C7.36113 8.11814 7.37019 8.11617 7.37935 8.11608C7.38851 8.11601 7.3976 8.11781 7.40609 8.12141C7.41458 8.12501 7.42231 8.13032 7.42883 8.13706C7.43536 8.14379 7.44056 8.1518 7.44412 8.16063C7.44508 8.16705 7.44508 8.17359 7.44412 8.18L7.55404 8.65851C7.55674 8.67314 7.55528 8.68825 7.54986 8.70202C7.54445 8.71579 7.53531 8.72759 7.52357 8.73599C7.45508 8.78195 7.38211 8.8201 7.3059 8.84994C7.2185 8.88581 7.12864 8.91477 7.03709 8.93647C6.93918 8.96115 6.83997 8.97979 6.73998 8.9923C6.64064 9.00464 6.54071 9.01067 6.44069 9.01059C5.98068 9.02564 5.52468 8.91696 5.1162 8.69497C4.93722 8.59261 4.77575 8.45978 4.63843 8.30191C4.49959 8.13967 4.38609 7.95549 4.30213 7.75617C4.21165 7.53968 4.14837 7.31181 4.11386 7.07827C4.07364 6.80968 4.05941 6.53752 4.07141 6.26594C4.08105 6.0021 4.11753 5.7401 4.18025 5.48436C4.23946 5.24221 4.32567 5.00818 4.43709 4.78709C4.54267 4.57897 4.67444 4.38661 4.82888 4.21516C4.98035 4.04531 5.15403 3.89879 5.34475 3.77993C5.53686 3.6607 5.74378 3.56984 5.95965 3.50992C6.18376 3.44806 6.41462 3.41704 6.64638 3.41763C7.08282 3.40573 7.51455 3.51459 7.89795 3.73323C8.07161 3.83606 8.22878 3.96676 8.36375 4.12059C8.49703 4.27678 8.60709 4.45306 8.69024 4.64354C8.78063 4.84646 8.84503 5.06099 8.88177 5.28156C8.92155 5.52032 8.93585 5.76297 8.92424 6.00503V6.00161ZM6.12725 6.34341C6.118 6.44915 6.118 6.55555 6.12725 6.66128C6.13291 6.736 6.15058 6.80918 6.17949 6.87776C6.19911 6.92364 6.23035 6.96304 6.26982 6.99168C6.30861 7.01693 6.35367 7.02961 6.39933 7.02814C6.43282 7.02807 6.46589 7.02029 6.4962 7.00536C6.53187 6.98606 6.56393 6.9602 6.59088 6.92902C6.62628 6.8888 6.65664 6.844 6.6812 6.79573C6.71108 6.73806 6.7362 6.67784 6.7563 6.61571L6.86514 5.36246H6.84663C6.81982 5.3606 6.79291 5.3606 6.76609 5.36246C6.68144 5.36087 6.59759 5.37998 6.52122 5.41828C6.4494 5.4567 6.38772 5.51305 6.34165 5.58235C6.28298 5.67708 6.23891 5.78089 6.21105 5.88996C6.1722 6.03922 6.14563 6.19169 6.13161 6.34569L6.12725 6.34341ZM0.0163248 4.9523C0.108833 4.5729 0.62252 4.32909 0.90766 4.11718V2.48908C0.90766 2.30778 0.976456 2.13391 1.09892 2.0057C1.22138 1.87751 1.38747 1.80549 1.56065 1.80549H4.00611L6.34056 0.0646031C6.40031 0.0208942 6.47153 -0.0023559 6.54443 -0.00194784C6.61731 -0.00153978 6.68829 0.0225064 6.7476 0.0668817L9.04176 1.80549H11.4361C11.6093 1.80549 11.7754 1.87751 11.8979 2.0057C12.0203 2.13391 12.089 2.30778 12.089 2.48908V4.11262C12.396 4.34048 12.9967 4.65038 12.9967 5.0799V5.09699L11.4393 6.47444V2.48681H1.56065V6.3605L0.0163248 4.9523ZM13 6.24087V13.2967C13.0003 13.4603 12.9456 13.6188 12.8455 13.7444L8.52591 10.1886L13 6.24087ZM11.8029 13.9997H0.89895L4.97472 10.6558L6.1882 11.7666C6.26611 11.8381 6.36671 11.8767 6.47033 11.8748C6.57396 11.873 6.67319 11.8307 6.74868 11.7563L7.87183 10.7663L11.7996 13.9997H11.8029Z" fill="#B99750"/>
</g>
</g>
<defs>
<clipPath id="clip0_1502_34">
<rect width="13" height="14" fill="white"/>
</clipPath>
</defs>
</svg>
