<svg width="15" height="16" viewBox="0 0 15 16" fill="none" xmlns="http://www.w3.org/2000/svg">
<g clipPath="url(#clip0_6_58)">
<path d="M0 7.64062V6.97396L5.00042 11.5078L0.0652993 15.5182C0.0222866 15.4169 5.03476e-05 15.3074 0 15.1966L0 7.64453V7.64062ZM10.2972 6.85937C10.2895 7.13258 10.2473 7.40355 10.1716 7.66536C10.105 7.89347 9.99955 8.10735 9.86019 8.29688C9.73286 8.47155 9.56824 8.61327 9.37924 8.71094C9.18892 8.80607 8.98022 8.85504 8.76894 8.85417C8.67883 8.85481 8.58899 8.84387 8.50147 8.82161C8.41763 8.80046 8.33694 8.7676 8.26162 8.72396C8.18828 8.68198 8.12141 8.62887 8.06321 8.56641C8.03166 8.53324 8.00269 8.49753 7.97656 8.45964C7.87233 8.58344 7.74292 8.68176 7.59766 8.7475C7.4524 8.81324 7.29489 8.84478 7.13646 8.83984C7.02904 8.84057 6.9222 8.82342 6.82001 8.78906C6.72067 8.75361 6.62773 8.70125 6.545 8.63411C6.46113 8.56508 6.38862 8.48242 6.33026 8.38932C6.26608 8.28763 6.21579 8.1772 6.18083 8.0612C6.1049 7.79669 6.0814 7.51897 6.11176 7.24479C6.13981 6.97932 6.20145 6.71883 6.2951 6.47005C6.37986 6.24656 6.49997 6.03929 6.65048 5.85677C6.78863 5.68737 6.95982 5.55025 7.15278 5.45443C7.34146 5.36521 7.54695 5.32073 7.75429 5.32422C7.90971 5.32299 8.06463 5.34268 8.21515 5.38281C8.35612 5.42129 8.49043 5.48235 8.61323 5.5638L8.81792 5.70573C8.82979 5.71418 8.8393 5.72574 8.84548 5.73923C8.85165 5.75272 8.85427 5.76767 8.85308 5.78255L8.67853 7.72917C8.6577 7.82697 8.67059 7.92925 8.71494 8.01823C8.73835 8.047 8.76826 8.06931 8.802 8.08317C8.83575 8.09703 8.87228 8.10201 8.90833 8.09766C8.98166 8.0973 9.05279 8.07164 9.11051 8.02474C9.18744 7.95711 9.24952 7.8732 9.29259 7.77865C9.35479 7.65534 9.40082 7.52397 9.42947 7.38802C9.46402 7.22405 9.48378 7.05709 9.48849 6.88932C9.50941 6.5657 9.48188 6.24067 9.40687 5.92578C9.34371 5.66779 9.22524 5.42789 9.06028 5.22396C8.90216 5.03193 8.7007 4.88343 8.47384 4.79167C8.21391 4.6902 7.9378 4.64072 7.66011 4.64583C7.47123 4.64461 7.28312 4.67091 7.1013 4.72396C6.92741 4.77604 6.76195 4.85459 6.6103 4.95703C6.45423 5.06258 6.31379 5.19109 6.19339 5.33854C6.06667 5.49448 5.9595 5.66642 5.87442 5.85026C5.78286 6.04854 5.71172 6.25629 5.6622 6.47005C5.6104 6.70184 5.5793 6.93808 5.56928 7.17578C5.54775 7.51234 5.57527 7.85033 5.6509 8.17838C5.71293 8.44413 5.83181 8.692 5.99874 8.90365C6.15911 9.10015 6.3647 9.25153 6.59648 9.34375C6.86831 9.44848 7.1567 9.49927 7.44663 9.49349C7.53725 9.49341 7.6278 9.48819 7.71787 9.47787C7.8108 9.46745 7.90749 9.45052 8.00419 9.42969C8.10088 9.40885 8.19004 9.38672 8.27041 9.36198C8.34304 9.33996 8.41432 9.31344 8.48389 9.28255C8.49361 9.27826 8.50406 9.27601 8.51463 9.27591C8.5252 9.27582 8.53569 9.27788 8.54549 9.282C8.55528 9.28611 8.5642 9.29218 8.57173 9.29988C8.57926 9.30757 8.58526 9.31673 8.58937 9.32682C8.59048 9.33416 8.59048 9.34163 8.58937 9.34896L8.7162 9.89583C8.71931 9.91254 8.71763 9.92982 8.71138 9.94555C8.70514 9.96129 8.69459 9.97478 8.68104 9.98438C8.60202 10.0369 8.51782 10.0805 8.42989 10.1146C8.32904 10.1556 8.22535 10.1887 8.11972 10.2135C8.00674 10.2417 7.89227 10.263 7.7769 10.2773C7.66228 10.2914 7.54697 10.2983 7.43156 10.2982C6.90079 10.3154 6.37463 10.1912 5.90331 9.9375C5.69679 9.82051 5.51048 9.6687 5.35203 9.48828C5.19183 9.30286 5.06087 9.09237 4.964 8.86458C4.8596 8.61716 4.78658 8.35674 4.74676 8.08984C4.70035 7.78288 4.68394 7.47184 4.69778 7.16146C4.7089 6.85993 4.751 6.5605 4.82336 6.26823C4.89169 5.99148 4.99116 5.72402 5.11972 5.47135C5.24154 5.23349 5.39359 5.01365 5.57179 4.81771C5.74656 4.6236 5.94696 4.45614 6.16702 4.32031C6.38868 4.18404 6.62744 4.0802 6.87652 4.01172C7.13511 3.94103 7.40148 3.90558 7.6689 3.90625C8.17249 3.89265 8.67063 4.01706 9.11302 4.26693C9.3134 4.38445 9.49475 4.53383 9.65048 4.70963C9.80426 4.88813 9.93126 5.0896 10.0272 5.30729C10.1315 5.5392 10.2058 5.78437 10.2482 6.03646C10.2941 6.30932 10.3106 6.58664 10.2972 6.86328V6.85937ZM7.0699 7.25C7.05923 7.37084 7.05923 7.49244 7.0699 7.61328C7.07644 7.69867 7.09682 7.78231 7.13018 7.86068C7.15282 7.91312 7.18887 7.95815 7.23441 7.99088C7.27917 8.01974 7.33116 8.03423 7.38384 8.03255C7.42249 8.03247 7.46064 8.02358 7.49561 8.00651C7.53677 7.98445 7.57377 7.9549 7.60486 7.91927C7.64571 7.8733 7.68074 7.8221 7.70908 7.76693C7.74355 7.70103 7.77254 7.6322 7.79573 7.5612L7.92131 6.12891H7.89996C7.86902 6.12679 7.83797 6.12679 7.80703 6.12891C7.70935 6.12709 7.6126 6.14894 7.52449 6.19271C7.44161 6.23661 7.37045 6.30101 7.31729 6.38021C7.24959 6.48848 7.19874 6.60712 7.1666 6.73177C7.12177 6.90235 7.09111 7.0766 7.07493 7.2526L7.0699 7.25ZM0.0188363 5.66016C0.125576 5.22656 0.718292 4.94792 1.0473 4.70573V2.84505C1.0473 2.63785 1.12668 2.43914 1.26798 2.29262C1.40928 2.14611 1.60093 2.0638 1.80075 2.0638H4.62244L7.31603 0.0742179C7.38497 0.0242649 7.46715 -0.00230663 7.55126 -0.00184028C7.63536 -0.00137392 7.71726 0.0261074 7.78569 0.0768221L10.4328 2.0638H13.1955C13.3953 2.0638 13.587 2.14611 13.7283 2.29262C13.8696 2.43914 13.9489 2.63785 13.9489 2.84505V4.70052C14.3031 4.96094 14.9962 5.3151 14.9962 5.80599V5.82552L13.1992 7.39974V2.84245H1.80075V7.26953L0.0188363 5.66016ZM15 7.13281V15.1966C15.0003 15.3836 14.9372 15.5647 14.8217 15.7083L9.83759 11.6445L15 7.13281ZM13.6187 16H1.03725L5.74006 12.1784L7.14023 13.4479C7.23013 13.5297 7.3462 13.5738 7.46577 13.5716C7.58534 13.5695 7.69984 13.5212 7.78694 13.4362L9.08288 12.3047L13.6149 16H13.6187Z" fill="#CCCCCC"/>
</g>
<defs>
<clipPath id="clip0_6_58">
<rect width="15" height="16" fill="white"/>
</clipPath>
</defs>
</svg>
