<svg width="19" height="13" viewBox="0 0 19 13" fill="none" xmlns="http://www.w3.org/2000/svg">
<g clip-path="url(#clip0_525_175)">
<path fill-rule="evenodd" clip-rule="evenodd" d="M9.42318 3.66873C9.35416 3.5958 9.27326 3.55993 9.17975 3.55993C9.0866 3.55993 9.00422 3.5958 8.93668 3.66873L8.56596 4.06134C8.3652 3.92377 8.14217 3.8201 7.9158 3.74126V3.13736C7.9158 3.03566 7.88314 2.94973 7.81672 2.87877C7.74992 2.80782 7.66902 2.77352 7.57365 2.77352H6.85967C6.76875 2.77352 6.68896 2.80782 6.62031 2.87877C6.5524 2.94973 6.51863 3.03566 6.51863 3.13736V3.69041C6.28707 3.74757 6.06145 3.83823 5.85326 3.96003L5.44246 3.52997C5.37826 3.45784 5.29996 3.42039 5.2057 3.42039C5.11145 3.42039 5.03055 3.45744 4.96227 3.52997L4.46277 4.06134C4.39412 4.13466 4.35998 4.2202 4.35998 4.31954C4.35998 4.41927 4.39412 4.50599 4.46277 4.57812L4.83201 4.97232C4.7025 5.18636 4.60639 5.4209 4.53068 5.66254H3.96217C3.86643 5.66254 3.78553 5.69723 3.7191 5.76819C3.6523 5.83875 3.61965 5.92468 3.61965 6.02677V6.78441C3.61965 6.88098 3.6523 6.96574 3.7191 7.03905C3.78553 7.1108 3.86643 7.14706 3.96217 7.14706H4.48281C4.53848 7.39777 4.62457 7.6331 4.73664 7.86094L4.33178 8.28943C4.26387 8.35762 4.22861 8.44119 4.22861 8.54171C4.22861 8.64104 4.26387 8.72737 4.33178 8.8003L4.83201 9.33837C4.90104 9.40656 4.98193 9.43967 5.07545 9.43967C5.16896 9.43967 5.25098 9.40656 5.31852 9.33837L5.68961 8.93826C5.88889 9.07505 6.11451 9.1799 6.33977 9.25835V9.86264C6.33977 9.96395 6.37205 10.0499 6.43885 10.1208C6.50527 10.1914 6.58654 10.2265 6.68229 10.2265H7.39553C7.48682 10.2265 7.56623 10.1914 7.63488 10.1208C7.70279 10.0499 7.73693 9.96395 7.73693 9.86264V9.30959C7.97221 9.25086 8.19523 9.15862 8.40898 9.03996L8.81236 9.47003C8.87693 9.54177 8.95635 9.57922 9.05246 9.57922C9.14969 9.57922 9.22873 9.54177 9.2933 9.47003L9.79984 8.93826C9.86404 8.86455 9.89559 8.77901 9.89559 8.67967C9.89559 8.58034 9.86404 8.49362 9.79984 8.42148L9.42318 8.02768C9.55232 7.81522 9.64992 7.57712 9.72451 7.33706H10.293C10.3888 7.33706 10.4697 7.30198 10.5361 7.23142C10.6029 7.16047 10.6355 7.07453 10.6355 6.97322V6.2152C10.6355 6.11823 10.6029 6.03426 10.5361 5.96094C10.4697 5.88841 10.3888 5.85294 10.293 5.85294H9.77275C9.71635 5.60814 9.63174 5.3669 9.51893 5.14576L9.92342 4.70978C9.99133 4.64159 10.0266 4.55802 10.0266 4.4579C10.0266 4.35817 9.9917 4.27302 9.92342 4.1997L9.42318 3.66873ZM14.2552 2.62964L18.3105 0.721368C18.5588 0.605476 18.8486 0.72531 18.9577 0.988629C18.9859 1.05682 18.9996 1.12857 18.9996 1.19873L19 11.8017C19 12.0898 18.7796 12.324 18.5083 12.324C18.4237 12.324 18.3443 12.3011 18.2745 12.2609L14.2552 10.2876V10.4866C14.2552 11.1698 13.985 11.7989 13.5546 12.2566L13.5516 12.2597C13.123 12.7138 12.5326 13 11.8939 13H2.36164C1.72039 13 1.12924 12.7166 0.699141 12.2605C0.268301 11.8021 0 11.1749 0 10.4866V2.51375C0 1.82274 0.266445 1.19361 0.695059 0.737924C1.12367 0.283029 1.71371 0 2.36164 0H11.8939C12.54 0 13.1289 0.285394 13.5568 0.739895C13.9873 1.19716 14.2552 1.82865 14.2552 2.51375V2.62964ZM11.8939 1.04421H2.36164C2.1792 1.04403 1.99852 1.0821 1.82996 1.15623C1.6614 1.23037 1.50827 1.33912 1.37936 1.47624C1.12887 1.74232 0.973008 2.1101 0.973008 2.51375V10.4866C0.973008 10.8879 1.12961 11.2533 1.37936 11.5182C1.63393 11.7887 1.9835 11.9558 2.36164 11.9558H11.8939C12.2702 11.9558 12.6183 11.7867 12.8706 11.5182C13.1241 11.2494 13.2822 10.8828 13.2822 10.4866V2.51375C13.2822 2.11522 13.1248 1.74666 12.8725 1.47861C12.6216 1.21213 12.2747 1.04421 11.8939 1.04421ZM14.2897 3.75387V9.15664L18.017 10.9865V2.00052L14.2897 3.75387ZM7.1276 5.03263C7.31723 5.03263 7.49609 5.07086 7.66605 5.14694C7.83527 5.2246 7.98223 5.32866 8.10691 5.45993C8.23012 5.59198 8.32809 5.74887 8.40119 5.92783C8.47281 6.10798 8.50881 6.29837 8.50881 6.49941C8.50881 6.70123 8.47281 6.89123 8.40119 7.07217C8.32809 7.25113 8.23012 7.40723 8.10691 7.53968C7.98186 7.67134 7.83527 7.7758 7.66605 7.85306C7.49609 7.92874 7.31723 7.96698 7.1276 7.96698C6.93797 7.96698 6.7591 7.92874 6.58877 7.85306C6.42066 7.7758 6.27334 7.67134 6.14902 7.53968C6.02508 7.40723 5.92674 7.25113 5.854 7.07217C5.78238 6.89123 5.74676 6.70123 5.74676 6.49941C5.74676 6.29837 5.78238 6.10798 5.854 5.92783C5.92674 5.74848 6.02508 5.59198 6.14902 5.45993C6.27334 5.32866 6.42066 5.2246 6.58877 5.14694C6.75873 5.07086 6.93797 5.03263 7.1276 5.03263Z" fill="#3B0532"/>
</g>
<defs>
<clipPath id="clip0_525_175">
<rect width="19" height="13" fill="white"/>
</clipPath>
</defs>
</svg>
