<svg width="14" height="15" viewBox="0 0 14 15" fill="none" xmlns="http://www.w3.org/2000/svg">
<g clip-path="url(#clip0_525_172)">
<path fill-rule="evenodd" clip-rule="evenodd" d="M3.08224 6.95801H10.9615V4.55811H8.45125C8.18772 4.55811 7.82096 4.41528 7.6473 4.24072C7.47364 4.06616 7.36798 3.75122 7.36798 3.48755V0.932617H0.98977C0.96791 0.932617 0.950908 0.943604 0.939978 0.95459C0.921762 0.966797 0.916904 0.982666 0.916904 1.00586V14.0002C0.916904 14.0173 0.927834 14.0393 0.938764 14.0503C0.949694 14.0674 0.972768 14.0723 0.988556 14.0723C3.75504 14.0723 8.04321 14.0723 10.8874 14.0723C10.9093 14.0723 10.9081 14.0613 10.9202 14.0503C10.9372 14.0393 10.9603 14.0161 10.9603 14.0002V12.6379H3.08224C2.57946 12.6379 2.16413 12.2229 2.16413 11.7151V7.87964C2.16413 7.37305 2.57704 6.95801 3.08224 6.95801ZM3.58259 8.22754H5.18443C5.53297 8.22754 5.79407 8.31055 5.96895 8.47778C6.14262 8.64502 6.22884 8.88184 6.22884 9.19067C6.22884 9.50684 6.13411 9.75464 5.94466 9.93286C5.75521 10.1111 5.46618 10.2002 5.07756 10.2002H4.54928V11.3586H3.58259V8.22754ZM4.54806 9.56665H4.78488C4.9719 9.56665 5.10306 9.53369 5.17835 9.469C5.25365 9.4043 5.2913 9.32129 5.2913 9.21997C5.2913 9.12109 5.25851 9.03809 5.19293 8.96973C5.12735 8.90137 5.00469 8.86719 4.82253 8.86719H4.54685V9.56665H4.54806ZM6.67818 8.22754H8.10878C8.39053 8.22754 8.61885 8.2666 8.79251 8.34229C8.96618 8.41919 9.10948 8.52905 9.22363 8.6731C9.33658 8.81714 9.41916 8.98438 9.46895 9.17481C9.51996 9.36524 9.54546 9.56787 9.54546 9.78149C9.54546 10.116 9.50781 10.376 9.4313 10.5603C9.35601 10.7446 9.25035 10.8997 9.11555 11.0242C8.98075 11.1487 8.83623 11.2317 8.682 11.2732C8.47069 11.3306 8.28002 11.3586 8.10878 11.3586H6.67818V8.22754ZM7.6388 8.93677V10.647H7.87561C8.07721 10.647 8.22051 10.6238 8.30674 10.5798C8.39175 10.5347 8.45854 10.4565 8.50712 10.3455C8.5557 10.2332 8.57999 10.0525 8.57999 9.80225C8.57999 9.47022 8.52655 9.24439 8.41847 9.12109C8.31038 8.99902 8.13186 8.93799 7.88169 8.93799H7.6388V8.93677ZM9.98873 8.22754H12.369V8.90137H10.9554V9.44824H12.165V10.083H10.9554V11.3599H9.98994V8.22754H9.98873ZM11.876 6.95801H13.0819C13.5871 6.95801 14 7.37427 14 7.88086V11.7163C14 12.2229 13.5859 12.6392 13.0819 12.6392H11.876V14.2932C11.876 14.4897 11.797 14.6643 11.6695 14.7937C11.5408 14.9231 11.3671 15.0012 11.1716 15.0012C7.59629 15.0012 4.2991 15.0012 0.705593 15.0012C0.510069 15.0012 0.336405 14.9231 0.207675 14.7937C0.0789445 14.6643 0.0012207 14.4897 0.0012207 14.2932V0.714111C0.0012207 0.517578 0.080159 0.343018 0.207675 0.213623C0.336405 0.0842285 0.514926 0.00610352 0.705593 0.00610352H7.83675C7.85254 0 7.86954 0 7.88654 0C7.96427 0 8.04321 0.0341797 8.09907 0.0842285H8.11C8.12093 0.090332 8.127 0.0952149 8.13793 0.106201L11.78 3.81226C11.842 3.87451 11.8869 3.95874 11.8869 4.05396C11.8869 4.08203 11.8808 4.104 11.876 4.1333V6.95801ZM8.19987 3.41431V1.09131L10.8024 3.74023H8.52412C8.43425 3.74023 8.35653 3.70117 8.29459 3.64502C8.23873 3.58887 8.19987 3.50464 8.19987 3.41431Z" fill="#3B0532"/>
</g>
<defs>
<clipPath id="clip0_525_172">
<rect width="14" height="15" fill="white"/>
</clipPath>
</defs>
</svg>
