<svg width="19" height="16" viewBox="0 0 19 16" fill="none" xmlns="http://www.w3.org/2000/svg">
<g clip-path="url(#clip0_525_177)">
<path d="M6.95337 2.02254H4.29386L0 7.777L4.29386 13.5315H6.95337L2.65951 7.777L6.95337 2.02254ZM12.0466 2.02254H14.7061L19 7.777L14.7061 13.5315H12.0466L16.3405 7.777L12.0466 2.02254ZM10.8499 0.00619835L11.7714 0.225161C11.9167 0.259817 12.0064 0.407892 11.974 0.555967L8.49496 15.7872C8.46094 15.9337 8.31559 16.0267 8.17025 15.9936L7.25024 15.7746C7.1049 15.74 7.01522 15.5919 7.04769 15.4438L10.5267 0.212559C10.5607 0.0660586 10.7061 -0.0268823 10.8499 0.00619835Z" fill="#3B0532"/>
</g>
<defs>
<clipPath id="clip0_525_177">
<rect width="19" height="16" fill="white"/>
</clipPath>
</defs>
</svg>
