<svg width="16" height="17" viewBox="0 0 16 17" fill="none" xmlns="http://www.w3.org/2000/svg">
<g clip-path="url(#clip0_525_169)">
<path fill-rule="evenodd" clip-rule="evenodd" d="M9.46529 2.58984H15.0284C15.2976 2.58984 15.5391 2.70605 15.7138 2.89144C15.8897 3.07682 16 3.33415 16 3.61361V15.9762C16 16.2598 15.8897 16.5144 15.7138 16.6984C15.5378 16.8838 15.2936 17 15.0284 17H3.21418C2.94502 17 2.70343 16.8838 2.5288 16.6984C2.35286 16.513 2.24257 16.2557 2.24257 15.9762V9.88623C2.56688 10.0246 2.90563 10.1325 3.2562 10.203V13.0087H3.26013C4.95257 11.3029 6.07386 10.4604 7.7571 9.02018C7.76366 9.0271 7.77023 9.03402 7.77679 9.04093C7.78073 9.04508 7.78073 9.04924 7.78467 9.04924L11.3061 13.439L11.8444 9.9471C11.8812 9.72298 12.0807 9.56942 12.2935 9.60815C12.3749 9.62061 12.4484 9.66349 12.5062 9.72022L14.9772 12.4553V3.86125C14.9772 3.80591 14.9562 3.75749 14.9194 3.72428C14.8866 3.6897 14.838 3.66341 14.7894 3.66341H9.72263C9.6688 3.29264 9.58214 2.93433 9.46529 2.58984ZM4.30527 0C6.68308 0 8.61054 2.03092 8.61054 4.53638C8.61054 7.04183 6.68308 9.07275 4.30527 9.07275C1.92746 9.07275 0 7.04183 0 4.53638C0 2.03092 1.92746 0 4.30527 0ZM2.01805 4.61662H3.46759V6.79696H5.10225V4.61662H6.5938L4.30658 2.27441L2.01805 4.61662ZM12.3775 4.93343C12.7648 4.93343 13.1206 5.10083 13.3727 5.36784C13.6301 5.639 13.785 6.00838 13.785 6.41789C13.785 6.82601 13.6261 7.20093 13.3727 7.46655C13.1154 7.73771 12.7648 7.90096 12.3775 7.90096C11.9902 7.90096 11.6343 7.73356 11.3809 7.46655C11.1236 7.19539 10.9687 6.82601 10.9687 6.41789C10.9687 6.00977 11.1275 5.63623 11.3809 5.36784C11.6396 5.09668 11.9902 4.93343 12.3775 4.93343Z" fill="#3B0532"/>
</g>
<defs>
<clipPath id="clip0_525_169">
<rect width="16" height="17" fill="white"/>
</clipPath>
</defs>
</svg>
