<svg width="17" height="13" viewBox="0 0 17 13" fill="none" xmlns="http://www.w3.org/2000/svg">
<g clip-path="url(#clip0_525_161)">
<path d="M1.52181 3.07227H5.04549L8.04761 0.134657C8.13665 0.0493101 8.25667 0.00146484 8.38171 0.00146484C8.50675 0.00146484 8.62677 0.0493101 8.71582 0.134657C8.76026 0.177602 8.7954 0.22877 8.81916 0.285139C8.84292 0.341508 8.85483 0.401935 8.85417 0.462851V12.5361C8.85381 12.6284 8.82525 12.7185 8.77211 12.7949C8.71897 12.8714 8.64365 12.9308 8.55572 12.9655C8.46779 13.0003 8.37122 13.0088 8.27828 12.9901C8.18535 12.9713 8.10024 12.9261 8.03377 12.8603L5.07039 10.423H1.52181C1.1182 10.423 0.731122 10.2671 0.445728 9.98966C0.160333 9.71219 0 9.33585 0 8.94345L0 4.55049C0 4.15808 0.160333 3.78175 0.445728 3.50428C0.731122 3.2268 1.1182 3.07092 1.52181 3.07092V3.07227ZM10.5309 5.08986C10.5072 5.03471 10.4954 4.97538 10.4964 4.9156C10.4974 4.85582 10.5111 4.79689 10.5366 4.74251C10.5622 4.68814 10.5991 4.63949 10.6449 4.59965C10.6908 4.5598 10.7446 4.52961 10.803 4.51099C10.8615 4.49236 10.9232 4.4857 10.9844 4.49142C11.0457 4.49714 11.105 4.51512 11.1587 4.54422C11.2124 4.57333 11.2593 4.61293 11.2965 4.66054C11.3337 4.70815 11.3604 4.76273 11.3748 4.82084C11.5413 5.40137 11.6141 6.0035 11.5907 6.60574C11.5782 7.24599 11.4827 7.87547 11.296 8.24805C11.272 8.30189 11.237 8.35043 11.1931 8.39075C11.1493 8.43107 11.0975 8.46234 11.0408 8.48267C10.9842 8.50299 10.9239 8.51196 10.8637 8.50902C10.8034 8.50608 10.7443 8.4913 10.6901 8.46556C10.6359 8.43983 10.5875 8.40368 10.5481 8.35929C10.5086 8.31491 10.4787 8.26321 10.4604 8.20731C10.442 8.15141 10.4355 8.09247 10.4412 8.03405C10.4469 7.97563 10.4647 7.91894 10.4936 7.8674C10.6222 7.60915 10.6914 7.11551 10.7011 6.59229C10.7224 6.08822 10.665 5.58393 10.5309 5.09658V5.08986ZM12.833 3.47578C12.7875 3.36876 12.7876 3.24856 12.8333 3.1416C12.8789 3.03465 12.9664 2.94971 13.0765 2.90548C13.1866 2.86124 13.3102 2.86133 13.4202 2.90573C13.5302 2.95013 13.6176 3.03519 13.6631 3.14221C14.0781 4.10796 14.3009 5.32524 14.3202 6.53445C14.3396 7.74366 14.1584 8.91789 13.7668 9.86616C13.745 9.91915 13.7127 9.96745 13.6717 10.0083C13.6307 10.0491 13.5818 10.0817 13.5279 10.1042C13.4739 10.1267 13.416 10.1386 13.3573 10.1393C13.2986 10.14 13.2403 10.1295 13.1858 10.1083C13.1313 10.0871 13.0816 10.0556 13.0396 10.0158C12.9976 9.97593 12.9641 9.92841 12.9409 9.87595C12.9178 9.82349 12.9055 9.76712 12.9048 9.71005C12.9041 9.65298 12.915 9.59634 12.9368 9.54335C13.2813 8.69461 13.4403 7.62126 13.4196 6.53714C13.3988 5.45302 13.201 4.33662 12.8275 3.46906L12.833 3.47578ZM15.059 2.09979C15.0336 2.04856 15.0188 1.99297 15.0154 1.93618C15.0121 1.87939 15.0203 1.82252 15.0396 1.76881C15.0588 1.71511 15.0888 1.66562 15.1277 1.62317C15.1667 1.58072 15.2138 1.54614 15.2665 1.52141C15.3192 1.49668 15.3764 1.48229 15.4348 1.47904C15.4932 1.4758 15.5517 1.48377 15.6069 1.50251C15.7185 1.54034 15.81 1.61972 15.8614 1.72317C16.6035 3.25694 16.9925 4.92961 17.0014 6.62457C17.0138 8.26823 16.6735 9.90517 15.932 11.3013C15.8769 11.4035 15.7824 11.4803 15.6691 11.5147C15.5559 11.5492 15.4332 11.5384 15.3281 11.4849C15.223 11.4314 15.144 11.3395 15.1086 11.2294C15.0732 11.1193 15.0842 11 15.1392 10.8978C15.8144 9.62943 16.1229 8.13238 16.1077 6.62457C16.1007 5.05765 15.7419 3.51112 15.0562 2.09306L15.059 2.09979ZM5.24194 4.00036H1.52181C1.37172 4.00071 1.22787 4.05874 1.12161 4.1618C1.01536 4.26485 0.95532 4.40457 0.95459 4.55049V8.94614C0.95532 9.09206 1.01536 9.23178 1.12161 9.33483C1.22787 9.43788 1.37172 9.49592 1.52181 9.49627H5.24333C5.24333 9.49627 5.52002 9.58908 5.54907 9.60791L7.90788 11.5408V1.58732L5.60579 3.8376C5.56083 3.88867 5.50503 3.92966 5.44222 3.95776C5.37941 3.98585 5.31108 4.00039 5.24194 4.00036Z" fill="white"/>
</g>
<defs>
<clipPath id="clip0_525_161">
<rect width="17" height="13" fill="white"/>
</clipPath>
</defs>
</svg>
