<svg width="14" height="14" viewBox="0 0 14 14" fill="none" xmlns="http://www.w3.org/2000/svg">
<g clip-path="url(#clip0_422_47)">
<path d="M0.910399 10.2434C0.910399 9.99141 0.706461 9.78727 0.454671 9.78727C0.20288 9.78727 -0.00105858 9.99141 -0.00105858 10.2434V13.5222C-0.00105858 13.7742 0.20288 13.9784 0.454671 13.9784H3.78377C4.03556 13.9784 4.2395 13.7742 4.2395 13.5222C4.2395 13.2702 4.03556 13.066 3.78377 13.066H1.59855L5.51326 9.36189C5.69556 9.18968 5.70467 8.90229 5.53263 8.71868C5.36059 8.53621 5.07349 8.52709 4.89005 8.69929L0.910399 12.465V10.2434ZM3.76668 0.911251C4.01847 0.911251 4.22241 0.707113 4.22241 0.455076C4.22241 0.20304 4.01847 -0.00109863 3.76668 -0.00109863H0.491129C0.239338 -0.00109863 0.0353994 0.20304 0.0353994 0.455076V3.78629C0.0353994 4.03833 0.239338 4.24247 0.491129 4.24247C0.742919 4.24247 0.946858 4.03833 0.946858 3.78629V1.60007L4.64738 5.51861C4.81942 5.70108 5.10653 5.71021 5.28996 5.538C5.47225 5.3658 5.48136 5.07841 5.30933 4.8948L1.54728 0.911251H3.76668ZM13.0898 3.73611C13.0898 3.98815 13.2937 4.19229 13.5455 4.19229C13.7973 4.19229 14.0012 3.98815 14.0012 3.73611V0.457357C14.0012 0.20532 13.7973 0.00118224 13.5455 0.00118224H10.2175C9.96574 0.00118224 9.7618 0.20532 9.7618 0.457357C9.7618 0.709394 9.96574 0.913532 10.2175 0.913532H12.4016L8.4869 4.61767C8.30461 4.78988 8.29549 5.07727 8.46753 5.26088C8.63957 5.44335 8.92668 5.45247 9.11011 5.28026L13.0898 1.51454V3.73611ZM10.2472 13.0888C9.99536 13.0888 9.79142 13.293 9.79142 13.545C9.79142 13.797 9.99536 14.0012 10.2472 14.0012H13.5227C13.7745 14.0012 13.9784 13.797 13.9784 13.545V10.2127C13.9784 9.96062 13.7745 9.75648 13.5227 9.75648C13.2709 9.75648 13.067 9.96062 13.067 10.2127V12.4L9.36646 8.48147C9.19442 8.299 8.90731 8.28988 8.72388 8.46208C8.54158 8.63429 8.53247 8.92168 8.70451 9.10529L12.4666 13.0888H10.2472Z" fill="#B99750"/>
</g>
<defs>
<clipPath id="clip0_422_47">
<rect width="14" height="14" fill="white" transform="matrix(-1 0 0 1 14 0)"/>
</clipPath>
</defs>
</svg>
