<svg width="17" height="9" viewBox="0 0 17 9" fill="none" xmlns="http://www.w3.org/2000/svg">
<g clipPath="url(#clip0_1529_2)">
<path d="M0.131427 4.15141C0.535398 3.66309 0.958738 3.21904 1.3973 2.81925C3.38118 1.01399 5.73584 0.0498071 8.16382 0.00139022C10.5863 -0.0470266 13.071 0.81756 15.3163 2.66985C15.8531 3.11252 16.3719 3.60637 16.8713 4.15556C17.0318 4.33262 17.0401 4.59407 16.9032 4.77944C16.3318 5.58593 15.6746 6.27621 14.9566 6.84892C13.1595 8.28344 10.9764 8.98894 8.76424 9.00001C6.56038 9.00969 4.32885 8.32771 2.42798 6.98448C1.57853 6.38411 0.794106 5.65233 0.106524 4.79189C-0.0470402 4.59822 -0.0318221 4.32571 0.131427 4.15141ZM8.5 3.66032C8.58162 3.66032 8.66186 3.67277 8.73657 3.69352C8.67293 3.76269 8.63558 3.85537 8.63558 3.95636C8.63558 4.17216 8.80989 4.34646 9.02571 4.34646C9.13224 4.34646 9.2277 4.30496 9.29826 4.23579C9.32593 4.31879 9.33976 4.40732 9.33976 4.49862C9.33976 4.96204 8.96346 5.33831 8.5 5.33831C8.03654 5.33831 7.66024 4.96204 7.66024 4.49862C7.66024 4.03659 8.03654 3.66032 8.5 3.66032ZM8.5 1.49678C9.32869 1.49678 10.0799 1.83293 10.6236 2.37658C11.1673 2.92023 11.5035 3.67 11.5035 4.50001C11.5035 5.32863 11.1673 6.07978 10.6236 6.62343C10.0799 7.16708 9.33008 7.50324 8.5 7.50324C7.6713 7.50324 6.92008 7.16708 6.37638 6.62343C5.83268 6.07978 5.4965 5.33001 5.4965 4.50001C5.4965 3.67139 5.83268 2.92023 6.37638 2.37658C6.92008 1.83293 7.6713 1.49678 8.5 1.49678ZM9.94572 3.05442C9.57633 2.68507 9.06445 2.45543 8.5 2.45543C7.93554 2.45543 7.42366 2.68368 7.05428 3.05442C6.68489 3.42377 6.45524 3.9356 6.45524 4.50001C6.45524 5.06441 6.68351 5.57624 7.05428 5.9456C7.42366 6.31495 7.93554 6.54458 8.5 6.54458C9.06445 6.54458 9.57633 6.31633 9.94572 5.9456C10.3151 5.57624 10.5448 5.06441 10.5448 4.50001C10.5448 3.9356 10.3151 3.42377 9.94572 3.05442ZM2.05997 3.5455C1.73901 3.83739 1.42912 4.15279 1.13305 4.48894C1.69612 5.14188 2.32283 5.70628 2.99381 6.18076C4.72868 7.40502 6.75822 8.02752 8.76147 8.01922C10.7564 8.00954 12.7251 7.3732 14.3465 6.07978C14.8999 5.63849 15.4118 5.11974 15.8725 4.52352C15.4865 4.12097 15.0936 3.75715 14.6951 3.42792C12.6352 1.73056 10.376 0.939294 8.18319 0.982177C5.99593 1.02644 3.86401 1.90348 2.05997 3.5455Z" fill="#3F3D56"/>
</g>
<defs>
<clipPath id="clip0_1529_2">
<rect width="17" height="9" fill="white"/>
</clipPath>
</defs>
</svg>
