<svg width="43" height="53" viewBox="0 0 43 53" fill="none" xmlns="http://www.w3.org/2000/svg">
<g clip-path="url(#clip0_137_1268)">
<path d="M28.0505 5.6071L37.6538 15.6179H28.0505V5.6071ZM18.4775 30.9124C18.233 31.1938 17.886 31.3671 17.5128 31.3942C17.1397 31.4213 16.771 31.2999 16.4879 31.0568C16.2048 30.8138 16.0304 30.4689 16.0031 30.098C15.9759 29.7271 16.0979 29.3607 16.3425 29.0793L20.4303 24.3736C20.6758 24.0928 21.0233 23.9202 21.3966 23.8935C21.77 23.8668 22.1387 23.9883 22.4221 24.2313C22.4833 24.287 22.5412 24.346 22.5957 24.4081L26.6314 28.842C26.8818 29.1172 27.0119 29.4798 26.9932 29.8503C26.9744 30.2208 26.8084 30.5687 26.5316 30.8175C26.2548 31.0663 25.89 31.1956 25.5172 31.177C25.1445 31.1584 24.7945 30.9934 24.5442 30.7183L22.9125 28.9283V35.5921C22.9125 35.7768 22.8759 35.9596 22.8048 36.1302C22.7337 36.3008 22.6295 36.4558 22.4982 36.5864C22.3668 36.7169 22.2108 36.8205 22.0392 36.8912C21.8676 36.9618 21.6836 36.9982 21.4978 36.9982C21.3121 36.9982 21.1281 36.9618 20.9565 36.8912C20.7848 36.8205 20.6289 36.7169 20.4975 36.5864C20.3661 36.4558 20.2619 36.3008 20.1908 36.1302C20.1197 35.9596 20.0832 35.7768 20.0832 35.5921V29.062L18.4775 30.9124ZM10.5102 36.8429C10.5102 36.47 10.6593 36.1124 10.9246 35.8487C11.1899 35.585 11.5497 35.4369 11.9249 35.4369C12.3001 35.4369 12.6599 35.585 12.9252 35.8487C13.1905 36.1124 13.3396 36.47 13.3396 36.8429V40.0605H29.6648V36.8429C29.6541 36.652 29.6827 36.461 29.7489 36.2814C29.8151 36.1019 29.9174 35.9377 30.0496 35.7988C30.1818 35.6599 30.3411 35.5492 30.5178 35.4736C30.6945 35.398 30.8849 35.359 31.0773 35.359C31.2696 35.359 31.46 35.398 31.6367 35.4736C31.8134 35.5492 31.9727 35.6599 32.1049 35.7988C32.2371 35.9377 32.3394 36.1019 32.4056 36.2814C32.4718 36.461 32.5004 36.652 32.4898 36.8429V41.4666C32.4898 41.8396 32.3407 42.1972 32.0754 42.4609C31.8101 42.7246 31.4503 42.8727 31.0751 42.8727H11.9249C11.5497 42.8727 11.1899 42.7246 10.9246 42.4609C10.6593 42.1972 10.5102 41.8396 10.5102 41.4666V36.8429ZM42.9957 16.9032C43.0608 16.6574 42.4836 16.0104 41.8327 15.3678L27.6859 0.586589C27.5399 0.405374 27.355 0.258728 27.1449 0.157274C26.9347 0.0558192 26.7045 0.00209728 26.4709 0L2.87274 0C2.11084 0 1.38015 0.300826 0.841407 0.8363C0.302663 1.37177 0 2.09803 0 2.85531L0 50.1447C0 50.5197 0.0743057 50.891 0.218674 51.2374C0.363043 51.5838 0.574648 51.8986 0.841407 52.1637C1.10817 52.4288 1.42485 52.6392 1.77339 52.7827C2.12193 52.9261 2.49549 53 2.87274 53H40.1229C40.5002 53 40.8737 52.9261 41.2223 52.7827C41.5708 52.6392 41.8875 52.4288 42.1543 52.1637C42.421 51.8986 42.6326 51.5838 42.777 51.2374C42.9214 50.891 42.9957 50.5197 42.9957 50.1447V16.9032ZM39.7844 18.8097V49.8083H3.21122V3.17879H24.8436V17.2095C24.8436 17.4211 24.8858 17.6306 24.9678 17.8258C25.0498 18.0211 25.1699 18.1983 25.3212 18.3471C25.4726 18.4959 25.6521 18.6134 25.8495 18.6928C26.0468 18.7722 26.258 18.8119 26.4709 18.8097H39.7844Z" fill="#B99750"/>
</g>
<defs>
<clipPath id="clip0_137_1268">
<rect width="43" height="53" fill="white"/>
</clipPath>
</defs>
</svg>
