<svg width="16" height="14" viewBox="0 0 16 14" fill="none" xmlns="http://www.w3.org/2000/svg">
<g clip-path="url(#clip0_866_363)">
<path fill-rule="evenodd" clip-rule="evenodd" d="M10.8236 6.9204C11.7804 6.9204 12.6482 7.31754 13.2754 7.95775C13.9023 8.59795 14.2914 9.48346 14.2914 10.4602C14.2914 11.4369 13.9023 12.3228 13.2754 12.963C12.6482 13.6032 11.7804 14 10.8236 14C9.86668 14 8.99887 13.6032 8.372 12.963C7.74481 12.3228 7.35575 11.4369 7.35575 10.4602C7.35575 9.48346 7.74481 8.59795 8.372 7.95775C8.99887 7.31754 9.86668 6.9204 10.8236 6.9204ZM5.89794 12.6389H6.94231C7.09481 12.9209 7.27637 13.1843 7.48231 13.4261H5.12669V7.65407L0.37856 1.97292C0.186373 1.71614 0.0716853 1.46509 0.0248103 1.23542C-0.0248772 0.985656 0.0026228 0.756943 0.0976228 0.562361C0.196685 0.3614 0.36106 0.205096 0.580123 0.108762C0.761373 0.0309298 0.980748 -0.00862456 1.22856 0.00158301L14.9554 0.000626051C15.1786 0.00349693 15.3648 0.0440082 15.5148 0.11578C15.7332 0.220089 15.8776 0.385643 15.9498 0.59107C16.0151 0.77672 16.0161 0.985976 15.9601 1.20033C15.9007 1.42777 15.7717 1.67467 15.5845 1.91199L12.1026 6.129C11.8257 6.04383 11.5373 5.98609 11.2407 5.95738L14.9864 1.42107C15.1036 1.27019 15.1839 1.12346 15.2164 0.99714C15.2329 0.933662 15.2367 0.8839 15.227 0.854872C15.2239 0.846259 15.2111 0.835733 15.1898 0.825525C15.1379 0.800963 15.0595 0.78629 14.9554 0.785971H1.21044C1.07356 0.778953 0.963248 0.794903 0.884185 0.829672C0.833873 0.852958 0.79981 0.881667 0.784498 0.912609C0.76606 0.949611 0.762935 1.00575 0.776685 1.07593C0.800748 1.19236 0.86856 1.33303 0.986373 1.49189L5.80419 7.25566L5.89794 7.51085V12.6389ZM3.10794 1.49891L5.26919 4.08429L4.68575 4.59499L2.5245 2.0096L3.10794 1.49891ZM5.75825 4.66931L6.52231 5.58353L5.93856 6.09423L5.1745 5.18001L5.75825 4.66931ZM11.8501 8.68759C11.8051 8.65665 11.7545 8.64293 11.7026 8.65346C11.6511 8.66366 11.607 8.6911 11.5764 8.73671L11.4014 8.98807C11.2836 8.93416 11.1329 8.89908 11.0051 8.88026L10.9501 8.55138C10.9395 8.49619 10.912 8.45409 10.8714 8.42219C10.827 8.39093 10.7792 8.38008 10.7245 8.39093L10.3204 8.4643C10.2695 8.47514 10.2282 8.4997 10.1942 8.54468C10.1632 8.58998 10.1501 8.63942 10.1595 8.69492L10.2111 8.99509C10.087 9.04836 9.96387 9.12587 9.85856 9.212L9.58481 9.01933C9.54075 8.98807 9.49293 8.97436 9.44137 8.9852C9.39043 8.99509 9.34575 9.02316 9.31481 9.06878L9.08231 9.40754C9.05168 9.45252 9.03794 9.50483 9.04825 9.55746C9.05825 9.61329 9.08575 9.65507 9.13012 9.68665L9.37637 9.86497C9.3245 9.98459 9.28887 10.1403 9.27044 10.2698L8.94918 10.3259C8.8945 10.3364 8.85325 10.3642 8.822 10.406C8.79169 10.4516 8.78168 10.5004 8.79169 10.5559L8.86294 10.968C8.87356 11.0207 8.89762 11.0628 8.94231 11.0975C8.98606 11.1291 9.0345 11.1428 9.0895 11.1323L9.38356 11.08C9.43762 11.2117 9.512 11.3298 9.59544 11.4433L9.40731 11.7189C9.37637 11.7642 9.36294 11.8137 9.37325 11.866C9.38356 11.918 9.41106 11.9636 9.45512 11.9948L9.79043 12.2357C9.83512 12.2676 9.88606 12.2778 9.93731 12.2676C9.98887 12.257 10.0329 12.2322 10.0676 12.1869L10.242 11.932C10.3617 11.9862 10.5092 12.02 10.6389 12.0405L10.6939 12.3687C10.7039 12.4248 10.7311 12.4669 10.772 12.4979C10.817 12.5291 10.8648 12.5397 10.9192 12.5291L11.3232 12.4561C11.3745 12.4456 11.4151 12.421 11.4498 12.3754C11.4804 12.3301 11.4939 12.2816 11.4839 12.2255L11.4326 11.9253C11.5626 11.8692 11.6757 11.7942 11.7886 11.7087L12.0589 11.9007C12.1029 11.932 12.1507 11.946 12.2057 11.9355C12.2601 11.9253 12.3014 11.8972 12.3323 11.8519L12.5682 11.5093C12.5989 11.464 12.6092 11.4117 12.5989 11.3597C12.5889 11.3068 12.5648 11.2615 12.5207 11.2267L12.2707 11.0519C12.3226 10.9326 12.3582 10.7769 12.3767 10.6474L12.6979 10.5913C12.7529 10.5808 12.7942 10.5527 12.8254 10.5106C12.8557 10.4656 12.8661 10.4168 12.8557 10.3607L12.7842 9.94886C12.7736 9.89591 12.7495 9.85444 12.7051 9.81967C12.6611 9.78777 12.6126 9.77374 12.5576 9.78426L12.2636 9.8369C12.2073 9.70643 12.1395 9.58904 12.0517 9.4774L12.2398 9.19797C12.2707 9.15235 12.2845 9.10355 12.2739 9.05123C12.2636 8.9986 12.2361 8.95362 12.192 8.92172L11.8601 8.6844L11.8501 8.68759ZM10.8242 9.57979C11.3004 9.57979 11.6867 9.97374 11.6867 10.4602C11.6867 10.9467 11.3004 11.3406 10.8242 11.3406C10.3476 11.3406 9.96137 10.9467 9.96137 10.4602C9.96137 9.97374 10.3476 9.57979 10.8242 9.57979Z" fill="#3B0532"/>
</g>
<defs>
<clipPath id="clip0_866_363">
<rect width="16" height="14" fill="white"/>
</clipPath>
</defs>
</svg>
