<svg width="16" height="15" viewBox="0 0 16 15" fill="none" xmlns="http://www.w3.org/2000/svg">
<g clip-path="url(#clip0_99_5)">
<path fill-rule="evenodd" clip-rule="evenodd" d="M0 7.20981H3.20883V12.9193H0V7.20981ZM10.8089 2.09869C10.9873 1.69678 11.1837 1.31555 11.4202 0.993762C11.8971 0.338557 13.064 -0.449757 13.7774 0.314002C14.4158 0.996346 13.8743 1.74331 13.1144 2.09869H14.8358C14.9689 2.09869 15.0943 2.15426 15.1796 2.24343C15.2687 2.3326 15.3243 2.45408 15.3243 2.58719V3.51507C15.3243 3.64818 15.2687 3.77354 15.1796 3.85883C15.0994 3.93895 14.9935 3.99194 14.8746 4.00099V8.36773C15.7792 8.44914 16.2677 9.47783 15.5039 10.2313C13.7076 11.5378 11.8661 12.613 9.98186 13.4814C8.6133 14.3137 7.24473 14.2853 5.87746 13.4814L3.85628 12.4398V7.66858H6.00282C6.17857 7.6996 6.35433 7.74354 6.53008 7.79782V4.00357C6.40731 3.99582 6.29746 3.94283 6.21346 3.86142C6.12429 3.77225 6.06872 3.65077 6.06872 3.51766V2.58977C6.06872 2.45667 6.12429 2.33131 6.21346 2.24602C6.30263 2.15685 6.42411 2.10128 6.55722 2.10128H8.3096C7.55231 1.74589 7.01082 0.998931 7.64664 0.316587C8.36 -0.449757 9.52567 0.341141 10.0038 0.996346C10.2403 1.32072 10.4368 1.70195 10.6151 2.10128H10.8064L10.8089 2.09869ZM13.0563 9.05395H10.8865C11.2793 9.31241 11.3621 9.8358 10.8141 10.2106C10.23 10.6396 9.45847 10.6151 8.66758 10.544C8.12222 10.5169 8.09896 11.2496 8.66758 11.2522C8.8653 11.2677 9.07982 11.2212 9.26721 11.2212C10.2545 11.2199 11.0661 11.0312 11.5637 10.2519L11.8131 9.66909L13.0563 9.05395ZM6.93329 7.94126C7.39594 8.12348 7.85729 8.36902 8.31994 8.64558H10.0672V6.85959H6.93329V7.94126ZM13.8795 8.64558L14.2943 8.4401C14.3538 8.42071 14.4132 8.40521 14.4714 8.39228V6.85959H14.4688H11.3776V8.64558H13.8795ZM12.3662 2.09869C14.1069 1.32718 13.5293 0.0271079 12.4269 0.655174C12.1685 0.802499 11.9526 1.07776 11.7575 1.35173C11.574 1.6102 11.4099 1.88158 11.2884 2.09869H12.3662ZM9.05656 2.09869C7.31581 1.32718 7.89348 0.0271079 8.99582 0.655174C9.25429 0.802499 9.47011 1.07776 9.66525 1.35173C9.84875 1.6102 10.0129 1.88158 10.1344 2.09869H9.05656ZM6.93329 5.77405H10.0672V3.80843H6.93329V5.77405ZM11.375 5.77405H14.4649V3.80843H11.375V5.77405Z" fill="white"/>
</g>
<defs>
<clipPath id="clip0_99_5">
<rect width="15.88" height="14.0953" fill="white"/>
</clipPath>
</defs>
</svg>
