<svg width="91" height="67" viewBox="0 0 91 67" fill="none" xmlns="http://www.w3.org/2000/svg">
<rect x="0.5" y="0.5" width="90" height="66" rx="5.5" fill="#EFFDEC" stroke="#B99750"/>
<line x1="1" y1="15.5" x2="91" y2="15.5" stroke="#B99750"/>
<circle cx="10" cy="8" r="3" fill="#B99750"/>
<circle cx="19" cy="8" r="3" fill="#B99750"/>
<circle cx="28" cy="8" r="3" fill="#B99750"/>
<g clip-path="url(#clip0_557_2)">
<path d="M28.8729 53.1411L30.549 56.0397C30.8984 56.6498 31.3963 57.1298 31.987 57.4766L37.9709 47.1023H26C26 47.7774 26.1732 48.4525 26.5226 49.0626L28.8729 53.1411Z" fill="#1967D2"/>
<path d="M45 34.8977L39.0161 24.5233C38.4285 24.8733 37.9276 25.3502 37.5781 25.9633L26.5226 45.142C26.1825 45.7365 26 46.4147 26 47.1022H37.9709L45 34.8977Z" fill="#34A853"/>
<path d="M58.016 57.4766C58.6036 57.1267 59.1046 56.6497 59.454 56.0397L60.1498 54.8412L63.4804 49.0656C63.8298 48.4556 64.003 47.7805 64.003 47.1053H52.0291L54.5772 52.1191L58.016 57.4766Z" fill="#EA4335"/>
<path d="M45 34.8977L50.9839 24.5234C50.3963 24.1734 49.7222 24 49.0264 24H40.9736C40.2778 24 39.6037 24.1951 39.0161 24.5234L45 34.8977Z" fill="#188038"/>
<path d="M52.0292 47.1023H37.9709L31.9871 57.4766C32.5746 57.8266 33.2488 58 33.9446 58H56.0556C56.7514 58 57.4286 57.8049 58.0131 57.4766L52.0292 47.1023Z" fill="#4285F4"/>
<path d="M57.9482 35.5511L52.422 25.9603C52.0725 25.3502 51.5746 24.8702 50.9871 24.5203L45.0032 34.8946L52.0292 47.1023H63.9784C63.9784 46.4272 63.8053 45.7521 63.4558 45.142L57.9482 35.5511Z" fill="#FBBC04"/>
</g>
<defs>
<clipPath id="clip0_557_2">
<rect width="38" height="34" fill="white" transform="translate(26 24)"/>
</clipPath>
</defs>
</svg>
