<svg width="37" height="37" viewBox="0 0 37 37" fill="none" xmlns="http://www.w3.org/2000/svg">
    <g clip-path="url(#clip0_328_223)">
        <path
            d="M13.7131 0.631995C17.8497 -0.47976 22.2438 -0.122649 26.1465 1.64247C30.0493 3.40758 33.2192 6.47146 35.116 10.3119C37.0128 14.1524 37.5191 18.5318 36.5486 22.7038C35.5781 26.8758 33.191 30.5821 29.7939 33.1912C26.3968 35.8002 22.2001 37.1505 17.919 37.012C13.6379 36.8734 9.53732 35.2545 6.31611 32.4312C3.0949 29.6079 0.952411 25.755 0.253785 21.529C-0.44484 17.303 0.343632 12.9655 2.48483 9.25569C3.69623 7.14962 5.31177 5.30362 7.23865 3.8237C9.16554 2.34379 11.3658 1.25912 13.7131 0.631995ZM9.21757 21.1675C9.92694 22.0938 10.7738 22.9061 11.7288 23.5763C13.8153 25.0107 16.2974 25.758 18.8289 25.7142C21.3055 25.7007 23.711 24.8852 25.6851 23.3896C26.506 22.7585 27.225 22.005 27.8169 21.1554C27.8267 21.1413 27.8416 21.1315 27.8585 21.1281C27.8753 21.1248 27.8928 21.1281 27.9073 21.1374L28.6058 21.8269C28.6154 21.8383 28.6206 21.8527 28.6206 21.8675C28.6206 21.8824 28.6154 21.8968 28.6058 21.9082C27.6155 23.6308 26.246 25.1054 24.6011 26.22C22.9042 27.353 20.9199 27.9796 18.8801 28.0267C16.8108 28.059 14.7737 27.5114 12.9995 26.4459C11.1422 25.3169 9.56665 23.7794 8.39254 21.9504C8.38397 21.9385 8.37936 21.9243 8.37936 21.9097C8.37936 21.8951 8.38397 21.8809 8.39254 21.8691L9.10917 21.1584C9.12144 21.147 9.13758 21.1407 9.15434 21.1407C9.1711 21.1407 9.18724 21.147 9.19951 21.1584L9.21757 21.1675ZM22.9541 10.2042C24.1766 10.2042 25.1672 11.6405 25.1672 13.411C25.1672 15.1815 24.1766 16.6147 22.9541 16.6147C21.7316 16.6147 20.7409 15.1785 20.7409 13.411C20.7409 11.6435 21.7316 10.2042 22.9541 10.2042ZM14.0473 10.2042C15.2698 10.2042 16.2605 11.6405 16.2605 13.411C16.2605 15.1815 15.2698 16.6147 14.0473 16.6147C12.8248 16.6147 11.8342 15.1785 11.8342 13.411C11.8342 11.6435 12.8248 10.2042 14.0473 10.2042ZM26.7239 4.25732C23.4283 2.35199 19.5738 1.64847 15.8176 2.26667C12.0613 2.88487 8.63562 4.78653 6.12439 7.64755C3.61316 10.5086 2.17176 14.1519 2.04586 17.9566C1.91996 21.7613 3.11734 25.492 5.43394 28.5128C7.75054 31.5336 11.043 33.6575 14.7502 34.5227C18.4574 35.3879 22.3499 34.9407 25.7643 33.2574C29.1787 31.5741 31.9038 28.7589 33.475 25.2915C35.0463 21.8241 35.3665 17.9191 34.3811 14.242C33.825 12.1556 32.8623 10.1995 31.5483 8.48601C30.2343 6.77256 28.5948 5.3355 26.7239 4.25732Z"
            fill="#00BF7E" />
    </g>
    <defs>
        <clipPath id="clip0_328_223">
            <rect width="37" height="37" fill="white" />
        </clipPath>
    </defs>
</svg>
    