<svg width="32" height="28" viewBox="0 0 32 28" fill="none" xmlns="http://www.w3.org/2000/svg">
<g clip-path="url(#clip0_64_205)">
<path fill-rule="evenodd" clip-rule="evenodd" d="M29.0019 27.9946V15.6177C29.6116 15.8563 30.1817 15.8617 30.6556 15.6969C31.0254 15.5699 31.3377 15.342 31.567 15.0474C31.7961 14.7533 31.9418 14.3953 31.9864 14.0001C32.0539 13.3878 31.8743 12.6955 31.3612 12.046C31.3352 12.0141 31.3064 11.9823 31.2727 11.9558L16.4146 0.146547C16.2221 -0.0337443 15.925 -0.0526453 15.7117 0.117527L0.819633 11.9057C0.79607 11.924 0.77507 11.9429 0.754633 11.9669C0.0644455 12.7223 -0.107616 13.5602 0.0591946 14.2683C0.140434 14.6107 0.303177 14.9275 0.53307 15.1908C0.761955 15.4533 1.05197 15.653 1.37645 15.7716C1.89763 15.9622 2.51726 15.9572 3.14488 15.6546V27.9625L4.6032 27.9628V15.0026C4.6032 14.7347 14.8183 6.51268 15.946 5.61924C17.141 6.5445 27.5439 14.7004 27.5439 15.0449V28L29.0019 27.9946ZM15.6384 11.8429H13.8567C13.8175 11.8431 13.78 11.859 13.7523 11.8872C13.7245 11.9155 13.7089 11.9537 13.7087 11.9936V13.5286C13.709 13.5685 13.7247 13.6066 13.7524 13.6348C13.7801 13.663 13.8175 13.679 13.8567 13.6793H15.6384C15.6776 13.6791 15.7152 13.6632 15.7429 13.635C15.7706 13.6068 15.7862 13.5685 15.7864 13.5286V11.9936C15.7864 11.9536 15.7708 11.9153 15.743 11.8871C15.7153 11.8588 15.6777 11.8429 15.6384 11.8429ZM18.1432 11.8429H16.3615C16.3223 11.8431 16.2848 11.859 16.2571 11.8872C16.2294 11.9155 16.2137 11.9537 16.2135 11.9936V13.5286C16.2138 13.5685 16.2295 13.6066 16.2572 13.6348C16.2849 13.663 16.3224 13.679 16.3615 13.6793H18.1432C18.1824 13.6792 18.2199 13.6632 18.2476 13.635C18.2754 13.6068 18.291 13.5685 18.2912 13.5286V11.9936C18.2912 11.9536 18.2756 11.9153 18.2478 11.8871C18.2201 11.8588 18.1824 11.8429 18.1432 11.8429ZM15.6384 9.58648H13.8567C13.8175 9.58668 13.78 9.60262 13.7523 9.63084C13.7245 9.65905 13.7089 9.69727 13.7087 9.73717V11.2722C13.709 11.3121 13.7247 11.3502 13.7524 11.3784C13.7801 11.4066 13.8175 11.4226 13.8567 11.4229H15.6384C15.6776 11.4227 15.7152 11.4068 15.7429 11.3786C15.7706 11.3503 15.7862 11.3121 15.7864 11.2722V9.73717C15.7864 9.69722 15.7708 9.65892 15.743 9.63067C15.7153 9.60242 15.6777 9.58653 15.6384 9.58648ZM18.1432 9.58648H16.3615C16.3223 9.58676 16.2849 9.60273 16.2572 9.63093C16.2295 9.65913 16.2138 9.69729 16.2135 9.73717V11.2722C16.2135 11.3539 16.2813 11.4229 16.3615 11.4229H18.1432C18.1824 11.4226 18.2198 11.4067 18.2475 11.3785C18.2752 11.3503 18.2909 11.3121 18.2912 11.2722V9.73717C18.2912 9.69722 18.2756 9.65891 18.2478 9.63065C18.2201 9.6024 18.1824 9.58651 18.1432 9.58648ZM22.3658 24.9614C22.3489 21.9237 22.3321 19.4087 22.3152 16.3831C22.3148 16.287 22.282 16.1939 22.2223 16.1195C22.1626 16.0451 22.0795 15.9939 21.9871 15.9744L21.9874 15.9738C19.9581 15.5426 17.2962 15.9977 15.9786 17.7807C14.5903 16.0465 12.0304 15.6629 9.97269 15.969C9.87466 15.9837 9.78507 16.0337 9.72027 16.11C9.65547 16.1863 9.61977 16.2838 9.6197 16.3847C9.61888 16.3847 9.6192 24.2936 9.6192 24.9985C9.61917 25.0621 9.63329 25.1248 9.66048 25.1821C9.68768 25.2393 9.72725 25.2895 9.77622 25.3289C9.8252 25.3683 9.8823 25.3959 9.94324 25.4096C10.0042 25.4233 10.0674 25.4228 10.1281 25.4081C11.0324 25.263 12.2938 25.3833 13.1486 25.6943C13.8371 25.9444 14.5134 26.3184 15.1801 26.7773C14.2675 26.4857 13.3558 26.3652 12.444 26.3711C11.3887 26.3779 9.95663 26.5531 8.91269 26.8271C8.91269 23.6401 8.91294 20.9744 8.91294 17.788H8.49944C8.44515 17.788 8.39139 17.7988 8.34122 17.8199C8.29106 17.8411 8.24547 17.8721 8.20707 17.9111C8.16866 17.9502 8.1382 17.9966 8.1174 18.0477C8.09661 18.0987 8.0859 18.1535 8.08588 18.2088V27.3778C8.08587 27.4447 8.10152 27.5107 8.13156 27.5702C8.16159 27.6297 8.20513 27.6811 8.25857 27.7201C8.312 27.7591 8.3738 27.7845 8.43882 27.7943C8.50385 27.8041 8.57022 27.7979 8.63244 27.7764C9.78513 27.4403 11.314 27.2167 12.4471 27.2093C13.5519 27.2023 14.6573 27.3997 15.7654 27.8986C15.835 27.9453 15.9169 27.9696 16.0003 27.9684C16.0835 27.9696 16.1652 27.9452 16.2348 27.8986C17.3429 27.3997 18.4483 27.2023 19.5531 27.2093C20.6859 27.2167 22.2151 27.4403 23.3677 27.7764C23.4107 27.7911 23.4557 27.7987 23.5011 27.7986C23.6107 27.7986 23.7158 27.7543 23.7933 27.6753C23.8708 27.5964 23.9143 27.4894 23.9143 27.3778V18.2088C23.9143 18.0972 23.8708 17.9902 23.7933 17.9112C23.7158 17.8323 23.6107 17.788 23.5011 17.788H23.0875V26.8271C22.0433 26.5531 20.6115 26.3779 19.5562 26.3711C18.5816 26.3646 17.6071 26.5029 16.6314 26.8398C17.2384 26.3387 17.915 25.972 18.6364 25.7323C19.5454 25.4301 20.9138 25.3298 21.9202 25.4177C21.9743 25.4222 22.0287 25.4159 22.0803 25.399C22.132 25.3821 22.1799 25.3551 22.2213 25.3193C22.2627 25.2836 22.2967 25.2399 22.3215 25.1908C22.3463 25.1417 22.3614 25.088 22.3658 25.033C22.3678 25.0091 22.3678 24.9852 22.3658 24.9614ZM10.4457 16.7573C12.2686 16.5822 14.5286 16.9503 15.5803 18.6563V26.0377C14.8788 25.5608 14.1624 25.1695 13.4263 24.9019C12.587 24.5969 11.3389 24.4527 10.4457 24.5251V16.7573ZM16.4069 25.9568V18.6437C17.3773 16.903 19.6976 16.4763 21.4936 16.7377L21.5401 24.5516C20.5833 24.5169 19.2619 24.6409 18.3814 24.9335C17.6799 25.1662 17.0159 25.5059 16.4069 25.9568ZM3.11363 1.36245V7.27655L7.58463 4.27237V1.36245H3.11363Z" fill="#B99750"/>
</g>
<defs>
<clipPath id="clip0_64_205">
<rect width="32" height="28" fill="white" transform="matrix(-1 0 0 1 32 0)"/>
</clipPath>
</defs>
</svg>
