<svg width="11" height="10" viewBox="0 0 11 10" fill="none" xmlns="http://www.w3.org/2000/svg">
<g clip-path="url(#clip0_173_688)">
<path fill-rule="evenodd" clip-rule="evenodd" d="M1.6731 6.43793L5.29769 2.88349C5.48926 2.69572 5.51343 2.68782 5.71216 2.88349L9.32691 6.43793V10.0029H6.64136V7.59438C6.64112 7.51603 6.60926 7.44095 6.55274 7.38555C6.49621 7.33015 6.41962 7.29892 6.33968 7.29869H4.66211C4.58217 7.29892 4.50558 7.33015 4.44905 7.38555C4.39253 7.44095 4.36067 7.51603 4.36043 7.59438V10.0029H1.67489V6.43793H1.6731ZM5.38631 0.0774882L0 5.03493L1.32845 5.71845L5.13298 1.95781C5.45882 1.63667 5.4624 1.62965 5.78556 1.94377L9.67155 5.71669L11 5.03318L5.60563 0.0695913C5.50895 -0.018151 5.49463 -0.0295576 5.38631 0.0774882Z" fill="#191919"/>
</g>
<defs>
<clipPath id="clip0_173_688">
<rect width="11" height="10" fill="white"/>
</clipPath>
</defs>
</svg>
