<svg width="25" height="18" viewBox="0 0 25 18" fill="none" xmlns="http://www.w3.org/2000/svg">
<g clipPath="url(#clip0_105_4)">
<path d="M23.2847 1.03664C23.4528 1.03664 23.6074 1.10344 23.7207 1.21047C23.8338 1.31751 23.9042 1.46381 23.9042 1.62282V5.3322V8.98864V12.668V16.4451C23.9042 16.5587 23.8271 16.6681 23.7158 16.756C23.552 16.8862 23.3348 16.9632 23.1453 16.9632H21.1953V15.5175C21.1953 15.2314 20.9499 14.9994 20.6476 14.9994H17.7071C17.4046 14.9994 17.1594 15.2314 17.1594 15.5175V16.9632H7.49003V15.5175C7.49003 15.2314 7.24487 14.9994 6.94234 14.9994H4.02608C3.72355 14.9994 3.47839 15.2314 3.47839 15.5175V16.9632H1.64367C1.49902 16.9632 1.36251 16.9027 1.26119 16.8067C1.15967 16.7108 1.09578 16.5818 1.09578 16.4449V3.70245C1.09578 3.55923 1.15702 3.42967 1.25631 3.33592C1.35518 3.24217 1.4921 3.18404 1.64367 3.18404H11.7987C12.101 3.18404 12.3464 2.95187 12.3464 2.66581C12.3464 2.25501 12.347 1.76797 12.4805 1.43474C12.5724 1.20508 12.7635 1.03683 13.1531 1.03683L23.2847 1.03664ZM11.0425 11.2202H3.04077V12.2264H11.0425V11.2202ZM11.0425 5.95919H3.04077V6.96522H11.0425V5.95919ZM11.0425 8.58977H3.04077V9.596H11.0425V8.58977ZM19.6273 5.36993V6.2364C20.0887 6.34766 20.0671 7.54389 19.554 7.54389C19.396 7.5412 18.6637 8.548 18.5559 8.71586C18.3468 9.04139 18.5559 9.16113 18.5559 9.38366C20.8006 9.86262 21.4482 10.0767 21.4482 12.2262H17.5258H13.6037C13.6037 10.0767 14.2515 9.86281 16.496 9.38366C16.496 9.11897 16.6813 9.00462 16.496 8.71586C16.2868 8.39014 15.9037 7.93429 15.51 7.5437C14.9691 7.55332 14.9556 6.3494 15.4246 6.2362V5.36974C15.4248 3.28221 19.6273 3.28221 19.6273 5.36993ZM24.4954 0.477605C24.1846 0.183457 23.7553 0 23.2847 0H13.1533C12.1916 0 11.7051 0.45258 11.4577 1.07033C11.3204 1.41337 11.2744 1.78876 11.2587 2.14739H1.64347C1.18937 2.14739 0.778605 2.32142 0.481159 2.60286C0.183714 2.8843 0 3.27316 0 3.70245V16.4453C0 16.8683 0.187988 17.2579 0.48645 17.5403C0.784912 17.8223 1.19629 18.0002 1.64367 18.0002H4.02608C4.32861 18.0002 4.57377 17.7682 4.57377 17.4822V16.0364H6.39445V17.4822C6.39445 17.7682 6.63961 18.0002 6.94214 18.0002H17.7071C18.0096 18.0002 18.255 17.7682 18.255 17.4822V16.0364H20.0997V17.4822C20.0997 17.7682 20.3448 18.0002 20.6474 18.0002H23.1453C23.5773 18.0002 24.0617 17.8325 24.4175 17.5501C24.7616 17.2773 25 16.8971 25 16.4453V12.6682V8.98864V5.3322V1.62282C25 1.17755 24.8061 0.771561 24.4954 0.477605Z" fill="#939393"/>
</g>
<defs>
<clipPath id="clip0_105_4">
<rect width="25" height="18" fill="white" transform="matrix(-1 0 0 1 25 0)"/>
</clipPath>
</defs>
</svg>
