<svg width="23" height="17" viewBox="0 0 23 17" fill="none" xmlns="http://www.w3.org/2000/svg">
    <g clipPath="url(#clip0_513_564)">
        <path fill-rule="evenodd" clip-rule="evenodd"
            d="M22.141 2.18496C22.5733 2.64799 22.8709 3.25535 22.9664 3.93287C23.002 4.19345 23.0001 4.41795 23.0001 4.67452V8.90197C23.0001 9.13049 23.0057 9.35699 22.987 9.5855C22.9046 10.5316 22.4105 11.4036 21.6655 11.9187C20.7222 12.5742 19.644 12.4238 18.5154 12.4238C18.8879 13.5223 19.6384 14.5366 20.4489 15.3043L20.1457 15.9136L20.1363 15.9096C18.1729 15.3684 16.1027 14.1257 14.8412 12.4218C14.0606 12.4138 13.4224 12.4238 12.6437 12.3116C11.7865 12.8688 10.7664 13.2317 9.75936 13.2317C9.10613 14.1036 8.3462 14.8493 7.47771 15.4606C6.53996 16.1201 5.48056 16.6212 4.29949 16.954C4.24146 16.97 4.18344 16.986 4.12354 16.9941C3.91952 17.0181 3.70614 16.9399 3.56015 16.7635C3.32056 16.4749 3.34677 16.0319 3.6163 15.7753C4.37997 15.0517 4.80673 14.2579 5.11182 13.2357C3.62191 13.2357 2.37533 13.404 1.16244 12.1071C-0.351801 10.4835 0.0244199 6.70907 0.101161 4.44401C0.125494 3.71638 0.0787005 3.23731 0.350103 2.47761C0.701991 1.4874 1.43197 0.687613 2.35474 0.290726C3.21762 -0.0821079 4.15536 0.0100982 5.06503 0.0100982H10.596C11.0022 0.0100982 11.3335 0.00809376 11.749 0.112327C12.4491 0.284712 13.0836 0.683604 13.5796 1.2629L19.966 1.2649C20.8101 1.2649 21.5345 1.5335 22.141 2.18496ZM18.7044 8.57725H17.0255L16.7934 9.47125H15.2885C15.792 7.94784 16.2974 6.42243 16.8009 4.89702C16.9824 4.34579 17.1883 3.43375 17.849 3.43375C18.5341 3.43375 18.7606 4.26962 18.9515 4.84691L20.4826 9.46924H18.9403L18.7044 8.57725ZM18.3956 7.40463L17.8678 5.45627L17.3437 7.40463H18.3956ZM15.5636 14.3642L14.4724 13.398L13.1098 15.2001L11.1314 13.3619L10.1974 14.4925L12.3405 16.3186L14.0775 16.1582L15.5636 14.3642ZM14.347 1.97649C14.9871 4.64446 15.6703 9.33093 13.9521 11.7042C14.3582 11.7103 14.7588 11.7103 15.165 11.7103C16.0859 13.0212 17.2688 13.9372 18.6614 14.6067C18.7924 14.6689 18.9253 14.731 19.0582 14.7871C18.5846 14.1738 18.1691 13.4662 17.9052 12.7165C17.7835 12.3697 17.718 12.065 17.6357 11.7103C18.0175 11.7103 18.3919 11.7143 18.7756 11.7283C19.6235 11.7604 20.5163 11.7864 21.2219 11.3635C21.527 11.1811 21.7722 10.9225 21.965 10.6118C22.1353 10.3332 22.2551 10.0145 22.3075 9.6757C22.3468 9.41913 22.3337 9.1365 22.3337 8.87592V4.53622C22.3337 4.42196 22.3356 4.31773 22.3281 4.20347C22.2851 3.61616 22.0418 3.08297 21.6711 2.68608C21.3118 2.29922 20.8307 2.04264 20.2992 1.98652C20.1625 1.97248 20.0278 1.97449 19.8911 1.97449L14.347 1.97649ZM3.97006 2.70412H6.48568V1.94442H7.60873V2.70412H10.1337V3.95091H9.61524C9.57406 4.30169 9.49732 4.65047 9.3925 4.99524H9.39437C9.28768 5.34603 9.14169 5.69881 8.96762 6.04759C8.67188 6.63892 8.29004 7.20618 7.84831 7.7514C8.55583 8.65743 9.43181 9.44519 10.4781 10.1628L9.89974 11.1269C8.8029 10.3733 7.87077 9.54341 7.10523 8.58727C6.42017 9.29686 5.6434 9.95834 4.82732 10.5617L4.219 9.61958C5.02572 9.02224 5.79127 8.36878 6.45012 7.67323C5.8418 6.7211 5.37761 5.65271 5.05567 4.42396L6.087 4.11527C6.35092 5.12353 6.72152 6.00951 7.19695 6.80328C7.52076 6.38234 7.80152 5.95138 8.02426 5.50839C8.16464 5.22776 8.28443 4.93511 8.37615 4.63644H8.37802C8.44727 4.41394 8.49968 4.18343 8.53524 3.95091H3.97006V2.70412Z"
            fill="#939393" />
    </g>
    <defs>
        <clipPath id="clip0_513_564">
            <rect width="23" height="17" fill="white" />
        </clipPath>
    </defs>
</svg>