<svg width="15" height="11" viewBox="0 0 15 11" fill="none" xmlns="http://www.w3.org/2000/svg">
<g clip-path="url(#clip0_525_437)">
<path fill-rule="evenodd" clip-rule="evenodd" d="M14.4396 1.4138C14.7216 1.71341 14.9157 2.1064 14.978 2.5448C15.0012 2.71341 15 2.85867 15 3.02469V5.7601C15 5.90796 15.0036 6.05452 14.9914 6.20238C14.9377 6.81458 14.6154 7.37878 14.1296 7.71211C13.5144 8.13624 12.8112 8.03896 12.0751 8.03896C12.3181 8.74972 12.8076 9.40602 13.3361 9.90277L13.1384 10.2971L13.1323 10.2945C11.8518 9.94428 10.5017 9.14013 9.67891 8.03766C9.16987 8.03247 8.75361 8.03896 8.2458 7.96633C7.68672 8.3269 7.02144 8.56166 6.3647 8.56166C5.93867 9.12586 5.44307 9.60835 4.87666 10.0039C4.26509 10.4307 3.57417 10.7549 2.80391 10.9702C2.76606 10.9806 2.72822 10.991 2.68916 10.9962C2.5561 11.0117 2.41694 10.9611 2.32173 10.847C2.16548 10.6602 2.18257 10.3736 2.35835 10.2076C2.8564 9.73935 3.13472 9.22573 3.33369 8.56425C2.36201 8.56425 1.54902 8.6732 0.758007 7.83403C-0.229542 6.78345 0.0158199 4.34116 0.0658687 2.87554C0.0817378 2.40472 0.0512203 2.09473 0.228222 1.60316C0.457714 0.962436 0.933789 0.444926 1.5356 0.188117C2.09834 -0.0531286 2.70991 0.00653416 3.30317 0.00653416H6.91035C7.17524 0.00653416 7.39131 0.00523714 7.6623 0.072682C8.11885 0.184225 8.53267 0.442332 8.85615 0.81717L13.0212 0.818467C13.5717 0.818467 14.0441 0.992267 14.4396 1.4138ZM12.1984 5.54998H11.1035L10.9521 6.12845H9.97065C10.299 5.14272 10.6286 4.15569 10.957 3.16866C11.0754 2.81198 11.2097 2.22184 11.6406 2.22184C12.0874 2.22184 12.2351 2.7627 12.3596 3.13624L13.3581 6.12716H12.3522L12.1984 5.54998ZM11.997 4.79123L11.6528 3.53053L11.311 4.79123H11.997ZM10.1501 9.29447L9.43843 8.66931L8.54976 9.83533L7.25947 8.64596L6.65034 9.37748L8.04805 10.5591L9.18086 10.4553L10.1501 9.29447ZM9.35664 1.27891C9.77412 3.00524 10.2197 6.03766 9.09907 7.57333C9.36397 7.57722 9.6252 7.57722 9.89009 7.57722C10.4907 8.42547 11.2622 9.01821 12.1704 9.45141C12.2558 9.49162 12.3425 9.53183 12.4292 9.56814C12.1203 9.17126 11.8493 8.71341 11.6772 8.22832C11.5979 8.00394 11.5551 7.80679 11.5014 7.57722C11.7504 7.57722 11.9946 7.57982 12.2448 7.58889C12.7978 7.60965 13.3801 7.62651 13.8403 7.35284C14.0393 7.23481 14.1992 7.06749 14.3249 6.86646C14.436 6.68617 14.5141 6.47995 14.5483 6.26075C14.5739 6.09473 14.5654 5.91185 14.5654 5.74324V2.9352C14.5654 2.86127 14.5666 2.79382 14.5617 2.71989C14.5336 2.33987 14.375 1.99486 14.1333 1.73805C13.8989 1.48773 13.5852 1.32171 13.2385 1.28539C13.1494 1.27631 13.0615 1.27761 12.9724 1.27761L9.35664 1.27891ZM2.58906 1.74972H4.22969V1.25816H4.96211V1.74972H6.60884V2.55647H6.2707C6.24385 2.78345 6.1938 3.00913 6.12544 3.23222H6.12666C6.05708 3.45919 5.96186 3.68747 5.84834 3.91315C5.65547 4.29577 5.40645 4.66282 5.11836 5.01561C5.57978 5.60186 6.15107 6.11159 6.83345 6.57592L6.45625 7.19979C5.74092 6.71211 5.13301 6.17515 4.63374 5.55647C4.18696 6.01561 3.68037 6.44363 3.14814 6.83403L2.75142 6.22443C3.27754 5.83792 3.77681 5.41509 4.20649 4.96503C3.80977 4.34895 3.50703 3.65764 3.29707 2.86257L3.96968 2.66282C4.1418 3.31522 4.3835 3.88851 4.69355 4.40212C4.90474 4.12975 5.08784 3.85089 5.23311 3.56425C5.32466 3.38267 5.40278 3.1933 5.4626 3.00005H5.46382C5.50898 2.85608 5.54316 2.70692 5.56636 2.55647H2.58906V1.74972Z" fill="#939393"/>
</g>
<defs>
<clipPath id="clip0_525_437">
<rect width="15" height="11" fill="white"/>
</clipPath>
</defs>
</svg>
