<svg width="11" height="13" viewBox="0 0 11 13" fill="none" xmlns="http://www.w3.org/2000/svg">
<g clip-path="url(#clip0_560_61)">
<path fill-rule="evenodd" clip-rule="evenodd" d="M10.2047 0.645665C10.8165 1.18839 10.882 1.89721 10.9494 2.06966L10.9826 2.33414C11.0706 2.90437 10.8214 3.68302 10.4373 4.17285L8.71812 6.33105C8.05744 7.16048 6.955 7.43554 6.03239 7.00496L6.02945 7.00919C6.36664 7.60481 6.33732 8.02905 6.36761 8.12744C6.45557 8.69978 6.20635 9.47526 5.82226 9.96614L4.10213 12.1243C3.26846 13.1707 1.79756 13.2987 0.8251 12.4005C0.332519 11.8673 0.0588627 11.4155 0.00706347 10.6559C-0.0388717 9.99576 0.156597 9.34725 0.553398 8.83838L2.3048 6.63891C2.79445 6.09513 3.03781 6.01896 3.6076 5.84863L3.85193 5.81266L4.89378 5.9777C4.91528 5.98616 4.93678 5.99674 4.95731 6.00626L4.96024 6.00203C4.43736 5.08056 4.51359 3.87451 5.16939 3.04296L6.88854 0.885818C7.29023 0.381179 7.8649 0.0701442 8.46695 0.019363C8.99178 -0.0747939 9.71502 0.192866 10.1656 0.609695L10.2047 0.645665ZM7.25504 5.47094L6.89733 5.91951L6.95988 5.92057H6.96184L7.02048 5.91845H7.02146L7.03514 5.91739H7.03709C7.24331 5.90047 7.4466 5.8243 7.61959 5.69099C7.65282 5.6656 7.68605 5.63704 7.71928 5.60424C7.7486 5.57568 7.77988 5.54182 7.81017 5.50374L7.8219 5.48998L9.52737 3.34871C9.67103 3.16886 9.75802 2.95198 9.78929 2.72875C9.79613 2.68221 9.80004 2.63671 9.802 2.59545C9.80395 2.55208 9.80298 2.50553 9.80102 2.46004V2.45475L9.80004 2.44311C9.78441 2.21988 9.71404 1.99983 9.59089 1.81258C9.56744 1.77661 9.54105 1.74169 9.51466 1.70996L9.51173 1.70572C9.48339 1.67187 9.45211 1.63802 9.41986 1.60628L9.41399 1.60099L9.40911 1.5957L9.39836 1.58723C9.23318 1.43595 9.03674 1.34391 8.83345 1.31111H8.83052C8.78849 1.30476 8.74745 1.29947 8.70933 1.29842C8.66926 1.2963 8.62723 1.29736 8.58521 1.29947H8.57836L8.56859 1.30053C8.36237 1.31746 8.15908 1.39363 7.98609 1.52693C7.95286 1.55232 7.91964 1.58089 7.89032 1.60945L7.88738 1.61262C7.85513 1.64331 7.82483 1.67716 7.79551 1.71313L7.78378 1.72688L6.0793 3.8671C5.93563 4.04695 5.84865 4.26383 5.81737 4.48706C5.81151 4.53255 5.80662 4.57804 5.80564 4.62036C5.80369 4.66373 5.80466 4.71028 5.80662 4.75577L5.8076 4.77164V4.7727V4.77482C5.81053 4.82348 5.81639 4.87109 5.82519 4.91975L6.17508 4.48071L6.18485 4.46801L6.19756 4.4532L6.19951 4.45109C6.32559 4.30403 6.49467 4.22045 6.66766 4.20776C6.84163 4.19401 7.02146 4.24902 7.1661 4.37703L7.16806 4.37809L7.17685 4.38655L7.17881 4.38867L7.18076 4.39078L7.18174 4.39184L7.1837 4.3929L7.19054 4.39925C7.39187 4.59285 7.46615 4.8859 7.40653 5.15356C7.3948 5.20646 7.37721 5.25935 7.35375 5.31013C7.33225 5.3588 7.30391 5.40535 7.27263 5.44873L7.27068 5.45084L7.26775 5.45507L7.26677 5.45719L7.257 5.46988L7.25504 5.47094ZM3.91546 8.4882C4.14318 8.70084 4.49014 8.67334 4.68658 8.42684L5.23194 7.74235C5.29547 7.89575 5.33358 8.05973 5.34531 8.22583C5.36975 8.58976 5.2681 8.96321 5.03354 9.25732L3.3271 11.3986C3.09254 11.6938 2.76708 11.8577 2.43185 11.8842C2.10151 11.9106 1.76335 11.8048 1.49458 11.5615L1.47894 11.5467C1.20724 11.2928 1.05478 10.9405 1.03034 10.5776C1.00591 10.2179 1.10462 9.84871 1.33332 9.55672L1.34211 9.54614L3.02803 7.43025L3.04856 7.40486C3.28312 7.11075 3.60857 6.94571 3.9438 6.91927C4.09822 6.90657 4.2546 6.9235 4.40413 6.96899L3.85877 7.65348C3.66233 7.89998 3.68774 8.27555 3.91546 8.4882Z" fill="white"/>
</g>
<defs>
<clipPath id="clip0_560_61">
<rect width="11" height="13" fill="white"/>
</clipPath>
</defs>
</svg>
