<svg width="15" height="15" viewBox="0 0 15 15" fill="none" xmlns="http://www.w3.org/2000/svg">
<g clip-path="url(#clip0_276_153)">
<path d="M11.5394 4.39684C11.5394 4.53478 11.4262 4.64708 11.2872 4.64708C11.1482 4.64708 11.035 4.53478 11.035 4.39684V3.4215C11.035 3.03942 10.9354 2.64879 10.7631 2.29235C10.5835 1.92125 10.3276 1.58434 10.0238 1.32921C9.37546 0.783558 8.52538 0.5089 7.67038 0.499134C6.80431 0.489368 5.93701 0.751819 5.27024 1.27916C4.94792 1.53429 4.6539 1.86754 4.44845 2.24108C4.27007 2.56578 4.15935 2.92101 4.15935 3.27868V4.4066L4.16673 4.40416L4.39432 4.6837C4.3771 4.23571 4.37464 3.75475 4.39432 3.33117C4.40909 3.1859 4.43738 3.04064 4.47798 2.89537C4.84581 1.58922 6.3479 0.826282 7.65439 0.897083C8.66563 0.952015 9.61535 1.31945 10.2157 2.00548C11.0522 2.96618 10.8357 4.15026 10.8074 5.32213C10.9957 5.37951 11.1162 5.49669 11.1654 5.68834C11.2196 5.90075 11.1605 6.1986 10.9797 6.60631C10.976 6.61364 10.9723 6.62096 10.9686 6.62828L10.196 7.89049C9.8983 8.37633 9.59567 8.86461 9.19339 9.23937L9.18109 9.25036C9.22783 9.32238 9.2795 9.40416 9.3324 9.49083C9.45789 9.69225 9.59936 9.91686 9.73591 10.1085C10.5835 10.7421 12.7549 10.8873 13.5803 11.3439C13.851 11.494 14.0958 11.6844 14.2914 11.942C14.7773 12.5792 14.8155 13.4606 15.0012 14.2381C14.9582 14.6971 14.6961 14.9608 14.1794 14.9999H0.821783C0.306323 14.9608 0.0442877 14.6971 0 14.2381C0.185762 13.4606 0.222669 12.5792 0.709834 11.942C0.906668 11.6844 1.15025 11.494 1.4209 11.3439C2.2476 10.8861 4.42016 10.7408 5.26655 10.1073C5.39941 9.81432 5.53719 9.359 5.62331 9.07702L5.62454 9.07091L5.65898 8.96227C5.66267 8.94884 5.66883 8.93786 5.67498 8.92565C5.43263 8.63878 5.22349 8.31652 5.02296 8.00036L4.35988 6.95421C4.30944 6.95055 4.26023 6.94201 4.21102 6.92614C3.67957 6.76012 3.23915 5.58825 3.32527 5.03527C3.37448 4.72155 3.48643 4.60924 3.66727 4.54088C3.65866 4.51525 3.65374 4.48839 3.65374 4.46032V3.27868C3.65374 2.83434 3.78783 2.39855 4.00558 2.00304C4.24424 1.56847 4.58501 1.18151 4.9553 0.888538C5.71311 0.287952 6.69605 -0.0098993 7.67284 -0.000133677C8.64225 0.0108527 9.60797 0.323353 10.3486 0.947132C10.7053 1.24743 11.0067 1.64171 11.2171 2.0775C11.4213 2.50231 11.5406 2.96618 11.5406 3.42272V4.39684H11.5394ZM8.9375 9.44933C8.56844 9.71789 8.1231 9.88512 7.55597 9.8839C6.89904 9.88268 6.40449 9.63366 5.99852 9.265C5.969 9.23815 5.93947 9.21129 5.91118 9.18322C5.79923 9.55309 5.60116 10.2049 5.4154 10.4857C5.62946 11.7064 6.10555 12.5792 6.53982 13.5082L7.1377 11.4488C7.06143 11.3207 7.02575 11.2084 7.02083 11.1119C6.71451 11.2828 6.38481 11.3964 6.04158 11.472C5.6676 11.0497 5.63561 10.609 6.04158 10.1415C6.50045 10.2562 6.92241 10.4515 7.30993 10.7152C7.4022 10.6847 7.50677 10.6774 7.60764 10.6932C8.01976 10.399 8.54876 10.2831 9.01009 10.0633C9.55753 10.5919 9.49848 11.079 8.96088 11.5318C8.6361 11.4574 8.32855 11.3402 8.03576 11.1864C8.03207 11.2645 8.01238 11.3524 7.97425 11.4488L8.57213 13.5082C9.03469 12.5426 9.51571 11.5843 9.62519 10.4881C9.44189 10.2538 9.24752 9.94616 9.08021 9.6776C9.02977 9.59704 8.98179 9.52013 8.9375 9.44933ZM4.72771 5.56993L5.02173 6.3695C5.05372 6.46227 5.06356 6.54284 5.05003 6.61242L5.05249 6.60997C5.51259 7.11657 6.07972 7.48278 6.76249 7.69762C6.79693 7.6195 6.84491 7.55114 6.91503 7.49743C7.12294 7.33751 7.73313 7.35216 7.92135 7.50719C8.07882 7.63659 8.08128 7.93444 7.96441 8.08947C7.72082 8.41295 6.70713 8.14074 6.36759 8.03209C5.82629 7.85875 5.33298 7.44249 4.88395 7.06896L5.34528 7.7965C5.61716 8.22496 5.90134 8.66198 6.25564 8.98302C6.59641 9.29186 7.00853 9.5006 7.55474 9.50182C8.14648 9.50304 8.57828 9.28576 8.93012 8.95983C9.2955 8.62047 9.58337 8.15538 9.86755 7.69152L10.6303 6.44396C10.773 6.12169 10.8247 5.90563 10.7914 5.7799C10.7718 5.70421 10.6881 5.66759 10.5454 5.66027C10.5146 5.65905 10.4839 5.65905 10.4519 5.65905C10.4175 5.66027 10.3818 5.66271 10.3449 5.66515C10.324 5.66637 10.3043 5.66515 10.2858 5.66149C10.2182 5.66515 10.148 5.66027 10.0767 5.6505L10.3387 4.50304C8.39867 4.80577 6.94825 3.37755 4.89871 4.2174L5.04634 5.56993C4.96391 5.5736 4.88518 5.57116 4.8126 5.56017C4.7843 5.56505 4.75478 5.56749 4.72771 5.56993Z" fill="#191919"/>
</g>
<defs>
<clipPath id="clip0_276_153">
<rect width="15" height="15" fill="white"/>
</clipPath>
</defs>
</svg>
