<svg width="10" height="15" viewBox="0 0 10 15" fill="none" xmlns="http://www.w3.org/2000/svg">
<g clip-path="url(#clip0_1502_52)">
<path d="M7.29922 2.54291V6.38446C7.29922 9.68036 2.70081 9.68036 2.70081 6.38446V2.54291C2.70081 -0.846985 7.29922 -0.846985 7.29922 2.54291ZM5.57101 11.8203V14.4289C5.56422 14.576 5.5011 14.7148 5.39476 14.8165C5.28842 14.9182 5.14705 14.975 5.00002 14.975C4.85299 14.975 4.71161 14.9182 4.60527 14.8165C4.49893 14.7148 4.43581 14.576 4.42902 14.4289V11.8141C3.90367 11.7532 3.39141 11.6086 2.91166 11.3857C2.3756 11.1359 1.88724 10.7943 1.46863 10.3762L1.46254 10.3652C1.00056 9.90229 0.632972 9.35376 0.380273 8.75018C0.128518 8.14359 -0.00072341 7.49304 1.69191e-05 6.83612C-0.000856918 6.72259 0.0321363 6.61138 0.0947685 6.51675C0.157401 6.42212 0.246819 6.34837 0.351563 6.30497C0.456308 6.26156 0.571607 6.25047 0.682686 6.27311C0.793764 6.29576 0.895562 6.35111 0.975032 6.43207L0.98722 6.44428C1.08678 6.55036 1.14215 6.69052 1.142 6.83612C1.14126 7.3414 1.24069 7.84179 1.43451 8.30829C1.83043 9.25886 2.58515 10.0143 3.53445 10.4103C4.00044 10.6045 4.50018 10.7045 5.00489 10.7045C5.50961 10.7045 6.00934 10.6045 6.47534 10.4103C6.94433 10.2144 7.37041 9.92823 7.72945 9.56805L7.7392 9.55951C8.09412 9.20134 8.37639 8.77767 8.5704 8.31195C8.76303 7.84397 8.8608 7.3423 8.85803 6.83612C8.86482 6.68901 8.92794 6.55018 9.03428 6.44849C9.14062 6.34679 9.28199 6.29004 9.42902 6.29004C9.57605 6.29004 9.71743 6.34679 9.82377 6.44849C9.93011 6.55018 9.99323 6.68901 10 6.83612C10.0005 7.49183 9.87129 8.14114 9.61976 8.74652C9.36653 9.35561 8.9968 9.90921 8.5314 10.3762L8.52043 10.3859C8.1047 10.7997 7.62008 11.1376 7.08838 11.3845C6.60813 11.6072 6.0955 11.7518 5.56979 11.8129L5.57101 11.8203Z" fill="#B99750"/>
</g>
<defs>
<clipPath id="clip0_1502_52">
<rect width="10" height="15" fill="white"/>
</clipPath>
</defs>
</svg>
