<svg width="10" height="10" viewBox="0 0 10 10" fill="none" xmlns="http://www.w3.org/2000/svg">
<g clip-path="url(#clip0_476_1957)">
<path fill-rule="evenodd" clip-rule="evenodd" d="M0.302148 7.31084H9.69785C9.86426 7.31084 10 7.44941 10 7.61928V9.69181C10 9.86168 9.86426 10.0005 9.69785 10.0005H0.302148C0.135937 10.0005 0 9.86168 0 9.69181V7.61928C0 7.44941 0.135937 7.31084 0.302148 7.31084ZM4.11289 3.08084H3.11719C3.08192 3.08057 3.04755 3.06945 3.01855 3.04894C2.94023 2.99351 2.9209 2.88366 2.97539 2.80371L4.83848 0.0758159C4.8498 0.0596663 4.86367 0.0451117 4.88027 0.033149C4.95781 -0.0232749 5.06543 -0.0047328 5.1207 0.0744202L7.01562 2.79134C7.04155 2.82306 7.05573 2.86308 7.05566 2.90439C7.05566 3.00169 6.97832 3.08084 6.88281 3.08084H5.8875V5.92576C5.8875 6.01967 5.84277 6.10321 5.7709 6.16083C5.71113 6.20908 5.63066 6.23919 5.54414 6.23919H4.45625C4.36992 6.23919 4.28926 6.20928 4.2293 6.16103C4.15742 6.10341 4.11289 6.02027 4.11289 5.92576V3.08084Z" fill="white"/>
</g>
<defs>
<clipPath id="clip0_476_1957">
<rect width="10" height="10" fill="white"/>
</clipPath>
</defs>
</svg>
