<svg width="16" height="16" viewBox="0 0 16 16" fill="none" xmlns="http://www.w3.org/2000/svg">
<g clip-path="url(#clip0_476_1100)">
<path d="M4.00111 9.12481V10.6287C4.00625 10.7225 3.98843 10.8161 3.94917 10.9014C3.90991 10.9867 3.85041 11.0612 3.77585 11.1183C3.68973 11.1665 3.59352 11.1938 3.49493 11.1981C3.39634 11.2024 3.29812 11.1836 3.20814 11.143C3.18342 11.1354 3.16042 11.123 3.14043 11.1066C2.00892 10.2225 1.35658 9.33965 0.228972 8.45423L0.213347 8.44121C0.146688 8.38856 0.0928201 8.32149 0.0557855 8.24504C0.0187509 8.16859 -0.000488281 8.08475 -0.000488281 7.99981C-0.000488281 7.91486 0.0187509 7.83102 0.0557855 7.75457C0.0928201 7.67812 0.146688 7.61105 0.213347 7.5584L0.228972 7.54538C1.35658 6.65996 2.00892 5.77585 3.13652 4.89303C3.15677 4.87667 3.17967 4.8639 3.20423 4.85527C3.29406 4.81486 3.39215 4.79616 3.49054 4.80068C3.58894 4.80521 3.6849 4.83283 3.77064 4.88132C3.84633 4.9377 3.90696 5.01186 3.94716 5.09726C3.98736 5.18265 4.00589 5.27664 4.00111 5.3709V6.87481H6.88522V4.00111H5.3709C5.27712 4.00625 5.1835 3.98843 5.09818 3.94917C5.01286 3.90991 4.93842 3.85041 4.88132 3.77585C4.83292 3.68984 4.80535 3.59368 4.80083 3.49509C4.7963 3.3965 4.81495 3.29822 4.85527 3.20814C4.8639 3.18358 4.87667 3.16068 4.89303 3.14043C5.77715 2.00892 6.65996 1.35658 7.55189 0.228972L7.56491 0.213347C7.61756 0.146688 7.68463 0.0928201 7.76108 0.0557855C7.83753 0.0187509 7.92137 -0.000488281 8.00632 -0.000488281C8.09126 -0.000488281 8.17511 0.0187509 8.25155 0.0557855C8.328 0.0928201 8.39507 0.146688 8.44772 0.213347L8.46074 0.228972C9.34616 1.35658 10.229 2.00892 11.1131 3.13652C11.1295 3.15651 11.1419 3.17951 11.1495 3.20423C11.19 3.29516 11.2083 3.39442 11.2029 3.49381C11.1975 3.5932 11.1685 3.68987 11.1183 3.77585C11.0619 3.85154 10.9877 3.91217 10.9024 3.95237C10.817 3.99257 10.723 4.0111 10.6287 4.00632H9.11439V6.87481H11.9985V5.3709C11.9938 5.27678 12.0122 5.18295 12.0522 5.0976C12.0921 5.01225 12.1524 4.93799 12.2277 4.88132C12.3137 4.83292 12.4098 4.80535 12.5084 4.80083C12.607 4.7963 12.7053 4.81495 12.7954 4.85527C12.8198 4.86418 12.8427 4.87693 12.8631 4.89303C13.9907 5.77585 14.643 6.65996 15.7706 7.54538L15.7863 7.5584C15.8529 7.61105 15.9068 7.67812 15.9438 7.75457C15.9809 7.83102 16.0001 7.91486 16.0001 7.99981C16.0001 8.08475 15.9809 8.16859 15.9438 8.24504C15.9068 8.32149 15.8529 8.38856 15.7863 8.44121L15.7706 8.45423C14.643 9.33965 13.9907 10.2225 12.8631 11.1066C12.8429 11.1228 12.82 11.1351 12.7954 11.143C12.7054 11.1836 12.6072 11.2024 12.5086 11.1981C12.41 11.1938 12.3138 11.1665 12.2277 11.1183C12.1524 11.0616 12.0921 10.9874 12.0522 10.902C12.0122 10.8167 11.9938 10.7228 11.9985 10.6287V9.12481H9.11439V11.9985H10.6287C10.7228 11.9938 10.8167 12.0122 10.902 12.0522C10.9874 12.0921 11.0616 12.1524 11.1183 12.2277C11.1665 12.3138 11.1938 12.41 11.1981 12.5086C11.2024 12.6072 11.1836 12.7054 11.143 12.7954C11.1351 12.82 11.1228 12.8429 11.1066 12.8631C10.2225 13.9907 9.33965 14.643 8.45423 15.7706L8.44121 15.7863C8.38856 15.8529 8.32149 15.9068 8.24504 15.9438C8.16859 15.9809 8.08475 16.0001 7.99981 16.0001C7.91486 16.0001 7.83102 15.9809 7.75457 15.9438C7.67812 15.9068 7.61105 15.8529 7.5584 15.7863L7.54538 15.7706C6.65996 14.643 5.77715 13.9907 4.89303 12.8631C4.87693 12.8427 4.86418 12.8198 4.85527 12.7954C4.81495 12.7053 4.7963 12.607 4.80083 12.5084C4.80535 12.4098 4.83292 12.3137 4.88132 12.2277C4.93799 12.1524 5.01225 12.0921 5.0976 12.0522C5.18295 12.0122 5.27678 11.9938 5.3709 11.9985H6.88522V9.12481H4.00111Z" fill="#939393"/>
</g>
<defs>
<clipPath id="clip0_476_1100">
<rect width="16" height="16" fill="white"/>
</clipPath>
</defs>
</svg>
