<svg width="91" height="67" viewBox="0 0 91 67" fill="none" xmlns="http://www.w3.org/2000/svg">
<rect x="0.5" y="0.5" width="90" height="66" rx="5.5" fill="#EFFDEC" stroke="#B99750"/>
<line x1="1" y1="15.5" x2="91" y2="15.5" stroke="#B99750"/>
<circle cx="10" cy="8" r="3" fill="#B99750"/>
<circle cx="19" cy="8" r="3" fill="#B99750"/>
<circle cx="28" cy="8" r="3" fill="#B99750"/>
<g clip-path="url(#clip0_557_3)">
<path fill-rule="evenodd" clip-rule="evenodd" d="M38.3899 52.9312C35.9173 52.3142 34.5415 50.3477 34.5361 47.4318C34.5361 46.5001 34.602 46.0537 34.836 45.4522C35.4057 43.9818 36.9172 42.8749 38.9046 42.4649C39.8936 42.2626 40.1982 42.0456 40.1982 41.5387C40.1982 41.3805 40.3169 40.9085 40.4618 40.4907C41.1152 38.5894 42.3259 37.0074 43.6165 36.3617C44.969 35.6835 45.6535 35.5324 47.2889 35.5401C49.615 35.5525 50.773 36.0571 52.3945 37.76L53.2875 38.6979L54.085 38.422C57.9521 37.0833 61.8082 39.3614 62.1206 43.1703L62.2051 44.212L62.9662 44.4849C65.1419 45.2646 66.1636 46.9001 65.9791 49.3068C65.8582 50.8795 65.1226 52.1359 63.9584 52.7583L63.4096 53.0521L51.235 53.0762C41.8795 53.0947 38.9053 53.0599 38.3906 52.9312H38.3899ZM28.2337 51.1911C26.7501 50.8175 25.1774 49.4316 24.4403 47.8496C24.0225 46.9512 23.9993 46.8172 23.9993 45.2289C23.9993 43.7167 24.0357 43.4757 24.3658 42.7246C25.0666 41.1426 26.4137 40.0008 28.098 39.549C28.4553 39.4552 28.7886 39.3024 28.8413 39.2125C28.894 39.1234 28.9545 38.6327 28.9723 38.1235C29.0901 34.9572 31.0566 32.1676 33.8005 31.2716C35.2833 30.7887 37.228 30.7421 38.8402 31.4234C39.3518 31.639 39.2944 31.6862 40.3757 30.1872C41.0167 29.3005 42.2267 28.3626 43.2847 27.8014C44.4272 27.1952 45.6139 26.9162 47.0331 26.9193C51.0032 26.9302 54.423 29.5523 55.688 33.5573C56.0919 34.8363 56.0709 35.196 55.5957 35.2068C55.388 35.2114 54.792 35.3323 54.2703 35.4742L53.3224 35.7346L52.4596 34.8208C50.0235 32.2482 46.0519 31.6917 42.6731 33.4504C41.3237 34.1542 40.2393 35.1618 39.4207 36.4772C38.8379 37.4151 38.0922 39.1652 38.0922 39.5985C38.0922 39.9063 37.8559 40.0613 36.8482 40.4101C33.7269 41.4914 31.9054 43.9911 31.9085 47.1885C31.9085 48.3511 32.1922 49.7773 32.5859 50.5903C32.7355 50.8981 32.8169 51.1888 32.7697 51.2391C32.6487 51.3686 28.7662 51.3236 28.2283 51.1895L28.2337 51.1911Z" fill="#000088"/>
</g>
<defs>
<clipPath id="clip0_557_3">
<rect width="42" height="42" fill="white" transform="translate(24 19)"/>
</clipPath>
</defs>
</svg>
