<svg width="18" height="21" viewBox="0 0 18 21" fill="none" xmlns="http://www.w3.org/2000/svg">
<g clip-path="url(#clip0_476_242)">
<path fill-rule="evenodd" clip-rule="evenodd" d="M1.33684 0H16.6615C17.0164 0.000452237 17.3566 0.14572 17.6075 0.403943C17.8584 0.662165 17.9996 1.01226 18 1.37744V14.6528C17.9987 15.0176 17.8572 15.367 17.6064 15.6247C17.3556 15.8825 17.0159 16.0277 16.6615 16.0286H10.3908V16.0012C10.3908 15.7705 10.3908 15.5449 10.3808 15.1672H16.8342C16.8828 15.1672 16.9308 15.1574 16.9757 15.1382C17.0205 15.119 17.0612 15.0909 17.0955 15.0555C17.1297 15.0201 17.1569 14.9781 17.1753 14.9318C17.1937 14.8856 17.2031 14.8361 17.2029 14.7861V3.32568H0.850263V14.7861C0.849936 14.8184 0.853846 14.8506 0.861888 14.8818C0.841772 14.971 0.831191 15.0621 0.830335 15.1536C0.825788 15.3991 0.874581 15.6426 0.973153 15.8662C0.990086 15.9076 1.01007 15.9476 1.03294 15.9858C0.740763 15.9144 0.480266 15.7443 0.293035 15.5027C0.105804 15.2611 0.00263489 14.9619 0 14.6528L0 1.37744C0.00043828 1.01256 0.141371 0.662719 0.391935 0.404545C0.642498 0.146372 0.98227 0.000904024 1.33684 0ZM4.46388 11.804C4.54003 11.7986 4.61643 11.8093 4.68838 11.8356C4.76032 11.8618 4.82627 11.9029 4.88215 11.9564C4.93803 12.0099 4.98265 12.0746 5.01325 12.1466C5.04385 12.2186 5.05979 12.2962 5.06006 12.3748V16.0354H5.42043V14.2393C5.42043 13.5129 6.53307 13.5352 6.53307 14.2803V16.0747H6.54968H6.93994V14.6426C6.93994 13.9163 8.05259 13.9385 8.05259 14.6819V16.0081H8.44451V14.998C8.44451 14.2717 9.55715 14.2939 9.55715 15.0374C9.55715 15.8748 9.60365 16.8625 9.57376 17.6982C9.54221 18.616 9.35787 19.6499 8.71187 20.2275C8.37528 20.5317 7.97712 20.755 7.54627 20.8813C7.11542 21.0075 6.66268 21.0334 6.22087 20.9573C4.68973 20.7078 4.3028 19.7422 3.57376 18.5527L1.72211 15.5347C1.60753 15.2595 1.62247 15.0732 1.73706 14.9536C2.23526 14.6255 3.02906 15.3228 3.91586 16.3088H3.94741V12.3354C3.94785 12.1946 4.0024 12.0597 4.09917 11.9601C4.19593 11.8605 4.32704 11.8044 4.46388 11.804ZM2.86964 6.88721C2.79283 6.75445 2.76845 6.59642 2.80152 6.4457C2.8346 6.29499 2.9226 6.16308 3.0474 6.07717C3.17219 5.99126 3.32426 5.9579 3.47225 5.98397C3.62024 6.01004 3.75287 6.09355 3.84279 6.21729L4.15998 6.57617L5.09161 5.37988C5.19027 5.2566 5.33248 5.1787 5.48695 5.16331C5.64142 5.14793 5.79551 5.19632 5.91531 5.29785C6.0351 5.39938 6.11081 5.54572 6.12575 5.70469C6.1407 5.86366 6.09368 6.02222 5.99502 6.14551L4.58677 7.88696C4.5474 7.93967 4.50035 7.98579 4.44727 8.02368C4.38298 8.06758 4.3109 8.09799 4.23517 8.11317C4.15943 8.12834 4.08153 8.12798 4.00593 8.1121C3.93033 8.09622 3.85852 8.06514 3.79462 8.02064C3.73072 7.97614 3.67598 7.9191 3.63355 7.85278L2.86964 6.88208V6.88721ZM14.6355 11.7185C14.7927 11.7101 14.9408 11.6399 15.0492 11.5224C15.1576 11.4049 15.218 11.2491 15.218 11.087C15.218 10.925 15.1576 10.7692 15.0492 10.6517C14.9408 10.5342 14.7927 10.464 14.6355 10.4556H8.22198C8.13871 10.4511 8.05543 10.4641 7.97721 10.4939C7.899 10.5236 7.82747 10.5694 7.767 10.6284C7.70653 10.6875 7.65838 10.7586 7.62547 10.8375C7.59257 10.9163 7.57559 11.0012 7.57559 11.087C7.57559 11.1728 7.59257 11.2577 7.62547 11.3366C7.65838 11.4154 7.70653 11.4866 7.767 11.5456C7.82747 11.6047 7.899 11.6505 7.97721 11.6802C8.05543 11.7099 8.13871 11.723 8.22198 11.7185H14.6355ZM14.6355 7.27515C14.7927 7.26673 14.9408 7.19652 15.0492 7.07902C15.1576 6.96152 15.218 6.80569 15.218 6.64368C15.218 6.48166 15.1576 6.32583 15.0492 6.20833C14.9408 6.09083 14.7927 6.02063 14.6355 6.01221H8.22198C8.13871 6.00775 8.05543 6.02078 7.97721 6.0505C7.899 6.08022 7.82747 6.12601 7.767 6.18508C7.70653 6.24416 7.65838 6.31528 7.62547 6.39412C7.59257 6.47296 7.57559 6.55787 7.57559 6.64368C7.57559 6.72948 7.59257 6.81439 7.62547 6.89323C7.65838 6.97207 7.70653 7.04319 7.767 7.10227C7.82747 7.16134 7.899 7.20714 7.97721 7.23686C8.05543 7.26658 8.13871 7.27961 8.22198 7.27515H14.6355ZM2.92942 9.33618H5.97841C6.08896 9.33618 6.19498 9.38138 6.27315 9.46182C6.35132 9.54226 6.39524 9.65137 6.39524 9.76514V12.4089C6.3948 12.5226 6.35075 12.6314 6.27267 12.7118C6.19459 12.7921 6.08883 12.8374 5.97841 12.8379H5.8904V12.3748C5.8936 12.0371 5.77529 11.7102 5.55826 11.457V10.1941H3.34625V11.5784C3.20121 11.8027 3.12379 12.066 3.12372 12.3354V12.8379H2.92942C2.81901 12.8374 2.71324 12.7921 2.63516 12.7118C2.55709 12.6314 2.51303 12.5226 2.51259 12.4089V9.76514C2.51259 9.65137 2.55651 9.54226 2.63468 9.46182C2.71285 9.38138 2.81887 9.33618 2.92942 9.33618ZM15.3878 1.19629C15.5191 1.19629 15.6476 1.23638 15.7568 1.3115C15.8661 1.38661 15.9512 1.49337 16.0015 1.61828C16.0517 1.74319 16.0649 1.88064 16.0393 2.01325C16.0136 2.14585 15.9504 2.26765 15.8575 2.36326C15.7646 2.45886 15.6462 2.52396 15.5174 2.55034C15.3885 2.57672 15.2549 2.56318 15.1336 2.51144C15.0122 2.4597 14.9084 2.37208 14.8354 2.25967C14.7625 2.14725 14.7235 2.01508 14.7235 1.87988C14.7235 1.69858 14.7935 1.52471 14.9181 1.39651C15.0426 1.26831 15.2116 1.19629 15.3878 1.19629ZM10.9123 1.19629C11.0436 1.19629 11.1721 1.23638 11.2813 1.3115C11.3905 1.38661 11.4757 1.49337 11.526 1.61828C11.5762 1.74319 11.5894 1.88064 11.5638 2.01325C11.5381 2.14585 11.4749 2.26765 11.382 2.36326C11.2891 2.45886 11.1707 2.52396 11.0419 2.55034C10.913 2.57672 10.7794 2.56318 10.6581 2.51144C10.5367 2.4597 10.4329 2.37208 10.3599 2.25967C10.287 2.14725 10.248 2.01508 10.248 1.87988C10.248 1.69858 10.318 1.52471 10.4426 1.39651C10.5671 1.26831 10.7361 1.19629 10.9123 1.19629ZM13.1508 1.19629C13.2822 1.19629 13.4107 1.23638 13.5199 1.3115C13.6291 1.38661 13.7143 1.49337 13.7645 1.61828C13.8148 1.74319 13.828 1.88064 13.8023 2.01325C13.7767 2.14585 13.7135 2.26765 13.6206 2.36326C13.5277 2.45886 13.4093 2.52396 13.2804 2.55034C13.1516 2.57672 13.018 2.56318 12.8966 2.51144C12.7753 2.4597 12.6715 2.37208 12.5985 2.25967C12.5255 2.14725 12.4866 2.01508 12.4866 1.87988C12.4866 1.69858 12.5566 1.52471 12.6811 1.39651C12.8057 1.26831 12.9747 1.19629 13.1508 1.19629Z" fill="black"/>
</g>
<defs>
<clipPath id="clip0_476_242">
<rect width="18" height="21" fill="white"/>
</clipPath>
</defs>
</svg>
