<svg width="14" height="14" viewBox="0 0 14 14" fill="none" xmlns="http://www.w3.org/2000/svg">
<g clip-path="url(#clip0_1502_22)">
<mask id="mask0_1502_22" style="mask-type:luminance" maskUnits="userSpaceOnUse" x="0" y="0" width="14" height="14">
<path d="M14 0H0V14H14V0Z" fill="white"/>
</mask>
<g mask="url(#mask0_1502_22)">
<path fill-rule="evenodd" clip-rule="evenodd" d="M3.082 6.49414H10.9612V4.25424H8.45101C8.18748 4.25424 7.82072 4.12093 7.64706 3.95801C7.47339 3.79508 7.36773 3.50114 7.36773 3.25505V0.870443H0.989527C0.967669 0.870443 0.950663 0.880697 0.939734 0.890951C0.921518 0.902344 0.91666 0.917155 0.91666 0.938803V13.0669C0.91666 13.0828 0.92759 13.1033 0.93852 13.1136C0.94945 13.1296 0.972522 13.1341 0.988314 13.1341C3.7548 13.1341 8.04296 13.1341 10.8872 13.1341C10.909 13.1341 10.9078 13.1239 10.92 13.1136C10.9369 13.1033 10.96 13.0817 10.96 13.0669V11.7954H3.082C2.57922 11.7954 2.16388 11.408 2.16388 10.9341V7.35433C2.16388 6.88151 2.57679 6.49414 3.082 6.49414ZM3.58235 7.67904H5.18418C5.53272 7.67904 5.79383 7.75651 5.96871 7.9126C6.14237 8.06869 6.2286 8.28972 6.2286 8.57796C6.2286 8.87305 6.13387 9.10433 5.94442 9.27067C5.75497 9.43703 5.46593 9.52019 5.07731 9.52019H4.54904V10.6014H3.58235V7.67904ZM4.54782 8.92887H4.78464C4.97166 8.92887 5.10281 8.89811 5.17811 8.83773C5.2534 8.77735 5.29106 8.69987 5.29106 8.60531C5.29106 8.51302 5.25827 8.43555 5.19268 8.37175C5.12711 8.30795 5.00445 8.27604 4.82228 8.27604H4.5466V8.92887H4.54782ZM6.67793 7.67904H8.10854C8.39029 7.67904 8.6186 7.71549 8.79227 7.78614C8.96593 7.85791 9.10924 7.96045 9.22339 8.09489C9.33636 8.22933 9.41887 8.38542 9.46871 8.56316C9.51967 8.74089 9.54524 8.93001 9.54524 9.12939C9.54524 9.4416 9.50754 9.68427 9.4311 9.85628C9.35578 10.0283 9.25011 10.1731 9.1153 10.2893C8.9805 10.4055 8.83599 10.4829 8.68175 10.5217C8.47045 10.5752 8.27978 10.6014 8.10854 10.6014H6.67793V7.67904ZM7.63856 8.34099V9.9372H7.87537C8.07696 9.9372 8.22027 9.91555 8.3065 9.87448C8.3915 9.83239 8.45829 9.7594 8.50687 9.6558C8.55545 9.55099 8.57974 9.38233 8.57974 9.14877C8.57974 8.83887 8.52631 8.6281 8.41823 8.51302C8.31014 8.39909 8.13162 8.34212 7.88144 8.34212H7.63856V8.34099ZM9.98848 7.67904H12.3688V8.30795H10.9551V8.81836H12.1647V9.4108H10.9551V10.6026H9.9897V7.67904H9.98848ZM11.8757 6.49414H13.0816C13.5869 6.49414 13.9998 6.88265 13.9998 7.35547V10.9352C13.9998 11.408 13.5856 11.7966 13.0816 11.7966H11.8757V13.3403C11.8757 13.5237 11.7968 13.6867 11.6692 13.8075C11.5405 13.9282 11.3668 14.0011 11.1713 14.0011C7.59605 14.0011 4.29886 14.0011 0.705349 14.0011C0.509825 14.0011 0.33616 13.9282 0.20743 13.8075C0.0787003 13.6867 0.000976562 13.5237 0.000976562 13.3403V0.666504C0.000976562 0.483073 0.0799148 0.32015 0.20743 0.199381C0.33616 0.0786133 0.514683 0.00569662 0.705349 0.00569662H7.83651C7.8523 0 7.8693 0 7.8863 0C7.96402 0 8.04296 0.0319011 8.09882 0.0786133H8.10975C8.12069 0.0843099 8.12676 0.0888672 8.13768 0.0991209L11.7797 3.55811C11.8417 3.61621 11.8866 3.69482 11.8866 3.7837C11.8866 3.80989 11.8805 3.8304 11.8757 3.85775V6.49414ZM8.19962 3.18669V1.01856L10.8022 3.49088H8.52388C8.43401 3.49088 8.35628 3.45443 8.29435 3.40202C8.23848 3.34961 8.19962 3.271 8.19962 3.18669Z" fill="#B99750"/>
</g>
</g>
<defs>
<clipPath id="clip0_1502_22">
<rect width="14" height="14" fill="white"/>
</clipPath>
</defs>
</svg>
