<svg width="15" height="15" viewBox="0 0 15 15" fill="none" xmlns="http://www.w3.org/2000/svg">
<g clip-path="url(#clip0_276_187)">
<path fill-rule="evenodd" clip-rule="evenodd" d="M3.30219 6.95801H11.7442V4.55811H9.05471C8.77235 4.55811 8.37939 4.41528 8.19333 4.24072C8.00726 4.06616 7.89405 3.75122 7.89405 3.48755V0.932617H1.06026C1.03684 0.932617 1.01862 0.943604 1.00691 0.95459C0.987393 0.966797 0.982188 0.982666 0.982188 1.00586V14.0002C0.982188 14.0173 0.993899 14.0393 1.00561 14.0503C1.01732 14.0674 1.04204 14.0723 1.05896 14.0723C4.02305 14.0723 8.61751 14.0723 11.6649 14.0723C11.6883 14.0723 11.687 14.0613 11.7 14.0503C11.7182 14.0393 11.7429 14.0161 11.7429 14.0002V12.6379H3.30219C2.7635 12.6379 2.3185 12.2229 2.3185 11.7151V7.87964C2.3185 7.37305 2.7609 6.95801 3.30219 6.95801ZM3.83828 8.22754H5.55453C5.92797 8.22754 6.20773 8.31055 6.3951 8.47778C6.58116 8.64502 6.67355 8.88184 6.67355 9.19067C6.67355 9.50684 6.57206 9.75464 6.36907 9.93286C6.16609 10.1111 5.85641 10.2002 5.44003 10.2002H4.87402V11.3586H3.83828V8.22754ZM4.87272 9.56665H5.12645C5.32683 9.56665 5.46735 9.53369 5.54803 9.469C5.6287 9.4043 5.66904 9.32129 5.66904 9.21997C5.66904 9.12109 5.63391 9.03809 5.56364 8.96973C5.49338 8.90137 5.36196 8.86719 5.16678 8.86719H4.87141V9.56665H4.87272ZM7.15498 8.22754H8.68777C8.98965 8.22754 9.23427 8.2666 9.42034 8.34229C9.60641 8.41919 9.75995 8.52905 9.88226 8.6731C10.0033 8.81714 10.0917 8.98438 10.1451 9.17481C10.1997 9.36524 10.2271 9.56787 10.2271 9.78149C10.2271 10.116 10.1867 10.376 10.1048 10.5603C10.0241 10.7446 9.91088 10.8997 9.76645 11.0242C9.62202 11.1487 9.46718 11.2317 9.30193 11.2732C9.07553 11.3306 8.87124 11.3586 8.68777 11.3586H7.15498V8.22754ZM8.18422 8.93677V10.647H8.43795C8.65394 10.647 8.80748 10.6238 8.89987 10.5798C8.99095 10.5347 9.06251 10.4565 9.11456 10.3455C9.16661 10.2332 9.19263 10.0525 9.19263 9.80225C9.19263 9.47022 9.13538 9.24439 9.01958 9.12109C8.90377 8.99902 8.7125 8.93799 8.44445 8.93799H8.18422V8.93677ZM10.702 8.22754H13.2523V8.90137H11.7377V9.44824H13.0337V10.083H11.7377V11.3599H10.7033V8.22754H10.702ZM12.724 6.95801H14.0161C14.5574 6.95801 14.9998 7.37427 14.9998 7.88086V11.7163C14.9998 12.2229 14.5561 12.6392 14.0161 12.6392H12.724V14.2932C12.724 14.4897 12.6395 14.6643 12.5028 14.7937C12.3649 14.9231 12.1788 15.0012 11.9693 15.0012C8.13868 15.0012 4.60597 15.0012 0.755783 15.0012C0.546293 15.0012 0.360224 14.9231 0.222299 14.7937C0.0843741 14.6643 0.00109863 14.4897 0.00109863 14.2932V0.714111C0.00109863 0.517578 0.0856753 0.343018 0.222299 0.213623C0.360224 0.0842285 0.551498 0.00610352 0.755783 0.00610352H8.39631C8.41323 0 8.43144 0 8.44966 0C8.53293 0 8.61751 0.0341797 8.67736 0.0842285H8.68907C8.70079 0.090332 8.70729 0.0952149 8.719 0.106201L12.6212 3.81226C12.6876 3.87451 12.7357 3.95874 12.7357 4.05396C12.7357 4.08203 12.7292 4.104 12.724 4.1333V6.95801ZM8.78536 3.41431V1.09131L11.5738 3.74023H9.13278C9.03649 3.74023 8.95321 3.70117 8.88686 3.64502C8.827 3.58887 8.78536 3.50464 8.78536 3.41431Z" fill="#AEAEAE"/>
</g>
<defs>
<clipPath id="clip0_276_187">
<rect width="15" height="15" fill="white"/>
</clipPath>
</defs>
</svg>
