<svg width="25" height="26" viewBox="0 0 25 26" fill="none" xmlns="http://www.w3.org/2000/svg">
<g clip-path="url(#clip0_105_7)">
<path fill-rule="evenodd" clip-rule="evenodd" d="M18.28 18.5875L16.333 23.7811L9.15529 23.6813L7.16961 18.5854C8.87656 15.4004 10.61 11.5147 11.5011 8.11531L12.4471 8.22148L12.4105 17.3815C12.2076 17.4612 12.0385 17.6137 11.9337 17.8118C11.8289 18.0098 11.7951 18.2404 11.8385 18.4621C11.8819 18.6838 11.9996 18.8821 12.1704 19.0214C12.3413 19.1607 12.5541 19.2318 12.7707 19.2221C12.9873 19.2124 13.1935 19.1224 13.3522 18.9683C13.511 18.8142 13.6119 18.6061 13.6369 18.3814C13.6619 18.1566 13.6093 17.9299 13.4886 17.742C13.3678 17.5541 13.1868 17.4172 12.9781 17.356L13.0086 8.28093L14.091 8.22997C14.8845 11.657 16.6016 15.5299 18.28 18.5918V18.5875ZM10.8683 0H14.62C14.6859 -5.68207e-07 14.7511 0.0135801 14.812 0.0399626C14.8728 0.0663451 14.9281 0.10501 14.9746 0.153739C15.0211 0.202467 15.0579 0.2603 15.0829 0.323918C15.108 0.387536 15.1207 0.455686 15.1205 0.524459V1.79845H21.0368C21.1381 1.49795 21.3029 1.22509 21.519 1.00008C21.7079 0.802663 21.9323 0.64605 22.1793 0.539195C22.4263 0.432341 22.691 0.377342 22.9584 0.377342C23.2258 0.377342 23.4905 0.432341 23.7375 0.539195C23.9845 0.64605 24.2088 0.802663 24.3978 1.00008C24.587 1.19728 24.737 1.43146 24.8394 1.68922C24.9418 1.94699 24.9945 2.22329 24.9945 2.50233C24.9945 2.78136 24.9418 3.05766 24.8394 3.31543C24.737 3.5732 24.587 3.80737 24.3978 4.00457C24.2088 4.20263 23.9841 4.35978 23.7368 4.46701C23.4894 4.57424 23.2242 4.62944 22.9564 4.62944C22.6885 4.62944 22.4233 4.57424 22.1759 4.46701C21.9286 4.35978 21.7039 4.20263 21.5149 4.00457L21.4783 3.96211C21.2796 3.74557 21.1276 3.48709 21.0327 3.20408H17.981C18.9668 3.80241 19.8588 4.55503 20.6258 5.43569C22.1544 7.19411 23.1657 9.37446 23.5392 11.7165H24.353C24.5149 11.7165 24.6702 11.7836 24.7846 11.903C24.8991 12.0225 24.9634 12.1845 24.9634 12.3535V15.2221C24.9634 15.391 24.8991 15.553 24.7846 15.6725C24.6702 15.7919 24.5149 15.859 24.353 15.859H21.6533C21.4914 15.859 21.3361 15.7919 21.2217 15.6725C21.1072 15.553 21.0429 15.391 21.0429 15.2221V12.3535C21.0429 12.1845 21.1072 12.0225 21.2217 11.903C21.3361 11.7836 21.4914 11.7165 21.6533 11.7165H22.2819C21.9195 9.70413 21.0301 7.8359 19.7123 6.31899C18.4829 4.89767 16.8896 3.87288 15.1205 3.36546V4.48657C15.1205 4.62529 15.0678 4.75837 14.974 4.85667C14.8802 4.95496 14.7529 5.01046 14.62 5.01102H10.8683C10.737 5.00771 10.6121 4.95106 10.5201 4.85312C10.4282 4.75518 10.3765 4.62368 10.376 4.48657V3.36758C8.56081 3.89076 6.93337 4.96006 5.69663 6.44214C4.4354 7.94082 3.58061 9.76387 3.22064 11.7228H3.83099C3.99286 11.7228 4.14811 11.7899 4.26257 11.9094C4.37703 12.0289 4.44134 12.1909 4.44134 12.3598V15.2221C4.44134 15.391 4.37703 15.553 4.26257 15.6725C4.14811 15.7919 3.99286 15.859 3.83099 15.859H1.11696C0.955082 15.859 0.799836 15.7919 0.685373 15.6725C0.57091 15.553 0.506605 15.391 0.506605 15.2221V12.3535C0.506605 12.1845 0.57091 12.0225 0.685373 11.903C0.799836 11.7836 0.955082 11.7165 1.11696 11.7165H1.9511C2.32603 9.43943 3.29701 7.31497 4.75669 5.57795C5.55149 4.63746 6.48733 3.83789 7.52768 3.21045H3.96323C3.86165 3.5102 3.69687 3.78231 3.48105 4.0067C3.10032 4.40338 2.58453 4.62653 2.04655 4.62732C1.50856 4.62812 0.992178 4.4065 0.610365 4.01094C0.421204 3.81374 0.271141 3.57957 0.168756 3.3218C0.0663709 3.06403 0.0136719 2.78773 0.0136719 2.5087C0.0136719 2.22966 0.0663709 1.95336 0.168756 1.69559C0.271141 1.43783 0.421204 1.20365 0.610365 1.00645C0.799316 0.809033 1.0237 0.65242 1.27068 0.545565C1.51767 0.438711 1.78241 0.383711 2.04978 0.383711C2.31714 0.383711 2.58189 0.438711 2.82887 0.545565C3.07586 0.65242 3.30024 0.809033 3.48919 1.00645C3.70709 1.23115 3.87274 1.50499 3.9734 1.80694H10.376V0.532952C10.3738 0.394213 10.4244 0.260226 10.5167 0.160335C10.609 0.060444 10.7354 0.00279021 10.8683 0ZM16.1581 26H9.19598V24.5519H16.1621V26H16.1581Z" fill="#CCCCCC"/>
</g>
<defs>
<clipPath id="clip0_105_7">
<rect width="25" height="26" fill="white"/>
</clipPath>
</defs>
</svg>
