<svg width="24" height="30" viewBox="0 0 24 30" fill="none" xmlns="http://www.w3.org/2000/svg">
<g clip-path="url(#clip0_277_2231)">
<path d="M12 0C15.3127 0 18.3138 1.36481 20.4854 3.57148C22.6563 5.77757 24 8.8267 24 12.1942C24 15.5616 22.6569 18.6102 20.4854 20.8169C20.3238 20.9804 20.1577 21.1393 19.9875 21.2947C20.0417 20.8233 20.0688 20.3402 20.0688 19.8454C20.0688 19.5224 20.0163 19.2099 19.9194 18.9186C21.4171 17.0982 22.32 14.7532 22.32 12.1942C22.32 9.29805 21.1638 6.67631 19.2975 4.77918C17.43 2.88146 14.8494 1.70777 12 1.70777C9.14942 1.70777 6.56827 2.88146 4.70135 4.77742C2.83558 6.67455 1.68058 9.29747 1.68058 12.1942C1.68058 14.7526 2.58288 17.0982 4.08058 18.9186C3.98137 19.2172 3.93089 19.5303 3.93115 19.8454C3.93115 20.3402 3.95827 20.8233 4.0125 21.2947C3.84231 21.1405 3.67615 20.9804 3.51462 20.8169C1.34308 18.6102 0 15.5605 0 12.1942C0 8.82905 1.34365 5.78168 3.51462 3.575C5.68962 1.36598 8.68846 0 12 0ZM18 19.8454C18 19.3893 17.6354 19.0188 17.1865 19.0188C16.7371 19.0188 16.3725 19.3893 16.3725 19.8454C16.3725 21.4746 15.9888 22.8189 15.21 23.7171C14.5044 24.5296 13.4394 24.9975 12 24.9975C10.5606 24.9975 9.49442 24.5302 8.79 23.7177C8.01115 22.8195 7.62692 21.4752 7.62692 19.8454C7.62692 19.3893 7.26346 19.0188 6.81346 19.0188C6.36404 19.0188 6 19.3893 6 19.8454C6 21.8756 6.5175 23.5969 7.56923 24.8093C8.34404 25.7016 9.38538 26.3042 10.6996 26.5399V27.5512H8.70635C8.67231 27.5512 8.63827 27.5541 8.60481 27.5594H8.59904C8.29731 27.5594 8.04635 27.815 8.04635 28.1216V29.4378C8.04635 29.7444 8.29558 30 8.59904 30H15.4015C15.705 30 15.9542 29.7461 15.9542 29.4378V28.1216C15.9542 27.8133 15.7027 27.5594 15.4015 27.5594H15.3952C15.3617 27.5541 15.3283 27.5512 15.2937 27.5512H13.301V26.5399C14.614 26.3042 15.656 25.7016 16.4302 24.8087C17.4825 23.5963 18 21.875 18 19.8454ZM12 10.3498C13.6598 10.3498 15.0179 11.7299 15.0179 13.4159V13.4957H13.3944V15.1729L15.0179 15.1735V16.4428H13.3944V18.1212H15.0179V20.4581C15.0179 22.1441 13.6598 23.5242 12 23.5242C10.3408 23.5242 8.98327 22.1441 8.98327 20.4581V18.1212H10.6062V16.4428H8.98327V15.1729L10.6062 15.1735V13.4957H8.98327V13.4159C8.98327 11.7299 10.3408 10.3498 12 10.3498ZM12 4.31545C14.1375 4.31545 16.076 5.19835 17.4802 6.6253C18.885 8.04874 19.7533 10.0186 19.7533 12.1942C19.7533 14.0327 19.1325 15.7252 18.0929 17.0666C17.8008 16.967 17.4947 16.9163 17.1865 16.9165L17.0867 16.9182V15.5652C17.7092 14.5961 18.0721 13.4376 18.0721 12.1942C18.0721 10.4899 17.3919 8.9463 16.294 7.82889C15.1979 6.71324 13.6794 6.0238 12 6.0238C10.3217 6.0238 8.80212 6.71441 7.70423 7.82889C6.6075 8.94454 5.92788 10.4887 5.92788 12.1942C5.92788 13.4388 6.29077 14.5978 6.91385 15.5675V16.9182L6.81346 16.9165C6.49731 16.9165 6.19269 16.9687 5.90712 17.0648C4.86635 15.724 4.24673 14.0321 4.24673 12.1942C4.24673 10.0215 5.115 8.05225 6.5175 6.62648C7.92404 5.19776 9.86192 4.31545 12 4.31545Z" fill="white"/>
</g>
<defs>
<clipPath id="clip0_277_2231">
<rect width="24" height="30" fill="white"/>
</clipPath>
</defs>
</svg>
