<svg width="11" height="10" viewBox="0 0 11 10" fill="none" xmlns="http://www.w3.org/2000/svg">
<g clip-path="url(#clip0_276_454)">
<path d="M5.72381 2.24684C5.95242 1.99534 6.07671 1.66133 6.07007 1.31628C6.06343 0.971242 5.9264 0.642596 5.6883 0.400692C5.45021 0.158789 5.12997 0.0228509 4.79613 0.0219769C4.4623 0.0211029 4.14139 0.155362 3.90211 0.396016L0.367041 4.11247C0.132602 4.35953 0.0012722 4.6918 0.0012722 5.03788C0.0012722 5.38396 0.132602 5.71624 0.367041 5.96329L3.8305 9.60479C3.94703 9.73298 4.08715 9.83582 4.24265 9.90725C4.39815 9.97869 4.56589 10.0173 4.73602 10.0208C4.90615 10.0243 5.07524 9.99261 5.23337 9.92762C5.39149 9.86263 5.53546 9.76563 5.65682 9.64233C5.77819 9.51902 5.8745 9.3719 5.9401 9.20959C6.0057 9.04727 6.03927 8.87305 6.03884 8.69714C6.03841 8.52123 6.00398 8.34718 5.93759 8.18522C5.87119 8.02325 5.77416 7.87663 5.6522 7.75396L4.30226 6.33068L9.73333 6.30384C10.0721 6.3009 10.3959 6.15894 10.6335 5.90921C10.871 5.65947 11.0029 5.32241 11 4.97218C10.9972 4.62194 10.8598 4.28722 10.6183 4.04165C10.3767 3.79608 10.0506 3.65977 9.71185 3.66272L4.35418 3.68863L5.72381 2.24684Z" fill="white"/>
</g>
<defs>
<clipPath id="clip0_276_45  4">
<rect width="11" height="10" fill="white" transform="matrix(-1 0 0 1 11 0)"/>
</clipPath>
</defs>
</svg>
