<svg width="15" height="14" viewBox="0 0 15 14" fill="none" xmlns="http://www.w3.org/2000/svg">
    <g clipPath="url(#clip0_276_182)">
        <path
            d="M2.25342 3.04242H0.954593C0.829415 3.04243 0.705468 3.0671 0.589845 3.11502C0.474222 3.16293 0.369192 3.23315 0.280765 3.32166L0.251468 3.35337C0.0891456 3.52995 -0.000636448 3.76113 3.39656e-06 4.00087V9.67843C8.34148e-05 9.80375 0.024925 9.92783 0.073104 10.0435C0.121283 10.1593 0.191852 10.2643 0.280765 10.3528L0.311283 10.3808C0.486493 10.5423 0.716173 10.632 0.954593 10.632H2.45728C2.44645 10.6915 2.44113 10.752 2.44141 10.8125V13.0074C2.44148 13.1372 2.4673 13.2656 2.51737 13.3853C2.56745 13.5051 2.64079 13.6137 2.73316 13.7049C2.82412 13.7976 2.93253 13.8714 3.05216 13.922C3.17178 13.9727 3.30026 13.9992 3.43018 14H11.5698C11.8322 13.9994 12.0836 13.895 12.2691 13.7096C12.4547 13.5243 12.5592 13.2731 12.5598 13.0111V10.8161C12.5597 10.7556 12.554 10.6952 12.5427 10.6357H14.0454C14.2978 10.6352 14.5397 10.5348 14.718 10.3564C14.8068 10.2682 14.8774 10.1633 14.9255 10.0478C14.9737 9.9323 14.9986 9.80843 14.9988 9.6833V4.00087C14.9981 3.74817 14.8974 3.50599 14.7185 3.3273C14.5396 3.14861 14.2972 3.04794 14.0442 3.0473H12.7466V0.570683C12.7466 0.496382 12.732 0.422804 12.7035 0.35417C12.675 0.285535 12.6332 0.223192 12.5806 0.170716C12.5655 0.155959 12.5496 0.142115 12.533 0.129257C12.4327 0.0496092 12.3083 0.00658417 12.1802 0.00731659H2.81983C2.74545 0.0072813 2.67179 0.0219116 2.60309 0.0503702C2.53438 0.0788288 2.47197 0.120555 2.41944 0.173156C2.40428 0.187809 2.3904 0.203718 2.37793 0.220713C2.2982 0.320838 2.25513 0.445182 2.25586 0.573121V3.04242H2.25342ZM3.2959 10.632H11.7078L11.731 10.6527C11.7736 10.695 11.7978 10.7524 11.7981 10.8125V13.0074C11.7978 13.0678 11.7736 13.1256 11.7309 13.1683C11.6881 13.211 11.6303 13.2351 11.5698 13.2354H3.43018C3.36969 13.2353 3.31174 13.2112 3.26905 13.1684C3.22665 13.1255 3.20295 13.0676 3.20313 13.0074V10.8125C3.20316 10.7827 3.20911 10.7533 3.22064 10.7259C3.23217 10.6984 3.24904 10.6736 3.27027 10.6527L3.29346 10.632H3.2959ZM4.43116 1.88764C4.35346 1.88764 4.27894 1.91847 4.224 1.97336C4.16905 2.02824 4.13819 2.10268 4.13819 2.1803C4.13819 2.25792 4.16905 2.33235 4.224 2.38724C4.27894 2.44212 4.35346 2.47296 4.43116 2.47296H7.76856C7.84626 2.47296 7.92078 2.44212 7.97572 2.38724C8.03066 2.33235 8.06153 2.25792 8.06153 2.1803C8.06153 2.10268 8.03066 2.02824 7.97572 1.97336C7.92078 1.91847 7.84626 1.88764 7.76856 1.88764H4.43116ZM4.43116 3.6631C4.35346 3.6631 4.27894 3.69393 4.224 3.74881C4.16905 3.8037 4.13819 3.87813 4.13819 3.95575C4.13819 4.03337 4.16905 4.10781 4.224 4.16269C4.27894 4.21758 4.35346 4.24841 4.43116 4.24841H10.5725C10.6502 4.24841 10.7247 4.21758 10.7797 4.16269C10.8346 4.10781 10.8655 4.03337 10.8655 3.95575C10.8655 3.87813 10.8346 3.8037 10.7797 3.74881C10.7247 3.69393 10.6502 3.6631 10.5725 3.6631H4.43116ZM0.863041 6.60918H14.137V9.67843C14.1371 9.69063 14.1347 9.70272 14.1301 9.71402C14.1255 9.72532 14.1187 9.7356 14.1101 9.74427C14.0928 9.76121 14.0696 9.77082 14.0454 9.7711H0.954593C0.93424 9.77093 0.914509 9.76407 0.898441 9.75159L0.889896 9.74305C0.872834 9.72584 0.863194 9.70265 0.863041 9.67843V6.60918ZM14.137 5.74706H12.4744C12.5134 5.72392 12.5491 5.69561 12.5806 5.66292C12.6332 5.61045 12.675 5.5481 12.7035 5.47947C12.732 5.41083 12.7466 5.33726 12.7466 5.26296V3.90454H14.0454C14.0697 3.90456 14.093 3.91421 14.1101 3.93137C14.1269 3.94878 14.1364 3.97185 14.137 3.99599V5.74706ZM2.52564 5.74706H0.863041V4.00087C0.863281 3.98075 0.869669 3.96118 0.881351 3.94478L0.889896 3.93624C0.907049 3.91909 0.93032 3.90944 0.954593 3.90942H2.25342V5.26296C2.25339 5.33726 2.26803 5.41083 2.29652 5.47947C2.32501 5.5481 2.36678 5.61045 2.41944 5.66292C2.45088 5.69561 2.48661 5.72392 2.52564 5.74706ZM11.8848 5.23125H3.11524V0.862121H11.8848V5.23125Z"
            fill="#AEAEAE" />
    </g>
    <defs>
        <clipPath id="clip0_276_182">
            <rect width="15" height="14" fill="white" transform="matrix(1 0 0 -1 0 14)" />
        </clipPath>
    </defs>
</svg>