<svg width="13" height="13" viewBox="0 0 13 13" fill="none" xmlns="http://www.w3.org/2000/svg">
<g clip-path="url(#clip0_560_186)">
<path fill-rule="evenodd" clip-rule="evenodd" d="M2.82881 2.83211H5.50388V5.48967H2.82881V2.83211ZM3.78199 1.56997e-06H2.44605C2.12687 -0.000362422 1.81079 0.0625698 1.51619 0.185142C1.2193 0.307846 0.949473 0.487576 0.722049 0.714113C0.495077 0.94109 0.31496 1.21031 0.191912 1.50651C0.0661968 1.80203 0.000948811 2.11964 3.02764e-06 2.44068V4.08789H1.08466V2.44068C1.08578 2.26263 1.1218 2.08653 1.19069 1.92228C1.25831 1.75726 1.35814 1.60729 1.48438 1.48112C1.73957 1.22693 2.08547 1.08423 2.44605 1.08439H3.78199V1.56997e-06ZM10.554 1.56997e-06H9.68135V1.08228H10.554C10.7324 1.0835 10.9089 1.11943 11.0735 1.18807C11.2383 1.25663 11.3884 1.35611 11.5156 1.48112L11.5527 1.51921C11.6623 1.63777 11.7502 1.77455 11.8125 1.92334C11.8819 2.08707 11.9179 2.26292 11.9185 2.44068V4.08789H13.0032V2.44068C13.0034 1.81217 12.7594 1.20806 12.3225 0.755373L12.2833 0.716229C12.0558 0.489756 11.786 0.310035 11.4891 0.187257C11.193 0.0634075 10.8751 -0.000253305 10.554 1.56997e-06ZM13 10.5593V8.73014H11.9153V10.5593C11.9147 10.7371 11.8787 10.9129 11.8093 11.0767C11.7399 11.2415 11.639 11.3913 11.5124 11.5178C11.3866 11.6443 11.2369 11.7447 11.0721 11.8133C10.9072 11.8819 10.7304 11.9174 10.5518 11.9177H9.68135V13H10.554C10.875 12.9998 11.1928 12.9363 11.4892 12.8132C11.7856 12.6901 12.0547 12.5098 12.2811 12.2827C12.5077 12.0554 12.6878 11.7863 12.8113 11.4903C12.9338 11.1952 12.9968 10.8788 12.9968 10.5593H13ZM2.44605 13H3.78199V11.9177H2.44605C2.26726 11.9176 2.09026 11.8821 1.92523 11.8135C1.76019 11.7449 1.61038 11.6444 1.48438 11.5178L1.45682 11.4924C1.33795 11.3674 1.24403 11.2209 1.18009 11.0608C1.11609 10.9013 1.08334 10.7311 1.0836 10.5593V8.73014H3.02764e-06V10.5593C-0.0004917 10.8701 0.0596483 11.1781 0.177069 11.466C0.294095 11.7566 0.46658 12.0218 0.684939 12.2467L0.717807 12.2838C0.945667 12.5103 1.21583 12.69 1.51301 12.8127C1.8087 12.9354 2.12583 12.9983 2.44605 12.9979V13ZM9.49898 9.49821H10.1786V10.1679H9.49898V9.49821ZM8.18849 9.49821H8.8713V10.133H7.50673V8.83065H8.1641V8.16943H8.83631V6.85124H9.52125V7.4987H10.1701V8.16838H9.52125V8.83805H8.18849V9.49715V9.49821ZM6.16443 8.15886H6.82498V7.48918H6.18881V6.8195H6.82498V6.14982H6.17503V6.8195H5.49221V6.14982H6.16337V4.16089H6.84512V6.14876H7.50567V6.81844H8.15562V6.14876H8.83737V6.81844H8.18849V7.48812H7.50673V8.80632H6.84618V10.1362H6.16443V8.15886ZM9.48838 6.14876H10.1701V6.81844H9.48838V6.14876ZM4.16157 6.14876H4.84333V6.81844H4.16157V6.14876ZM2.82881 6.14876H3.51057V6.81844H2.82881V6.14876ZM6.16443 2.83211H6.84618V3.50179H6.16443V2.83211ZM2.81821 7.4987H5.49221V10.1563H2.81821V7.4987ZM3.46815 8.14616H4.84651V9.51196H3.46815V8.14616ZM7.49719 2.83317H10.1701V5.48967H7.49613V2.83211L7.49719 2.83317ZM8.14714 3.47852H9.52549V4.84432H8.14714V3.47746V3.47852ZM3.48194 3.47852H4.86029V4.84432H3.48194V3.47746V3.47852Z" fill="#5F5F5F"/>
</g>
<defs>
<clipPath id="clip0_560_186">
<rect width="13" height="13" fill="white"/>
</clipPath>
</defs>
</svg>
