<svg width="27" height="29" viewBox="0 0 27 29" fill="none" xmlns="http://www.w3.org/2000/svg">
<g clip-path="url(#clip0_276_15)">
<path d="M16.1926 1.82147H6.37099C5.7302 1.82147 5.13871 1.9331 4.60871 2.15588C4.07895 2.37891 3.58604 2.71356 3.14219 3.1596C2.69857 3.60565 2.36574 4.10125 2.14393 4.63415C1.92212 5.16681 1.81133 5.76177 1.81133 6.40605V16.0458C1.81133 16.6901 1.92212 17.2848 2.14393 17.8177C2.36574 18.3506 2.69857 18.846 3.14219 19.2923C3.59801 19.7386 4.09116 20.085 4.62092 20.2958C5.15092 20.5188 5.7302 20.6304 6.37099 20.6304H10.5856C11.0788 20.6304 11.4853 21.0392 11.4853 21.5348C11.4853 21.6464 11.4606 21.7455 11.436 21.8446C11.2757 22.4396 11.1032 23.0343 10.906 23.604C10.6964 24.2115 10.4748 24.7812 10.2281 25.3391C10.1049 25.624 9.95703 25.8963 9.79695 26.1817C10.6595 25.7972 11.4728 25.3514 12.2247 24.8556C13.0133 24.3352 13.7527 23.753 14.4303 23.1209C15.1204 22.4767 15.7365 21.7703 16.3034 21.0144C16.4759 20.7793 16.747 20.6554 17.0181 20.6554H20.6412C21.282 20.6554 21.8613 20.5438 22.3911 20.3208C22.921 20.0977 23.414 19.7631 23.87 19.3173C24.3136 18.871 24.6465 18.3756 24.8683 17.8427C25.0899 17.3098 25.2009 16.7149 25.2009 16.0708V6.43084C25.2009 5.78655 25.0899 5.19182 24.8683 4.65893C24.6465 4.12603 24.3136 3.63066 23.87 3.18438C23.4264 2.7381 22.9335 2.40369 22.4035 2.1809C21.8735 1.95788 21.2822 1.84625 20.6412 1.84625H16.1926V1.82147ZM14.4834 13.1425H12.1418V12.8881C12.1418 12.4555 12.1859 12.1029 12.2765 11.8329C12.3671 11.5604 12.5014 11.3154 12.6805 11.0912C12.8593 10.8667 13.2612 10.4731 13.886 9.90999C14.2184 9.61475 14.3845 9.34452 14.3845 9.09932C14.3845 8.85222 14.3172 8.66224 14.1848 8.52489C14.0501 8.38966 13.848 8.32098 13.5769 8.32098C13.2842 8.32098 13.0443 8.42624 12.8532 8.63675C12.6617 8.84514 12.5399 9.21354 12.4868 9.73582L10.0948 9.41296C10.1767 8.45621 10.4964 7.68684 11.052 7.10321C11.6097 6.51957 12.4638 6.22858 13.6144 6.22858C14.5106 6.22858 15.2323 6.43225 15.7832 6.83747C16.5306 7.38924 16.9047 8.12156 16.9047 9.03725C16.9047 9.41721 16.808 9.78585 16.6144 10.1384C16.4231 10.4908 16.0273 10.9236 15.4321 11.4317C15.0176 11.7912 14.7545 12.0772 14.6451 12.2948C14.538 12.5105 14.4834 12.7942 14.4834 13.1425ZM12.0599 13.8198H14.5697V15.8334H12.0599V13.8198ZM10.8199 0.0125081H20.6412C21.5038 0.0125081 22.3173 0.173698 23.0814 0.483333C23.8329 0.792969 24.5232 1.26403 25.1394 1.88354C25.7558 2.50304 26.224 3.19689 26.5322 3.95281C26.8402 4.70872 27.0002 5.52624 27.0002 6.40629V16.0458C27.0002 16.9259 26.8399 17.7434 26.5322 18.4993C26.224 19.2547 25.7558 19.9486 25.1394 20.5686C24.5232 21.1881 23.8332 21.6462 23.0814 21.9685C22.3298 22.2784 21.5163 22.4396 20.6412 22.4396H17.4619C16.9075 23.1457 16.3036 23.8146 15.6628 24.422C14.8988 25.1407 14.0855 25.7845 13.2105 26.3546C12.3354 26.9369 11.3989 27.4452 10.4006 27.8785C9.41483 28.3123 8.35507 28.6717 7.24602 28.9691C6.92563 29.0557 6.58059 28.9566 6.34634 28.6963C6.01374 28.3248 6.0506 27.7551 6.42028 27.4204C6.93783 26.9619 7.38145 26.4911 7.73893 26.02C8.08397 25.5619 8.36751 25.0906 8.57688 24.6078V24.5953C8.81113 24.0749 9.0205 23.542 9.20546 23.0091C9.26719 22.8233 9.32868 22.6251 9.39042 22.4269H6.35878C5.49619 22.4269 4.68289 22.2654 3.91864 21.9558C3.16683 21.6459 2.47676 21.1753 1.86062 20.5558C1.24448 19.9363 0.776217 19.2422 0.46803 18.4866C0.160079 17.7186 0 16.9009 0 16.0335V6.39355C0 5.526 0.160079 4.70825 0.468265 3.94006C0.776452 3.18415 1.24472 2.4903 1.86085 1.87079C2.47699 1.25129 3.16707 0.780461 3.91887 0.470589C4.67068 0.160718 5.48375 0 6.35878 0H10.8074L10.8199 0.0125081Z" fill="#B99750"/>
</g>
<defs>
<clipPath id="clip0_276_15">
<rect width="27" height="29" fill="white"/>
</clipPath>
</defs>
</svg>
