<svg width="12" height="12" viewBox="0 0 12 12" fill="none" xmlns="http://www.w3.org/2000/svg">
<g clipPath="url(#clip0_9_78)">
<path d="M6 0C7.6568 0 9.15703 0.671719 10.2427 1.75734C11.3283 2.8432 12 4.3432 12 6C12 7.6568 11.3283 9.15703 10.2427 10.2427C9.15703 11.3283 7.6568 12 6 12C4.3432 12 2.8432 11.3283 1.75734 10.2427C0.671719 9.15703 0 7.6568 0 6C0 4.3432 0.671719 2.8432 1.75734 1.75734C2.8432 0.671719 4.3432 0 6 0ZM5.49633 7.06664V7.01906C5.50008 6.70359 5.53102 6.45375 5.59172 6.26789C5.65125 6.08227 5.7368 5.93109 5.84883 5.81672C5.96063 5.70141 6.09516 5.59664 6.25242 5.50125C6.35344 5.43703 6.44508 5.36578 6.52617 5.28609C6.60703 5.20734 6.67125 5.1157 6.71906 5.01211C6.76641 4.90969 6.79031 4.79555 6.79031 4.66945C6.79031 4.51945 6.75469 4.38961 6.6832 4.27898C6.61289 4.1693 6.51773 4.08492 6.40102 4.02422C6.28312 3.96469 6.15234 3.93492 6.0082 3.93492C5.87859 3.93492 5.75484 3.96094 5.63578 4.01578C5.51789 4.06945 5.41898 4.15383 5.34164 4.2682C5.2643 4.38234 5.21906 4.52883 5.20711 4.70742H4.43578C4.44773 4.40391 4.52508 4.1468 4.66664 3.93609C4.80961 3.72539 4.99781 3.56578 5.23102 3.4575C5.46563 3.34922 5.72508 3.29578 6.0082 3.29578C6.32016 3.29578 6.59156 3.35273 6.82477 3.46945C7.0582 3.585 7.24031 3.74672 7.37016 3.95391C7.49859 4.16109 7.56422 4.40156 7.56422 4.67766C7.56422 4.86703 7.53445 5.03719 7.47492 5.18836C7.41539 5.33953 7.33195 5.47523 7.2225 5.59312C7.11281 5.71219 6.9832 5.81672 6.83086 5.90742C6.68672 5.99789 6.57023 6.0907 6.48211 6.18703C6.39281 6.28336 6.32836 6.39773 6.28805 6.52875C6.2475 6.6607 6.225 6.82383 6.22148 7.01906V7.06664H5.49633ZM5.87977 8.6093C5.74055 8.60836 5.62148 8.55937 5.52141 8.46047C5.42156 8.3618 5.37258 8.24156 5.37258 8.10117C5.37258 7.96312 5.42156 7.84406 5.52141 7.74516C5.62148 7.64648 5.74055 7.59633 5.87977 7.59633C6.01664 7.59633 6.1357 7.64648 6.23555 7.74516C6.3368 7.84406 6.38672 7.96312 6.38672 8.10117C6.38672 8.19398 6.36305 8.27977 6.31664 8.35594C6.27023 8.43328 6.20953 8.49516 6.13336 8.54039C6.05719 8.58563 5.97258 8.60836 5.87977 8.6093ZM9.79008 2.20992C8.82023 1.24031 7.48008 0.640312 6 0.640312C4.51992 0.640312 3.18 1.24031 2.20992 2.20992C1.24031 3.18 0.640312 4.51992 0.640312 6C0.640312 7.48008 1.24031 8.82023 2.20992 9.79008C3.18 10.7597 4.51992 11.3597 6 11.3597C7.48008 11.3597 8.82023 10.7597 9.79008 9.79008C10.7597 8.82023 11.3597 7.48008 11.3597 6C11.3597 4.51992 10.7597 3.18 9.79008 2.20992Z" fill="#B99750"/>
</g>
<defs>
<clipPath id="clip0_9_78">
<rect width="12" height="12" fill="white"/>
</clipPath>
</defs>
</svg>
