<svg width="14" height="14" viewBox="0 0 14 14" fill="none" xmlns="http://www.w3.org/2000/svg">
<g clip-path="url(#clip0_1502_46)">
<mask id="mask0_1502_46" style="mask-type:luminance" maskUnits="userSpaceOnUse" x="0" y="0" width="14" height="14">
<path d="M14 0H0V14H14V0Z" fill="white"/>
</mask>
<g mask="url(#mask0_1502_46)">
<path d="M7 0C8.93293 0 10.6832 0.783672 11.9498 2.05023C13.2163 3.31707 14 5.06707 14 7C14 8.93293 13.2163 10.6832 11.9498 11.9498C10.6832 13.2163 8.93293 14 7 14C5.06707 14 3.31707 13.2163 2.05023 11.9498C0.783672 10.6832 0 8.93293 0 7C0 5.06707 0.783672 3.31707 2.05023 2.05023C3.31707 0.783672 5.06707 0 7 0ZM6.41238 8.24441V8.1889C6.41676 7.82085 6.45286 7.52937 6.52367 7.31254C6.59312 7.09598 6.69293 6.9196 6.82364 6.78617C6.95407 6.65164 7.11102 6.52941 7.29449 6.41812C7.41235 6.3432 7.51926 6.26008 7.61386 6.1671C7.7082 6.07523 7.78312 5.96832 7.8389 5.84746C7.89414 5.72797 7.92203 5.59481 7.92203 5.44769C7.92203 5.27269 7.88047 5.12121 7.79707 4.99214C7.71504 4.86418 7.60402 4.76574 7.46786 4.69492C7.33031 4.62547 7.17773 4.59074 7.00957 4.59074C6.85835 4.59074 6.71398 4.6211 6.57508 4.68508C6.43754 4.74769 6.32214 4.84613 6.23191 4.97957C6.14168 5.11273 6.0889 5.28363 6.07496 5.49199H5.17508C5.18902 5.13789 5.27926 4.83793 5.44441 4.5921C5.61121 4.34629 5.83078 4.16008 6.10286 4.03375C6.37657 3.90742 6.67926 3.84508 7.00957 3.84508C7.37352 3.84508 7.69015 3.91152 7.96223 4.04769C8.23457 4.1825 8.44703 4.37117 8.59852 4.61289C8.74835 4.8546 8.82492 5.13515 8.82492 5.45727C8.82492 5.6782 8.79019 5.87672 8.72074 6.05309C8.65129 6.22945 8.55394 6.38777 8.42625 6.52531C8.29828 6.66422 8.14707 6.78617 7.96934 6.89199C7.80117 6.99754 7.66527 7.10582 7.56246 7.2182C7.45828 7.33059 7.38309 7.46402 7.33606 7.61687C7.28875 7.77082 7.2625 7.96113 7.25839 8.1889V8.24441H6.41238ZM6.85973 10.0442C6.69731 10.0431 6.55839 9.98593 6.44164 9.87055C6.32515 9.75543 6.26801 9.61515 6.26801 9.45136C6.26801 9.29031 6.32515 9.1514 6.44164 9.03602C6.55839 8.92089 6.69731 8.86238 6.85973 8.86238C7.01941 8.86238 7.15832 8.92089 7.27481 9.03602C7.39293 9.1514 7.45117 9.29031 7.45117 9.45136C7.45117 9.55964 7.42356 9.65973 7.36941 9.7486C7.31527 9.83883 7.24445 9.91102 7.15559 9.96379C7.06672 10.0166 6.96801 10.0431 6.85973 10.0442ZM11.4218 2.57824C10.2903 1.44703 8.72676 0.747031 7 0.747031C5.27324 0.747031 3.71 1.44703 2.57824 2.57824C1.44703 3.71 0.747031 5.27324 0.747031 7C0.747031 8.72676 1.44703 10.2903 2.57824 11.4218C3.71 12.553 5.27324 13.253 7 13.253C8.72676 13.253 10.2903 12.553 11.4218 11.4218C12.553 10.2903 13.253 8.72676 13.253 7C13.253 5.27324 12.553 3.71 11.4218 2.57824Z" fill="#B99750"/>
</g>
</g>
<defs>
<clipPath id="clip0_1502_46">
<rect width="14" height="14" fill="white"/>
</clipPath>
</defs>
</svg>
