<svg width="37" height="37" viewBox="0 0 37 37" fill="none" xmlns="http://www.w3.org/2000/svg">
    <g clip-path="url(#clip0_328_247)">
        <path
            d="M18.5 0.00602214C23.6098 0.00602214 28.2348 2.07463 31.5801 5.41992C34.9254 8.76522 36.994 13.3902 36.994 18.5H36.997V18.503H36.994C36.994 23.6128 34.9254 28.2378 31.5801 31.5831C28.2348 34.9284 23.6098 36.997 18.5 36.997V37.003H18.497V36.997C13.3872 36.997 8.76221 34.9284 5.41691 31.5831C2.07463 28.2348 0.00602214 23.6128 0.00602214 18.5H0V18.497H0.00602214C0.00602214 13.3902 2.07463 8.76522 5.41992 5.41992C8.76522 2.07463 13.3902 0.00602214 18.5 0.00602214ZM8.14193 13.8208C7.81372 13.4173 7.87394 12.8241 8.27743 12.4959C8.68091 12.1677 9.27409 12.2279 9.60229 12.6314C9.66252 12.7067 9.74683 12.785 9.84318 12.8663C10.331 13.2668 11.0807 13.5347 11.8757 13.5769C12.6585 13.6191 13.4625 13.4354 14.0737 12.9416C14.1972 12.8422 14.3176 12.7188 14.4351 12.5772C14.7663 12.1737 15.3595 12.1135 15.7629 12.4447C16.1664 12.776 16.2266 13.3691 15.8954 13.7726C15.7057 14.0045 15.4919 14.2122 15.2601 14.4019C14.2544 15.2179 12.9867 15.5221 11.7793 15.4588C10.5869 15.3956 9.43066 14.968 8.64779 14.3267C8.46411 14.1791 8.29248 14.0075 8.14193 13.8208ZM10.608 27.0605C10.3581 27.5182 9.78898 27.6838 9.3313 27.4369C8.87362 27.1869 8.70801 26.6178 8.95492 26.1602C10.1895 23.8958 12.1226 22.2819 14.3267 21.3304C16.0159 20.6017 17.8647 20.2585 19.6743 20.3127C21.499 20.3669 23.2936 20.8185 24.8594 21.6737C26.6841 22.6673 28.1956 24.203 29.099 26.2866C29.3037 26.7624 29.0839 27.3164 28.6082 27.5212C28.1324 27.7259 27.5784 27.5061 27.3736 27.0304C26.651 25.3592 25.4315 24.1247 23.9621 23.3237C22.6613 22.6131 21.1588 22.2367 19.6261 22.1916C18.0815 22.1464 16.5067 22.4355 15.0734 23.0557C13.2367 23.8507 11.6287 25.1876 10.608 27.0605ZM21.1046 13.8208C20.7764 13.4173 20.8366 12.8241 21.2401 12.4959C21.6436 12.1677 22.2367 12.2279 22.5649 12.6314C22.6252 12.7067 22.7095 12.785 22.8058 12.8663C23.2936 13.2668 24.0434 13.5347 24.8383 13.5769C25.6212 13.6191 26.4251 13.4354 27.0334 12.9416C27.1568 12.8422 27.2773 12.7188 27.3947 12.5772C27.7259 12.1737 28.3191 12.1135 28.7226 12.4447C29.1261 12.776 29.1863 13.3691 28.8551 13.7726C28.6654 14.0045 28.4516 14.2122 28.2197 14.4019C27.214 15.2179 25.9464 15.5221 24.7389 15.4588C23.5466 15.3956 22.3903 14.968 21.6074 14.3267C21.4268 14.1791 21.2551 14.0075 21.1046 13.8208ZM18.5 2.35767V2.36369H18.497L18.5 2.35767C14.0466 2.35767 10.0118 4.16732 7.08805 7.09106C4.16431 10.0118 2.35767 14.0466 2.35767 18.5H2.36369V18.503H2.35767C2.35767 22.9564 4.16732 26.9912 7.08805 29.9119C10.0118 32.8357 14.0466 34.6423 18.5 34.6453V34.6393H18.503V34.6453C22.9564 34.6453 26.9912 32.8357 29.9119 29.9119C32.8357 26.9882 34.6423 22.9534 34.6423 18.5H34.6393V18.497H34.6423C34.6423 14.0466 32.8327 10.0118 29.9119 7.08805C26.9882 4.16732 22.9534 2.35767 18.5 2.35767Z"
            fill="#FF0000" />
    </g>
    <defs>
        <clipPath id="clip0_328_247">
            <rect width="37" height="37" fill="white" />
        </clipPath>
    </defs>
</svg>
    