<svg width="241" height="173" viewBox="0 0 241 173" fill="none" xmlns="http://www.w3.org/2000/svg">
<g clip-path="url(#clip0_105_488)">
<path d="M22.6575 172.733C24.3312 172.733 25.688 171.381 25.688 169.713C25.688 168.045 24.3312 166.693 22.6575 166.693C20.9838 166.693 19.627 168.045 19.627 169.713C19.627 171.381 20.9838 172.733 22.6575 172.733Z" fill="#3F3D56"/>
<path d="M15.8176 82.6955C16.0715 81.84 16.4982 81.1125 17.0024 80.5958L18.9043 72.2937L22.8418 73.3111L20.4886 81.6232C20.6297 82.3302 20.5908 83.1719 20.3369 84.0274C19.757 85.9818 18.2752 87.268 17.0272 86.9002C15.7792 86.5324 15.2377 84.6499 15.8176 82.6955Z" fill="#FFB6B6"/>
<path d="M53.7148 163.418L49.9883 163.505L47.9111 146.821L53.4105 146.691L53.7148 163.418Z" fill="#FFB6B6"/>
<path d="M40.9297 171.166C40.9297 171.793 41.3764 172.302 41.9275 172.302H49.3243C49.3243 172.302 50.0522 169.386 53.02 168.131L53.2248 172.302H57.0405L56.5782 165.595C56.5782 165.595 57.5989 162.007 55.4791 160.173C53.3592 158.339 55.0762 158.594 55.0762 158.594L54.2423 154.443L48.4764 155.119L48.434 161.635L45.6358 168.103L41.5315 170.123C41.1662 170.303 40.9297 170.713 40.9297 171.166Z" fill="#2F2E41"/>
<path d="M29.208 159.056L25.4815 159.144L23.4043 142.459L28.9036 142.33L29.208 159.056Z" fill="#FFB6B6"/>
<path d="M16.4229 166.804C16.4229 167.432 16.8696 167.94 17.4207 167.94H24.8175C24.8175 167.94 25.5454 165.024 28.5131 163.77L28.7179 167.94H32.5337L32.0714 161.234C32.0714 161.234 33.0921 157.646 30.9723 155.812C28.8524 153.978 30.5694 154.233 30.5694 154.233L29.7355 150.082L23.9695 150.758L23.9271 157.274L21.1289 163.741L17.0247 165.762C16.6594 165.942 16.4229 166.351 16.4229 166.804Z" fill="#2F2E41"/>
<path d="M52.5604 30.4166L39.1402 32.7425C38.2157 30.3843 32.0085 14.3846 31.6252 12.0757C30.6285 6.07279 35.1194 0.538527 41.2078 0.0857179C47.0472 -0.348577 50.6047 0.741264 51.1017 6.28445C51.2759 8.22738 52.9489 13.4322 53.4602 15.3151C56.281 25.7033 53.235 28.2029 52.5604 30.4166Z" fill="#2F2E41"/>
<path d="M30.6801 64.4341L29.8049 77.8085L21.4902 118.949L22.0737 147.733L29.659 146.57L31.993 120.112L45.1639 90.3107L46.8718 152.095L55.0406 152.385L60.7815 79.8283C61.2202 74.2844 59.7622 68.7559 56.6452 64.1434L30.6801 64.4341Z" fill="#2F2E41"/>
<path d="M47.6007 21.4034H36.8935L34.4723 25.1831L26.0117 28.6721L30.6796 61.8174L29.5126 76.064C36.1085 78.2944 51.4156 81.7467 62.487 72.6353L52.5603 54.8394L54.8942 29.835L50.3722 25.7348L47.6007 21.4034Z" fill="#B08F4B"/>
<path d="M32.5764 27.6544C32.5764 27.6544 27.6167 25.6192 25.2828 29.3989C24.0127 31.4558 21.6195 45.5669 19.7016 58.0037C18.0952 68.4208 16.8223 77.6631 16.8223 77.6631L21.9278 78.39L27.6313 58.0426L31.9929 42.4826L32.5764 27.6544Z" fill="#B08F4B"/>
<path d="M41.6775 19.5238C46.1453 19.5238 49.7672 15.9143 49.7672 11.4618C49.7672 7.0092 46.1453 3.39969 41.6775 3.39969C37.2097 3.39969 33.5879 7.0092 33.5879 11.4618C33.5879 15.9143 37.2097 19.5238 41.6775 19.5238Z" fill="#FFB6B6"/>
<path d="M172.134 162.644L176.156 164.843L186.583 150.429L180.647 147.182L172.134 162.644Z" fill="#FFB6B6"/>
<path d="M185.964 170.089C185.974 170.368 185.666 171.083 185.532 171.327C185.118 172.079 184.172 172.353 183.418 171.941L170.962 165.129C170.447 164.848 170.259 164.204 170.541 163.691L170.826 163.175C170.826 163.175 171.065 161.284 173.388 160.064C173.388 160.064 174.139 162.425 177.788 161.366L179.174 160.491L182.184 166.907L184.784 168.774C185.352 169.182 185.941 169.391 185.964 170.089Z" fill="#2F2E41"/>
<path d="M180.388 169.455L184.976 169.454L187.158 151.818L180.387 151.818L180.388 169.455Z" fill="#FFB6B6"/>
<path d="M196.106 169.351C196.249 169.591 196.325 170.365 196.325 170.643C196.325 171.5 195.627 172.195 194.767 172.195H180.559C179.972 172.195 179.497 171.721 179.497 171.137V170.547C179.497 170.547 178.794 168.775 180.241 166.591C180.241 166.591 182.04 168.301 184.727 165.623L185.52 164.192L191.256 168.373L194.436 168.764C195.132 168.849 195.749 168.75 196.106 169.351Z" fill="#2F2E41"/>
<path d="M183.748 73.2879L181.846 86.517L179.372 158.768H188.064L197.46 92.1866V127.161L177.621 148.592L183.911 152.953L210.412 128.169L215.256 80.5566L211.463 73.5787L183.748 73.2879Z" fill="#2F2E41"/>
<path d="M204.023 20.7985L195.83 20.4292L193.229 24.5783L182.409 29.9212L183.893 61.794L180.976 76.3314C180.976 76.3314 208.31 86.2165 215.312 80.4016L213.359 59.7588L214.879 30.3527L207.816 26.9042L204.023 20.7985Z" fill="#B08F4B"/>
<path d="M200.661 18.6143C205.34 18.6143 209.134 14.8337 209.134 10.17C209.134 5.50636 205.34 1.72572 200.661 1.72572C195.981 1.72572 192.188 5.50636 192.188 10.17C192.188 14.8337 195.981 18.6143 200.661 18.6143Z" fill="#FFB6B6"/>
<path d="M193.962 17.0688C194.578 17.1288 194.612 18.3155 195.197 18.4939C195.732 18.6571 196.665 17.9581 196.757 17.1984C196.83 16.5929 196.316 16.3893 195.587 15.1255C195.159 14.3825 195.855 14.582 195.83 13.5259C195.822 13.2114 194.661 11.2993 195.262 10.4614C195.461 10.1841 195.743 9.79109 196.237 9.61928C196.981 9.36075 197.38 9.88968 198.317 9.94317C199.213 9.99431 197.738 10.8399 198.776 10.1769C199.838 9.49909 200.241 7.73819 200.235 6.97866C200.054 7.67062 200.229 6.19725 200.235 6.97866C200.326 6.62985 203.882 9.748 204.055 9.64277C205.175 8.96497 205.738 7.69415 206.945 8.4324C208.255 9.23343 208.848 8.91409 209.279 8.72315C209.633 8.56631 209.342 5.57072 209.237 5.08478C208.95 3.74813 207.467 3.12313 207.352 3.07664C206.585 2.76624 206.304 2.99294 205.857 2.62319C205.223 2.09806 205.583 1.47051 205.077 0.938945C204.52 0.353476 203.865 1.42564 201.458 1.44511C199.911 1.45762 199.849 0.567211 199.032 0.615051C198.355 0.654741 196.107 0.786473 194.092 2.36407C191.911 4.07184 191.334 6.43143 191.167 7.15769C190.778 8.85488 190.619 11.8804 192.077 13.506C192.427 13.8958 192.962 14.3081 193.182 15.1255C193.431 16.0472 193.143 16.9773 193.507 17.1336C193.66 17.1991 193.736 17.0468 193.962 17.0688Z" fill="#2F2E41"/>
<path d="M0 172.487C0 172.771 0.229467 173 0.515215 173H240.485C240.771 173 241 172.771 241 172.487C241 172.202 240.771 171.973 240.485 171.973H0.515215C0.229467 171.973 0 172.202 0 172.487Z" fill="#CCCCCC"/>
<path d="M182.401 80.833H58.5996C54.0582 80.833 50.3652 84.5133 50.3652 89.0393V164.095C50.3652 168.621 54.0582 172.302 58.5996 172.302H182.401C186.942 172.302 190.635 168.621 190.635 164.095V89.0393C190.635 84.5133 186.942 80.833 182.401 80.833Z" fill="white"/>
<path d="M182.401 80.833H58.5996C54.0582 80.833 50.3652 84.5133 50.3652 89.0393V164.095C50.3652 168.621 54.0582 172.302 58.5996 172.302H182.401C186.942 172.302 190.635 168.621 190.635 164.095V89.0393C190.635 84.5133 186.942 80.833 182.401 80.833ZM189.769 139.211C189.769 157.01 175.291 171.439 157.431 171.439H58.5996C54.5301 171.439 51.2311 168.151 51.2311 164.095V89.0393C51.2311 84.9837 54.5301 81.6959 58.5996 81.6959H182.401C186.47 81.6959 189.769 84.9837 189.769 89.0393V139.211Z" fill="#3F3D56"/>
<path d="M61.6472 83.7976C61.4733 82.9225 61.5122 82.0808 61.7179 81.3897L59.5332 73.1571L63.4944 72.2356L65.2841 80.6861C65.7386 81.2468 66.0964 82.0103 66.2702 82.8854C66.6674 84.8847 65.9545 86.7096 64.6779 86.9615C63.4013 87.2134 62.0444 85.7969 61.6472 83.7976Z" fill="#FFB6B6"/>
<path d="M49.4971 27.9452C49.4971 27.9452 54.4567 25.91 56.7906 29.6897C59.1246 33.4694 65.2512 77.9539 65.2512 77.9539L60.1457 78.6808L50.0806 42.7734L49.4971 27.9452Z" fill="#B08F4B"/>
<path d="M171.763 85.1091C171.882 84.218 172.193 83.4274 172.612 82.8345L171.659 63.547L178.905 62.5828L176.222 83.3152C176.471 83.997 176.562 84.841 176.442 85.7322C176.168 87.7681 174.899 89.279 173.607 89.107C172.315 88.9349 171.489 87.145 171.763 85.1091Z" fill="#FFB6B6"/>
<path d="M190.355 30.689C190.355 30.689 183.489 28.1046 181.205 30.4471C178.921 32.7897 171.341 58.9029 171.341 58.9029L172.051 78.351L177.46 77.4207L190.355 30.689Z" fill="#B08F4B"/>
<path d="M106.226 154.477H94.078C93.4676 154.477 92.9697 154.973 92.9697 155.581C92.9697 156.194 93.4676 156.69 94.078 156.69H106.226C106.837 156.69 107.334 156.194 107.334 155.581C107.334 154.973 106.837 154.477 106.226 154.477Z" fill="#E6E6E6"/>
<path d="M126.574 154.477H114.426C113.815 154.477 113.317 154.973 113.317 155.581C113.317 156.194 113.815 156.69 114.426 156.69H126.574C127.184 156.69 127.682 156.194 127.682 155.581C127.682 154.973 127.184 154.477 126.574 154.477Z" fill="#E6E6E6"/>
<path d="M146.921 154.477H134.773C134.163 154.477 133.665 154.973 133.665 155.581C133.665 156.194 134.163 156.69 134.773 156.69H146.921C147.532 156.69 148.03 156.194 148.03 155.581C148.03 154.973 147.532 154.477 146.921 154.477Z" fill="#E6E6E6"/>
<path d="M196.047 40.7076C196.047 38.4475 197.892 36.6088 200.16 36.6088C202.428 36.6088 204.273 38.4475 204.273 40.7076C204.273 42.9677 202.428 44.8064 200.16 44.8064C197.892 44.8064 196.047 42.9677 196.047 40.7076ZM196.48 40.7076C196.48 42.7296 198.131 44.375 200.16 44.375C202.189 44.375 203.84 42.7296 203.84 40.7076C203.84 38.6856 202.189 37.0402 200.16 37.0402C198.131 37.0402 196.48 38.6856 196.48 40.7076Z" fill="#3F3D56"/>
<path d="M200.16 42.8649C201.355 42.8649 202.324 41.899 202.324 40.7076C202.324 39.5162 201.355 38.5503 200.16 38.5503C198.964 38.5503 197.995 39.5162 197.995 40.7076C197.995 41.899 198.964 42.8649 200.16 42.8649Z" fill="#3F3D56"/>
<path d="M205.055 44.042C205.622 44.7327 205.985 45.4937 206.129 46.1999L220.811 58.5791L216.564 64.4885L203.315 48.4928C202.649 48.211 201.973 47.705 201.406 47.0143C200.112 45.4363 199.88 43.4917 200.887 42.6709C201.895 41.8501 203.761 42.4639 205.055 44.042Z" fill="#FFB6B6"/>
<path d="M210.88 30.5386C210.88 30.5386 214.964 28.5034 217.298 31.9923C219.632 35.4813 222.007 53.5186 222.007 53.5186C222.007 53.5186 224.883 66.0099 219.34 65.7191C213.797 65.4284 203.623 49.8262 203.623 49.8262L207.519 46.3746L207.962 42.1685L210.88 30.5386Z" fill="#B08F4B"/>
<path d="M40.6861 1.36884C37.3955 1.94589 34.2068 3.72139 32.4997 6.58365C30.7925 9.44592 27.6646 13.434 29.9323 15.8792C30.7161 16.7244 31.7147 17.3642 32.4198 18.2756C33.6196 19.8266 33.7928 22.0058 33.1945 23.8712C32.5963 25.7366 31.3132 27.3184 29.8453 28.6203C32.9874 28.2973 35.8549 26.0726 36.94 23.1162C37.4422 21.7481 37.5444 20.107 36.6852 18.9285C36.2333 18.3087 35.5677 17.885 34.9937 17.3754C33.5133 16.0609 34.4641 14.0754 34.4729 12.0994C34.4817 10.1234 34.7313 8.74875 36.2234 7.44743C37.2509 8.26586 40.6581 8.06827 41.9566 7.85831C43.255 7.64835 46.8862 12.6181 47.6013 11.5179C49.0013 13.3114 48.0434 9.61566 47.7806 11.8728C47.5926 13.4875 46.5287 14.8804 46.2079 16.4742C45.9288 17.8612 46.2338 19.3045 46.7241 20.632C47.8301 23.6266 49.9037 26.2576 52.5609 28.038C51.0267 25.8755 49.4272 23.5123 49.4777 20.8643C49.5152 18.9003 52.8482 14.8466 53.4362 12.9717C54.5613 9.38394 52.3306 5.4082 49.9353 2.50471C47.8316 -0.0451289 43.7652 0.742788 40.5407 1.49768" fill="#2F2E41"/>
<path opacity="0.7" d="M146.3 119.837C148.268 121.558 145.885 124.959 145.116 127.312C143.919 130.98 140.141 133.161 136.33 132.49C133.379 131.97 130.409 131.603 127.42 131.392C124.234 131.167 121.03 131.12 117.801 131.249C114.445 131.383 111.068 131.715 107.661 132.246L107.604 132.255C103.694 132.861 99.947 130.521 98.817 126.741C98.1631 124.554 96.1301 121.554 97.8121 119.837C103.003 114.54 100.245 112.769 99.634 110.633C98.6769 107.286 104.246 105.453 107.72 105.806C107.865 105.821 108.01 105.835 108.155 105.85C113.285 106.354 118.415 106.553 123.546 106.445C124.836 106.423 126.13 106.376 127.42 106.311C130.347 106.167 133.271 105.925 136.196 105.581C139.596 105.182 145.56 106.976 144.266 110.133C142.932 113.387 142.785 116.763 146.3 119.837Z" fill="#B08F4B"/>
<path opacity="0.7" d="M127.42 106.311V131.392C124.234 131.167 121.03 131.12 117.8 131.249C114.445 131.383 111.068 131.715 107.661 132.246C108.116 128.048 107.826 123.777 111.077 122.21C115.099 120.269 111.527 112.429 108.155 105.85C113.285 106.354 118.415 106.553 123.545 106.445C124.836 106.423 126.13 106.376 127.42 106.311Z" fill="#3F3D56"/>
<path opacity="0.7" d="M146.301 119.837C148.231 121.599 145.885 124.959 145.117 127.312C143.92 130.98 140.141 133.161 136.331 132.49C133.379 131.97 130.409 131.603 127.42 131.392C124.234 131.167 121.03 131.12 117.801 131.249C114.779 127.362 113.623 123.794 116.402 121.546C119.55 119.005 120.645 112.757 123.546 106.445C124.836 106.423 126.13 106.376 127.42 106.311C130.347 106.167 133.271 105.925 136.197 105.581C139.596 105.182 145.706 107.039 144.266 110.133C142.838 113.2 142.661 116.515 146.301 119.837Z" fill="#FF6884"/>
<path d="M116.722 126.626H104.574C103.964 126.626 103.466 127.122 103.466 127.73C103.466 128.343 103.964 128.839 104.574 128.839H116.722C117.333 128.839 117.831 128.343 117.831 127.73C117.831 127.122 117.333 126.626 116.722 126.626Z" fill="#3F3D56"/>
<path d="M138.369 118.86H126.221C125.61 118.86 125.112 119.356 125.112 119.964C125.112 120.577 125.61 121.073 126.221 121.073H138.369C138.979 121.073 139.477 120.577 139.477 119.964C139.477 119.356 138.979 118.86 138.369 118.86Z" fill="#3F3D56"/>
<path d="M121.485 111.525H109.337C108.726 111.525 108.229 112.021 108.229 112.629C108.229 113.242 108.726 113.738 109.337 113.738H121.485C122.095 113.738 122.593 113.242 122.593 112.629C122.593 112.021 122.095 111.525 121.485 111.525Z" fill="#3F3D56"/>
<path d="M104.651 124.825H59.6221V125.256H104.651V124.825Z" fill="#3F3D56"/>
<path d="M68.7173 129.076C66.4495 129.076 64.6045 127.238 64.6045 124.977C64.6045 122.717 66.4495 120.879 68.7173 120.879C70.9852 120.879 72.8302 122.717 72.8302 124.977C72.8302 127.238 70.9852 129.076 68.7173 129.076ZM68.7173 121.31C66.6882 121.31 65.0374 122.955 65.0374 124.977C65.0374 126.999 66.6882 128.645 68.7173 128.645C70.7465 128.645 72.3973 126.999 72.3973 124.977C72.3973 122.955 70.7465 121.31 68.7173 121.31Z" fill="#3F3D56"/>
<path d="M68.7174 127.135C69.9129 127.135 70.882 126.169 70.882 124.977C70.882 123.786 69.9129 122.82 68.7174 122.82C67.5219 122.82 66.5527 123.786 66.5527 124.977C66.5527 126.169 67.5219 127.135 68.7174 127.135Z" fill="#B08F4B"/>
<path d="M177.914 122.668H132.886V123.099H177.914V122.668Z" fill="#3F3D56"/>
<path d="M164.706 122.82C164.706 120.56 166.551 118.721 168.819 118.721C171.087 118.721 172.932 120.56 172.932 122.82C172.932 125.08 171.087 126.919 168.819 126.919C166.551 126.919 164.706 125.08 164.706 122.82ZM165.139 122.82C165.139 124.842 166.79 126.488 168.819 126.488C170.848 126.488 172.499 124.842 172.499 122.82C172.499 120.798 170.848 119.153 168.819 119.153C166.79 119.153 165.139 120.798 165.139 122.82Z" fill="#3F3D56"/>
<path d="M168.819 124.977C170.014 124.977 170.984 124.012 170.984 122.82C170.984 121.629 170.014 120.663 168.819 120.663C167.623 120.663 166.654 121.629 166.654 122.82C166.654 124.012 167.623 124.977 168.819 124.977Z" fill="#FF6884"/>
<path d="M117.205 109.293H72.1768V109.724H117.205V109.293Z" fill="#3F3D56"/>
<path d="M81.272 113.544C79.0042 113.544 77.1592 111.705 77.1592 109.445C77.1592 107.185 79.0042 105.346 81.272 105.346C83.5398 105.346 85.3849 107.185 85.3849 109.445C85.3849 111.705 83.5398 113.544 81.272 113.544ZM81.272 105.778C79.2429 105.778 77.5921 107.423 77.5921 109.445C77.5921 111.467 79.2429 113.112 81.272 113.112C83.3012 113.112 84.9519 111.467 84.9519 109.445C84.9519 107.423 83.3012 105.778 81.272 105.778Z" fill="#3F3D56"/>
<path d="M81.2721 111.602C82.4676 111.602 83.4367 110.636 83.4367 109.445C83.4367 108.254 82.4676 107.288 81.2721 107.288C80.0766 107.288 79.1074 108.254 79.1074 109.445C79.1074 110.636 80.0766 111.602 81.2721 111.602Z" fill="#3F3D56"/>
</g>
<defs>
<clipPath id="clip0_105_488">
<rect width="241" height="173" fill="white"/>
</clipPath>
</defs>
</svg>
