<svg width="16" height="15" viewBox="0 0 16 15" fill="none" xmlns="http://www.w3.org/2000/svg">
<g clip-path="url(#clip0_99_11)">
<path fill-rule="evenodd" clip-rule="evenodd" d="M6.09845 0.0688676C6.48097 -0.051318 6.82344 0.00166702 7.1827 0.114099C7.64018 0.256254 8.21139 0.628441 8.83816 0.793858C9.71952 1.02648 10.9744 0.0443135 11.9875 0.926967C12.5781 1.44131 12.7306 1.92851 12.8922 2.40667C13.0666 2.92231 13.2876 3.38108 14.0152 3.94711C14.1186 4.02724 14.2155 4.10607 14.306 4.18361H13.8188C13.7593 4.18361 13.6999 4.18749 13.643 4.19524C13.5848 4.18749 13.5267 4.18361 13.4672 4.18361H11.9824C11.9423 4.18361 11.901 4.1849 11.8622 4.18878C11.8221 4.1849 11.7821 4.18361 11.742 4.18361H10.7508C9.73503 3.32939 8.33286 2.96754 6.95267 3.33714C6.33494 3.50256 5.787 3.79721 5.32952 4.18361H5.29333H4.40163C4.30859 4.18361 4.21683 4.19266 4.12766 4.21075C4.03979 4.19266 3.94803 4.18361 3.85369 4.18361H2.36882C2.1866 4.18361 2.01214 4.2185 1.85318 4.28312L1.77435 4.26503C1.65417 4.23918 1.49909 4.21979 1.30912 4.20687C1.33367 4.0673 1.37115 3.91868 1.42672 3.75844C1.86223 2.48679 3.44015 2.71037 4.0876 2.06808C4.54767 1.6119 4.85653 1.00451 5.18219 0.651703C5.43807 0.372562 5.70688 0.155453 6.09845 0.0688676ZM13.82 5.56639H14.4856C14.9146 5.56639 15.2054 5.58577 15.3566 5.62584C15.5078 5.6659 15.6241 5.73051 15.7017 5.82098C15.7805 5.91144 15.8296 6.01095 15.8503 6.12209C15.8697 6.23323 15.88 6.45034 15.88 6.77471V7.97398C15.88 8.28155 15.8658 8.48703 15.8374 8.59041C15.8089 8.6938 15.7585 8.77522 15.6862 8.83466C15.6138 8.89282 15.5246 8.93288 15.4186 8.95743C15.3127 8.98069 15.1537 8.99233 14.9405 8.99233H13.8188V5.56639H13.82ZM14.7117 6.15181V8.40691C14.8384 8.40691 14.9159 8.38106 14.9444 8.32937C14.9741 8.27767 14.9883 8.13681 14.9883 7.90936V6.57698C14.9883 6.4219 14.9831 6.3224 14.9741 6.27846C14.9637 6.23452 14.9418 6.20221 14.9069 6.18283C14.872 6.16086 14.8074 6.15181 14.7117 6.15181ZM11.9824 5.56639H13.4672V6.25003H12.8741V6.90394H13.4285V7.55398H12.8741V8.3074H13.528V8.99103H11.9824V5.56639ZM11.7407 5.56639V6.25003H11.2173V8.98974H10.3256V6.25003H9.79706V5.56639H11.7407ZM9.59158 7.06031H8.69988V6.46584C8.69988 6.29267 8.69084 6.18541 8.67145 6.14147C8.65336 6.09882 8.61071 6.07686 8.5461 6.07686C8.47373 6.07686 8.4272 6.1027 8.40782 6.15439C8.38843 6.20738 8.3781 6.31981 8.3781 6.49298V8.08124C8.3781 8.24795 8.38843 8.35651 8.40782 8.40691C8.4272 8.45731 8.47114 8.48315 8.53964 8.48315C8.60554 8.48315 8.64819 8.45731 8.66887 8.40691C8.68955 8.35651 8.69859 8.23632 8.69859 8.04893V7.61859H9.59029V7.7517C9.59029 8.10709 9.56444 8.35909 9.51534 8.50641C9.46494 8.65503 9.3538 8.78555 9.18321 8.89669C9.01133 9.00912 8.80068 9.0634 8.54998 9.0634C8.28893 9.0634 8.0744 9.01688 7.90511 8.92254C7.73581 8.8282 7.62338 8.69768 7.56911 8.52968C7.51483 8.36167 7.4864 8.11096 7.4864 7.77625V6.776C7.4864 6.52917 7.49544 6.34437 7.51224 6.22159C7.52904 6.09753 7.57944 5.97864 7.66344 5.86492C7.74745 5.75119 7.86375 5.66073 8.01237 5.59482C8.16099 5.52891 8.33157 5.4966 8.52542 5.4966C8.78776 5.4966 9.00358 5.547 9.17416 5.6491C9.34475 5.7499 9.45589 5.87655 9.51017 6.02775C9.56315 6.17895 9.59029 6.41415 9.59029 6.73465V7.06031H9.59158ZM5.67715 5.56639H7.16202V6.25003H6.56885V6.90394H7.12326V7.55398H6.56885V8.3074H7.22276V8.99103H5.67715V5.56639ZM5.29204 5.56639V7.85508C5.29204 8.19755 5.28816 8.41724 5.2817 8.51546C5.27395 8.61368 5.24164 8.70155 5.18478 8.78039C5.12662 8.85922 5.04909 8.91349 4.95216 8.94451C4.85524 8.97423 4.70791 8.98974 4.51148 8.98974H4.06822V8.3901C4.1212 8.39398 4.15868 8.39657 4.18323 8.39657C4.24526 8.39657 4.29566 8.38106 4.33056 8.35004C4.36674 8.31903 4.38742 8.28026 4.39259 8.23503C4.39776 8.1898 4.40163 8.10321 4.40163 7.97269V5.56639H5.29204ZM2.36882 5.56639H3.85369V6.25003H3.26052V6.90394H3.81492V7.55398H3.26052V8.3074H3.91443V8.99103H2.36882V5.56639ZM0 5.56639H0.629359C1.04936 5.56639 1.33367 5.5819 1.48229 5.61421C1.63091 5.64651 1.75238 5.72922 1.84543 5.86362C1.93977 5.99673 1.98629 6.20867 1.98629 6.50074C1.98629 6.76695 1.95269 6.94529 1.88678 7.03705C1.82088 7.1288 1.69035 7.18308 1.49521 7.20117C1.67097 7.24511 1.78986 7.30327 1.8506 7.37693C1.91134 7.4493 1.94882 7.51779 1.96303 7.57853C1.97854 7.63927 1.985 7.80856 1.985 8.08512V8.98974H1.15792V7.85121C1.15792 7.6677 1.1437 7.55527 1.11398 7.51004C1.08555 7.4661 1.01059 7.44413 0.889115 7.44413V8.98974H0V5.56639ZM0.891699 6.15181V6.91428C0.991208 6.91428 1.06099 6.90006 1.09976 6.87292C1.13982 6.84578 1.15921 6.75661 1.15921 6.60541V6.41674C1.15921 6.30818 1.13982 6.23581 1.10105 6.20221C1.06358 6.16861 0.993792 6.15181 0.891699 6.15181ZM14.7557 10.3738C14.6097 11.0626 14.2426 11.5886 13.665 11.9621C13.1778 12.2761 12.5755 12.1714 12.1969 12.4661C11.5301 12.9817 11.1734 13.8631 10.6254 14.2094C10.4135 14.3425 10.1938 14.4394 9.96506 14.5002C9.73503 14.5635 9.49595 14.5906 9.24783 14.579C8.60167 14.5532 7.85083 13.9703 7.01599 13.8553C6.54042 13.7894 6.07131 14.1823 5.49235 14.1526C4.80484 14.1177 4.22329 13.8463 3.75289 13.3229C3.07442 12.5669 3.28249 11.9065 2.75651 11.2435C2.51744 10.9437 1.81958 10.8093 1.35564 10.3738H1.98629C2.05091 10.3738 2.11552 10.3686 2.17756 10.3609C2.23959 10.3699 2.3042 10.3738 2.36882 10.3738H3.91443C3.94028 10.3738 3.96612 10.3738 3.99068 10.3712C4.01652 10.3725 4.04108 10.3738 4.06692 10.3738H4.51019C4.63167 10.3738 4.76478 10.3661 4.90822 10.3518C4.94958 10.348 4.98964 10.3428 5.02841 10.3363C6.0558 11.387 7.60529 11.869 9.12635 11.4607C9.86555 11.2629 10.5065 10.8791 11.0105 10.3725H11.2147C11.3478 10.3725 11.4758 10.3544 11.5973 10.3182C11.7187 10.3531 11.8467 10.3725 11.9798 10.3725H13.5254C13.5745 10.3725 13.6236 10.3699 13.6714 10.3648C13.7192 10.3699 13.7684 10.3725 13.8175 10.3725H14.7557V10.3738Z" fill="white"/>
</g>
<defs>
<clipPath id="clip0_99_11">
<rect width="15.88" height="14.5799" fill="white"/>
</clipPath>
</defs>
</svg>
