<svg width="48" height="48" viewBox="0 0 48 48" fill="none" xmlns="http://www.w3.org/2000/svg">
<circle cx="24" cy="24" r="24" fill="white" fill-opacity="0.51"/>
<g clip-path="url(#clip0_308_3)">
<path d="M16.8508 19.5548C16.5466 19.9087 16.2646 20.2833 15.9861 20.7493C14.9624 22.4546 14.53 24.3889 14.706 26.2799C14.8787 28.1277 15.634 29.9355 16.991 31.447C17.478 31.9898 18.001 32.4686 18.5513 32.8833C20.4499 34.3132 22.7007 35.0193 24.9446 35.0001C27.1885 34.9809 29.4238 34.2347 31.2917 32.7616C31.8369 32.3325 32.3479 31.8441 32.8144 31.2997C33.9082 30.0251 34.6106 28.5312 34.8772 26.954C35.1387 25.4056 34.978 23.7788 34.3525 22.2048C33.7561 20.7077 32.8452 19.3739 31.6558 18.3283C30.5261 17.3339 29.1401 16.6022 27.5354 16.2371C27.0329 16.1234 26.5203 16.0481 25.999 16.0177C25.4761 15.9857 24.9412 15.9969 24.3926 16.0529C24.0491 16.0882 23.8013 16.378 23.8389 16.6998C23.8765 17.0217 24.1858 17.2538 24.5293 17.2186C25.0044 17.169 25.4675 17.1594 25.9204 17.1882C26.3733 17.2154 26.8142 17.2795 27.2414 17.3755C28.6274 17.6894 29.822 18.3219 30.803 19.1833C31.8523 20.104 32.6572 21.2841 33.1853 22.6147C33.7339 23.9934 33.8757 25.4184 33.6467 26.7715C33.4126 28.1453 32.7991 29.4503 31.842 30.5647C31.4199 31.0563 30.967 31.4902 30.4902 31.8665C28.8513 33.1587 26.8962 33.812 24.936 33.8296C22.9758 33.8472 21.0054 33.2276 19.3374 31.9706C18.8418 31.5975 18.3769 31.1732 17.948 30.6944C16.7654 29.3782 16.1074 27.7978 15.957 26.179C15.8015 24.517 16.1826 22.8181 17.0798 21.3225C17.3516 20.871 17.6284 20.5107 17.936 20.1633L18.0266 22.517C18.0386 22.8405 18.3274 23.0935 18.6726 23.0823C19.0178 23.0711 19.2878 22.8005 19.2759 22.477L19.1306 18.727C19.1186 18.4035 18.8298 18.1521 18.4846 18.1633C18.4624 18.1649 18.4419 18.1665 18.4214 18.1681L14.542 18.6789C14.2002 18.7238 13.9609 19.0184 14.0088 19.3402C14.0566 19.6605 14.3711 19.8846 14.7146 19.8398L16.8508 19.5548ZM28.6599 25.4008L23.0766 28.9139V21.9438L28.6599 25.4008Z" fill="#B99750"/>
</g>
<defs>
<clipPath id="clip0_308_3">
<rect width="21" height="19" fill="white" transform="translate(14 16)"/>
</clipPath>
</defs>
</svg>
