<svg width="50" height="50" viewBox="0 0 50 50" fill="none" xmlns="http://www.w3.org/2000/svg">
<path d="M50 25C50 38.8071 38.8071 50 25 50C11.1929 50 0 38.8071 0 25C0 11.1929 11.1929 0 25 0C38.8071 0 50 11.1929 50 25ZM2.5 25C2.5 37.4264 12.5736 47.5 25 47.5C37.4264 47.5 47.5 37.4264 47.5 25C47.5 12.5736 37.4264 2.5 25 2.5C12.5736 2.5 2.5 12.5736 2.5 25Z" fill="#E2E2E0"/>
<path d="M25 48.75C25 49.4404 24.44 50.0033 23.7505 49.9688C20.3461 49.7984 17.0078 48.9333 13.9428 47.4218C10.5036 45.7258 7.50058 43.2613 5.16617 40.219C2.83175 37.1768 1.22848 33.6383 0.480368 29.8773C-0.267743 26.1162 -0.140637 22.2336 0.851854 18.5295C1.84435 14.8255 3.67562 11.3994 6.204 8.51636C8.73239 5.63328 11.8901 3.37049 15.4329 1.90301C18.9757 0.435539 22.8086 -0.197274 26.6351 0.0535268C30.0452 0.277039 33.3688 1.197 36.4023 2.75166C37.0166 3.06653 37.2202 3.83403 36.875 4.4319C36.5298 5.02976 35.7668 5.23125 35.1506 4.9198C32.4506 3.55492 29.499 2.7466 26.4716 2.54817C23.0277 2.32245 19.5781 2.89199 16.3896 4.21271C13.2011 5.53344 10.3592 7.56995 8.0836 10.1647C5.80805 12.7595 4.15991 15.8429 3.26667 19.1766C2.37343 22.5102 2.25903 26.0046 2.93233 29.3895C3.60563 32.7744 5.04858 35.9591 7.14955 38.6971C9.25052 41.4352 11.9532 43.6532 15.0485 45.1796C17.7696 46.5215 20.7299 47.2973 23.7506 47.4653C24.4399 47.5036 25 48.0596 25 48.75Z" fill="#B99750"/>
<path d="M19.3697 28.3011V26.206L25.5415 16.4545H27.2887V19.4375H26.2234L22.0685 26.0213V26.1349H30.6836V28.3011H19.3697ZM26.3086 31V27.6619L26.337 26.7244V16.4545H28.8228V31H26.3086Z" fill="#B99750"/>
</svg>
