<svg width="16" height="17" viewBox="0 0 16 17" fill="none" xmlns="http://www.w3.org/2000/svg">
<g clipPath="url(#clip0_276_67)">
<path d="M14.5003 17H1.49967C1.10236 16.9985 0.721734 16.8342 0.440796 16.5429C0.159858 16.2516 0.0014064 15.857 0 15.445L0 3.11971C0.0014064 2.70774 0.159858 2.31307 0.440796 2.02176C0.721734 1.73046 1.10236 1.56616 1.49967 1.5647H2.88326V3.47803C2.88449 3.73387 2.94112 3.98615 3.04896 4.21627C3.1568 4.44638 3.31311 4.64844 3.50634 4.80754C3.85195 5.09765 4.28315 5.25595 4.72782 5.25595C5.17249 5.25595 5.60368 5.09765 5.9493 4.80754C6.14253 4.64844 6.29883 4.44638 6.40668 4.21627C6.51452 3.98615 6.57115 3.73387 6.57238 3.47803V1.5647H9.36624V3.47803C9.36748 3.73387 9.42411 3.98615 9.53195 4.21627C9.63979 4.44638 9.7961 4.64844 9.98933 4.80754C10.3349 5.09765 10.7661 5.25595 11.2108 5.25595C11.6555 5.25595 12.0867 5.09765 12.4323 4.80754C12.6255 4.64844 12.7818 4.44638 12.8897 4.21627C12.9975 3.98615 13.0541 3.73387 13.0554 3.47803V1.5647H14.5003C14.8974 1.56688 15.2776 1.73141 15.5584 2.02256C15.8392 2.31371 15.9979 2.70797 16 3.11971V15.445C15.9989 15.8571 15.8406 16.252 15.5596 16.5433C15.2786 16.8347 14.8977 16.9989 14.5003 17ZM11.1514 7.85392H13.2995C13.371 7.85424 13.4395 7.88324 13.4907 7.93483C13.542 7.98642 13.572 8.05659 13.5744 8.13062V9.98446C13.572 10.0585 13.542 10.1287 13.4907 10.1802C13.4395 10.2318 13.371 10.2608 13.2995 10.2611H11.1514C11.0813 10.2591 11.0146 10.2292 10.965 10.1778C10.9154 10.1264 10.8866 10.0572 10.8846 9.98446V8.13753C10.8863 8.0647 10.9149 7.99534 10.9646 7.94382C11.0143 7.89231 11.0812 7.8626 11.1514 7.86084V7.85392ZM6.9473 7.85392H9.09673C9.16687 7.85601 9.23357 7.88583 9.28319 7.93728C9.3328 7.98872 9.36156 8.05789 9.36358 8.13062V9.98446C9.36125 10.0571 9.33238 10.1261 9.28284 10.1774C9.23329 10.2288 9.16676 10.2587 9.09673 10.2611H6.9473C6.87716 10.2591 6.81046 10.2292 6.76084 10.1778C6.71123 10.1264 6.68247 10.0572 6.68045 9.98446V8.13753C6.68247 8.06481 6.71123 7.99564 6.76084 7.9442C6.81046 7.89275 6.87716 7.86293 6.9473 7.86084V7.85392ZM2.69913 7.85392H4.84857C4.9187 7.85601 4.98541 7.88583 5.03502 7.93728C5.08463 7.98872 5.1134 8.05789 5.11541 8.13062V9.98446C5.11308 10.0571 5.08422 10.1261 5.03467 10.1774C4.98512 10.2288 4.9186 10.2587 4.84857 10.2611H2.69913C2.62784 10.2608 2.55945 10.2318 2.50842 10.1802C2.45738 10.1285 2.42769 10.0584 2.42562 9.98446V8.13753C2.42736 8.06352 2.45694 7.99315 2.50805 7.94145C2.55916 7.88975 2.62773 7.86082 2.69913 7.86084V7.85392ZM11.1514 11.7954H13.2995C13.371 11.7957 13.4395 11.8247 13.4907 11.8763C13.542 11.9279 13.572 11.9981 13.5744 12.0721V13.9259C13.574 14.0013 13.5449 14.0734 13.4934 14.1266C13.4419 14.1797 13.3722 14.2096 13.2995 14.2096H11.1514C11.0802 14.2074 11.0125 14.1766 10.9627 14.1237C10.9129 14.0708 10.8849 13.9999 10.8846 13.9259V12.079C10.8866 12.0063 10.9154 11.9371 10.965 11.8857C11.0146 11.8342 11.0813 11.8044 11.1514 11.8023V11.7954ZM6.9473 11.7954H9.09673C9.16687 11.7975 9.23357 11.8273 9.28319 11.8788C9.3328 11.9302 9.36156 11.9994 9.36358 12.0721V13.9259C9.36326 13.9999 9.33525 14.0708 9.28546 14.1237C9.23567 14.1766 9.168 14.2074 9.09673 14.2096H6.9473C6.87603 14.2074 6.80836 14.1766 6.75857 14.1237C6.70878 14.0708 6.68077 13.9999 6.68045 13.9259V12.079C6.68278 12.0064 6.71165 11.9374 6.76119 11.886C6.81074 11.8347 6.87727 11.8047 6.9473 11.8023V11.7954ZM2.69913 11.7954H4.84857C4.9187 11.7975 4.98541 11.8273 5.03502 11.8788C5.08463 11.9302 5.1134 11.9994 5.11541 12.0721V13.9259C5.11509 13.9999 5.08709 14.0708 5.0373 14.1237C4.98751 14.1766 4.91983 14.2074 4.84857 14.2096H2.69913C2.6267 14.2092 2.55733 14.1792 2.50612 14.1261C2.4549 14.073 2.42597 14.0011 2.42562 13.9259V12.079C2.42769 12.0051 2.45738 11.935 2.50842 11.8833C2.55945 11.8317 2.62784 11.8027 2.69913 11.8023V11.7954ZM10.487 0.615641C10.487 0.276693 10.8072 0 11.2075 0C11.6077 0 11.932 0.276693 11.932 0.615641V3.47803C11.932 3.81836 11.6091 4.09367 11.2075 4.09367C10.8059 4.09367 10.4843 3.81698 10.4843 3.47803V0.615641H10.487ZM4.00267 0.615641C4.00267 0.276693 4.32822 0 4.72849 0C5.12875 0 5.45163 0.276693 5.45163 0.615641V3.47803C5.45163 3.81836 5.12875 4.09367 4.72849 4.09367C4.32822 4.09367 4.00267 3.81836 4.00267 3.47803V0.615641ZM0.48032 6.06787V15.279C0.481375 15.603 0.605978 15.9134 0.82694 16.1425C1.0479 16.3717 1.34729 16.5009 1.65977 16.502H14.3349C14.6476 16.5012 14.9473 16.3722 15.1686 16.143C15.3898 15.9139 15.5146 15.6032 15.5157 15.279V6.06787H0.48032Z" fill="#666666"/>
</g>
<defs>
<clipPath id="clip0_276_67">
<rect width="16" height="17" fill="white"/>
</clipPath>
</defs>
</svg>
