<svg width="17" height="17" viewBox="0 0 17 17" fill="none" xmlns="http://www.w3.org/2000/svg">
<g clip-path="url(#clip0_134_246)">
<path fill-rule="evenodd" clip-rule="evenodd" d="M0.323087 6.16745L16.2745 0.0511563C16.3654 0.00615095 16.4678 -0.0104099 16.5683 0.0036451C16.6688 0.0177001 16.7627 0.0617148 16.8376 0.129919C16.9126 0.198123 16.9652 0.287333 16.9884 0.385853C17.0117 0.484373 17.0046 0.587606 16.968 0.682016L10.8649 16.6762C10.8299 16.7682 10.7687 16.848 10.6887 16.9056C10.6088 16.9632 10.5136 16.996 10.4151 17.0002C10.3166 17.0043 10.219 16.9795 10.1345 16.9288C10.0499 16.8781 9.98221 16.8037 9.93968 16.715L7.4804 11.6404L12.3615 4.67193L5.38869 9.5265L0.285636 7.08884C0.197026 7.04636 0.122822 6.97893 0.0721801 6.89489C0.0215385 6.81084 -0.00332493 6.71384 0.000657516 6.61586C0.00463996 6.51788 0.037294 6.42321 0.0945908 6.34353C0.151888 6.26384 0.23132 6.20263 0.323087 6.16745Z" fill="#3B0532"/>
</g>
<defs>
<clipPath id="clip0_134_246">
<rect width="17" height="17" fill="white"/>
</clipPath>
</defs>
</svg>
