<svg width="13" height="13" viewBox="0 0 13 13" fill="none" xmlns="http://www.w3.org/2000/svg">
<g clip-path="url(#clip0_560_181)">
<path d="M10.3794 2.19921e-07C10.8105 -0.000177757 11.2349 0.107671 11.6151 0.313991C11.9953 0.52031 12.3195 0.818729 12.5591 1.18281C12.7986 1.54688 12.9461 1.96537 12.9884 2.4012C13.0307 2.83702 12.9665 3.27672 12.8016 3.68133C12.6367 4.08594 12.3761 4.44298 12.0429 4.72079C11.7097 4.99861 11.3142 5.18863 10.8915 5.27402C10.4687 5.35941 10.0317 5.33753 9.61931 5.21032C9.20687 5.0831 8.83168 4.85449 8.52699 4.54473C8.50371 4.52108 8.4815 4.49744 8.45928 4.47271L5.16484 5.8701C5.24044 6.18473 5.25944 6.51065 5.22092 6.83215L8.56931 8.41764C9.03247 7.97086 9.64085 7.71222 10.2792 7.69072C10.9175 7.66923 11.5414 7.88638 12.0326 8.30103C12.5239 8.71568 12.8484 9.29902 12.9447 9.94051C13.0409 10.582 12.9022 11.2371 12.5549 11.7816C12.2075 12.3262 11.6757 12.7224 11.0601 12.8951C10.4444 13.0678 9.78784 13.0051 9.21468 12.7189C8.64152 12.4326 8.19162 11.9427 7.95022 11.3419C7.70883 10.7411 7.69271 10.0713 7.90492 9.45924L4.79668 7.98231C4.49644 8.43874 4.06467 8.78972 3.5605 8.98718C3.05633 9.18464 2.50441 9.21893 1.98032 9.08535C1.45623 8.95176 0.985597 8.65684 0.632863 8.24096C0.28013 7.82508 0.062545 7.30859 0.00990446 6.7622C-0.0427361 6.21582 0.0721415 5.66626 0.338806 5.18878C0.605471 4.7113 1.01088 4.32924 1.49953 4.09493C1.98817 3.86062 2.53616 3.78551 3.06845 3.87989C3.60073 3.97426 4.09129 4.23351 4.47295 4.62213C4.5195 4.66942 4.56499 4.71887 4.60731 4.76939L7.85943 3.39135C7.74848 2.99524 7.72948 2.57837 7.80393 2.17354C7.87837 1.7687 8.04424 1.38693 8.28848 1.05824C8.53271 0.729558 8.84866 0.462921 9.21148 0.279296C9.57431 0.0956718 9.9741 6.72568e-05 10.3794 2.19921e-07Z" fill="#5F5F5F"/>
</g>
<defs>
<clipPath id="clip0_560_181">
<rect width="13" height="13" fill="white"/>
</clipPath>
</defs>
</svg>
