<svg width="13" height="11" viewBox="0 0 13 11" fill="none" xmlns="http://www.w3.org/2000/svg">
<g clip-path="url(#clip0_253_216)">
<path fill-rule="evenodd" clip-rule="evenodd" d="M0.535319 8.59322H2.72209C2.76758 8.59322 2.80566 8.55268 2.80566 8.50173V3.32253C2.80566 3.27273 2.76864 3.23104 2.72209 3.23104H0.534261C0.240153 3.2322 0 3.49509 0 3.81706V8.00604C0 8.32916 0.241211 8.59322 0.535319 8.59322ZM11.5464 10.8771C12.0764 10.0571 12.4795 9.13523 12.7249 8.14734C12.9619 7.19535 13.0529 6.18197 12.9714 5.14312C12.8974 4.19345 12.6858 3.29126 12.3589 2.45856C12.0849 1.7602 11.7294 1.11049 11.3084 0.524468C11.2428 0.429502 11.1761 0.335692 11.1073 0.243041L11.1021 0.248831C11.0693 0.207138 11.0365 0.165445 11.0026 0.12491L10.9032 0.00214767L10.8058 0.127227L10.4112 0.634492L10.3382 0.7283L10.4123 0.820951C10.8926 1.42666 11.2904 2.11807 11.5824 2.87433C11.8638 3.6028 12.0468 4.39265 12.1103 5.22419C12.1822 6.14839 12.1018 7.04826 11.8923 7.8937C11.6987 8.67545 11.3951 9.41202 10.9994 10.078L10.9973 10.0803C10.9254 10.1949 10.8503 10.3084 10.772 10.4184L10.7804 10.4266L10.7751 10.4347L10.8778 10.518L10.9529 10.5794L11.2396 10.8331L11.2491 10.8192L11.3602 10.9095L11.4681 10.9975L11.5464 10.8771ZM11.4871 10.4601C11.4607 10.5041 11.4353 10.547 11.4078 10.5898L11.4046 10.5875C11.4332 10.5458 11.4607 10.503 11.4871 10.4601ZM9.81242 9.58806C10.2017 8.97656 10.4969 8.28979 10.6768 7.55553C10.8503 6.84675 10.9159 6.09511 10.8566 5.32379C10.8058 4.66597 10.6662 4.0371 10.4514 3.45108C10.2292 2.84538 9.92774 2.28716 9.56275 1.79263L9.4633 1.65829L9.36068 1.79031L8.86133 2.17134L8.7915 2.26052L8.8571 2.35317C9.16496 2.784 9.49292 3.26462 9.67912 3.78347C9.85897 4.28494 9.90129 4.82464 9.94466 5.39097C9.99756 6.06963 9.94043 6.72862 9.78914 7.34822C9.64738 7.93192 9.42098 8.4832 9.12581 8.98235C9.08667 9.04374 9.04647 9.10512 9.00415 9.16534L9.00944 9.16997L8.96078 9.24641L9.06234 9.32864L9.62728 9.62165L9.73625 9.70966L9.81242 9.58806ZM9.50456 9.24757L9.47176 9.302L9.46965 9.30084L9.50456 9.24757ZM3.27962 8.68819C4.55339 9.45372 5.82821 10.2192 7.10197 10.9836C7.22469 11.0566 7.35588 10.8585 7.35588 10.7057V1.2043C7.35588 1.04331 7.21623 0.832533 7.08822 0.911286L3.27962 3.26347C3.25529 3.27852 3.22884 3.28779 3.22884 3.31906V8.6326C3.22884 8.66387 3.25529 8.67313 3.27962 8.68819Z" fill="#939393"/>
</g>
<defs>
<clipPath id="clip0_253_216">
<rect width="13" height="11" fill="white" transform="matrix(1 0 0 -1 0 11)"/>
</clipPath>
</defs>
</svg>
