<svg width="11" height="10" viewBox="0 0 11 10" fill="none" xmlns="http://www.w3.org/2000/svg">
<g clip-path="url(#clip0_253_213)">
<path fill-rule="evenodd" clip-rule="evenodd" d="M0.600667 2.38169H3.05347C3.10539 2.38169 3.14657 2.42233 3.14657 2.4716V7.59653C3.14657 7.64581 3.10449 7.68644 3.05347 7.68644H0.599772C0.270345 7.68644 0 7.42622 0 7.1072V2.96179C0 2.64278 0.270345 2.38169 0.600667 2.38169ZM9.48535 2.8226C9.46566 2.79494 9.44507 2.76814 9.42448 2.74134L9.42806 2.73874L9.41821 2.72405L9.33944 2.61166L9.45223 2.53126L9.92041 2.31426L10.0431 2.22608L10.129 2.34884C10.4477 2.80012 10.6894 3.30587 10.8353 3.84447C10.9767 4.36406 11.0295 4.91563 10.9803 5.48189C10.9418 5.91848 10.8442 6.33691 10.6965 6.73027C10.5435 7.13573 10.3358 7.51526 10.0833 7.86107L9.97412 8.01064L9.85148 7.87145L9.43254 7.58529L9.36003 7.50316L9.42269 7.41411C9.6259 7.12363 9.7924 6.80548 9.91593 6.46659C10.035 6.1398 10.1138 5.79139 10.146 5.42743C10.189 4.93897 10.1433 4.46348 10.0234 4.01565C9.90877 3.58944 9.72526 3.18743 9.48535 2.8226ZM3.74992 2.28746C5.17952 1.53013 6.60913 0.772805 8.03784 0.0154785C8.17481 -0.0571419 8.32251 0.139106 8.32251 0.290399V9.69387C8.32251 9.85295 8.16675 10.0613 8.02262 9.98349L3.74992 7.65618C3.72306 7.64148 3.69263 7.63111 3.69263 7.60085V2.34279C3.69352 2.31253 3.72306 2.30216 3.74992 2.28746Z" fill="#939393"/>
</g>
<defs>
<clipPath id="clip0_253_213">
<rect width="11" height="10" fill="white"/>
</clipPath>
</defs>
</svg>
