<svg width="12" height="17" viewBox="0 0 12 17" fill="none" xmlns="http://www.w3.org/2000/svg">
<path d="M8.75905 2.88632V7.2475C8.75905 10.9892 3.24096 10.9892 3.24096 7.2475V2.88632C3.24096 -0.962106 8.75905 -0.962106 8.75905 2.88632ZM6.6852 13.4186V16.3801C6.67705 16.5471 6.60131 16.7047 6.4737 16.8201C6.3461 16.9356 6.17644 17 6.00001 17C5.82357 17 5.65392 16.9356 5.52632 16.8201C5.39871 16.7047 5.32296 16.5471 5.31482 16.3801V13.4116C4.68439 13.3425 4.06969 13.1783 3.49398 12.9252C2.85071 12.6417 2.26469 12.2538 1.76236 11.7791L1.75504 11.7667C1.20067 11.2412 0.759565 10.6184 0.456327 9.93322C0.154221 9.24457 -0.00086809 8.50602 2.03029e-05 7.76025C-0.0010283 7.63136 0.0385635 7.50511 0.113722 7.39768C0.188881 7.29025 0.296182 7.20653 0.421875 7.15725C0.547568 7.10797 0.685927 7.09538 0.819221 7.12109C0.952515 7.14679 1.07467 7.20963 1.17004 7.30154L1.18466 7.3154C1.30414 7.43584 1.37057 7.59496 1.3704 7.76025C1.36951 8.33387 1.48882 8.90195 1.72141 9.43155C2.19651 10.5107 3.10218 11.3684 4.24133 11.8179C4.80052 12.0384 5.4002 12.1519 6.00586 12.1519C6.61152 12.1519 7.21119 12.0384 7.77039 11.8179C8.33318 11.5955 8.84447 11.2706 9.27532 10.8617L9.28702 10.852C9.71293 10.4454 10.0517 9.96443 10.2845 9.43571C10.5156 8.90443 10.6329 8.3349 10.6296 7.76025C10.6378 7.59324 10.7135 7.43564 10.8411 7.32018C10.9687 7.20473 11.1384 7.1403 11.3148 7.1403C11.4912 7.1403 11.6609 7.20473 11.7885 7.32018C11.9161 7.43564 11.9919 7.59324 12 7.76025C12.0006 8.50465 11.8455 9.24179 11.5437 9.92906C11.2398 10.6205 10.7961 11.249 10.2377 11.7791L10.2245 11.7902C9.72562 12.2599 9.14408 12.6435 8.50604 12.9238C7.92974 13.1767 7.31459 13.3409 6.68374 13.4102L6.6852 13.4186Z" fill="#B99750"/>
</svg>
