<svg width="15" height="15" viewBox="0 0 15 15" fill="none" xmlns="http://www.w3.org/2000/svg">
<g clip-path="url(#clip0_180_24)">
<path d="M0 7.16286V6.53786L5.00042 10.7884L0.0652993 14.5481C0.0222866 14.4531 5.03476e-05 14.3504 0 14.2466L0 7.16652V7.16286ZM10.2972 6.43044C10.2895 6.68657 10.2473 6.94061 10.1716 7.18606C10.105 7.3999 9.99955 7.60042 9.86019 7.7781C9.73286 7.94185 9.56824 8.07472 9.37924 8.16628C9.18892 8.25546 8.98022 8.30138 8.76894 8.30056C8.67883 8.30116 8.58899 8.29091 8.50147 8.27004C8.41763 8.2502 8.33694 8.21941 8.26162 8.17849C8.18828 8.13913 8.12141 8.08934 8.06321 8.03078C8.03166 7.99969 8.00269 7.96622 7.97656 7.93069C7.87233 8.04676 7.74292 8.13892 7.59766 8.20056C7.4524 8.26219 7.29489 8.29176 7.13646 8.28713C7.02904 8.28781 6.9222 8.27174 6.82001 8.23952C6.72067 8.20629 6.62773 8.1572 6.545 8.09426C6.46113 8.02954 6.38862 7.95204 6.33026 7.86477C6.26608 7.76943 6.21579 7.6659 6.18083 7.55715C6.1049 7.30917 6.0814 7.04881 6.11176 6.79177C6.13981 6.54289 6.20145 6.29868 6.2951 6.06545C6.37986 5.85593 6.49997 5.66161 6.65048 5.4905C6.78863 5.33169 6.95982 5.20313 7.15278 5.1133C7.34146 5.02966 7.54695 4.98796 7.75429 4.99123C7.90971 4.99008 8.06463 5.00854 8.21515 5.04616C8.35612 5.08223 8.49043 5.13948 8.61323 5.21584L8.81792 5.3489C8.82979 5.35682 8.8393 5.36766 8.84548 5.3803C8.85165 5.39295 8.85427 5.40697 8.85308 5.42092L8.67853 7.24587C8.6577 7.33756 8.67059 7.43345 8.71494 7.51687C8.73835 7.54384 8.76826 7.56475 8.802 7.57775C8.83575 7.59074 8.87228 7.59541 8.90833 7.59133C8.98166 7.59099 9.05279 7.56694 9.11051 7.52297C9.18744 7.45957 9.24952 7.38091 9.29259 7.29226C9.35479 7.17666 9.40082 7.0535 9.42947 6.92605C9.46402 6.77232 9.48378 6.6158 9.48849 6.45852C9.50941 6.15512 9.48188 5.8504 9.40687 5.5552C9.34371 5.31333 9.22524 5.08843 9.06028 4.89724C8.90216 4.71721 8.7007 4.57799 8.47384 4.49196C8.21391 4.39684 7.9378 4.35045 7.66011 4.35525C7.47123 4.3541 7.28312 4.37876 7.1013 4.42849C6.92741 4.47731 6.76195 4.55095 6.6103 4.64699C6.45423 4.74595 6.31379 4.86643 6.19339 5.00466C6.06667 5.15085 5.9595 5.31204 5.87442 5.4844C5.78286 5.67029 5.71172 5.86505 5.6622 6.06545C5.6104 6.28275 5.5793 6.50423 5.56928 6.72707C5.54775 7.04259 5.57527 7.35947 5.6509 7.66701C5.71293 7.91615 5.83181 8.14853 5.99874 8.34694C6.15911 8.53117 6.3647 8.67308 6.59648 8.75954C6.86831 8.85773 7.1567 8.90535 7.44663 8.89992C7.53725 8.89985 7.6278 8.89495 7.71787 8.88528C7.8108 8.87551 7.90749 8.85964 8.00419 8.84011C8.10088 8.82058 8.19004 8.79983 8.27041 8.77663C8.34304 8.75599 8.41432 8.73112 8.48389 8.70217C8.49361 8.69815 8.50406 8.69603 8.51463 8.69594C8.5252 8.69585 8.53569 8.69779 8.54549 8.70165C8.55528 8.7055 8.5642 8.7112 8.57173 8.71841C8.57926 8.72562 8.58526 8.73421 8.58937 8.74367C8.59048 8.75055 8.59048 8.75755 8.58937 8.76443L8.7162 9.27712C8.71931 9.29278 8.71763 9.30899 8.71138 9.32373C8.70514 9.33848 8.69459 9.35113 8.68104 9.36013C8.60202 9.40937 8.51782 9.45029 8.42989 9.4822C8.32904 9.52064 8.22535 9.55165 8.11972 9.57497C8.00674 9.6014 7.89227 9.62137 7.7769 9.63479C7.66228 9.64795 7.54697 9.65447 7.43156 9.65432C6.90079 9.67042 6.37463 9.55401 5.90331 9.31618C5.69679 9.2065 5.51048 9.06418 5.35203 8.89504C5.19183 8.72121 5.06087 8.52387 4.964 8.31032C4.8596 8.07836 4.78658 7.83422 4.74676 7.58401C4.70035 7.29623 4.68394 7.00463 4.69778 6.71364C4.7089 6.43096 4.751 6.15024 4.82336 5.87624C4.89169 5.61679 4.99116 5.36605 5.11972 5.12917C5.24154 4.90618 5.39359 4.70007 5.57179 4.51638C5.74656 4.33441 5.94696 4.17741 6.16702 4.05007C6.38868 3.92232 6.62744 3.82496 6.87652 3.76076C7.13511 3.69449 7.40148 3.66126 7.6689 3.66189C8.17249 3.64914 8.67063 3.76577 9.11302 4.00002C9.3134 4.1102 9.49475 4.25025 9.65048 4.41506C9.80426 4.5824 9.93126 4.77128 10.0272 4.97536C10.1315 5.19278 10.2058 5.42263 10.2482 5.65896C10.2941 5.91477 10.3106 6.17475 10.2972 6.4341V6.43044ZM7.0699 6.79665C7.05923 6.90994 7.05923 7.02394 7.0699 7.13723C7.07644 7.21728 7.09682 7.29569 7.13018 7.36916C7.15282 7.41833 7.18887 7.46054 7.23441 7.49123C7.27917 7.51828 7.33116 7.53187 7.38384 7.53029C7.42249 7.53021 7.46064 7.52188 7.49561 7.50588C7.53677 7.4852 7.57377 7.4575 7.60486 7.42409C7.64571 7.38099 7.68074 7.333 7.70908 7.28127C7.74355 7.21949 7.77254 7.15497 7.79573 7.0884L7.92131 5.74563H7.89996C7.86902 5.74364 7.83797 5.74364 7.80703 5.74563C7.70935 5.74392 7.6126 5.76441 7.52449 5.80544C7.44161 5.8466 7.37045 5.90697 7.31729 5.98122C7.24959 6.08273 7.19874 6.19395 7.1666 6.31081C7.12177 6.47073 7.09111 6.63409 7.07493 6.79909L7.0699 6.79665ZM0.0188363 5.30617C0.125576 4.89968 0.718292 4.63845 1.0473 4.4114V2.66701C1.0473 2.47276 1.12668 2.28647 1.26798 2.14911C1.40928 2.01176 1.60093 1.93459 1.80075 1.93459H4.62244L7.31603 0.0693571C7.38497 0.0225261 7.46715 -0.00238467 7.55126 -0.00194747C7.63536 -0.00151026 7.71726 0.0242535 7.78569 0.0717985L10.4328 1.93459H13.1955C13.3953 1.93459 13.587 2.01176 13.7283 2.14911C13.8696 2.28647 13.9489 2.47276 13.9489 2.66701V4.40652C14.3031 4.65066 14.9962 4.98269 14.9962 5.44289V5.4612L13.1992 6.93703V2.66457H1.80075V6.81496L0.0188363 5.30617ZM15 6.68679V14.2466C15.0003 14.4219 14.9372 14.5917 14.8217 14.7263L9.83759 10.9165L15 6.68679ZM13.6187 14.9998H1.03725L5.74006 11.417L7.14023 12.6072C7.23013 12.6839 7.3462 12.7252 7.46577 12.7232C7.58534 12.7211 7.69984 12.6759 7.78694 12.5962L9.08288 11.5354L13.6149 14.9998H13.6187Z" fill="#3B0532"/>
</g>
<defs>
<clipPath id="clip0_180_24">
<rect width="15" height="15" fill="white"/>
</clipPath>
</defs>
</svg>
