<svg width="12" height="15" viewBox="0 0 12 15" fill="none" xmlns="http://www.w3.org/2000/svg">
<g clip-path="url(#clip0_1502_54)">
<path d="M3.61524 10.614C3.4158 10.614 3.25303 10.4395 3.25303 10.2246C3.25303 10.0098 3.41465 9.83521 3.61524 9.83521H5.96504C6.16449 9.83521 6.32725 10.0098 6.32725 10.2246C6.32725 10.4395 6.16563 10.614 5.96504 10.614H3.61524ZM3.61524 5.15991C3.4158 5.15991 3.25418 4.98779 3.25418 4.77539C3.25418 4.56299 3.4158 4.39087 3.61524 4.39087H8.38475C8.5842 4.39087 8.74582 4.56299 8.74582 4.77539C8.74582 4.98779 8.5842 5.15991 8.38475 5.15991H3.61524ZM7.63053 13.2642C7.47464 13.1323 7.44828 12.8906 7.57322 12.7246C7.69701 12.5586 7.92397 12.5305 8.07985 12.6636L9.17681 13.5901L11.2641 10.8716C11.3902 10.7068 11.6183 10.6836 11.7719 10.8179C11.9266 10.9521 11.9484 11.1951 11.8223 11.3586L9.51036 14.3701C9.38542 14.5325 9.16191 14.5581 9.00716 14.4275L7.63053 13.2642ZM6.51638 14.231C6.71583 14.231 6.87745 14.4031 6.87745 14.6155C6.87745 14.8279 6.71583 15 6.51638 15H0.840195C0.608654 15 0.398892 14.8999 0.246442 14.7375C0.0939918 14.5752 0 14.3518 0 14.1052V0.894775C0 0.648193 0.0939918 0.424805 0.246442 0.262451C0.398892 0.100098 0.608654 0 0.840195 0H11.1587C11.3902 0 11.6 0.100098 11.7524 0.262451C11.9049 0.424805 11.9989 0.648193 11.9989 0.894775V8.8623C11.9989 9.07471 11.8372 9.24683 11.6378 9.24683C11.4383 9.24683 11.2767 9.07471 11.2767 8.8623V0.894775C11.2767 0.860596 11.263 0.828857 11.2423 0.805664C11.2206 0.782471 11.1908 0.769043 11.1587 0.769043H0.840195C0.8081 0.769043 0.778298 0.783691 0.756519 0.805664C0.735887 0.830078 0.722132 0.860596 0.722132 0.894775V14.104C0.722132 14.1382 0.735887 14.1699 0.756519 14.1931C0.778298 14.2163 0.8081 14.2297 0.840195 14.2297H6.51638V14.231ZM3.61524 7.88452C3.4158 7.88452 3.25418 7.7124 3.25418 7.5C3.25418 7.2876 3.4158 7.11548 3.61524 7.11548H8.38475C8.5842 7.11548 8.74582 7.2876 8.74582 7.5C8.74582 7.7124 8.5842 7.88452 8.38475 7.88452H3.61524Z" fill="#B99750"/>
</g>
<defs>
<clipPath id="clip0_1502_54">
<rect width="12" height="15" fill="white"/>
</clipPath>
</defs>
</svg>
