<svg width="15" height="14" viewBox="0 0 15 14" fill="none" xmlns="http://www.w3.org/2000/svg">
<g clip-path="url(#clip0_276_164)">
<path fill-rule="evenodd" clip-rule="evenodd" d="M3.22754 12.403V7.7973H5.32837C6.21948 7.95495 7.10938 8.43032 8.00049 8.98392H9.63257C10.3711 9.02725 10.7581 9.76618 10.0403 10.2512C9.46777 10.6652 8.71338 10.6411 7.93945 10.5725C7.40601 10.546 7.38281 11.2537 7.93945 11.2561C8.13232 11.2705 8.34229 11.226 8.52661 11.226C9.49219 11.2248 10.2881 11.0431 10.7751 10.2909L11.0205 9.72767L13.4485 8.54104C14.6631 8.14631 15.5261 9.39912 14.6313 10.2704C12.8735 11.5317 11.0693 12.5691 9.22485 13.4079C7.88574 14.2106 6.54541 14.1841 5.2063 13.4079L3.22754 12.403ZM11.0327 0.286423C12.4915 0.882142 13.4473 2.28539 13.4473 3.84991C13.4473 4.91498 13.009 5.87896 12.3022 6.57698C11.5942 7.27499 10.6165 7.70704 9.53613 7.70704C8.45703 7.70704 7.47925 7.27499 6.77124 6.57698C6.06323 5.87896 5.625 4.91498 5.625 3.84991C5.625 2.29743 6.604 0.849649 8.05908 0.26115C8.96118 -0.102298 10.1355 -0.0794324 11.0327 0.286423ZM8.93555 3.74761C8.98438 3.69466 9.04419 3.65013 9.10767 3.61523V1.93759C9.10767 1.7667 9.24805 1.6283 9.42139 1.6283C9.59473 1.6283 9.73633 1.7667 9.73633 1.93759V3.61523C9.85107 3.67661 9.94507 3.76927 10.0073 3.8824H11.2976C11.4709 3.8824 11.6113 4.0208 11.6113 4.19169C11.6113 4.36259 11.4709 4.50099 11.2976 4.50099H10.0073C9.89502 4.70678 9.67529 4.84638 9.42261 4.84638C9.22363 4.84638 9.04541 4.75973 8.92334 4.62254C8.69751 4.3686 8.70728 3.98951 8.93555 3.74761ZM11.8579 1.62107C10.238 0.0240662 7.50488 0.475369 6.55762 2.48758C6.3623 2.90157 6.25366 3.3625 6.25366 3.84991C6.25366 4.74409 6.62109 5.55282 7.21436 6.13891C7.80884 6.725 8.62915 7.08725 9.53613 7.08725C10.4431 7.08725 11.2646 6.7238 11.8579 6.13771C12.4524 5.55282 12.8198 4.74288 12.8198 3.8487C12.8198 3.34204 12.7014 2.86186 12.4902 2.43462C12.3303 2.11209 12.1167 1.87621 11.8579 1.62107ZM0 7.35442H2.59521V12.8651H0V7.35442Z" fill="#191919"/>
</g>
<defs>
<clipPath id="clip0_276_164">
<rect width="15" height="14" fill="white"/>
</clipPath>
</defs>
</svg>
