<svg width="40" height="35" viewBox="0 0 40 35" fill="none" xmlns="http://www.w3.org/2000/svg">
<g clip-path="url(#clip0_139_1358)">
<path fill-rule="evenodd" clip-rule="evenodd" d="M34.3406 0.296503L39.6375 6.53971C39.8328 6.6943 39.9586 6.9361 39.9586 7.20723C39.9586 7.2881 39.9477 7.36579 39.9266 7.44031L40 34.1549C40 34.6195 39.6289 34.9968 39.1703 34.9968V35H0.832812C0.372656 35 0 34.6218 0 34.1549V7.20723C0 6.9694 0.096875 6.75455 0.252344 6.60075L5.67188 0.29016C5.83594 0.100684 6.06562 0.00317115 6.29688 0.00317115V0H33.707C33.9602 0 34.1875 0.114954 34.3406 0.296503ZM2.65938 6.36212H37.2883L33.325 1.69022H6.67188L2.65938 6.36212ZM16.7492 27.7991H23.2516C23.6281 27.7991 23.9352 27.486 23.9352 27.1062V21.0358H27.3969C27.9359 21.0113 28.3195 20.8313 28.5406 20.4904C29.1406 19.5771 28.3875 18.6059 27.7531 18.0407L20.6672 11.7269C20.0648 11.0515 19.2055 11.0515 18.6031 11.7269C17.7805 12.7013 13.6187 16.4622 12.0859 18.2127C11.5555 18.82 10.8977 19.6477 11.4508 20.4904C11.6727 20.8313 12.0555 21.0113 12.5953 21.0358H16.0664V27.1062C16.0664 27.4867 16.3734 27.7991 16.7492 27.7991Z" fill="#B99750"/>
</g>
<defs>
<clipPath id="clip0_139_1358">
<rect width="40" height="35" fill="white"/>
</clipPath>
</defs>
</svg>
