<svg width="339" height="267" viewBox="0 0 339 267" fill="none" xmlns="http://www.w3.org/2000/svg">
<g clip-path="url(#clip0_212_2)">
<path d="M88.9159 120.5C88.1697 120.5 87.5629 121.108 87.5629 121.854V132.683C87.5629 133.43 88.1697 134.037 88.9159 134.037C89.6622 134.037 90.269 133.43 90.269 132.683V121.854C90.269 121.108 89.6622 120.5 88.9159 120.5Z" fill="#3F3D56"/>
<path d="M242.821 0H121.109C107.307 0 96.1184 11.1936 96.1184 25.0016V240.166C96.1184 253.974 107.307 265.168 121.109 265.168H242.821C256.623 265.168 267.812 253.974 267.812 240.166V25.0016C267.812 11.1936 256.623 0 242.821 0Z" fill="white"/>
<path d="M242.821 267H121.109C107.003 267 95.5266 255.519 95.5266 241.407V26.2421C95.5266 12.1298 107.003 0.648438 121.109 0.648438H242.821C256.928 0.648438 268.404 12.1298 268.404 26.2421V241.407C268.404 255.519 256.928 267 242.821 267ZM121.109 1.83251C107.656 1.83251 96.7102 12.7825 96.7102 26.2421V241.407C96.7102 254.866 107.656 265.816 121.109 265.816H242.821C256.275 265.816 267.221 254.866 267.221 241.407V26.2421C267.221 12.7825 256.275 1.83251 242.821 1.83251H121.109Z" fill="#3F3D56"/>
<path d="M251.638 52.4285H202.716C200.641 52.4285 198.953 50.7396 198.953 48.6637C198.953 46.5878 200.641 44.8989 202.716 44.8989H251.638C253.713 44.8989 255.401 46.5878 255.401 48.6637C255.401 50.7396 253.713 52.4285 251.638 52.4285Z" fill="#E6E6E6"/>
<path d="M205.743 82.0345H158.189C156.99 82.0345 156.014 81.0585 156.014 79.8592C156.014 78.6598 156.99 77.6843 158.189 77.6843H205.743C206.942 77.6843 207.917 78.6598 207.917 79.8592C207.917 81.0586 206.942 82.0345 205.743 82.0345Z" fill="#B99750"/>
<path d="M138.585 9.32642H111.324C111.254 9.32642 111.196 9.38384 111.196 9.45468V12.7274C111.196 12.7983 111.254 12.8557 111.324 12.8557H138.585C138.656 12.8557 138.713 12.7983 138.713 12.7274V9.45468C138.713 9.38384 138.656 9.32642 138.585 9.32642Z" fill="#E6E6E6"/>
<path d="M229.979 12.8556C231.537 12.8556 232.801 11.5915 232.801 10.0322C232.801 8.47283 231.537 7.20874 229.979 7.20874C228.42 7.20874 227.156 8.47283 227.156 10.0322C227.156 11.5915 228.42 12.8556 229.979 12.8556Z" fill="#E6E6E6"/>
<path d="M237.74 12.8556C239.299 12.8556 240.562 11.5915 240.562 10.0322C240.562 8.47283 239.299 7.20874 237.74 7.20874C236.181 7.20874 234.918 8.47283 234.918 10.0322C234.918 11.5915 236.181 12.8556 237.74 12.8556Z" fill="#E6E6E6"/>
<path d="M245.501 12.8556C247.06 12.8556 248.323 11.5915 248.323 10.0322C248.323 8.47283 247.06 7.20874 245.501 7.20874C243.942 7.20874 242.679 8.47283 242.679 10.0322C242.679 11.5915 243.942 12.8556 245.501 12.8556Z" fill="#E6E6E6"/>
<path d="M120.813 93.6782C120.813 94.0689 121.127 94.3827 121.517 94.3827H242.413C242.804 94.3827 243.118 94.0689 243.118 93.6782C243.118 93.2874 242.804 92.9736 242.413 92.9736H121.517C121.127 92.9736 120.813 93.2874 120.813 93.6782Z" fill="#3F3D56"/>
<path d="M216.696 193.322C216.696 193.713 217.009 194.027 217.4 194.027H338.296C338.686 194.027 339 193.713 339 193.322C339 192.931 338.686 192.618 338.296 192.618H217.4C217.009 192.618 216.696 192.931 216.696 193.322Z" fill="#3F3D56"/>
<path d="M230.82 149.052H158.268C157.069 149.052 156.094 148.076 156.094 146.876C156.094 145.677 157.069 144.701 158.268 144.701H230.82C232.019 144.701 232.994 145.677 232.994 146.876C232.994 148.076 232.019 149.052 230.82 149.052Z" fill="#B99750"/>
<path d="M136.263 151.936C139.204 151.936 141.589 149.55 141.589 146.608C141.589 143.665 139.204 141.279 136.263 141.279C133.321 141.279 130.937 143.665 130.937 146.608C130.937 149.55 133.321 151.936 136.263 151.936Z" fill="#B99750"/>
<path d="M135.671 155.488V154.304C140.076 154.304 143.66 150.719 143.66 146.312C143.66 141.905 140.076 138.319 135.671 138.319V137.135C140.729 137.135 144.844 141.252 144.844 146.312C144.844 151.372 140.729 155.488 135.671 155.488Z" fill="#3F3D56"/>
<path d="M72.2346 125.119C74.4071 122.907 77.309 122.236 78.7158 123.619C80.1226 125.003 79.5016 127.917 77.328 130.129C76.4718 131.025 75.4137 131.702 74.2422 132.105L64.9186 141.36L60.6704 136.891L70.3128 128.241C70.695 127.062 71.354 125.991 72.2346 125.119Z" fill="#FFB6B6"/>
<path d="M42.4168 117.479L52.1923 139.175L67.8023 130.722L73.3889 133.688C73.3889 133.688 60.628 155.031 51.8907 152.601C43.1533 150.172 27.6381 128.142 30.4335 121.343C33.229 114.543 42.4168 117.479 42.4168 117.479Z" fill="#E6E6E6"/>
<path d="M0 266.274C0 266.547 0.219054 266.766 0.491836 266.766H301.898C302.17 266.766 302.389 266.547 302.389 266.274C302.389 266.001 302.17 265.782 301.898 265.782H0.491836C0.219054 265.782 0 266.001 0 266.274Z" fill="#3F3D56"/>
<path d="M90.2296 160.207C105.043 160.207 117.051 148.447 117.051 133.939C117.051 119.432 105.043 107.672 90.2296 107.672C75.4163 107.672 63.4077 119.432 63.4077 133.939C63.4077 148.447 75.4163 160.207 90.2296 160.207Z" fill="#B99750"/>
<path d="M38.1303 262.071L45.2583 262.07L48.6491 234.565L38.1289 234.566L38.1303 262.071Z" fill="#FFB6B6"/>
<path d="M62.5516 261.909C62.7735 262.283 62.8906 263.49 62.8906 263.925C62.8906 265.262 61.8075 266.345 60.4714 266.345H38.397C37.4855 266.345 36.7466 265.606 36.7466 264.694V263.775C36.7466 263.775 35.6546 261.011 37.9028 257.606C37.9028 257.606 40.6971 260.272 44.8724 256.095L46.1037 253.864L55.0163 260.385L59.9565 260.993C61.0373 261.126 61.9956 260.973 62.5516 261.909Z" fill="#2F2E41"/>
<path d="M43.5241 118.872L43.6683 109.254L37.7396 105.556L31.293 113.445L43.5241 118.872Z" fill="#FFB6B6"/>
<path opacity="0.1" d="M43.5242 118.872L43.9079 109.493L37.7397 105.556L39.8354 117.162L43.5242 118.872Z" fill="black"/>
<path d="M57.9221 182.47L48.1001 249.336H35.7771L37.4157 211.167L38.2781 191.098L35.7771 181.545C35.7771 181.545 34.6367 179.422 33.6761 176.848C32.5933 173.943 31.7381 170.461 33.0077 168.81C33.4749 168.201 34.6895 167.75 36.34 167.415C37.3486 167.209 38.5224 167.048 39.7897 166.923C47.0771 166.202 57.443 166.653 57.443 166.653L57.7065 175.352L57.8526 180.21L57.9221 182.47Z" fill="#2F2E41"/>
<path d="M25.5745 258.801L32.6267 259.837L39.9806 233.118L29.5722 231.588L25.5745 258.801Z" fill="#FFB6B6"/>
<path d="M49.7593 262.195C49.9246 262.597 49.8649 263.808 49.8017 264.238C49.6074 265.561 48.3782 266.475 47.0563 266.281L25.2167 263.069C24.3149 262.936 23.6913 262.097 23.8239 261.195L23.9576 260.285C23.9576 260.285 23.279 257.392 25.9985 254.35C25.9985 254.35 28.3753 257.395 33.1135 253.87L34.6562 251.841L42.5259 259.59L47.3251 260.911C48.375 261.2 49.3455 261.187 49.7593 262.195Z" fill="#2F2E41"/>
<path d="M58.0766 171.319L56.7294 182.926L49.3826 207.384L37.2885 247.652L25.0979 245.859L36.0388 188.605L34.9555 178.788C34.9555 178.788 34.6027 177.812 34.1983 176.383C33.3956 173.557 32.3888 168.954 33.4964 166.606C33.646 166.287 33.8337 166.01 34.066 165.786C34.5017 165.363 35.3871 165.106 36.5734 164.97C41.5319 164.41 51.7437 166.013 56.2876 166.8L58.0766 171.319Z" fill="#2F2E41"/>
<path d="M32.6484 111.41L44.6264 117.162C44.6264 117.162 57.3232 154.789 57.3232 156.706C57.3232 158.624 60.9166 159.822 58.7605 161.979C56.6045 164.136 62.7735 165.963 59.4494 167.686C56.1254 169.409 35.3892 178.833 33.0834 177.983C26.724 175.639 33.3529 167.026 33.3529 167.026C33.3529 167.026 28.5758 163.177 29.2945 161.26C30.0132 159.343 24.9824 122.675 24.9824 122.675L32.6484 111.41Z" fill="#E6E6E6"/>
<path d="M69.1465 144.566C72.1192 143.687 74.982 144.509 75.5406 146.402C76.0992 148.295 74.1423 150.541 71.1684 151.419C69.9853 151.787 68.7314 151.865 67.5118 151.648L54.8693 155.212L53.3242 149.241L65.9515 146.362C66.8578 145.516 67.9534 144.901 69.1465 144.566Z" fill="#FFB6B6"/>
<path d="M46.7854 123.405L44.8039 147.12L62.553 147.311L65.9977 152.618C65.9977 152.618 44.4847 165.079 38.025 158.712C31.5653 152.344 28.691 125.549 34.4343 120.963C40.1776 116.376 46.7854 123.405 46.7854 123.405Z" fill="#E6E6E6"/>
<path d="M43.2746 112.044C48.9415 112.044 53.5355 107.448 53.5355 101.779C53.5355 96.1093 48.9415 91.5134 43.2746 91.5134C37.6076 91.5134 33.0137 96.1093 33.0137 101.779C33.0137 107.448 37.6076 112.044 43.2746 112.044Z" fill="#FFB6B6"/>
<path d="M37.74 101.819C37.74 101.819 39.3559 99.1518 40.2447 97.7777C41.1334 96.4037 41.1334 94.3906 41.1334 94.3906C41.1334 94.3906 49.3745 94.2213 52.1215 96.5653C54.8685 98.9093 56.8076 90.2607 54.1413 87.27C54.1413 87.27 53.0102 88.5633 53.2526 89.0483L53.495 89.5332C53.495 89.5332 52.1215 84.0369 48.1626 82.9861C48.1626 82.9861 45.9602 84.1241 46.5766 84.7675C47.193 85.411 41.8606 80.8846 40.2447 83.5519C40.2447 83.5519 36.2857 83.4711 36.7705 84.926L36.5281 85.8151C36.5281 85.8151 33.1348 84.7643 32.8924 87.27C32.8924 87.27 34.1043 87.27 34.7506 87.9167C35.397 88.5633 32.4076 90.4223 32.4076 90.4223C32.4076 90.4223 28.9334 99.9601 33.6195 103.84C33.6195 103.84 33.6599 99.1922 35.5182 100.324C37.3765 101.455 37.74 101.819 37.74 101.819Z" fill="#2F2E41"/>
<path d="M47.5049 107.881L47.1365 108.851L49.8997 108.932L50.0839 108.043L47.5049 107.881Z" fill="#2F2E41"/>
<path d="M50.268 104.406C50.268 104.406 46.1233 103.274 43.6364 106.669L43.0838 107.316C43.0838 107.316 37.8337 101.415 38.2943 99.2327L37.189 99.3135L36.0837 104.971C36.0837 104.971 39.5838 111.034 44.4654 111.276C44.4654 111.276 49.1628 112.408 50.1759 110.468C51.1891 108.528 52.9335 105.667 52.9335 105.667L50.268 104.406ZM49.5141 109.821H46.768C46.1233 109.821 44.4654 107.477 44.4654 107.477C45.3864 106.022 48.1496 105.941 48.1496 105.941H51.1503L51.3733 106.831L49.5141 109.821Z" fill="#2F2E41"/>
<path d="M250.286 262.852L245.781 261.878L247.392 244.03L254.041 245.467L250.286 262.852Z" fill="#A0616A"/>
<path d="M234.872 259.414C234.681 259.62 234.442 260.366 234.383 260.641C234.2 261.486 234.737 262.319 235.581 262.502L249.534 265.517C250.11 265.642 250.678 265.276 250.802 264.699L250.928 264.118C250.928 264.118 251.995 262.521 251.039 260.061C251.039 260.061 248.909 261.365 246.84 258.154L246.367 256.575L239.843 259.48L236.637 259.189C235.936 259.126 235.351 258.897 234.872 259.414Z" fill="#2F2E41"/>
<path d="M242.227 261.487L238.469 258.818L246.97 243.043L252.518 246.982L242.227 261.487Z" fill="#A0616A"/>
<path d="M229.409 252.258C229.153 252.372 228.639 252.965 228.477 253.194C227.977 253.899 228.142 254.876 228.847 255.376L240.488 263.641C240.968 263.982 241.635 263.869 241.976 263.388L242.32 262.903C242.32 262.903 243.929 261.855 244.018 259.217C244.018 259.217 241.547 259.577 240.907 255.811L241.093 254.173L233.953 254.275L231.121 252.746C230.501 252.412 230.053 251.972 229.409 252.258Z" fill="#2F2E41"/>
<path d="M296.375 173.243C296.375 173.243 303.384 182.776 289.366 193.495L260.745 184.345L270.967 163.017L280.02 158.05L296.375 173.243Z" fill="#2F2E41"/>
<path d="M260.745 184.345L249.648 205.966L242.639 250.96L251.4 251.544L260.161 208.888L275.64 185.806L264.834 180.839" fill="#2F2E41"/>
<path d="M289.366 186.703V193.495L269.507 215.315C269.507 215.315 269.507 231.677 261.913 239.273L253.152 252.713L245.559 248.622L256.657 209.472L276.516 183.761L289.366 186.703Z" fill="#2F2E41"/>
<path d="M275.254 119.376L278.265 133.645L289.747 130.838C289.747 130.838 284.071 119.028 285.2 114.35L275.254 119.376Z" fill="#A0616A"/>
<path opacity="0.1" d="M275.254 119.376L278.265 133.645L289.747 130.838C289.747 130.838 284.071 119.028 285.2 114.35L275.254 119.376Z" fill="black"/>
<path d="M286.153 121.53L277.392 125.62C277.392 125.62 272.885 128.376 272.802 130.212C272.719 132.048 273.303 140.813 273.303 140.813C273.303 140.813 269.799 144.319 272.135 151.331L270.967 163.017L297.251 177.041L294.914 152.499L296.083 129.71L286.153 121.53Z" fill="#E6E6E6"/>
<path d="M294.018 188.028C292.992 190.382 290.946 191.762 289.448 191.108C287.95 190.455 287.568 188.017 288.595 185.661C288.992 184.715 289.61 183.877 290.397 183.219L294.869 173.297L299.478 175.496L294.58 185.044C294.633 186.069 294.441 187.092 294.018 188.028Z" fill="#A0616A"/>
<path d="M289.366 131.171C289.366 131.171 295.791 127.081 298.127 131.755C300.463 136.43 305.72 160.388 305.72 160.388L298.127 183.177L291.118 180.255L297.251 155.729L289.366 131.171Z" fill="#E6E6E6"/>
<path d="M256.436 184.349C254.616 186.16 252.206 186.688 251.054 185.529C249.902 184.369 250.445 181.962 252.266 180.151C252.984 179.417 253.867 178.866 254.841 178.544L262.653 170.969L266.128 174.712L258.058 181.782C257.73 182.755 257.174 183.636 256.436 184.349Z" fill="#A0616A"/>
<path d="M273.049 129.777C273.049 129.777 284.251 129.319 284.701 134.526C285.152 139.733 277.494 162.967 277.494 162.967L262.043 181.354L256.603 176.055L271.336 155.514L273.049 129.777Z" fill="#E6E6E6"/>
<path d="M305.392 191.485L233.766 179.927C232.582 179.736 231.775 178.617 231.966 177.433C232.156 176.249 233.275 175.441 234.458 175.632L306.084 187.19C307.268 187.381 308.075 188.499 307.884 189.683C307.694 190.867 306.576 191.676 305.392 191.485Z" fill="#B99750"/>
<path d="M212.43 179.337C215.372 179.337 217.757 176.952 217.757 174.009C217.757 171.066 215.372 168.681 212.43 168.681C209.489 168.681 207.104 171.066 207.104 174.009C207.104 176.952 209.489 179.337 212.43 179.337Z" fill="#B99750"/>
<path d="M210.433 182.682L210.621 181.513C214.97 182.215 219.079 179.246 219.78 174.895C220.482 170.544 217.514 166.434 213.165 165.732L213.354 164.563C218.347 165.369 221.754 170.088 220.949 175.084C220.143 180.079 215.426 183.488 210.433 182.682Z" fill="#3F3D56"/>
<path d="M276.402 122.408C281.274 122.408 285.223 118.457 285.223 113.584C285.223 108.71 281.274 104.759 276.402 104.759C271.53 104.759 267.581 108.71 267.581 113.584C267.581 118.457 271.53 122.408 276.402 122.408Z" fill="#A0616A"/>
<path d="M281.615 113.583C281.615 113.583 276.108 108.583 272.58 110.348C269.051 112.113 267.287 113.289 267.287 113.289C267.287 113.289 264.346 108.877 268.757 105.053C268.757 105.053 259.78 101.129 266.327 95.0012C272.874 88.8735 278.754 91.2268 278.754 91.2268C278.754 91.2268 286.694 94.7568 281.107 101.817C281.107 101.817 289.246 106.981 285.029 115.43C285.029 115.43 284.635 110.053 283.459 111.524C282.283 112.995 281.615 113.583 281.615 113.583Z" fill="#2F2E41"/>
<path d="M99.4451 143.829C96.0728 135.535 92.7006 127.24 89.3284 118.946C88.8626 117.8 87.4036 117.76 86.9491 118.946C83.6171 127.642 81.4398 136.716 80.393 145.968C80.2147 147.544 82.6835 147.531 82.8604 145.968C83.27 142.347 83.8781 138.754 84.6589 135.199C87.4376 135.345 90.2392 135.033 92.9208 134.29C94.3025 137.689 95.6842 141.087 97.0658 144.486C97.6562 145.938 100.044 145.303 99.4451 143.829ZM85.2183 132.759C86.0494 129.355 87.0458 125.992 88.2019 122.684L91.9836 131.985C89.7686 132.567 87.5033 132.826 85.2183 132.759Z" fill="white"/>
<path d="M104.201 145.904C105.57 145.904 106.681 144.793 106.681 143.423C106.681 142.053 105.57 140.942 104.201 140.942C102.831 140.942 101.721 142.053 101.721 143.423C101.721 144.793 102.831 145.904 104.201 145.904Z" fill="white"/>
<path d="M78.1637 123.99C79.5332 123.99 80.6434 122.88 80.6434 121.51C80.6434 120.139 79.5332 119.029 78.1637 119.029C76.7942 119.029 75.684 120.139 75.684 121.51C75.684 122.88 76.7942 123.99 78.1637 123.99Z" fill="white"/>
</g>
<defs>
<clipPath id="clip0_212_2">
<rect width="339" height="267" fill="white"/>
</clipPath>
</defs>
</svg>
