<svg width="355" height="370" viewBox="0 0 355 370" fill="none" xmlns="http://www.w3.org/2000/svg">
<g clip-path="url(#clip0_95_143)">
<path d="M315.395 281.581L315.388 281.747L323.722 370H262.904L255.021 315.798L251.551 368.61L189.096 367.915L195.73 298.578L201.372 266.439V266.432L202.218 261.595H313.736L313.882 263.346L315.395 281.581Z" fill="#3B0532"/>
<path d="M154.67 332.741C161.111 333.916 167.827 326.652 169.671 316.516C170.479 312.08 170.218 307.828 169.13 304.351L170.118 298.509L186.692 219.909C186.692 219.909 217.212 158.774 217.211 148.161C217.21 137.548 208.382 132.343 208.382 132.343L196.436 132.455L158.975 224.076L152.228 291.78L151.137 301.069C148.894 303.938 147.153 307.824 146.346 312.261C144.502 322.397 148.229 331.566 154.67 332.741Z" fill="#FFB6B6"/>
<path d="M276.187 94.471L265.084 68.7596L228.998 75.0137L226.569 105.264L276.187 94.471Z" fill="#FFB6B6"/>
<path opacity="0.1" d="M276.187 94.471L265.084 68.7596L228.998 75.0137L226.569 105.264L276.187 94.471Z" fill="black"/>
<path d="M354.604 147.978C354.604 147.978 328.927 100.03 324.07 95.1659C321.907 93.0004 318.508 92.9703 315.4 93.6014L279.657 81.2678L267.542 74.4514L266.744 87.4196L226.969 94.5684C227.19 86.6598 228.304 83.6517 228.304 83.6517L213.731 100.725L185.279 114.623L185.295 114.748C183.207 115.478 181.227 116.727 179.728 118.793C174.176 126.436 158.909 219.553 158.909 219.553L191.525 226.503L195.964 198.609L199.158 223.723L201.587 270.629C201.587 270.629 246 308.849 267.513 294.95C289.025 281.052 315.395 281.747 315.395 281.747L316.053 260.005C316.522 259.256 316.783 258.816 316.783 258.816L316.089 181.692V161.17C321.376 168.546 327.756 174.888 335.173 177.859C359.461 187.588 354.604 147.978 354.604 147.978Z" fill="white"/>
<path d="M243.269 79.5375C261.603 79.5375 276.466 64.654 276.466 46.2944C276.466 27.9347 261.603 13.0513 243.269 13.0513C224.934 13.0513 210.071 27.9347 210.071 46.2944C210.071 64.654 224.934 79.5375 243.269 79.5375Z" fill="#FFB6B6"/>
<path d="M267.085 55.6892C267.085 55.6892 269.971 45.5717 276.466 46.2944C282.962 47.017 284.405 41.2356 282.962 38.3449C281.518 35.4542 278.632 21.0007 278.632 21.0007C278.632 21.0007 280.075 10.8832 271.415 9.43788C262.754 7.99253 259.868 6.54718 258.424 3.65647C256.981 0.765764 235.33 -2.12494 228.113 2.21112C220.897 6.54718 215.123 14.8665 210.071 17.2109C205.019 19.5553 200.689 23.8914 203.576 31.1182C206.463 38.3449 210.649 52.4789 210.649 52.4789C210.649 52.4789 218.01 49.9077 219.453 54.2438C220.897 58.5799 215.123 52.7985 222.34 41.2356C229.557 29.6728 229.557 18.11 241.104 22.446C252.651 26.7821 265.641 25.3368 264.198 34.0089C262.754 42.681 267.085 55.6892 267.085 55.6892Z" fill="#2F2E41"/>
<path d="M265.055 319.227H12.9306C5.80051 319.227 0 313.418 0 306.279V172.168C0 165.028 5.80051 159.219 12.9306 159.219H265.055C272.185 159.219 277.985 165.028 277.985 172.168V306.279C277.985 313.418 272.185 319.227 265.055 319.227Z" fill="white"/>
<path d="M265.055 319.227H12.9306C5.80051 319.227 0 313.418 0 306.279V172.168C0 165.028 5.80051 159.219 12.9306 159.219H265.055C272.185 159.219 277.985 165.028 277.985 172.168V306.279C277.985 313.418 272.185 319.227 265.055 319.227ZM12.9306 161.382C6.9914 161.382 2.15931 166.22 2.15931 172.168V306.279C2.15931 312.226 6.9914 317.065 12.9306 317.065H265.055C270.994 317.065 275.826 312.226 275.826 306.279V172.168C275.826 166.22 270.994 161.382 265.055 161.382H12.9306Z" fill="#3F3D56"/>
<path d="M245.595 175.437C247.384 175.437 248.834 173.984 248.834 172.193C248.834 170.402 247.384 168.95 245.595 168.95C243.807 168.95 242.356 170.402 242.356 172.193C242.356 173.984 243.807 175.437 245.595 175.437Z" fill="#3F3D56"/>
<path d="M254.233 175.437C256.021 175.437 257.472 173.984 257.472 172.193C257.472 170.402 256.021 168.95 254.233 168.95C252.444 168.95 250.994 170.402 250.994 172.193C250.994 173.984 252.444 175.437 254.233 175.437Z" fill="#3F3D56"/>
<path d="M262.87 175.437C264.659 175.437 266.109 173.984 266.109 172.193C266.109 170.402 264.659 168.95 262.87 168.95C261.081 168.95 259.631 170.402 259.631 172.193C259.631 173.984 261.081 175.437 262.87 175.437Z" fill="#3F3D56"/>
<path d="M18.3543 224.628C17.4613 224.628 16.7349 225.356 16.7349 226.25C16.7349 226.686 16.903 227.089 17.2083 227.387C17.5161 227.703 17.9194 227.872 18.3543 227.872H260.711C261.604 227.872 262.33 227.144 262.33 226.25C262.33 225.814 262.162 225.41 261.857 225.113C261.549 224.797 261.146 224.628 260.711 224.628H18.3543Z" fill="#E6E6E6"/>
<path d="M230.48 224.088V228.412H18.3541C17.7603 228.412 17.2205 228.174 16.8319 227.774C16.4323 227.385 16.1948 226.844 16.1948 226.25C16.1948 225.061 17.1665 224.088 18.3541 224.088H230.48Z" fill="#B99750"/>
<path d="M258.011 215.979H236.418C234.037 215.979 232.1 214.04 232.1 211.655C232.1 209.269 234.037 207.33 236.418 207.33H258.011C260.393 207.33 262.33 209.269 262.33 211.655C262.33 214.04 260.393 215.979 258.011 215.979Z" fill="#E6E6E6"/>
<path d="M116.576 193.275H19.9734C17.5922 193.275 15.6548 191.336 15.6548 188.951C15.6548 186.566 17.5922 184.626 19.9734 184.626H116.576C118.958 184.626 120.895 186.566 120.895 188.951C120.895 191.336 118.958 193.275 116.576 193.275Z" fill="#E6E6E6"/>
<path d="M18.3543 273.279C17.4613 273.279 16.7349 274.007 16.7349 274.901C16.7349 275.337 16.903 275.74 17.2083 276.038C17.5161 276.354 17.9194 276.523 18.3543 276.523H260.711C261.604 276.523 262.33 275.795 262.33 274.901C262.33 274.465 262.162 274.062 261.857 273.764C261.549 273.448 261.146 273.279 260.711 273.279H18.3543Z" fill="#E6E6E6"/>
<path d="M147.347 272.739V277.063H18.3541C17.7603 277.063 17.2205 276.825 16.8319 276.425C16.4323 276.036 16.1948 275.496 16.1948 274.901C16.1948 273.712 17.1665 272.739 18.3541 272.739H147.347Z" fill="#B99750"/>
<path d="M258.011 264.63H236.418C234.037 264.63 232.1 262.691 232.1 260.306C232.1 257.921 234.037 255.981 236.418 255.981H258.011C260.393 255.981 262.33 257.921 262.33 260.306C262.33 262.691 260.393 264.63 258.011 264.63Z" fill="#E6E6E6"/>
<path d="M295.813 82.0963C314.488 82.0963 329.627 67.256 329.627 48.9496C329.627 30.6431 314.488 15.8029 295.813 15.8029C277.138 15.8029 262 30.6431 262 48.9496C262 67.256 277.138 82.0963 295.813 82.0963Z" fill="#B99750"/>
<path d="M307.29 32.2301C302.788 40.4384 298.286 48.6468 293.785 56.8551C290.916 51.7789 288.062 46.6937 285.186 41.6214C284.193 39.8696 281.491 41.4452 282.487 43.2014C285.821 49.0813 289.12 54.9808 292.455 60.8607C293.025 61.866 294.59 61.8894 295.154 60.8607C300.099 51.8438 305.044 42.827 309.989 33.8101C310.958 32.0433 308.26 30.4619 307.29 32.2301Z" fill="white"/>
<path d="M342.492 136.32L308.802 120.182C308.802 120.182 307.449 109.381 301.131 105.528C300.057 102.962 298.822 100.143 297.699 97.9099C294.923 92.3863 299.087 81.9627 295.617 81.9627C292.148 81.9627 287.018 92.9251 287.29 95.8608C287.498 98.1143 289.358 102.049 289.742 105.493C285.511 107.091 282.098 109.83 279.854 112.01C277.912 113.897 277.19 116.713 277.949 119.314C280.149 126.852 285.646 142.419 293.535 142.419C303.945 142.419 306.72 140.335 306.72 140.335C306.72 140.335 328.233 167.436 344.194 169.52C360.155 171.605 342.492 136.32 342.492 136.32Z" fill="#FFB8B8"/>
</g>
<defs>
<clipPath id="clip0_95_143">
<rect width="355" height="370" fill="white"/>
</clipPath>
</defs>
</svg>
