<svg width="626" height="374" viewBox="0 0 626 374" fill="none" xmlns="http://www.w3.org/2000/svg">
<g clipPath="url(#clip0_5_4)">
<path d="M479.28 369.771C471.266 363.003 466.398 352.313 467.674 341.905C468.951 331.498 476.858 321.93 487.115 319.72C497.372 317.51 509.064 323.628 512.18 333.64C513.894 314.337 515.87 294.225 526.14 277.786C535.439 262.901 551.546 252.25 569.002 250.345C586.458 248.439 604.837 255.636 615.724 269.404C626.61 283.172 629.276 303.188 621.651 318.995C616.034 330.64 605.686 339.306 594.844 346.356C559.808 368.946 517.787 378.133 476.512 372.225L479.28 369.771Z" fill="#B99750"/>
<path d="M598.462 256.035C584.058 267.758 570.845 280.87 559.012 295.181C540.494 317.5 525.509 342.524 514.579 369.381C513.779 371.341 516.963 372.193 517.754 370.256C535.637 326.608 564.186 288.136 600.79 258.361C602.434 257.024 600.092 254.708 598.462 256.035Z" fill="white"/>
<path d="M201.52 367.932C212.527 358.637 219.214 343.953 217.46 329.659C215.707 315.364 204.846 302.223 190.758 299.188C176.671 296.152 160.612 304.555 156.333 318.307C153.978 291.794 151.264 264.169 137.158 241.59C124.385 221.146 102.263 206.517 78.2868 203.9C54.311 201.283 29.0674 211.167 14.1145 230.078C-0.838334 248.989 -4.49948 276.481 5.97312 298.192C13.6879 314.186 27.9013 326.089 42.7934 335.772C90.3043 366.666 149.242 379.55 205.321 371.303" fill="#B99750"/>
<path d="M37.8238 211.715C57.6069 227.818 75.7558 245.827 92.008 265.483C108.263 285.118 122.573 306.283 134.739 328.679C141.539 341.243 147.647 354.168 153.037 367.397C154.136 370.088 149.763 371.26 148.676 368.598C139.129 345.276 127.318 322.944 113.412 301.924C99.5737 280.98 83.7347 261.427 66.1178 243.539C56.1536 233.427 45.6405 223.87 34.6262 214.911C32.3686 213.074 35.5849 209.893 37.8238 211.715Z" fill="white"/>
<path d="M449.353 373.181H186.721V103.901C186.721 46.6098 233.363 0 290.694 0H345.38C402.711 0 449.353 46.6098 449.353 103.901V373.181Z" fill="white"/>
<path d="M394.668 373.181H186.721V103.901C186.663 81.9484 193.62 60.5505 206.577 42.8229C207.055 42.1723 207.531 41.5301 208.022 40.895C214.29 32.6807 221.748 25.4466 230.151 19.4313C230.626 19.0861 231.102 18.747 231.586 18.4078C238.618 13.5453 246.224 9.57022 254.232 6.57317C254.707 6.39306 255.191 6.21259 255.675 6.0395C262.918 3.45676 270.425 1.6876 278.059 0.764681C278.532 0.700075 279.018 0.64952 279.504 0.598965C286.943 -0.195911 294.446 -0.195911 301.886 0.598965C302.37 0.64952 302.856 0.700069 303.335 0.765372C310.967 1.68835 318.473 3.4573 325.713 6.03953C326.197 6.21262 326.681 6.39308 327.158 6.57354C335.067 9.53279 342.584 13.4485 349.541 18.2334C350.024 18.5651 350.508 18.9043 350.984 19.2434C355.695 22.6033 360.119 26.3464 364.212 30.4346C367.495 33.7137 370.553 37.2091 373.368 40.8972C373.858 41.5302 374.334 42.1723 374.811 42.8218C387.768 60.5497 394.725 81.948 394.668 103.901V373.181Z" fill="#CCCCCC"/>
<path d="M377.759 252.742C384.117 252.742 389.271 247.591 389.271 241.238C389.271 234.884 384.117 229.733 377.759 229.733C371.4 229.733 366.246 234.884 366.246 241.238C366.246 247.591 371.4 252.742 377.759 252.742Z" fill="#B99750"/>
<path d="M427.838 365.116H419.016L414.819 331.114L427.839 331.115L427.838 365.116Z" fill="#FFB8B8"/>
<path d="M412.715 362.597H429.728V373.301H402.003C402.003 371.895 402.28 370.504 402.819 369.205C403.357 367.906 404.146 366.726 405.141 365.732C406.135 364.738 407.316 363.95 408.616 363.412C409.916 362.874 411.308 362.597 412.715 362.597Z" fill="#2F2E41"/>
<path d="M471.73 365.116H462.908L458.711 331.114L471.731 331.115L471.73 365.116Z" fill="#FFB8B8"/>
<path d="M456.607 362.597H473.62V373.301H445.895C445.895 371.895 446.172 370.504 446.711 369.205C447.249 367.906 448.038 366.726 449.033 365.732C450.027 364.738 451.208 363.95 452.508 363.412C453.807 362.874 455.2 362.597 456.607 362.597Z" fill="#2F2E41"/>
<path d="M383.585 243.517C382.951 242.582 382.529 241.52 382.349 240.405C382.17 239.29 382.237 238.15 382.547 237.064C382.856 235.978 383.4 234.972 384.14 234.119C384.88 233.266 385.799 232.585 386.831 232.125L416.818 149.531L431.574 157.578L397.335 236.508C397.993 238.291 397.975 240.255 397.282 242.025C396.589 243.796 395.27 245.251 393.575 246.115C391.88 246.979 389.927 247.192 388.086 246.713C386.245 246.234 384.643 245.097 383.585 243.517Z" fill="#FFB8B8"/>
<path d="M467.224 259.036C466.243 258.475 465.398 257.705 464.748 256.782C464.097 255.858 463.657 254.804 463.459 253.692C463.26 252.58 463.308 251.439 463.599 250.347C463.89 249.256 464.417 248.242 465.142 247.376L455.852 160.006L472.645 160.773L476.506 246.713C477.88 248.027 478.725 249.8 478.879 251.695C479.033 253.59 478.486 255.475 477.342 256.994C476.198 258.513 474.536 259.56 472.671 259.937C470.806 260.313 468.868 259.993 467.224 259.036Z" fill="#FFB8B8"/>
<path d="M440.435 134.233C450.195 134.233 458.107 126.326 458.107 116.572C458.107 106.819 450.195 98.9121 440.435 98.9121C430.674 98.9121 422.762 106.819 422.762 116.572C422.762 126.326 430.674 134.233 440.435 134.233Z" fill="#FFB8B8"/>
<path d="M467.111 239.166H413.831L413.895 238.752C413.991 238.132 423.391 176.599 416.458 156.468C415.762 154.489 415.824 152.324 416.63 150.388C417.436 148.452 418.93 146.882 420.825 145.981C430.735 141.318 449.756 135.576 465.811 149.511C468.174 151.596 470.018 154.201 471.2 157.12C472.381 160.04 472.866 163.195 472.618 166.334L467.111 239.166Z" fill="#B99750"/>
<path d="M424.064 185.692L400.077 180.829L411.321 154.203C411.994 151.624 413.663 149.418 415.962 148.067C418.261 146.716 421.002 146.331 423.584 146.998C426.166 147.664 428.379 149.326 429.736 151.62C431.093 153.914 431.485 156.653 430.824 159.235L424.064 185.692Z" fill="#B99750"/>
<path d="M454.786 194.722L453.344 161.688C452.25 155.478 455.807 149.608 461.278 148.648C466.751 147.692 472.094 151.999 473.193 158.255L478.613 189.121L454.786 194.722Z" fill="#B99750"/>
<path d="M465.338 235.211C473.911 267.839 474.847 309.322 472.534 354.572L461.021 353.134L440.154 266.849L428.642 354.572L415.69 353.853C411.821 306.375 408.053 265.615 414.251 238.806L465.338 235.211Z" fill="#3B0532"/>
<path d="M452.079 130.221C448.782 133.73 442.66 131.846 442.23 127.052C442.196 126.68 442.199 126.305 442.237 125.933C442.459 123.81 443.687 121.882 443.393 119.639C443.326 119.081 443.118 118.549 442.788 118.094C440.161 114.578 433.994 119.666 431.514 116.484C429.994 114.532 431.781 111.46 430.615 109.279C429.075 106.4 424.514 107.82 421.653 106.244C418.471 104.489 418.661 99.6103 420.756 96.6425C423.311 93.0231 427.79 91.0918 432.214 90.8135C436.637 90.5351 441.03 91.7301 445.16 93.3383C449.852 95.1657 454.505 97.6911 457.393 101.814C460.904 106.828 461.242 113.569 459.486 119.432C458.418 122.998 454.772 127.355 452.079 130.221Z" fill="#2F2E41"/>
<path d="M604.401 373.644H73.1683C72.9416 373.643 72.7243 373.553 72.5642 373.392C72.404 373.232 72.3141 373.014 72.3141 372.788C72.3141 372.561 72.404 372.344 72.5642 372.183C72.7243 372.023 72.9416 371.932 73.1683 371.932H604.401C604.627 371.932 604.845 372.023 605.005 372.183C605.165 372.344 605.255 372.561 605.255 372.788C605.255 373.014 605.165 373.232 605.005 373.392C604.845 373.553 604.627 373.643 604.401 373.644Z" fill="#3F3D56"/>
<path d="M337.464 295.166H243.924C242.692 295.172 241.508 294.69 240.631 293.825C239.754 292.961 239.257 291.784 239.247 290.553V81.9095C239.257 80.6785 239.754 79.5015 240.631 78.6367C241.508 77.772 242.692 77.2901 243.924 77.2967H337.464C338.696 77.2901 339.881 77.772 340.757 78.6367C341.634 79.5015 342.132 80.6785 342.141 81.9095V290.553C342.132 291.784 341.634 292.961 340.757 293.825C339.881 294.69 338.696 295.172 337.464 295.166Z" fill="white"/>
<path d="M342.141 144.807H239.247V146.245H342.141V144.807Z" fill="#CCCCCC"/>
<path d="M342.501 226.857H239.607V228.295H342.501V226.857Z" fill="#CCCCCC"/>
<path d="M273.066 77.2967H271.626V295.885H273.066V77.2967Z" fill="#CCCCCC"/>
<path d="M309.043 77.2967H307.603V295.885H309.043V77.2967Z" fill="#CCCCCC"/>
</g>
<defs>
<clipPath id="clip0_5_4">
<rect width="626" height="374" fill="white"/>
</clipPath>
</defs>
</svg>
