<svg width="20" height="17" viewBox="0 0 20 17" fill="none" xmlns="http://www.w3.org/2000/svg">
<g clipPath="url(#clip0_132_150)">
<path d="M4.40703 15.0171L7.0293 12.5145C7.14453 12.4041 7.29297 12.3493 7.44141 12.3493L10.0363 12.3485C9.56797 12.5779 9.17344 12.9227 8.88164 13.5345H7.67891L4.25391 16.8037C4.14453 16.9238 3.98633 17 3.81055 17C3.48125 17 3.21406 16.7341 3.21406 16.4064V13.5345H1.44688C1.04844 13.5345 0.687109 13.3713 0.426172 13.1112C0.163281 12.8496 0 12.4885 0 12.0943V1.44022C0 1.04683 0.164844 0.686095 0.427344 0.425262C0.689453 0.164041 1.05195 0 1.44688 0H15.0141C15.409 0 15.7727 0.162875 16.0355 0.424485C16.2969 0.68454 16.4609 1.04411 16.4609 1.44022V5.10198C16.0789 4.83415 15.6797 4.67244 15.268 4.60364V1.44022C15.268 1.37258 15.2387 1.30961 15.1922 1.26335C15.1449 1.21631 15.0812 1.18716 15.0141 1.18716H1.44688C1.38086 1.18716 1.31797 1.21709 1.27031 1.26413C1.22305 1.31155 1.19297 1.37413 1.19297 1.44022V12.0943C1.19297 12.162 1.22227 12.2253 1.26914 12.2724C1.31563 12.3186 1.37891 12.3474 1.44688 12.3474H3.81055C4.13984 12.3474 4.40703 12.6133 4.40703 12.941V15.0171ZM9.97617 15.7172C9.89336 15.7172 9.82617 15.6504 9.82617 15.5679C9.82617 15.5252 9.83203 15.4832 9.84258 15.4416C10.0832 13.5435 10.9262 13.5104 11.9867 13.2344C12.3035 13.1524 12.882 12.9767 13.2188 12.6832C13.4039 12.5211 13.5164 12.3233 13.4715 12.085C13.2152 11.849 13.018 11.5933 12.9734 11.1058L12.943 11.1062C12.8719 11.1054 12.8031 11.0895 12.7391 11.0533C12.5977 10.9732 12.5199 10.8197 12.4828 10.6448C12.4383 10.436 12.3848 9.83818 12.6707 9.71884L12.673 9.71806C12.6375 9.05918 12.7496 8.01585 12.0695 7.81099C13.4117 6.16009 14.9594 5.26214 16.1215 6.73073C17.416 6.79837 17.9934 8.69728 17.1895 9.71884H17.1555C17.4414 9.83818 17.3875 10.436 17.3434 10.6448C17.3059 10.8197 17.2285 10.9732 17.0871 11.0533C17.023 11.0895 16.9543 11.1054 16.8832 11.1062L16.8527 11.1058C16.8082 11.5933 16.6109 11.849 16.3547 12.085C16.3098 12.3233 16.4223 12.5211 16.6074 12.6832C16.9441 12.9767 17.5223 13.1524 17.8395 13.2344C18.9 13.5104 19.743 13.5435 19.9836 15.4416C19.9941 15.4832 20 15.5252 20 15.5679C20 15.6504 19.9328 15.7172 19.85 15.7172H9.97617ZM4.09414 5.33833C3.76484 5.33833 3.49766 5.07244 3.49766 4.74475C3.49766 4.41705 3.76484 4.15117 4.09414 4.15117H12.2238C12.5535 4.15117 12.8203 4.41705 12.8203 4.74475C12.8203 5.07244 12.5535 5.33833 12.2238 5.33833H4.09414ZM4.09453 8.85199C3.76523 8.85199 3.49805 8.58649 3.49805 8.25841C3.49805 7.93072 3.76523 7.66522 4.09453 7.66522H9.63281C9.96211 7.66522 10.2293 7.93072 10.2293 8.25841C10.2293 8.58649 9.96211 8.85199 9.63281 8.85199H4.09453Z" fill="white"/>
</g>
<defs>
<clipPath id="clip0_132_150">
<rect width="20" height="17" fill="white"/>
</clipPath>
</defs>
</svg>
