<svg width="13" height="13" viewBox="0 0 13 13" fill="none" xmlns="http://www.w3.org/2000/svg">
<g clip-path="url(#clip0_560_183)">
<path fill-rule="evenodd" clip-rule="evenodd" d="M4.36492 13H12.438C12.5919 13 12.7319 12.9376 12.8342 12.8381V12.8371C12.9354 12.7366 12.9989 12.599 12.9989 12.4478V4.85173C12.9989 4.69938 12.9354 4.56185 12.8342 4.46134C12.7319 4.36084 12.5919 4.29948 12.4369 4.29948H9.60411C9.60195 4.46769 9.59227 4.63485 9.57504 4.79883H12.439C12.453 4.79883 12.467 4.80517 12.4767 4.8147C12.4864 4.82422 12.4929 4.83797 12.4929 4.85173V11.0195C12.4757 11.0164 12.4573 11.0153 12.439 11.0153H4.36492C4.34661 11.0153 4.32831 11.0174 4.31108 11.0195V9.43685C4.13989 9.43685 3.96977 9.42839 3.80288 9.41252V12.4478C3.80288 12.6001 3.86641 12.7387 3.96762 12.8381C3.97408 12.8445 3.97946 12.8498 3.98592 12.8551C4.08605 12.945 4.21956 13 4.36492 13ZM7.65422 2.38883C7.66821 2.41317 7.68221 2.43962 7.69728 2.46606L7.69836 2.46712C7.71559 2.49886 7.73174 2.5306 7.74789 2.56128C7.76619 2.59619 7.78342 2.63216 7.80065 2.66919C7.81895 2.70728 7.8351 2.74325 7.85125 2.77921L7.85771 2.79085C7.8814 2.84692 7.90401 2.90194 7.92447 2.95801C7.94492 3.01408 7.96538 3.07121 7.98368 3.12939V3.13045C8.00199 3.18758 8.01814 3.24577 8.03321 3.30501C8.04829 3.36426 8.06228 3.42456 8.07413 3.48486C8.08382 3.53353 8.09243 3.58008 8.09997 3.62663C8.1075 3.67318 8.11396 3.72078 8.12042 3.76945V3.77051C8.12581 3.81283 8.13011 3.8562 8.13442 3.90063C8.13765 3.93555 8.1398 3.97046 8.14196 4.00431H7.08357C7.07711 3.8689 7.06096 3.73348 7.03835 3.60018C7.01358 3.45736 6.97913 3.31453 6.93498 3.17383C6.89192 3.03524 6.84024 2.89665 6.78102 2.75911C6.72718 2.63533 6.66581 2.51156 6.5969 2.38778L7.65422 2.38883ZM7.33336 1.90853H6.29543C6.20822 1.78581 6.11347 1.66308 6.01333 1.54248C5.9089 1.41764 5.79692 1.29175 5.67741 1.16691C5.56758 1.05159 5.45022 0.936278 5.32533 0.820963C5.22412 0.726806 5.1186 0.632649 5.00986 0.539551L5.09707 0.55542C5.15736 0.567058 5.21766 0.580811 5.27903 0.59668C5.3404 0.611491 5.4007 0.628418 5.45991 0.646403C5.51913 0.664388 5.57835 0.684488 5.63757 0.705647C5.69679 0.726807 5.75493 0.750081 5.81199 0.774414C5.87121 0.799805 5.92935 0.825194 5.98534 0.851644C6.04133 0.878092 6.09732 0.906657 6.15331 0.936279C6.20822 0.965901 6.26313 0.995524 6.31481 1.02726C6.36757 1.059 6.42032 1.09074 6.46985 1.12459C6.52046 1.15845 6.57106 1.1923 6.61951 1.22827C6.66796 1.26424 6.71642 1.30021 6.76271 1.3383C6.80901 1.37533 6.85531 1.41447 6.90053 1.45573C6.94575 1.49593 6.9899 1.53719 7.03296 1.58057C7.06634 1.61442 7.09972 1.64722 7.13202 1.68107C7.16432 1.71492 7.19554 1.74878 7.22569 1.78369C7.25046 1.8112 7.27414 1.83976 7.29783 1.86833L7.33336 1.90853ZM3.62846 0.539551C3.51864 0.632649 3.41312 0.726806 3.31191 0.820963C3.18809 0.936278 3.07073 1.05159 2.96091 1.16691C2.84139 1.29175 2.72942 1.41658 2.62498 1.54248C2.52377 1.66414 2.4301 1.78581 2.34289 1.90853H1.30711L1.34156 1.86621C1.36525 1.83765 1.39001 1.80908 1.4137 1.78158C1.47507 1.71281 1.53967 1.6451 1.60643 1.57951L1.6075 1.57739C1.65057 1.53507 1.69472 1.49381 1.73994 1.45361C1.78516 1.41341 1.83146 1.37427 1.87775 1.33724C1.92405 1.29915 1.9725 1.26318 2.02095 1.22721C2.07048 1.19124 2.12001 1.15739 2.17061 1.12353C2.22014 1.09074 2.2729 1.05794 2.32674 1.0262C2.37949 0.994466 2.43333 0.964844 2.48609 0.936279C2.54207 0.906657 2.59806 0.878092 2.65513 0.851644C2.71111 0.825194 2.76926 0.799805 2.82847 0.774414C2.83386 0.772298 2.83601 0.770183 2.84139 0.767009C2.89846 0.743733 2.95445 0.722574 3.01151 0.701416C3.06858 0.681314 3.12672 0.661214 3.18594 0.643229H3.18701C3.24516 0.625243 3.30437 0.609374 3.36467 0.594563C3.42496 0.579752 3.48633 0.565999 3.54771 0.554361L3.62846 0.539551ZM0.980868 2.38672H2.03818C1.96927 2.51156 1.9079 2.63533 1.85299 2.76017C1.7927 2.89876 1.74101 3.03735 1.69902 3.17594C1.65595 3.31771 1.6215 3.45947 1.59674 3.60229C1.57305 3.7356 1.55798 3.8689 1.55152 4.00325H0.494202C0.496356 3.9694 0.499586 3.93449 0.501739 3.89958C0.506046 3.85514 0.510353 3.81071 0.515736 3.76839C0.522196 3.71867 0.528657 3.67106 0.536193 3.62557C0.54373 3.58008 0.552344 3.53247 0.562034 3.48381L0.563111 3.47957C0.574954 3.42033 0.588952 3.36108 0.604025 3.30078C0.619099 3.24048 0.636326 3.18123 0.65463 3.12305C0.672934 3.06486 0.693391 3.00667 0.714925 2.94849C0.736459 2.8903 0.760146 2.83317 0.78491 2.7771L0.785986 2.77498C0.80106 2.74007 0.817211 2.7041 0.834438 2.66813L0.835514 2.66707C0.851665 2.63322 0.868892 2.59831 0.886119 2.56234C0.903346 2.52848 0.919496 2.49674 0.936724 2.46501C0.951797 2.43962 0.965794 2.41317 0.980868 2.38672ZM0.494202 4.48145H1.56228C1.57413 4.61369 1.59458 4.74593 1.62258 4.87923C1.65272 5.021 1.69149 5.16276 1.73886 5.30452L1.73994 5.30664C1.78623 5.44523 1.84222 5.58382 1.90575 5.72135C1.96389 5.84725 2.02849 5.97314 2.10063 6.09904H0.980868C0.965794 6.07259 0.950721 6.04508 0.936724 6.01969C0.919496 5.98901 0.903346 5.95622 0.886119 5.92236L0.885042 5.9213C0.866738 5.88639 0.850588 5.85148 0.833361 5.81657C0.816134 5.7806 0.799983 5.74463 0.78491 5.70866L0.78168 5.70231L0.777373 5.69596C0.753686 5.64095 0.732152 5.58488 0.710618 5.52881C0.690161 5.47168 0.669704 5.41455 0.6514 5.35742C0.633096 5.29923 0.615869 5.24105 0.600795 5.18074C0.585721 5.1215 0.571724 5.0612 0.559881 5.0009C0.550191 4.95223 0.541577 4.90462 0.53404 4.85913C0.526503 4.81258 0.518966 4.76497 0.513583 4.71631C0.508199 4.67293 0.503893 4.62956 0.499586 4.58512C0.498509 4.55021 0.495279 4.5153 0.494202 4.48145ZM1.3028 6.57617H2.40641C2.49362 6.69783 2.58622 6.81844 2.68527 6.9401C2.78756 7.06494 2.89738 7.18978 3.01259 7.31567C3.12026 7.43205 3.23546 7.54842 3.35605 7.66585C3.45511 7.76213 3.55955 7.85946 3.66722 7.95573L3.622 7.94832L3.54448 7.93351C3.48418 7.92188 3.42281 7.90812 3.36144 7.89225C3.30007 7.87744 3.23977 7.86051 3.17948 7.84253C3.12026 7.82454 3.06104 7.80444 3.00182 7.78328C2.9426 7.76213 2.88446 7.73885 2.8274 7.71452C2.7671 7.68913 2.71004 7.66268 2.65405 7.63623C2.59806 7.60978 2.54207 7.58122 2.48716 7.55265C2.43117 7.52303 2.37734 7.49235 2.32458 7.46167C2.27182 7.43099 2.22014 7.39819 2.17061 7.3654C2.11893 7.33154 2.06941 7.29663 2.02095 7.26172C1.97143 7.22575 1.92405 7.18978 1.87775 7.15169C1.83146 7.11466 1.78516 7.07552 1.73994 7.03426C1.69579 6.99406 1.65165 6.9528 1.6075 6.90942L1.60535 6.90837C1.57197 6.87557 1.53967 6.84277 1.50845 6.80998C1.47615 6.77612 1.44492 6.74227 1.41478 6.70736C1.39001 6.67985 1.36525 6.65129 1.34156 6.62166L1.3028 6.57617ZM4.97217 7.9515C5.07984 7.85522 5.1832 7.75895 5.28226 7.66268C5.40285 7.54631 5.5159 7.42993 5.62357 7.31462C5.73985 7.18978 5.8486 7.06494 5.95089 6.93905C6.04994 6.81738 6.14254 6.69678 6.22867 6.57511H7.33013L7.29568 6.61849C7.27199 6.64705 7.2483 6.67456 7.22354 6.70312C7.19339 6.73698 7.16217 6.77189 7.12987 6.80575C7.09864 6.83854 7.06634 6.87134 7.03081 6.90625C6.98667 6.94963 6.94252 6.99194 6.8973 7.03109C6.85208 7.07235 6.80578 7.11043 6.75948 7.14746C6.71319 7.18555 6.66473 7.22152 6.61628 7.25749C6.56676 7.29346 6.51723 7.32731 6.46662 7.36117C6.41602 7.39396 6.36434 7.42676 6.31158 7.4585C6.25882 7.49023 6.20499 7.51986 6.15007 7.54948C6.09516 7.5791 6.03918 7.60661 5.98319 7.63306C5.9272 7.65951 5.86906 7.6849 5.80876 7.71029C5.80338 7.7124 5.80123 7.71452 5.79584 7.71769C5.73878 7.74097 5.68171 7.76318 5.62572 7.78328C5.56866 7.80339 5.51052 7.82349 5.4513 7.84147H5.45022C5.39208 7.85946 5.33179 7.87533 5.27257 7.89119C5.21227 7.90601 5.15198 7.91976 5.08953 7.9314L5.01201 7.94621L4.97217 7.9515ZM7.65422 6.09904H6.53661C6.60875 5.97314 6.67335 5.84725 6.73041 5.72241C6.79394 5.58382 6.84993 5.44417 6.89622 5.30558C6.9436 5.16382 6.98344 5.02205 7.01251 4.88029C7.0405 4.74699 7.06096 4.61475 7.0728 4.4825H8.1398C8.13765 4.51636 8.13442 4.55127 8.13227 4.58618C8.12796 4.63062 8.12365 4.67399 8.11827 4.71737C8.11181 4.76709 8.10535 4.8147 8.09781 4.86019C8.09028 4.90568 8.08166 4.95329 8.07197 5.00195L8.0709 5.00619C8.05905 5.06543 8.04506 5.12467 8.0289 5.18498C8.01383 5.24528 7.9966 5.30452 7.9783 5.36271C7.96 5.4209 7.93954 5.47908 7.91801 5.53727C7.89647 5.59546 7.87279 5.65153 7.8491 5.7076L7.84802 5.71077C7.83295 5.74569 7.8168 5.78166 7.79957 5.81763L7.79849 5.81869C7.78342 5.85148 7.76619 5.88639 7.74789 5.92342C7.73066 5.95833 7.71343 5.99007 7.69728 6.01969C7.68544 6.04403 7.67037 6.07153 7.65422 6.09904ZM3.45188 8.40112C3.52294 8.41488 3.594 8.42757 3.66399 8.43815C3.73397 8.44873 3.80504 8.45719 3.87825 8.4646C3.95147 8.47201 4.02468 8.47729 4.0979 8.48047C4.17219 8.48364 4.24648 8.48576 4.3197 8.48576C4.4672 8.48576 4.61363 8.47835 4.75899 8.4646C4.8322 8.45719 4.90326 8.44873 4.97433 8.43815C5.04431 8.42757 5.11537 8.41593 5.18751 8.40112C5.25642 8.38843 5.32533 8.37256 5.39316 8.35563C5.46099 8.3387 5.52882 8.31966 5.59665 8.29956C5.66341 8.27946 5.73016 8.25724 5.79584 8.23397C5.86044 8.21069 5.92612 8.1853 5.99072 8.1578C5.99826 8.15568 6.00257 8.15356 6.0101 8.14933C6.07148 8.12288 6.13285 8.09538 6.1953 8.06576C6.25882 8.03613 6.32019 8.00439 6.37941 7.97266L6.38049 7.9716C6.44186 7.9388 6.50215 7.90495 6.56137 7.87004L6.56245 7.86898C6.62274 7.83301 6.68196 7.79704 6.73903 7.75895C6.79501 7.72192 6.851 7.68384 6.90591 7.64469C6.96082 7.60449 7.01466 7.56323 7.06849 7.52091C7.12233 7.47754 7.17401 7.43311 7.22569 7.38761C7.27845 7.34106 7.32905 7.29346 7.37751 7.24585L7.37966 7.24373C7.42811 7.19718 7.47548 7.14852 7.52071 7.0988C7.567 7.04907 7.61115 6.99829 7.65529 6.94539C7.69836 6.89355 7.74035 6.84066 7.78127 6.78564C7.82218 6.73063 7.86202 6.67456 7.90078 6.61849L7.90186 6.61743C7.94062 6.5603 7.97722 6.50317 8.01275 6.4471C8.04829 6.38892 8.08382 6.32967 8.11719 6.26831C8.15057 6.20907 8.1818 6.14771 8.21194 6.08529C8.24317 6.02181 8.27224 5.95939 8.30023 5.89591C8.32823 5.83138 8.35514 5.76685 8.37991 5.7002C8.40467 5.6346 8.42728 5.56795 8.44882 5.50024C8.47035 5.43254 8.48973 5.36588 8.50696 5.29818C8.52419 5.23153 8.54033 5.16276 8.55433 5.09294C8.56833 5.02311 8.58125 4.95435 8.59202 4.88452C8.60278 4.81575 8.6114 4.74487 8.61893 4.67293C8.62647 4.60099 8.63185 4.52905 8.63508 4.45711C8.63831 4.38411 8.64047 4.31112 8.64047 4.23918C8.64047 4.16724 8.63831 4.0953 8.63508 4.0223C8.63185 3.95036 8.62647 3.87948 8.61893 3.80754C8.6114 3.7356 8.60278 3.66471 8.59202 3.59595V3.59489C8.58125 3.52718 8.56941 3.45736 8.55433 3.38753C8.54141 3.31982 8.52526 3.25212 8.50803 3.18547C8.49081 3.11882 8.47143 3.05216 8.45097 2.98551C8.43051 2.91992 8.4079 2.85433 8.38421 2.78979C8.36053 2.72632 8.33469 2.66178 8.30669 2.59937C8.30454 2.5909 8.30131 2.58667 8.297 2.57926C8.27008 2.51685 8.24101 2.45548 8.21087 2.39412C8.18072 2.33276 8.14842 2.27246 8.11504 2.21216C8.08059 2.1508 8.04613 2.09155 8.01168 2.03442C7.97615 1.97624 7.93954 1.91911 7.90078 1.86304C7.86309 1.80802 7.82433 1.75301 7.78342 1.698C7.74251 1.64404 7.70051 1.59115 7.65745 1.53931L7.65637 1.53825C7.61223 1.48535 7.567 1.43351 7.52071 1.38379L7.51963 1.38273C7.47225 1.33195 7.42488 1.28328 7.37751 1.23568L7.37428 1.2325C7.32582 1.1849 7.27737 1.13835 7.22784 1.09391C7.17724 1.04948 7.12556 1.00504 7.0728 0.96167C7.02004 0.919352 6.96621 0.878092 6.91022 0.836832C6.85423 0.796631 6.79824 0.757486 6.74118 0.720459C6.68411 0.682373 6.62597 0.645345 6.56676 0.610433C6.50754 0.575521 6.44617 0.540608 6.38372 0.507812C6.32235 0.475016 6.2599 0.444336 6.19745 0.413655C6.13392 0.382975 6.06932 0.35441 6.0058 0.327962C5.94012 0.300455 5.87336 0.274007 5.80661 0.249675C5.73985 0.225342 5.67202 0.203124 5.60311 0.181966C5.53528 0.160807 5.46745 0.142821 5.39854 0.125895C5.33071 0.108968 5.26073 0.0930986 5.18859 0.0793457C5.11753 0.0655928 5.04754 0.0528965 4.97648 0.0423174C4.90649 0.0317373 4.83435 0.0232744 4.76114 0.0158682C4.61471 0.00211525 4.46828 -0.00529003 4.3197 -0.00529003C4.24648 -0.00529003 4.17326 -0.00317383 4.09897 0C4.02576 0.00317383 3.95362 0.00846291 3.8804 0.0158682C3.80719 0.0232744 3.73505 0.0317373 3.66507 0.0423174C3.59508 0.0528965 3.52402 0.0645342 3.45296 0.0793457C3.38405 0.092041 3.31514 0.10791 3.24731 0.124837C3.17948 0.141765 3.11164 0.160808 3.04489 0.180908C2.97814 0.201009 2.91246 0.223226 2.84678 0.2465C2.7811 0.269774 2.71542 0.296224 2.64974 0.322672C2.64328 0.325846 2.6379 0.326904 2.63144 0.331136C2.57007 0.357584 2.50762 0.385091 2.44625 0.414713C2.3838 0.444336 2.32243 0.475017 2.26321 0.506755C2.20184 0.539551 2.14154 0.573405 2.08233 0.608317C2.02095 0.644287 1.96066 0.681314 1.90252 0.7194C1.84653 0.756429 1.79054 0.794515 1.73563 0.834717C1.68072 0.874919 1.62688 0.916178 1.57413 0.958496C1.52029 1.00187 1.46753 1.0463 1.41585 1.09285C1.36309 1.14046 1.31249 1.18701 1.26512 1.23356L1.26296 1.23568C1.21451 1.28328 1.16714 1.33089 1.12191 1.38062C1.07669 1.42928 1.03147 1.48112 0.987328 1.53296C0.94426 1.5848 0.901193 1.63875 0.860278 1.69377C0.819364 1.74772 0.779526 1.80379 0.741842 1.85986C0.703081 1.91593 0.666473 1.97306 0.629866 2.03125C0.594335 2.08944 0.558804 2.14974 0.525427 2.2111C0.492049 2.2714 0.460825 2.33171 0.429601 2.39412C0.398377 2.45654 0.369306 2.52002 0.342389 2.58244C0.314395 2.64697 0.287477 2.71256 0.262713 2.77816C0.237949 2.84375 0.215339 2.9104 0.193805 2.97811C0.172271 3.04476 0.153967 3.11141 0.13674 3.17912C0.119513 3.24577 0.103363 3.31453 0.0893656 3.38542C0.0742919 3.45524 0.0624482 3.52506 0.0516813 3.59489C0.0409144 3.66366 0.0323008 3.73348 0.024764 3.80542C0.0172271 3.87736 0.0118436 3.9493 0.00861355 4.02124C0.00215339 4.09847 0 4.17041 0 4.24235C0 4.38729 0.00753686 4.53117 0.0215339 4.67399C0.0290707 4.74593 0.0376843 4.81575 0.0484512 4.88558C0.0592182 4.95435 0.0710618 5.02417 0.0861355 5.09505C0.0990558 5.16276 0.115206 5.22941 0.132433 5.29712C0.14966 5.36377 0.169041 5.43042 0.189498 5.49707C0.209955 5.56266 0.232566 5.62825 0.256253 5.69279C0.27994 5.75627 0.305781 5.81974 0.332698 5.88322C0.334852 5.88957 0.335928 5.89168 0.339159 5.89803L0.342389 5.90332C0.369306 5.96574 0.398377 6.02816 0.428524 6.08952C0.458672 6.15088 0.490972 6.21118 0.52435 6.27148C0.557727 6.33285 0.593258 6.39209 0.627712 6.44922C0.663243 6.50741 0.699851 6.56453 0.738612 6.62061C0.776296 6.67562 0.815057 6.73063 0.855972 6.78459C0.896886 6.83854 0.938877 6.89144 0.981945 6.94328C1.02609 6.99617 1.07131 7.04696 1.11761 7.09774C1.16498 7.14958 1.21343 7.1993 1.26189 7.24691L1.26404 7.24902C1.31249 7.29663 1.36202 7.34318 1.41155 7.38867C1.46215 7.43416 1.51383 7.47754 1.56767 7.52091C1.6215 7.56429 1.67534 7.60555 1.73025 7.64469L1.7324 7.64575C1.78839 7.68595 1.84438 7.7251 1.90036 7.76107C1.95743 7.79915 2.01557 7.83618 2.07479 7.87109C2.13401 7.90601 2.19538 7.94092 2.25783 7.97371C2.31812 8.00651 2.38057 8.03719 2.44409 8.06681C2.50762 8.09749 2.57222 8.12606 2.63575 8.15251L2.6379 8.15356C2.70465 8.18213 2.77033 8.20752 2.83601 8.23079C2.90277 8.25513 2.9706 8.27734 3.03951 8.2985C3.10734 8.31966 3.17625 8.3387 3.24515 8.35563C3.31299 8.37256 3.38297 8.38843 3.45403 8.40218L3.45188 8.40112ZM4.56087 7.67432V6.57723H5.6268C5.56112 6.65975 5.49114 6.74227 5.419 6.82585C5.33394 6.92318 5.2435 7.02157 5.14875 7.1189C5.05292 7.21729 4.95171 7.31673 4.8462 7.41724C4.75468 7.50081 4.65993 7.58756 4.56087 7.67432ZM4.56087 6.09904V4.48145H6.58721C6.57429 4.60628 6.55276 4.73112 6.52261 4.85701C6.49031 4.99243 6.4494 5.12785 6.39771 5.26432C6.34496 5.40397 6.28251 5.54468 6.21037 5.68538C6.14038 5.82292 6.05963 5.96045 5.97027 6.09798H4.56087V6.09904ZM4.56087 4.00325V2.38566H6.03487C6.121 2.52108 6.19745 2.65544 6.2642 2.79085C6.33311 2.9305 6.39125 3.06909 6.43863 3.20874C6.48493 3.34521 6.52153 3.48275 6.54845 3.61922C6.57322 3.74723 6.58937 3.87419 6.5969 4.0022H4.56087V4.00325ZM4.56087 1.90853V0.791341C4.66639 0.878092 4.7676 0.965901 4.86558 1.05371C4.97756 1.15422 5.08415 1.25472 5.18536 1.35417C5.28657 1.45467 5.38132 1.55412 5.47176 1.65356C5.5482 1.7382 5.62142 1.82389 5.69033 1.90853H4.56087ZM4.07421 0.791341V1.90959H2.94583C3.01474 1.82389 3.08796 1.73926 3.16333 1.65462C3.25269 1.55518 3.34744 1.45573 3.44865 1.35628C3.54986 1.25578 3.65645 1.15633 3.76843 1.05583C3.86533 0.965901 3.96762 0.87915 4.07421 0.791341ZM4.07421 2.38672V4.00325H2.03818C2.04572 3.87524 2.06295 3.74829 2.08771 3.62028C2.11463 3.48275 2.15123 3.34627 2.19861 3.20874C2.24598 3.06909 2.30412 2.92944 2.37303 2.79085C2.43979 2.65544 2.51516 2.52002 2.60129 2.38566H4.07421V2.38672ZM4.07421 4.48145V6.09904H2.66374C2.57437 5.96151 2.4947 5.82397 2.42364 5.68644C2.3515 5.54574 2.28905 5.40503 2.23629 5.26538C2.18569 5.12891 2.1437 4.99349 2.1114 4.85807C2.08125 4.73218 2.06079 4.60734 2.04679 4.4825H4.07421V4.48145ZM4.07421 6.57617V7.67432C3.97515 7.58756 3.8804 7.50187 3.78996 7.41618C3.68337 7.31673 3.58216 7.21623 3.48633 7.11784C3.39159 7.02051 3.30114 6.92212 3.21608 6.82479C3.14395 6.74227 3.07396 6.65869 3.00828 6.57617H4.07421ZM9.21758 6.19425H11.3634C11.4819 6.19425 11.5777 6.09163 11.5777 5.96574C11.5777 5.83984 11.4819 5.73722 11.3634 5.73722H9.38231C9.33494 5.89274 9.28002 6.04508 9.21758 6.19425ZM8.67277 7.18766C8.69 7.19295 8.7083 7.19507 8.72768 7.19507H11.3634C11.4819 7.19507 11.5777 7.09245 11.5777 6.96655C11.5777 6.84066 11.4819 6.73804 11.3634 6.73804H8.95594C8.86873 6.8925 8.77505 7.04272 8.67277 7.18766ZM5.11968 10.443H11.5529V7.96842H8.00199C7.23108 8.70475 6.23298 9.21151 5.11968 9.37866V10.443ZM7.55408 12.2859C7.75543 12.2859 7.91908 12.1251 7.91908 11.9272C7.91908 11.7294 7.75543 11.5686 7.55408 11.5686C7.35274 11.5686 7.18908 11.7294 7.18908 11.9272C7.18908 12.1251 7.35274 12.2859 7.55408 12.2859ZM6.27712 12.2859C6.47847 12.2859 6.64212 12.1251 6.64212 11.9272C6.64212 11.7294 6.47847 11.5686 6.27712 11.5686C6.07578 11.5686 5.91213 11.7294 5.91213 11.9272C5.91105 12.1251 6.07471 12.2859 6.27712 12.2859ZM4.99909 12.2859C5.20043 12.2859 5.36409 12.1251 5.36409 11.9272C5.36409 11.7294 5.20043 11.5686 4.99909 11.5686C4.79775 11.5686 4.63409 11.7294 4.63409 11.9272C4.63409 12.1251 4.79775 12.2859 4.99909 12.2859Z" fill="#5F5F5F"/>
</g>
<defs>
<clipPath id="clip0_560_183">
<rect width="13" height="13" fill="white" transform="matrix(1 0 0 -1 0 13)"/>
</clipPath>
</defs>
</svg>
