<svg width="15" height="15" viewBox="0 0 15 15" fill="none" xmlns="http://www.w3.org/2000/svg">
<g clipPath="url(#clip0_62_86)">
<path fill-rule="evenodd" clip-rule="evenodd" d="M12.8134 2.15367C11.4029 0.740249 9.5269 -0.0370789 7.52878 -0.0370789C3.41269 -0.0371023 0.0625547 3.31331 0.0625547 7.43245C0.0625547 8.74821 0.407203 10.0352 1.06022 11.166L0 15.0374L3.95998 13.9982C5.05205 14.5931 6.28059 14.9084 7.52768 14.9084H7.53073C11.6471 14.9084 15 11.558 15 7.43909C15 5.44263 14.2227 3.5677 12.8122 2.1548L12.8133 2.15369L12.8134 2.15367ZM7.53098 13.648C6.41538 13.648 5.32275 13.3474 4.36938 12.7818L4.14211 12.6462L1.79215 13.2616L2.41971 10.9711L2.27271 10.7358C1.64791 9.74918 1.32185 8.60728 1.32185 7.43273C1.32185 4.00894 4.10698 1.22273 7.53434 1.22273C9.19167 1.22273 10.753 1.87078 11.9242 3.042C13.096 4.21685 13.7405 5.77453 13.7405 7.43466C13.7377 10.8609 10.9526 13.6471 7.53047 13.6471L7.53103 13.648L7.53098 13.648ZM10.9345 8.99648C10.7491 8.90208 9.83027 8.45196 9.65977 8.38969C9.48923 8.32739 9.36492 8.29528 9.23843 8.48407C9.11496 8.66955 8.75592 9.09087 8.64659 9.21684C8.53723 9.34059 8.42899 9.35829 8.24353 9.26391C8.05805 9.1695 7.4543 8.97267 6.74203 8.33653C6.18811 7.84212 5.81245 7.22979 5.70309 7.04433C5.59376 6.85884 5.69091 6.75586 5.78588 6.6648C5.87168 6.58174 5.97162 6.44721 6.06574 6.33785C6.16015 6.22852 6.18949 6.15211 6.25148 6.0259C6.31378 5.90215 6.28334 5.79279 6.23656 5.69894C6.18949 5.60484 5.81522 4.68605 5.66269 4.3118C5.51292 3.9461 5.35652 3.99703 5.24163 3.99068C5.1323 3.98512 5.00855 3.98512 4.88538 3.98512C4.76217 3.98512 4.55843 4.03191 4.38792 4.21793C4.21739 4.40341 3.73406 4.85683 3.73406 5.77535C3.73406 6.69412 4.40231 7.58025 4.49616 7.70676C4.59054 7.83021 5.81245 9.71733 7.68434 10.5248C8.12918 10.7161 8.47659 10.831 8.74734 10.9199C9.19495 11.061 9.60106 11.0406 9.92217 10.9932C10.2812 10.9403 11.0264 10.5425 11.1828 10.1066C11.339 9.67027 11.339 9.29712 11.2922 9.21989C11.2479 9.13683 11.1244 9.09089 10.9359 8.99536L10.9345 8.99648Z" fill="#D6D6D6"/>
</g>
<defs>
<clipPath id="clip0_62_86">
<rect width="15" height="15" fill="white"/>
</clipPath>
</defs>
</svg>
