<svg width="14" height="14" viewBox="0 0 14 14" fill="none" xmlns="http://www.w3.org/2000/svg">
<g clip-path="url(#clip0_1502_57)">
<path fill-rule="evenodd" clip-rule="evenodd" d="M11.9591 2.01003C10.6427 0.690838 8.89177 -0.034668 7.02686 -0.034668C3.18518 -0.0346898 0.0583844 3.09236 0.0583844 6.9369C0.0583844 8.16494 0.380056 9.36611 0.989538 10.4215L0 14.0348L3.69598 13.0649C4.71524 13.6201 5.86189 13.9144 7.02583 13.9144H7.02868C10.8706 13.9144 14 10.7874 14 6.94309C14 5.07973 13.2745 3.32979 11.9581 2.01108L11.9591 2.01005L11.9591 2.01003ZM7.02892 12.7381C5.98769 12.7381 4.9679 12.4575 4.07809 11.9296L3.86597 11.803L1.67267 12.3774L2.2584 10.2396L2.1212 10.02C1.53805 9.09917 1.23373 8.0334 1.23373 6.93716C1.23373 3.74161 3.83318 1.14116 7.03205 1.14116C8.57889 1.14116 10.0361 1.746 11.1293 2.83914C12.2229 3.93567 12.8244 5.3895 12.8244 6.93895C12.8219 10.1368 10.2224 12.7373 7.02844 12.7373L7.02896 12.7381L7.02892 12.7381ZM10.2056 8.39666C10.0325 8.30855 9.17492 7.88844 9.01578 7.83031C8.85662 7.77217 8.74059 7.7422 8.62254 7.9184C8.5073 8.09152 8.17219 8.48475 8.07015 8.60233C7.96808 8.71783 7.86706 8.73434 7.69396 8.64625C7.52084 8.55814 6.95734 8.37443 6.29256 7.7807C5.77557 7.31925 5.42496 6.74774 5.32289 6.57465C5.22084 6.40153 5.31151 6.30541 5.40015 6.22042C5.48023 6.1429 5.57351 6.01734 5.66136 5.91527C5.74947 5.81322 5.77686 5.74191 5.83472 5.62411C5.89286 5.50861 5.86445 5.40654 5.82078 5.31895C5.77686 5.23113 5.42754 4.37358 5.28518 4.02428C5.14539 3.68297 4.99942 3.7305 4.89219 3.72457C4.79014 3.71939 4.67464 3.71939 4.55969 3.71939C4.44469 3.71939 4.25453 3.76305 4.09539 3.93667C3.93623 4.10979 3.48513 4.53299 3.48513 5.39027C3.48513 6.24779 4.10883 7.07484 4.19641 7.19292C4.2845 7.30814 5.42496 9.06945 7.17205 9.82313C7.58723 10.0016 7.91149 10.1089 8.16419 10.1918C8.58196 10.3236 8.96098 10.3045 9.26069 10.2603C9.59582 10.2109 10.2913 9.83964 10.4373 9.43272C10.583 9.02552 10.583 8.67725 10.5394 8.60517C10.498 8.52764 10.3828 8.48477 10.2069 8.39561L10.2056 8.39666Z" fill="#B99750"/>
</g>
<defs>
<clipPath id="clip0_1502_57">
<rect width="14" height="14" fill="white"/>
</clipPath>
</defs>
</svg>
