<svg width="11" height="13" viewBox="0 0 11 13" fill="none" xmlns="http://www.w3.org/2000/svg">
    <g clipPath="url(#clip0_285_661)">
        <path fill-rule="evenodd" clip-rule="evenodd"
            d="M8.31403 1.72274C6.96748 0.162008 5.41556 -0.686852 4.25026 0.701567C2.91103 0.767392 2.33692 2.67428 3.2581 3.61463C3.19199 3.61387 3.12994 3.62657 3.07603 3.65428C3.00558 3.69037 2.95221 3.74882 2.92539 3.83167C2.89857 3.91325 2.89857 4.01898 2.9365 4.15038L2.9411 4.16334C2.9579 4.20985 2.97253 4.26881 2.98743 4.32955C3.04921 4.58065 3.11721 4.85666 3.42228 4.84141C3.43854 4.84039 3.45453 4.83887 3.47078 4.83633C3.48189 5.3553 3.75228 5.5942 4.10585 5.90604C4.01103 6.03591 3.91593 6.1668 3.80187 6.28777L3.80159 6.28726C3.20337 6.79251 1.66147 6.89367 1.00283 7.23855C0.794477 7.34732 0.606175 7.48609 0.454722 7.67365C0.432776 7.70059 0.412186 7.72778 0.392407 7.75498C0.407038 7.75396 0.420856 7.75345 0.433318 7.75345H10.5208C10.5016 7.72677 10.4812 7.70008 10.4598 7.67365C10.3084 7.48609 10.1201 7.34732 9.91174 7.23855C9.27369 6.90459 7.82228 6.79912 7.17312 6.33428C7.13275 6.26947 7.09076 6.18764 7.05012 6.10097C6.99756 5.98813 6.94824 5.86843 6.9076 5.76448C7.16499 5.54083 7.36278 5.29913 7.40748 4.8381L7.4381 4.83861C7.50962 4.8376 7.57817 4.82235 7.64238 4.78804C7.78462 4.7123 7.86211 4.56769 7.8995 4.40275C7.94746 4.19307 7.93147 3.94451 7.90844 3.78745C7.90682 3.77652 7.90384 3.76636 7.8995 3.7567C7.84992 3.62632 7.78733 3.55592 7.70903 3.52593C7.74453 2.90301 7.63236 1.91615 8.31403 1.72274ZM10.5669 8.06962H0.433318C0.175658 8.06962 -0.0345879 8.29632 0.00496864 8.57283L0.564994 12.4972C0.603467 12.7714 0.806397 13.0004 1.10145 13.0004H9.89874C10.1938 13.0004 10.3962 12.7714 10.4352 12.4972L10.9955 8.57283C11.0342 8.29606 10.8248 8.06962 10.5669 8.06962ZM5.54913 9.88653C5.19393 9.88653 4.90566 10.1567 4.90566 10.4899C4.90566 10.8233 5.19393 11.0935 5.54913 11.0935C5.90433 11.0935 6.19233 10.8233 6.19233 10.4899C6.19233 10.1567 5.90433 9.88653 5.54913 9.88653ZM4.27465 6.05599C4.6247 6.36173 5.0059 6.51041 5.39307 6.51041C5.79866 6.51066 6.20452 6.34801 6.58194 6.03286L6.7147 5.92409L6.72364 5.91697C6.75859 6.0044 6.79842 6.09792 6.83987 6.18688C6.89677 6.3081 6.95746 6.42222 7.01625 6.50482C6.38063 7.71355 4.50196 7.75574 3.8929 6.51168C4.04598 6.36631 4.16167 6.21102 4.27465 6.05599ZM4.42989 1.86989C4.73714 2.16039 5.06226 2.244 5.38088 2.27018C5.4749 2.28568 5.56647 2.29636 5.65778 2.30703C5.96339 2.34236 6.26847 2.37768 6.67216 2.63997C6.8629 2.76348 6.98997 2.91318 7.05581 3.08727C7.12327 3.2667 7.12788 3.47612 7.07206 3.71426C7.06694 3.73621 7.0682 3.75906 7.07571 3.78041C7.08323 3.80175 7.09672 3.82081 7.11477 3.83559C7.13283 3.85037 7.15478 3.86033 7.17835 3.86443C7.20191 3.86852 7.22621 3.8666 7.24871 3.85887L7.40342 3.80575C7.52913 3.76458 7.60797 3.75085 7.64563 3.83498C7.66487 3.97273 7.67706 4.18037 7.63832 4.35065C7.61529 4.45154 7.57573 4.53567 7.51071 4.57049C7.48768 4.58268 7.46221 4.58828 7.43512 4.58853C7.40098 4.58904 7.36278 4.58192 7.32214 4.57023C7.31049 4.56693 7.29856 4.56515 7.2861 4.56489C7.21241 4.56337 7.15118 4.61801 7.14955 4.68689C7.13492 5.2544 6.86669 5.47119 6.54022 5.73474L6.4042 5.84555C6.07637 6.11927 5.7312 6.26058 5.39307 6.26058C5.06416 6.26032 4.73551 6.12563 4.42881 5.84809L4.29063 5.72509C3.94817 5.42341 3.69593 5.20103 3.74443 4.65944C3.74632 4.6325 3.73955 4.6048 3.72248 4.58065C3.70308 4.55295 3.67274 4.53361 3.63814 4.52689C3.60354 4.52017 3.56751 4.52662 3.53797 4.54482C3.51576 4.55854 3.49354 4.56972 3.47159 4.5776L3.46591 4.57938C3.44586 4.58624 3.42635 4.59031 3.40847 4.59133C3.32691 4.59539 3.28546 4.42689 3.2478 4.27364C3.231 4.20578 3.21475 4.1397 3.19361 4.08226C3.17058 4.00043 3.16815 3.94274 3.18034 3.90512C3.18549 3.88936 3.19361 3.87894 3.20364 3.87386C3.21962 3.86573 3.24347 3.86319 3.27191 3.86573C3.33992 3.87157 3.42174 3.90538 3.49869 3.96002C3.51321 3.97035 3.52985 3.97778 3.54755 3.98185C3.56526 3.98591 3.58367 3.98653 3.60164 3.98365C3.63658 3.97805 3.66771 3.95967 3.68823 3.93257C3.70875 3.90546 3.71697 3.87183 3.7111 3.83904C3.58512 3.1503 3.64283 2.70147 3.79916 2.39522C3.93625 2.12709 4.15489 1.96444 4.39196 1.84295L4.42989 1.86989Z"
            fill="#939393" />
    </g>
    <defs>
        <clipPath id="clip0_285_661">
            <rect width="11" height="13" fill="white" transform="matrix(-1 0 0 1 11 0)" />
        </clipPath>
    </defs>
</svg>