<svg width="63" height="67" viewBox="0 0 63 67" fill="none" xmlns="http://www.w3.org/2000/svg">
<g clip-path="url(#clip0_139_1509)">
<path fill-rule="evenodd" clip-rule="evenodd" d="M13.8705 31.0791H49.3271V20.3595H38.031C36.8451 20.3595 35.1947 19.7216 34.4132 18.9419C33.6317 18.1622 33.1563 16.7555 33.1563 15.5777V4.16569H4.45433C4.35596 4.16569 4.27945 4.21476 4.23027 4.26383C4.14829 4.31836 4.12644 4.38924 4.12644 4.49284V62.5344C4.12644 62.6108 4.17562 62.7089 4.2248 62.758C4.27399 62.8343 4.37782 62.8561 4.44887 62.8561C16.898 62.8561 36.1948 62.8561 48.9937 62.8561C49.0921 62.8561 49.0866 62.8071 49.1413 62.758C49.2178 62.7089 49.3216 62.6053 49.3216 62.5344V56.4495H13.8705C11.608 56.4495 9.73894 54.5956 9.73894 52.3274V35.1957C9.73894 32.9329 11.597 31.0791 13.8705 31.0791ZM16.1767 37.115H20.6852L23.0297 41.1771L25.3031 37.115H29.7571L25.6474 43.5053L30.1451 50.31H25.5436L22.9477 46.0734L20.3355 50.31H15.7723L20.33 43.4344L16.1767 37.115ZM31.7955 37.115H35.8778V47.0658H42.2718V50.31H31.7955V37.115ZM43.7528 45.9426L47.6329 45.6972C47.7149 46.3242 47.8898 46.804 48.1466 47.1312C48.5674 47.6601 49.1686 47.9272 49.9501 47.9272C50.5294 47.9272 50.983 47.7909 51.2945 47.5183C51.6114 47.2457 51.7699 46.9294 51.7699 46.5696C51.7699 46.2261 51.6224 45.9207 51.3218 45.6536C51.0212 45.3809 50.3272 45.1301 49.2342 44.8902C47.4417 44.4922 46.1683 43.9578 45.4032 43.2926C44.6327 42.6274 44.2501 41.7823 44.2501 40.7518C44.2501 40.0757 44.4469 39.4377 44.8404 38.8325C45.2338 38.2273 45.824 37.7529 46.6165 37.4094C47.4089 37.0659 48.4909 36.8914 49.8681 36.8914C51.5568 36.8914 52.8465 37.2022 53.7318 37.8347C54.6172 38.4618 55.1473 39.4596 55.3167 40.8281L51.4748 41.0571C51.371 40.4574 51.1578 40.0212 50.8299 39.754C50.502 39.4814 50.0485 39.3451 49.4746 39.3451C48.9992 39.3451 48.6385 39.4487 48.398 39.6449C48.1576 39.8467 48.0373 40.092 48.0373 40.381C48.0373 40.5882 48.1357 40.7791 48.3325 40.9481C48.5183 41.1226 48.9773 41.2807 49.6987 41.4333C51.4857 41.815 52.7645 42.2076 53.5296 42.6002C54.3002 42.9928 54.8631 43.478 55.2183 44.0614C55.5681 44.6449 55.7429 45.2937 55.7429 46.0134C55.7429 46.8586 55.5079 47.6383 55.0434 48.3525C54.5734 49.0668 53.9176 49.6066 53.076 49.9774C52.2344 50.3481 51.1742 50.5281 49.8954 50.5281C47.6493 50.5281 46.0918 50.0973 45.2229 49.2304C44.3594 48.3689 43.8676 47.273 43.7528 45.9426ZM53.4422 31.0791H58.8689C61.1423 31.0791 63.0004 32.9384 63.0004 35.2012V52.3329C63.0004 54.5956 61.1368 56.4549 58.8689 56.4549H53.4422V63.843C53.4422 64.7209 53.087 65.5006 52.5131 66.0785C51.9339 66.6565 51.1524 67.0055 50.2725 67.0055C34.1837 67.0055 19.3463 67.0055 3.17553 67.0055C2.29568 67.0055 1.51419 66.6565 0.934902 66.0785C0.355617 65.5006 0.00585938 64.7209 0.00585938 63.843V3.1897C0.00585938 2.31185 0.361082 1.53215 0.934902 0.954183C1.51419 0.376221 2.31754 0.0272624 3.17553 0.0272624H35.2657C35.3368 0 35.4133 0 35.4898 0C35.8396 0 36.1948 0.152669 36.4462 0.376221H36.4954C36.5445 0.403483 36.5719 0.425293 36.6211 0.474365L53.0105 17.0281C53.2892 17.3062 53.4914 17.6824 53.4914 18.1077C53.4914 18.2331 53.464 18.3312 53.4422 18.4621V31.0791ZM36.8998 15.2506V4.87451L48.6112 16.7064H38.3589C37.9545 16.7064 37.6048 16.5319 37.326 16.2811C37.0746 16.0303 36.8998 15.6541 36.8998 15.2506Z" fill="#808080"/>
</g>
<defs>
<clipPath id="clip0_139_1509">
<rect width="63" height="67" fill="white"/>
</clipPath>
</defs>
</svg>
