<svg width="14" height="14" viewBox="0 0 14 14" fill="none" xmlns="http://www.w3.org/2000/svg">
<g clip-path="url(#clip0_342_11)">
<path d="M0.910399 10.2433C0.910399 9.99129 0.706461 9.78715 0.454671 9.78715C0.20288 9.78715 -0.00105858 9.99129 -0.00105858 10.2433V13.5221C-0.00105858 13.7741 0.20288 13.9783 0.454671 13.9783H3.78377C4.03556 13.9783 4.2395 13.7741 4.2395 13.5221C4.2395 13.27 4.03556 13.0659 3.78377 13.0659H1.59855L5.51326 9.36176C5.69556 9.18956 5.70467 8.90217 5.53263 8.71856C5.36059 8.53609 5.07349 8.52697 4.89005 8.69917L0.910399 12.4649V10.2433ZM3.76668 0.911129C4.01847 0.911129 4.22241 0.70699 4.22241 0.454954C4.22241 0.202917 4.01847 -0.0012207 3.76668 -0.0012207H0.491129C0.239338 -0.0012207 0.0353994 0.202917 0.0353994 0.454954V3.78617C0.0353994 4.03821 0.239338 4.24234 0.491129 4.24234C0.742919 4.24234 0.946858 4.03821 0.946858 3.78617V1.59995L4.64738 5.51849C4.81942 5.70096 5.10653 5.71009 5.28996 5.53788C5.47225 5.36567 5.48136 5.07828 5.30933 4.89467L1.54728 0.911129H3.76668ZM13.0898 3.73599C13.0898 3.98803 13.2937 4.19216 13.5455 4.19216C13.7973 4.19216 14.0012 3.98803 14.0012 3.73599V0.457235C14.0012 0.205198 13.7973 0.00106017 13.5455 0.00106017H10.2175C9.96574 0.00106017 9.7618 0.205198 9.7618 0.457235C9.7618 0.709271 9.96574 0.91341 10.2175 0.91341H12.4016L8.4869 4.61755C8.30461 4.78975 8.29549 5.07714 8.46753 5.26075C8.63957 5.44322 8.92668 5.45235 9.11011 5.28014L13.0898 1.51442V3.73599ZM10.2472 13.0887C9.99536 13.0887 9.79142 13.2928 9.79142 13.5449C9.79142 13.7969 9.99536 14.0011 10.2472 14.0011H13.5227C13.7745 14.0011 13.9784 13.7969 13.9784 13.5449V10.2125C13.9784 9.96049 13.7745 9.75636 13.5227 9.75636C13.2709 9.75636 13.067 9.96049 13.067 10.2125V12.3999L9.36646 8.48135C9.19442 8.29888 8.90731 8.28975 8.72388 8.46196C8.54158 8.63417 8.53247 8.92156 8.70451 9.10517L12.4666 13.0887H10.2472Z" fill="#B99750"/>
</g>
<defs>
<clipPath id="clip0_342_11">
<rect width="14" height="14" fill="white" transform="matrix(-1 0 0 1 14 0)"/>
</clipPath>
</defs>
</svg>
